<?xml version="1.0" encoding="UTF-8" standalone="no"?>
<svg
   xmlns:dc="http://purl.org/dc/elements/1.1/"
   xmlns:cc="http://creativecommons.org/ns#"
   xmlns:rdf="http://www.w3.org/1999/02/22-rdf-syntax-ns#"
   xmlns:svg="http://www.w3.org/2000/svg"
   xmlns="http://www.w3.org/2000/svg"
   viewBox="0 0 482 630.95203"
   height="630.95203"
   width="482"
   xml:space="preserve"
   id="svg2"
   version="1.1"><metadata
     id="metadata8"><rdf:RDF><cc:Work
         rdf:about=""><dc:format>image/svg+xml</dc:format><dc:type
           rdf:resource="http://purl.org/dc/dcmitype/StillImage" /></cc:Work></rdf:RDF></metadata><defs
     id="defs6" /><g
     transform="matrix(1.3333333,0,0,-1.3333333,0,630.952)"
     id="g10"><g
       transform="translate(75.75,457.464)"
       id="g12"><path
         id="path14"
         style="fill:none;stroke:#231f20;stroke-width:0.75;stroke-linecap:square;stroke-linejoin:miter;stroke-miterlimit:10;stroke-dasharray:none;stroke-opacity:1"
         d="M 0,0 V -13.125" /><g
         transform="translate(169.125,-28.312)"
         id="g16"><path
           id="path18"
           style="fill:none;stroke:#231f20;stroke-width:0.75;stroke-linecap:square;stroke-linejoin:miter;stroke-miterlimit:10;stroke-dasharray:none;stroke-opacity:1"
           d="M 0,0 H -93.75" /><g
           transform="translate(42.75,-23.625)"
           id="g20"><path
             id="path22"
             style="fill:none;stroke:#231f20;stroke-width:0.75;stroke-linecap:square;stroke-linejoin:miter;stroke-miterlimit:10;stroke-dasharray:none;stroke-opacity:1"
             d="M 0,0 H -136.5" /><g
             transform="translate(-70.875,-23.625)"
             id="g24"><path
               id="path26"
               style="fill:none;stroke:#231f20;stroke-width:0.75;stroke-linecap:square;stroke-linejoin:miter;stroke-miterlimit:10;stroke-dasharray:none;stroke-opacity:1"
               d="M 0,0 H -65.625" /><g
               id="g28"><path
                 id="path30"
                 style="fill:none;stroke:#231f20;stroke-width:0.75;stroke-linecap:square;stroke-linejoin:miter;stroke-miterlimit:10;stroke-dasharray:none;stroke-opacity:1"
                 d="M 0,0 H 65.625" /><g
                 id="g32"><path
                   id="path34"
                   style="fill:none;stroke:#231f20;stroke-width:0.75;stroke-linecap:square;stroke-linejoin:miter;stroke-miterlimit:10;stroke-dasharray:none;stroke-opacity:1"
                   d="M 0,0 V 0" /><g
                   transform="translate(-171.498,-7.687)"
                   id="g36"><path
                     id="path38"
                     style="fill:none;stroke:#231f20;stroke-width:0.75;stroke-linecap:square;stroke-linejoin:miter;stroke-miterlimit:10;stroke-dasharray:none;stroke-opacity:1"
                     d="M 0,0 V -51.422" /><g
                     transform="translate(8.373,-51.422)"
                     id="g40"><path
                       id="path42"
                       style="fill:none;stroke:#231f20;stroke-width:0.75;stroke-linecap:square;stroke-linejoin:miter;stroke-miterlimit:10;stroke-dasharray:none;stroke-opacity:1"
                       d="M 0,0 H -8.373" /></g></g></g></g></g></g></g></g><g
       transform="translate(22.875,279.339)"
       id="g44"><path
         id="path46"
         style="fill:none;stroke:#231f20;stroke-width:2.25;stroke-linecap:square;stroke-linejoin:miter;stroke-miterlimit:10;stroke-dasharray:none;stroke-opacity:1"
         d="M 0,0 -0.123,94.875" /><g
         transform="translate(16.898,-65.296)"
         id="g48"><path
           id="path50"
           style="fill:none;stroke:#231f20;stroke-width:2.25;stroke-linecap:square;stroke-linejoin:miter;stroke-miterlimit:10;stroke-dasharray:none;stroke-opacity:1"
           d="M 0,0 H -16.898" /><g
           transform="translate(1.852,25.5)"
           id="g52"><path
             id="path54"
             style="fill:none;stroke:#231f20;stroke-width:2.25;stroke-linecap:square;stroke-linejoin:miter;stroke-miterlimit:10;stroke-dasharray:none;stroke-opacity:1"
             d="M 0,0 H -18.75" /><g
             transform="translate(-18.75,-25.5)"
             id="g56"><path
               id="path58"
               style="fill:none;stroke:#231f20;stroke-width:2.25;stroke-linecap:square;stroke-linejoin:miter;stroke-miterlimit:10;stroke-dasharray:none;stroke-opacity:1"
               d="M 0,0 V 65.296" /><g
               transform="translate(0,25.5)"
               id="g60"><path
                 id="path62"
                 style="fill:none;stroke:#231f20;stroke-width:2.25;stroke-linecap:square;stroke-linejoin:miter;stroke-miterlimit:10;stroke-dasharray:none;stroke-opacity:1"
                 d="M 0,0 V 39.796" /></g></g></g></g></g><g
       transform="translate(200.273,216.714)"
       id="g64"><path
         id="path66"
         style="fill:none;stroke:#231f20;stroke-width:0.75;stroke-linecap:square;stroke-linejoin:miter;stroke-miterlimit:10;stroke-dasharray:none;stroke-opacity:1"
         d="M 0,0 H 9.794" /><g
         transform="translate(-63.375,-41.759)"
         id="g68"><path
           id="path70"
           style="fill:none;stroke:#231f20;stroke-width:0.75;stroke-linecap:square;stroke-linejoin:miter;stroke-miterlimit:10;stroke-dasharray:none;stroke-opacity:1"
           d="M 0,0 H 55.5" /><g
           transform="translate(0,-23.625)"
           id="g72"><path
             id="path74"
             style="fill:none;stroke:#231f20;stroke-width:0.75;stroke-linecap:square;stroke-linejoin:miter;stroke-miterlimit:10;stroke-dasharray:none;stroke-opacity:1"
             d="M 0,0 H 60.75" /><g
             transform="translate(-68.881,38.812)"
             id="g76"><path
               id="path78"
               style="fill:none;stroke:#231f20;stroke-width:0.75;stroke-linecap:square;stroke-linejoin:miter;stroke-miterlimit:10;stroke-dasharray:none;stroke-opacity:1"
               d="M 0,0 -0.002,17.813" /><g
               transform="translate(-59.768,176.573)"
               id="g80"><path
                 id="path82"
                 style="fill:none;stroke:#231f20;stroke-width:0.75;stroke-linecap:square;stroke-linejoin:miter;stroke-miterlimit:10;stroke-dasharray:none;stroke-opacity:1"
                 d="M 0,0 V -219 H 43.898" /><g
                 transform="translate(278.904,-314.666)"
                 id="g84"><path
                   id="path86"
                   style="fill:none;stroke:#231f20;stroke-width:0.75;stroke-linecap:square;stroke-linejoin:miter;stroke-miterlimit:10;stroke-dasharray:none;stroke-opacity:1"
                   d="M 0,0 -0.654,25.494" /><g
                   transform="translate(-123.212,56.807)"
                   id="g88"><path
                     id="path90"
                     style="fill:none;stroke:#231f20;stroke-width:0.75;stroke-linecap:square;stroke-linejoin:miter;stroke-miterlimit:10;stroke-dasharray:none;stroke-opacity:1"
                     d="M 0,0 H -55.5" /><g
                     transform="translate(0,-23.625)"
                     id="g92"><path
                       id="path94"
                       style="fill:none;stroke:#231f20;stroke-width:0.75;stroke-linecap:square;stroke-linejoin:miter;stroke-miterlimit:10;stroke-dasharray:none;stroke-opacity:1"
                       d="M 0,0 H -60.75" /><g
                       transform="translate(79.461,-48.367)"
                       id="g96"><path
                         id="path98"
                         style="fill:none;stroke:#231f20;stroke-width:0.75;stroke-linecap:square;stroke-linejoin:miter;stroke-miterlimit:10;stroke-dasharray:none;stroke-opacity:1"
                         d="M 0,0 H -158.25" /><g
                         transform="translate(0,-23.625)"
                         id="g100"><path
                           id="path102"
                           style="fill:none;stroke:#231f20;stroke-width:0.75;stroke-linecap:square;stroke-linejoin:miter;stroke-miterlimit:10;stroke-dasharray:none;stroke-opacity:1"
                           d="M 0,0 H -82.501" /><g
                           transform="translate(46.097,179.992)"
                           id="g104"><path
                             id="path106"
                             style="fill:none;stroke:#231f20;stroke-width:0.75;stroke-linecap:square;stroke-linejoin:miter;stroke-miterlimit:10;stroke-dasharray:none;stroke-opacity:1"
                             d="M 0,0 V -76.688" /><g
                             transform="translate(-33.75,-141.18)"
                             id="g108"><path
                               id="path110"
                               style="fill:none;stroke:#231f20;stroke-width:0.75;stroke-linecap:square;stroke-linejoin:miter;stroke-miterlimit:10;stroke-dasharray:none;stroke-opacity:1"
                               d="M 0,0 V 4.913 H -24.722" /><g
                               transform="translate(-83.625,295.914)"
                               id="g112"><path
                                 id="path114"
                                 style="fill:none;stroke:#231f20;stroke-width:0.75;stroke-linecap:square;stroke-linejoin:miter;stroke-miterlimit:10;stroke-dasharray:none;stroke-opacity:1"
                                 d="M 0,0 H 56.25" /><g
                                 transform="translate(25.5,-23.625)"
                                 id="g116"><path
                                   id="path118"
                                   style="fill:none;stroke:#231f20;stroke-width:0.75;stroke-linecap:square;stroke-linejoin:miter;stroke-miterlimit:10;stroke-dasharray:none;stroke-opacity:1"
                                   d="M 0,0 V 0" /><g
                                   transform="translate(25.5)"
                                   id="g120"><path
                                   id="path122"
                                   style="fill:none;stroke:#231f20;stroke-width:0.75;stroke-linecap:square;stroke-linejoin:miter;stroke-miterlimit:10;stroke-dasharray:none;stroke-opacity:1"
                                   d="M 0,0 H -25.5 -51" /><g
                                   transform="translate(-17.625,-23.625)"
                                   id="g124"><path
                                   id="path126"
                                   style="fill:none;stroke:#231f20;stroke-width:0.75;stroke-linecap:square;stroke-linejoin:miter;stroke-miterlimit:10;stroke-dasharray:none;stroke-opacity:1"
                                   d="M 0,0 V 0" /><g
                                   transform="translate(33.375)"
                                   id="g128"><path
                                   id="path130"
                                   style="fill:none;stroke:#231f20;stroke-width:0.75;stroke-linecap:square;stroke-linejoin:miter;stroke-miterlimit:10;stroke-dasharray:none;stroke-opacity:1"
                                   d="M 0,0 H -33.375 -66.75" /><g
                                   transform="translate(-66.75,-23.625)"
                                   id="g132"><path
                                   id="path134"
                                   style="fill:none;stroke:#231f20;stroke-width:0.75;stroke-linecap:square;stroke-linejoin:miter;stroke-miterlimit:10;stroke-dasharray:none;stroke-opacity:1"
                                   d="M 0,0 H 22.5" /></g></g></g></g></g></g></g></g></g></g></g></g></g></g></g></g></g></g><path
       id="path136"
       style="fill:#ffffff;fill-opacity:1;fill-rule:nonzero;stroke:none"
       d="m 244.875,421.464 h 116.25 v 15.375 h -116.25 z" /><g
       transform="translate(252.563,436.839)"
       id="g138"><path
         id="path140"
         style="fill:none;stroke:#231f20;stroke-width:0.75;stroke-linecap:square;stroke-linejoin:miter;stroke-miterlimit:10;stroke-dasharray:none;stroke-opacity:1"
         d="m 0,0 h 100.875 c 4.244,0 7.687,-3.445 7.687,-7.687 0,-4.244 -3.443,-7.688 -7.687,-7.688 H 0 c -4.243,0 -7.687,3.444 -7.687,7.688 C -7.687,-3.445 -4.243,0 0,0 Z" /></g><text
       id="text144"
       style="font-variant:normal;font-weight:normal;font-stretch:normal;font-size:9px;font-family:Times;-inkscape-font-specification:Times-Roman;writing-mode:lr-tb;fill:#231f20;fill-opacity:1;fill-rule:nonzero;stroke:none"
       transform="matrix(1,0,0,-1,259.2246,426.8521)"><tspan
         id="tspan142"
         y="0"
         x="0 4.5 9 11.25 13.5 18 22.5 24.75 27 29.997 33.993 38.493 41.490002 45.486 48.987 52.983002 57.483002 59.985001 63.980999 66.483002 68.985001 73.485001 77.985001">18, 61, representation</tspan></text>
<path
       id="path146"
       style="fill:#ffffff;fill-opacity:1;fill-rule:nonzero;stroke:none"
       d="m 287.625,397.839 h 73.5 v 15.375 h -73.5 z" /><g
       transform="translate(295.313,413.214)"
       id="g148"><path
         id="path150"
         style="fill:none;stroke:#231f20;stroke-width:0.75;stroke-linecap:square;stroke-linejoin:miter;stroke-miterlimit:10;stroke-dasharray:none;stroke-opacity:1"
         d="m 0,0 h 58.125 c 4.244,0 7.688,-3.445 7.688,-7.687 0,-4.244 -3.444,-7.688 -7.688,-7.688 H 0 c -4.243,0 -7.687,3.444 -7.687,7.688 C -7.687,-3.445 -4.243,0 0,0 Z" /></g><text
       id="text154"
       style="font-variant:normal;font-weight:normal;font-stretch:normal;font-size:9px;font-family:Times;-inkscape-font-specification:Times-Roman;writing-mode:lr-tb;fill:#231f20;fill-opacity:1;fill-rule:nonzero;stroke:none"
       transform="matrix(1,0,0,-1,302.1094,403.025)"><tspan
         id="tspan152"
         y="0"
         x="0 4.5 9 11.25 13.5 18 22.5 24.75 27 29.502001 33.362999 37.862999 40.365002">65, 44, text</tspan></text>
<path
       id="path156"
       style="fill:#ffffff;fill-opacity:1;fill-rule:nonzero;stroke:none"
       d="m 282.375,374.214 h 78.75 v 15.375 h -78.75 z" /><g
       transform="translate(290.063,389.589)"
       id="g158"><path
         id="path160"
         style="fill:none;stroke:#231f20;stroke-width:0.75;stroke-linecap:square;stroke-linejoin:miter;stroke-miterlimit:10;stroke-dasharray:none;stroke-opacity:1"
         d="m 0,0 h 63.375 c 4.244,0 7.688,-3.445 7.688,-7.687 0,-4.244 -3.444,-7.688 -7.688,-7.688 H 0 c -4.243,0 -7.687,3.444 -7.687,7.688 C -7.687,-3.445 -4.243,0 0,0 Z" /></g><text
       id="text164"
       style="font-variant:normal;font-weight:normal;font-stretch:normal;font-size:9px;font-family:Times;-inkscape-font-specification:Times-Roman;writing-mode:lr-tb;fill:#231f20;fill-opacity:1;fill-rule:nonzero;stroke:none"
       transform="matrix(1,0,0,-1,297.2344,379.3316)"><tspan
         id="tspan162"
         y="0"
         x="0 4.5 9 11.25 13.5 18 22.5 24.75 27 29.502001 33.498001 37.998001 41.993999 44.495998">65, 33, label</tspan></text>
<path
       id="path166"
       style="fill:#ffffff;fill-opacity:1;fill-rule:nonzero;stroke:none"
       d="m 28.875,457.464 h 93.75 v 15.375 h -93.75 z" /><g
       transform="translate(36.563,472.839)"
       id="g168"><path
         id="path170"
         style="fill:none;stroke:#231f20;stroke-width:0.75;stroke-linecap:square;stroke-linejoin:miter;stroke-miterlimit:10;stroke-dasharray:none;stroke-opacity:1"
         d="m 0,0 h 78.375 c 4.244,0 7.687,-3.445 7.687,-7.687 0,-4.244 -3.443,-7.688 -7.687,-7.688 H 0 c -4.243,0 -7.688,3.444 -7.688,7.688 C -7.688,-3.445 -4.243,0 0,0 Z" /></g><text
       id="text174"
       style="font-variant:normal;font-weight:normal;font-stretch:normal;font-size:9px;font-family:Times;-inkscape-font-specification:Times-Roman;writing-mode:lr-tb;fill:#231f20;fill-opacity:1;fill-rule:nonzero;stroke:none"
       transform="matrix(1,0,0,-1,46.4824,462.7847)"><tspan
         id="tspan172"
         y="0"
         x="0 4.5 9 11.25 13.5 18 22.5 24.75 27.747 32.247002 36.747002 38.997002 41.247002 45.747002 50.247002 53.243999">15, 63 (64, 63)</tspan></text>
<path
       id="path176"
       style="fill:#ffffff;fill-opacity:1;fill-rule:nonzero;stroke:none"
       d="m 110.278,47.926 h 120.75 v 15.375 h -120.75 z" /><g
       transform="translate(117.965,63.301)"
       id="g178"><path
         id="path180"
         style="fill:none;stroke:#231f20;stroke-width:0.75;stroke-linecap:square;stroke-linejoin:miter;stroke-miterlimit:10;stroke-dasharray:none;stroke-opacity:1"
         d="m 0,0 h 105.375 c 4.244,0 7.688,-3.444 7.688,-7.687 0,-4.245 -3.444,-7.688 -7.688,-7.688 H 0 c -4.244,0 -7.687,3.443 -7.687,7.688 C -7.687,-3.444 -4.244,0 0,0 Z" /></g><text
       id="text184"
       style="font-variant:normal;font-weight:normal;font-stretch:normal;font-size:9px;font-family:Times;-inkscape-font-specification:Times-Roman;writing-mode:lr-tb;fill:#231f20;fill-opacity:1;fill-rule:nonzero;stroke:none"
       transform="matrix(1,0,0,-1,146.3887,53.2461)"><tspan
         id="tspan182"
         y="0"
         x="0 4.5 9 11.25 13.5 18 22.5 27 29.25 32.247002 36.747002 41.247002 44.243999">15, 125 (59)</tspan></text>
<g
       transform="translate(79.488,440.59)"
       id="g186"><path
         id="path188"
         style="fill:#ffffff;fill-opacity:1;fill-rule:nonzero;stroke:none"
         d="M 0,0 C 0,2.07 -1.68,3.75 -3.75,3.75 -5.82,3.75 -7.5,2.07 -7.5,0 c 0,-2.07 1.68,-3.75 3.75,-3.75 C -1.68,-3.75 0,-2.07 0,0" /></g><g
       transform="translate(79.488,440.59)"
       id="g190"><path
         id="path192"
         style="fill:none;stroke:#231f20;stroke-width:0.75;stroke-linecap:square;stroke-linejoin:miter;stroke-miterlimit:10;stroke-dasharray:none;stroke-opacity:1"
         d="M 0,0 C 0,2.07 -1.68,3.75 -3.75,3.75 -5.82,3.75 -7.5,2.07 -7.5,0 c 0,-2.07 1.68,-3.75 3.75,-3.75 C -1.68,-3.75 0,-2.07 0,0" /></g><text
       id="text200"
       style="font-variant:normal;font-weight:normal;font-stretch:normal;font-size:9px;font-family:Times;-inkscape-font-specification:Times-Roman;writing-mode:lr-tb;fill:#231f20;fill-opacity:1;fill-rule:nonzero;stroke:none"
       transform="matrix(1,0,0,-1,158.625,418.166)"><tspan
         id="tspan194"
         y="0"
         x="0 4.5 8.0010004 11.997 16.497 20.997 23.993999 27.99 32.490002 35.487 39.483002 42.984001 46.98 51.48 53.981998 57.978001 60.48 62.981998 67.482002 71.982002">used_representation</tspan><tspan
         id="tspan196"
         y="23.8536"
         x="0 2.997 9.4949999 14.994 20.997 23.993999 28.493999 32.490002 35.991001 39.987 42.984001 45.486 49.986 52.487999 54.990002 59.490002 63.990002">(DER)description</tspan><tspan
         id="tspan198"
         y="47.4786"
         x="0 2.997 9.4949999 14.994 20.997 23.993999 28.493999 32.490002 39.492001 43.487999">(DER)name</tspan></text>
<path
       id="path202"
       style="fill:#ffffff;fill-opacity:1;fill-rule:nonzero;stroke:none"
       d="m 47.273,207.955 h 145.5 v 15.375 h -145.5 z" /><g
       transform="translate(47.273,223.33)"
       id="g204"><path
         id="path206"
         style="fill:none;stroke:#231f20;stroke-width:0.75;stroke-linecap:square;stroke-linejoin:miter;stroke-miterlimit:10;stroke-dasharray:none;stroke-opacity:1"
         d="M 145.5,0 H 0 v -15.375 h 145.5 z" /><g
         id="g208"><path
           id="path210"
           style="fill:none;stroke:#231f20;stroke-width:0.75;stroke-linecap:square;stroke-linejoin:miter;stroke-miterlimit:10;stroke-dasharray:none;stroke-opacity:1"
           d="M 0,0 Z" /></g></g><text
       id="text214"
       style="font-variant:normal;font-weight:normal;font-stretch:normal;font-size:9px;font-family:Times;-inkscape-font-specification:Times-Roman;writing-mode:lr-tb;fill:#231f20;fill-opacity:1;fill-rule:nonzero;stroke:none"
       transform="matrix(1,0,0,-1,59.748,213.374)"><tspan
         id="tspan212"
         y="0"
         x="0 7.0019999 10.998 13.5 17.496 20.493 22.995001 26.990999 29.493 33.993 38.493 41.490002 45.990002 50.490002 54.486 57.483002 59.985001 64.485001 68.985001 71.982002 75.977997 80.477997 83.474998 87.471001 90.972 94.968002 99.468002 101.97 105.966 108.468 110.97 115.47 119.97">material_property_representation</tspan></text>
<path
       id="path216"
       style="fill:#ffffff;fill-opacity:1;fill-rule:nonzero;stroke:none"
       d="m 0.37502,374.214 h 150.75 v 62.625 h -150.75 z" /><g
       transform="translate(0.37502,436.839)"
       id="g218"><path
         id="path220"
         style="fill:none;stroke:#231f20;stroke-width:0.75;stroke-linecap:square;stroke-linejoin:miter;stroke-miterlimit:10;stroke-dasharray:none;stroke-opacity:1"
         d="M 150.75,0 H 0 v -62.625 h 150.75 z" /><g
         id="g222"><path
           id="path224"
           style="fill:none;stroke:#231f20;stroke-width:0.75;stroke-linecap:square;stroke-linejoin:miter;stroke-miterlimit:10;stroke-dasharray:none;stroke-opacity:1"
           d="M 0,0 Z" /></g></g><text
       id="text228"
       style="font-variant:normal;font-weight:normal;font-stretch:normal;font-size:9px;font-family:Times;-inkscape-font-specification:Times-Roman;writing-mode:lr-tb;fill:#231f20;fill-opacity:1;fill-rule:nonzero;stroke:none"
       transform="matrix(1,0,0,-1,12.4678,403.2139)"><tspan
         id="tspan226"
         y="0"
         x="0 4.5 7.4970002 11.997 16.497 20.493 23.49 25.992001 30.492001 34.992001 39.492001 43.487999 46.305 48.806999 53.306999 55.808998 58.311001 60.813 65.313004 69.813004 74.313004 77.309998 81.306 85.806 88.803001 92.799004 96.300003 100.296 104.796 107.298 111.294 113.796 116.298 120.798 125.298">property_definition_representation</tspan></text>
<path
       id="path230"
       style="fill:#ffffff;fill-opacity:1;fill-rule:nonzero;stroke:none"
       d="m 49.125,231.714 h 140.25 V 247.09 H 49.125 Z" /><g
       transform="translate(49.125,247.089)"
       id="g232"><path
         id="path234"
         style="fill:none;stroke:#231f20;stroke-width:0.75;stroke-linecap:square;stroke-linejoin:miter;stroke-miterlimit:10;stroke-dasharray:none;stroke-opacity:1"
         d="M 140.25,0 H 0 v -15.376 h 140.25 z" /><g
         id="g236"><path
           id="path238"
           style="fill:none;stroke:#231f20;stroke-width:0.75;stroke-linecap:square;stroke-linejoin:miter;stroke-miterlimit:10;stroke-dasharray:none;stroke-opacity:1"
           d="M 0,0 Z" /></g></g><text
       id="text242"
       style="font-variant:normal;font-weight:normal;font-stretch:normal;font-size:9px;font-family:Times;-inkscape-font-specification:Times-Roman;writing-mode:lr-tb;fill:#231f20;fill-opacity:1;fill-rule:nonzero;stroke:none"
       transform="matrix(1,0,0,-1,61.2158,237.0576)"><tspan
         id="tspan240"
         y="0"
         x="0 3.5009999 8.0010004 11.997 16.497 20.493 24.993 29.493 33.488998 36.306 38.807999 43.307999 45.810001 48.312 50.813999 55.313999 59.813999 64.314003 67.310997 71.306999 75.806999 78.804001 82.800003 86.301003 90.296997 94.796997 97.299004 101.295 103.797 106.299 110.799 115.299">shape_definition_representation</tspan></text>
<path
       id="path244"
       style="fill:#ffffff;fill-opacity:1;fill-rule:nonzero;stroke:none"
       d="m 210.067,200.731 h 149.25 v 24.75 h -149.25 z" /><path
       id="path246"
       style="fill:none;stroke:#231f20;stroke-width:0.75;stroke-linecap:square;stroke-linejoin:miter;stroke-miterlimit:10;stroke-dasharray:3.75, 3.75;stroke-dashoffset:0;stroke-opacity:1"
       d="m 210.067,225.481 v -24.75 h 149.25 v 24.75 z m 7.5,-24.75 v 24.75" /><text
       id="text250"
       style="font-variant:normal;font-weight:normal;font-stretch:normal;font-size:9px;font-family:Times;-inkscape-font-specification:Times-Roman;writing-mode:lr-tb;fill:#231f20;fill-opacity:1;fill-rule:nonzero;stroke:none"
       transform="matrix(1,0,0,-1,228.9219,210.8379)"><tspan
         id="tspan248"
         y="0"
         x="0 3.9960001 8.4960003 12.492 15.489 19.485001 23.481001 25.983 29.979 32.976002 35.478001 39.473999 43.470001 47.970001 52.470001 59.472 63.467999 65.970001 69.966003 72.962997 75.464996 79.460999 81.962997 86.462997 90.962997 93.959999 98.459999 102.96 106.956 109.953 112.455 116.955">characterized_material_property</tspan></text>
<g
       transform="translate(47.268,214.06)"
       id="g252"><path
         id="path254"
         style="fill:#ffffff;fill-opacity:1;fill-rule:nonzero;stroke:none"
         d="M 0,0 C 0,2.071 -1.68,3.75 -3.75,3.75 -5.82,3.75 -7.5,2.071 -7.5,0 c 0,-2.069 1.68,-3.75 3.75,-3.75 C -1.68,-3.75 0,-2.069 0,0" /></g><g
       transform="translate(47.268,214.06)"
       id="g256"><path
         id="path258"
         style="fill:none;stroke:#231f20;stroke-width:0.75;stroke-linecap:square;stroke-linejoin:miter;stroke-miterlimit:10;stroke-dasharray:none;stroke-opacity:1"
         d="M 0,0 C 0,2.071 -1.68,3.75 -3.75,3.75 -5.82,3.75 -7.5,2.071 -7.5,0 c 0,-2.069 1.68,-3.75 3.75,-3.75 C -1.68,-3.75 0,-2.069 0,0" /></g><g
       transform="translate(49.068,239.53)"
       id="g260"><path
         id="path262"
         style="fill:#ffffff;fill-opacity:1;fill-rule:nonzero;stroke:none"
         d="M 0,0 C 0,2.07 -1.68,3.75 -3.75,3.75 -5.82,3.75 -7.5,2.07 -7.5,0 c 0,-2.07 1.68,-3.75 3.75,-3.75 C -1.68,-3.75 0,-2.07 0,0" /></g><g
       transform="translate(49.068,239.53)"
       id="g264"><path
         id="path266"
         style="fill:none;stroke:#231f20;stroke-width:0.75;stroke-linecap:square;stroke-linejoin:miter;stroke-miterlimit:10;stroke-dasharray:none;stroke-opacity:1"
         d="M 0,0 C 0,2.07 -1.68,3.75 -3.75,3.75 -5.82,3.75 -7.5,2.07 -7.5,0 c 0,-2.07 1.68,-3.75 3.75,-3.75 C -1.68,-3.75 0,-2.07 0,0" /></g><g
       transform="translate(200.269,216.67)"
       id="g268"><path
         id="path270"
         style="fill:#ffffff;fill-opacity:1;fill-rule:nonzero;stroke:none"
         d="M 0,0 C 0,2.07 -1.681,3.75 -3.75,3.75 -5.82,3.75 -7.5,2.07 -7.5,0 c 0,-2.069 1.68,-3.75 3.75,-3.75 C -1.681,-3.75 0,-2.069 0,0" /></g><g
       transform="translate(200.269,216.67)"
       id="g272"><path
         id="path274"
         style="fill:none;stroke:#231f20;stroke-width:0.75;stroke-linecap:square;stroke-linejoin:miter;stroke-miterlimit:10;stroke-dasharray:none;stroke-opacity:1"
         d="M 0,0 C 0,2.07 -1.681,3.75 -3.75,3.75 -5.82,3.75 -7.5,2.07 -7.5,0 c 0,-2.069 1.68,-3.75 3.75,-3.75 C -1.681,-3.75 0,-2.069 0,0" /></g><path
       id="path276"
       style="fill:#ffffff;fill-opacity:1;fill-rule:nonzero;stroke:none"
       d="m 52.148,143.643 h 84.75 v 39 h -84.75 z" /><g
       transform="translate(52.148,182.643)"
       id="g278"><path
         id="path280"
         style="fill:none;stroke:#231f20;stroke-width:0.75;stroke-linecap:square;stroke-linejoin:miter;stroke-miterlimit:10;stroke-dasharray:none;stroke-opacity:1"
         d="M 84.75,0 H 0 v -39 h 84.75 z" /><g
         id="g282"><path
           id="path284"
           style="fill:none;stroke:#231f20;stroke-width:0.75;stroke-linecap:square;stroke-linejoin:miter;stroke-miterlimit:10;stroke-dasharray:none;stroke-opacity:1"
           d="M 0,0 Z" /></g></g><text
       id="text292"
       style="font-variant:normal;font-weight:normal;font-stretch:normal;font-size:9px;font-family:Times;-inkscape-font-specification:Times-Roman;writing-mode:lr-tb;fill:#231f20;fill-opacity:1;fill-rule:nonzero;stroke:none"
       transform="matrix(1,0,0,-1,58.5059,160.4746)"><tspan
         id="tspan286"
         y="0"
         x="0 4.5 8.4960003 10.998 14.994 19.493999 23.49 27.629999 32.130001 34.632 37.629002 42.129002 46.629002 53.631001 57.626999 62.126999 64.628998">data_environment</tspan><tspan
         id="tspan288"
         y="27.5373"
         x="-57.505501 -53.509499 -51.0075 -47.011501 -40.009499 -36.0135 -31.5135 -29.011499 -25.5105 -23.2605 -18.2565 -15.2595 -10.7595 -8.2574997 -4.2614999 -1.2645">elements S[1:?]</tspan><tspan
         id="tspan290"
         y="-35.584202"
         x="14.7447 19.244699 23.2407 27.7407 31.7367 36.236698 40.736698 44.7327 49.2327 51.734699 56.234699 60.230701 64.370697 68.870697 71.372704 74.369698 78.869698 83.369698 90.371696 94.367699 98.867699 101.3697">dependent_environment</tspan></text>
<path
       id="path294"
       style="fill:#ffffff;fill-opacity:1;fill-rule:nonzero;stroke:none"
       d="m 192.398,167.268 h 78.75 v 15.375 h -78.75 z" /><g
       transform="translate(200.086,182.643)"
       id="g296"><path
         id="path298"
         style="fill:none;stroke:#231f20;stroke-width:0.75;stroke-linecap:square;stroke-linejoin:miter;stroke-miterlimit:10;stroke-dasharray:none;stroke-opacity:1"
         d="m 0,0 h 63.375 c 4.244,0 7.688,-3.443 7.688,-7.687 0,-4.244 -3.444,-7.688 -7.688,-7.688 H 0 c -4.243,0 -7.687,3.444 -7.687,7.688 C -7.687,-3.443 -4.243,0 0,0 Z" /></g><text
       id="text302"
       style="font-variant:normal;font-weight:normal;font-stretch:normal;font-size:9px;font-family:Times;-inkscape-font-specification:Times-Roman;writing-mode:lr-tb;fill:#231f20;fill-opacity:1;fill-rule:nonzero;stroke:none"
       transform="matrix(1,0,0,-1,207.2578,172.3858)"><tspan
         id="tspan300"
         y="0"
         x="0 4.5 9 11.25 13.5 18 22.5 24.75 27 29.502001 33.498001 37.998001 41.993999 44.495998">65, 33, label</tspan></text>
<path
       id="path304"
       style="fill:#ffffff;fill-opacity:1;fill-rule:nonzero;stroke:none"
       d="m 197.648,143.643 h 73.5 v 15.375 h -73.5 z" /><g
       transform="translate(205.336,159.018)"
       id="g306"><path
         id="path308"
         style="fill:none;stroke:#231f20;stroke-width:0.75;stroke-linecap:square;stroke-linejoin:miter;stroke-miterlimit:10;stroke-dasharray:none;stroke-opacity:1"
         d="m 0,0 h 58.125 c 4.244,0 7.688,-3.443 7.688,-7.687 0,-4.244 -3.444,-7.688 -7.688,-7.688 H 0 c -4.243,0 -7.687,3.444 -7.687,7.688 C -7.687,-3.443 -4.243,0 0,0 Z" /></g><text
       id="text316"
       style="font-variant:normal;font-weight:normal;font-stretch:normal;font-size:9px;font-family:Times;-inkscape-font-specification:Times-Roman;writing-mode:lr-tb;fill:#231f20;fill-opacity:1;fill-rule:nonzero;stroke:none"
       transform="matrix(1,0,0,-1,212.1328,148.8281)"><tspan
         id="tspan310"
         y="0"
         x="0 4.5 9 11.25 13.5 18 22.5 24.75 27 29.502001 33.362999 37.862999 40.365002">65, 44, text</tspan><tspan
         id="tspan312"
         y="-17.895599"
         x="-67.734001 -63.234001 -59.237999 -52.236 -48.240002">name</tspan><tspan
         id="tspan314"
         y="8.4834003"
         x="-67.734001 -63.234001 -59.237999 -55.737 -51.741001 -48.743999 -46.242001 -41.742001 -39.240002 -36.737999 -32.237999 -27.738001">description</tspan></text>
<g
       transform="translate(71.928,186.43)"
       id="g318"><path
         id="path320"
         style="fill:#ffffff;fill-opacity:1;fill-rule:nonzero;stroke:none"
         d="M 0,0 C 0,2.07 -1.68,3.75 -3.75,3.75 -5.82,3.75 -7.5,2.07 -7.5,0 c 0,-2.069 1.68,-3.75 3.75,-3.75 C -1.68,-3.75 0,-2.069 0,0" /></g><g
       transform="translate(71.928,186.43)"
       id="g322"><path
         id="path324"
         style="fill:none;stroke:#231f20;stroke-width:0.75;stroke-linecap:square;stroke-linejoin:miter;stroke-miterlimit:10;stroke-dasharray:none;stroke-opacity:1"
         d="M 0,0 C 0,2.07 -1.68,3.75 -3.75,3.75 -5.82,3.75 -7.5,2.07 -7.5,0 c 0,-2.069 1.68,-3.75 3.75,-3.75 C -1.68,-3.75 0,-2.069 0,0" /></g><g
       transform="translate(11.988,370.481)"
       id="g326"><path
         id="path328"
         style="fill:#ffffff;fill-opacity:1;fill-rule:nonzero;stroke:none"
         d="M 0,0 C 0,2.07 -1.68,3.75 -3.75,3.75 -5.8198,3.75 -7.5,2.07 -7.5,0 c 0,-2.071 1.6802,-3.75 3.75,-3.75 C -1.68,-3.75 0,-2.071 0,0" /></g><g
       transform="translate(11.988,370.481)"
       id="g330"><path
         id="path332"
         style="fill:none;stroke:#231f20;stroke-width:0.75;stroke-linecap:square;stroke-linejoin:miter;stroke-miterlimit:10;stroke-dasharray:none;stroke-opacity:1"
         d="M 0,0 C 0,2.07 -1.68,3.75 -3.75,3.75 -5.8198,3.75 -7.5,2.07 -7.5,0 c 0,-2.071 1.6802,-3.75 3.75,-3.75 C -1.68,-3.75 0,-2.071 0,0" /></g><path
       id="path334"
       style="fill:#ffffff;fill-opacity:1;fill-rule:nonzero;stroke:none"
       d="m 163.942,77.543 h 162 v 39 h -162 z" /><g
       transform="translate(163.942,116.543)"
       id="g336"><path
         id="path338"
         style="fill:none;stroke:#231f20;stroke-width:0.75;stroke-linecap:square;stroke-linejoin:miter;stroke-miterlimit:10;stroke-dasharray:none;stroke-opacity:1"
         d="M 162,0 H 0 v -39 h 162 z" /><g
         id="g340"><path
           id="path342"
           style="fill:none;stroke:#231f20;stroke-width:0.75;stroke-linecap:square;stroke-linejoin:miter;stroke-miterlimit:10;stroke-dasharray:none;stroke-opacity:1"
           d="M 0,0 Z" /></g></g><text
       id="text346"
       style="font-variant:normal;font-weight:normal;font-stretch:normal;font-size:9px;font-family:Times;-inkscape-font-specification:Times-Roman;writing-mode:lr-tb;fill:#231f20;fill-opacity:1;fill-rule:nonzero;stroke:none"
       transform="matrix(1,0,0,-1,176.1631,94.8018)"><tspan
         id="tspan344"
         y="0"
         x="0 7.0019999 10.998 13.5 17.496 20.493 22.995001 26.990999 29.493 33.993 38.493 42.488998 45.990002 48.492001 52.992001 57.492001 61.487999 63.990002 66.491997 70.991997 75.491997 79.991997 83.987999 88.487999 92.484001 95.481003 99.476997 103.473 105.975 109.971 112.968 115.47 119.466 123.462 125.964 128.466 132.966 137.466">material_designation_characterization</tspan></text>
<path
       id="path348"
       style="fill:#ffffff;fill-opacity:1;fill-rule:nonzero;stroke:none"
       d="m 29.692,101.168 h 78.75 v 15.375 h -78.75 z" /><g
       transform="translate(37.38,116.543)"
       id="g350"><path
         id="path352"
         style="fill:none;stroke:#231f20;stroke-width:0.75;stroke-linecap:square;stroke-linejoin:miter;stroke-miterlimit:10;stroke-dasharray:none;stroke-opacity:1"
         d="m 0,0 h 63.375 c 4.244,0 7.688,-3.443 7.688,-7.687 0,-4.244 -3.444,-7.688 -7.688,-7.688 H 0 c -4.243,0 -7.687,3.444 -7.687,7.688 C -7.687,-3.443 -4.243,0 0,0 Z" /></g><text
       id="text356"
       style="font-variant:normal;font-weight:normal;font-stretch:normal;font-size:9px;font-family:Times;-inkscape-font-specification:Times-Roman;writing-mode:lr-tb;fill:#231f20;fill-opacity:1;fill-rule:nonzero;stroke:none"
       transform="matrix(1,0,0,-1,44.5518,106.2862)"><tspan
         id="tspan354"
         y="0"
         x="0 4.5 9 11.25 13.5 18 22.5 24.75 27 29.502001 33.498001 37.998001 41.993999 44.495998">65, 33, label</tspan></text>
<path
       id="path358"
       style="fill:#ffffff;fill-opacity:1;fill-rule:nonzero;stroke:none"
       d="m 29.692,77.543 h 73.5 v 15.375 h -73.5 z" /><g
       transform="translate(37.38,92.918)"
       id="g360"><path
         id="path362"
         style="fill:none;stroke:#231f20;stroke-width:0.75;stroke-linecap:square;stroke-linejoin:miter;stroke-miterlimit:10;stroke-dasharray:none;stroke-opacity:1"
         d="m 0,0 h 58.125 c 4.244,0 7.688,-3.443 7.688,-7.688 0,-4.243 -3.444,-7.687 -7.688,-7.687 H 0 c -4.243,0 -7.687,3.444 -7.687,7.687 C -7.687,-3.443 -4.243,0 0,0 Z" /></g><text
       id="text370"
       style="font-variant:normal;font-weight:normal;font-stretch:normal;font-size:9px;font-family:Times;-inkscape-font-specification:Times-Roman;writing-mode:lr-tb;fill:#231f20;fill-opacity:1;fill-rule:nonzero;stroke:none"
       transform="matrix(1,0,0,-1,44.1768,82.7285)"><tspan
         id="tspan364"
         y="0"
         x="0 4.5 9 11.25 13.5 18 22.5 24.75 27 29.502001 33.362999 37.862999 40.365002">65, 44, text</tspan><tspan
         id="tspan366"
         y="-17.8965"
         x="91.7658 96.2658 100.2618 107.2638 111.2598">name</tspan><tspan
         id="tspan368"
         y="8.4825001"
         x="71.5158 76.0158 80.011803 83.512802 87.508797 90.505798 93.007797 97.507797 100.0098 102.5118 107.0118 111.5118">description</tspan></text>
<path
       id="path372"
       style="fill:#ffffff;fill-opacity:1;fill-rule:nonzero;stroke:none"
       d="m 243.403,5.5508 h 95.999 v 39 h -95.999 z" /><g
       transform="translate(243.403,44.551)"
       id="g374"><path
         id="path376"
         style="fill:none;stroke:#231f20;stroke-width:0.75;stroke-linecap:square;stroke-linejoin:miter;stroke-miterlimit:10;stroke-dasharray:none;stroke-opacity:1"
         d="M 95.999,0 H 0 v -39 h 95.999 z" /><g
         id="g378"><path
           id="path380"
           style="fill:none;stroke:#231f20;stroke-width:0.75;stroke-linecap:square;stroke-linejoin:miter;stroke-miterlimit:10;stroke-dasharray:none;stroke-opacity:1"
           d="M 0,0 Z" /></g></g><text
       id="text384"
       style="font-variant:normal;font-weight:normal;font-stretch:normal;font-size:9px;font-family:Times;-inkscape-font-specification:Times-Roman;writing-mode:lr-tb;fill:#231f20;fill-opacity:1;fill-rule:nonzero;stroke:none"
       transform="matrix(1,0,0,-1,252.8857,22.8096)"><tspan
         id="tspan382"
         y="0"
         x="0 7.0019999 10.998 13.5 17.496 20.493 22.995001 26.990999 29.493 33.993 38.493 42.488998 45.990002 48.492001 52.992001 57.492001 61.487999 63.990002 66.491997 70.991997 75.491997">material_designation</tspan></text>
<g
       transform="translate(290.988,48.28)"
       id="g386"><path
         id="path388"
         style="fill:#ffffff;fill-opacity:1;fill-rule:nonzero;stroke:none"
         d="M 0,0 C 0,2.07 -1.68,3.75 -3.75,3.75 -5.82,3.75 -7.5,2.07 -7.5,0 c 0,-2.07 1.68,-3.75 3.75,-3.75 C -1.68,-3.75 0,-2.07 0,0" /></g><g
       transform="translate(290.988,48.28)"
       id="g390"><path
         id="path392"
         style="fill:none;stroke:#231f20;stroke-width:0.75;stroke-linecap:square;stroke-linejoin:miter;stroke-miterlimit:10;stroke-dasharray:none;stroke-opacity:1"
         d="M 0,0 C 0,2.07 -1.68,3.75 -3.75,3.75 -5.82,3.75 -7.5,2.07 -7.5,0 c 0,-2.07 1.68,-3.75 3.75,-3.75 C -1.68,-3.75 0,-2.07 0,0" /></g><text
       id="text396"
       style="font-variant:normal;font-weight:normal;font-stretch:normal;font-size:9px;font-family:Times;-inkscape-font-specification:Times-Roman;writing-mode:lr-tb;fill:#231f20;fill-opacity:1;fill-rule:nonzero;stroke:none"
       transform="matrix(1,0,0,-1,290.873,66.2285)"><tspan
         id="tspan394"
         y="0"
         x="0 4.5 8.4960003 11.997 14.499 18.999001 23.499001 27.495001 29.997 32.499001 36.999001 41.499001">designation</tspan></text>
<path
       id="path398"
       style="fill:#ffffff;fill-opacity:1;fill-rule:nonzero;stroke:none"
       d="m 6.4028,29.176 h 78.75 v 15.375 h -78.75 z" /><g
       transform="translate(14.09,44.551)"
       id="g400"><path
         id="path402"
         style="fill:none;stroke:#231f20;stroke-width:0.75;stroke-linecap:square;stroke-linejoin:miter;stroke-miterlimit:10;stroke-dasharray:none;stroke-opacity:1"
         d="m 0,0 h 63.375 c 4.244,0 7.687,-3.444 7.687,-7.687 0,-4.245 -3.443,-7.688 -7.687,-7.688 H 0 c -4.2436,0 -7.6875,3.443 -7.6875,7.688 C -7.6875,-3.444 -4.2436,0 0,0 Z" /></g><text
       id="text406"
       style="font-variant:normal;font-weight:normal;font-stretch:normal;font-size:9px;font-family:Times;-inkscape-font-specification:Times-Roman;writing-mode:lr-tb;fill:#231f20;fill-opacity:1;fill-rule:nonzero;stroke:none"
       transform="matrix(1,0,0,-1,21.2617,34.294)"><tspan
         id="tspan404"
         y="0"
         x="0 4.5 9 11.25 13.5 18 22.5 24.75 27 29.502001 33.498001 37.998001 41.993999 44.495998">65, 33, label</tspan></text>
<path
       id="path408"
       style="fill:#ffffff;fill-opacity:1;fill-rule:nonzero;stroke:none"
       d="m 6.4028,5.5508 h 154.5 v 15.375 h -154.5 z" /><g
       transform="translate(14.09,20.926)"
       id="g410"><path
         id="path412"
         style="fill:none;stroke:#231f20;stroke-width:0.75;stroke-linecap:square;stroke-linejoin:miter;stroke-miterlimit:10;stroke-dasharray:none;stroke-opacity:1"
         d="m 0,0 h 139.125 c 4.244,0 7.687,-3.444 7.687,-7.687 0,-4.245 -3.443,-7.688 -7.687,-7.688 H 0 c -4.2436,0 -7.6875,3.443 -7.6875,7.688 C -7.6875,-3.444 -4.2436,0 0,0 Z" /></g><text
       id="text420"
       style="font-variant:normal;font-weight:normal;font-stretch:normal;font-size:9px;font-family:Times;-inkscape-font-specification:Times-Roman;writing-mode:lr-tb;fill:#231f20;fill-opacity:1;fill-rule:nonzero;stroke:none"
       transform="matrix(1,0,0,-1,21.1211,10.6231)"><tspan
         id="tspan414"
         y="0"
         x="0 4.5 9 11.25 13.5 18 22.5 24.75 27 30.996 35.495998 39.492001 42.488998 46.485001 50.480999 52.983002 56.979 59.976002 62.478001 66.473999 70.470001 74.970001 79.470001 83.970001 87.966003 90.782997 93.285004 97.785004 100.287 102.789 105.291 109.791 114.291">14, 52, characterized_definition</tspan><tspan
         id="tspan416"
         y="-18.009001"
         x="194.5314 199.0314 203.0274 210.0294 214.02541">name</tspan><tspan
         id="tspan418"
         y="8.6606998"
         x="154.2816 158.7816 162.7776 165.5946 168.0966 172.5966 175.0986 177.6006 180.1026 184.6026 189.1026 192.60361 194.85361 199.8576 202.8546 207.3546 209.8566 213.8526 216.84959">definitions S[1:?]</tspan></text>
<g
       transform="translate(293.238,196.96)"
       id="g422"><path
         id="path424"
         style="fill:#ffffff;fill-opacity:1;fill-rule:nonzero;stroke:none"
         d="M 0,0 C 0,2.07 -1.68,3.75 -3.75,3.75 -5.82,3.75 -7.5,2.07 -7.5,0 c 0,-2.069 1.68,-3.75 3.75,-3.75 C -1.68,-3.75 0,-2.069 0,0" /></g><g
       transform="translate(293.238,196.96)"
       id="g426"><path
         id="path428"
         style="fill:none;stroke:#231f20;stroke-width:0.75;stroke-linecap:square;stroke-linejoin:miter;stroke-miterlimit:10;stroke-dasharray:none;stroke-opacity:1"
         d="M 0,0 C 0,2.07 -1.68,3.75 -3.75,3.75 -5.82,3.75 -7.5,2.07 -7.5,0 c 0,-2.069 1.68,-3.75 3.75,-3.75 C -1.68,-3.75 0,-2.069 0,0" /></g><text
       id="text432"
       style="font-variant:normal;font-weight:normal;font-stretch:normal;font-size:9px;font-family:Times;-inkscape-font-specification:Times-Roman;writing-mode:lr-tb;fill:#231f20;fill-opacity:1;fill-rule:nonzero;stroke:none"
       transform="matrix(1,0,0,-1,294,123.7285)"><tspan
         id="tspan430"
         y="0"
         x="0 4.5 7.4970002 11.997 16.497 20.493 23.49 25.992001 30.492001">property</tspan></text>
<g
       transform="translate(259.488,48.28)"
       id="g434"><path
         id="path436"
         style="fill:#ffffff;fill-opacity:1;fill-rule:nonzero;stroke:none"
         d="M 0,0 C 0,2.07 -1.68,3.75 -3.75,3.75 -5.82,3.75 -7.5,2.07 -7.5,0 c 0,-2.07 1.68,-3.75 3.75,-3.75 C -1.68,-3.75 0,-2.07 0,0" /></g><g
       transform="translate(259.488,48.28)"
       id="g438"><path
         id="path440"
         style="fill:none;stroke:#231f20;stroke-width:0.75;stroke-linecap:square;stroke-linejoin:miter;stroke-miterlimit:10;stroke-dasharray:none;stroke-opacity:1"
         d="M 0,0 C 0,2.07 -1.68,3.75 -3.75,3.75 -5.82,3.75 -7.5,2.07 -7.5,0 c 0,-2.07 1.68,-3.75 3.75,-3.75 C -1.68,-3.75 0,-2.07 0,0" /></g><path
       id="path442"
       style="fill:none;stroke:#231f20;stroke-width:0.75;stroke-linecap:square;stroke-linejoin:miter;stroke-miterlimit:10;stroke-dasharray:3.75, 3.75;stroke-dashoffset:0;stroke-opacity:1"
       d="m 61.125,355.652 v -86.25 h 111 v 86.25 z m 7.5,-86.25 v 86.25" /><text
       id="text446"
       style="font-variant:normal;font-weight:normal;font-stretch:normal;font-size:9px;font-family:Times;-inkscape-font-specification:Times-Roman;writing-mode:lr-tb;fill:#231f20;fill-opacity:1;fill-rule:nonzero;stroke:none"
       transform="matrix(1,0,0,-1,80.8525,310.1821)"><tspan
         id="tspan444"
         y="0"
         x="0 2.997 6.993 11.493 14.49 18.486 21.987 25.983 30.483 32.985001 36.980999 41.480999 45.980999 50.480999 54.477001 57.293999 59.796001 64.295998 66.797997 69.300003 71.802002 76.302002 80.802002">represented_definition</tspan></text>
<g
       transform="translate(61.128,322.78)"
       id="g448"><path
         id="path450"
         style="fill:#ffffff;fill-opacity:1;fill-rule:nonzero;stroke:none"
         d="M 0,0 C 0,2.07 -1.68,3.75 -3.75,3.75 -5.819,3.75 -7.5,2.07 -7.5,0 c 0,-2.07 1.681,-3.75 3.75,-3.75 C -1.68,-3.75 0,-2.07 0,0" /></g><g
       transform="translate(61.128,322.78)"
       id="g452"><path
         id="path454"
         style="fill:none;stroke:#231f20;stroke-width:0.75;stroke-linecap:square;stroke-linejoin:miter;stroke-miterlimit:10;stroke-dasharray:none;stroke-opacity:1"
         d="M 0,0 C 0,2.07 -1.68,3.75 -3.75,3.75 -5.819,3.75 -7.5,2.07 -7.5,0 c 0,-2.07 1.681,-3.75 3.75,-3.75 C -1.68,-3.75 0,-2.07 0,0" /></g><text
       id="text458"
       style="font-variant:normal;font-weight:normal;font-stretch:normal;font-size:9px;font-family:Times;-inkscape-font-specification:Times-Roman;writing-mode:lr-tb;fill:#231f20;fill-opacity:1;fill-rule:nonzero;stroke:none"
       transform="matrix(1,0,0,-1,51.502,363.0757)"><tspan
         id="tspan456"
         y="0"
         x="0 4.5 8.4960003 11.313 13.815 18.315001 20.816999 23.319 25.820999 30.320999 34.820999">definition</tspan></text>
<path
       id="path460"
       style="fill:#ffffff;fill-opacity:1;fill-rule:nonzero;stroke:none"
       d="m 228.375,340.277 h 106.5 v 15.375 h -106.5 z" /><g
       transform="translate(236.063,355.652)"
       id="g462"><path
         id="path464"
         style="fill:none;stroke:#231f20;stroke-width:0.75;stroke-linecap:square;stroke-linejoin:miter;stroke-miterlimit:10;stroke-dasharray:none;stroke-opacity:1"
         d="m 0,0 h 91.125 c 4.244,0 7.687,-3.445 7.687,-7.687 0,-4.244 -3.443,-7.688 -7.687,-7.688 H 0 c -4.243,0 -7.687,3.444 -7.687,7.688 C -7.687,-3.445 -4.243,0 0,0 Z" /></g><text
       id="text468"
       style="font-variant:normal;font-weight:normal;font-stretch:normal;font-size:9px;font-family:Times;-inkscape-font-specification:Times-Roman;writing-mode:lr-tb;fill:#231f20;fill-opacity:1;fill-rule:nonzero;stroke:none"
       transform="matrix(1,0,0,-1,235.5977,345.7232)"><tspan
         id="tspan466"
         y="0"
         x="0 4.5 9 11.25 13.5 18 22.5 24.75 27 31.5 35.495998 39.995998 43.992001 46.988998 50.985001 53.487 57.987 62.487 65.484001 69.984001 74.484001 78.480003 81.476997 83.978996 88.478996">16, 57, general_property</tspan></text>
<path
       id="path470"
       style="fill:#ffffff;fill-opacity:1;fill-rule:nonzero;stroke:none"
       d="m 223.125,316.652 h 111.75 v 15.375 h -111.75 z" /><g
       transform="translate(230.813,332.027)"
       id="g472"><path
         id="path474"
         style="fill:none;stroke:#231f20;stroke-width:0.75;stroke-linecap:square;stroke-linejoin:miter;stroke-miterlimit:10;stroke-dasharray:none;stroke-opacity:1"
         d="m 0,0 h 96.375 c 4.244,0 7.687,-3.445 7.687,-7.687 0,-4.244 -3.443,-7.688 -7.687,-7.688 H 0 c -4.243,0 -7.687,3.444 -7.687,7.688 C -7.687,-3.445 -4.243,0 0,0 Z" /></g><text
       id="text478"
       style="font-variant:normal;font-weight:normal;font-stretch:normal;font-size:9px;font-family:Times;-inkscape-font-specification:Times-Roman;writing-mode:lr-tb;fill:#231f20;fill-opacity:1;fill-rule:nonzero;stroke:none"
       transform="matrix(1,0,0,-1,228.9707,322.0264)"><tspan
         id="tspan476"
         y="0"
         x="0 4.5 9 11.25 13.5 18 22.5 24.75 27 31.5 34.497002 38.997002 43.497002 47.493 50.490002 52.992001 57.492001 61.992001 66.491997 70.487999 73.305 75.806999 80.306999 82.808998 85.310997 87.813004 92.313004 96.813004">14, 58, property_definition</tspan></text>
<path
       id="path480"
       style="fill:#ffffff;fill-opacity:1;fill-rule:nonzero;stroke:none"
       d="m 238.875,293.027 h 96 v 15.375 h -96 z" /><g
       transform="translate(246.563,308.402)"
       id="g482"><path
         id="path484"
         style="fill:none;stroke:#231f20;stroke-width:0.75;stroke-linecap:square;stroke-linejoin:miter;stroke-miterlimit:10;stroke-dasharray:none;stroke-opacity:1"
         d="m 0,0 h 80.625 c 4.244,0 7.687,-3.445 7.687,-7.687 0,-4.244 -3.443,-7.688 -7.687,-7.688 H 0 c -4.243,0 -7.687,3.444 -7.687,7.688 C -7.687,-3.445 -4.243,0 0,0 Z" /></g><text
       id="text488"
       style="font-variant:normal;font-weight:normal;font-stretch:normal;font-size:9px;font-family:Times;-inkscape-font-specification:Times-Roman;writing-mode:lr-tb;fill:#231f20;fill-opacity:1;fill-rule:nonzero;stroke:none"
       transform="matrix(1,0,0,-1,246.8457,298.4146)"><tspan
         id="tspan486"
         y="0"
         x="0 4.5 9 11.25 13.5 18 22.5 24.75 27 30.500999 35.000999 38.997002 43.497002 47.493 51.993 55.988998 59.490002 63.990002 67.986 71.982002 74.484001">40, 54, shape_aspect</tspan></text>
<path
       id="path490"
       style="fill:#ffffff;fill-opacity:1;fill-rule:nonzero;stroke:none"
       d="m 194.625,269.402 h 140.25 v 15.375 h -140.25 z" /><g
       transform="translate(202.313,284.777)"
       id="g492"><path
         id="path494"
         style="fill:none;stroke:#231f20;stroke-width:0.75;stroke-linecap:square;stroke-linejoin:miter;stroke-miterlimit:10;stroke-dasharray:none;stroke-opacity:1"
         d="m 0,0 h 124.875 c 4.244,0 7.687,-3.445 7.687,-7.687 0,-4.244 -3.443,-7.688 -7.687,-7.688 H 0 c -4.243,0 -7.687,3.444 -7.687,7.688 C -7.687,-3.445 -4.243,0 0,0 Z" /></g><text
       id="text498"
       style="font-variant:normal;font-weight:normal;font-stretch:normal;font-size:9px;font-family:Times;-inkscape-font-specification:Times-Roman;writing-mode:lr-tb;fill:#231f20;fill-opacity:1;fill-rule:nonzero;stroke:none"
       transform="matrix(1,0,0,-1,199.2109,274.7896)"><tspan
         id="tspan496"
         y="0"
         x="0 4.5 9 11.25 13.5 18 22.5 24.75 27 30.500999 35.000999 38.997002 43.497002 47.493 51.993 55.988998 59.490002 63.990002 67.986 71.982002 74.484001 78.984001 81.981003 85.976997 88.478996 92.474998 94.976997 97.478996 101.979 106.479 109.98 114.48 116.982 121.482">42, 55, shape_aspect_relationship</tspan></text>
</g></svg>