<?xml version="1.0" encoding="UTF-8" standalone="no"?>
<svg
   xmlns:dc="http://purl.org/dc/elements/1.1/"
   xmlns:cc="http://creativecommons.org/ns#"
   xmlns:rdf="http://www.w3.org/1999/02/22-rdf-syntax-ns#"
   xmlns:svg="http://www.w3.org/2000/svg"
   xmlns="http://www.w3.org/2000/svg"
   viewBox="0 0 462 671.51202"
   height="671.51202"
   width="462"
   xml:space="preserve"
   id="svg2"
   version="1.1"><metadata
     id="metadata8"><rdf:RDF><cc:Work
         rdf:about=""><dc:format>image/svg+xml</dc:format><dc:type
           rdf:resource="http://purl.org/dc/dcmitype/StillImage" /></cc:Work></rdf:RDF></metadata><defs
     id="defs6" /><g
     transform="matrix(1.3333333,0,0,-1.3333333,0,671.512)"
     id="g10"><g
       transform="translate(74.569,442.593)"
       id="g12"><path
         id="path14"
         style="fill:none;stroke:#231f20;stroke-width:2.25;stroke-linecap:square;stroke-linejoin:miter;stroke-miterlimit:10;stroke-dasharray:none;stroke-opacity:1"
         d="M 0,0 0.267,6.753" /></g><g
       transform="translate(111.375,319.858)"
       id="g16"><path
         id="path18"
         style="fill:none;stroke:#231f20;stroke-width:0.75;stroke-linecap:square;stroke-linejoin:miter;stroke-miterlimit:10;stroke-dasharray:none;stroke-opacity:1"
         d="M 0,0 H 80.25" /></g><path
       id="path20"
       style="fill:none;stroke:#231f20;stroke-width:0.75;stroke-linecap:square;stroke-linejoin:miter;stroke-miterlimit:10;stroke-dasharray:3.75, 3.75;stroke-dashoffset:0;stroke-opacity:1"
       d="m 111.375,296.233 h 85.5" /><g
       transform="translate(132.75,272.608)"
       id="g22"><path
         id="path24"
         style="fill:none;stroke:#231f20;stroke-width:0.75;stroke-linecap:square;stroke-linejoin:miter;stroke-miterlimit:10;stroke-dasharray:none;stroke-opacity:1"
         d="M 0,0 H -21.375" /><g
         transform="translate(21.375)"
         id="g26"><path
           id="path28"
           style="fill:none;stroke:#231f20;stroke-width:0.75;stroke-linecap:square;stroke-linejoin:miter;stroke-miterlimit:10;stroke-dasharray:none;stroke-opacity:1"
           d="M 0,0 H -21.375 V 0" /><g
           transform="translate(-42.75,-23.625)"
           id="g30"><path
             id="path32"
             style="fill:none;stroke:#231f20;stroke-width:0.75;stroke-linecap:square;stroke-linejoin:miter;stroke-miterlimit:10;stroke-dasharray:none;stroke-opacity:1"
             d="M 0,0 H 42.75" /><g
             transform="translate(78.89,-77.134)"
             id="g34"><path
               id="path36"
               style="fill:none;stroke:#231f20;stroke-width:0.75;stroke-linecap:square;stroke-linejoin:miter;stroke-miterlimit:10;stroke-dasharray:none;stroke-opacity:1"
               d="M 0,0 H -99.75 V 19.196" /><g
               transform="translate(-141.032,-81.849)"
               id="g38"><path
                 id="path40"
                 style="fill:none;stroke:#231f20;stroke-width:0.75;stroke-linecap:square;stroke-linejoin:miter;stroke-miterlimit:10;stroke-dasharray:none;stroke-opacity:1"
                 d="M 0,0 -0.108,12.75" /><g
                 transform="translate(95.282,-7.5)"
                 id="g42"><path
                   id="path44"
                   style="fill:none;stroke:#231f20;stroke-width:0.75;stroke-linecap:square;stroke-linejoin:miter;stroke-miterlimit:10;stroke-dasharray:none;stroke-opacity:1"
                   d="M 0,0 0.556,38.25" /><g
                   transform="translate(-87.56,-40.401)"
                   id="g46"><path
                     id="path48"
                     style="fill:none;stroke:#231f20;stroke-width:0.75;stroke-linecap:square;stroke-linejoin:miter;stroke-miterlimit:10;stroke-dasharray:none;stroke-opacity:1"
                     d="M 0,0 -0.191,-22.974" /><g
                     transform="translate(215.67,32.714)"
                     id="g50"><path
                       id="path52"
                       style="fill:none;stroke:#231f20;stroke-width:0.75;stroke-linecap:square;stroke-linejoin:miter;stroke-miterlimit:10;stroke-dasharray:none;stroke-opacity:1"
                       d="M 0,0 -84.61,-0.053" /><g
                       transform="translate(-5.25,-24.75)"
                       id="g54"><path
                         id="path56"
                         style="fill:none;stroke:#231f20;stroke-width:0.75;stroke-linecap:square;stroke-linejoin:miter;stroke-miterlimit:10;stroke-dasharray:none;stroke-opacity:1"
                         d="M 0,0 -79.36,-0.224" /></g></g></g></g></g></g></g></g></g><g
       transform="translate(62.625,137.179)"
       id="g58"><path
         id="path60"
         style="fill:none;stroke:#231f20;stroke-width:2.25;stroke-linecap:square;stroke-linejoin:miter;stroke-miterlimit:10;stroke-dasharray:none;stroke-opacity:1"
         d="M 0,0 H -17.25" /><g
         transform="translate(-17.25,88.741)"
         id="g62"><path
           id="path64"
           style="fill:none;stroke:#231f20;stroke-width:2.25;stroke-linecap:square;stroke-linejoin:miter;stroke-miterlimit:10;stroke-dasharray:none;stroke-opacity:1"
           d="M 0,0 H -0.387" /><g
           transform="translate(0,-15.375)"
           id="g66"><path
             id="path68"
             style="fill:none;stroke:#231f20;stroke-width:2.25;stroke-linecap:square;stroke-linejoin:miter;stroke-miterlimit:10;stroke-dasharray:none;stroke-opacity:1"
             d="M 0,0 V 15.375" /><g
             transform="translate(-0.387,15.375)"
             id="g70"><path
               id="path72"
               style="fill:none;stroke:#231f20;stroke-width:2.25;stroke-linecap:square;stroke-linejoin:miter;stroke-miterlimit:10;stroke-dasharray:none;stroke-opacity:1"
               d="M 0,0 V 15.375" /><g
               transform="translate(17.262,-26.321)"
               id="g74"><path
                 id="path76"
                 style="fill:none;stroke:#231f20;stroke-width:2.25;stroke-linecap:square;stroke-linejoin:miter;stroke-miterlimit:10;stroke-dasharray:none;stroke-opacity:1"
                 d="M 0,0 H -16.875" /><g
                 transform="translate(-16.875,-62.42)"
                 id="g78"><path
                   id="path80"
                   style="fill:none;stroke:#231f20;stroke-width:2.25;stroke-linecap:square;stroke-linejoin:miter;stroke-miterlimit:10;stroke-dasharray:none;stroke-opacity:1"
                   d="M 0,0 V 73.366" /><g
                   transform="translate(0,62.42)"
                   id="g82"><path
                     id="path84"
                     style="fill:none;stroke:#231f20;stroke-width:2.25;stroke-linecap:square;stroke-linejoin:miter;stroke-miterlimit:10;stroke-dasharray:none;stroke-opacity:1"
                     d="M 0,0 V 10.946" /><g
                     transform="translate(24.978,272.618)"
                     id="g86"><path
                       id="path88"
                       style="fill:none;stroke:#231f20;stroke-width:2.25;stroke-linecap:square;stroke-linejoin:miter;stroke-miterlimit:10;stroke-dasharray:none;stroke-opacity:1"
                       d="M 0,0 -0.575,12.293" /></g></g></g></g></g></g></g></g><g
       transform="translate(187.771,361.68)"
       id="g90"><path
         id="path92"
         style="fill:none;stroke:#231f20;stroke-width:0.75;stroke-linecap:square;stroke-linejoin:miter;stroke-miterlimit:10;stroke-dasharray:none;stroke-opacity:1"
         d="M 0,0 H -22.5" /><g
         transform="translate(-1.072,26.306)"
         id="g94"><path
           id="path96"
           style="fill:none;stroke:#231f20;stroke-width:0.75;stroke-linecap:square;stroke-linejoin:miter;stroke-miterlimit:10;stroke-dasharray:none;stroke-opacity:1"
           d="M 0,0 H -22.5" /><g
           transform="translate(72.527,55.642)"
           id="g98"><path
             id="path100"
             style="fill:none;stroke:#231f20;stroke-width:0.75;stroke-linecap:square;stroke-linejoin:miter;stroke-miterlimit:10;stroke-dasharray:none;stroke-opacity:1"
             d="M 0,0 V 14.719 H -80.556" /><g
             transform="translate(34.723,-54.057)"
             id="g102"><path
               id="path104"
               style="fill:none;stroke:#231f20;stroke-width:0.75;stroke-linecap:square;stroke-linejoin:miter;stroke-miterlimit:10;stroke-dasharray:none;stroke-opacity:1"
               d="M 0,0 H 15.83 V 29.307" /><g
               transform="translate(1.072,-29.25)"
               id="g106"><path
                 id="path108"
                 style="fill:none;stroke:#231f20;stroke-width:0.75;stroke-linecap:square;stroke-linejoin:miter;stroke-miterlimit:10;stroke-dasharray:none;stroke-opacity:1"
                 d="M 0,0 H 23.758 V 58.557" /></g></g></g></g></g><g
       transform="translate(78.166,438.791)"
       id="g110"><path
         id="path112"
         style="fill:#ffffff;fill-opacity:1;fill-rule:nonzero;stroke:none"
         d="M 0,0 C 0,2.07 -1.68,3.75 -3.75,3.75 -5.82,3.75 -7.5,2.07 -7.5,0 c 0,-2.07 1.68,-3.749 3.75,-3.749 C -1.68,-3.749 0,-2.07 0,0" /></g><g
       transform="translate(78.166,438.791)"
       id="g114"><path
         id="path116"
         style="fill:none;stroke:#231f20;stroke-width:0.75;stroke-linecap:square;stroke-linejoin:miter;stroke-miterlimit:10;stroke-dasharray:none;stroke-opacity:1"
         d="M 0,0 C 0,2.07 -1.68,3.75 -3.75,3.75 -5.82,3.75 -7.5,2.07 -7.5,0 c 0,-2.07 1.68,-3.749 3.75,-3.749 C -1.68,-3.749 0,-2.07 0,0" /></g><path
       id="path118"
       style="fill:#ffffff;fill-opacity:1;fill-rule:nonzero;stroke:none"
       d="m 39.92,449.346 h 138.75 v 15.375 H 39.92 Z" /><g
       transform="translate(39.92,464.721)"
       id="g120"><path
         id="path122"
         style="fill:none;stroke:#231f20;stroke-width:0.75;stroke-linecap:square;stroke-linejoin:miter;stroke-miterlimit:10;stroke-dasharray:none;stroke-opacity:1"
         d="M 138.75,0 H 0 v -15.375 h 138.75 z" /><g
         id="g124"><path
           id="path126"
           style="fill:none;stroke:#231f20;stroke-width:0.75;stroke-linecap:square;stroke-linejoin:miter;stroke-miterlimit:10;stroke-dasharray:none;stroke-opacity:1"
           d="M 0,0 Z" /></g></g><text
       id="text130"
       style="font-variant:normal;font-weight:normal;font-stretch:normal;font-size:9px;font-family:Times;-inkscape-font-specification:Times-Roman;writing-mode:lr-tb;fill:#231f20;fill-opacity:1;fill-rule:nonzero;stroke:none"
       transform="matrix(1,0,0,-1,53.0166,454.7334)"><tspan
         id="tspan128"
         y="0"
         x="0 3.9960001 8.4960003 15.498 19.997999 24.497999 28.997999 33.498001 37.998001 42.498001 45.494999 49.491001 53.991001 56.987999 60.984001 64.485001 68.481003 72.981003 75.483002 79.478996 81.981003 84.483002 88.983002 93.483002 97.983002 100.485 102.987 106.983 113.985">compound_representation_item</tspan></text>
<path
       id="path132"
       style="fill:#ffffff;fill-opacity:1;fill-rule:nonzero;stroke:none"
       d="M 69.75,191.045 H 276 V 206.42 H 69.75 Z" /><g
       transform="translate(69.75,206.42)"
       id="g134"><path
         id="path136"
         style="fill:none;stroke:#231f20;stroke-width:0.75;stroke-linecap:square;stroke-linejoin:miter;stroke-miterlimit:10;stroke-dasharray:none;stroke-opacity:1"
         d="M 206.25,0 H 0 v -15.375 h 206.25 z" /><g
         id="g138"><path
           id="path140"
           style="fill:none;stroke:#231f20;stroke-width:0.75;stroke-linecap:square;stroke-linejoin:miter;stroke-miterlimit:10;stroke-dasharray:none;stroke-opacity:1"
           d="M 0,0 Z" /></g></g><text
       id="text144"
       style="font-variant:normal;font-weight:normal;font-stretch:normal;font-size:9px;font-family:Times;-inkscape-font-specification:Times-Roman;writing-mode:lr-tb;fill:#231f20;fill-opacity:1;fill-rule:nonzero;stroke:none"
       transform="matrix(1,0,0,-1,84.8369,196.3877)"><tspan
         id="tspan142"
         y="0"
         x="0 2.997 6.993 11.493 14.49 18.486 21.987 25.983 30.483 32.985001 36.980999 39.483002 41.985001 46.485001 50.985001 55.485001 58.481998 62.478001 64.980003 68.975998 71.477997 73.980003 78.480003 82.980003 86.481003 90.981003 93.483002 97.983002 102.483 108.981 111.483 113.985 118.485 122.985 125.487 128.48399 132.48 136.98 140.481 143.478 147.978 150.97501 157.97701 161.97301 164.47501 166.97701 171.47701 175.97701">representation_relationship_with_transformation</tspan></text>
<path
       id="path146"
       style="fill:#ffffff;fill-opacity:1;fill-rule:nonzero;stroke:none"
       d="m 44.045,419.721 h 60.75 v 15.375 h -60.75 z" /><g
       transform="translate(44.045,435.096)"
       id="g148"><path
         id="path150"
         style="fill:none;stroke:#231f20;stroke-width:0.75;stroke-linecap:square;stroke-linejoin:miter;stroke-miterlimit:10;stroke-dasharray:none;stroke-opacity:1"
         d="M 60.75,0 H 0 v -15.375 h 60.75 z" /><g
         id="g152"><path
           id="path154"
           style="fill:none;stroke:#231f20;stroke-width:0.75;stroke-linecap:square;stroke-linejoin:miter;stroke-miterlimit:10;stroke-dasharray:none;stroke-opacity:1"
           d="M 0,0 Z" /></g></g><text
       id="text158"
       style="font-variant:normal;font-weight:normal;font-stretch:normal;font-size:9px;font-family:Times;-inkscape-font-specification:Times-Roman;writing-mode:lr-tb;fill:#231f20;fill-opacity:1;fill-rule:nonzero;stroke:none"
       transform="matrix(1,0,0,-1,49.6572,425.167)"><tspan
         id="tspan156"
         y="0"
         x="0 4.2750001 8.2709999 10.773 15.273 19.268999 23.768999 26.766001 30.761999 35.262001 39.762001 43.757999">value_range</tspan></text>
<path
       id="path160"
       style="fill:#ffffff;fill-opacity:1;fill-rule:nonzero;stroke:none"
       d="m 190.265,157.599 h 100.5 v 18.75 h -100.5 z" /><g
       transform="translate(199.64,176.349)"
       id="g162"><path
         id="path164"
         style="fill:none;stroke:#231f20;stroke-width:0.75;stroke-linecap:square;stroke-linejoin:miter;stroke-miterlimit:10;stroke-dasharray:none;stroke-opacity:1"
         d="m 0,0 h 81.75 c 5.175,0 9.375,-4.199 9.375,-9.375 0,-5.175 -4.2,-9.375 -9.375,-9.375 H 0 c -5.175,0 -9.375,4.2 -9.375,9.375 C -9.375,-4.199 -5.175,0 0,0 Z" /></g><text
       id="text170"
       style="font-variant:normal;font-weight:normal;font-stretch:normal;font-size:9px;font-family:Times;-inkscape-font-specification:Times-Roman;writing-mode:lr-tb;fill:#231f20;fill-opacity:1;fill-rule:nonzero;stroke:none"
       transform="matrix(1,0,0,-1,194.2412,164.3594)"><tspan
         id="tspan166"
         y="0"
         x="0 4.5 9 11.25 13.5 18 22.5 27 29.25 31.5 34.001999 36.999001 40.994999 45.494999 48.995998 51.993 56.493 59.490002 66.491997 70.487999 72.989998 75.491997 79.991997 84.491997">23, 291, transformation</tspan><tspan
         id="tspan168"
         y="-15.5475"
         x="-98.476196 -95.974197 -92.977203 -88.981201 -84.481201 -80.980202 -77.9832 -73.4832 -70.486198 -63.4842 -59.488201 -56.986198 -54.4842 -49.9842 -45.4842 -40.9842 -36.4842 -31.9842 -27.988199 -24.991199 -20.995199 -18.4932 -13.9932 -10.9962">transformation_operator</tspan></text>
<path
       id="path172"
       style="fill:#ffffff;fill-opacity:1;fill-rule:nonzero;stroke:none"
       d="m 0.375,241.295 h 111 v 86.25 h -111 z" /><g
       transform="translate(0.375,327.545)"
       id="g174"><path
         id="path176"
         style="fill:none;stroke:#231f20;stroke-width:0.75;stroke-linecap:square;stroke-linejoin:miter;stroke-miterlimit:10;stroke-dasharray:none;stroke-opacity:1"
         d="M 111,0 H 0 v -86.25 h 111 z" /><g
         id="g178"><path
           id="path180"
           style="fill:none;stroke:#231f20;stroke-width:0.75;stroke-linecap:square;stroke-linejoin:miter;stroke-miterlimit:10;stroke-dasharray:none;stroke-opacity:1"
           d="M 0,0 Z" /></g></g><text
       id="text184"
       style="font-variant:normal;font-weight:normal;font-stretch:normal;font-size:9px;font-family:Times;-inkscape-font-specification:Times-Roman;writing-mode:lr-tb;fill:#231f20;fill-opacity:1;fill-rule:nonzero;stroke:none"
       transform="matrix(1,0,0,-1,6.6016,282.1206)"><tspan
         id="tspan182"
         y="0"
         x="0 2.997 6.993 11.493 14.49 18.486 21.987 25.983 30.483 32.985001 36.980999 39.483002 41.985001 46.485001 50.985001 55.485001 58.481998 62.478001 64.980003 68.975998 71.477997 73.980003 78.480003 82.980003 86.481003 90.981003 93.483002 97.983002">representation_relationship</tspan></text>
<path
       id="path186"
       style="fill:#ffffff;fill-opacity:1;fill-rule:nonzero;stroke:none"
       d="m 191.625,312.17 h 71.75 v 15.375 h -71.75 z" /><g
       transform="translate(199.312,327.545)"
       id="g188"><path
         id="path190"
         style="fill:none;stroke:#231f20;stroke-width:0.75;stroke-linecap:square;stroke-linejoin:miter;stroke-miterlimit:10;stroke-dasharray:none;stroke-opacity:1"
         d="m 0,0 h 56.375 c 4.244,0 7.688,-3.445 7.688,-7.687 0,-4.244 -3.444,-7.688 -7.688,-7.688 H 0 c -4.243,0 -7.687,3.444 -7.687,7.688 C -7.687,-3.445 -4.243,0 0,0 Z" /></g><text
       id="text194"
       style="font-variant:normal;font-weight:normal;font-stretch:normal;font-size:9px;font-family:Times;-inkscape-font-specification:Times-Roman;writing-mode:lr-tb;fill:#231f20;fill-opacity:1;fill-rule:nonzero;stroke:none"
       transform="matrix(1,0,0,-1,206.4844,317.2881)"><tspan
         id="tspan192"
         y="0"
         x="0 4.5 9 11.25 13.5 18 22.5 24.75 27 29.502001 33.498001 37.998001 41.993999 44.495998">65, 33, label</tspan></text>
<path
       id="path196"
       style="fill:#ffffff;fill-opacity:1;fill-rule:nonzero;stroke:none"
       d="m 196.875,288.545 h 66.5 v 15.375 h -66.5 z" /><g
       transform="translate(204.562,303.92)"
       id="g198"><path
         id="path200"
         style="fill:none;stroke:#231f20;stroke-width:0.75;stroke-linecap:square;stroke-linejoin:miter;stroke-miterlimit:10;stroke-dasharray:none;stroke-opacity:1"
         d="m 0,0 h 51.125 c 4.244,0 7.688,-3.445 7.688,-7.687 0,-4.244 -3.444,-7.688 -7.688,-7.688 H 0 c -4.243,0 -7.687,3.444 -7.687,7.688 C -7.687,-3.445 -4.243,0 0,0 Z" /></g><text
       id="text204"
       style="font-variant:normal;font-weight:normal;font-stretch:normal;font-size:9px;font-family:Times;-inkscape-font-specification:Times-Roman;writing-mode:lr-tb;fill:#231f20;fill-opacity:1;fill-rule:nonzero;stroke:none"
       transform="matrix(1,0,0,-1,211.3594,293.731)"><tspan
         id="tspan202"
         y="0"
         x="0 4.5 9 11.25 13.5 18 22.5 24.75 27 29.502001 33.362999 37.862999 40.365002">65, 34, text</tspan></text>
<path
       id="path206"
       style="fill:#ffffff;fill-opacity:1;fill-rule:nonzero;stroke:none"
       d="m 154.125,264.92 h 109.25 v 15.375 h -109.25 z" /><g
       transform="translate(161.812,280.295)"
       id="g208"><path
         id="path210"
         style="fill:none;stroke:#231f20;stroke-width:0.75;stroke-linecap:square;stroke-linejoin:miter;stroke-miterlimit:10;stroke-dasharray:none;stroke-opacity:1"
         d="m 0,0 h 93.875 c 4.244,0 7.688,-3.445 7.688,-7.687 0,-4.244 -3.444,-7.688 -7.688,-7.688 H 0 c -4.243,0 -7.687,3.444 -7.687,7.688 C -7.687,-3.445 -4.243,0 0,0 Z" /></g><text
       id="text214"
       style="font-variant:normal;font-weight:normal;font-stretch:normal;font-size:9px;font-family:Times;-inkscape-font-specification:Times-Roman;writing-mode:lr-tb;fill:#231f20;fill-opacity:1;fill-rule:nonzero;stroke:none"
       transform="matrix(1,0,0,-1,168.4746,270.3081)"><tspan
         id="tspan212"
         y="0"
         x="0 4.5 9 11.25 13.5 18 22.5 24.75 27 29.997 33.993 38.493 41.490002 45.486 48.987 52.983002 57.483002 59.985001 63.980999 66.483002 68.985001 73.485001 77.985001">18, 61, representation</tspan></text>
<path
       id="path216"
       style="fill:#ffffff;fill-opacity:1;fill-rule:nonzero;stroke:none"
       d="m 154.125,241.295 h 109.25 v 15.375 h -109.25 z" /><g
       transform="translate(161.812,256.67)"
       id="g218"><path
         id="path220"
         style="fill:none;stroke:#231f20;stroke-width:0.75;stroke-linecap:square;stroke-linejoin:miter;stroke-miterlimit:10;stroke-dasharray:none;stroke-opacity:1"
         d="m 0,0 h 93.875 c 4.244,0 7.688,-3.445 7.688,-7.688 0,-4.243 -3.444,-7.687 -7.688,-7.687 H 0 c -4.243,0 -7.687,3.444 -7.687,7.687 C -7.687,-3.445 -4.243,0 0,0 Z" /></g><text
       id="text232"
       style="font-variant:normal;font-weight:normal;font-stretch:normal;font-size:9px;font-family:Times;-inkscape-font-specification:Times-Roman;writing-mode:lr-tb;fill:#231f20;fill-opacity:1;fill-rule:nonzero;stroke:none"
       transform="matrix(1,0,0,-1,168.4746,246.6826)"><tspan
         id="tspan222"
         y="0"
         x="0 4.5 9 11.25 13.5 18 22.5 24.75 27 29.997 33.993 38.493 41.490002 45.486 48.987 52.983002 57.483002 59.985001 63.980999 66.483002 68.985001 73.485001 77.985001">18, 61, representation</tspan><tspan
         id="tspan224"
         y="-64.9431"
         x="-49.599899 -45.099899 -41.103901 -34.101898 -30.1059">name</tspan><tspan
         id="tspan226"
         y="-38.564098"
         x="-49.599899 -45.099899 -41.103901 -37.602901 -33.606899 -30.6099 -28.107901 -23.607901 -21.1059 -18.603901 -14.1039 -9.6039">description</tspan><tspan
         id="tspan228"
         y="-15.1686"
         x="-49.599899 -46.602901 -42.606899 -38.106899 -33.606899 -29.106899">rep_1</tspan><tspan
         id="tspan230"
         y="8.4563999"
         x="-49.599899 -46.602901 -42.606899 -38.106899 -33.606899 -29.106899">rep_2</tspan></text>
<path
       id="path234"
       style="fill:#ffffff;fill-opacity:1;fill-rule:nonzero;stroke:none"
       d="m 6.375,102.75 h 85.5 v 15.375 h -85.5 z" /><g
       transform="translate(14.063,118.125)"
       id="g236"><path
         id="path238"
         style="fill:none;stroke:#231f20;stroke-width:0.75;stroke-linecap:square;stroke-linejoin:miter;stroke-miterlimit:10;stroke-dasharray:none;stroke-opacity:1"
         d="m 0,0 h 70.125 c 4.244,0 7.687,-3.444 7.687,-7.687 0,-4.245 -3.443,-7.688 -7.687,-7.688 H 0 c -4.2432,0 -7.6875,3.443 -7.6875,7.688 C -7.6875,-3.444 -4.2432,0 0,0 Z" /></g><text
       id="text242"
       style="font-variant:normal;font-weight:normal;font-stretch:normal;font-size:9px;font-family:Times;-inkscape-font-specification:Times-Roman;writing-mode:lr-tb;fill:#231f20;fill-opacity:1;fill-rule:nonzero;stroke:none"
       transform="matrix(1,0,0,-1,17.3555,108.0703)"><tspan
         id="tspan240"
         y="0"
         x="0 4.5 9 11.25 13.5 18 22.5 27 29.25 32.247002 36.747002 41.247002 43.497002 45.747002 50.247002 54.747002 57.743999">22, 116 (64, 63)</tspan></text>
<path
       id="path244"
       style="fill:#ffffff;fill-opacity:1;fill-rule:nonzero;stroke:none"
       d="m 70.125,128.25 h 150 v 15.375 h -150 z" /><g
       transform="translate(70.125,143.625)"
       id="g246"><path
         id="path248"
         style="fill:none;stroke:#231f20;stroke-width:0.75;stroke-linecap:square;stroke-linejoin:miter;stroke-miterlimit:10;stroke-dasharray:none;stroke-opacity:1"
         d="M 150,0 H 0 v -15.375 h 150 z" /><g
         id="g250"><path
           id="path252"
           style="fill:none;stroke:#231f20;stroke-width:0.75;stroke-linecap:square;stroke-linejoin:miter;stroke-miterlimit:10;stroke-dasharray:none;stroke-opacity:1"
           d="M 0,0 Z" /></g></g><text
       id="text256"
       style="font-variant:normal;font-weight:normal;font-stretch:normal;font-size:9px;font-family:Times;-inkscape-font-specification:Times-Roman;writing-mode:lr-tb;fill:#231f20;fill-opacity:1;fill-rule:nonzero;stroke:none"
       transform="matrix(1,0,0,-1,82.0913,133.6377)"><tspan
         id="tspan254"
         y="0"
         x="0 3.5009999 8.0010004 11.997 16.497 20.493 24.993 27.99 31.986 36.486 39.483002 43.479 46.98 50.976002 55.476002 57.978001 61.973999 64.475998 66.977997 71.477997 75.977997 80.477997 83.474998 87.471001 89.973 93.969002 96.471001 98.973 103.473 107.973 111.474 115.974 118.476 122.976">shape_representation_relationship</tspan></text>
<path
       id="path258"
       style="fill:#ffffff;fill-opacity:1;fill-rule:nonzero;stroke:none"
       d="m 272.625,67.125 h 73.5 V 82.5 h -73.5 z" /><g
       transform="translate(280.313,82.5)"
       id="g260"><path
         id="path262"
         style="fill:none;stroke:#231f20;stroke-width:0.75;stroke-linecap:square;stroke-linejoin:miter;stroke-miterlimit:10;stroke-dasharray:none;stroke-opacity:1"
         d="m 0,0 h 58.125 c 4.244,0 7.688,-3.444 7.688,-7.687 0,-4.245 -3.444,-7.688 -7.688,-7.688 H 0 c -4.243,0 -7.687,3.443 -7.687,7.688 C -7.687,-3.444 -4.243,0 0,0 Z" /></g><text
       id="text266"
       style="font-variant:normal;font-weight:normal;font-stretch:normal;font-size:9px;font-family:Times;-inkscape-font-specification:Times-Roman;writing-mode:lr-tb;fill:#231f20;fill-opacity:1;fill-rule:nonzero;stroke:none"
       transform="matrix(1,0,0,-1,287.1084,72.3106)"><tspan
         id="tspan264"
         y="0"
         x="0 4.5 9 11.25 13.5 18 22.5 24.75 27 29.502001 33.362999 37.862999 40.365002">65, 44, text</tspan></text>
<path
       id="path268"
       style="fill:#ffffff;fill-opacity:1;fill-rule:nonzero;stroke:none"
       d="m 267.375,42.375 h 78.75 V 57.75 h -78.75 z" /><g
       transform="translate(275.063,57.75)"
       id="g270"><path
         id="path272"
         style="fill:none;stroke:#231f20;stroke-width:0.75;stroke-linecap:square;stroke-linejoin:miter;stroke-miterlimit:10;stroke-dasharray:none;stroke-opacity:1"
         d="m 0,0 h 63.375 c 4.244,0 7.688,-3.444 7.688,-7.687 0,-4.245 -3.444,-7.688 -7.688,-7.688 H 0 c -4.243,0 -7.687,3.443 -7.687,7.688 C -7.687,-3.444 -4.243,0 0,0 Z" /></g><text
       id="text276"
       style="font-variant:normal;font-weight:normal;font-stretch:normal;font-size:9px;font-family:Times;-inkscape-font-specification:Times-Roman;writing-mode:lr-tb;fill:#231f20;fill-opacity:1;fill-rule:nonzero;stroke:none"
       transform="matrix(1,0,0,-1,282.2344,47.4932)"><tspan
         id="tspan274"
         y="0"
         x="0 4.5 9 11.25 13.5 18 22.5 24.75 27 29.502001 33.498001 37.998001 41.993999 44.495998">65, 33, label</tspan></text>
<path
       id="path278"
       style="fill:#ffffff;fill-opacity:1;fill-rule:nonzero;stroke:none"
       d="m 31.125,0.375 h 135.75 v 18.75 H 31.125 Z" /><g
       transform="translate(40.5,19.125)"
       id="g280"><path
         id="path282"
         style="fill:none;stroke:#231f20;stroke-width:0.75;stroke-linecap:square;stroke-linejoin:miter;stroke-miterlimit:10;stroke-dasharray:none;stroke-opacity:1"
         d="m 0,0 h 117 c 5.175,0 9.375,-4.2 9.375,-9.375 0,-5.176 -4.2,-9.375 -9.375,-9.375 H 0 c -5.175,0 -9.375,4.199 -9.375,9.375 C -9.375,-4.2 -5.175,0 0,0 Z" /></g><text
       id="text286"
       style="font-variant:normal;font-weight:normal;font-stretch:normal;font-size:9px;font-family:Times;-inkscape-font-specification:Times-Roman;writing-mode:lr-tb;fill:#231f20;fill-opacity:1;fill-rule:nonzero;stroke:none"
       transform="matrix(1,0,0,-1,33.71,7.4053)"><tspan
         id="tspan284"
         y="0"
         x="0 4.5 9 11.25 13.5 18 22.5 24.75 27 31.5 34.497002 38.997002 43.497002 47.997002 51.993 54.494999 58.994999 63.494999 67.490997 70.307999 72.809998 77.309998 79.811996 82.314003 84.816002 89.316002 93.816002 98.316002 101.817 106.317 110.313 114.813 118.809">14, 53, product_definition_shape</tspan></text>
<path
       id="path288"
       style="fill:#ffffff;fill-opacity:1;fill-rule:nonzero;stroke:none"
       d="m 6.375,42.099 h 181.64 V 82.5 H 6.375 Z" /><g
       transform="translate(6.375,82.5)"
       id="g290"><path
         id="path292"
         style="fill:none;stroke:#231f20;stroke-width:0.75;stroke-linecap:square;stroke-linejoin:miter;stroke-miterlimit:10;stroke-dasharray:none;stroke-opacity:1"
         d="M 181.64,0 H 0 v -40.401 h 181.64 z" /><g
         id="g294"><path
           id="path296"
           style="fill:none;stroke:#231f20;stroke-width:0.75;stroke-linecap:square;stroke-linejoin:miter;stroke-miterlimit:10;stroke-dasharray:none;stroke-opacity:1"
           d="M 0,0 Z" /></g></g><text
       id="text304"
       style="font-variant:normal;font-weight:normal;font-stretch:normal;font-size:9px;font-family:Times;-inkscape-font-specification:Times-Roman;writing-mode:lr-tb;fill:#231f20;fill-opacity:1;fill-rule:nonzero;stroke:none"
       transform="matrix(1,0,0,-1,23.8926,60)"><tspan
         id="tspan298"
         y="0"
         x="0 3.9960001 8.4960003 12.996 15.498 19.358999 23.858999 26.361 30.861 35.361 39.356998 43.856998 47.853001 52.353001 56.853001 60.848999 65.348999 67.850998 72.350998 75.851997 80.351997 84.348 88.848 92.844002 97.344002 100.341 104.337 108.837 111.834 115.83 119.331 123.327 127.827 130.32899 134.325 136.827 139.32899 143.82899 148.32899">context_dependent_shape_representation</tspan><tspan
         id="tspan300"
         y="-3.5451"
         x="171.6219 174.6189 181.1169 186.61591 192.6189 195.61591 200.11591 204.11189 207.6129 211.6089 214.6059 217.10789 221.60789 224.10989 226.61189 231.11189 235.61189">(DER)description</tspan><tspan
         id="tspan302"
         y="21.375"
         x="171.6219 174.6189 181.1169 186.61591 192.6189 195.61591 200.11591 204.11189 211.11391 215.10989">(DER)name</tspan></text>
<g
       transform="translate(52.965,86.261)"
       id="g306"><path
         id="path308"
         style="fill:#ffffff;fill-opacity:1;fill-rule:nonzero;stroke:none"
         d="M 0,0 C 0,2.07 -1.68,3.75 -3.75,3.75 -5.82,3.75 -7.5,2.07 -7.5,0 c 0,-2.07 1.68,-3.75 3.75,-3.75 C -1.68,-3.75 0,-2.07 0,0" /></g><g
       transform="translate(52.965,86.261)"
       id="g310"><path
         id="path312"
         style="fill:none;stroke:#231f20;stroke-width:0.75;stroke-linecap:square;stroke-linejoin:miter;stroke-miterlimit:10;stroke-dasharray:none;stroke-opacity:1"
         d="M 0,0 C 0,2.07 -1.68,3.75 -3.75,3.75 -5.82,3.75 -7.5,2.07 -7.5,0 c 0,-2.07 1.68,-3.75 3.75,-3.75 C -1.68,-3.75 0,-2.07 0,0" /></g><g
       transform="translate(148.906,124.511)"
       id="g314"><path
         id="path316"
         style="fill:#ffffff;fill-opacity:1;fill-rule:nonzero;stroke:none"
         d="M 0,0 C 0,2.07 -1.68,3.75 -3.75,3.75 -5.82,3.75 -7.5,2.07 -7.5,0 c 0,-2.07 1.68,-3.75 3.75,-3.75 C -1.68,-3.75 0,-2.07 0,0" /></g><g
       transform="translate(148.906,124.511)"
       id="g318"><path
         id="path320"
         style="fill:none;stroke:#231f20;stroke-width:0.75;stroke-linecap:square;stroke-linejoin:miter;stroke-miterlimit:10;stroke-dasharray:none;stroke-opacity:1"
         d="M 0,0 C 0,2.07 -1.68,3.75 -3.75,3.75 -5.82,3.75 -7.5,2.07 -7.5,0 c 0,-2.07 1.68,-3.75 3.75,-3.75 C -1.68,-3.75 0,-2.07 0,0" /></g><text
       id="text326"
       style="font-variant:normal;font-weight:normal;font-stretch:normal;font-size:9px;font-family:Times;-inkscape-font-specification:Times-Roman;writing-mode:lr-tb;fill:#231f20;fill-opacity:1;fill-rule:nonzero;stroke:none"
       transform="matrix(1,0,0,-1,148.0146,91.7647)"><tspan
         id="tspan322"
         y="0"
         x="0 2.997 6.993 11.493 14.49 18.486 21.987 25.983 30.483 32.985001 36.980999 39.483002 41.985001 46.485001 50.985001 55.485001 58.481998 62.478001 64.980003 68.975998 71.477997 73.980003 78.480003 82.980003">representation_relation</tspan><tspan
         id="tspan324"
         y="61.150501"
         x="-86.559303 -83.562302 -79.566299 -75.066299 -72.069298 -68.073303 -64.572304 -60.576302 -56.076302 -53.574299 -49.5783 -45.0783 -40.5783 -36.0783 -33.081299 -28.581301 -24.081301 -19.581301 -15.5853 -13.0833 -8.5832996 -5.5862999 -1.5903 0.91170001 4.9077001 7.4096999 9.9117002 14.4117 18.911699">represented_product_relation</tspan></text>
<g
       transform="translate(70.065,137.2)"
       id="g328"><path
         id="path330"
         style="fill:#ffffff;fill-opacity:1;fill-rule:nonzero;stroke:none"
         d="M 0,0 C 0,2.071 -1.68,3.75 -3.75,3.75 -5.82,3.75 -7.5,2.071 -7.5,0 c 0,-2.069 1.68,-3.75 3.75,-3.75 C -1.68,-3.75 0,-2.069 0,0" /></g><g
       transform="translate(70.065,137.2)"
       id="g332"><path
         id="path334"
         style="fill:none;stroke:#231f20;stroke-width:0.75;stroke-linecap:square;stroke-linejoin:miter;stroke-miterlimit:10;stroke-dasharray:none;stroke-opacity:1"
         d="M 0,0 C 0,2.071 -1.68,3.75 -3.75,3.75 -5.82,3.75 -7.5,2.071 -7.5,0 c 0,-2.069 1.68,-3.75 3.75,-3.75 C -1.68,-3.75 0,-2.069 0,0" /></g><g
       transform="translate(69.706,199.571)"
       id="g336"><path
         id="path338"
         style="fill:#ffffff;fill-opacity:1;fill-rule:nonzero;stroke:none"
         d="M 0,0 C 0,2.069 -1.68,3.75 -3.75,3.75 -5.82,3.75 -7.5,2.069 -7.5,0 c 0,-2.07 1.68,-3.75 3.75,-3.75 C -1.68,-3.75 0,-2.07 0,0" /></g><g
       transform="translate(69.706,199.571)"
       id="g340"><path
         id="path342"
         style="fill:none;stroke:#231f20;stroke-width:0.75;stroke-linecap:square;stroke-linejoin:miter;stroke-miterlimit:10;stroke-dasharray:none;stroke-opacity:1"
         d="M 0,0 C 0,2.069 -1.68,3.75 -3.75,3.75 -5.82,3.75 -7.5,2.069 -7.5,0 c 0,-2.07 1.68,-3.75 3.75,-3.75 C -1.68,-3.75 0,-2.07 0,0" /></g><path
       id="path344"
       style="fill:#ffffff;fill-opacity:1;fill-rule:nonzero;stroke:none"
       d="m 39.028,484.509 h 61.5 v 18.75 h -61.5 z" /><g
       transform="translate(48.403,503.259)"
       id="g346"><path
         id="path348"
         style="fill:none;stroke:#231f20;stroke-width:0.75;stroke-linecap:square;stroke-linejoin:miter;stroke-miterlimit:10;stroke-dasharray:none;stroke-opacity:1"
         d="m 0,0 h 42.75 c 5.175,0 9.375,-4.2 9.375,-9.375 0,-5.174 -4.2,-9.375 -9.375,-9.375 H 0 c -5.175,0 -9.375,4.201 -9.375,9.375 C -9.375,-4.2 -5.175,0 0,0 Z" /></g><text
       id="text352"
       style="font-variant:normal;font-weight:normal;font-stretch:normal;font-size:9px;font-family:Times;-inkscape-font-specification:Times-Roman;writing-mode:lr-tb;fill:#231f20;fill-opacity:1;fill-rule:nonzero;stroke:none"
       transform="matrix(1,0,0,-1,45.5146,491.5176)"><tspan
         id="tspan350"
         y="0"
         x="0 4.5 9 11.25 13.5 18 22.5 27 29.25 32.247002 36.747002 41.247002 44.243999">22, 297 (21)</tspan></text>
<g
       transform="translate(74.296,468.491)"
       id="g354"><path
         id="path356"
         style="fill:#ffffff;fill-opacity:1;fill-rule:nonzero;stroke:none"
         d="M 0,0 C 0,2.07 -1.681,3.75 -3.75,3.75 -5.82,3.75 -7.5,2.07 -7.5,0 c 0,-2.07 1.68,-3.75 3.75,-3.75 C -1.681,-3.75 0,-2.07 0,0" /></g><g
       transform="translate(74.296,468.491)"
       id="g358"><path
         id="path360"
         style="fill:none;stroke:#231f20;stroke-width:0.75;stroke-linecap:square;stroke-linejoin:miter;stroke-miterlimit:10;stroke-dasharray:none;stroke-opacity:1"
         d="M 0,0 C 0,2.07 -1.681,3.75 -3.75,3.75 -5.82,3.75 -7.5,2.07 -7.5,0 c 0,-2.07 1.68,-3.75 3.75,-3.75 C -1.681,-3.75 0,-2.07 0,0" /></g><path
       id="path362"
       style="fill:#ffffff;fill-opacity:1;fill-rule:nonzero;stroke:none"
       d="m 223.226,418.877 h 116 v 17.25 h -116 z" /><path
       id="path364"
       style="fill:none;stroke:#231f20;stroke-width:0.75;stroke-linecap:square;stroke-linejoin:miter;stroke-miterlimit:10;stroke-dasharray:3.75, 3.75;stroke-dashoffset:0;stroke-opacity:1"
       d="m 223.226,436.127 v -17.25 h 116 v 17.25 z m 7.5,-17.25 v 17.25" /><text
       id="text368"
       style="font-variant:normal;font-weight:normal;font-stretch:normal;font-size:9px;font-family:Times;-inkscape-font-specification:Times-Roman;writing-mode:lr-tb;fill:#231f20;fill-opacity:1;fill-rule:nonzero;stroke:none"
       transform="matrix(1,0,0,-1,234.7256,425.1573)"><tspan
         id="tspan366"
         y="0"
         x="0 3.9960001 8.4960003 15.498 19.997999 24.497999 28.997999 33.498001 37.998001 42.498001 45 47.501999 51.498001 58.5 63 67.5 71.496002 74.313004 76.815002 81.315002 83.817001 86.319 88.820999 93.320999 97.820999">compound_item_definition</tspan></text>
<path
       id="path370"
       style="fill:#ffffff;fill-opacity:1;fill-rule:nonzero;stroke:none"
       d="m 27.271,353.992 h 138 v 15.375 h -138 z" /><g
       transform="translate(34.958,369.367)"
       id="g372"><path
         id="path374"
         style="fill:none;stroke:#231f20;stroke-width:0.75;stroke-linecap:square;stroke-linejoin:miter;stroke-miterlimit:10;stroke-dasharray:none;stroke-opacity:1"
         d="m 0,0 h 122.625 c 4.244,0 7.688,-3.443 7.688,-7.687 0,-4.244 -3.444,-7.688 -7.688,-7.688 H 0 c -4.244,0 -7.687,3.444 -7.687,7.688 C -7.687,-3.443 -4.244,0 0,0 Z" /></g><text
       id="text378"
       style="font-variant:normal;font-weight:normal;font-stretch:normal;font-size:9px;font-family:Times;-inkscape-font-specification:Times-Roman;writing-mode:lr-tb;fill:#231f20;fill-opacity:1;fill-rule:nonzero;stroke:none"
       transform="matrix(1,0,0,-1,41.4922,359.3809)"><tspan
         id="tspan376"
         y="0"
         x="0 4.5 9 11.25 13.5 18 22.5 24.75 27 29.997 33.993 38.493 41.490002 45.486 48.987 52.983002 57.483002 59.985001 63.980999 66.483002 68.985001 73.485001 77.985001 82.485001 84.987 87.488998 91.485001 98.487">21, 60, representation_item</tspan></text>
<path
       id="path380"
       style="fill:#ffffff;fill-opacity:1;fill-rule:nonzero;stroke:none"
       d="m 187.771,352.117 h 99.75 v 17.25 h -99.75 z" /><path
       id="path382"
       style="fill:none;stroke:#231f20;stroke-width:0.75;stroke-linecap:square;stroke-linejoin:miter;stroke-miterlimit:10;stroke-dasharray:3.75, 3.75;stroke-dashoffset:0;stroke-opacity:1"
       d="m 187.771,369.367 v -17.25 h 99.749 v 17.25 z" /><text
       id="text386"
       style="font-variant:normal;font-weight:normal;font-stretch:normal;font-size:9px;font-family:Times;-inkscape-font-specification:Times-Roman;writing-mode:lr-tb;fill:#231f20;fill-opacity:1;fill-rule:nonzero;stroke:none"
       transform="matrix(1,0,0,-1,194.374,358.4434)"><tspan
         id="tspan384"
         y="0"
         x="0 3.5009999 7.4970002 9.9989996 14.499 17.496 21.492001 25.992001 28.989 32.985001 36.486 40.481998 44.981998 47.484001 51.48 53.981998 56.484001 60.984001 65.484001 69.984001 72.486 74.987999 78.984001 85.986">set_representation_item</tspan></text>
<path
       id="path388"
       style="fill:#ffffff;fill-opacity:1;fill-rule:nonzero;stroke:none"
       d="m 26.199,380.298 h 138 v 15.375 h -138 z" /><g
       transform="translate(33.886,395.673)"
       id="g390"><path
         id="path392"
         style="fill:none;stroke:#231f20;stroke-width:0.75;stroke-linecap:square;stroke-linejoin:miter;stroke-miterlimit:10;stroke-dasharray:none;stroke-opacity:1"
         d="m 0,0 h 122.625 c 4.243,0 7.687,-3.444 7.687,-7.687 0,-4.244 -3.444,-7.688 -7.687,-7.688 H 0 c -4.244,0 -7.687,3.444 -7.687,7.688 C -7.687,-3.444 -4.244,0 0,0 Z" /></g><text
       id="text396"
       style="font-variant:normal;font-weight:normal;font-stretch:normal;font-size:9px;font-family:Times;-inkscape-font-specification:Times-Roman;writing-mode:lr-tb;fill:#231f20;fill-opacity:1;fill-rule:nonzero;stroke:none"
       transform="matrix(1,0,0,-1,40.4204,385.6856)"><tspan
         id="tspan394"
         y="0"
         x="0 4.5 9 11.25 13.5 18 22.5 24.75 27 29.997 33.993 38.493 41.490002 45.486 48.987 52.983002 57.483002 59.985001 63.980999 66.483002 68.985001 73.485001 77.985001 82.485001 84.987 87.488998 91.485001 98.487">21, 60, representation_item</tspan></text>
<path
       id="path398"
       style="fill:#ffffff;fill-opacity:1;fill-rule:nonzero;stroke:none"
       d="m 186.698,378.423 h 99.75 v 17.25 h -99.75 z" /><path
       id="path400"
       style="fill:none;stroke:#231f20;stroke-width:0.75;stroke-linecap:square;stroke-linejoin:miter;stroke-miterlimit:10;stroke-dasharray:3.75, 3.75;stroke-dashoffset:0;stroke-opacity:1"
       d="m 186.698,395.673 v -17.25 h 99.75 v 17.25 z" /><text
       id="text406"
       style="font-variant:normal;font-weight:normal;font-stretch:normal;font-size:9px;font-family:Times;-inkscape-font-specification:Times-Roman;writing-mode:lr-tb;fill:#231f20;fill-opacity:1;fill-rule:nonzero;stroke:none"
       transform="matrix(1,0,0,-1,193.8057,384.7481)"><tspan
         id="tspan402"
         y="0"
         x="0 2.5020001 5.0040002 8.5050001 11.007 15.507 18.504 22.5 27 29.997 33.993 37.493999 41.490002 45.990002 48.492001 52.487999 54.990002 57.492001 61.992001 66.491997 70.991997 73.494003 75.996002 79.991997 86.994003">list_representation_item</tspan><tspan
         id="tspan404"
         y="-62.612099"
         x="-7.7202001 -5.2182002 -2.7162001 1.2798001 8.2818003 12.7818 16.7778 19.2798 23.275801 30.2778 34.2738 38.7738 41.275799">item_element</tspan></text>
<g
       transform="translate(263.025,439.871)"
       id="g408"><path
         id="path410"
         style="fill:#ffffff;fill-opacity:1;fill-rule:nonzero;stroke:none"
         d="M 0,0 C 0,2.07 -1.681,3.75 -3.75,3.75 -5.819,3.75 -7.5,2.07 -7.5,0 c 0,-2.07 1.681,-3.75 3.75,-3.75 C -1.681,-3.75 0,-2.07 0,0" /></g><g
       transform="translate(263.025,439.871)"
       id="g412"><path
         id="path414"
         style="fill:none;stroke:#231f20;stroke-width:0.75;stroke-linecap:square;stroke-linejoin:miter;stroke-miterlimit:10;stroke-dasharray:none;stroke-opacity:1"
         d="M 0,0 C 0,2.07 -1.681,3.75 -3.75,3.75 -5.819,3.75 -7.5,2.07 -7.5,0 c 0,-2.07 1.681,-3.75 3.75,-3.75 C -1.681,-3.75 0,-2.07 0,0" /></g><g
       transform="translate(293.985,389.561)"
       id="g416"><path
         id="path418"
         style="fill:#ffffff;fill-opacity:1;fill-rule:nonzero;stroke:none"
         d="M 0,0 C 0,2.07 -1.68,3.75 -3.75,3.75 -5.819,3.75 -7.5,2.07 -7.5,0 c 0,-2.07 1.681,-3.75 3.75,-3.75 C -1.68,-3.75 0,-2.07 0,0" /></g><g
       transform="translate(293.985,389.561)"
       id="g420"><path
         id="path422"
         style="fill:none;stroke:#231f20;stroke-width:0.75;stroke-linecap:square;stroke-linejoin:miter;stroke-miterlimit:10;stroke-dasharray:none;stroke-opacity:1"
         d="M 0,0 C 0,2.07 -1.68,3.75 -3.75,3.75 -5.819,3.75 -7.5,2.07 -7.5,0 c 0,-2.07 1.681,-3.75 3.75,-3.75 C -1.68,-3.75 0,-2.07 0,0" /></g><g
       transform="translate(295.065,360.311)"
       id="g424"><path
         id="path426"
         style="fill:#ffffff;fill-opacity:1;fill-rule:nonzero;stroke:none"
         d="M 0,0 C 0,2.07 -1.68,3.75 -3.75,3.75 -5.82,3.75 -7.5,2.07 -7.5,0 c 0,-2.07 1.68,-3.75 3.75,-3.75 C -1.68,-3.75 0,-2.07 0,0" /></g><g
       transform="translate(295.065,360.311)"
       id="g428"><path
         id="path430"
         style="fill:none;stroke:#231f20;stroke-width:0.75;stroke-linecap:square;stroke-linejoin:miter;stroke-miterlimit:10;stroke-dasharray:none;stroke-opacity:1"
         d="M 0,0 C 0,2.07 -1.68,3.75 -3.75,3.75 -5.82,3.75 -7.5,2.07 -7.5,0 c 0,-2.07 1.68,-3.75 3.75,-3.75 C -1.68,-3.75 0,-2.07 0,0" /></g></g></svg>