<?xml version="1.0" encoding="UTF-8" standalone="no"?>
<svg
   xmlns:dc="http://purl.org/dc/elements/1.1/"
   xmlns:cc="http://creativecommons.org/ns#"
   xmlns:rdf="http://www.w3.org/1999/02/22-rdf-syntax-ns#"
   xmlns:svg="http://www.w3.org/2000/svg"
   xmlns="http://www.w3.org/2000/svg"
   viewBox="0 0 492.89066 393.41068"
   height="393.41068"
   width="492.89066"
   xml:space="preserve"
   id="svg2"
   version="1.1"><metadata
     id="metadata8"><rdf:RDF><cc:Work
         rdf:about=""><dc:format>image/svg+xml</dc:format><dc:type
           rdf:resource="http://purl.org/dc/dcmitype/StillImage" /></cc:Work></rdf:RDF></metadata><defs
     id="defs6" /><g
     transform="matrix(1.3333333,0,0,-1.3333333,0,393.41067)"
     id="g10"><g
       transform="translate(172.793,264.892)"
       id="g12"><path
         id="path14"
         style="fill:none;stroke:#231f20;stroke-width:0.75;stroke-linecap:square;stroke-linejoin:miter;stroke-miterlimit:10;stroke-dasharray:none;stroke-opacity:1"
         d="M 0,0 0.52,-8.462" /><g
         transform="translate(-51.851,-205.068)"
         id="g16"><path
           id="path18"
           style="fill:none;stroke:#231f20;stroke-width:0.75;stroke-linecap:square;stroke-linejoin:miter;stroke-miterlimit:10;stroke-dasharray:none;stroke-opacity:1"
           d="M 0,0 V -8.063" /><g
           transform="translate(78.251,106.8)"
           id="g20"><path
             id="path22"
             style="fill:none;stroke:#231f20;stroke-width:0.75;stroke-linecap:square;stroke-linejoin:miter;stroke-miterlimit:10;stroke-dasharray:none;stroke-opacity:1"
             d="M 0,0 V 66.938" /><g
             transform="translate(69.749,-130.051)"
             id="g24"><path
               id="path26"
               style="fill:none;stroke:#231f20;stroke-width:0.75;stroke-linecap:square;stroke-linejoin:miter;stroke-miterlimit:10;stroke-dasharray:none;stroke-opacity:1"
               d="M 0,0 H -55.5" /></g></g></g></g><path
       id="path28"
       style="fill:none;stroke:#231f20;stroke-width:0.75;stroke-linecap:square;stroke-linejoin:miter;stroke-miterlimit:10;stroke-dasharray:3.75, 3.75;stroke-dashoffset:0;stroke-opacity:1"
       d="m 274.193,12.947 h -60.75" /><g
       transform="translate(168.819,115.436)"
       id="g30"><path
         id="path32"
         style="fill:none;stroke:#231f20;stroke-width:2.25;stroke-linecap:square;stroke-linejoin:miter;stroke-miterlimit:10;stroke-dasharray:none;stroke-opacity:1"
         d="M 0,0 -0.375,118.126" /></g><g
       transform="translate(218.694,179)"
       id="g34"><path
         id="path36"
         style="fill:none;stroke:#231f20;stroke-width:0.75;stroke-linecap:square;stroke-linejoin:miter;stroke-miterlimit:10;stroke-dasharray:none;stroke-opacity:1"
         d="M 0,0 H 32.579" /><g
         transform="translate(-107.625,-119.177)"
         id="g38"><path
           id="path40"
           style="fill:none;stroke:#231f20;stroke-width:0.75;stroke-linecap:square;stroke-linejoin:miter;stroke-miterlimit:10;stroke-dasharray:none;stroke-opacity:1"
           d="M 0,0 H 9.874" /><g
           transform="translate(107.625,119.177)"
           id="g42"><path
             id="path44"
             style="fill:none;stroke:#231f20;stroke-width:0.75;stroke-linecap:square;stroke-linejoin:miter;stroke-miterlimit:10;stroke-dasharray:none;stroke-opacity:1"
             d="M 0,0 V -12.376" /><g
             transform="translate(5.249,-27.564)"
             id="g46"><path
               id="path48"
               style="fill:none;stroke:#231f20;stroke-width:0.75;stroke-linecap:square;stroke-linejoin:miter;stroke-miterlimit:10;stroke-dasharray:none;stroke-opacity:1"
               d="M 0,0 H 25.5" /><g
               transform="translate(0,-23.626)"
               id="g50"><path
                 id="path52"
                 style="fill:none;stroke:#231f20;stroke-width:0.75;stroke-linecap:square;stroke-linejoin:miter;stroke-miterlimit:10;stroke-dasharray:none;stroke-opacity:1"
                 d="M 0,0 H 22.5" /><g
                 transform="translate(-10.125,114.606)"
                 id="g54"><path
                   id="path56"
                   style="fill:none;stroke:#231f20;stroke-width:0.75;stroke-linecap:square;stroke-linejoin:miter;stroke-miterlimit:10;stroke-dasharray:none;stroke-opacity:1"
                   d="M 0,0 H 51.226" /></g></g></g></g></g></g><g
       transform="translate(141.125,194.789)"
       id="g58"><path
         id="path60"
         style="fill:none;stroke:#231f20;stroke-width:2.25;stroke-linecap:square;stroke-linejoin:miter;stroke-miterlimit:10;stroke-dasharray:none;stroke-opacity:1"
         d="M 0,0 H 13.471" /><g
         transform="translate(0.028,-17.623)"
         id="g62"><path
           id="path64"
           style="fill:none;stroke:#231f20;stroke-width:2.25;stroke-linecap:square;stroke-linejoin:miter;stroke-miterlimit:10;stroke-dasharray:none;stroke-opacity:1"
           d="M 0,0 H 13.443" /><g
           transform="translate(-0.778,-64.128)"
           id="g66"><path
             id="path68"
             style="fill:none;stroke:#231f20;stroke-width:2.25;stroke-linecap:square;stroke-linejoin:miter;stroke-miterlimit:10;stroke-dasharray:none;stroke-opacity:1"
             d="M 0,0 H 14.222" /><g
             transform="translate(0.75,-21.75)"
             id="g70"><path
               id="path72"
               style="fill:none;stroke:#231f20;stroke-width:2.25;stroke-linecap:square;stroke-linejoin:miter;stroke-miterlimit:10;stroke-dasharray:none;stroke-opacity:1"
               d="M 0,0 H 13.471" /><g
               transform="translate(-0.75,43.5)"
               id="g74"><path
                 id="path76"
                 style="fill:none;stroke:#231f20;stroke-width:2.25;stroke-linecap:square;stroke-linejoin:miter;stroke-miterlimit:10;stroke-dasharray:none;stroke-opacity:1"
                 d="M 0,0 H 14.222" /><g
                 transform="translate(0.75,19.501)"
                 id="g78"><path
                   id="path80"
                   style="fill:none;stroke:#231f20;stroke-width:2.25;stroke-linecap:square;stroke-linejoin:miter;stroke-miterlimit:10;stroke-dasharray:none;stroke-opacity:1"
                   d="M 0,0 H 13.471" /><g
                   transform="translate(13.471,40.5)"
                   id="g82"><path
                     id="path84"
                     style="fill:none;stroke:#231f20;stroke-width:2.25;stroke-linecap:square;stroke-linejoin:miter;stroke-miterlimit:10;stroke-dasharray:none;stroke-opacity:1"
                     d="M 0,0 V 13.647" /><g
                     transform="translate(0,-17.623)"
                     id="g86"><path
                       id="path88"
                       style="fill:none;stroke:#231f20;stroke-width:2.25;stroke-linecap:square;stroke-linejoin:miter;stroke-miterlimit:10;stroke-dasharray:none;stroke-opacity:1"
                       d="M 0,0 V 31.27" /><g
                       transform="translate(0,-64.128)"
                       id="g90"><path
                         id="path92"
                         style="fill:none;stroke:#231f20;stroke-width:2.25;stroke-linecap:square;stroke-linejoin:miter;stroke-miterlimit:10;stroke-dasharray:none;stroke-opacity:1"
                         d="M 0,0 V 95.398" /><g
                         transform="translate(0,-21.75)"
                         id="g94"><path
                           id="path96"
                           style="fill:none;stroke:#231f20;stroke-width:2.25;stroke-linecap:square;stroke-linejoin:miter;stroke-miterlimit:10;stroke-dasharray:none;stroke-opacity:1"
                           d="M 0,0 V 117.148" /><g
                           transform="translate(0,43.5)"
                           id="g98"><path
                             id="path100"
                             style="fill:none;stroke:#231f20;stroke-width:2.25;stroke-linecap:square;stroke-linejoin:miter;stroke-miterlimit:10;stroke-dasharray:none;stroke-opacity:1"
                             d="M 0,0 V 73.648" /><g
                             transform="translate(0,19.501)"
                             id="g102"><path
                               id="path104"
                               style="fill:none;stroke:#231f20;stroke-width:2.25;stroke-linecap:square;stroke-linejoin:miter;stroke-miterlimit:10;stroke-dasharray:none;stroke-opacity:1"
                               d="M 0,0 V 54.147 L -0.553,79.272" /><g
                               transform="translate(34.285,-71.958)"
                               id="g106"><path
                                 id="path108"
                                 style="fill:none;stroke:#231f20;stroke-width:2.25;stroke-linecap:square;stroke-linejoin:miter;stroke-miterlimit:10;stroke-dasharray:none;stroke-opacity:1"
                                 d="M 0,0 H -20.062" /><g
                                 transform="translate(-20.559,-30.571)"
                                 id="g110"><path
                                   id="path112"
                                   style="fill:none;stroke:#231f20;stroke-width:2.25;stroke-linecap:square;stroke-linejoin:miter;stroke-miterlimit:10;stroke-dasharray:none;stroke-opacity:1"
                                   d="M 0,0 0.496,63.676" /><g
                                   transform="translate(0.496,30.571)"
                                   id="g114"><path
                                   id="path116"
                                   style="fill:none;stroke:#231f20;stroke-width:2.25;stroke-linecap:square;stroke-linejoin:miter;stroke-miterlimit:10;stroke-dasharray:none;stroke-opacity:1"
                                   d="M 0,0 V 33.104" /></g></g></g></g></g></g></g></g></g></g></g></g></g></g></g><path
       id="path118"
       style="fill:#ffffff;fill-opacity:1;fill-rule:nonzero;stroke:none"
       d="m 188.881,74.248 h 170.25 v 15.375 h -170.25 z" /><g
       transform="translate(196.569,89.623)"
       id="g120"><path
         id="path122"
         style="fill:none;stroke:#231f20;stroke-width:0.75;stroke-linecap:square;stroke-linejoin:miter;stroke-miterlimit:10;stroke-dasharray:none;stroke-opacity:1"
         d="m 0,0 h 154.875 c 4.243,0 7.688,-3.444 7.688,-7.687 0,-4.245 -3.445,-7.688 -7.688,-7.688 H 0 c -4.244,0 -7.687,3.443 -7.687,7.688 C -7.687,-3.444 -4.244,0 0,0 Z" /></g><text
       id="text126"
       style="font-variant:normal;font-weight:normal;font-stretch:normal;font-size:9px;font-family:Times;-inkscape-font-specification:Times-Roman;writing-mode:lr-tb;fill:#231f20;fill-opacity:1;fill-rule:nonzero;stroke:none"
       transform="matrix(1,0,0,-1,199.2202,79.6358)"><tspan
         id="tspan124"
         y="0"
         x="0 4.5 9 11.25 13.5 18 22.5 24.75 27 34.001999 37.998001 41.993999 45.494999 49.994999 52.992001 56.987999 61.487999 64.485001 68.481003 72.981003 75.977997 79.973999 83.474998 87.471001 91.971001 94.473 98.469002 100.971 103.473 107.973 112.473 116.973 119.475 121.977 125.973 132.97501">21, 11, measure_representation_item</tspan></text>
<path
       id="path128"
       style="fill:#ffffff;fill-opacity:1;fill-rule:nonzero;stroke:none"
       d="m 268.943,28.885 h 78.75 V 44.26 h -78.75 z" /><g
       transform="translate(276.63,44.26)"
       id="g130"><path
         id="path132"
         style="fill:none;stroke:#231f20;stroke-width:0.75;stroke-linecap:square;stroke-linejoin:miter;stroke-miterlimit:10;stroke-dasharray:none;stroke-opacity:1"
         d="m 0,0 h 63.375 c 4.244,0 7.688,-3.444 7.688,-7.687 0,-4.244 -3.444,-7.688 -7.688,-7.688 H 0 c -4.243,0 -7.687,3.444 -7.687,7.688 C -7.687,-3.444 -4.243,0 0,0 Z" /></g><text
       id="text136"
       style="font-variant:normal;font-weight:normal;font-stretch:normal;font-size:9px;font-family:Times;-inkscape-font-specification:Times-Roman;writing-mode:lr-tb;fill:#231f20;fill-opacity:1;fill-rule:nonzero;stroke:none"
       transform="matrix(1,0,0,-1,283.8022,34.003)"><tspan
         id="tspan134"
         y="0"
         x="0 4.5 9 11.25 13.5 18 22.5 24.75 27 29.502001 33.498001 37.998001 41.993999 44.495998">65, 33, label</tspan></text>
<path
       id="path138"
       style="fill:#ffffff;fill-opacity:1;fill-rule:nonzero;stroke:none"
       d="m 274.193,5.2598 h 73.5 v 15.375 h -73.5 z" /><g
       transform="translate(281.88,20.635)"
       id="g140"><path
         id="path142"
         style="fill:none;stroke:#231f20;stroke-width:0.75;stroke-linecap:square;stroke-linejoin:miter;stroke-miterlimit:10;stroke-dasharray:none;stroke-opacity:1"
         d="m 0,0 h 58.125 c 4.244,0 7.688,-3.444 7.688,-7.688 0,-4.243 -3.444,-7.687 -7.688,-7.687 H 0 c -4.243,0 -7.687,3.444 -7.687,7.687 C -7.687,-3.444 -4.243,0 0,0 Z" /></g><text
       id="text146"
       style="font-variant:normal;font-weight:normal;font-stretch:normal;font-size:9px;font-family:Times;-inkscape-font-specification:Times-Roman;writing-mode:lr-tb;fill:#231f20;fill-opacity:1;fill-rule:nonzero;stroke:none"
       transform="matrix(1,0,0,-1,288.6772,10.4454)"><tspan
         id="tspan144"
         y="0"
         x="0 4.5 9 11.25 13.5 18 22.5 24.75 27 29.502001 33.362999 37.862999 40.365002">65, 34, text</tspan></text>
<path
       id="path148"
       style="fill:#ffffff;fill-opacity:1;fill-rule:nonzero;stroke:none"
       d="m 251.273,169.249 h 85.5 v 15.375 h -85.5 z" /><g
       transform="translate(258.96,184.624)"
       id="g150"><path
         id="path152"
         style="fill:none;stroke:#231f20;stroke-width:0.75;stroke-linecap:square;stroke-linejoin:miter;stroke-miterlimit:10;stroke-dasharray:none;stroke-opacity:1"
         d="m 0,0 h 70.125 c 4.243,0 7.688,-3.444 7.688,-7.687 0,-4.244 -3.445,-7.688 -7.688,-7.688 H 0 c -4.244,0 -7.687,3.444 -7.687,7.688 C -7.687,-3.444 -4.244,0 0,0 Z" /></g><text
       id="text156"
       style="font-variant:normal;font-weight:normal;font-stretch:normal;font-size:9px;font-family:Times;-inkscape-font-specification:Times-Roman;writing-mode:lr-tb;fill:#231f20;fill-opacity:1;fill-rule:nonzero;stroke:none"
       transform="matrix(1,0,0,-1,269.7593,174.5694)"><tspan
         id="tspan154"
         y="0"
         x="0 4.5 9 11.25 13.5 18 22.5 27 29.25 32.247002 36.747002 41.247002 44.243999">47, 180 (20)</tspan></text>
<path
       id="path158"
       style="fill:#ffffff;fill-opacity:1;fill-rule:nonzero;stroke:none"
       d="m 131.311,264.892 h 110.393 v 29.791 H 131.311 Z" /><g
       transform="translate(146.206,294.683)"
       id="g160"><path
         id="path162"
         style="fill:none;stroke:#231f20;stroke-width:0.75;stroke-linecap:square;stroke-linejoin:miter;stroke-miterlimit:10;stroke-dasharray:none;stroke-opacity:1"
         d="m 0,0 h 80.602 c 8.222,0 14.895,-6.673 14.895,-14.896 0,-8.222 -6.673,-14.895 -14.895,-14.895 H 0 c -8.222,0 -14.896,6.673 -14.896,14.895 C -14.896,-6.673 -8.222,0 0,0 Z" /></g><text
       id="text168"
       style="font-variant:normal;font-weight:normal;font-stretch:normal;font-size:9px;font-family:Times;-inkscape-font-specification:Times-Roman;writing-mode:lr-tb;fill:#231f20;fill-opacity:1;fill-rule:nonzero;stroke:none"
       transform="matrix(1,0,0,-1,136.7705,281.42)"><tspan
         id="tspan164"
         y="0"
         x="0 4.5 9 11.25 13.5 18 22.5 27 29.25 32.247002 36.747002 41.247002 43.497002 45.747002 50.247002 54.747002 56.997002 59.247002 63.747002 68.247002 70.497002 72.747002 77.247002 81.747002 83.997002 86.247002 90.747002 95.247002 97.497002 99.747002">47, 181 (45, 45, 44, 50, 44, </tspan><tspan
         id="tspan166"
         y="10.9998"
         x="16.875 21.375 25.875 28.125 30.375 34.875 39.375 41.625 43.875 48.375 52.875 55.125 57.375 61.875 66.375 68.625 70.875 75.375 79.875 82.872002">13, 49, 42, 46, 46)</tspan></text>
<path
       id="path170"
       style="fill:#ffffff;fill-opacity:1;fill-rule:nonzero;stroke:none"
       d="m 39.069,52.885 h 72 V 68.26 h -72 z" /><g
       transform="translate(46.756,68.26)"
       id="g172"><path
         id="path174"
         style="fill:none;stroke:#231f20;stroke-width:0.75;stroke-linecap:square;stroke-linejoin:miter;stroke-miterlimit:10;stroke-dasharray:none;stroke-opacity:1"
         d="m 0,0 h 56.625 c 4.243,0 7.688,-3.444 7.688,-7.687 0,-4.244 -3.445,-7.688 -7.688,-7.688 H 0 c -4.244,0 -7.687,3.444 -7.687,7.688 C -7.687,-3.444 -4.244,0 0,0 Z" /></g><text
       id="text182"
       style="font-variant:normal;font-weight:normal;font-stretch:normal;font-size:9px;font-family:Times;-inkscape-font-specification:Times-Roman;writing-mode:lr-tb;fill:#231f20;fill-opacity:1;fill-rule:nonzero;stroke:none"
       transform="matrix(1,0,0,-1,50.8042,58.2061)"><tspan
         id="tspan176"
         y="0"
         x="0 4.5 9 11.25 13.5 18 22.5 27 29.25 32.247002 36.747002 41.247002 44.243999">47, 236 (20)</tspan><tspan
         id="tspan178"
         y="-165.2238"
         x="93.3759 97.8759">1</tspan><tspan
         id="tspan180"
         y="56.244598"
         x="170.1387 174.6387 178.6347 182.1357 186.1317 189.12869 191.63071 196.13071 198.63271 201.1347 205.6347 210.1347">description</tspan></text>
<g
       transform="translate(172.033,48.037)"
       id="g184"><path
         id="path186"
         style="fill:#ffffff;fill-opacity:1;fill-rule:nonzero;stroke:none"
         d="M 0,0 C 0,2.071 -1.68,3.75 -3.75,3.75 -5.82,3.75 -7.5,2.071 -7.5,0 c 0,-2.069 1.68,-3.75 3.75,-3.75 C -1.68,-3.75 0,-2.069 0,0" /></g><g
       transform="translate(172.033,48.037)"
       id="g188"><path
         id="path190"
         style="fill:none;stroke:#231f20;stroke-width:0.75;stroke-linecap:square;stroke-linejoin:miter;stroke-miterlimit:10;stroke-dasharray:none;stroke-opacity:1"
         d="M 0,0 C 0,2.071 -1.68,3.75 -3.75,3.75 -5.82,3.75 -7.5,2.071 -7.5,0 c 0,-2.069 1.68,-3.75 3.75,-3.75 C -1.68,-3.75 0,-2.069 0,0" /></g><g
       transform="translate(177.343,252.698)"
       id="g192"><path
         id="path194"
         style="fill:#ffffff;fill-opacity:1;fill-rule:nonzero;stroke:none"
         d="M 0,0 C 0,2.07 -1.68,3.75 -3.75,3.75 -5.82,3.75 -7.5,2.07 -7.5,0 c 0,-2.07 1.68,-3.75 3.75,-3.75 C -1.68,-3.75 0,-2.07 0,0" /></g><g
       transform="translate(177.343,252.698)"
       id="g196"><path
         id="path198"
         style="fill:none;stroke:#231f20;stroke-width:0.75;stroke-linecap:square;stroke-linejoin:miter;stroke-miterlimit:10;stroke-dasharray:none;stroke-opacity:1"
         d="M 0,0 C 0,2.07 -1.68,3.75 -3.75,3.75 -5.82,3.75 -7.5,2.07 -7.5,0 c 0,-2.07 1.68,-3.75 3.75,-3.75 C -1.68,-3.75 0,-2.07 0,0" /></g><g
       transform="translate(124.693,48.037)"
       id="g200"><path
         id="path202"
         style="fill:#ffffff;fill-opacity:1;fill-rule:nonzero;stroke:none"
         d="M 0,0 C 0,2.071 -1.68,3.75 -3.75,3.75 -5.819,3.75 -7.5,2.071 -7.5,0 c 0,-2.069 1.681,-3.75 3.75,-3.75 C -1.68,-3.75 0,-2.069 0,0" /></g><g
       transform="translate(124.693,48.037)"
       id="g204"><path
         id="path206"
         style="fill:none;stroke:#231f20;stroke-width:0.75;stroke-linecap:square;stroke-linejoin:miter;stroke-miterlimit:10;stroke-dasharray:none;stroke-opacity:1"
         d="M 0,0 C 0,2.071 -1.68,3.75 -3.75,3.75 -5.819,3.75 -7.5,2.071 -7.5,0 c 0,-2.069 1.681,-3.75 3.75,-3.75 C -1.68,-3.75 0,-2.069 0,0" /></g><text
       id="text210"
       style="font-variant:normal;font-weight:normal;font-stretch:normal;font-size:9px;font-family:Times;-inkscape-font-specification:Times-Roman;writing-mode:lr-tb;fill:#231f20;fill-opacity:1;fill-rule:nonzero;stroke:none"
       transform="matrix(1,0,0,-1,220.9428,28.3409)"><tspan
         id="tspan208"
         y="0"
         x="0 4.5 8.4960003 15.498 19.493999">name</tspan></text>
<path
       id="path212"
       style="fill:#ffffff;fill-opacity:1;fill-rule:nonzero;stroke:none"
       d="m 123.819,233.561 h 89.999 v 15.375 h -89.999 z" /><g
       transform="translate(123.819,248.936)"
       id="g214"><path
         id="path216"
         style="fill:none;stroke:#231f20;stroke-width:0.75;stroke-linecap:square;stroke-linejoin:miter;stroke-miterlimit:10;stroke-dasharray:none;stroke-opacity:1"
         d="M 89.999,0 H 0 v -15.375 h 89.999 z" /><g
         id="g218"><path
           id="path220"
           style="fill:none;stroke:#231f20;stroke-width:0.75;stroke-linecap:square;stroke-linejoin:miter;stroke-miterlimit:10;stroke-dasharray:none;stroke-opacity:1"
           d="M 0,0 Z" /></g></g><text
       id="text224"
       style="font-variant:normal;font-weight:normal;font-stretch:normal;font-size:9px;font-family:Times;-inkscape-font-specification:Times-Roman;writing-mode:lr-tb;fill:#231f20;fill-opacity:1;fill-rule:nonzero;stroke:none"
       transform="matrix(1,0,0,-1,131.0551,238.5801)"><tspan
         id="tspan222"
         y="0"
         x="0 7.0019999 10.998 14.994 18.495001 22.995001 25.992001 29.988001 34.487999 40.986 43.487999 45.990002 50.490002 54.990002 59.490002 63.990002 66.491997 68.994003">measure_with_unit</tspan></text>
<path
       id="path226"
       style="fill:#ffffff;fill-opacity:1;fill-rule:nonzero;stroke:none"
       d="m 74.694,5.2598 h 138.749 v 39 H 74.694 Z" /><g
       transform="translate(74.694,44.26)"
       id="g228"><path
         id="path230"
         style="fill:none;stroke:#231f20;stroke-width:0.75;stroke-linecap:square;stroke-linejoin:miter;stroke-miterlimit:10;stroke-dasharray:none;stroke-opacity:1"
         d="M 138.749,0 H 0 v -39 h 138.749 z" /><g
         id="g232"><path
           id="path234"
           style="fill:none;stroke:#231f20;stroke-width:0.75;stroke-linecap:square;stroke-linejoin:miter;stroke-miterlimit:10;stroke-dasharray:none;stroke-opacity:1"
           d="M 0,0 Z" /></g></g><text
       id="text238"
       style="font-variant:normal;font-weight:normal;font-stretch:normal;font-size:9px;font-family:Times;-inkscape-font-specification:Times-Roman;writing-mode:lr-tb;fill:#231f20;fill-opacity:1;fill-rule:nonzero;stroke:none"
       transform="matrix(1,0,0,-1,81.7929,22.4922)"><tspan
         id="tspan236"
         y="0"
         x="0 4.5 9 12.996 16.992001 19.989 22.490999 26.487 28.989 33.488998 35.991001 40.491001 44.991001 51.993 55.988998 59.985001 63.486 67.986 70.983002 74.978996 79.478996 85.976997 88.478996 90.981003 95.481003 99.981003 104.481 108.981 111.483 113.985">uncertainty_measure_with_unit</tspan></text>
<path
       id="path240"
       style="fill:#ffffff;fill-opacity:1;fill-rule:nonzero;stroke:none"
       d="m 20.125,186.912 h 113.5 v 15.375 h -113.5 z" /><g
       transform="translate(20.125,202.287)"
       id="g242"><path
         id="path244"
         style="fill:none;stroke:#231f20;stroke-width:0.75;stroke-linecap:square;stroke-linejoin:miter;stroke-miterlimit:10;stroke-dasharray:none;stroke-opacity:1"
         d="M 113.5,0 H 0 v -15.375 h 113.5 z" /><g
         id="g246"><path
           id="path248"
           style="fill:none;stroke:#231f20;stroke-width:0.75;stroke-linecap:square;stroke-linejoin:miter;stroke-miterlimit:10;stroke-dasharray:none;stroke-opacity:1"
           d="M 0,0 Z" /></g></g><text
       id="text252"
       style="font-variant:normal;font-weight:normal;font-stretch:normal;font-size:9px;font-family:Times;-inkscape-font-specification:Times-Roman;writing-mode:lr-tb;fill:#231f20;fill-opacity:1;fill-rule:nonzero;stroke:none"
       transform="matrix(1,0,0,-1,30.851,192.3584)"><tspan
         id="tspan250"
         y="0"
         x="0 2.5020001 6.4980001 10.998 15.498 18 22.5 27 34.001999 37.998001 41.993999 45.494999 49.994999 52.992001 56.987999 61.487999 67.986 70.487999 72.989998 77.489998 81.989998 86.489998 90.989998 93.491997 95.994003">length_measure_with_unit</tspan></text>
<path
       id="path254"
       style="fill:#ffffff;fill-opacity:1;fill-rule:nonzero;stroke:none"
       d="m 30.903,167.545 h 102.75 V 182.92 H 30.903 Z" /><g
       transform="translate(30.903,182.92)"
       id="g256"><path
         id="path258"
         style="fill:none;stroke:#231f20;stroke-width:0.75;stroke-linecap:square;stroke-linejoin:miter;stroke-miterlimit:10;stroke-dasharray:none;stroke-opacity:1"
         d="M 102.75,0 H 0 v -15.375 h 102.75 z" /><g
         id="g260"><path
           id="path262"
           style="fill:none;stroke:#231f20;stroke-width:0.75;stroke-linecap:square;stroke-linejoin:miter;stroke-miterlimit:10;stroke-dasharray:none;stroke-opacity:1"
           d="M 0,0 Z" /></g></g><text
       id="text266"
       style="font-variant:normal;font-weight:normal;font-stretch:normal;font-size:9px;font-family:Times;-inkscape-font-specification:Times-Roman;writing-mode:lr-tb;fill:#231f20;fill-opacity:1;fill-rule:nonzero;stroke:none"
       transform="matrix(1,0,0,-1,35.2617,172.564)"><tspan
         id="tspan264"
         y="0"
         x="0 7.0019999 10.998 14.499 18 22.5 29.502001 33.498001 37.493999 40.994999 45.494999 48.492001 52.487999 56.987999 63.486 65.987999 68.489998 72.989998 77.489998 81.989998 86.489998 88.991997 91.494003">mass_measure_with_unit</tspan></text>
<path
       id="path268"
       style="fill:#ffffff;fill-opacity:1;fill-rule:nonzero;stroke:none"
       d="m 0.375,83.6 h 133.25 V 98.975 H 0.375 Z" /><g
       transform="translate(0.375,98.975)"
       id="g270"><path
         id="path272"
         style="fill:none;stroke:#231f20;stroke-width:0.75;stroke-linecap:square;stroke-linejoin:miter;stroke-miterlimit:10;stroke-dasharray:none;stroke-opacity:1"
         d="M 133.25,0 H 0 v -15.375 h 133.25 z" /><g
         id="g274"><path
           id="path276"
           style="fill:none;stroke:#231f20;stroke-width:0.75;stroke-linecap:square;stroke-linejoin:miter;stroke-miterlimit:10;stroke-dasharray:none;stroke-opacity:1"
           d="M 0,0 Z" /></g></g><text
       id="text280"
       style="font-variant:normal;font-weight:normal;font-stretch:normal;font-size:9px;font-family:Times;-inkscape-font-specification:Times-Roman;writing-mode:lr-tb;fill:#231f20;fill-opacity:1;fill-rule:nonzero;stroke:none"
       transform="matrix(1,0,0,-1,7.7182,89.0469)"><tspan
         id="tspan278"
         y="0"
         x="0 4.5 7.0019999 10.998 15.498 19.493999 23.993999 27.99 32.490002 36.990002 39.492001 43.487999 47.987999 54.990002 58.986 62.981998 66.483002 70.983002 73.980003 77.975998 82.475998 88.973999 91.475998 93.977997 98.477997 102.978 107.478 111.978 114.48 116.982">plane_angle_measure_with_unit</tspan></text>
<path
       id="path282"
       style="fill:#ffffff;fill-opacity:1;fill-rule:nonzero;stroke:none"
       d="m 21.875,146.975 h 111.75 V 162.35 H 21.875 Z" /><g
       transform="translate(21.875,162.35)"
       id="g284"><path
         id="path286"
         style="fill:none;stroke:#231f20;stroke-width:0.75;stroke-linecap:square;stroke-linejoin:miter;stroke-miterlimit:10;stroke-dasharray:none;stroke-opacity:1"
         d="M 111.75,0 H 0 v -15.375 h 111.75 z" /><g
         id="g288"><path
           id="path290"
           style="fill:none;stroke:#231f20;stroke-width:0.75;stroke-linecap:square;stroke-linejoin:miter;stroke-miterlimit:10;stroke-dasharray:none;stroke-opacity:1"
           d="M 0,0 Z" /></g></g><text
       id="text294"
       style="font-variant:normal;font-weight:normal;font-stretch:normal;font-size:9px;font-family:Times;-inkscape-font-specification:Times-Roman;writing-mode:lr-tb;fill:#231f20;fill-opacity:1;fill-rule:nonzero;stroke:none"
       transform="matrix(1,0,0,-1,35.7309,151.9937)"><tspan
         id="tspan292"
         y="0"
         x="0 2.997 6.993 9.4949999 11.997 16.497 20.997 27.999001 31.995001 35.991001 39.492001 43.992001 46.988998 50.985001 55.485001 61.983002 64.485001 66.987 71.487 75.987 80.487 84.987 87.488998 89.990997">ratio_measure_with_unit</tspan></text>
<path
       id="path296"
       style="fill:#ffffff;fill-opacity:1;fill-rule:nonzero;stroke:none"
       d="m 3.625,128.037 h 129.25 v 15.375 H 3.625 Z" /><g
       transform="translate(3.625,143.412)"
       id="g298"><path
         id="path300"
         style="fill:none;stroke:#231f20;stroke-width:0.75;stroke-linecap:square;stroke-linejoin:miter;stroke-miterlimit:10;stroke-dasharray:none;stroke-opacity:1"
         d="M 129.25,0 H 0 v -15.375 h 129.25 z" /><g
         id="g302"><path
           id="path304"
           style="fill:none;stroke:#231f20;stroke-width:0.75;stroke-linecap:square;stroke-linejoin:miter;stroke-miterlimit:10;stroke-dasharray:none;stroke-opacity:1"
           d="M 0,0 Z" /></g></g><text
       id="text308"
       style="font-variant:normal;font-weight:normal;font-stretch:normal;font-size:9px;font-family:Times;-inkscape-font-specification:Times-Roman;writing-mode:lr-tb;fill:#231f20;fill-opacity:1;fill-rule:nonzero;stroke:none"
       transform="matrix(1,0,0,-1,10.2231,133.4844)"><tspan
         id="tspan306"
         y="0"
         x="0 3.5009999 8.0010004 10.503 13.005 17.504999 22.004999 26.000999 30.500999 35.000999 37.502998 41.499001 45.999001 53.000999 56.997002 60.993 64.494003 68.994003 71.990997 75.987 80.487 86.985001 89.487 91.988998 96.488998 100.989 105.489 109.989 112.491 114.993">solid_angle_measure_with_unit</tspan></text>
<path
       id="path310"
       style="fill:#ffffff;fill-opacity:1;fill-rule:nonzero;stroke:none"
       d="m 28.125,105.35 h 104.75 v 15.375 H 28.125 Z" /><g
       transform="translate(28.125,120.725)"
       id="g312"><path
         id="path314"
         style="fill:none;stroke:#231f20;stroke-width:0.75;stroke-linecap:square;stroke-linejoin:miter;stroke-miterlimit:10;stroke-dasharray:none;stroke-opacity:1"
         d="M 104.75,0 H 0 v -15.375 h 104.75 z" /><g
         id="g316"><path
           id="path318"
           style="fill:none;stroke:#231f20;stroke-width:0.75;stroke-linecap:square;stroke-linejoin:miter;stroke-miterlimit:10;stroke-dasharray:none;stroke-opacity:1"
           d="M 0,0 Z" /></g></g><text
       id="text322"
       style="font-variant:normal;font-weight:normal;font-stretch:normal;font-size:9px;font-family:Times;-inkscape-font-specification:Times-Roman;writing-mode:lr-tb;fill:#231f20;fill-opacity:1;fill-rule:nonzero;stroke:none"
       transform="matrix(1,0,0,-1,35.2339,110.3692)"><tspan
         id="tspan320"
         y="0"
         x="0 2.5020001 5.0040002 12.006 16.002001 20.502001 27.504 31.5 35.495998 38.997002 43.497002 46.493999 50.490002 54.990002 61.487999 63.990002 66.491997 70.991997 75.491997 79.991997 84.491997 86.994003 89.496002">time_measure_with_unit</tspan></text>
<path
       id="path324"
       style="fill:#ffffff;fill-opacity:1;fill-rule:nonzero;stroke:none"
       d="m 185.693,120.123 h 38.25 v 39.001 h -38.25 z" /><path
       id="path326"
       style="fill:none;stroke:#231f20;stroke-width:0.75;stroke-linecap:square;stroke-linejoin:miter;stroke-miterlimit:10;stroke-dasharray:3.75, 3.75;stroke-dashoffset:0;stroke-opacity:1"
       d="m 185.693,159.124 v -39.001 h 38.25 v 39.001 z m 7.5,-39.001 v 39.001" /><text
       id="text330"
       style="font-variant:normal;font-weight:normal;font-stretch:normal;font-size:9px;font-family:Times;-inkscape-font-specification:Times-Roman;writing-mode:lr-tb;fill:#231f20;fill-opacity:1;fill-rule:nonzero;stroke:none"
       transform="matrix(1,0,0,-1,201.3139,136.46)"><tspan
         id="tspan328"
         y="0"
         x="0 4.5 9 11.502 14.004">unit</tspan></text>
<g
       transform="translate(222.433,162.878)"
       id="g332"><path
         id="path334"
         style="fill:#ffffff;fill-opacity:1;fill-rule:nonzero;stroke:none"
         d="M 0,0 C 0,2.07 -1.68,3.75 -3.75,3.75 -5.82,3.75 -7.5,2.07 -7.5,0 c 0,-2.07 1.68,-3.75 3.75,-3.75 C -1.68,-3.75 0,-2.07 0,0" /></g><g
       transform="translate(222.433,162.878)"
       id="g336"><path
         id="path338"
         style="fill:none;stroke:#231f20;stroke-width:0.75;stroke-linecap:square;stroke-linejoin:miter;stroke-miterlimit:10;stroke-dasharray:none;stroke-opacity:1"
         d="M 0,0 C 0,2.07 -1.68,3.75 -3.75,3.75 -5.82,3.75 -7.5,2.07 -7.5,0 c 0,-2.07 1.68,-3.75 3.75,-3.75 C -1.68,-3.75 0,-2.07 0,0" /></g><g
       transform="translate(202.904,162.878)"
       id="g340"><path
         id="path342"
         style="fill:#ffffff;fill-opacity:1;fill-rule:nonzero;stroke:none"
         d="M 0,0 C 0,2.07 -1.681,3.75 -3.75,3.75 -5.821,3.75 -7.5,2.07 -7.5,0 c 0,-2.07 1.679,-3.75 3.75,-3.75 C -1.681,-3.75 0,-2.07 0,0" /></g><g
       transform="translate(202.904,162.878)"
       id="g344"><path
         id="path346"
         style="fill:none;stroke:#231f20;stroke-width:0.75;stroke-linecap:square;stroke-linejoin:miter;stroke-miterlimit:10;stroke-dasharray:none;stroke-opacity:1"
         d="M 0,0 C 0,2.07 -1.681,3.75 -3.75,3.75 -5.821,3.75 -7.5,2.07 -7.5,0 c 0,-2.07 1.679,-3.75 3.75,-3.75 C -1.681,-3.75 0,-2.07 0,0" /></g><text
       id="text352"
       style="font-variant:normal;font-weight:normal;font-stretch:normal;font-size:9px;font-family:Times;-inkscape-font-specification:Times-Roman;writing-mode:lr-tb;fill:#231f20;fill-opacity:1;fill-rule:nonzero;stroke:none"
       transform="matrix(1,0,0,-1,203.6264,205.4937)"><tspan
         id="tspan348"
         y="0"
         x="0 4.5 9 11.502 14.004 18.504">unit_</tspan><tspan
         id="tspan350"
         y="10.9998"
         x="0 3.9960001 8.4960003 15.498 19.997999 24.497999 28.997999 32.993999 37.493999 39.995998">component</tspan></text>
<path
       id="path354"
       style="fill:#ffffff;fill-opacity:1;fill-rule:nonzero;stroke:none"
       d="m 249.443,143.748 h 96.75 v 15.376 h -96.75 z" /><g
       transform="translate(257.13,159.124)"
       id="g356"><path
         id="path358"
         style="fill:none;stroke:#231f20;stroke-width:0.75;stroke-linecap:square;stroke-linejoin:miter;stroke-miterlimit:10;stroke-dasharray:none;stroke-opacity:1"
         d="m 0,0 h 81.375 c 4.244,0 7.688,-3.444 7.688,-7.687 0,-4.244 -3.444,-7.689 -7.688,-7.689 H 0 c -4.243,0 -7.688,3.445 -7.688,7.689 C -7.688,-3.444 -4.243,0 0,0 Z" /></g><text
       id="text362"
       style="font-variant:normal;font-weight:normal;font-stretch:normal;font-size:9px;font-family:Times;-inkscape-font-specification:Times-Roman;writing-mode:lr-tb;fill:#231f20;fill-opacity:1;fill-rule:nonzero;stroke:none"
       transform="matrix(1,0,0,-1,256.7925,148.8663)"><tspan
         id="tspan360"
         y="0"
         x="0 4.5 9 11.25 13.5 18 22.5 27 29.25 31.5 36 39.995998 46.998001 50.993999 55.493999 59.993999 64.494003 68.994003 71.496002 73.998001">50, 159, named_unit</tspan></text>
<path
       id="path364"
       style="fill:#ffffff;fill-opacity:1;fill-rule:nonzero;stroke:none"
       d="m 246.443,120.123 h 99.75 v 15.375 h -99.75 z" /><g
       transform="translate(254.13,135.498)"
       id="g366"><path
         id="path368"
         style="fill:none;stroke:#231f20;stroke-width:0.75;stroke-linecap:square;stroke-linejoin:miter;stroke-miterlimit:10;stroke-dasharray:none;stroke-opacity:1"
         d="m 0,0 h 84.375 c 4.244,0 7.688,-3.443 7.688,-7.687 0,-4.244 -3.444,-7.688 -7.688,-7.688 H 0 c -4.243,0 -7.687,3.444 -7.687,7.688 C -7.687,-3.443 -4.243,0 0,0 Z" /></g><text
       id="text372"
       style="font-variant:normal;font-weight:normal;font-stretch:normal;font-size:9px;font-family:Times;-inkscape-font-specification:Times-Roman;writing-mode:lr-tb;fill:#231f20;fill-opacity:1;fill-rule:nonzero;stroke:none"
       transform="matrix(1,0,0,-1,254.2925,125.2413)"><tspan
         id="tspan370"
         y="0"
         x="0 4.5 9 11.25 13.5 18 22.5 27 29.25 31.5 36 39.995998 42.993 45.27 49.634998 53.631001 58.131001 62.631001 67.130997 71.630997 74.133003 76.635002">50, 161, derived_unit</tspan></text>
<path
       id="path374"
       style="fill:#ffffff;fill-opacity:1;fill-rule:nonzero;stroke:none"
       d="m 265.043,233.417 h 104.25 v 18.75 h -104.25 z" /><g
       transform="translate(274.418,252.166)"
       id="g376"><path
         id="path378"
         style="fill:none;stroke:#231f20;stroke-width:0.75;stroke-linecap:square;stroke-linejoin:miter;stroke-miterlimit:10;stroke-dasharray:none;stroke-opacity:1"
         d="m 0,0 h 85.5 c 5.175,0 9.375,-4.2 9.375,-9.375 0,-5.175 -4.2,-9.375 -9.375,-9.375 H 0 c -5.175,0 -9.375,4.2 -9.375,9.375 C -9.375,-4.2 -5.175,0 0,0 Z" /></g><text
       id="text386"
       style="font-variant:normal;font-weight:normal;font-stretch:normal;font-size:9px;font-family:Times;-inkscape-font-specification:Times-Roman;writing-mode:lr-tb;fill:#231f20;fill-opacity:1;fill-rule:nonzero;stroke:none"
       transform="matrix(1,0,0,-1,268.8921,240.2217)"><tspan
         id="tspan380"
         y="0"
         x="0 4.5 9 11.25 13.5 18 22.5 27 29.25 31.5 38.501999 42.498001 46.493999 49.994999 54.494999 57.492001 61.487999 65.987999 70.263 74.259003 76.761002 81.261002 85.257004">48, 179, measure_value</tspan><tspan
         id="tspan382"
         y="6.2901001"
         x="-50.2416 -45.966599 -41.9706 -39.468601 -34.968601 -30.972601 -26.472601">value_</tspan><tspan
         id="tspan384"
         y="17.2899"
         x="-50.2416 -46.245602 -41.745602 -34.743599 -30.243601 -25.743601 -21.243601 -17.247601 -12.7476 -10.2456">component</tspan></text>
<g
       transform="translate(141.163,194.738)"
       id="g388"><path
         id="path390"
         style="fill:#ffffff;fill-opacity:1;fill-rule:nonzero;stroke:none"
         d="M 0,0 C 0,2.07 -1.68,3.75 -3.75,3.75 -5.82,3.75 -7.5,2.07 -7.5,0 c 0,-2.07 1.68,-3.75 3.75,-3.75 C -1.68,-3.75 0,-2.07 0,0" /></g><g
       transform="translate(141.163,194.738)"
       id="g392"><path
         id="path394"
         style="fill:none;stroke:#231f20;stroke-width:0.75;stroke-linecap:square;stroke-linejoin:miter;stroke-miterlimit:10;stroke-dasharray:none;stroke-opacity:1"
         d="M 0,0 C 0,2.07 -1.68,3.75 -3.75,3.75 -5.82,3.75 -7.5,2.07 -7.5,0 c 0,-2.07 1.68,-3.75 3.75,-3.75 C -1.68,-3.75 0,-2.07 0,0" /></g><g
       transform="translate(141.163,177.188)"
       id="g396"><path
         id="path398"
         style="fill:#ffffff;fill-opacity:1;fill-rule:nonzero;stroke:none"
         d="M 0,0 C 0,2.07 -1.68,3.75 -3.75,3.75 -5.82,3.75 -7.5,2.07 -7.5,0 c 0,-2.07 1.68,-3.751 3.75,-3.751 C -1.68,-3.751 0,-2.07 0,0" /></g><g
       transform="translate(141.163,177.188)"
       id="g400"><path
         id="path402"
         style="fill:none;stroke:#231f20;stroke-width:0.75;stroke-linecap:square;stroke-linejoin:miter;stroke-miterlimit:10;stroke-dasharray:none;stroke-opacity:1"
         d="M 0,0 C 0,2.07 -1.68,3.75 -3.75,3.75 -5.82,3.75 -7.5,2.07 -7.5,0 c 0,-2.07 1.68,-3.751 3.75,-3.751 C -1.68,-3.751 0,-2.07 0,0" /></g><g
       transform="translate(140.353,113.018)"
       id="g404"><path
         id="path406"
         style="fill:#ffffff;fill-opacity:1;fill-rule:nonzero;stroke:none"
         d="M 0,0 C 0,2.07 -1.68,3.75 -3.75,3.75 -5.82,3.75 -7.5,2.07 -7.5,0 c 0,-2.069 1.68,-3.75 3.75,-3.75 C -1.68,-3.75 0,-2.069 0,0" /></g><g
       transform="translate(140.353,113.018)"
       id="g408"><path
         id="path410"
         style="fill:none;stroke:#231f20;stroke-width:0.75;stroke-linecap:square;stroke-linejoin:miter;stroke-miterlimit:10;stroke-dasharray:none;stroke-opacity:1"
         d="M 0,0 C 0,2.07 -1.68,3.75 -3.75,3.75 -5.82,3.75 -7.5,2.07 -7.5,0 c 0,-2.069 1.68,-3.75 3.75,-3.75 C -1.68,-3.75 0,-2.069 0,0" /></g><g
       transform="translate(141.163,91.238)"
       id="g412"><path
         id="path414"
         style="fill:#ffffff;fill-opacity:1;fill-rule:nonzero;stroke:none"
         d="M 0,0 C 0,2.069 -1.68,3.75 -3.75,3.75 -5.82,3.75 -7.5,2.069 -7.5,0 c 0,-2.07 1.68,-3.75 3.75,-3.75 C -1.68,-3.75 0,-2.07 0,0" /></g><g
       transform="translate(141.163,91.238)"
       id="g416"><path
         id="path418"
         style="fill:none;stroke:#231f20;stroke-width:0.75;stroke-linecap:square;stroke-linejoin:miter;stroke-miterlimit:10;stroke-dasharray:none;stroke-opacity:1"
         d="M 0,0 C 0,2.069 -1.68,3.75 -3.75,3.75 -5.82,3.75 -7.5,2.069 -7.5,0 c 0,-2.07 1.68,-3.75 3.75,-3.75 C -1.68,-3.75 0,-2.07 0,0" /></g><g
       transform="translate(140.353,134.798)"
       id="g420"><path
         id="path422"
         style="fill:#ffffff;fill-opacity:1;fill-rule:nonzero;stroke:none"
         d="M 0,0 C 0,2.07 -1.68,3.75 -3.75,3.75 -5.82,3.75 -7.5,2.07 -7.5,0 c 0,-2.069 1.68,-3.75 3.75,-3.75 C -1.68,-3.75 0,-2.069 0,0" /></g><g
       transform="translate(140.353,134.798)"
       id="g424"><path
         id="path426"
         style="fill:none;stroke:#231f20;stroke-width:0.75;stroke-linecap:square;stroke-linejoin:miter;stroke-miterlimit:10;stroke-dasharray:none;stroke-opacity:1"
         d="M 0,0 C 0,2.07 -1.68,3.75 -3.75,3.75 -5.82,3.75 -7.5,2.07 -7.5,0 c 0,-2.069 1.68,-3.75 3.75,-3.75 C -1.68,-3.75 0,-2.069 0,0" /></g><g
       transform="translate(141.163,154.238)"
       id="g428"><path
         id="path430"
         style="fill:#ffffff;fill-opacity:1;fill-rule:nonzero;stroke:none"
         d="M 0,0 C 0,2.07 -1.68,3.75 -3.75,3.75 -5.82,3.75 -7.5,2.07 -7.5,0 c 0,-2.07 1.68,-3.75 3.75,-3.75 C -1.68,-3.75 0,-2.07 0,0" /></g><g
       transform="translate(141.163,154.238)"
       id="g432"><path
         id="path434"
         style="fill:none;stroke:#231f20;stroke-width:0.75;stroke-linecap:square;stroke-linejoin:miter;stroke-miterlimit:10;stroke-dasharray:none;stroke-opacity:1"
         d="M 0,0 C 0,2.07 -1.68,3.75 -3.75,3.75 -5.82,3.75 -7.5,2.07 -7.5,0 c 0,-2.07 1.68,-3.75 3.75,-3.75 C -1.68,-3.75 0,-2.07 0,0" /></g><text
       id="text438"
       style="font-variant:normal;font-weight:normal;font-stretch:normal;font-size:9px;font-family:Times;-inkscape-font-specification:Times-Roman;writing-mode:lr-tb;fill:#231f20;fill-opacity:1;fill-rule:nonzero;stroke:none"
       transform="matrix(1,0,0,-1,290.603,275.4351)"><tspan
         id="tspan436"
         y="0"
         x="0"></tspan></text>
</g></svg>