<?xml version="1.0" encoding="UTF-8" standalone="no"?>
<svg
   xmlns:dc="http://purl.org/dc/elements/1.1/"
   xmlns:cc="http://creativecommons.org/ns#"
   xmlns:rdf="http://www.w3.org/1999/02/22-rdf-syntax-ns#"
   xmlns:svg="http://www.w3.org/2000/svg"
   xmlns="http://www.w3.org/2000/svg"
   viewBox="0 0 470.48666 676.16669"
   height="676.16669"
   width="470.48666"
   xml:space="preserve"
   id="svg2"
   version="1.1"><metadata
     id="metadata8"><rdf:RDF><cc:Work
         rdf:about=""><dc:format>image/svg+xml</dc:format><dc:type
           rdf:resource="http://purl.org/dc/dcmitype/StillImage" /></cc:Work></rdf:RDF></metadata><defs
     id="defs6" /><g
     transform="matrix(1.3333333,0,0,-1.3333333,0,676.16667)"
     id="g10"><g
       transform="translate(35.326,350.938)"
       id="g12"><path
         id="path14"
         style="fill:none;stroke:#231f20;stroke-width:2.25;stroke-linecap:square;stroke-linejoin:miter;stroke-miterlimit:10;stroke-dasharray:none;stroke-opacity:1"
         d="M 0,0 0.734,-171" /></g><g
       transform="translate(241.074,499.063)"
       id="g16"><path
         id="path18"
         style="fill:none;stroke:#231f20;stroke-width:0.75;stroke-linecap:square;stroke-linejoin:miter;stroke-miterlimit:10;stroke-dasharray:none;stroke-opacity:1"
         d="M 0,0 H -138" /><g
         transform="translate(3,-23.625)"
         id="g20"><path
           id="path22"
           style="fill:none;stroke:#231f20;stroke-width:0.75;stroke-linecap:square;stroke-linejoin:miter;stroke-miterlimit:10;stroke-dasharray:none;stroke-opacity:1"
           d="M 0,0 H -141" /><g
           transform="translate(-94.5,-53.812)"
           id="g24"><path
             id="path26"
             style="fill:none;stroke:#231f20;stroke-width:0.75;stroke-linecap:square;stroke-linejoin:miter;stroke-miterlimit:10;stroke-dasharray:none;stroke-opacity:1"
             d="M 0,0 H 43.5" /><g
             transform="translate(59.544,30.188)"
             id="g28"><path
               id="path30"
               style="fill:none;stroke:#231f20;stroke-width:0.75;stroke-linecap:square;stroke-linejoin:miter;stroke-miterlimit:10;stroke-dasharray:none;stroke-opacity:1"
               d="M 0,0 H -106.044" /><g
               transform="translate(-156.608,-315.063)"
               id="g32"><path
                 id="path34"
                 style="fill:none;stroke:#231f20;stroke-width:0.75;stroke-linecap:square;stroke-linejoin:miter;stroke-miterlimit:10;stroke-dasharray:none;stroke-opacity:1"
                 d="M 0,0 V 20.313" /><g
                 transform="translate(22.818,117.794)"
                 id="g36"><path
                   id="path38"
                   style="fill:none;stroke:#231f20;stroke-width:0.75;stroke-linecap:square;stroke-linejoin:miter;stroke-miterlimit:10;stroke-dasharray:none;stroke-opacity:1"
                   d="M 0,0 -0.251,24.817" /><g
                   transform="translate(133.791,197.269)"
                   id="g40"><path
                     id="path42"
                     style="fill:none;stroke:#231f20;stroke-width:0.75;stroke-linecap:square;stroke-linejoin:miter;stroke-miterlimit:10;stroke-dasharray:none;stroke-opacity:1"
                     d="M 0,0 V -15" /><g
                     transform="translate(-49.368,-351.25)"
                     id="g44"><path
                       id="path46"
                       style="fill:none;stroke:#231f20;stroke-width:0.75;stroke-linecap:square;stroke-linejoin:miter;stroke-miterlimit:10;stroke-dasharray:none;stroke-opacity:1"
                       d="M 0,0 H -30.375" /><g
                       transform="translate(30.376)"
                       id="g48"><path
                         id="path50"
                         style="fill:none;stroke:#231f20;stroke-width:0.75;stroke-linecap:square;stroke-linejoin:miter;stroke-miterlimit:10;stroke-dasharray:none;stroke-opacity:1"
                         d="M 0,0 H -30.376 V 0" /><g
                         transform="translate(-60.751,-23.625)"
                         id="g52"><path
                           id="path54"
                           style="fill:none;stroke:#231f20;stroke-width:0.75;stroke-linecap:square;stroke-linejoin:miter;stroke-miterlimit:10;stroke-dasharray:none;stroke-opacity:1"
                           d="M 0,0 H 22.5" /><g
                           transform="translate(0,-23.625)"
                           id="g56"><path
                             id="path58"
                             style="fill:none;stroke:#231f20;stroke-width:0.75;stroke-linecap:square;stroke-linejoin:miter;stroke-miterlimit:10;stroke-dasharray:none;stroke-opacity:1"
                             d="M 0,0 H 65.251" /><g
                             transform="translate(34.875,-23.625)"
                             id="g60"><path
                               id="path62"
                               style="fill:none;stroke:#231f20;stroke-width:0.75;stroke-linecap:square;stroke-linejoin:miter;stroke-miterlimit:10;stroke-dasharray:none;stroke-opacity:1"
                               d="M 0,0 H -34.875" /><g
                               transform="translate(34.876)"
                               id="g64"><path
                                 id="path66"
                                 style="fill:none;stroke:#231f20;stroke-width:0.75;stroke-linecap:square;stroke-linejoin:miter;stroke-miterlimit:10;stroke-dasharray:none;stroke-opacity:1"
                                 d="M 0,0 H -34.876 V 0" /><g
                                 transform="translate(-69.751,-21.625)"
                                 id="g68"><path
                                   id="path70"
                                   style="fill:none;stroke:#231f20;stroke-width:0.75;stroke-linecap:square;stroke-linejoin:miter;stroke-miterlimit:10;stroke-dasharray:none;stroke-opacity:1"
                                   d="M 0,0 H 33" /><g
                                   transform="translate(-68.993,335.375)"
                                   id="g72"><path
                                   id="path74"
                                   style="fill:none;stroke:#231f20;stroke-width:0.75;stroke-linecap:square;stroke-linejoin:miter;stroke-miterlimit:10;stroke-dasharray:none;stroke-opacity:1"
                                   d="M 0,0 0.443,-96.394" /><g
                                   transform="translate(56.411,-104.082)"
                                   id="g76"><path
                                   id="path78"
                                   style="fill:none;stroke:#231f20;stroke-width:0.75;stroke-linecap:square;stroke-linejoin:miter;stroke-miterlimit:10;stroke-dasharray:none;stroke-opacity:1"
                                   d="M 0,0 H 22.5" /><g
                                   transform="translate(0,-23.625)"
                                   id="g80"><path
                                   id="path82"
                                   style="fill:none;stroke:#231f20;stroke-width:0.75;stroke-linecap:square;stroke-linejoin:miter;stroke-miterlimit:10;stroke-dasharray:none;stroke-opacity:1"
                                   d="M 0,0 H 48.75" /><g
                                   transform="translate(0,-23.625)"
                                   id="g84"><path
                                   id="path86"
                                   style="fill:none;stroke:#231f20;stroke-width:0.75;stroke-linecap:square;stroke-linejoin:miter;stroke-miterlimit:10;stroke-dasharray:none;stroke-opacity:1"
                                   d="M 0,0 H 23.25" /><g
                                   transform="translate(-23.718,112.004)"
                                   id="g88"><path
                                   id="path90"
                                   style="fill:none;stroke:#231f20;stroke-width:0.75;stroke-linecap:square;stroke-linejoin:miter;stroke-miterlimit:10;stroke-dasharray:none;stroke-opacity:1"
                                   d="M 0,0 V 13.683" /><g
                                   transform="translate(61.415,13.683)"
                                   id="g92"><path
                                   id="path94"
                                   style="fill:none;stroke:#231f20;stroke-width:0.75;stroke-linecap:square;stroke-linejoin:miter;stroke-miterlimit:10;stroke-dasharray:none;stroke-opacity:1"
                                   d="M 0,0 H -61.415" /><g
                                   transform="translate(29.335,-34.496)"
                                   id="g96"><path
                                   id="path98"
                                   style="fill:none;stroke:#231f20;stroke-width:0.75;stroke-linecap:square;stroke-linejoin:miter;stroke-miterlimit:10;stroke-dasharray:none;stroke-opacity:1"
                                   d="M 0,0 V -17.801" /><g
                                   transform="translate(11.164,-17.801)"
                                   id="g100"><path
                                   id="path102"
                                   style="fill:none;stroke:#231f20;stroke-width:0.75;stroke-linecap:square;stroke-linejoin:miter;stroke-miterlimit:10;stroke-dasharray:none;stroke-opacity:1"
                                   d="M 0,0 H -11.164" /><g
                                   transform="translate(-17.291,90.319)"
                                   id="g104"><path
                                   id="path106"
                                   style="fill:none;stroke:#231f20;stroke-width:0.75;stroke-linecap:square;stroke-linejoin:miter;stroke-miterlimit:10;stroke-dasharray:none;stroke-opacity:1"
                                   d="M 0,0 H 28.627" /><g
                                   transform="translate(28.627,-18.518)"
                                   id="g108"><path
                                   id="path110"
                                   style="fill:none;stroke:#231f20;stroke-width:0.75;stroke-linecap:square;stroke-linejoin:miter;stroke-miterlimit:10;stroke-dasharray:none;stroke-opacity:1"
                                   d="M 0,0 V 18.518" /><g
                                   transform="translate(11.914,-15.187)"
                                   id="g112"><path
                                   id="path114"
                                   style="fill:none;stroke:#231f20;stroke-width:0.75;stroke-linecap:square;stroke-linejoin:miter;stroke-miterlimit:10;stroke-dasharray:none;stroke-opacity:1"
                                   d="M 0,0 H 55.5" /></g></g></g></g></g></g></g></g></g></g></g></g></g></g></g></g></g></g></g></g></g></g></g></g></g><path
       id="path116"
       style="fill:none;stroke:#231f20;stroke-width:0.75;stroke-linecap:square;stroke-linejoin:miter;stroke-miterlimit:10;stroke-dasharray:3.75, 3.75;stroke-dashoffset:0;stroke-opacity:1"
       d="m 218.24,298.486 h 60.75" /><g
       transform="translate(46.848,436.625)"
       id="g118"><path
         id="path120"
         style="fill:none;stroke:#231f20;stroke-width:0.75;stroke-linecap:square;stroke-linejoin:miter;stroke-miterlimit:10;stroke-dasharray:none;stroke-opacity:1"
         d="M 0,0 -0.272,-60.938" /></g><path
       id="path122"
       style="fill:#ffffff;fill-opacity:1;fill-rule:nonzero;stroke:none"
       d="m 241.074,491.375 h 78.75 v 15.375 h -78.75 z" /><g
       transform="translate(248.761,506.75)"
       id="g124"><path
         id="path126"
         style="fill:none;stroke:#231f20;stroke-width:0.75;stroke-linecap:square;stroke-linejoin:miter;stroke-miterlimit:10;stroke-dasharray:none;stroke-opacity:1"
         d="m 0,0 h 63.375 c 4.243,0 7.687,-3.444 7.687,-7.687 0,-4.244 -3.444,-7.688 -7.687,-7.688 H 0 c -4.243,0 -7.687,3.444 -7.687,7.688 C -7.687,-3.444 -4.243,0 0,0 Z" /></g><text
       id="text130"
       style="font-variant:normal;font-weight:normal;font-stretch:normal;font-size:9px;font-family:Times;-inkscape-font-specification:Times-Roman;writing-mode:lr-tb;fill:#231f20;fill-opacity:1;fill-rule:nonzero;stroke:none"
       transform="matrix(1,0,0,-1,255.9332,496.4931)"><tspan
         id="tspan128"
         y="0"
         x="0 4.5 9 11.25 13.5 18 22.5 24.75 27 29.502001 33.498001 37.998001 41.993999">65, 33, label</tspan></text>
<path
       id="path132"
       style="fill:#ffffff;fill-opacity:1;fill-rule:nonzero;stroke:none"
       d="m 244.074,467.75 h 73.5 v 15.375 h -73.5 z" /><g
       transform="translate(251.761,483.125)"
       id="g134"><path
         id="path136"
         style="fill:none;stroke:#231f20;stroke-width:0.75;stroke-linecap:square;stroke-linejoin:miter;stroke-miterlimit:10;stroke-dasharray:none;stroke-opacity:1"
         d="m 0,0 h 58.125 c 4.243,0 7.687,-3.444 7.687,-7.687 0,-4.244 -3.444,-7.688 -7.687,-7.688 H 0 c -4.243,0 -7.687,3.444 -7.687,7.688 C -7.687,-3.444 -4.243,0 0,0 Z" /></g><text
       id="text140"
       style="font-variant:normal;font-weight:normal;font-stretch:normal;font-size:9px;font-family:Times;-inkscape-font-specification:Times-Roman;writing-mode:lr-tb;fill:#231f20;fill-opacity:1;fill-rule:nonzero;stroke:none"
       transform="matrix(1,0,0,-1,258.5572,472.936)"><tspan
         id="tspan138"
         y="0"
         x="0 4.5 9 11.25 13.5 18 22.5 24.75 27 29.502001 33.362999 37.862999">65, 44, text</tspan></text>
<path
       id="path142"
       style="fill:#ffffff;fill-opacity:1;fill-rule:nonzero;stroke:none"
       d="m 70.824,413.938 h 78.75 v 15.375 h -78.75 z" /><g
       transform="translate(78.511,429.313)"
       id="g144"><path
         id="path146"
         style="fill:none;stroke:#231f20;stroke-width:0.75;stroke-linecap:square;stroke-linejoin:miter;stroke-miterlimit:10;stroke-dasharray:none;stroke-opacity:1"
         d="m 0,0 h 63.375 c 4.244,0 7.688,-3.444 7.688,-7.687 0,-4.244 -3.444,-7.688 -7.688,-7.688 H 0 c -4.244,0 -7.687,3.444 -7.687,7.688 C -7.687,-3.444 -4.244,0 0,0 Z" /></g><text
       id="text150"
       style="font-variant:normal;font-weight:normal;font-stretch:normal;font-size:9px;font-family:Times;-inkscape-font-specification:Times-Roman;writing-mode:lr-tb;fill:#231f20;fill-opacity:1;fill-rule:nonzero;stroke:none"
       transform="matrix(1,0,0,-1,85.6827,419.0557)"><tspan
         id="tspan148"
         y="0"
         x="0 4.5 9 11.25 13.5 18 22.5 24.75 27 29.502001 33.498001 37.998001 41.993999">65, 33, label</tspan></text>
<path
       id="path152"
       style="fill:#ffffff;fill-opacity:1;fill-rule:nonzero;stroke:none"
       d="m 194.99,259.86 h 109.5 v 15.938 h -109.5 z" /><g
       transform="translate(202.959,275.798)"
       id="g154"><path
         id="path156"
         style="fill:none;stroke:#231f20;stroke-width:0.75;stroke-linecap:square;stroke-linejoin:miter;stroke-miterlimit:10;stroke-dasharray:none;stroke-opacity:1"
         d="m 0,0 h 93.562 c 4.4,0 7.969,-3.57 7.969,-7.969 0,-4.398 -3.569,-7.969 -7.969,-7.969 H 0 c -4.398,0 -7.969,3.571 -7.969,7.969 C -7.969,-3.57 -4.398,0 0,0 Z" /></g><text
       id="text160"
       style="font-variant:normal;font-weight:normal;font-stretch:normal;font-size:9px;font-family:Times;-inkscape-font-specification:Times-Roman;writing-mode:lr-tb;fill:#231f20;fill-opacity:1;fill-rule:nonzero;stroke:none"
       transform="matrix(1,0,0,-1,210.4644,265.4628)"><tspan
         id="tspan158"
         y="0"
         x="0 4.5 9 11.25 13.5 18 22.5 27 29.25 32.247002 36.747002 41.247002 43.497002 45.747002 50.247002 54.747002 56.997002 59.247002 63.747002 68.247002">61, 165 (60, 60, 59)</tspan></text>
<g
       transform="translate(39.835,176.194)"
       id="g162"><path
         id="path164"
         style="fill:#ffffff;fill-opacity:1;fill-rule:nonzero;stroke:none"
         d="M 0,0 C 0,2.069 -1.68,3.75 -3.75,3.75 -5.82,3.75 -7.5,2.069 -7.5,0 c 0,-2.07 1.68,-3.75 3.75,-3.75 C -1.68,-3.75 0,-2.07 0,0" /></g><g
       transform="translate(39.835,176.194)"
       id="g166"><path
         id="path168"
         style="fill:none;stroke:#231f20;stroke-width:0.75;stroke-linecap:square;stroke-linejoin:miter;stroke-miterlimit:10;stroke-dasharray:none;stroke-opacity:1"
         d="M 0,0 C 0,2.069 -1.68,3.75 -3.75,3.75 -5.82,3.75 -7.5,2.069 -7.5,0 c 0,-2.07 1.68,-3.75 3.75,-3.75 C -1.68,-3.75 0,-2.07 0,0" /></g><text
       id="text178"
       style="font-variant:normal;font-weight:normal;font-stretch:normal;font-size:9px;font-family:Times;-inkscape-font-specification:Times-Roman;writing-mode:lr-tb;fill:#231f20;fill-opacity:1;fill-rule:nonzero;stroke:none"
       transform="matrix(1,0,0,-1,114.3238,490.8315)"><tspan
         id="tspan170"
         y="0"
         x="0 4.5 8.4960003 15.498">name</tspan><tspan
         id="tspan172"
         y="23.625"
         x="0 4.5 9 11.997 16.497 20.997 24.497999">purpose</tspan><tspan
         id="tspan174"
         y="77.437798"
         x="53.499599 57.999599 61.995602 68.997597">name</tspan><tspan
         id="tspan176"
         y="50.004002"
         x="0 3.5009999 7.4970002 11.493 15.993 18.99 21.492001 23.993999 28.493999 32.993999 35.495998 39.266998 43.632 47.627998">security_level</tspan></text>
<path
       id="path180"
       style="fill:#ffffff;fill-opacity:1;fill-rule:nonzero;stroke:none"
       d="m 3.3238,444.125 h 99.75 v 62.625 h -99.75 z" /><g
       transform="translate(3.3238,506.75)"
       id="g182"><path
         id="path184"
         style="fill:none;stroke:#231f20;stroke-width:0.75;stroke-linecap:square;stroke-linejoin:miter;stroke-miterlimit:10;stroke-dasharray:none;stroke-opacity:1"
         d="M 99.75,0 H 0 v -62.625 h 99.75 z" /><g
         id="g186"><path
           id="path188"
           style="fill:none;stroke:#231f20;stroke-width:0.75;stroke-linecap:square;stroke-linejoin:miter;stroke-miterlimit:10;stroke-dasharray:none;stroke-opacity:1"
           d="M 0,0 Z" /></g></g><text
       id="text192"
       style="font-variant:normal;font-weight:normal;font-stretch:normal;font-size:9px;font-family:Times;-inkscape-font-specification:Times-Roman;writing-mode:lr-tb;fill:#231f20;fill-opacity:1;fill-rule:nonzero;stroke:none"
       transform="matrix(1,0,0,-1,12.6885,475.125)"><tspan
         id="tspan190"
         y="0"
         x="0 3.5009999 7.4970002 11.493 15.993 18.99 21.492001 23.993999 28.493999 32.993999 36.990002 39.492001 43.487999 46.988998 50.490002 52.992001 55.808998 58.311001 62.306999 66.303001 68.805 71.306999 75.806999">security_classification</tspan></text>
<path
       id="path194"
       style="fill:#ffffff;fill-opacity:1;fill-rule:nonzero;stroke:none"
       d="m 193.074,413.938 h 121.5 v 15.375 h -121.5 z" /><g
       transform="translate(193.074,429.313)"
       id="g196"><path
         id="path198"
         style="fill:none;stroke:#231f20;stroke-width:0.75;stroke-linecap:square;stroke-linejoin:miter;stroke-miterlimit:10;stroke-dasharray:none;stroke-opacity:1"
         d="M 121.5,0 H 0 v -15.375 h 121.5 z" /><g
         id="g200"><path
           id="path202"
           style="fill:none;stroke:#231f20;stroke-width:0.75;stroke-linecap:square;stroke-linejoin:miter;stroke-miterlimit:10;stroke-dasharray:none;stroke-opacity:1"
           d="M 0,0 Z" /></g></g><text
       id="text206"
       style="font-variant:normal;font-weight:normal;font-stretch:normal;font-size:9px;font-family:Times;-inkscape-font-specification:Times-Roman;writing-mode:lr-tb;fill:#231f20;fill-opacity:1;fill-rule:nonzero;stroke:none"
       transform="matrix(1,0,0,-1,198.5591,419.3125)"><tspan
         id="tspan204"
         y="0"
         x="0 3.5009999 7.4970002 11.493 15.993 18.99 21.492001 23.993999 28.493999 32.993999 36.990002 39.492001 43.487999 46.988998 50.490002 52.992001 55.808998 58.311001 62.306999 66.303001 68.805 71.306999 75.806999 80.306999 84.806999 87.308998 91.080002 95.445 99.441002">security_classification_level</tspan></text>
<path
       id="path208"
       style="fill:#ffffff;fill-opacity:1;fill-rule:nonzero;stroke:none"
       d="m 1.4488,157.063 h 182.25 v 15.375 H 1.4488 Z" /><g
       transform="translate(1.4488,172.438)"
       id="g210"><path
         id="path212"
         style="fill:none;stroke:#231f20;stroke-width:0.75;stroke-linecap:square;stroke-linejoin:miter;stroke-miterlimit:10;stroke-dasharray:none;stroke-opacity:1"
         d="M 182.25,0 H 0 v -15.375 h 182.25 z" /><g
         id="g214"><path
           id="path216"
           style="fill:none;stroke:#231f20;stroke-width:0.75;stroke-linecap:square;stroke-linejoin:miter;stroke-miterlimit:10;stroke-dasharray:none;stroke-opacity:1"
           d="M 0,0 Z" /></g></g><text
       id="text220"
       style="font-variant:normal;font-weight:normal;font-stretch:normal;font-size:9px;font-family:Times;-inkscape-font-specification:Times-Roman;writing-mode:lr-tb;fill:#231f20;fill-opacity:1;fill-rule:nonzero;stroke:none"
       transform="matrix(1,0,0,-1,12.5435,162.4638)"><tspan
         id="tspan218"
         y="0"
         x="0 3.9960001 8.4960003 12.996 15.498 18 21.996 26.496 30.996 34.497002 38.493 42.488998 46.988998 49.986 52.487999 54.990002 59.490002 63.990002 67.986 70.487999 74.484001 77.985001 81.486 83.987999 86.805 89.306999 93.303001 97.299004 99.801003 102.303 106.803 111.303 115.803 119.799 123.3 126.801 129.30299 133.80299 138.30299 145.30499 149.30099 153.80099">applied_security_classification_assignment</tspan></text>
<path
       id="path222"
       style="fill:#ffffff;fill-opacity:1;fill-rule:nonzero;stroke:none"
       d="m 69.776,279.361 h 75.75 v 24.75 h -75.75 z" /><g
       transform="translate(69.776,304.111)"
       id="g224"><path
         id="path226"
         style="fill:none;stroke:#231f20;stroke-width:0.75;stroke-linecap:square;stroke-linejoin:miter;stroke-miterlimit:10;stroke-dasharray:none;stroke-opacity:1"
         d="M 75.75,0 H 0 v -24.75 h 75.75 z" /><g
         id="g228"><path
           id="path230"
           style="fill:none;stroke:#231f20;stroke-width:0.75;stroke-linecap:square;stroke-linejoin:miter;stroke-miterlimit:10;stroke-dasharray:none;stroke-opacity:1"
           d="M 0,0 Z" /></g></g><text
       id="text234"
       style="font-variant:normal;font-weight:normal;font-stretch:normal;font-size:9px;font-family:Times;-inkscape-font-specification:Times-Roman;writing-mode:lr-tb;fill:#231f20;fill-opacity:1;fill-rule:nonzero;stroke:none"
       transform="matrix(1,0,0,-1,75.1387,289.0673)"><tspan
         id="tspan232"
         y="0"
         x="0 2.997 7.4970002 9.9989996 13.995 18.495001 22.490999 25.992001 29.493 33.993 37.988998 40.491001 44.487 46.988998 49.491001 53.991001">role_association</tspan></text>
<g
       transform="translate(212.905,433.054)"
       id="g236"><path
         id="path238"
         style="fill:#ffffff;fill-opacity:1;fill-rule:nonzero;stroke:none"
         d="M 0,0 C 0,2.07 -1.68,3.75 -3.75,3.75 -5.82,3.75 -7.5,2.07 -7.5,0 c 0,-2.07 1.68,-3.75 3.75,-3.75 C -1.68,-3.75 0,-2.07 0,0" /></g><g
       transform="translate(212.905,433.054)"
       id="g240"><path
         id="path242"
         style="fill:none;stroke:#231f20;stroke-width:0.75;stroke-linecap:square;stroke-linejoin:miter;stroke-miterlimit:10;stroke-dasharray:none;stroke-opacity:1"
         d="M 0,0 C 0,2.07 -1.68,3.75 -3.75,3.75 -5.82,3.75 -7.5,2.07 -7.5,0 c 0,-2.07 1.68,-3.75 3.75,-3.75 C -1.68,-3.75 0,-2.07 0,0" /></g><path
       id="path244"
       style="fill:#ffffff;fill-opacity:1;fill-rule:nonzero;stroke:none"
       d="m 0.37502,0.375 h 129 V 129.25 h -129 z" /><path
       id="path246"
       style="fill:none;stroke:#231f20;stroke-width:0.75;stroke-linecap:square;stroke-linejoin:miter;stroke-miterlimit:10;stroke-dasharray:3.75, 3.75;stroke-dashoffset:0;stroke-opacity:1"
       d="M 0.37502,129.25 V 0.375 H 129.375 V 129.25 Z M 7.875,0.375 V 129.25" /><text
       id="text250"
       style="font-variant:normal;font-weight:normal;font-stretch:normal;font-size:9px;font-family:Times;-inkscape-font-specification:Times-Roman;writing-mode:lr-tb;fill:#231f20;fill-opacity:1;fill-rule:nonzero;stroke:none"
       transform="matrix(1,0,0,-1,17.1128,72)"><tspan
         id="tspan248"
         y="0"
         x="0 3.5009999 7.4970002 11.493 15.993 18.99 21.492001 23.993999 28.493999 32.993999 36.990002 39.492001 43.487999 46.988998 50.490002 52.992001 55.808998 58.311001 62.306999 66.303001 68.805 71.306999 75.806999 80.306999 84.806999 87.308998 89.810997 93.806999">security_classification_item</tspan></text>
<g
       transform="translate(56.305,132.993)"
       id="g252"><path
         id="path254"
         style="fill:#ffffff;fill-opacity:1;fill-rule:nonzero;stroke:none"
         d="M 0,0 C 0,2.071 -1.68,3.75 -3.75,3.75 -5.82,3.75 -7.5,2.071 -7.5,0 c 0,-2.069 1.68,-3.75 3.75,-3.75 C -1.68,-3.75 0,-2.069 0,0" /></g><g
       transform="translate(56.305,132.993)"
       id="g256"><path
         id="path258"
         style="fill:none;stroke:#231f20;stroke-width:0.75;stroke-linecap:square;stroke-linejoin:miter;stroke-miterlimit:10;stroke-dasharray:none;stroke-opacity:1"
         d="M 0,0 C 0,2.071 -1.68,3.75 -3.75,3.75 -5.82,3.75 -7.5,2.071 -7.5,0 c 0,-2.069 1.68,-3.75 3.75,-3.75 C -1.68,-3.75 0,-2.069 0,0" /></g><text
       id="text262"
       style="font-variant:normal;font-weight:normal;font-stretch:normal;font-size:9px;font-family:Times;-inkscape-font-specification:Times-Roman;writing-mode:lr-tb;fill:#231f20;fill-opacity:1;fill-rule:nonzero;stroke:none"
       transform="matrix(1,0,0,-1,56.2593,143.1884)"><tspan
         id="tspan260"
         y="0"
         x="0 2.5020001 5.0040002 9 16.002001 19.503 21.753 26.757 29.754 34.254002 36.756001 40.751999">items S[1:?]</tspan></text>
<path
       id="path264"
       style="fill:#ffffff;fill-opacity:1;fill-rule:nonzero;stroke:none"
       d="m 190.126,92.875 h 123.75 v 15.375 h -123.75 z" /><g
       transform="translate(197.813,108.25)"
       id="g266"><path
         id="path268"
         style="fill:none;stroke:#231f20;stroke-width:0.75;stroke-linecap:square;stroke-linejoin:miter;stroke-miterlimit:10;stroke-dasharray:none;stroke-opacity:1"
         d="m 0,0 h 108.375 c 4.243,0 7.687,-3.444 7.687,-7.687 0,-4.244 -3.444,-7.688 -7.687,-7.688 H 0 c -4.244,0 -7.687,3.444 -7.687,7.688 C -7.687,-3.444 -4.244,0 0,0 Z" /></g><text
       id="text272"
       style="font-variant:normal;font-weight:normal;font-stretch:normal;font-size:9px;font-family:Times;-inkscape-font-specification:Times-Roman;writing-mode:lr-tb;fill:#231f20;fill-opacity:1;fill-rule:nonzero;stroke:none"
       transform="matrix(1,0,0,-1,197.7212,98.3212)"><tspan
         id="tspan270"
         y="0"
         x="0 4.5 6.75 9 13.5 18 20.25 22.5 29.502001 33.498001 37.493999 41.993999 44.495998 48.995998 51.498001 55.998001 60.498001 64.998001 69.498001 73.998001 77.994003 80.990997 84.987 87.488998 89.990997 94.490997">1, 97, machining_operation</tspan></text>
<path
       id="path274"
       style="fill:#ffffff;fill-opacity:1;fill-rule:nonzero;stroke:none"
       d="m 151.875,69.25 h 162 v 15.375 h -162 z" /><g
       transform="translate(159.563,84.625)"
       id="g276"><path
         id="path278"
         style="fill:none;stroke:#231f20;stroke-width:0.75;stroke-linecap:square;stroke-linejoin:miter;stroke-miterlimit:10;stroke-dasharray:none;stroke-opacity:1"
         d="m 0,0 h 146.625 c 4.244,0 7.688,-3.444 7.688,-7.688 0,-4.243 -3.444,-7.687 -7.688,-7.687 H 0 c -4.244,0 -7.687,3.444 -7.687,7.687 C -7.687,-3.444 -4.244,0 0,0 Z" /></g><text
       id="text282"
       style="font-variant:normal;font-weight:normal;font-stretch:normal;font-size:9px;font-family:Times;-inkscape-font-specification:Times-Roman;writing-mode:lr-tb;fill:#231f20;fill-opacity:1;fill-rule:nonzero;stroke:none"
       transform="matrix(1,0,0,-1,157.3384,74.6962)"><tspan
         id="tspan280"
         y="0"
         x="0 4.5 6.75 9 13.5 18 20.25 22.5 29.502001 33.498001 37.493999 41.993999 44.495998 48.995998 51.498001 55.998001 60.498001 64.998001 69.498001 72.495003 76.995003 80.990997 84.987 88.487999 91.988998 96.488998 100.35 104.715 108.711 112.707 117.207 119.709 123.705 128.205 130.707">1, 98, machining_process_executable</tspan></text>
<path
       id="path284"
       style="fill:#ffffff;fill-opacity:1;fill-rule:nonzero;stroke:none"
       d="m 194.626,45.625 h 119.25 V 61 h -119.25 z" /><g
       transform="translate(202.313,61)"
       id="g286"><path
         id="path288"
         style="fill:none;stroke:#231f20;stroke-width:0.75;stroke-linecap:square;stroke-linejoin:miter;stroke-miterlimit:10;stroke-dasharray:none;stroke-opacity:1"
         d="m 0,0 h 103.875 c 4.243,0 7.687,-3.444 7.687,-7.687 0,-4.244 -3.444,-7.688 -7.687,-7.688 H 0 c -4.244,0 -7.687,3.444 -7.687,7.688 C -7.687,-3.444 -4.244,0 0,0 Z" /></g><text
       id="text292"
       style="font-variant:normal;font-weight:normal;font-stretch:normal;font-size:9px;font-family:Times;-inkscape-font-specification:Times-Roman;writing-mode:lr-tb;fill:#231f20;fill-opacity:1;fill-rule:nonzero;stroke:none"
       transform="matrix(1,0,0,-1,202.7203,51.0712)"><tspan
         id="tspan290"
         y="0"
         x="0 4.5 6.75 9 13.5 18 20.25 22.5 29.502001 33.498001 37.493999 41.993999 44.495998 48.995998 51.498001 55.998001 60.498001 64.998001 67.5 72 76.5 79.001999 83.501999 87.498001 90">1, 99, machining_toolpath</tspan></text>
<path
       id="path294"
       style="fill:#ffffff;fill-opacity:1;fill-rule:nonzero;stroke:none"
       d="m 199.126,22 h 114.75 v 15.375 h -114.75 z" /><g
       transform="translate(206.813,37.375)"
       id="g296"><path
         id="path298"
         style="fill:none;stroke:#231f20;stroke-width:0.75;stroke-linecap:square;stroke-linejoin:miter;stroke-miterlimit:10;stroke-dasharray:none;stroke-opacity:1"
         d="m 0,0 h 99.375 c 4.243,0 7.687,-3.444 7.687,-7.687 0,-4.244 -3.444,-7.688 -7.687,-7.688 H 0 c -4.244,0 -7.687,3.444 -7.687,7.688 C -7.687,-3.444 -4.244,0 0,0 Z" /></g><text
       id="text302"
       style="font-variant:normal;font-weight:normal;font-stretch:normal;font-size:9px;font-family:Times;-inkscape-font-specification:Times-Roman;writing-mode:lr-tb;fill:#231f20;fill-opacity:1;fill-rule:nonzero;stroke:none"
       transform="matrix(1,0,0,-1,205.9693,27.3427)"><tspan
         id="tspan300"
         y="0"
         x="0 4.5 9 11.25 13.5 18 22.5 24.75 27 31.5 34.497002 38.997002 43.497002 47.997002 51.993 54.494999 58.994999 63.494999 67.490997 70.307999 72.809998 77.309998 79.811996 82.314003 84.816002 89.316002">10, 39, product_definition</tspan></text>
<path
       id="path304"
       style="fill:#ffffff;fill-opacity:1;fill-rule:nonzero;stroke:none"
       d="m 162.375,0.375 h 151.5 V 15.75 h -151.5 z" /><g
       transform="translate(170.063,15.75)"
       id="g306"><path
         id="path308"
         style="fill:none;stroke:#231f20;stroke-width:0.75;stroke-linecap:square;stroke-linejoin:miter;stroke-miterlimit:10;stroke-dasharray:none;stroke-opacity:1"
         d="m 0,0 h 136.125 c 4.244,0 7.688,-3.444 7.688,-7.6875 0,-4.2435 -3.444,-7.6875 -7.688,-7.6875 H 0 c -4.244,0 -7.687,3.444 -7.687,7.6875 C -7.687,-3.444 -4.244,0 0,0 Z" /></g><text
       id="text312"
       style="font-variant:normal;font-weight:normal;font-stretch:normal;font-size:9px;font-family:Times;-inkscape-font-specification:Times-Roman;writing-mode:lr-tb;fill:#231f20;fill-opacity:1;fill-rule:nonzero;stroke:none"
       transform="matrix(1,0,0,-1,166.337,5.7177)"><tspan
         id="tspan310"
         y="0"
         x="0 4.5 9 11.25 13.5 18 22.5 24.75 27 31.5 34.497002 38.997002 43.497002 47.997002 51.993 54.494999 58.994999 63.494999 67.490997 70.307999 72.809998 77.309998 79.811996 82.314003 84.816002 89.316002 93.816002 98.316002 101.313 105.813 108.81 115.812 119.808 122.31 124.812 129.312">10, 37, product_definition_formation</tspan></text>
<path
       id="path314"
       style="fill:#ffffff;fill-opacity:1;fill-rule:nonzero;stroke:none"
       d="m 53.794,184.419 h 63 v 62.625 h -63 z" /><path
       id="path316"
       style="fill:none;stroke:#231f20;stroke-width:0.75;stroke-linecap:square;stroke-linejoin:miter;stroke-miterlimit:10;stroke-dasharray:3.75, 3.75;stroke-dashoffset:0;stroke-opacity:1"
       d="m 53.794,247.044 v -62.625 h 63 v 62.625 z m 7.5,-62.625 v 62.625" /><text
       id="text320"
       style="font-variant:normal;font-weight:normal;font-stretch:normal;font-size:9px;font-family:Times;-inkscape-font-specification:Times-Roman;writing-mode:lr-tb;fill:#231f20;fill-opacity:1;fill-rule:nonzero;stroke:none"
       transform="matrix(1,0,0,-1,69.2862,212.0625)"><tspan
         id="tspan318"
         y="0"
         x="0 2.997 7.4970002 9.9989996 13.995 18.495001 21.996 25.992001 28.493999 32.490002 36.486">role_select</tspan></text>
<g
       transform="translate(79.165,250.804)"
       id="g322"><path
         id="path324"
         style="fill:#ffffff;fill-opacity:1;fill-rule:nonzero;stroke:none"
         d="M 0,0 C 0,2.07 -1.68,3.75 -3.75,3.75 -5.82,3.75 -7.5,2.07 -7.5,0 c 0,-2.07 1.68,-3.75 3.75,-3.75 C -1.68,-3.75 0,-2.07 0,0" /></g><g
       transform="translate(79.165,250.804)"
       id="g326"><path
         id="path328"
         style="fill:none;stroke:#231f20;stroke-width:0.75;stroke-linecap:square;stroke-linejoin:miter;stroke-miterlimit:10;stroke-dasharray:none;stroke-opacity:1"
         d="M 0,0 C 0,2.07 -1.68,3.75 -3.75,3.75 -5.82,3.75 -7.5,2.07 -7.5,0 c 0,-2.07 1.68,-3.75 3.75,-3.75 C -1.68,-3.75 0,-2.07 0,0" /></g><text
       id="text332"
       style="font-variant:normal;font-weight:normal;font-stretch:normal;font-size:9px;font-family:Times;-inkscape-font-specification:Times-Roman;writing-mode:lr-tb;fill:#231f20;fill-opacity:1;fill-rule:nonzero;stroke:none"
       transform="matrix(1,0,0,-1,78.8257,266.3085)"><tspan
         id="tspan330"
         y="0"
         x="0 2.5020001 5.0040002 9 16.002001 20.502001 27 29.502001 32.004002 36.504002 41.004002 44.000999 48.500999 51.002998">item_with_role</tspan></text>
<path
       id="path334"
       style="fill:#ffffff;fill-opacity:1;fill-rule:nonzero;stroke:none"
       d="m 139.294,231.669 h 151.5 v 15.375 h -151.5 z" /><g
       transform="translate(146.981,247.044)"
       id="g336"><path
         id="path338"
         style="fill:none;stroke:#231f20;stroke-width:0.75;stroke-linecap:square;stroke-linejoin:miter;stroke-miterlimit:10;stroke-dasharray:none;stroke-opacity:1"
         d="m 0,0 h 136.125 c 4.244,0 7.687,-3.444 7.687,-7.687 0,-4.244 -3.443,-7.688 -7.687,-7.688 H 0 c -4.243,0 -7.687,3.444 -7.687,7.688 C -7.687,-3.444 -4.243,0 0,0 Z" /></g><text
       id="text342"
       style="font-variant:normal;font-weight:normal;font-stretch:normal;font-size:9px;font-family:Times;-inkscape-font-specification:Times-Roman;writing-mode:lr-tb;fill:#231f20;fill-opacity:1;fill-rule:nonzero;stroke:none"
       transform="matrix(1,0,0,-1,142.7603,237.0302)"><tspan
         id="tspan340"
         y="0"
         x="0 4.5 9 11.25 13.5 18 22.5 27 29.25 31.5 34.497002 40.994999 46.998001 52.001999 54.999001 58.994999 63.494999 67.995003 70.991997 75.357002 79.632004 83.627998 86.129997 90.629997 94.625999 98.126999 101.628 104.13 108.63 113.13 120.132 124.128 128.62801">60, 166, (ABS)approval_assignment</tspan></text>
<path
       id="path344"
       style="fill:#ffffff;fill-opacity:1;fill-rule:nonzero;stroke:none"
       d="m 165.544,208.044 h 125.25 v 15.375 h -125.25 z" /><g
       transform="translate(173.231,223.419)"
       id="g346"><path
         id="path348"
         style="fill:none;stroke:#231f20;stroke-width:0.75;stroke-linecap:square;stroke-linejoin:miter;stroke-miterlimit:10;stroke-dasharray:none;stroke-opacity:1"
         d="m 0,0 h 109.875 c 4.244,0 7.687,-3.444 7.687,-7.687 0,-4.244 -3.443,-7.688 -7.687,-7.688 H 0 c -4.243,0 -7.687,3.444 -7.687,7.688 C -7.687,-3.444 -4.243,0 0,0 Z" /></g><text
       id="text352"
       style="font-variant:normal;font-weight:normal;font-stretch:normal;font-size:9px;font-family:Times;-inkscape-font-specification:Times-Roman;writing-mode:lr-tb;fill:#231f20;fill-opacity:1;fill-rule:nonzero;stroke:none"
       transform="matrix(1,0,0,-1,171.1358,213.4316)"><tspan
         id="tspan350"
         y="0"
         x="0 4.5 9 11.25 13.5 18 22.5 27 29.25 31.5 35.495998 39.995998 44.495998 47.493 51.858002 56.132999 60.129002 62.631001 67.130997 71.630997 75.626999 78.128998 82.125 86.625 89.126999 91.628998 98.630997">60, 168, approval_date_time</tspan></text>
<path
       id="path354"
       style="fill:#ffffff;fill-opacity:1;fill-rule:nonzero;stroke:none"
       d="m 140.044,184.419 h 150.75 v 15.375 h -150.75 z" /><g
       transform="translate(147.731,199.794)"
       id="g356"><path
         id="path358"
         style="fill:none;stroke:#231f20;stroke-width:0.75;stroke-linecap:square;stroke-linejoin:miter;stroke-miterlimit:10;stroke-dasharray:none;stroke-opacity:1"
         d="m 0,0 h 135.375 c 4.244,0 7.687,-3.444 7.687,-7.687 0,-4.244 -3.443,-7.688 -7.687,-7.688 H 0 c -4.243,0 -7.687,3.444 -7.687,7.688 C -7.687,-3.444 -4.243,0 0,0 Z" /></g><text
       id="text362"
       style="font-variant:normal;font-weight:normal;font-stretch:normal;font-size:9px;font-family:Times;-inkscape-font-specification:Times-Roman;writing-mode:lr-tb;fill:#231f20;fill-opacity:1;fill-rule:nonzero;stroke:none"
       transform="matrix(1,0,0,-1,144.6338,189.7216)"><tspan
         id="tspan360"
         y="0"
         x="0 4.5 9 11.25 13.5 18 22.5 27 29.25 31.5 34.497002 40.994999 46.998001 52.001999 54.999001 59.499001 63.999001 67.995003 72.495003 79.497002 83.492996 87.992996 90.495003 94.995003 97.991997 101.988 104.985 108.981 111.978 115.974 120.474 124.47">59, 172, (ABS)document_reference</tspan></text>
<path
       id="path364"
       style="fill:#ffffff;fill-opacity:1;fill-rule:nonzero;stroke:none"
       d="m 7.4488,350.938 h 170.25 v 24.75 H 7.4488 Z" /><g
       transform="translate(7.4488,375.688)"
       id="g366"><path
         id="path368"
         style="fill:none;stroke:#231f20;stroke-width:0.75;stroke-linecap:square;stroke-linejoin:miter;stroke-miterlimit:10;stroke-dasharray:none;stroke-opacity:1"
         d="M 170.25,0 H 0 v -24.75 h 170.25 z" /><g
         id="g370"><path
           id="path372"
           style="fill:none;stroke:#231f20;stroke-width:0.75;stroke-linecap:square;stroke-linejoin:miter;stroke-miterlimit:10;stroke-dasharray:none;stroke-opacity:1"
           d="M 0,0 Z" /></g></g><text
       id="text376"
       style="font-variant:normal;font-weight:normal;font-stretch:normal;font-size:9px;font-family:Times;-inkscape-font-specification:Times-Roman;writing-mode:lr-tb;fill:#231f20;fill-opacity:1;fill-rule:nonzero;stroke:none"
       transform="matrix(1,0,0,-1,11.5518,360.9863)"><tspan
         id="tspan374"
         y="0"
         x="0 2.997 9.4949999 15.498 20.502001 23.499001 27 30.996 34.992001 39.492001 42.488998 44.991001 47.493 51.993 56.493 60.488998 62.991001 66.987 70.487999 73.988998 76.490997 79.307999 81.809998 85.806 89.802002 92.304001 94.806 99.306 103.806 108.306 112.302 115.803 119.304 121.806 126.306 130.806 137.808 141.804 146.304">(ABS)security_classification_assignment</tspan></text>
<g
       transform="translate(64.134,347.194)"
       id="g378"><path
         id="path380"
         style="fill:#ffffff;fill-opacity:1;fill-rule:nonzero;stroke:none"
         d="M 0,0 C 0,2.069 -1.68,3.75 -3.75,3.75 -5.819,3.75 -7.5,2.069 -7.5,0 c 0,-2.07 1.681,-3.75 3.75,-3.75 C -1.68,-3.75 0,-2.07 0,0" /></g><g
       transform="translate(64.134,347.194)"
       id="g382"><path
         id="path384"
         style="fill:none;stroke:#231f20;stroke-width:0.75;stroke-linecap:square;stroke-linejoin:miter;stroke-miterlimit:10;stroke-dasharray:none;stroke-opacity:1"
         d="M 0,0 C 0,2.069 -1.68,3.75 -3.75,3.75 -5.819,3.75 -7.5,2.069 -7.5,0 c 0,-2.07 1.681,-3.75 3.75,-3.75 C -1.68,-3.75 0,-2.07 0,0" /></g><text
       id="text388"
       style="font-variant:normal;font-weight:normal;font-stretch:normal;font-size:9px;font-family:Times;-inkscape-font-specification:Times-Roman;writing-mode:lr-tb;fill:#231f20;fill-opacity:1;fill-rule:nonzero;stroke:none"
       transform="matrix(1,0,0,-1,50.4092,381.7055)"><tspan
         id="tspan386"
         y="0"
         x="0 3.9960001 7.4970002 10.998 13.5 18 22.5 26.496 30.996 35.495998 38.997002 42.993 46.988998 51.488998 54.486 56.987999 59.490002 63.990002 68.489998 72.486 74.987999 78.984001 82.485001 85.986 88.487999 91.305 93.806999 97.803001 101.799 104.301 106.803 111.303">assigned_security_classification</tspan></text>
<path
       id="path390"
       style="fill:#ffffff;fill-opacity:1;fill-rule:nonzero;stroke:none"
       d="m 161.99,290.798 h 56.249 v 39 H 161.99 Z" /><g
       transform="translate(161.99,329.798)"
       id="g392"><path
         id="path394"
         style="fill:none;stroke:#231f20;stroke-width:0.75;stroke-linecap:square;stroke-linejoin:miter;stroke-miterlimit:10;stroke-dasharray:none;stroke-opacity:1"
         d="M 56.249,0 H 0 v -39 h 56.249 z" /><g
         id="g396"><path
           id="path398"
           style="fill:none;stroke:#231f20;stroke-width:0.75;stroke-linecap:square;stroke-linejoin:miter;stroke-miterlimit:10;stroke-dasharray:none;stroke-opacity:1"
           d="M 0,0 Z" /></g></g><text
       id="text402"
       style="font-variant:normal;font-weight:normal;font-stretch:normal;font-size:9px;font-family:Times;-inkscape-font-specification:Times-Roman;writing-mode:lr-tb;fill:#231f20;fill-opacity:1;fill-rule:nonzero;stroke:none"
       transform="matrix(1,0,0,-1,168.106,308.0127)"><tspan
         id="tspan400"
         y="0"
         x="0 4.5 9 11.502 15.498 19.493999 21.996 26.496 29.493 33.993 36.494999">object_role</tspan></text>
<g
       transform="translate(187.525,287.074)"
       id="g404"><path
         id="path406"
         style="fill:#ffffff;fill-opacity:1;fill-rule:nonzero;stroke:none"
         d="M 0,0 C 0,2.069 -1.681,3.75 -3.75,3.75 -5.82,3.75 -7.5,2.069 -7.5,0 c 0,-2.07 1.68,-3.75 3.75,-3.75 C -1.681,-3.75 0,-2.07 0,0" /></g><g
       transform="translate(187.525,287.074)"
       id="g408"><path
         id="path410"
         style="fill:none;stroke:#231f20;stroke-width:0.75;stroke-linecap:square;stroke-linejoin:miter;stroke-miterlimit:10;stroke-dasharray:none;stroke-opacity:1"
         d="M 0,0 C 0,2.069 -1.681,3.75 -3.75,3.75 -5.82,3.75 -7.5,2.069 -7.5,0 c 0,-2.07 1.68,-3.75 3.75,-3.75 C -1.681,-3.75 0,-2.07 0,0" /></g><g
       transform="translate(161.964,317.764)"
       id="g412"><path
         id="path414"
         style="fill:#ffffff;fill-opacity:1;fill-rule:nonzero;stroke:none"
         d="M 0,0 C 0,2.07 -1.68,3.75 -3.75,3.75 -5.82,3.75 -7.5,2.07 -7.5,0 c 0,-2.069 1.68,-3.75 3.75,-3.75 C -1.68,-3.75 0,-2.069 0,0" /></g><g
       transform="translate(161.964,317.764)"
       id="g416"><path
         id="path418"
         style="fill:none;stroke:#231f20;stroke-width:0.75;stroke-linecap:square;stroke-linejoin:miter;stroke-miterlimit:10;stroke-dasharray:none;stroke-opacity:1"
         d="M 0,0 C 0,2.07 -1.68,3.75 -3.75,3.75 -5.82,3.75 -7.5,2.07 -7.5,0 c 0,-2.069 1.68,-3.75 3.75,-3.75 C -1.68,-3.75 0,-2.069 0,0" /></g><text
       id="text422"
       style="font-variant:normal;font-weight:normal;font-stretch:normal;font-size:9px;font-family:Times;-inkscape-font-specification:Times-Roman;writing-mode:lr-tb;fill:#231f20;fill-opacity:1;fill-rule:nonzero;stroke:none"
       transform="matrix(1,0,0,-1,98.4092,308.7255)"><tspan
         id="tspan420"
         y="0"
         x="0 2.997 7.4970002 9.9989996">role</tspan></text>
<g
       transform="translate(210.025,333.514)"
       id="g424"><path
         id="path426"
         style="fill:#ffffff;fill-opacity:1;fill-rule:nonzero;stroke:none"
         d="M 0,0 C 0,2.07 -1.681,3.75 -3.75,3.75 -5.82,3.75 -7.5,2.07 -7.5,0 c 0,-2.069 1.68,-3.75 3.75,-3.75 C -1.681,-3.75 0,-2.069 0,0" /></g><g
       transform="translate(210.025,333.514)"
       id="g428"><path
         id="path430"
         style="fill:none;stroke:#231f20;stroke-width:0.75;stroke-linecap:square;stroke-linejoin:miter;stroke-miterlimit:10;stroke-dasharray:none;stroke-opacity:1"
         d="M 0,0 C 0,2.07 -1.681,3.75 -3.75,3.75 -5.82,3.75 -7.5,2.07 -7.5,0 c 0,-2.069 1.68,-3.75 3.75,-3.75 C -1.681,-3.75 0,-2.069 0,0" /></g><text
       id="text434"
       style="font-variant:normal;font-weight:normal;font-stretch:normal;font-size:9px;font-family:Times;-inkscape-font-specification:Times-Roman;writing-mode:lr-tb;fill:#231f20;fill-opacity:1;fill-rule:nonzero;stroke:none"
       transform="matrix(1,0,0,-1,164.5318,341.9345)"><tspan
         id="tspan432"
         y="0"
         x="0 2.997 9.4949999 14.994 20.997 23.993999 26.990999 31.490999 33.993">(DER)role</tspan></text>
<path
       id="path436"
       style="fill:#ffffff;fill-opacity:1;fill-rule:nonzero;stroke:none"
       d="m 273.74,314.423 h 78.75 v 15.375 h -78.75 z" /><g
       transform="translate(281.427,329.798)"
       id="g438"><path
         id="path440"
         style="fill:none;stroke:#231f20;stroke-width:0.75;stroke-linecap:square;stroke-linejoin:miter;stroke-miterlimit:10;stroke-dasharray:none;stroke-opacity:1"
         d="m 0,0 h 63.375 c 4.243,0 7.688,-3.444 7.688,-7.687 0,-4.244 -3.445,-7.688 -7.688,-7.688 H 0 c -4.243,0 -7.687,3.444 -7.687,7.688 C -7.687,-3.444 -4.243,0 0,0 Z" /></g><text
       id="text444"
       style="font-variant:normal;font-weight:normal;font-stretch:normal;font-size:9px;font-family:Times;-inkscape-font-specification:Times-Roman;writing-mode:lr-tb;fill:#231f20;fill-opacity:1;fill-rule:nonzero;stroke:none"
       transform="matrix(1,0,0,-1,288.5992,319.5415)"><tspan
         id="tspan442"
         y="0"
         x="0 4.5 9 11.25 13.5 18 22.5 24.75 27 29.502001 33.498001 37.998001 41.993999">65, 33, label</tspan></text>
<path
       id="path446"
       style="fill:#ffffff;fill-opacity:1;fill-rule:nonzero;stroke:none"
       d="m 278.99,290.798 h 73.5 v 15.375 h -73.5 z" /><g
       transform="translate(286.677,306.173)"
       id="g448"><path
         id="path450"
         style="fill:none;stroke:#231f20;stroke-width:0.75;stroke-linecap:square;stroke-linejoin:miter;stroke-miterlimit:10;stroke-dasharray:none;stroke-opacity:1"
         d="m 0,0 h 58.125 c 4.243,0 7.688,-3.444 7.688,-7.687 0,-4.244 -3.445,-7.688 -7.688,-7.688 H 0 c -4.243,0 -7.687,3.444 -7.687,7.688 C -7.687,-3.444 -4.243,0 0,0 Z" /></g><text
       id="text458"
       style="font-variant:normal;font-weight:normal;font-stretch:normal;font-size:9px;font-family:Times;-inkscape-font-specification:Times-Roman;writing-mode:lr-tb;fill:#231f20;fill-opacity:1;fill-rule:nonzero;stroke:none"
       transform="matrix(1,0,0,-1,293.4742,295.9838)"><tspan
         id="tspan452"
         y="0"
         x="0 4.5 9 11.25 13.5 18 22.5 24.75 27 29.502001 33.362999 37.862999">65, 34, text</tspan><tspan
         id="tspan454"
         y="-17.895599"
         x="-67.734001 -63.234001 -59.237999 -52.236">name</tspan><tspan
         id="tspan456"
         y="8.4834003"
         x="-67.734001 -63.234001 -59.237999 -55.737 -51.741001 -48.743999 -46.242001 -41.742001 -39.240002 -36.737999 -32.237999">description</tspan></text>
<g
       transform="translate(50.634,440.434)"
       id="g460"><path
         id="path462"
         style="fill:#ffffff;fill-opacity:1;fill-rule:nonzero;stroke:none"
         d="M 0,0 C 0,2.07 -1.68,3.75 -3.75,3.75 -5.819,3.75 -7.5,2.07 -7.5,0 c 0,-2.07 1.681,-3.75 3.75,-3.75 C -1.68,-3.75 0,-2.07 0,0" /></g><g
       transform="translate(50.634,440.434)"
       id="g464"><path
         id="path466"
         style="fill:none;stroke:#231f20;stroke-width:0.75;stroke-linecap:square;stroke-linejoin:miter;stroke-miterlimit:10;stroke-dasharray:none;stroke-opacity:1"
         d="M 0,0 C 0,2.07 -1.68,3.75 -3.75,3.75 -5.819,3.75 -7.5,2.07 -7.5,0 c 0,-2.07 1.681,-3.75 3.75,-3.75 C -1.68,-3.75 0,-2.07 0,0" /><g
         transform="translate(78.613,-318.557)"
         id="g468"><path
           id="path470"
           style="fill:none;stroke:#231f20;stroke-width:0.75;stroke-linecap:square;stroke-linejoin:miter;stroke-miterlimit:10;stroke-dasharray:none;stroke-opacity:1"
           d="M 0,0 H 22.5" /></g></g><path
       id="path472"
       style="fill:#ffffff;fill-opacity:1;fill-rule:nonzero;stroke:none"
       d="m 151.748,114.189 h 162 v 15.375 h -162 z" /><g
       transform="translate(159.435,129.564)"
       id="g474"><path
         id="path476"
         style="fill:none;stroke:#231f20;stroke-width:0.75;stroke-linecap:square;stroke-linejoin:miter;stroke-miterlimit:10;stroke-dasharray:none;stroke-opacity:1"
         d="m 0,0 h 146.625 c 4.244,0 7.688,-3.444 7.688,-7.688 0,-4.243 -3.444,-7.687 -7.688,-7.687 H 0 c -4.244,0 -7.687,3.444 -7.687,7.687 C -7.687,-3.444 -4.244,0 0,0 Z" /></g><text
       id="text480"
       style="font-variant:normal;font-weight:normal;font-stretch:normal;font-size:9px;font-family:Times;-inkscape-font-specification:Times-Roman;writing-mode:lr-tb;fill:#231f20;fill-opacity:1;fill-rule:nonzero;stroke:none"
       transform="matrix(1,0,0,-1,157.211,119.6357)"><tspan
         id="tspan478"
         y="0"
         x="0 4.5 9 11.25 13.5 18 22.5 27 31.5 33.75 36 39.995998 43.497002 46.998001 50.993999 57.995998 62.495998 64.998001 69.498001 73.998001 77.994003 82.494003 89.496002 93.996002 98.496002 102.996 106.992 111.492 113.994 118.494 122.994 126.495 130.491 134.991">13, 1000, assembly_component_usage</tspan></text>
</g></svg>