<?xml version="1.0" encoding="UTF-8" standalone="no"?>
<svg
   xmlns:dc="http://purl.org/dc/elements/1.1/"
   xmlns:cc="http://creativecommons.org/ns#"
   xmlns:rdf="http://www.w3.org/1999/02/22-rdf-syntax-ns#"
   xmlns:svg="http://www.w3.org/2000/svg"
   xmlns="http://www.w3.org/2000/svg"
   viewBox="0 0 389.50668 400.5"
   height="400.5"
   width="389.50668"
   xml:space="preserve"
   id="svg2"
   version="1.1"><metadata
     id="metadata8"><rdf:RDF><cc:Work
         rdf:about=""><dc:format>image/svg+xml</dc:format><dc:type
           rdf:resource="http://purl.org/dc/dcmitype/StillImage" /></cc:Work></rdf:RDF></metadata><defs
     id="defs6" /><g
     transform="matrix(1.3333333,0,0,-1.3333333,0,400.5)"
     id="g10"><g
       transform="translate(178.313,292.313)"
       id="g12"><path
         id="path14"
         style="fill:none;stroke:#231f20;stroke-width:0.75;stroke-linecap:square;stroke-linejoin:miter;stroke-miterlimit:10;stroke-dasharray:none;stroke-opacity:1"
         d="M 0,0 H -75.75" /><g
         transform="translate(-147.568,-32.812)"
         id="g16"><path
           id="path18"
           style="fill:none;stroke:#231f20;stroke-width:0.75;stroke-linecap:square;stroke-linejoin:miter;stroke-miterlimit:10;stroke-dasharray:none;stroke-opacity:1"
           d="M 0,0 -0.052,15.75" /><g
           transform="translate(41.011,-15.187)"
           id="g20"><path
             id="path22"
             style="fill:none;stroke:#231f20;stroke-width:0.75;stroke-linecap:square;stroke-linejoin:miter;stroke-miterlimit:10;stroke-dasharray:none;stroke-opacity:1"
             d="M 0,0 H 102.75" /><g
             transform="translate(0,-23.625)"
             id="g24"><path
               id="path26"
               style="fill:none;stroke:#231f20;stroke-width:0.75;stroke-linecap:square;stroke-linejoin:miter;stroke-miterlimit:10;stroke-dasharray:none;stroke-opacity:1"
               d="M 0,0 H 128.25" /><g
               transform="translate(0,-23.625)"
               id="g28"><path
                 id="path30"
                 style="fill:none;stroke:#231f20;stroke-width:0.75;stroke-linecap:square;stroke-linejoin:miter;stroke-miterlimit:10;stroke-dasharray:none;stroke-opacity:1"
                 d="M 0,0 H 138.75" /><g
                 transform="translate(0,-23.625)"
                 id="g32"><path
                   id="path34"
                   style="fill:none;stroke:#231f20;stroke-width:0.75;stroke-linecap:square;stroke-linejoin:miter;stroke-miterlimit:10;stroke-dasharray:none;stroke-opacity:1"
                   d="M 0,0 H 120" /><g
                   transform="translate(0,-23.625)"
                   id="g36"><path
                     id="path38"
                     style="fill:none;stroke:#231f20;stroke-width:0.75;stroke-linecap:square;stroke-linejoin:miter;stroke-miterlimit:10;stroke-dasharray:none;stroke-opacity:1"
                     d="M 0,0 H 22.5" /><g
                     transform="translate(0,-23.626)"
                     id="g40"><path
                       id="path42"
                       style="fill:none;stroke:#231f20;stroke-width:0.75;stroke-linecap:square;stroke-linejoin:miter;stroke-miterlimit:10;stroke-dasharray:none;stroke-opacity:1"
                       d="M 0,0 H 114.75" /><g
                       transform="translate(0,-23.625)"
                       id="g44"><path
                         id="path46"
                         style="fill:none;stroke:#231f20;stroke-width:0.75;stroke-linecap:square;stroke-linejoin:miter;stroke-miterlimit:10;stroke-dasharray:none;stroke-opacity:1"
                         d="M 0,0 H 111.75" /><g
                         transform="translate(0,-23.625)"
                         id="g48"><path
                           id="path50"
                           style="fill:none;stroke:#231f20;stroke-width:0.75;stroke-linecap:square;stroke-linejoin:miter;stroke-miterlimit:10;stroke-dasharray:none;stroke-opacity:1"
                           d="M 0,0 H 66" /><g
                           transform="translate(0,-23.625)"
                           id="g52"><path
                             id="path54"
                             style="fill:none;stroke:#231f20;stroke-width:0.75;stroke-linecap:square;stroke-linejoin:miter;stroke-miterlimit:10;stroke-dasharray:none;stroke-opacity:1"
                             d="M 0,0 H 87.75" /><g
                             transform="translate(0,-23.625)"
                             id="g56"><path
                               id="path58"
                               style="fill:none;stroke:#231f20;stroke-width:0.75;stroke-linecap:square;stroke-linejoin:miter;stroke-miterlimit:10;stroke-dasharray:none;stroke-opacity:1"
                               d="M 0,0 H 54.75" /><g
                               transform="translate(0,-23.625)"
                               id="g60"><path
                                 id="path62"
                                 style="fill:none;stroke:#231f20;stroke-width:0.75;stroke-linecap:square;stroke-linejoin:miter;stroke-miterlimit:10;stroke-dasharray:none;stroke-opacity:1"
                                 d="M 0,0 H 124.5" /></g></g></g></g></g></g></g></g></g></g></g></g></g><path
       id="path64"
       style="fill:#ffffff;fill-opacity:1;fill-rule:nonzero;stroke:none"
       d="m 178.313,284.625 h 73.5 V 300 h -73.5 z" /><g
       transform="translate(186,300)"
       id="g66"><path
         id="path68"
         style="fill:none;stroke:#231f20;stroke-width:0.75;stroke-linecap:square;stroke-linejoin:miter;stroke-miterlimit:10;stroke-dasharray:none;stroke-opacity:1"
         d="m 0,0 h 58.125 c 4.244,0 7.688,-3.444 7.688,-7.687 0,-4.244 -3.444,-7.688 -7.688,-7.688 H 0 c -4.243,0 -7.687,3.444 -7.687,7.688 C -7.687,-3.444 -4.243,0 0,0 Z" /></g><text
       id="text74"
       style="font-variant:normal;font-weight:normal;font-stretch:normal;font-size:9px;font-family:Times;-inkscape-font-specification:Times-Roman;writing-mode:lr-tb;fill:#231f20;fill-opacity:1;fill-rule:nonzero;stroke:none"
       transform="matrix(1,0,0,-1,192.7969,289.811)"><tspan
         id="tspan70"
         y="0"
         x="0 4.5 9 11.25 13.5 18 22.5 24.75 27 29.502001 33.362999 37.862999 40.365002">65, 44, text</tspan><tspan
         id="tspan72"
         y="8.4825001"
         x="-82.734299 -78.738297 -76.236298 -73.734299 -70.737297 -68.235298 -63.915298 -59.415298 -56.9133 -52.917301 -48.417301 -44.1423 -40.146301 -37.644299 -33.144299 -29.1483">attribute_value</tspan></text>
<path
       id="path76"
       style="fill:#ffffff;fill-opacity:1;fill-rule:nonzero;stroke:none"
       d="m 5.8125,275.25 h 96.75 V 300 h -96.75 z" /><g
       transform="translate(5.8125,300)"
       id="g78"><path
         id="path80"
         style="fill:none;stroke:#231f20;stroke-width:0.75;stroke-linecap:square;stroke-linejoin:miter;stroke-miterlimit:10;stroke-dasharray:none;stroke-opacity:1"
         d="M 96.75,0 H 0 v -24.75 h 96.75 z" /><g
         id="g82"><path
           id="path84"
           style="fill:none;stroke:#231f20;stroke-width:0.75;stroke-linecap:square;stroke-linejoin:miter;stroke-miterlimit:10;stroke-dasharray:none;stroke-opacity:1"
           d="M 0,0 Z" /></g></g><text
       id="text88"
       style="font-variant:normal;font-weight:normal;font-stretch:normal;font-size:9px;font-family:Times;-inkscape-font-specification:Times-Roman;writing-mode:lr-tb;fill:#231f20;fill-opacity:1;fill-rule:nonzero;stroke:none"
       transform="matrix(1,0,0,-1,13.6699,285.3262)"><tspan
         id="tspan86"
         y="0"
         x="0 4.5 8.4960003 11.997 15.993 18.99 21.492001 25.992001 28.493999 30.996 35.495998 39.995998 44.495998 48.492001 50.993999 53.495998 56.493 58.994999 63.314999 67.815002 70.317001 74.313004">description_attribute</tspan></text>
<path
       id="path90"
       style="fill:#ffffff;fill-opacity:1;fill-rule:nonzero;stroke:none"
       d="m 0.37502,0.375 h 71.38 V 252 h -71.38 z" /><path
       id="path92"
       style="fill:none;stroke:#231f20;stroke-width:0.75;stroke-linecap:square;stroke-linejoin:miter;stroke-miterlimit:10;stroke-dasharray:3.75, 3.75;stroke-dashoffset:0;stroke-opacity:1"
       d="M 0.37502,252 V 0.375 H 71.755 V 252 Z" /><path
       id="path94"
       style="fill:none;stroke:#231f20;stroke-width:0.75;stroke-linecap:square;stroke-linejoin:miter;stroke-miterlimit:10;stroke-dasharray:3.75, 3.75;stroke-dashoffset:0;stroke-opacity:1"
       d="M 7.875,0.375 V 252" /><text
       id="text100"
       style="font-variant:normal;font-weight:normal;font-stretch:normal;font-size:9px;font-family:Times;-inkscape-font-specification:Times-Roman;writing-mode:lr-tb;fill:#231f20;fill-opacity:1;fill-rule:nonzero;stroke:none"
       transform="matrix(1,0,0,-1,17.6272,138.5547)"><tspan
         id="tspan96"
         y="0"
         x="0 4.5 8.4960003 11.997 15.993 18.99 21.492001 25.992001 28.493999 30.996 35.495998 39.995998 44.495998">description_</tspan><tspan
         id="tspan98"
         y="10.9998"
         x="-5.1570001 -1.161 1.341 3.8429999 6.8400002 9.342 13.662 18.162001 20.664 24.66 29.16 32.660999 36.657001 39.159 43.154999 47.151001 49.653">attribute_select</tspan></text>
<g
       transform="translate(34.533,255.691)"
       id="g102"><path
         id="path104"
         style="fill:#ffffff;fill-opacity:1;fill-rule:nonzero;stroke:none"
         d="M 0,0 C 0,2.07 -1.68,3.75 -3.75,3.75 -5.82,3.75 -7.5,2.07 -7.5,0 c 0,-2.07 1.68,-3.75 3.75,-3.75 C -1.68,-3.75 0,-2.07 0,0" /></g><g
       transform="translate(34.533,255.691)"
       id="g106"><path
         id="path108"
         style="fill:none;stroke:#231f20;stroke-width:0.75;stroke-linecap:square;stroke-linejoin:miter;stroke-miterlimit:10;stroke-dasharray:none;stroke-opacity:1"
         d="M 0,0 C 0,2.07 -1.68,3.75 -3.75,3.75 -5.82,3.75 -7.5,2.07 -7.5,0 c 0,-2.07 1.68,-3.75 3.75,-3.75 C -1.68,-3.75 0,-2.07 0,0" /></g><text
       id="text112"
       style="font-variant:normal;font-weight:normal;font-stretch:normal;font-size:9px;font-family:Times;-inkscape-font-specification:Times-Roman;writing-mode:lr-tb;fill:#231f20;fill-opacity:1;fill-rule:nonzero;stroke:none"
       transform="matrix(1,0,0,-1,41.9424,264.2656)"><tspan
         id="tspan110"
         y="0"
         x="0 4.5 8.4960003 11.997 15.993 18.99 21.492001 25.992001 29.988001 34.487999 38.987999 41.490002 43.992001 47.987999 54.990002">described_item</tspan></text>
<path
       id="path114"
       style="fill:#ffffff;fill-opacity:1;fill-rule:nonzero;stroke:none"
       d="m 174.505,236.626 h 117.25 v 15.375 h -117.25 z" /><g
       transform="translate(182.192,252)"
       id="g116"><path
         id="path118"
         style="fill:none;stroke:#231f20;stroke-width:0.75;stroke-linecap:square;stroke-linejoin:miter;stroke-miterlimit:10;stroke-dasharray:none;stroke-opacity:1"
         d="m 0,0 h 101.875 c 4.243,0 7.688,-3.444 7.688,-7.687 0,-4.244 -3.445,-7.688 -7.688,-7.688 H 0 c -4.243,0 -7.687,3.444 -7.687,7.688 C -7.687,-3.444 -4.243,0 0,0 Z" /></g><text
       id="text122"
       style="font-variant:normal;font-weight:normal;font-stretch:normal;font-size:9px;font-family:Times;-inkscape-font-specification:Times-Roman;writing-mode:lr-tb;fill:#231f20;fill-opacity:1;fill-rule:nonzero;stroke:none"
       transform="matrix(1,0,0,-1,181.0957,242.0137)"><tspan
         id="tspan120"
         y="0"
         x="0 4.5 9 11.25 13.5 18 22.5 27 29.25 31.5 35.495998 39.995998 44.495998 46.998001 49.5 53.495998 57.492001 59.993999 62.495998 66.996002 71.496002 75.996002 79.991997 84.491997 88.991997 91.494003 95.355003 99.855003 102.357">12, 111, application_context</tspan></text>
<path
       id="path124"
       style="fill:#ffffff;fill-opacity:1;fill-rule:nonzero;stroke:none"
       d="m 200.005,213.001 h 91.75 v 15.375 h -91.75 z" /><g
       transform="translate(207.692,228.376)"
       id="g126"><path
         id="path128"
         style="fill:none;stroke:#231f20;stroke-width:0.75;stroke-linecap:square;stroke-linejoin:miter;stroke-miterlimit:10;stroke-dasharray:none;stroke-opacity:1"
         d="m 0,0 h 76.375 c 4.243,0 7.688,-3.444 7.688,-7.687 0,-4.244 -3.445,-7.688 -7.688,-7.688 H 0 c -4.243,0 -7.687,3.444 -7.687,7.688 C -7.687,-3.444 -4.243,0 0,0 Z" /></g><text
       id="text132"
       style="font-variant:normal;font-weight:normal;font-stretch:normal;font-size:9px;font-family:Times;-inkscape-font-specification:Times-Roman;writing-mode:lr-tb;fill:#231f20;fill-opacity:1;fill-rule:nonzero;stroke:none"
       transform="matrix(1,0,0,-1,207.6064,218.3887)"><tspan
         id="tspan130"
         y="0"
         x="0 4.5 9 11.25 13.5 18 22.5 24.75 27 30.996 35.495998 39.995998 42.993 47.358002 51.632999 55.629002 58.131001 62.631001 65.627998 70.127998 72.629997 76.625999">60, 95, approval_role</tspan></text>
<path
       id="path134"
       style="fill:#ffffff;fill-opacity:1;fill-rule:nonzero;stroke:none"
       d="m 210.505,189.376 h 81.25 v 15.375 h -81.25 z" /><g
       transform="translate(218.192,204.751)"
       id="g136"><path
         id="path138"
         style="fill:none;stroke:#231f20;stroke-width:0.75;stroke-linecap:square;stroke-linejoin:miter;stroke-miterlimit:10;stroke-dasharray:none;stroke-opacity:1"
         d="m 0,0 h 65.875 c 4.243,0 7.688,-3.444 7.688,-7.687 0,-4.244 -3.445,-7.688 -7.688,-7.688 H 0 c -4.243,0 -7.687,3.444 -7.687,7.688 C -7.687,-3.444 -4.243,0 0,0 Z" /></g><text
       id="text142"
       style="font-variant:normal;font-weight:normal;font-stretch:normal;font-size:9px;font-family:Times;-inkscape-font-specification:Times-Roman;writing-mode:lr-tb;fill:#231f20;fill-opacity:1;fill-rule:nonzero;stroke:none"
       transform="matrix(1,0,0,-1,218.8555,194.4932)"><tspan
         id="tspan140"
         y="0"
         x="0 4.5 9 11.25 13.5 18 22.5 27 29.25 31.5 36 39.995998 42.498001 46.493999 50.993999 53.991001 58.491001 60.993 64.988998">57, 113, date_role</tspan></text>
<path
       id="path144"
       style="fill:#ffffff;fill-opacity:1;fill-rule:nonzero;stroke:none"
       d="m 191.755,165.751 h 100 v 15.375 h -100 z" /><g
       transform="translate(199.442,181.126)"
       id="g146"><path
         id="path148"
         style="fill:none;stroke:#231f20;stroke-width:0.75;stroke-linecap:square;stroke-linejoin:miter;stroke-miterlimit:10;stroke-dasharray:none;stroke-opacity:1"
         d="m 0,0 h 84.625 c 4.243,0 7.688,-3.444 7.688,-7.687 0,-4.244 -3.445,-7.688 -7.688,-7.688 H 0 c -4.243,0 -7.687,3.444 -7.687,7.688 C -7.687,-3.444 -4.243,0 0,0 Z" /></g><text
       id="text152"
       style="font-variant:normal;font-weight:normal;font-stretch:normal;font-size:9px;font-family:Times;-inkscape-font-specification:Times-Roman;writing-mode:lr-tb;fill:#231f20;fill-opacity:1;fill-rule:nonzero;stroke:none"
       transform="matrix(1,0,0,-1,198.4775,170.8682)"><tspan
         id="tspan150"
         y="0"
         x="0 4.5 9 11.25 13.5 18 22.5 27 29.25 31.5 36 39.995998 42.498001 46.493999 50.993999 53.495998 55.998001 63 66.996002 71.496002 74.492996 78.992996 81.495003 85.490997">57, 114, date_time_role</tspan></text>
<path
       id="path154"
       style="fill:#ffffff;fill-opacity:1;fill-rule:nonzero;stroke:none"
       d="m 94.255,142.125 h 197.5 v 15.376 h -197.5 z" /><g
       transform="translate(101.942,157.501)"
       id="g156"><path
         id="path158"
         style="fill:none;stroke:#231f20;stroke-width:0.75;stroke-linecap:square;stroke-linejoin:miter;stroke-miterlimit:10;stroke-dasharray:none;stroke-opacity:1"
         d="m 0,0 h 182.125 c 4.243,0 7.688,-3.444 7.688,-7.687 0,-4.243 -3.445,-7.689 -7.688,-7.689 L 0,-15.376 c -4.244,0 -7.688,3.446 -7.688,7.689 C -7.688,-3.444 -4.244,0 0,0 Z" /></g><text
       id="text162"
       style="font-variant:normal;font-weight:normal;font-stretch:normal;font-size:9px;font-family:Times;-inkscape-font-specification:Times-Roman;writing-mode:lr-tb;fill:#231f20;fill-opacity:1;fill-rule:nonzero;stroke:none"
       transform="matrix(1,0,0,-1,103.188,147.5137)"><tspan
         id="tspan160"
         y="0"
         x="0 4.5 9 11.25 13.5 18 22.5 27 29.25 31.5 35.495998 39.995998 44.495998 46.998001 50.859001 55.359001 57.861 62.361 66.861 70.857002 75.357002 79.352997 83.852997 88.352997 92.348999 96.848999 99.350998 103.851 107.352 111.852 115.848 120.348 124.344 128.84399 131.841 135.83701 140.33701 143.334 147.33 150.83099 154.827 159.327 161.82899 165.825 168.327 170.82899 175.32899 179.82899">22, 116, context_dependent_shape_representation</tspan></text>
<path
       id="path164"
       style="fill:#ffffff;fill-opacity:1;fill-rule:nonzero;stroke:none"
       d="m 186.505,118.5 h 105.25 v 15.375 h -105.25 z" /><g
       transform="translate(194.192,133.875)"
       id="g166"><path
         id="path168"
         style="fill:none;stroke:#231f20;stroke-width:0.75;stroke-linecap:square;stroke-linejoin:miter;stroke-miterlimit:10;stroke-dasharray:none;stroke-opacity:1"
         d="m 0,0 h 89.875 c 4.243,0 7.688,-3.443 7.688,-7.687 0,-4.243 -3.445,-7.688 -7.688,-7.688 H 0 c -4.243,0 -7.687,3.445 -7.687,7.688 C -7.687,-3.443 -4.243,0 0,0 Z" /></g><text
       id="text172"
       style="font-variant:normal;font-weight:normal;font-stretch:normal;font-size:9px;font-family:Times;-inkscape-font-specification:Times-Roman;writing-mode:lr-tb;fill:#231f20;fill-opacity:1;fill-rule:nonzero;stroke:none"
       transform="matrix(1,0,0,-1,193.6025,123.6182)"><tspan
         id="tspan170"
         y="0"
         x="0 4.5 9 11.25 13.5 18 22.5 27 29.25 31.5 35.361 39.861 42.362999 46.359001 49.355999 53.855999 57.852001 60.354 64.853996 68.355003 72.855003 77.355003 80.351997 84.348 88.344002">16, 118, external_source</tspan></text>
<path
       id="path174"
       style="fill:#ffffff;fill-opacity:1;fill-rule:nonzero;stroke:none"
       d="m 183.505,94.875 h 108.25 v 15.375 h -108.25 z" /><g
       transform="translate(191.192,110.25)"
       id="g176"><path
         id="path178"
         style="fill:none;stroke:#231f20;stroke-width:0.75;stroke-linecap:square;stroke-linejoin:miter;stroke-miterlimit:10;stroke-dasharray:none;stroke-opacity:1"
         d="m 0,0 h 92.875 c 4.243,0 7.688,-3.443 7.688,-7.687 0,-4.243 -3.445,-7.688 -7.688,-7.688 H 0 c -4.243,0 -7.687,3.445 -7.687,7.688 C -7.687,-3.443 -4.243,0 0,0 Z" /></g><text
       id="text182"
       style="font-variant:normal;font-weight:normal;font-stretch:normal;font-size:9px;font-family:Times;-inkscape-font-specification:Times-Roman;writing-mode:lr-tb;fill:#231f20;fill-opacity:1;fill-rule:nonzero;stroke:none"
       transform="matrix(1,0,0,-1,189.6006,100.3223)"><tspan
         id="tspan180"
         y="0"
         x="0 4.4981999 8.9963999 11.2446 13.4946 17.9928 22.490999 26.989201 29.2374 31.4874 35.9856 38.820599 43.318802 47.313 51.811199 54.311401 58.305599 62.299801 64.800003 67.300201 71.798401 76.2966 80.7948 83.790001 88.2882 90.788399 94.7826">54, 119, organization_role</tspan></text>
<path
       id="path184"
       style="fill:#ffffff;fill-opacity:1;fill-rule:nonzero;stroke:none"
       d="m 137.755,71.25 h 154 v 15.375 h -154 z" /><g
       transform="translate(145.442,86.625)"
       id="g186"><path
         id="path188"
         style="fill:none;stroke:#231f20;stroke-width:0.75;stroke-linecap:square;stroke-linejoin:miter;stroke-miterlimit:10;stroke-dasharray:none;stroke-opacity:1"
         d="m 0,0 h 138.625 c 4.243,0 7.688,-3.443 7.688,-7.687 0,-4.243 -3.445,-7.688 -7.688,-7.688 H 0 c -4.244,0 -7.687,3.445 -7.687,7.688 C -7.687,-3.443 -4.244,0 0,0 Z" /></g><text
       id="text192"
       style="font-variant:normal;font-weight:normal;font-stretch:normal;font-size:9px;font-family:Times;-inkscape-font-specification:Times-Roman;writing-mode:lr-tb;fill:#231f20;fill-opacity:1;fill-rule:nonzero;stroke:none"
       transform="matrix(1,0,0,-1,140.46,76.6973)"><tspan
         id="tspan190"
         y="0"
         x="0 4.4991002 8.9982004 11.2473 13.4973 17.996401 22.495501 26.9946 29.2437 31.4937 35.992802 39.9879 42.984001 46.4841 50.9832 55.4823 59.9814 63.976501 68.475601 72.974701 77.473801 81.9729 84.807899 89.306999 93.302101 97.801201 100.3023 104.2974 108.2925 110.7936 113.2947 117.7938 122.2929 126.792 129.7881 134.2872 136.7883 140.7834">53, 120, person_and_organization_role</tspan></text>
<path
       id="path194"
       style="fill:#ffffff;fill-opacity:1;fill-rule:nonzero;stroke:none"
       d="m 159.505,47.625 h 132.25 V 63 h -132.25 z" /><g
       transform="translate(167.192,63)"
       id="g196"><path
         id="path198"
         style="fill:none;stroke:#231f20;stroke-width:0.75;stroke-linecap:square;stroke-linejoin:miter;stroke-miterlimit:10;stroke-dasharray:none;stroke-opacity:1"
         d="m 0,0 h 116.875 c 4.243,0 7.688,-3.443 7.688,-7.687 0,-4.243 -3.445,-7.688 -7.688,-7.688 H 0 c -4.243,0 -7.687,3.445 -7.687,7.688 C -7.687,-3.443 -4.243,0 0,0 Z" /></g><text
       id="text202"
       style="font-variant:normal;font-weight:normal;font-stretch:normal;font-size:9px;font-family:Times;-inkscape-font-specification:Times-Roman;writing-mode:lr-tb;fill:#231f20;fill-opacity:1;fill-rule:nonzero;stroke:none"
       transform="matrix(1,0,0,-1,163.8398,53.0723)"><tspan
         id="tspan200"
         y="0"
         x="0 4.4981999 8.9963999 11.2446 13.4946 17.9928 22.490999 24.739201 26.989201 31.4874 35.481602 38.476799 41.976002 46.474201 50.972401 55.4706 59.464802 63.963001 68.461197 72.959396 77.457603 80.292603 84.790802 88.785004 93.283203 95.783401 99.777603 103.7718 106.272 108.7722 113.2704 117.7686">53, 91, person_and_organization</tspan></text>
<path
       id="path204"
       style="fill:#ffffff;fill-opacity:1;fill-rule:nonzero;stroke:none"
       d="m 126.505,24 h 165.25 v 15.375 h -165.25 z" /><g
       transform="translate(134.192,39.375)"
       id="g206"><path
         id="path208"
         style="fill:none;stroke:#231f20;stroke-width:0.75;stroke-linecap:square;stroke-linejoin:miter;stroke-miterlimit:10;stroke-dasharray:none;stroke-opacity:1"
         d="m 0,0 h 149.875 c 4.243,0 7.688,-3.443 7.688,-7.687 0,-4.243 -3.445,-7.688 -7.688,-7.688 H 0 c -4.244,0 -7.687,3.445 -7.687,7.688 C -7.687,-3.443 -4.244,0 0,0 Z" /></g><text
       id="text212"
       style="font-variant:normal;font-weight:normal;font-stretch:normal;font-size:9px;font-family:Times;-inkscape-font-specification:Times-Roman;writing-mode:lr-tb;fill:#231f20;fill-opacity:1;fill-rule:nonzero;stroke:none"
       transform="matrix(1,0,0,-1,129.835,29.375)"><tspan
         id="tspan210"
         y="0"
         x="0 4.5 9 11.25 13.5 18 22.5 24.75 27 31.5 34.497002 38.997002 43.497002 47.493 50.490002 52.992001 57.492001 61.992001 66.491997 70.487999 73.305 75.806999 80.306999 82.808998 85.310997 87.813004 92.313004 96.813004 101.313 104.31 108.306 112.806 115.803 119.799 123.3 127.296 131.79601 134.298 138.29401 140.79601 143.298 147.798 152.298">15, 63, property_definition_representation</tspan></text>
<path
       id="path214"
       style="fill:#ffffff;fill-opacity:1;fill-rule:nonzero;stroke:none"
       d="m 196.255,0.375 h 95.5 V 15.75 h -95.5 z" /><g
       transform="translate(203.942,15.75)"
       id="g216"><path
         id="path218"
         style="fill:none;stroke:#231f20;stroke-width:0.75;stroke-linecap:square;stroke-linejoin:miter;stroke-miterlimit:10;stroke-dasharray:none;stroke-opacity:1"
         d="m 0,0 h 80.125 c 4.243,0 7.688,-3.443 7.688,-7.6875 0,-4.2425 -3.445,-7.6875 -7.688,-7.6875 H 0 c -4.243,0 -7.687,3.445 -7.687,7.6875 C -7.687,-3.443 -4.243,0 0,0 Z" /></g><text
       id="text222"
       style="font-variant:normal;font-weight:normal;font-stretch:normal;font-size:9px;font-family:Times;-inkscape-font-specification:Times-Roman;writing-mode:lr-tb;fill:#231f20;fill-opacity:1;fill-rule:nonzero;stroke:none"
       transform="matrix(1,0,0,-1,204.2285,5.7637)"><tspan
         id="tspan220"
         y="0"
         x="0 4.5 9 11.25 13.5 18 22.5 24.75 27 29.997 33.993 38.493 41.490002 45.486 48.987 52.983002 57.483002 59.985001 63.980999 66.483002 68.985001 73.485001 77.985001">18, 61, representation</tspan></text>
</g></svg>