<?xml version="1.0" encoding="UTF-8" standalone="no"?>
<svg
   xmlns:dc="http://purl.org/dc/elements/1.1/"
   xmlns:cc="http://creativecommons.org/ns#"
   xmlns:rdf="http://www.w3.org/1999/02/22-rdf-syntax-ns#"
   xmlns:svg="http://www.w3.org/2000/svg"
   xmlns="http://www.w3.org/2000/svg"
   viewBox="0 0 441 398.10934"
   height="398.10934"
   width="441"
   xml:space="preserve"
   id="svg2"
   version="1.1"><metadata
     id="metadata8"><rdf:RDF><cc:Work
         rdf:about=""><dc:format>image/svg+xml</dc:format><dc:type
           rdf:resource="http://purl.org/dc/dcmitype/StillImage" /></cc:Work></rdf:RDF></metadata><defs
     id="defs6" /><g
     transform="matrix(1.3333333,0,0,-1.3333333,0,398.10933)"
     id="g10"><g
       transform="translate(18.048,210.667)"
       id="g12"><path
         id="path14"
         style="fill:none;stroke:#231f20;stroke-width:2.25;stroke-linecap:square;stroke-linejoin:miter;stroke-miterlimit:10;stroke-dasharray:none;stroke-opacity:1"
         d="M 0,0 V -5.484" /><g
         transform="translate(0,-81.984)"
         id="g16"><path
           id="path18"
           style="fill:none;stroke:#231f20;stroke-width:2.25;stroke-linecap:square;stroke-linejoin:miter;stroke-miterlimit:10;stroke-dasharray:none;stroke-opacity:1"
           d="M 0,0 V 76.5" /><g
           transform="translate(0,35.437)"
           id="g20"><path
             id="path22"
             style="fill:none;stroke:#231f20;stroke-width:2.25;stroke-linecap:square;stroke-linejoin:miter;stroke-miterlimit:10;stroke-dasharray:none;stroke-opacity:1"
             d="M 0,0 V 41.063" /><g
             transform="translate(0,36)"
             id="g24"><path
               id="path26"
               style="fill:none;stroke:#231f20;stroke-width:2.25;stroke-linecap:square;stroke-linejoin:miter;stroke-miterlimit:10;stroke-dasharray:none;stroke-opacity:1"
               d="M 0,0 V 5.063" /><g
               transform="translate(0,-18.562)"
               id="g28"><path
                 id="path30"
                 style="fill:none;stroke:#231f20;stroke-width:2.25;stroke-linecap:square;stroke-linejoin:miter;stroke-miterlimit:10;stroke-dasharray:none;stroke-opacity:1"
                 d="M 0,0 V 23.625" /><g
                 transform="translate(0,-34.312)"
                 id="g32"><path
                   id="path34"
                   style="fill:none;stroke:#231f20;stroke-width:2.25;stroke-linecap:square;stroke-linejoin:miter;stroke-miterlimit:10;stroke-dasharray:none;stroke-opacity:1"
                   d="M 0,0 V 57.937" /><g
                   transform="translate(0,16.875)"
                   id="g36"><path
                     id="path38"
                     style="fill:none;stroke:#231f20;stroke-width:2.25;stroke-linecap:square;stroke-linejoin:miter;stroke-miterlimit:10;stroke-dasharray:none;stroke-opacity:1"
                     d="M 0,0 H 12.563" /><g
                     transform="translate(0,36)"
                     id="g40"><path
                       id="path42"
                       style="fill:none;stroke:#231f20;stroke-width:2.25;stroke-linecap:square;stroke-linejoin:miter;stroke-miterlimit:10;stroke-dasharray:none;stroke-opacity:1"
                       d="M 0,0 H 13.125" /><g
                       transform="translate(0,-18.562)"
                       id="g44"><path
                         id="path46"
                         style="fill:none;stroke:#231f20;stroke-width:2.25;stroke-linecap:square;stroke-linejoin:miter;stroke-miterlimit:10;stroke-dasharray:none;stroke-opacity:1"
                         d="M 0,0 H 13.125" /><g
                         transform="translate(0,-34.312)"
                         id="g48"><path
                           id="path50"
                           style="fill:none;stroke:#231f20;stroke-width:2.25;stroke-linecap:square;stroke-linejoin:miter;stroke-miterlimit:10;stroke-dasharray:none;stroke-opacity:1"
                           d="M 0,0 H 12.812" /></g></g></g></g></g></g></g></g></g></g><g
       transform="translate(217.874,225.245)"
       id="g52"><path
         id="path54"
         style="fill:none;stroke:#231f20;stroke-width:0.75;stroke-linecap:square;stroke-linejoin:miter;stroke-miterlimit:10;stroke-dasharray:none;stroke-opacity:1"
         d="M 0,0 -99.373,0.209" /></g><g
       transform="translate(49.046,240.423)"
       id="g56"><path
         id="path58"
         style="fill:none;stroke:#231f20;stroke-width:2.25;stroke-linecap:square;stroke-linejoin:miter;stroke-miterlimit:10;stroke-dasharray:none;stroke-opacity:1"
         d="M 0,0 -0.296,4.134" /><g
         transform="translate(-31.232,-29.756)"
         id="g60"><path
           id="path62"
           style="fill:none;stroke:#231f20;stroke-width:2.25;stroke-linecap:square;stroke-linejoin:miter;stroke-miterlimit:10;stroke-dasharray:none;stroke-opacity:1"
           d="M 0,0 V 5.484" /><g
           transform="translate(43.222,-187.418)"
           id="g64"><path
             id="path66"
             style="fill:none;stroke:#231f20;stroke-width:2.25;stroke-linecap:square;stroke-linejoin:miter;stroke-miterlimit:10;stroke-dasharray:none;stroke-opacity:1"
             d="M 0,0 -0.097,3.996" /><g
             transform="translate(-42.988,105.434)"
             id="g68"><path
               id="path70"
               style="fill:none;stroke:#231f20;stroke-width:2.25;stroke-linecap:square;stroke-linejoin:miter;stroke-miterlimit:10;stroke-dasharray:none;stroke-opacity:1"
               d="M 0,0 H 20.577" /><g
               transform="translate(152.173,-105.434)"
               id="g72"><path
                 id="path74"
                 style="fill:none;stroke:#231f20;stroke-width:2.25;stroke-linecap:square;stroke-linejoin:miter;stroke-miterlimit:10;stroke-dasharray:none;stroke-opacity:1"
                 d="M 0,0 -0.073,4.876" /><g
                 transform="translate(110.514,161.683)"
                 id="g76"><path
                   id="path78"
                   style="fill:none;stroke:#231f20;stroke-width:2.25;stroke-linecap:square;stroke-linejoin:miter;stroke-miterlimit:10;stroke-dasharray:none;stroke-opacity:1"
                   d="M 0,0 V 10.125" /><g
                   transform="translate(-223.254,-134.813)"
                   id="g80"><path
                     id="path82"
                     style="fill:none;stroke:#231f20;stroke-width:2.25;stroke-linecap:square;stroke-linejoin:miter;stroke-miterlimit:10;stroke-dasharray:none;stroke-opacity:1"
                     d="M 0,0 0.275,10.338" /><g
                     transform="translate(-9.386,217.313)"
                     id="g84"><path
                       id="path86"
                       style="fill:none;stroke:#231f20;stroke-width:2.25;stroke-linecap:square;stroke-linejoin:miter;stroke-miterlimit:10;stroke-dasharray:none;stroke-opacity:1"
                       d="M 0,0 0.286,12.025" /><g
                       transform="translate(-30.047,-56.765)"
                       id="g88"><path
                         id="path90"
                         style="fill:none;stroke:#231f20;stroke-width:2.25;stroke-linecap:square;stroke-linejoin:miter;stroke-miterlimit:10;stroke-dasharray:none;stroke-opacity:1"
                         d="M 0,0 H -0.233" /><g
                         transform="translate(226.125,-25.734)"
                         id="g92"><path
                           id="path94"
                           style="fill:none;stroke:#231f20;stroke-width:2.25;stroke-linecap:square;stroke-linejoin:miter;stroke-miterlimit:10;stroke-dasharray:none;stroke-opacity:1"
                           d="M 0,0 H 36.563" /></g></g></g></g></g></g></g></g></g></g><path
       id="path96"
       style="fill:#ffffff;fill-opacity:1;fill-rule:nonzero;stroke:none"
       d="m 38.625,121.183 h 196.25 v 15.375 H 38.625 Z" /><g
       transform="translate(46.312,136.558)"
       id="g98"><path
         id="path100"
         style="fill:none;stroke:#231f20;stroke-width:0.75;stroke-linecap:square;stroke-linejoin:miter;stroke-miterlimit:10;stroke-dasharray:none;stroke-opacity:1"
         d="m 0,0 h 180.874 c 4.244,0 7.688,-3.444 7.688,-7.687 0,-4.244 -3.444,-7.688 -7.688,-7.688 H 0 c -4.244,0 -7.688,3.444 -7.688,7.688 C -7.688,-3.444 -4.244,0 0,0 Z" /></g><text
       id="text104"
       style="font-variant:normal;font-weight:normal;font-stretch:normal;font-size:9px;font-family:Times;-inkscape-font-specification:Times-Roman;writing-mode:lr-tb;fill:#231f20;fill-opacity:1;fill-rule:nonzero;stroke:none"
       transform="matrix(1,0,0,-1,48.1987,126.584)"><tspan
         id="tspan102"
         y="0"
         x="0 4.5 6.75 9 13.5 18 20.25 22.5 29.502001 33.498001 37.493999 41.993999 44.495998 48.995998 51.498001 55.998001 60.498001 64.998001 67.995003 71.990997 75.987 78.488998 82.988998 85.986 89.982002 94.482002 97.983002 101.979 106.479 110.979 114.975 119.475 123.471 127.467 131.967 134.964 138.96001 141.46201 145.45799 147.96001 150.46201 154.96201 159.46201 162.963 167.463 169.965 174.465">3, 15, machining_feature_sequence_relationship</tspan></text>
<path
       id="path106"
       style="fill:#ffffff;fill-opacity:1;fill-rule:nonzero;stroke:none"
       d="m 217.874,217.557 h 112.5 v 15.375 h -112.5 z" /><g
       transform="translate(225.562,232.932)"
       id="g108"><path
         id="path110"
         style="fill:none;stroke:#231f20;stroke-width:0.75;stroke-linecap:square;stroke-linejoin:miter;stroke-miterlimit:10;stroke-dasharray:none;stroke-opacity:1"
         d="m 0,0 h 97.125 c 4.243,0 7.688,-3.444 7.688,-7.687 0,-4.244 -3.445,-7.688 -7.688,-7.688 H 0 c -4.243,0 -7.687,3.444 -7.687,7.688 C -7.687,-3.444 -4.243,0 0,0 Z" /></g><text
       id="text114"
       style="font-variant:normal;font-weight:normal;font-stretch:normal;font-size:9px;font-family:Times;-inkscape-font-specification:Times-Roman;writing-mode:lr-tb;fill:#231f20;fill-opacity:1;fill-rule:nonzero;stroke:none"
       transform="matrix(1,0,0,-1,231.5972,222.7427)"><tspan
         id="tspan112"
         y="0"
         x="0 4.5 9 11.25 13.5 18 22.5 27 29.25 31.5 35.495998 39.995998 44.495998 48.995998 51.498001 55.998001 63 66.996002 70.991997 74.492996 78.992996 81.989998 85.986">48, 157, count_measure</tspan></text>
<path
       id="path116"
       style="fill:#ffffff;fill-opacity:1;fill-rule:nonzero;stroke:none"
       d="m 136.023,28.125 h 68.25 V 43.5 h -68.25 z" /><g
       transform="translate(143.71,43.5)"
       id="g118"><path
         id="path120"
         style="fill:none;stroke:#231f20;stroke-width:0.75;stroke-linecap:square;stroke-linejoin:miter;stroke-miterlimit:10;stroke-dasharray:none;stroke-opacity:1"
         d="m 0,0 h 52.875 c 4.243,0 7.688,-3.444 7.688,-7.687 0,-4.244 -3.445,-7.688 -7.688,-7.688 H 0 c -4.244,0 -7.687,3.444 -7.687,7.688 C -7.687,-3.444 -4.244,0 0,0 Z" /></g><text
       id="text124"
       style="font-variant:normal;font-weight:normal;font-stretch:normal;font-size:9px;font-family:Times;-inkscape-font-specification:Times-Roman;writing-mode:lr-tb;fill:#231f20;fill-opacity:1;fill-rule:nonzero;stroke:none"
       transform="matrix(1,0,0,-1,153.3901,33.4453)"><tspan
         id="tspan122"
         y="0"
         x="0 4.5 6.75 9 13.5 18 20.25 23.247 27.747 30.743999">4, 16 (3)</tspan></text>
<path
       id="path126"
       style="fill:#ffffff;fill-opacity:1;fill-rule:nonzero;stroke:none"
       d="m 246.61,195.057 h 68.25 v 15.375 h -68.25 z" /><g
       transform="translate(254.297,210.432)"
       id="g128"><path
         id="path130"
         style="fill:none;stroke:#231f20;stroke-width:0.75;stroke-linecap:square;stroke-linejoin:miter;stroke-miterlimit:10;stroke-dasharray:none;stroke-opacity:1"
         d="m 0,0 h 52.875 c 4.244,0 7.687,-3.444 7.687,-7.687 0,-4.244 -3.443,-7.688 -7.687,-7.688 H 0 c -4.243,0 -7.687,3.444 -7.687,7.688 C -7.687,-3.444 -4.243,0 0,0 Z" /></g><text
       id="text134"
       style="font-variant:normal;font-weight:normal;font-stretch:normal;font-size:9px;font-family:Times;-inkscape-font-specification:Times-Roman;writing-mode:lr-tb;fill:#231f20;fill-opacity:1;fill-rule:nonzero;stroke:none"
       transform="matrix(1,0,0,-1,263.977,200.3779)"><tspan
         id="tspan132"
         y="0"
         x="0 4.5 6.75 9 13.5 18 20.25 23.247 27.747 30.743999">4, 17 (3)</tspan></text>
<g
       transform="translate(53.021,236.67)"
       id="g136"><path
         id="path138"
         style="fill:#ffffff;fill-opacity:1;fill-rule:nonzero;stroke:none"
         d="M 0,0 C 0,2.07 -1.68,3.75 -3.75,3.75 -5.82,3.75 -7.5,2.07 -7.5,0 c 0,-2.07 1.68,-3.75 3.75,-3.75 C -1.68,-3.75 0,-2.07 0,0" /></g><g
       transform="translate(53.021,236.67)"
       id="g140"><path
         id="path142"
         style="fill:none;stroke:#231f20;stroke-width:0.75;stroke-linecap:square;stroke-linejoin:miter;stroke-miterlimit:10;stroke-dasharray:none;stroke-opacity:1"
         d="M 0,0 C 0,2.07 -1.68,3.75 -3.75,3.75 -5.82,3.75 -7.5,2.07 -7.5,0 c 0,-2.07 1.68,-3.75 3.75,-3.75 C -1.68,-3.75 0,-2.07 0,0" /></g><g
       transform="translate(38.081,164.131)"
       id="g144"><path
         id="path146"
         style="fill:#ffffff;fill-opacity:1;fill-rule:nonzero;stroke:none"
         d="M 0,0 C 0,2.069 -1.68,3.75 -3.75,3.75 -5.82,3.75 -7.5,2.069 -7.5,0 c 0,-2.071 1.68,-3.75 3.75,-3.75 C -1.68,-3.75 0,-2.071 0,0" /></g><g
       transform="translate(38.081,164.131)"
       id="g148"><path
         id="path150"
         style="fill:none;stroke:#231f20;stroke-width:0.75;stroke-linecap:square;stroke-linejoin:miter;stroke-miterlimit:10;stroke-dasharray:none;stroke-opacity:1"
         d="M 0,0 C 0,2.069 -1.68,3.75 -3.75,3.75 -5.82,3.75 -7.5,2.069 -7.5,0 c 0,-2.071 1.68,-3.75 3.75,-3.75 C -1.68,-3.75 0,-2.071 0,0" /></g><g
       transform="translate(64.902,19.501)"
       id="g152"><path
         id="path154"
         style="fill:#ffffff;fill-opacity:1;fill-rule:nonzero;stroke:none"
         d="M 0,0 C 0,2.069 -1.681,3.75 -3.75,3.75 -5.82,3.75 -7.5,2.069 -7.5,0 c 0,-2.07 1.68,-3.75 3.75,-3.75 C -1.681,-3.75 0,-2.07 0,0" /></g><g
       transform="translate(64.902,19.501)"
       id="g156"><path
         id="path158"
         style="fill:none;stroke:#231f20;stroke-width:0.75;stroke-linecap:square;stroke-linejoin:miter;stroke-miterlimit:10;stroke-dasharray:none;stroke-opacity:1"
         d="M 0,0 C 0,2.069 -1.681,3.75 -3.75,3.75 -5.82,3.75 -7.5,2.069 -7.5,0 c 0,-2.07 1.68,-3.75 3.75,-3.75 C -1.681,-3.75 0,-2.07 0,0" /></g><g
       transform="translate(38.622,200.131)"
       id="g160"><path
         id="path162"
         style="fill:#ffffff;fill-opacity:1;fill-rule:nonzero;stroke:none"
         d="M 0,0 C 0,2.069 -1.68,3.75 -3.75,3.75 -5.82,3.75 -7.5,2.069 -7.5,0 c 0,-2.071 1.68,-3.75 3.75,-3.75 C -1.68,-3.75 0,-2.071 0,0" /></g><g
       transform="translate(38.622,200.131)"
       id="g164"><path
         id="path166"
         style="fill:none;stroke:#231f20;stroke-width:0.75;stroke-linecap:square;stroke-linejoin:miter;stroke-miterlimit:10;stroke-dasharray:none;stroke-opacity:1"
         d="M 0,0 C 0,2.069 -1.68,3.75 -3.75,3.75 -5.82,3.75 -7.5,2.069 -7.5,0 c 0,-2.071 1.68,-3.75 3.75,-3.75 C -1.68,-3.75 0,-2.071 0,0" /></g><g
       transform="translate(38.622,181.5)"
       id="g168"><path
         id="path170"
         style="fill:#ffffff;fill-opacity:1;fill-rule:nonzero;stroke:none"
         d="M 0,0 C 0,2.07 -1.68,3.75 -3.75,3.75 -5.82,3.75 -7.5,2.07 -7.5,0 c 0,-2.07 1.68,-3.75 3.75,-3.75 C -1.68,-3.75 0,-2.07 0,0" /></g><g
       transform="translate(38.622,181.5)"
       id="g172"><path
         id="path174"
         style="fill:none;stroke:#231f20;stroke-width:0.75;stroke-linecap:square;stroke-linejoin:miter;stroke-miterlimit:10;stroke-dasharray:none;stroke-opacity:1"
         d="M 0,0 C 0,2.07 -1.68,3.75 -3.75,3.75 -5.82,3.75 -7.5,2.07 -7.5,0 c 0,-2.07 1.68,-3.75 3.75,-3.75 C -1.68,-3.75 0,-2.07 0,0" /></g><g
       transform="translate(38.351,147.3)"
       id="g176"><path
         id="path178"
         style="fill:#ffffff;fill-opacity:1;fill-rule:nonzero;stroke:none"
         d="M 0,0 C 0,2.07 -1.68,3.751 -3.75,3.751 -5.819,3.751 -7.5,2.07 -7.5,0 c 0,-2.069 1.681,-3.75 3.75,-3.75 C -1.68,-3.75 0,-2.069 0,0" /></g><g
       transform="translate(38.351,147.3)"
       id="g180"><path
         id="path182"
         style="fill:none;stroke:#231f20;stroke-width:0.75;stroke-linecap:square;stroke-linejoin:miter;stroke-miterlimit:10;stroke-dasharray:none;stroke-opacity:1"
         d="M 0,0 C 0,2.07 -1.68,3.751 -3.75,3.751 -5.819,3.751 -7.5,2.07 -7.5,0 c 0,-2.069 1.681,-3.75 3.75,-3.75 C -1.68,-3.75 0,-2.069 0,0" /></g><g
       transform="translate(173.981,19.501)"
       id="g184"><path
         id="path186"
         style="fill:#ffffff;fill-opacity:1;fill-rule:nonzero;stroke:none"
         d="m 0,0 c 0,2.069 -1.68,3.75 -3.749,3.75 -2.07,0 -3.75,-1.681 -3.75,-3.75 0,-2.07 1.68,-3.75 3.75,-3.75 C -1.68,-3.75 0,-2.07 0,0" /></g><g
       transform="translate(173.981,19.501)"
       id="g188"><path
         id="path190"
         style="fill:none;stroke:#231f20;stroke-width:0.75;stroke-linecap:square;stroke-linejoin:miter;stroke-miterlimit:10;stroke-dasharray:none;stroke-opacity:1"
         d="m 0,0 c 0,2.069 -1.68,3.75 -3.749,3.75 -2.07,0 -3.75,-1.681 -3.75,-3.75 0,-2.07 1.68,-3.75 3.75,-3.75 C -1.68,-3.75 0,-2.07 0,0" /></g><g
       transform="translate(244.182,184.92)"
       id="g192"><path
         id="path194"
         style="fill:#ffffff;fill-opacity:1;fill-rule:nonzero;stroke:none"
         d="M 0,0 C 0,2.07 -1.681,3.75 -3.75,3.75 -5.821,3.75 -7.5,2.07 -7.5,0 c 0,-2.07 1.679,-3.75 3.75,-3.75 C -1.681,-3.75 0,-2.07 0,0" /></g><g
       transform="translate(244.182,184.92)"
       id="g196"><path
         id="path198"
         style="fill:none;stroke:#231f20;stroke-width:0.75;stroke-linecap:square;stroke-linejoin:miter;stroke-miterlimit:10;stroke-dasharray:none;stroke-opacity:1"
         d="M 0,0 C 0,2.07 -1.681,3.75 -3.75,3.75 -5.821,3.75 -7.5,2.07 -7.5,0 c 0,-2.07 1.679,-3.75 3.75,-3.75 C -1.681,-3.75 0,-2.07 0,0" /></g><text
       id="text202"
       style="font-variant:normal;font-weight:normal;font-stretch:normal;font-size:9px;font-family:Times;-inkscape-font-specification:Times-Roman;writing-mode:lr-tb;fill:#231f20;fill-opacity:1;fill-rule:nonzero;stroke:none"
       transform="matrix(1,0,0,-1,126.0019,216.4678)"><tspan
         id="tspan200"
         y="0"
         x="0 3.5009999 7.4970002 11.997 16.497 20.493 24.993 28.989 32.985001 37.485001 41.985001 46.485001 49.986 52.487999 54.990002 57.492001 61.992001 66.491997">sequence_position</tspan></text>
<path
       id="path204"
       style="fill:#ffffff;fill-opacity:1;fill-rule:nonzero;stroke:none"
       d="m 2.25,27.245 h 118.5 V 42.62 H 2.25 Z" /><g
       transform="translate(2.25,42.62)"
       id="g206"><path
         id="path208"
         style="fill:none;stroke:#231f20;stroke-width:0.75;stroke-linecap:square;stroke-linejoin:miter;stroke-miterlimit:10;stroke-dasharray:none;stroke-opacity:1"
         d="M 118.5,0 H 0 v -15.375 h 118.5 z" /><g
         id="g210"><path
           id="path212"
           style="fill:none;stroke:#231f20;stroke-width:0.75;stroke-linecap:square;stroke-linejoin:miter;stroke-miterlimit:10;stroke-dasharray:none;stroke-opacity:1"
           d="M 0,0 Z" /></g></g><text
       id="text216"
       style="font-variant:normal;font-weight:normal;font-stretch:normal;font-size:9px;font-family:Times;-inkscape-font-specification:Times-Roman;writing-mode:lr-tb;fill:#231f20;fill-opacity:1;fill-rule:nonzero;stroke:none"
       transform="matrix(1,0,0,-1,12.2246,32.2637)"><tspan
         id="tspan214"
         y="0"
         x="0 3.9960001 8.4960003 12.996 16.992001 21.492001 24.489 27.486 31.482 35.981998 38.484001 42.984001 46.98 50.976002 53.478001 55.98 60.48 64.980003 69.480003 76.482002 80.477997 82.980003 87.480003 91.980003 96.480003">concurrent_action_method</tspan></text>
<path
       id="path218"
       style="fill:#ffffff;fill-opacity:1;fill-rule:nonzero;stroke:none"
       d="m 0.37498,216.15 h 118.127 v 16.782 H 0.37498 Z" /><g
       transform="translate(0.37498,232.932)"
       id="g220"><path
         id="path222"
         style="fill:none;stroke:#231f20;stroke-width:0.75;stroke-linecap:square;stroke-linejoin:miter;stroke-miterlimit:10;stroke-dasharray:none;stroke-opacity:1"
         d="M 118.127,0 H 0 v -16.782 h 118.127 z" /><g
         id="g224"><path
           id="path226"
           style="fill:none;stroke:#231f20;stroke-width:0.75;stroke-linecap:square;stroke-linejoin:miter;stroke-miterlimit:10;stroke-dasharray:none;stroke-opacity:1"
           d="M 0,0 Z" /></g></g><text
       id="text230"
       style="font-variant:normal;font-weight:normal;font-stretch:normal;font-size:9px;font-family:Times;-inkscape-font-specification:Times-Roman;writing-mode:lr-tb;fill:#231f20;fill-opacity:1;fill-rule:nonzero;stroke:none"
       transform="matrix(1,0,0,-1,21.418,222.2417)"><tspan
         id="tspan228"
         y="0"
         x="0 3.5009999 7.4970002 11.997 16.497 20.493 24.993 27.495001 29.997 33.993 36.494999 40.994999 47.997002 51.993 54.494999 58.994999 63.494999 67.995003">sequential_method</tspan></text>
<path
       id="path232"
       style="fill:#ffffff;fill-opacity:1;fill-rule:nonzero;stroke:none"
       d="m 0.37498,244.557 h 96.75 v 15.375 h -96.75 z" /><g
       transform="translate(0.37498,259.932)"
       id="g234"><path
         id="path236"
         style="fill:none;stroke:#231f20;stroke-width:0.75;stroke-linecap:square;stroke-linejoin:miter;stroke-miterlimit:10;stroke-dasharray:none;stroke-opacity:1"
         d="M 96.75,0 H 0 v -15.375 h 96.75 z" /><g
         id="g238"><path
           id="path240"
           style="fill:none;stroke:#231f20;stroke-width:0.75;stroke-linecap:square;stroke-linejoin:miter;stroke-miterlimit:10;stroke-dasharray:none;stroke-opacity:1"
           d="M 0,0 Z" /></g></g><text
       id="text244"
       style="font-variant:normal;font-weight:normal;font-stretch:normal;font-size:9px;font-family:Times;-inkscape-font-specification:Times-Roman;writing-mode:lr-tb;fill:#231f20;fill-opacity:1;fill-rule:nonzero;stroke:none"
       transform="matrix(1,0,0,-1,10.9819,249.5762)"><tspan
         id="tspan242"
         y="0"
         x="0 3.5009999 7.4970002 10.494 12.996 16.992001 19.493999 23.993999 27.99 31.986 34.487999 36.990002 41.490002 45.990002 50.490002 57.492001 61.487999 63.990002 68.489998 72.989998 77.489998">serial_action_method</tspan></text>
<path
       id="path246"
       style="fill:#ffffff;fill-opacity:1;fill-rule:nonzero;stroke:none"
       d="M 38.11,157.745 H 241.36 V 173.12 H 38.11 Z" /><g
       transform="translate(38.11,173.12)"
       id="g248"><path
         id="path250"
         style="fill:none;stroke:#231f20;stroke-width:0.75;stroke-linecap:square;stroke-linejoin:miter;stroke-miterlimit:10;stroke-dasharray:none;stroke-opacity:1"
         d="M 203.25,0 H 0 v -15.375 h 203.25 z" /><g
         id="g252"><path
           id="path254"
           style="fill:none;stroke:#231f20;stroke-width:0.75;stroke-linecap:square;stroke-linejoin:miter;stroke-miterlimit:10;stroke-dasharray:none;stroke-opacity:1"
           d="M 0,0 Z" /></g></g><text
       id="text258"
       style="font-variant:normal;font-weight:normal;font-stretch:normal;font-size:9px;font-family:Times;-inkscape-font-specification:Times-Roman;writing-mode:lr-tb;fill:#231f20;fill-opacity:1;fill-rule:nonzero;stroke:none"
       transform="matrix(1,0,0,-1,51.4502,163.1914)"><tspan
         id="tspan256"
         y="0"
         x="0 7.0019999 10.998 14.994 19.493999 21.996 26.496 28.997999 33.498001 37.998001 42.498001 46.998001 51.498001 55.493999 58.491001 62.487 64.988998 69.488998 72.486 76.986 79.487999 83.987999 87.488998 89.990997 92.987999 97.487999 101.484 103.986 106.488 110.988 115.488 119.988 122.985 126.981 129.483 133.479 135.981 138.483 142.983 147.483 150.98399 155.48399 157.98599 162.48599">machining_operator_instruction_relationship</tspan></text>
<path
       id="path260"
       style="fill:#ffffff;fill-opacity:1;fill-rule:nonzero;stroke:none"
       d="m 3.3979,0.375 h 203.25 V 15.75 H 3.3979 Z" /><g
       transform="translate(3.3979,15.75)"
       id="g262"><path
         id="path264"
         style="fill:none;stroke:#231f20;stroke-width:0.75;stroke-linecap:square;stroke-linejoin:miter;stroke-miterlimit:10;stroke-dasharray:none;stroke-opacity:1"
         d="M 203.25,0 H 0 v -15.375 h 203.25 z" /><g
         id="g266"><path
           id="path268"
           style="fill:none;stroke:#231f20;stroke-width:0.75;stroke-linecap:square;stroke-linejoin:miter;stroke-miterlimit:10;stroke-dasharray:none;stroke-opacity:1"
           d="M 0,0 Z" /></g></g><text
       id="text272"
       style="font-variant:normal;font-weight:normal;font-stretch:normal;font-size:9px;font-family:Times;-inkscape-font-specification:Times-Roman;writing-mode:lr-tb;fill:#231f20;fill-opacity:1;fill-rule:nonzero;stroke:none"
       transform="matrix(1,0,0,-1,24.9897,5.8213)"><tspan
         id="tspan270"
         y="0"
         x="0 7.0019999 10.998 14.994 19.493999 21.996 26.496 28.997999 33.498001 37.998001 42.498001 46.998001 49.994999 54.494999 58.491001 62.487 65.987999 69.488998 73.988998 77.985001 82.485001 86.985001 90.981003 95.481003 98.477997 101.475 105.471 109.971 112.473 116.973 119.97 123.966 126.468 130.464 132.966 135.468 139.968 144.468 147.96899 152.46899 154.97099 159.47099">machining_process_concurrent_relationship</tspan></text>
<path
       id="path274"
       style="fill:#ffffff;fill-opacity:1;fill-rule:nonzero;stroke:none"
       d="m 38.673,195.995 h 183 v 15.375 h -183 z" /><g
       transform="translate(38.673,211.37)"
       id="g276"><path
         id="path278"
         style="fill:none;stroke:#231f20;stroke-width:0.75;stroke-linecap:square;stroke-linejoin:miter;stroke-miterlimit:10;stroke-dasharray:none;stroke-opacity:1"
         d="M 183,0 H 0 v -15.375 h 183 z" /><g
         id="g280"><path
           id="path282"
           style="fill:none;stroke:#231f20;stroke-width:0.75;stroke-linecap:square;stroke-linejoin:miter;stroke-miterlimit:10;stroke-dasharray:none;stroke-opacity:1"
           d="M 0,0 Z" /></g></g><text
       id="text286"
       style="font-variant:normal;font-weight:normal;font-stretch:normal;font-size:9px;font-family:Times;-inkscape-font-specification:Times-Roman;writing-mode:lr-tb;fill:#231f20;fill-opacity:1;fill-rule:nonzero;stroke:none"
       transform="matrix(1,0,0,-1,51.1445,201.4414)"><tspan
         id="tspan284"
         y="0"
         x="0 7.0019999 10.998 14.994 19.493999 21.996 26.496 28.997999 33.498001 37.998001 42.498001 46.998001 49.994999 54.494999 58.491001 62.487 65.987999 69.488998 73.988998 80.990997 85.490997 89.990997 93.987 96.488998 100.989 103.986 107.982 110.484 114.48 116.982 119.484 123.984 128.48399 131.985 136.485 138.987 143.487">machining_process_model_relationship</tspan></text>
<path
       id="path288"
       style="fill:#ffffff;fill-opacity:1;fill-rule:nonzero;stroke:none"
       d="m 38.673,176.307 h 198 v 15.375 h -198 z" /><g
       transform="translate(38.673,191.682)"
       id="g290"><path
         id="path292"
         style="fill:none;stroke:#231f20;stroke-width:0.75;stroke-linecap:square;stroke-linejoin:miter;stroke-miterlimit:10;stroke-dasharray:none;stroke-opacity:1"
         d="M 198,0 H 0 v -15.375 h 198 z" /><g
         id="g294"><path
           id="path296"
           style="fill:none;stroke:#231f20;stroke-width:0.75;stroke-linecap:square;stroke-linejoin:miter;stroke-miterlimit:10;stroke-dasharray:none;stroke-opacity:1"
           d="M 0,0 Z" /></g></g><text
       id="text300"
       style="font-variant:normal;font-weight:normal;font-stretch:normal;font-size:9px;font-family:Times;-inkscape-font-specification:Times-Roman;writing-mode:lr-tb;fill:#231f20;fill-opacity:1;fill-rule:nonzero;stroke:none"
       transform="matrix(1,0,0,-1,51.3857,181.7539)"><tspan
         id="tspan298"
         y="0"
         x="0 7.0019999 10.998 14.994 19.493999 21.996 26.496 28.997999 33.498001 37.998001 42.498001 46.998001 49.994999 54.494999 58.491001 62.487 65.987999 69.488998 73.988998 77.489998 81.486 85.986 90.486 94.482002 98.982002 102.978 106.974 111.474 114.471 118.467 120.969 124.965 127.467 129.96899 134.46899 138.96899 142.47 146.97 149.472 153.972">machining_process_sequence_relationship</tspan></text>
<path
       id="path302"
       style="fill:#ffffff;fill-opacity:1;fill-rule:nonzero;stroke:none"
       d="M 38.36,139.745 H 235.61 V 155.12 H 38.36 Z" /><g
       transform="translate(38.36,155.12)"
       id="g304"><path
         id="path306"
         style="fill:none;stroke:#231f20;stroke-width:0.75;stroke-linecap:square;stroke-linejoin:miter;stroke-miterlimit:10;stroke-dasharray:none;stroke-opacity:1"
         d="M 197.25,0 H 0 v -15.375 h 197.25 z" /><g
         id="g308"><path
           id="path310"
           style="fill:none;stroke:#231f20;stroke-width:0.75;stroke-linecap:square;stroke-linejoin:miter;stroke-miterlimit:10;stroke-dasharray:none;stroke-opacity:1"
           d="M 0,0 Z" /></g></g><text
       id="text314"
       style="font-variant:normal;font-weight:normal;font-stretch:normal;font-size:9px;font-family:Times;-inkscape-font-specification:Times-Roman;writing-mode:lr-tb;fill:#231f20;fill-opacity:1;fill-rule:nonzero;stroke:none"
       transform="matrix(1,0,0,-1,50.4414,145.1914)"><tspan
         id="tspan312"
         y="0"
         x="0 7.0019999 10.998 14.994 19.493999 21.996 26.496 28.997999 33.498001 37.998001 42.498001 45 49.5 54 56.501999 61.001999 64.998001 67.5 72 76.5 80.000999 83.997002 88.497002 92.997002 96.992996 101.493 105.489 109.485 113.985 116.982 120.978 123.48 127.476 129.978 132.48 136.98 141.48 144.981 149.481 151.983 156.483">machining_toolpath_sequence_relationship</tspan></text>
<path
       id="path316"
       style="fill:#ffffff;fill-opacity:1;fill-rule:nonzero;stroke:none"
       d="m 27.006,60.457 h 61.5 v 18.75 h -61.5 z" /><g
       transform="translate(36.381,79.207)"
       id="g318"><path
         id="path320"
         style="fill:none;stroke:#231f20;stroke-width:0.75;stroke-linecap:square;stroke-linejoin:miter;stroke-miterlimit:10;stroke-dasharray:none;stroke-opacity:1"
         d="m 0,0 h 42.75 c 5.175,0 9.375,-4.2 9.375,-9.375 0,-5.175 -4.2,-9.375 -9.375,-9.375 H 0 c -5.176,0 -9.375,4.2 -9.375,9.375 C -9.375,-4.2 -5.176,0 0,0 Z" /></g><text
       id="text324"
       style="font-variant:normal;font-weight:normal;font-stretch:normal;font-size:9px;font-family:Times;-inkscape-font-specification:Times-Roman;writing-mode:lr-tb;fill:#231f20;fill-opacity:1;fill-rule:nonzero;stroke:none"
       transform="matrix(1,0,0,-1,43.5,67.4658)"><tspan
         id="tspan322"
         y="0"
         x="0 4.5 6.75 9 13.5 15.75 18.747 23.247 26.243999">4, 0 (3)</tspan></text>
<g
       transform="translate(61.122,46.32)"
       id="g326"><path
         id="path328"
         style="fill:#ffffff;fill-opacity:1;fill-rule:nonzero;stroke:none"
         d="M 0,0 C 0,2.07 -1.68,3.75 -3.75,3.75 -5.82,3.75 -7.5,2.07 -7.5,0 c 0,-2.069 1.68,-3.75 3.75,-3.75 C -1.68,-3.75 0,-2.069 0,0" /></g><g
       transform="translate(61.122,46.32)"
       id="g330"><path
         id="path332"
         style="fill:none;stroke:#231f20;stroke-width:0.75;stroke-linecap:square;stroke-linejoin:miter;stroke-miterlimit:10;stroke-dasharray:none;stroke-opacity:1"
         d="M 0,0 C 0,2.07 -1.68,3.75 -3.75,3.75 -5.82,3.75 -7.5,2.07 -7.5,0 c 0,-2.069 1.68,-3.75 3.75,-3.75 C -1.68,-3.75 0,-2.069 0,0" /></g><path
       id="path334"
       style="fill:#ffffff;fill-opacity:1;fill-rule:nonzero;stroke:none"
       d="m 17.631,279.457 h 61.5 v 18.75 h -61.5 z" /><g
       transform="translate(27.006,298.207)"
       id="g336"><path
         id="path338"
         style="fill:none;stroke:#231f20;stroke-width:0.75;stroke-linecap:square;stroke-linejoin:miter;stroke-miterlimit:10;stroke-dasharray:none;stroke-opacity:1"
         d="m 0,0 h 42.75 c 5.175,0 9.375,-4.2 9.375,-9.375 0,-5.175 -4.2,-9.375 -9.375,-9.375 H 0 c -5.176,0 -9.375,4.2 -9.375,9.375 C -9.375,-4.2 -5.176,0 0,0 Z" /></g><text
       id="text342"
       style="font-variant:normal;font-weight:normal;font-stretch:normal;font-size:9px;font-family:Times;-inkscape-font-specification:Times-Roman;writing-mode:lr-tb;fill:#231f20;fill-opacity:1;fill-rule:nonzero;stroke:none"
       transform="matrix(1,0,0,-1,34.125,286.4649)"><tspan
         id="tspan340"
         y="0"
         x="0 4.5 6.75 9 13.5 15.75 18.747 23.247 26.243999">4, 0 (3)</tspan></text>
<g
       transform="translate(51.762,263.67)"
       id="g344"><path
         id="path346"
         style="fill:#ffffff;fill-opacity:1;fill-rule:nonzero;stroke:none"
         d="M 0,0 C 0,2.07 -1.68,3.75 -3.75,3.75 -5.82,3.75 -7.5,2.07 -7.5,0 c 0,-2.07 1.68,-3.75 3.75,-3.75 C -1.68,-3.75 0,-2.07 0,0" /></g><g
       transform="translate(51.762,263.67)"
       id="g348"><path
         id="path350"
         style="fill:none;stroke:#231f20;stroke-width:0.75;stroke-linecap:square;stroke-linejoin:miter;stroke-miterlimit:10;stroke-dasharray:none;stroke-opacity:1"
         d="M 0,0 C 0,2.07 -1.68,3.75 -3.75,3.75 -5.82,3.75 -7.5,2.07 -7.5,0 c 0,-2.07 1.68,-3.75 3.75,-3.75 C -1.68,-3.75 0,-2.07 0,0" /></g></g></svg>