<?xml version="1.0" encoding="UTF-8" standalone="no"?>
<svg
   xmlns:dc="http://purl.org/dc/elements/1.1/"
   xmlns:cc="http://creativecommons.org/ns#"
   xmlns:rdf="http://www.w3.org/1999/02/22-rdf-syntax-ns#"
   xmlns:svg="http://www.w3.org/2000/svg"
   xmlns="http://www.w3.org/2000/svg"
   viewBox="0 0 460.5 241.24933"
   height="241.24933"
   width="460.5"
   xml:space="preserve"
   id="svg2"
   version="1.1"><metadata
     id="metadata8"><rdf:RDF><cc:Work
         rdf:about=""><dc:format>image/svg+xml</dc:format><dc:type
           rdf:resource="http://purl.org/dc/dcmitype/StillImage" /></cc:Work></rdf:RDF></metadata><defs
     id="defs6" /><g
     transform="matrix(1.3333333,0,0,-1.3333333,0,241.24933)"
     id="g10"><g
       transform="translate(66.392,63.938)"
       id="g12"><path
         id="path14"
         style="fill:none;stroke:#231f20;stroke-width:2.25;stroke-linecap:square;stroke-linejoin:miter;stroke-miterlimit:10;stroke-dasharray:none;stroke-opacity:1"
         d="M 0,0 0.358,77.625" /></g><g
       transform="translate(129.375,172.875)"
       id="g16"><path
         id="path18"
         style="fill:none;stroke:#231f20;stroke-width:0.75;stroke-linecap:square;stroke-linejoin:miter;stroke-miterlimit:10;stroke-dasharray:none;stroke-opacity:1"
         d="M 0,0 H 78.75" /><g
         transform="translate(62.379,-57.464)"
         id="g20"><path
           id="path22"
           style="fill:none;stroke:#231f20;stroke-width:0.75;stroke-linecap:square;stroke-linejoin:miter;stroke-miterlimit:10;stroke-dasharray:none;stroke-opacity:1"
           d="M 0,0 H 55.5" /></g></g><path
       id="path24"
       style="fill:none;stroke:#231f20;stroke-width:0.75;stroke-linecap:square;stroke-linejoin:miter;stroke-miterlimit:10;stroke-dasharray:3.75, 3.75;stroke-dashoffset:0;stroke-opacity:1"
       d="m 191.754,91.785 h 60.75" /><g
       transform="translate(173.417,130.598)"
       id="g26"><path
         id="path28"
         style="fill:none;stroke:#231f20;stroke-width:0.75;stroke-linecap:square;stroke-linejoin:miter;stroke-miterlimit:10;stroke-dasharray:none;stroke-opacity:1"
         d="M 0,0 V 18.652 H -44.042" /><g
         transform="translate(62.832,-122.535)"
         id="g30"><path
           id="path32"
           style="fill:none;stroke:#231f20;stroke-width:0.75;stroke-linecap:square;stroke-linejoin:miter;stroke-miterlimit:10;stroke-dasharray:none;stroke-opacity:1"
           d="M 0,0 H 22.5" /><g
           transform="translate(65.625,15.188)"
           id="g34"><path
             id="path36"
             style="fill:none;stroke:#231f20;stroke-width:0.75;stroke-linecap:square;stroke-linejoin:miter;stroke-miterlimit:10;stroke-dasharray:none;stroke-opacity:1"
             d="M 0,0 V 25.5 H -169.5" /></g></g></g><path
       id="path38"
       style="fill:#ffffff;fill-opacity:1;fill-rule:nonzero;stroke:none"
       d="m 4.125,141.562 h 125.25 v 39 H 4.125 Z" /><g
       transform="translate(4.125,180.562)"
       id="g40"><path
         id="path42"
         style="fill:none;stroke:#231f20;stroke-width:0.75;stroke-linecap:square;stroke-linejoin:miter;stroke-miterlimit:10;stroke-dasharray:none;stroke-opacity:1"
         d="M 125.25,0 H 0 v -39 h 125.25 z" /><g
         id="g44"><path
           id="path46"
           style="fill:none;stroke:#231f20;stroke-width:0.75;stroke-linecap:square;stroke-linejoin:miter;stroke-miterlimit:10;stroke-dasharray:none;stroke-opacity:1"
           d="M 0,0 Z" /></g></g><text
       id="text50"
       style="font-variant:normal;font-weight:normal;font-stretch:normal;font-size:9px;font-family:Times;-inkscape-font-specification:Times-Roman;writing-mode:lr-tb;fill:#231f20;fill-opacity:1;fill-rule:nonzero;stroke:none"
       transform="matrix(1,0,0,-1,8.125,158.7354)"><tspan
         id="tspan48"
         y="0"
         x="0 2.997 9.4949999 15.498 20.502001 23.499001 27.495001 29.997 33.993 37.493999 40.994999 43.497002 46.313999 48.816002 52.812 56.807999 59.310001 61.812 66.311996 70.811996 75.311996 79.307999 82.808998 86.309998 88.811996 93.311996 97.811996 104.814 108.81 113.31 115.812">(ABS)classification_assignment</tspan></text>
<path
       id="path52"
       style="fill:#ffffff;fill-opacity:1;fill-rule:nonzero;stroke:none"
       d="m 208.125,165.187 h 76.5 v 15.375 h -76.5 z" /><g
       transform="translate(215.812,180.562)"
       id="g54"><path
         id="path56"
         style="fill:none;stroke:#231f20;stroke-width:0.75;stroke-linecap:square;stroke-linejoin:miter;stroke-miterlimit:10;stroke-dasharray:none;stroke-opacity:1"
         d="m 0,0 h 61.125 c 4.244,0 7.688,-3.444 7.688,-7.687 0,-4.244 -3.444,-7.688 -7.688,-7.688 H 0 c -4.243,0 -7.687,3.444 -7.687,7.688 C -7.687,-3.444 -4.243,0 0,0 Z" /></g><text
       id="text62"
       style="font-variant:normal;font-weight:normal;font-stretch:normal;font-size:9px;font-family:Times;-inkscape-font-specification:Times-Roman;writing-mode:lr-tb;fill:#231f20;fill-opacity:1;fill-rule:nonzero;stroke:none"
       transform="matrix(1,0,0,-1,217.354,170.7012)"><tspan
         id="tspan58"
         y="0"
         x="0 4.5 9 11.25 13.5 18 22.5 27 29.25 31.5 36 38.997002 43.497002 47.997002 52.497002">16, 132, group</tspan><tspan
         id="tspan60"
         y="8.8119001"
         x="-80.478897 -76.482903 -72.981903 -69.480904 -66.978897 -62.478901 -57.978901 -53.982899 -49.482899 -44.982899 -40.9869 -38.484901 -34.488899 -30.9879 -27.4869">assigned_class</tspan></text>
<path
       id="path64"
       style="fill:#ffffff;fill-opacity:1;fill-rule:nonzero;stroke:none"
       d="m 108.504,84.098 h 83.25 v 39 h -83.25 z" /><g
       transform="translate(108.504,123.098)"
       id="g66"><path
         id="path68"
         style="fill:none;stroke:#231f20;stroke-width:0.75;stroke-linecap:square;stroke-linejoin:miter;stroke-miterlimit:10;stroke-dasharray:none;stroke-opacity:1"
         d="M 83.25,0 H 0 v -39 h 83.25 z" /><g
         id="g70"><path
           id="path72"
           style="fill:none;stroke:#231f20;stroke-width:0.75;stroke-linecap:square;stroke-linejoin:miter;stroke-miterlimit:10;stroke-dasharray:none;stroke-opacity:1"
           d="M 0,0 Z" /></g></g><text
       id="text78"
       style="font-variant:normal;font-weight:normal;font-stretch:normal;font-size:9px;font-family:Times;-inkscape-font-specification:Times-Roman;writing-mode:lr-tb;fill:#231f20;fill-opacity:1;fill-rule:nonzero;stroke:none"
       transform="matrix(1,0,0,-1,116.6206,100.8838)"><tspan
         id="tspan74"
         y="0"
         x="0 3.9960001 6.4980001 10.494 13.995 17.496 19.997999 22.815001 25.316999 29.313 33.308998 35.811001 38.313 42.813 47.313 51.813 54.810001 59.310001 61.812 65.807999">classification_role</tspan><tspan
         id="tspan76"
         y="-37.3806"
         x="20.254499 23.251499 27.751499 30.2535 34.2495">role</tspan></text>
<path
       id="path80"
       style="fill:#ffffff;fill-opacity:1;fill-rule:nonzero;stroke:none"
       d="m 247.254,107.723 h 78.75 v 15.375 h -78.75 z" /><g
       transform="translate(254.942,123.098)"
       id="g82"><path
         id="path84"
         style="fill:none;stroke:#231f20;stroke-width:0.75;stroke-linecap:square;stroke-linejoin:miter;stroke-miterlimit:10;stroke-dasharray:none;stroke-opacity:1"
         d="m 0,0 h 63.375 c 4.243,0 7.688,-3.444 7.688,-7.687 0,-4.244 -3.445,-7.688 -7.688,-7.688 H 0 c -4.243,0 -7.687,3.444 -7.687,7.688 C -7.687,-3.444 -4.243,0 0,0 Z" /></g><text
       id="text88"
       style="font-variant:normal;font-weight:normal;font-stretch:normal;font-size:9px;font-family:Times;-inkscape-font-specification:Times-Roman;writing-mode:lr-tb;fill:#231f20;fill-opacity:1;fill-rule:nonzero;stroke:none"
       transform="matrix(1,0,0,-1,262.1128,112.8408)"><tspan
         id="tspan86"
         y="0"
         x="0 4.5 9 11.25 13.5 18 22.5 24.75 27 29.502001 33.498001 37.998001 41.993999 44.495998">65, 33, label</tspan></text>
<path
       id="path90"
       style="fill:#ffffff;fill-opacity:1;fill-rule:nonzero;stroke:none"
       d="m 252.504,84.098 h 73.5 v 15.375 h -73.5 z" /><g
       transform="translate(260.192,99.473)"
       id="g92"><path
         id="path94"
         style="fill:none;stroke:#231f20;stroke-width:0.75;stroke-linecap:square;stroke-linejoin:miter;stroke-miterlimit:10;stroke-dasharray:none;stroke-opacity:1"
         d="m 0,0 h 58.125 c 4.243,0 7.688,-3.444 7.688,-7.687 0,-4.245 -3.445,-7.688 -7.688,-7.688 H 0 c -4.243,0 -7.687,3.443 -7.687,7.688 C -7.687,-3.444 -4.243,0 0,0 Z" /></g><text
       id="text102"
       style="font-variant:normal;font-weight:normal;font-stretch:normal;font-size:9px;font-family:Times;-inkscape-font-specification:Times-Roman;writing-mode:lr-tb;fill:#231f20;fill-opacity:1;fill-rule:nonzero;stroke:none"
       transform="matrix(1,0,0,-1,266.9878,89.2832)"><tspan
         id="tspan96"
         y="0"
         x="0 4.5 9 11.25 13.5 18 22.5 24.75 27 29.502001 33.362999 37.862999 40.365002">65, 34, text</tspan><tspan
         id="tspan98"
         y="-17.895599"
         x="-67.733101 -63.233101 -59.237099 -52.2351 -48.239101">name</tspan><tspan
         id="tspan100"
         y="8.4825001"
         x="-67.733101 -63.233101 -59.237099 -55.736099 -51.740101 -48.743099 -46.2411 -41.7411 -39.239101 -36.737099 -32.237099 -27.737101">description</tspan></text>
<g
       transform="translate(177.167,126.823)"
       id="g104"><path
         id="path106"
         style="fill:#ffffff;fill-opacity:1;fill-rule:nonzero;stroke:none"
         d="M 0,0 C 0,2.07 -1.68,3.75 -3.75,3.75 -5.82,3.75 -7.5,2.07 -7.5,0 c 0,-2.07 1.68,-3.75 3.75,-3.75 C -1.68,-3.75 0,-2.07 0,0" /></g><g
       transform="translate(177.167,126.823)"
       id="g108"><path
         id="path110"
         style="fill:none;stroke:#231f20;stroke-width:0.75;stroke-linecap:square;stroke-linejoin:miter;stroke-miterlimit:10;stroke-dasharray:none;stroke-opacity:1"
         d="M 0,0 C 0,2.07 -1.68,3.75 -3.75,3.75 -5.82,3.75 -7.5,2.07 -7.5,0 c 0,-2.07 1.68,-3.75 3.75,-3.75 C -1.68,-3.75 0,-2.07 0,0" /></g><path
       id="path112"
       style="fill:#ffffff;fill-opacity:1;fill-rule:nonzero;stroke:none"
       d="m 0.375,31.688 h 132 v 24.75 h -132 z" /><g
       transform="translate(0.375,56.438)"
       id="g114"><path
         id="path116"
         style="fill:none;stroke:#231f20;stroke-width:0.75;stroke-linecap:square;stroke-linejoin:miter;stroke-miterlimit:10;stroke-dasharray:none;stroke-opacity:1"
         d="M 132,0 H 0 v -24.75 h 132 z" /><g
         id="g118"><path
           id="path120"
           style="fill:none;stroke:#231f20;stroke-width:0.75;stroke-linecap:square;stroke-linejoin:miter;stroke-miterlimit:10;stroke-dasharray:none;stroke-opacity:1"
           d="M 0,0 Z" /></g></g><text
       id="text124"
       style="font-variant:normal;font-weight:normal;font-stretch:normal;font-size:9px;font-family:Times;-inkscape-font-specification:Times-Roman;writing-mode:lr-tb;fill:#231f20;fill-opacity:1;fill-rule:nonzero;stroke:none"
       transform="matrix(1,0,0,-1,4.375,41.7764)"><tspan
         id="tspan122"
         y="0"
         x="0 3.9960001 8.4960003 12.996 15.498 18 21.996 26.496 30.996 34.992001 37.493999 41.490002 44.991001 48.492001 50.993999 53.811001 56.313 60.308998 64.305 66.806999 69.308998 73.808998 78.308998 82.808998 86.805 90.306 93.806999 96.308998 100.809 105.309 112.311 116.307 120.807 123.309">applied_classification_assignment</tspan></text>
<g
       transform="translate(70.157,60.133)"
       id="g126"><path
         id="path128"
         style="fill:#ffffff;fill-opacity:1;fill-rule:nonzero;stroke:none"
         d="M 0,0 C 0,2.07 -1.68,3.75 -3.75,3.75 -5.82,3.75 -7.5,2.07 -7.5,0 c 0,-2.07 1.68,-3.75 3.75,-3.75 C -1.68,-3.75 0,-2.07 0,0" /></g><g
       transform="translate(70.157,60.133)"
       id="g130"><path
         id="path132"
         style="fill:none;stroke:#231f20;stroke-width:0.75;stroke-linecap:square;stroke-linejoin:miter;stroke-miterlimit:10;stroke-dasharray:none;stroke-opacity:1"
         d="M 0,0 C 0,2.07 -1.68,3.75 -3.75,3.75 -5.82,3.75 -7.5,2.07 -7.5,0 c 0,-2.07 1.68,-3.75 3.75,-3.75 C -1.68,-3.75 0,-2.07 0,0" /></g><text
       id="text136"
       style="font-variant:normal;font-weight:normal;font-stretch:normal;font-size:9px;font-family:Times;-inkscape-font-specification:Times-Roman;writing-mode:lr-tb;fill:#231f20;fill-opacity:1;fill-rule:nonzero;stroke:none"
       transform="matrix(1,0,0,-1,139.875,37.4737)"><tspan
         id="tspan134"
         y="0"
         x="0 2.5020001 5.0040002 9 16.002001 19.503 21.753 26.757 29.754 34.254002 36.756001 40.751999 43.749001">items S[1:?]</tspan></text>
<path
       id="path138"
       style="fill:#ffffff;fill-opacity:1;fill-rule:nonzero;stroke:none"
       d="M 258.75,0.375 H 345 V 15.75 h -86.25 z" /><path
       id="path140"
       style="fill:none;stroke:#231f20;stroke-width:0.75;stroke-linecap:square;stroke-linejoin:miter;stroke-miterlimit:10;stroke-dasharray:3.75, 3.75;stroke-dashoffset:0;stroke-opacity:1"
       d="M 258.75,15.75 V 0.375 H 345 V 15.75 Z m 7.5,-15.375 V 15.75" /><text
       id="text144"
       style="font-variant:normal;font-weight:normal;font-stretch:normal;font-size:9px;font-family:Times;-inkscape-font-specification:Times-Roman;writing-mode:lr-tb;fill:#231f20;fill-opacity:1;fill-rule:nonzero;stroke:none"
       transform="matrix(1,0,0,-1,269.1167,5.3487)"><tspan
         id="tspan142"
         y="0"
         x="0 3.9960001 6.4980001 10.494 13.995 17.496 19.997999 22.815001 25.316999 29.313 33.308998 35.811001 38.313 42.813 47.313 51.813 54.314999 56.817001 60.813 67.815002">classification_item</tspan></text>
<path
       id="path146"
       style="fill:#ffffff;fill-opacity:1;fill-rule:nonzero;stroke:none"
       d="m 2.25,0.375 h 234 V 15.75 h -234 z" /><g
       transform="translate(9.9375,15.75)"
       id="g148"><path
         id="path150"
         style="fill:none;stroke:#231f20;stroke-width:0.75;stroke-linecap:square;stroke-linejoin:miter;stroke-miterlimit:10;stroke-dasharray:none;stroke-opacity:1"
         d="m 0,0 h 218.625 c 4.244,0 7.687,-3.444 7.687,-7.6875 0,-4.2445 -3.443,-7.6875 -7.687,-7.6875 H 0 c -4.2437,0 -7.6875,3.443 -7.6875,7.6875 C -7.6875,-3.444 -4.2437,0 0,0 Z" /></g><text
       id="text154"
       style="font-variant:normal;font-weight:normal;font-stretch:normal;font-size:9px;font-family:Times;-inkscape-font-specification:Times-Roman;writing-mode:lr-tb;fill:#231f20;fill-opacity:1;fill-rule:nonzero;stroke:none"
       transform="matrix(1,0,0,-1,10.25,5.749)"><tspan
         id="tspan152"
         y="0"
         x="0 4.5 9 11.25 13.5 18 22.5 24.75 27 30.861 35.361 37.862999 41.859001 44.855999 49.355999 53.352001 55.854 58.355999 62.855999 67.356003 71.856003 75.851997 78.668999 81.170998 85.670998 89.667 94.167 98.667 101.664 105.66 110.16 113.157 117.153 120.654 124.65 129.14999 131.65199 135.64799 138.14999 140.65199 145.15199 149.65199 154.15199 160.64999 163.15199 165.65401 170.15401 174.65401 179.15401 183.14999 186.147 190.14301 197.145 201.14101 203.64301 207.63901 210.636 214.13699">18, 74, externally_defined_representation_with_parameters</tspan></text>
<g
       transform="translate(305.597,19.453)"
       id="g156"><path
         id="path158"
         style="fill:#ffffff;fill-opacity:1;fill-rule:nonzero;stroke:none"
         d="M 0,0 C 0,2.069 -1.68,3.75 -3.75,3.75 -5.82,3.75 -7.5,2.069 -7.5,0 c 0,-2.07 1.68,-3.75 3.75,-3.75 C -1.68,-3.75 0,-2.07 0,0" /></g><g
       transform="translate(305.597,19.453)"
       id="g160"><path
         id="path162"
         style="fill:none;stroke:#231f20;stroke-width:0.75;stroke-linecap:square;stroke-linejoin:miter;stroke-miterlimit:10;stroke-dasharray:none;stroke-opacity:1"
         d="M 0,0 C 0,2.069 -1.68,3.75 -3.75,3.75 -5.82,3.75 -7.5,2.069 -7.5,0 c 0,-2.07 1.68,-3.75 3.75,-3.75 C -1.68,-3.75 0,-2.07 0,0" /></g></g></svg>