<?xml version="1.0" encoding="UTF-8" standalone="no"?>
<svg
   xmlns:dc="http://purl.org/dc/elements/1.1/"
   xmlns:cc="http://creativecommons.org/ns#"
   xmlns:rdf="http://www.w3.org/1999/02/22-rdf-syntax-ns#"
   xmlns:svg="http://www.w3.org/2000/svg"
   xmlns="http://www.w3.org/2000/svg"
   viewBox="0 0 461.11868 391.65466"
   height="391.65466"
   width="461.11868"
   xml:space="preserve"
   id="svg2"
   version="1.1"><metadata
     id="metadata8"><rdf:RDF><cc:Work
         rdf:about=""><dc:format>image/svg+xml</dc:format><dc:type
           rdf:resource="http://purl.org/dc/dcmitype/StillImage" /></cc:Work></rdf:RDF></metadata><defs
     id="defs6" /><g
     transform="matrix(1.3333333,0,0,-1.3333333,0,391.65467)"
     id="g10"><g
       transform="translate(130.355,178.182)"
       id="g12"><path
         id="path14"
         style="fill:none;stroke:#231f20;stroke-width:0.75;stroke-linecap:square;stroke-linejoin:miter;stroke-miterlimit:10;stroke-dasharray:none;stroke-opacity:1"
         d="M 0,0 V -2.306" /><g
         transform="translate(-32.855,99.809)"
         id="g16"><path
           id="path18"
           style="fill:none;stroke:#231f20;stroke-width:0.75;stroke-linecap:square;stroke-linejoin:miter;stroke-miterlimit:10;stroke-dasharray:none;stroke-opacity:1"
           d="M 0,0 V -7.125" /><g
           transform="translate(97.401,-117.303)"
           id="g20"><path
             id="path22"
             style="fill:none;stroke:#231f20;stroke-width:0.75;stroke-linecap:square;stroke-linejoin:miter;stroke-miterlimit:10;stroke-dasharray:none;stroke-opacity:1"
             d="M 0,0 H -55.312" /><g
             transform="translate(2.625,-23.625)"
             id="g24"><path
               id="path26"
               style="fill:none;stroke:#231f20;stroke-width:0.75;stroke-linecap:square;stroke-linejoin:miter;stroke-miterlimit:10;stroke-dasharray:none;stroke-opacity:1"
               d="M 0,0 H -57.937" /><g
               transform="translate(64.313,-71.062)"
               id="g28"><path
                 id="path30"
                 style="fill:none;stroke:#231f20;stroke-width:0.75;stroke-linecap:square;stroke-linejoin:miter;stroke-miterlimit:10;stroke-dasharray:none;stroke-opacity:1"
                 d="M 0,0 H -45" /><g
                 transform="translate(5.25,-23.625)"
                 id="g32"><path
                   id="path34"
                   style="fill:none;stroke:#231f20;stroke-width:0.75;stroke-linecap:square;stroke-linejoin:miter;stroke-miterlimit:10;stroke-dasharray:none;stroke-opacity:1"
                   d="M 0,0 H -50.25" /><g
                   transform="translate(-45,64.342)"
                   id="g36"><path
                     id="path38"
                     style="fill:none;stroke:#231f20;stroke-width:0.75;stroke-linecap:square;stroke-linejoin:miter;stroke-miterlimit:10;stroke-dasharray:none;stroke-opacity:1"
                     d="M 0,0 H -82.499" /><g
                     transform="translate(28.036,148.961)"
                     id="g40"><path
                       id="path42"
                       style="fill:none;stroke:#231f20;stroke-width:0.75;stroke-linecap:square;stroke-linejoin:miter;stroke-miterlimit:10;stroke-dasharray:none;stroke-opacity:1"
                       d="M 0,0 H -55.5" /><g
                       transform="translate(5.25,-23.625)"
                       id="g44"><path
                         id="path46"
                         style="fill:none;stroke:#231f20;stroke-width:0.75;stroke-linecap:square;stroke-linejoin:miter;stroke-miterlimit:10;stroke-dasharray:none;stroke-opacity:1"
                         d="M 0,0 H -60.75" /><g
                         transform="translate(-155.979,-56.178)"
                         id="g48"><path
                           id="path50"
                           style="fill:none;stroke:#231f20;stroke-width:0.75;stroke-linecap:square;stroke-linejoin:miter;stroke-miterlimit:10;stroke-dasharray:none;stroke-opacity:1"
                           d="M 0,0 V 48.49" /><g
                           transform="translate(149.317,-160.125)"
                           id="g52"><path
                             id="path54"
                             style="fill:none;stroke:#231f20;stroke-width:0.75;stroke-linecap:square;stroke-linejoin:miter;stroke-miterlimit:10;stroke-dasharray:none;stroke-opacity:1"
                             d="M 0,0 H -77.999" /></g></g></g></g></g></g></g></g></g></g></g><g
       transform="translate(44.105,32.625)"
       id="g56"><path
         id="path58"
         style="fill:none;stroke:#231f20;stroke-width:2.25;stroke-linecap:square;stroke-linejoin:miter;stroke-miterlimit:10;stroke-dasharray:none;stroke-opacity:1"
         d="M 0,0 V 59.682" /></g><g
       transform="translate(194.901,160.688)"
       id="g60"><path
         id="path62"
         style="fill:none;stroke:#231f20;stroke-width:0.75;stroke-linecap:square;stroke-linejoin:miter;stroke-miterlimit:10;stroke-dasharray:none;stroke-opacity:1"
         d="M 0,0 H 55.313" /><g
         transform="translate(2.625,-23.625)"
         id="g64"><path
           id="path66"
           style="fill:none;stroke:#231f20;stroke-width:0.75;stroke-linecap:square;stroke-linejoin:miter;stroke-miterlimit:10;stroke-dasharray:none;stroke-opacity:1"
           d="M 0,0 H 57.938" /><g
           transform="translate(-24.937,41.119)"
           id="g68"><path
             id="path70"
             style="fill:none;stroke:#231f20;stroke-width:0.75;stroke-linecap:square;stroke-linejoin:miter;stroke-miterlimit:10;stroke-dasharray:none;stroke-opacity:1"
             d="M 0,0 H -42.234" /><g
             transform="translate(22.312,-17.494)"
             id="g72"><path
               id="path74"
               style="fill:none;stroke:#231f20;stroke-width:0.75;stroke-linecap:square;stroke-linejoin:miter;stroke-miterlimit:10;stroke-dasharray:none;stroke-opacity:1"
               d="M 0,0 V 0" /><g
               transform="translate(2.625,-23.625)"
               id="g76"><path
                 id="path78"
                 style="fill:none;stroke:#231f20;stroke-width:0.75;stroke-linecap:square;stroke-linejoin:miter;stroke-miterlimit:10;stroke-dasharray:none;stroke-opacity:1"
                 d="M 0,0 V 0" /><g
                 transform="translate(-111.187,-77.754)"
                 id="g80"><path
                   id="path82"
                   style="fill:none;stroke:#231f20;stroke-width:0.75;stroke-linecap:square;stroke-linejoin:miter;stroke-miterlimit:10;stroke-dasharray:none;stroke-opacity:1"
                   d="M 0,0 H -9.234 V 32.998" /><g
                   transform="translate(-56.309,116.567)"
                   id="g84"><path
                     id="path86"
                     style="fill:none;stroke:#231f20;stroke-width:0.75;stroke-linecap:square;stroke-linejoin:miter;stroke-miterlimit:10;stroke-dasharray:none;stroke-opacity:1"
                     d="M 0,0 V 48.49" /></g></g></g></g></g></g></g><path
       id="path88"
       style="fill:#ffffff;fill-opacity:1;fill-rule:nonzero;stroke:none"
       d="m 250.214,153 h 78.75 v 15.375 h -78.75 z" /><g
       transform="translate(257.901,168.375)"
       id="g90"><path
         id="path92"
         style="fill:none;stroke:#231f20;stroke-width:0.75;stroke-linecap:square;stroke-linejoin:miter;stroke-miterlimit:10;stroke-dasharray:none;stroke-opacity:1"
         d="m 0,0 h 63.375 c 4.244,0 7.688,-3.444 7.688,-7.687 0,-4.244 -3.444,-7.688 -7.688,-7.688 H 0 c -4.243,0 -7.687,3.444 -7.687,7.688 C -7.687,-3.444 -4.243,0 0,0 Z" /></g><text
       id="text96"
       style="font-variant:normal;font-weight:normal;font-stretch:normal;font-size:9px;font-family:Times;-inkscape-font-specification:Times-Roman;writing-mode:lr-tb;fill:#231f20;fill-opacity:1;fill-rule:nonzero;stroke:none"
       transform="matrix(1,0,0,-1,265.0733,158.1187)"><tspan
         id="tspan94"
         y="0"
         x="0 4.5 9 11.25 13.5 18 22.5 24.75 27 29.502001 33.498001 37.998001 41.993999 44.495998">65, 33, label</tspan></text>
<path
       id="path98"
       style="fill:#ffffff;fill-opacity:1;fill-rule:nonzero;stroke:none"
       d="m 255.464,129.375 h 73.5 v 15.375 h -73.5 z" /><g
       transform="translate(263.151,144.75)"
       id="g100"><path
         id="path102"
         style="fill:none;stroke:#231f20;stroke-width:0.75;stroke-linecap:square;stroke-linejoin:miter;stroke-miterlimit:10;stroke-dasharray:none;stroke-opacity:1"
         d="m 0,0 h 58.125 c 4.244,0 7.688,-3.443 7.688,-7.687 0,-4.244 -3.444,-7.688 -7.688,-7.688 H 0 c -4.243,0 -7.687,3.444 -7.687,7.688 C -7.687,-3.443 -4.243,0 0,0 Z" /></g><text
       id="text106"
       style="font-variant:normal;font-weight:normal;font-stretch:normal;font-size:9px;font-family:Times;-inkscape-font-specification:Times-Roman;writing-mode:lr-tb;fill:#231f20;fill-opacity:1;fill-rule:nonzero;stroke:none"
       transform="matrix(1,0,0,-1,269.9483,134.5606)"><tspan
         id="tspan104"
         y="0"
         x="0 4.5 9 11.25 13.5 18 22.5 24.75 27 29.502001 33.362999 37.862999 40.365002">65, 44, text</tspan></text>
<path
       id="path108"
       style="fill:#ffffff;fill-opacity:1;fill-rule:nonzero;stroke:none"
       d="m 261.839,58.313 h 78.75 v 15.375 h -78.75 z" /><g
       transform="translate(269.526,73.688)"
       id="g110"><path
         id="path112"
         style="fill:none;stroke:#231f20;stroke-width:0.75;stroke-linecap:square;stroke-linejoin:miter;stroke-miterlimit:10;stroke-dasharray:none;stroke-opacity:1"
         d="m 0,0 h 63.375 c 4.244,0 7.688,-3.443 7.688,-7.687 0,-4.244 -3.444,-7.688 -7.688,-7.688 H 0 c -4.243,0 -7.687,3.444 -7.687,7.688 C -7.687,-3.443 -4.243,0 0,0 Z" /></g><text
       id="text116"
       style="font-variant:normal;font-weight:normal;font-stretch:normal;font-size:9px;font-family:Times;-inkscape-font-specification:Times-Roman;writing-mode:lr-tb;fill:#231f20;fill-opacity:1;fill-rule:nonzero;stroke:none"
       transform="matrix(1,0,0,-1,276.6983,63.4317)"><tspan
         id="tspan114"
         y="0"
         x="0 4.5 9 11.25 13.5 18 22.5 24.75 27 29.502001 33.498001 37.998001 41.993999 44.495998">65, 33, label</tspan></text>
<path
       id="path118"
       style="fill:#ffffff;fill-opacity:1;fill-rule:nonzero;stroke:none"
       d="m 267.089,34.688 h 73.5 v 15.375 h -73.5 z" /><g
       transform="translate(274.776,50.063)"
       id="g120"><path
         id="path122"
         style="fill:none;stroke:#231f20;stroke-width:0.75;stroke-linecap:square;stroke-linejoin:miter;stroke-miterlimit:10;stroke-dasharray:none;stroke-opacity:1"
         d="m 0,0 h 58.125 c 4.244,0 7.688,-3.443 7.688,-7.687 0,-4.244 -3.444,-7.688 -7.688,-7.688 H 0 c -4.243,0 -7.687,3.444 -7.687,7.688 C -7.687,-3.443 -4.243,0 0,0 Z" /></g><text
       id="text126"
       style="font-variant:normal;font-weight:normal;font-stretch:normal;font-size:9px;font-family:Times;-inkscape-font-specification:Times-Roman;writing-mode:lr-tb;fill:#231f20;fill-opacity:1;fill-rule:nonzero;stroke:none"
       transform="matrix(1,0,0,-1,281.5733,39.8731)"><tspan
         id="tspan124"
         y="0"
         x="0 4.5 9 11.25 13.5 18 22.5 24.75 27 29.502001 33.362999 37.862999 40.365002">65, 44, text</tspan></text>
<path
       id="path128"
       style="fill:#ffffff;fill-opacity:1;fill-rule:nonzero;stroke:none"
       d="m 222.089,92.307 h 106.875 v 28.818 H 222.089 Z" /><g
       transform="translate(236.499,121.125)"
       id="g130"><path
         id="path132"
         style="fill:none;stroke:#231f20;stroke-width:0.75;stroke-linecap:square;stroke-linejoin:miter;stroke-miterlimit:10;stroke-dasharray:none;stroke-opacity:1"
         d="m 0,0 h 78.057 c 7.953,0 14.408,-6.455 14.408,-14.408 0,-7.954 -6.455,-14.41 -14.408,-14.41 H 0 c -7.954,0 -14.41,6.456 -14.41,14.41 C -14.41,-6.455 -7.954,0 0,0 Z" /></g><text
       id="text138"
       style="font-variant:normal;font-weight:normal;font-stretch:normal;font-size:9px;font-family:Times;-inkscape-font-specification:Times-Roman;writing-mode:lr-tb;fill:#231f20;fill-opacity:1;fill-rule:nonzero;stroke:none"
       transform="matrix(1,0,0,-1,235.9384,108.7676)"><tspan
         id="tspan134"
         y="0"
         x="0 4.5 6.75 9 13.5 18 20.25 22.5 26.496 30.996 34.992001 37.988998 41.985001 45.980999 48.483002 52.479 55.476002 57.978001 61.973999 65.970001 70.470001 74.970001">8, 71, characterized_</tspan><tspan
         id="tspan136"
         y="10.9998"
         x="6.8264999 10.8225 14.8185 17.320499 19.8225 24.3225 28.8225 33.322498 37.822498 41.818501 44.635502 47.137501 51.637501 54.1395 56.641499 59.143501 63.643501 68.143501">action_definition</tspan></text>
<path
       id="path140"
       style="fill:#ffffff;fill-opacity:1;fill-rule:nonzero;stroke:none"
       d="m 250.125,247.991 h 81 v 15.375 h -81 z" /><g
       transform="translate(257.813,263.366)"
       id="g142"><path
         id="path144"
         style="fill:none;stroke:#231f20;stroke-width:0.75;stroke-linecap:square;stroke-linejoin:miter;stroke-miterlimit:10;stroke-dasharray:none;stroke-opacity:1"
         d="m 0,0 h 65.625 c 4.243,0 7.688,-3.444 7.688,-7.687 0,-4.244 -3.445,-7.688 -7.688,-7.688 H 0 c -4.243,0 -7.687,3.444 -7.687,7.688 C -7.687,-3.444 -4.243,0 0,0 Z" /></g><text
       id="text148"
       style="font-variant:normal;font-weight:normal;font-stretch:normal;font-size:9px;font-family:Times;-inkscape-font-specification:Times-Roman;writing-mode:lr-tb;fill:#231f20;fill-opacity:1;fill-rule:nonzero;stroke:none"
       transform="matrix(1,0,0,-1,266.1094,253.1089)"><tspan
         id="tspan146"
         y="0"
         x="0 4.5 9 11.25 13.5 18 22.5 24.75 27 29.502001 33.498001 37.998001 41.993999 44.495998">65, 33, label</tspan></text>
<path
       id="path150"
       style="fill:#ffffff;fill-opacity:1;fill-rule:nonzero;stroke:none"
       d="m 255.375,224.366 h 75.75 v 15.375 h -75.75 z" /><g
       transform="translate(263.063,239.741)"
       id="g152"><path
         id="path154"
         style="fill:none;stroke:#231f20;stroke-width:0.75;stroke-linecap:square;stroke-linejoin:miter;stroke-miterlimit:10;stroke-dasharray:none;stroke-opacity:1"
         d="m 0,0 h 60.375 c 4.243,0 7.688,-3.444 7.688,-7.687 0,-4.244 -3.445,-7.688 -7.688,-7.688 H 0 c -4.243,0 -7.687,3.444 -7.687,7.688 C -7.687,-3.444 -4.243,0 0,0 Z" /></g><text
       id="text158"
       style="font-variant:normal;font-weight:normal;font-stretch:normal;font-size:9px;font-family:Times;-inkscape-font-specification:Times-Roman;writing-mode:lr-tb;fill:#231f20;fill-opacity:1;fill-rule:nonzero;stroke:none"
       transform="matrix(1,0,0,-1,270.9834,229.5513)"><tspan
         id="tspan156"
         y="0"
         x="0 4.5 9 11.25 13.5 18 22.5 24.75 27 29.502001 33.362999 37.862999 40.365002">65, 44, text</tspan></text>
<path
       id="path160"
       style="fill:#ffffff;fill-opacity:1;fill-rule:nonzero;stroke:none"
       d="m 248.714,6.375 h 96.75 v 18.75 h -96.75 z" /><g
       transform="translate(258.089,25.125)"
       id="g162"><path
         id="path164"
         style="fill:none;stroke:#231f20;stroke-width:0.75;stroke-linecap:square;stroke-linejoin:miter;stroke-miterlimit:10;stroke-dasharray:none;stroke-opacity:1"
         d="m 0,0 h 78 c 5.176,0 9.375,-4.199 9.375,-9.375 0,-5.175 -4.199,-9.375 -9.375,-9.375 H 0 c -5.175,0 -9.375,4.2 -9.375,9.375 C -9.375,-4.199 -5.175,0 0,0 Z" /></g><text
       id="text168"
       style="font-variant:normal;font-weight:normal;font-stretch:normal;font-size:9px;font-family:Times;-inkscape-font-specification:Times-Roman;writing-mode:lr-tb;fill:#231f20;fill-opacity:1;fill-rule:nonzero;stroke:none"
       transform="matrix(1,0,0,-1,252.5674,13.1817)"><tspan
         id="tspan166"
         y="0"
         x="0 4.5 6.75 9 13.5 18 20.25 22.5 26.496 30.492001 32.993999 35.495998 39.995998 44.495998 48.995998 51.993 55.988998 59.490002 63.990002 68.489998 71.487 75.483002 79.478996">6, 68, action_resource</tspan></text>
<path
       id="path170"
       style="fill:#ffffff;fill-opacity:1;fill-rule:nonzero;stroke:none"
       d="m 172.589,169.5 h 66.749 v 15.375 h -66.749 z" /><g
       transform="translate(180.276,184.875)"
       id="g172"><path
         id="path174"
         style="fill:none;stroke:#231f20;stroke-width:0.75;stroke-linecap:square;stroke-linejoin:miter;stroke-miterlimit:10;stroke-dasharray:none;stroke-opacity:1"
         d="m 0,0 h 51.375 c 4.244,0 7.688,-3.444 7.688,-7.687 0,-4.244 -3.444,-7.688 -7.688,-7.688 H 0 c -4.243,0 -7.687,3.444 -7.687,7.688 C -7.687,-3.444 -4.243,0 0,0 Z" /></g><text
       id="text178"
       style="font-variant:normal;font-weight:normal;font-stretch:normal;font-size:9px;font-family:Times;-inkscape-font-specification:Times-Roman;writing-mode:lr-tb;fill:#231f20;fill-opacity:1;fill-rule:nonzero;stroke:none"
       transform="matrix(1,0,0,-1,189.2061,174.8213)"><tspan
         id="tspan176"
         y="0"
         x="0 4.5 6.75 9 13.5 18 20.25 23.247 27.747 30.743999">7, 72 (9)</tspan></text>
<path
       id="path180"
       style="fill:#ffffff;fill-opacity:1;fill-rule:nonzero;stroke:none"
       d="m 63.375,277.991 h 68.25 v 15.375 h -68.25 z" /><g
       transform="translate(71.063,293.366)"
       id="g182"><path
         id="path184"
         style="fill:none;stroke:#231f20;stroke-width:0.75;stroke-linecap:square;stroke-linejoin:miter;stroke-miterlimit:10;stroke-dasharray:none;stroke-opacity:1"
         d="m 0,0 h 52.875 c 4.244,0 7.688,-3.444 7.688,-7.687 0,-4.244 -3.444,-7.688 -7.688,-7.688 H 0 c -4.244,0 -7.687,3.444 -7.687,7.688 C -7.687,-3.444 -4.244,0 0,0 Z" /></g><text
       id="text188"
       style="font-variant:normal;font-weight:normal;font-stretch:normal;font-size:9px;font-family:Times;-inkscape-font-specification:Times-Roman;writing-mode:lr-tb;fill:#231f20;fill-opacity:1;fill-rule:nonzero;stroke:none"
       transform="matrix(1,0,0,-1,80.7422,283.3116)"><tspan
         id="tspan186"
         y="0"
         x="0 4.5 6.75 9 13.5 18 20.25 23.247 27.747 30.743999">7, 73 (9)</tspan></text>
<g
       transform="translate(47.806,28.858)"
       id="g190"><path
         id="path192"
         style="fill:#ffffff;fill-opacity:1;fill-rule:nonzero;stroke:none"
         d="M 0,0 C 0,2.07 -1.68,3.75 -3.75,3.75 -5.819,3.75 -7.5,2.07 -7.5,0 c 0,-2.069 1.681,-3.75 3.75,-3.75 C -1.68,-3.75 0,-2.069 0,0" /></g><g
       transform="translate(47.806,28.858)"
       id="g194"><path
         id="path196"
         style="fill:none;stroke:#231f20;stroke-width:0.75;stroke-linecap:square;stroke-linejoin:miter;stroke-miterlimit:10;stroke-dasharray:none;stroke-opacity:1"
         d="M 0,0 C 0,2.07 -1.68,3.75 -3.75,3.75 -5.819,3.75 -7.5,2.07 -7.5,0 c 0,-2.069 1.681,-3.75 3.75,-3.75 C -1.68,-3.75 0,-2.069 0,0" /></g><g
       transform="translate(134.116,172.138)"
       id="g198"><path
         id="path200"
         style="fill:#ffffff;fill-opacity:1;fill-rule:nonzero;stroke:none"
         d="M 0,0 C 0,2.07 -1.68,3.75 -3.75,3.75 -5.82,3.75 -7.5,2.07 -7.5,0 c 0,-2.069 1.68,-3.75 3.75,-3.75 C -1.68,-3.75 0,-2.069 0,0" /></g><g
       transform="translate(134.116,172.138)"
       id="g202"><path
         id="path204"
         style="fill:none;stroke:#231f20;stroke-width:0.75;stroke-linecap:square;stroke-linejoin:miter;stroke-miterlimit:10;stroke-dasharray:none;stroke-opacity:1"
         d="M 0,0 C 0,2.07 -1.68,3.75 -3.75,3.75 -5.82,3.75 -7.5,2.07 -7.5,0 c 0,-2.069 1.68,-3.75 3.75,-3.75 C -1.68,-3.75 0,-2.069 0,0" /></g><g
       transform="translate(101.266,267.088)"
       id="g206"><path
         id="path208"
         style="fill:#ffffff;fill-opacity:1;fill-rule:nonzero;stroke:none"
         d="M 0,0 C 0,2.07 -1.68,3.75 -3.75,3.75 -5.82,3.75 -7.5,2.07 -7.5,0 c 0,-2.07 1.68,-3.75 3.75,-3.75 C -1.68,-3.75 0,-2.07 0,0" /></g><g
       transform="translate(101.266,267.088)"
       id="g210"><path
         id="path212"
         style="fill:none;stroke:#231f20;stroke-width:0.75;stroke-linecap:square;stroke-linejoin:miter;stroke-miterlimit:10;stroke-dasharray:none;stroke-opacity:1"
         d="M 0,0 C 0,2.07 -1.68,3.75 -3.75,3.75 -5.82,3.75 -7.5,2.07 -7.5,0 c 0,-2.07 1.68,-3.75 3.75,-3.75 C -1.68,-3.75 0,-2.07 0,0" /></g><text
       id="text242"
       style="font-variant:normal;font-weight:normal;font-stretch:normal;font-size:9px;font-family:Times;-inkscape-font-specification:Times-Roman;writing-mode:lr-tb;fill:#231f20;fill-opacity:1;fill-rule:nonzero;stroke:none"
       transform="matrix(1,0,0,-1,147.0894,152.4566)"><tspan
         id="tspan214"
         y="0"
         x="0 4.5 8.4960003 15.498 19.493999">name</tspan><tspan
         id="tspan216"
         y="26.378099"
         x="0 4.5 8.4960003 11.997 15.993 18.99 21.492001 25.992001 28.493999 30.996 35.495998 39.995998">description</tspan><tspan
         id="tspan218"
         y="94.686302"
         x="77.249702 81.749702 85.745697 92.747704 96.743698">name</tspan><tspan
         id="tspan220"
         y="121.0653"
         x="77.249702 81.749702 85.745697 89.246696 93.242699 96.2397 98.741699 103.2417 105.7437 108.2457 112.7457 117.2457">description</tspan><tspan
         id="tspan222"
         y="57.0159"
         x="0 4.5 9 12.996 15.993 19.989 22.490999 24.993 29.493 33.993 37.493999 39.743999 44.748001 47.744999 52.244999 54.747002 58.743 61.740002">operations S[1:?]</tspan><tspan
         id="tspan224"
         y="-94.990501"
         x="55.0359 59.5359 63.531898 70.533897 74.5299">name</tspan><tspan
         id="tspan226"
         y="-68.611504"
         x="55.0359 59.5359 63.531898 67.032898 71.0289 74.025902 76.527901 81.027901 83.5299 86.031898 90.531898 95.031898">description</tspan><tspan
         id="tspan228"
         y="-58.606201"
         x="-113.3082 -110.3112 -106.3152 -103.8132 -99.8172 -97.315201 -94.813202 -90.313202 -85.813202 -81.313202 -77.3172 -73.321198 -70.819199 -68.3172 -63.8172 -59.3172 -54.8172">relating_action_</tspan><tspan
         id="tspan230"
         y="-47.6064"
         x="-113.3082 -110.3112 -106.3152 -102.8142 -98.314201 -93.814201 -90.8172 -86.821198 -82.825203 -78.325203">resource_</tspan><tspan
         id="tspan232"
         y="-36.606602"
         x="-113.3082 -110.3112 -106.3152 -101.8152 -97.315201 -94.813202 -91.8162 -87.820198 -80.818199 -76.822197 -72.322197 -69.820198">requirement</tspan><tspan
         id="tspan234"
         y="-59.5233"
         x="-43.307999 -40.311001 -36.314999 -33.813 -29.816999 -27.315001 -23.319 -18.819 -14.319 -10.323 -6.3270001 -3.825 -1.323 3.177 7.677 12.177">related_action_</tspan><tspan
         id="tspan236"
         y="-48.523499"
         x="-43.307999 -40.311001 -36.314999 -32.813999 -28.313999 -23.813999 -20.816999 -16.820999 -12.825 -8.3249998">resource_</tspan><tspan
         id="tspan238"
         y="-37.523701"
         x="-43.307999 -40.311001 -36.314999 -31.815001 -27.315001 -24.813 -21.816 -17.82 -10.818 -6.822 -2.322 0.18000001">requirement</tspan><tspan
         id="tspan240"
         y="147.9816"
         x="31.124701 34.1217 38.117699 41.618698 46.118698 50.618698 53.6157 57.611698 61.6077 65.108704 67.358704 72.362701 75.359703 79.859703 82.361702 86.357697 89.354698">resources S[1:?]</tspan></text>
<path
       id="path244"
       style="fill:#ffffff;fill-opacity:1;fill-rule:nonzero;stroke:none"
       d="m 9.8394,92.307 h 129.75 v 76.069 H 9.8394 Z" /><g
       transform="translate(9.8394,168.375)"
       id="g246"><path
         id="path248"
         style="fill:none;stroke:#231f20;stroke-width:0.75;stroke-linecap:square;stroke-linejoin:miter;stroke-miterlimit:10;stroke-dasharray:none;stroke-opacity:1"
         d="M 129.75,0 H 0 v -76.069 h 129.75 z" /><g
         id="g250"><path
           id="path252"
           style="fill:none;stroke:#231f20;stroke-width:0.75;stroke-linecap:square;stroke-linejoin:miter;stroke-miterlimit:10;stroke-dasharray:none;stroke-opacity:1"
           d="M 0,0 Z" /></g></g><text
       id="text256"
       style="font-variant:normal;font-weight:normal;font-stretch:normal;font-size:9px;font-family:Times;-inkscape-font-specification:Times-Roman;writing-mode:lr-tb;fill:#231f20;fill-opacity:1;fill-rule:nonzero;stroke:none"
       transform="matrix(1,0,0,-1,21.5254,127.375)"><tspan
         id="tspan254"
         y="0"
         x="0 3.9960001 7.9920001 10.494 12.996 17.496 21.996 26.496 29.493 33.488998 36.990002 41.490002 45.990002 48.987 52.983002 56.979 61.479 64.475998 68.472 72.972 77.472 79.973999 82.971001 86.967003 93.969002 97.964996 102.465 104.967">action_resource_requirement</tspan></text>
<path
       id="path258"
       style="fill:#ffffff;fill-opacity:1;fill-rule:nonzero;stroke:none"
       d="m 93.839,34.688 h 123 v 39 h -123 z" /><g
       transform="translate(93.839,73.688)"
       id="g260"><path
         id="path262"
         style="fill:none;stroke:#231f20;stroke-width:0.75;stroke-linecap:square;stroke-linejoin:miter;stroke-miterlimit:10;stroke-dasharray:none;stroke-opacity:1"
         d="M 123,0 H 0 v -39 h 123 z" /><g
         id="g264"><path
           id="path266"
           style="fill:none;stroke:#231f20;stroke-width:0.75;stroke-linecap:square;stroke-linejoin:miter;stroke-miterlimit:10;stroke-dasharray:none;stroke-opacity:1"
           d="M 0,0 Z" /></g></g><text
       id="text270"
       style="font-variant:normal;font-weight:normal;font-stretch:normal;font-size:9px;font-family:Times;-inkscape-font-specification:Times-Roman;writing-mode:lr-tb;fill:#231f20;fill-opacity:1;fill-rule:nonzero;stroke:none"
       transform="matrix(1,0,0,-1,105.6514,51.2539)"><tspan
         id="tspan268"
         y="0"
         x="0 2.997 6.993 10.494 14.994 19.493999 22.490999 26.487 30.483 34.983002 37.98 41.976002 46.476002 50.976002 53.478001 56.474998 60.471001 67.473 71.469002 75.969002 78.471001 82.971001 85.473 89.973 94.473 98.469002">resource_requirement_type</tspan></text>
<path
       id="path272"
       style="fill:#ffffff;fill-opacity:1;fill-rule:nonzero;stroke:none"
       d="m 0.37502,224.366 h 194.25 v 39 h -194.25 z" /><g
       transform="translate(0.37502,263.366)"
       id="g274"><path
         id="path276"
         style="fill:none;stroke:#231f20;stroke-width:0.75;stroke-linecap:square;stroke-linejoin:miter;stroke-miterlimit:10;stroke-dasharray:none;stroke-opacity:1"
         d="M 194.25,0 H 0 v -39 h 194.25 z" /><g
         id="g278"><path
           id="path280"
           style="fill:none;stroke:#231f20;stroke-width:0.75;stroke-linecap:square;stroke-linejoin:miter;stroke-miterlimit:10;stroke-dasharray:none;stroke-opacity:1"
           d="M 0,0 Z" /></g></g><text
       id="text284"
       style="font-variant:normal;font-weight:normal;font-stretch:normal;font-size:9px;font-family:Times;-inkscape-font-specification:Times-Roman;writing-mode:lr-tb;fill:#231f20;fill-opacity:1;fill-rule:nonzero;stroke:none"
       transform="matrix(1,0,0,-1,24.1338,239.5664)"><tspan
         id="tspan282"
         y="0"
         x="0 3.9960001 7.9920001 10.494 12.996 17.496 21.996 26.496 29.493 33.488998 36.990002 41.490002 45.990002 48.987 52.983002 56.979 61.479 64.475998 68.472 72.972 77.472 79.973999 82.971001 86.967003 93.969002 97.964996 102.465 104.967 109.467 112.464 116.46 118.962 122.958 125.46 127.962 132.46201 136.96201 140.463 144.963 147.465 151.965">action_resource_requirement_relationship</tspan></text>
<path
       id="path286"
       style="fill:#ffffff;fill-opacity:1;fill-rule:nonzero;stroke:none"
       d="m 26.714,0.375 h 144 v 24.75 h -144 z" /><g
       transform="translate(26.714,25.125)"
       id="g288"><path
         id="path290"
         style="fill:none;stroke:#231f20;stroke-width:0.75;stroke-linecap:square;stroke-linejoin:miter;stroke-miterlimit:10;stroke-dasharray:none;stroke-opacity:1"
         d="M 144,0 H 0 v -24.75 h 144 z" /><g
         id="g292"><path
           id="path294"
           style="fill:none;stroke:#231f20;stroke-width:0.75;stroke-linecap:square;stroke-linejoin:miter;stroke-miterlimit:10;stroke-dasharray:none;stroke-opacity:1"
           d="M 0,0 Z" /></g></g><text
       id="text298"
       style="font-variant:normal;font-weight:normal;font-stretch:normal;font-size:9px;font-family:Times;-inkscape-font-specification:Times-Roman;writing-mode:lr-tb;fill:#231f20;fill-opacity:1;fill-rule:nonzero;stroke:none"
       transform="matrix(1,0,0,-1,38.439,10.4063)"><tspan
         id="tspan296"
         y="0"
         x="0 2.997 6.993 11.493 15.993 18.495001 21.492001 25.488001 32.490002 36.486 40.986 43.487999 47.987999 50.985001 55.485001 58.481998 62.981998 66.977997 70.973999 73.475998 75.977997 80.477997 84.977997 89.477997 92.474998 96.471001 99.972 104.472 108.972 111.969 115.965 119.961">requirement_for_action_resource</tspan></text>
<g
       transform="translate(103.156,172.138)"
       id="g300"><path
         id="path302"
         style="fill:#ffffff;fill-opacity:1;fill-rule:nonzero;stroke:none"
         d="M 0,0 C 0,2.07 -1.68,3.75 -3.75,3.75 -5.82,3.75 -7.5,2.07 -7.5,0 c 0,-2.069 1.68,-3.75 3.75,-3.75 C -1.68,-3.75 0,-2.069 0,0" /></g><g
       transform="translate(103.156,172.138)"
       id="g304"><path
         id="path306"
         style="fill:none;stroke:#231f20;stroke-width:0.75;stroke-linecap:square;stroke-linejoin:miter;stroke-miterlimit:10;stroke-dasharray:none;stroke-opacity:1"
         d="M 0,0 C 0,2.07 -1.68,3.75 -3.75,3.75 -5.82,3.75 -7.5,2.07 -7.5,0 c 0,-2.069 1.68,-3.75 3.75,-3.75 C -1.68,-3.75 0,-2.069 0,0" /></g><text
       id="text310"
       style="font-variant:normal;font-weight:normal;font-stretch:normal;font-size:9px;font-family:Times;-inkscape-font-specification:Times-Roman;writing-mode:lr-tb;fill:#231f20;fill-opacity:1;fill-rule:nonzero;stroke:none"
       transform="matrix(1,0,0,-1,81.7808,81.3955)"><tspan
         id="tspan308"
         y="0"
         x="0 4.5 7.0019999 11.502 16.002001">kind</tspan></text>
<g
       transform="translate(93.886,59.278)"
       id="g312"><path
         id="path314"
         style="fill:#ffffff;fill-opacity:1;fill-rule:nonzero;stroke:none"
         d="M 0,0 C 0,2.069 -1.68,3.75 -3.75,3.75 -5.82,3.75 -7.5,2.069 -7.5,0 c 0,-2.07 1.68,-3.75 3.75,-3.75 C -1.68,-3.75 0,-2.07 0,0" /></g><g
       transform="translate(93.886,59.278)"
       id="g316"><path
         id="path318"
         style="fill:none;stroke:#231f20;stroke-width:0.75;stroke-linecap:square;stroke-linejoin:miter;stroke-miterlimit:10;stroke-dasharray:none;stroke-opacity:1"
         d="M 0,0 C 0,2.069 -1.68,3.75 -3.75,3.75 -5.82,3.75 -7.5,2.069 -7.5,0 c 0,-2.07 1.68,-3.75 3.75,-3.75 C -1.68,-3.75 0,-2.07 0,0" /></g><g
       transform="translate(33.766,172.138)"
       id="g320"><path
         id="path322"
         style="fill:#ffffff;fill-opacity:1;fill-rule:nonzero;stroke:none"
         d="M 0,0 C 0,2.07 -1.68,3.75 -3.75,3.75 -5.82,3.75 -7.5,2.07 -7.5,0 c 0,-2.069 1.68,-3.75 3.75,-3.75 C -1.68,-3.75 0,-2.069 0,0" /></g><g
       transform="translate(33.766,172.138)"
       id="g324"><path
         id="path326"
         style="fill:none;stroke:#231f20;stroke-width:0.75;stroke-linecap:square;stroke-linejoin:miter;stroke-miterlimit:10;stroke-dasharray:none;stroke-opacity:1"
         d="M 0,0 C 0,2.07 -1.68,3.75 -3.75,3.75 -5.82,3.75 -7.5,2.07 -7.5,0 c 0,-2.069 1.68,-3.75 3.75,-3.75 C -1.68,-3.75 0,-2.069 0,0" /></g><text
       id="text330"
       style="font-variant:normal;font-weight:normal;font-stretch:normal;font-size:9px;font-family:Times;-inkscape-font-specification:Times-Roman;writing-mode:lr-tb;fill:#231f20;fill-opacity:1;fill-rule:nonzero;stroke:none"
       transform="matrix(1,0,0,-1,178.2061,198.3345)"><tspan
         id="tspan328"
         y="0"
         x="0"></tspan></text>
</g></svg>