<?xml version="1.0" encoding="UTF-8" standalone="no"?>
<svg
   xmlns:dc="http://purl.org/dc/elements/1.1/"
   xmlns:cc="http://creativecommons.org/ns#"
   xmlns:rdf="http://www.w3.org/1999/02/22-rdf-syntax-ns#"
   xmlns:svg="http://www.w3.org/2000/svg"
   xmlns="http://www.w3.org/2000/svg"
   viewBox="0 0 482.5 601.88397"
   height="601.88397"
   width="482.5"
   xml:space="preserve"
   id="svg2"
   version="1.1"><metadata
     id="metadata8"><rdf:RDF><cc:Work
         rdf:about=""><dc:format>image/svg+xml</dc:format><dc:type
           rdf:resource="http://purl.org/dc/dcmitype/StillImage" /></cc:Work></rdf:RDF></metadata><defs
     id="defs6" /><g
     transform="matrix(1.3333333,0,0,-1.3333333,0,601.884)"
     id="g10"><g
       transform="translate(135.203,414.101)"
       id="g12"><path
         id="path14"
         style="fill:none;stroke:#231f20;stroke-width:0.75;stroke-linecap:square;stroke-linejoin:miter;stroke-miterlimit:10;stroke-dasharray:none;stroke-opacity:1"
         d="M 0,0 H -53.25" /><g
         transform="translate(-15.75,-23.625)"
         id="g16"><path
           id="path18"
           style="fill:none;stroke:#231f20;stroke-width:0.75;stroke-linecap:square;stroke-linejoin:miter;stroke-miterlimit:10;stroke-dasharray:none;stroke-opacity:1"
           d="M 0,0 H -37.5" /><g
           transform="translate(0,-23.625)"
           id="g20"><path
             id="path22"
             style="fill:none;stroke:#231f20;stroke-width:0.75;stroke-linecap:square;stroke-linejoin:miter;stroke-miterlimit:10;stroke-dasharray:none;stroke-opacity:1"
             d="M 0,0 H -37.5" /><g
             transform="translate(0,-23.625)"
             id="g24"><path
               id="path26"
               style="fill:none;stroke:#231f20;stroke-width:0.75;stroke-linecap:square;stroke-linejoin:miter;stroke-miterlimit:10;stroke-dasharray:none;stroke-opacity:1"
               d="M 0,0 H -37.5" /><g
               transform="translate(86.118,-66.273)"
               id="g28"><path
                 id="path30"
                 style="fill:none;stroke:#231f20;stroke-width:0.75;stroke-linecap:square;stroke-linejoin:miter;stroke-miterlimit:10;stroke-dasharray:none;stroke-opacity:1"
                 d="M 0,0 H -78.749" /><g
                 transform="translate(-30.749,-23.625)"
                 id="g32"><path
                   id="path34"
                   style="fill:none;stroke:#231f20;stroke-width:0.75;stroke-linecap:square;stroke-linejoin:miter;stroke-miterlimit:10;stroke-dasharray:none;stroke-opacity:1"
                   d="M 0,0 H -48" /><g
                   transform="translate(0,-23.625)"
                   id="g36"><path
                     id="path38"
                     style="fill:none;stroke:#231f20;stroke-width:0.75;stroke-linecap:square;stroke-linejoin:miter;stroke-miterlimit:10;stroke-dasharray:none;stroke-opacity:1"
                     d="M 0,0 H -48" /></g></g></g></g></g></g></g><g
       transform="translate(94.064,303.227)"
       id="g40"><path
         id="path42"
         style="fill:none;stroke:#231f20;stroke-width:2.25;stroke-linecap:square;stroke-linejoin:miter;stroke-miterlimit:10;stroke-dasharray:none;stroke-opacity:1"
         d="M 0,0 H 45.882" /><g
         transform="translate(-23.862,141.558)"
         id="g44"><path
           id="path46"
           style="fill:none;stroke:#231f20;stroke-width:2.25;stroke-linecap:square;stroke-linejoin:miter;stroke-miterlimit:10;stroke-dasharray:none;stroke-opacity:1"
           d="M 0,0 H 40.25" /><g
           transform="translate(23.862,-152.645)"
           id="g48"><path
             id="path50"
             style="fill:none;stroke:#231f20;stroke-width:2.25;stroke-linecap:square;stroke-linejoin:miter;stroke-miterlimit:10;stroke-dasharray:none;stroke-opacity:1"
             d="M 0,0 V 11.087" /><g
             transform="translate(-23.862,137.148)"
             id="g52"><path
               id="path54"
               style="fill:none;stroke:#231f20;stroke-width:2.25;stroke-linecap:square;stroke-linejoin:miter;stroke-miterlimit:10;stroke-dasharray:none;stroke-opacity:1"
               d="M 0,0 V 15.496" /></g></g></g></g><g
       transform="translate(131.812,173.686)"
       id="g56"><path
         id="path58"
         style="fill:none;stroke:#231f20;stroke-width:0.75;stroke-linecap:square;stroke-linejoin:miter;stroke-miterlimit:10;stroke-dasharray:none;stroke-opacity:1"
         d="M 0,0 H -46.5" /><g
         transform="translate(-27,-25.312)"
         id="g60"><path
           id="path62"
           style="fill:none;stroke:#231f20;stroke-width:0.75;stroke-linecap:square;stroke-linejoin:miter;stroke-miterlimit:10;stroke-dasharray:none;stroke-opacity:1"
           d="M 0,0 H 27" /><g
           transform="translate(27,-25.313)"
           id="g64"><path
             id="path66"
             style="fill:none;stroke:#231f20;stroke-width:0.75;stroke-linecap:square;stroke-linejoin:miter;stroke-miterlimit:10;stroke-dasharray:none;stroke-opacity:1"
             d="M 0,0 H -22.5" /><g
             transform="translate(117.75,50.625)"
             id="g68"><path
               id="path70"
               style="fill:none;stroke:#231f20;stroke-width:0.75;stroke-linecap:square;stroke-linejoin:miter;stroke-miterlimit:10;stroke-dasharray:none;stroke-opacity:1"
               d="M 0,0 H 39" /><g
               transform="translate(19.5,-23.625)"
               id="g72"><path
                 id="path74"
                 style="fill:none;stroke:#231f20;stroke-width:0.75;stroke-linecap:square;stroke-linejoin:miter;stroke-miterlimit:10;stroke-dasharray:none;stroke-opacity:1"
                 d="M 0,0 H -19.5" /><g
                 transform="translate(19.5)"
                 id="g76"><path
                   id="path78"
                   style="fill:none;stroke:#231f20;stroke-width:0.75;stroke-linecap:square;stroke-linejoin:miter;stroke-miterlimit:10;stroke-dasharray:none;stroke-opacity:1"
                   d="M 0,0 H -19.5 V 0" /><g
                   transform="translate(-27.75,-25.313)"
                   id="g80"><path
                     id="path82"
                     style="fill:none;stroke:#231f20;stroke-width:0.75;stroke-linecap:square;stroke-linejoin:miter;stroke-miterlimit:10;stroke-dasharray:none;stroke-opacity:1"
                     d="M 0,0 H -11.25" /><g
                     transform="translate(11.25)"
                     id="g84"><path
                       id="path86"
                       style="fill:none;stroke:#231f20;stroke-width:0.75;stroke-linecap:square;stroke-linejoin:miter;stroke-miterlimit:10;stroke-dasharray:none;stroke-opacity:1"
                       d="M 0,0 H -11.25 V 0" /><g
                       transform="translate(-87.789,-16.875)"
                       id="g88"><path
                         id="path90"
                         style="fill:none;stroke:#231f20;stroke-width:0.75;stroke-linecap:square;stroke-linejoin:miter;stroke-miterlimit:10;stroke-dasharray:none;stroke-opacity:1"
                         d="M 0,0 -0.711,-68.498" /><g
                         transform="translate(100.539,-51.405)"
                         id="g92"><path
                           id="path94"
                           style="fill:none;stroke:#231f20;stroke-width:0.75;stroke-linecap:square;stroke-linejoin:miter;stroke-miterlimit:10;stroke-dasharray:none;stroke-opacity:1"
                           d="M 0,0 H -62.25" /><g
                           transform="translate(0,13.343)"
                           id="g96"><path
                             id="path98"
                             style="fill:none;stroke:#231f20;stroke-width:0.75;stroke-linecap:square;stroke-linejoin:miter;stroke-miterlimit:10;stroke-dasharray:none;stroke-opacity:1"
                             d="M 0,0 V -13.343" /><g
                             transform="translate(-62.25,-13.343)"
                             id="g100"><path
                               id="path102"
                               style="fill:none;stroke:#231f20;stroke-width:0.75;stroke-linecap:square;stroke-linejoin:miter;stroke-miterlimit:10;stroke-dasharray:none;stroke-opacity:1"
                               d="M 0,0 V -17.093" /><g
                               transform="translate(-158.249,-0.094)"
                               id="g104"><path
                                 id="path106"
                                 style="fill:none;stroke:#231f20;stroke-width:0.75;stroke-linecap:square;stroke-linejoin:miter;stroke-miterlimit:10;stroke-dasharray:none;stroke-opacity:1"
                                 d="M 0,0 H 88.5" /><g
                                 transform="translate(0,13.249)"
                                 id="g108"><path
                                   id="path110"
                                   style="fill:none;stroke:#231f20;stroke-width:0.75;stroke-linecap:square;stroke-linejoin:miter;stroke-miterlimit:10;stroke-dasharray:none;stroke-opacity:1"
                                   d="M 0,0 V -13.249" /><g
                                   transform="translate(88.5,-13.249)"
                                   id="g112"><path
                                   id="path114"
                                   style="fill:none;stroke:#231f20;stroke-width:0.75;stroke-linecap:square;stroke-linejoin:miter;stroke-miterlimit:10;stroke-dasharray:none;stroke-opacity:1"
                                   d="M 0,0 V -16.999" /><g
                                   transform="translate(12.75,51.499)"
                                   id="g116"><path
                                   id="path118"
                                   style="fill:none;stroke:#231f20;stroke-width:0.75;stroke-linecap:square;stroke-linejoin:miter;stroke-miterlimit:10;stroke-dasharray:none;stroke-opacity:1"
                                   d="M 0,0 V -22.748 H -27.937" /><g
                                   transform="translate(38.25)"
                                   id="g120"><path
                                   id="path122"
                                   style="fill:none;stroke:#231f20;stroke-width:0.75;stroke-linecap:square;stroke-linejoin:miter;stroke-miterlimit:10;stroke-dasharray:none;stroke-opacity:1"
                                   d="M 0,0 V -21.248 H 21.188" /></g></g></g></g></g></g></g></g></g></g></g></g></g></g></g></g></g><path
       id="path124"
       style="fill:#ffffff;fill-opacity:1;fill-rule:nonzero;stroke:none"
       d="m 135.203,406.413 h 130.5 v 15.375 h -130.5 z" /><g
       transform="translate(142.89,421.788)"
       id="g126"><path
         id="path128"
         style="fill:none;stroke:#231f20;stroke-width:0.75;stroke-linecap:square;stroke-linejoin:miter;stroke-miterlimit:10;stroke-dasharray:none;stroke-opacity:1"
         d="m 0,0 h 115.125 c 4.243,0 7.688,-3.444 7.688,-7.687 0,-4.245 -3.445,-7.688 -7.688,-7.688 H 0 c -4.244,0 -7.687,3.443 -7.687,7.688 C -7.687,-3.444 -4.244,0 0,0 Z" /></g><text
       id="text132"
       style="font-variant:normal;font-weight:normal;font-stretch:normal;font-size:9px;font-family:Times;-inkscape-font-specification:Times-Roman;writing-mode:lr-tb;fill:#231f20;fill-opacity:1;fill-rule:nonzero;stroke:none"
       transform="matrix(1,0,0,-1,148.6714,411.8008)"><tspan
         id="tspan130"
         y="0"
         x="0 4.5 9 11.25 13.5 18 22.5 24.75 27 30.996 35.495998 37.998001 41.499001 45.999001 50.499001 54.999001 57.500999 61.497002 65.492996 69.488998 76.490997 80.487 84.987 87.488998 91.988998 96.488998 100.989">26, 43, axis2_placement_3d</tspan></text>
<path
       id="path134"
       style="fill:#ffffff;fill-opacity:1;fill-rule:nonzero;stroke:none"
       d="m 119.453,382.788 h 146.25 v 15.375 h -146.25 z" /><g
       transform="translate(127.14,398.163)"
       id="g136"><path
         id="path138"
         style="fill:none;stroke:#231f20;stroke-width:0.75;stroke-linecap:square;stroke-linejoin:miter;stroke-miterlimit:10;stroke-dasharray:none;stroke-opacity:1"
         d="m 0,0 h 130.875 c 4.243,0 7.688,-3.444 7.688,-7.687 0,-4.245 -3.445,-7.688 -7.688,-7.688 H 0 c -4.244,0 -7.687,3.443 -7.687,7.688 C -7.687,-3.444 -4.244,0 0,0 Z" /></g><text
       id="text142"
       style="font-variant:normal;font-weight:normal;font-stretch:normal;font-size:9px;font-family:Times;-inkscape-font-specification:Times-Roman;writing-mode:lr-tb;fill:#231f20;fill-opacity:1;fill-rule:nonzero;stroke:none"
       transform="matrix(1,0,0,-1,129.542,388.2344)"><tspan
         id="tspan140"
         y="0"
         x="0 4.5 9 11.25 13.5 18 22.5 27 29.25 31.5 36 40.5 44.000999 46.502998 49.005001 51.282001 55.646999 59.643002 64.142998 66.644997 70.640999 75.140999 79.640999 82.142998 86.642998 91.142998 98.144997 102.141 106.137 109.638 114.138 117.135 121.131">48, 155, positive_length_measure</tspan></text>
<path
       id="path144"
       style="fill:#ffffff;fill-opacity:1;fill-rule:nonzero;stroke:none"
       d="m 119.453,359.163 h 146.25 v 15.375 h -146.25 z" /><g
       transform="translate(127.14,374.538)"
       id="g146"><path
         id="path148"
         style="fill:none;stroke:#231f20;stroke-width:0.75;stroke-linecap:square;stroke-linejoin:miter;stroke-miterlimit:10;stroke-dasharray:none;stroke-opacity:1"
         d="m 0,0 h 130.875 c 4.243,0 7.688,-3.444 7.688,-7.687 0,-4.245 -3.445,-7.688 -7.688,-7.688 H 0 c -4.244,0 -7.687,3.443 -7.687,7.688 C -7.687,-3.444 -4.244,0 0,0 Z" /></g><text
       id="text152"
       style="font-variant:normal;font-weight:normal;font-stretch:normal;font-size:9px;font-family:Times;-inkscape-font-specification:Times-Roman;writing-mode:lr-tb;fill:#231f20;fill-opacity:1;fill-rule:nonzero;stroke:none"
       transform="matrix(1,0,0,-1,129.542,364.6094)"><tspan
         id="tspan150"
         y="0"
         x="0 4.5 9 11.25 13.5 18 22.5 27 29.25 31.5 36 40.5 44.000999 46.502998 49.005001 51.282001 55.646999 59.643002 64.142998 66.644997 70.640999 75.140999 79.640999 82.142998 86.642998 91.142998 98.144997 102.141 106.137 109.638 114.138 117.135 121.131">48, 155, positive_length_measure</tspan></text>
<path
       id="path154"
       style="fill:#ffffff;fill-opacity:1;fill-rule:nonzero;stroke:none"
       d="m 119.453,335.538 h 146.25 v 15.375 h -146.25 z" /><g
       transform="translate(127.14,350.913)"
       id="g156"><path
         id="path158"
         style="fill:none;stroke:#231f20;stroke-width:0.75;stroke-linecap:square;stroke-linejoin:miter;stroke-miterlimit:10;stroke-dasharray:none;stroke-opacity:1"
         d="m 0,0 h 130.875 c 4.243,0 7.688,-3.444 7.688,-7.687 0,-4.245 -3.445,-7.688 -7.688,-7.688 H 0 c -4.244,0 -7.687,3.443 -7.687,7.688 C -7.687,-3.444 -4.244,0 0,0 Z" /></g><text
       id="text162"
       style="font-variant:normal;font-weight:normal;font-stretch:normal;font-size:9px;font-family:Times;-inkscape-font-specification:Times-Roman;writing-mode:lr-tb;fill:#231f20;fill-opacity:1;fill-rule:nonzero;stroke:none"
       transform="matrix(1,0,0,-1,129.542,340.9844)"><tspan
         id="tspan160"
         y="0"
         x="0 4.5 9 11.25 13.5 18 22.5 27 29.25 31.5 36 40.5 44.000999 46.502998 49.005001 51.282001 55.646999 59.643002 64.142998 66.644997 70.640999 75.140999 79.640999 82.142998 86.642998 91.142998 98.144997 102.141 106.137 109.638 114.138 117.135 121.131">48, 155, positive_length_measure</tspan></text>
<path
       id="path164"
       style="fill:#ffffff;fill-opacity:1;fill-rule:nonzero;stroke:none"
       d="m 205.571,269.265 h 116.5 v 15.375 h -116.5 z" /><g
       transform="translate(213.258,284.64)"
       id="g166"><path
         id="path168"
         style="fill:none;stroke:#231f20;stroke-width:0.75;stroke-linecap:square;stroke-linejoin:miter;stroke-miterlimit:10;stroke-dasharray:none;stroke-opacity:1"
         d="m 0,0 h 101.125 c 4.244,0 7.688,-3.444 7.688,-7.687 0,-4.244 -3.444,-7.688 -7.688,-7.688 H 0 c -4.242,0 -7.687,3.444 -7.687,7.688 C -7.687,-3.444 -4.242,0 0,0 Z" /></g><text
       id="text172"
       style="font-variant:normal;font-weight:normal;font-stretch:normal;font-size:9px;font-family:Times;-inkscape-font-specification:Times-Roman;writing-mode:lr-tb;fill:#231f20;fill-opacity:1;fill-rule:nonzero;stroke:none"
       transform="matrix(1,0,0,-1,216.5444,274.6533)"><tspan
         id="tspan170"
         y="0"
         x="0 4.5 9 11.25 13.5 18 22.5 27 29.25 31.5 35.495998 39.995998 42.498001 45.999001 50.499001 54.999001 59.499001 62.000999 65.997002 69.992996 73.988998 80.990997 84.987 89.487 91.988998">26, 256, axis1_placement</tspan></text>
<path
       id="path174"
       style="fill:#ffffff;fill-opacity:1;fill-rule:nonzero;stroke:none"
       d="m 174.822,245.64 h 147.249 v 15.375 H 174.822 Z" /><g
       transform="translate(182.508,261.015)"
       id="g176"><path
         id="path178"
         style="fill:none;stroke:#231f20;stroke-width:0.75;stroke-linecap:square;stroke-linejoin:miter;stroke-miterlimit:10;stroke-dasharray:none;stroke-opacity:1"
         d="m 0,0 h 131.875 c 4.244,0 7.688,-3.444 7.688,-7.688 0,-4.243 -3.444,-7.687 -7.688,-7.687 H 0 c -4.243,0 -7.687,3.444 -7.687,7.687 C -7.687,-3.444 -4.243,0 0,0 Z" /></g><text
       id="text182"
       style="font-variant:normal;font-weight:normal;font-stretch:normal;font-size:9px;font-family:Times;-inkscape-font-specification:Times-Roman;writing-mode:lr-tb;fill:#231f20;fill-opacity:1;fill-rule:nonzero;stroke:none"
       transform="matrix(1,0,0,-1,184.9106,251.0869)"><tspan
         id="tspan180"
         y="0"
         x="0 4.5 9 11.25 13.5 18 22.5 27 29.25 31.5 36 40.5 44.000999 46.502998 49.005001 51.282001 55.646999 59.643002 64.142998 66.644997 70.640999 75.140999 79.640999 82.142998 86.642998 91.142998 98.144997 102.141 106.137 109.638 114.138 117.135 121.131">48, 155, positive_length_measure</tspan></text>
<path
       id="path184"
       style="fill:#ffffff;fill-opacity:1;fill-rule:nonzero;stroke:none"
       d="M 174.822,222.015 H 322.071 V 237.39 H 174.822 Z" /><g
       transform="translate(182.508,237.39)"
       id="g186"><path
         id="path188"
         style="fill:none;stroke:#231f20;stroke-width:0.75;stroke-linecap:square;stroke-linejoin:miter;stroke-miterlimit:10;stroke-dasharray:none;stroke-opacity:1"
         d="m 0,0 h 131.875 c 4.244,0 7.688,-3.444 7.688,-7.687 0,-4.244 -3.444,-7.688 -7.688,-7.688 H 0 c -4.243,0 -7.687,3.444 -7.687,7.688 C -7.687,-3.444 -4.243,0 0,0 Z" /></g><text
       id="text192"
       style="font-variant:normal;font-weight:normal;font-stretch:normal;font-size:9px;font-family:Times;-inkscape-font-specification:Times-Roman;writing-mode:lr-tb;fill:#231f20;fill-opacity:1;fill-rule:nonzero;stroke:none"
       transform="matrix(1,0,0,-1,184.9106,227.4619)"><tspan
         id="tspan190"
         y="0"
         x="0 4.5 9 11.25 13.5 18 22.5 27 29.25 31.5 36 40.5 44.000999 46.502998 49.005001 51.282001 55.646999 59.643002 64.142998 66.644997 70.640999 75.140999 79.640999 82.142998 86.642998 91.142998 98.144997 102.141 106.137 109.638 114.138 117.135 121.131">48, 155, positive_length_measure</tspan></text>
<path
       id="path194"
       style="fill:#ffffff;fill-opacity:1;fill-rule:nonzero;stroke:none"
       d="m 139.947,294.765 h 71.999 v 15.375 h -71.999 z" /><g
       transform="translate(147.634,310.14)"
       id="g196"><path
         id="path198"
         style="fill:none;stroke:#231f20;stroke-width:0.75;stroke-linecap:square;stroke-linejoin:miter;stroke-miterlimit:10;stroke-dasharray:none;stroke-opacity:1"
         d="m 0,0 h 56.624 c 4.244,0 7.688,-3.444 7.688,-7.687 0,-4.244 -3.444,-7.688 -7.688,-7.688 H 0 c -4.244,0 -7.687,3.444 -7.687,7.688 C -7.687,-3.444 -4.244,0 0,0 Z" /></g><text
       id="text202"
       style="font-variant:normal;font-weight:normal;font-stretch:normal;font-size:9px;font-family:Times;-inkscape-font-specification:Times-Roman;writing-mode:lr-tb;fill:#231f20;fill-opacity:1;fill-rule:nonzero;stroke:none"
       transform="matrix(1,0,0,-1,151.6826,300.085)"><tspan
         id="tspan200"
         y="0"
         x="0 4.5 9 11.25 13.5 18 22.5 27 29.25 32.247002 36.747002 41.247002 44.243999">31, 283 (24)</tspan></text>
<path
       id="path204"
       style="fill:#ffffff;fill-opacity:1;fill-rule:nonzero;stroke:none"
       d="m 110.453,435.663 h 72 v 15.375 h -72 z" /><g
       transform="translate(118.14,451.038)"
       id="g206"><path
         id="path208"
         style="fill:none;stroke:#231f20;stroke-width:0.75;stroke-linecap:square;stroke-linejoin:miter;stroke-miterlimit:10;stroke-dasharray:none;stroke-opacity:1"
         d="m 0,0 h 56.625 c 4.243,0 7.688,-3.444 7.688,-7.687 0,-4.245 -3.445,-7.688 -7.688,-7.688 H 0 c -4.244,0 -7.687,3.443 -7.687,7.688 C -7.687,-3.444 -4.244,0 0,0 Z" /></g><text
       id="text212"
       style="font-variant:normal;font-weight:normal;font-stretch:normal;font-size:9px;font-family:Times;-inkscape-font-specification:Times-Roman;writing-mode:lr-tb;fill:#231f20;fill-opacity:1;fill-rule:nonzero;stroke:none"
       transform="matrix(1,0,0,-1,122.1889,440.9834)"><tspan
         id="tspan210"
         y="0"
         x="0 4.5 9 11.25 13.5 18 22.5 27 29.25 32.247002 36.747002 41.247002 44.243999">31, 284 (24)</tspan></text>
<g
       transform="translate(97.799,288.443)"
       id="g214"><path
         id="path216"
         style="fill:#ffffff;fill-opacity:1;fill-rule:nonzero;stroke:none"
         d="M 0,0 C 0,2.069 -1.681,3.75 -3.75,3.75 -5.82,3.75 -7.5,2.069 -7.5,0 c 0,-2.07 1.68,-3.75 3.75,-3.75 C -1.681,-3.75 0,-2.07 0,0" /></g><g
       transform="translate(97.799,288.443)"
       id="g218"><path
         id="path220"
         style="fill:none;stroke:#231f20;stroke-width:0.75;stroke-linecap:square;stroke-linejoin:miter;stroke-miterlimit:10;stroke-dasharray:none;stroke-opacity:1"
         d="M 0,0 C 0,2.069 -1.681,3.75 -3.75,3.75 -5.82,3.75 -7.5,2.069 -7.5,0 c 0,-2.07 1.68,-3.75 3.75,-3.75 C -1.681,-3.75 0,-2.07 0,0" /></g><g
       transform="translate(73.949,425.513)"
       id="g222"><path
         id="path224"
         style="fill:#ffffff;fill-opacity:1;fill-rule:nonzero;stroke:none"
         d="M 0,0 C 0,2.07 -1.68,3.75 -3.75,3.75 -5.82,3.75 -7.5,2.07 -7.5,0 c 0,-2.069 1.68,-3.75 3.75,-3.75 C -1.68,-3.75 0,-2.069 0,0" /></g><g
       transform="translate(73.949,425.513)"
       id="g226"><path
         id="path228"
         style="fill:none;stroke:#231f20;stroke-width:0.75;stroke-linecap:square;stroke-linejoin:miter;stroke-miterlimit:10;stroke-dasharray:none;stroke-opacity:1"
         d="M 0,0 C 0,2.07 -1.68,3.75 -3.75,3.75 -5.82,3.75 -7.5,2.07 -7.5,0 c 0,-2.069 1.68,-3.75 3.75,-3.75 C -1.68,-3.75 0,-2.069 0,0" /></g><text
       id="text244"
       style="font-variant:normal;font-weight:normal;font-stretch:normal;font-size:9px;font-family:Times;-inkscape-font-specification:Times-Roman;writing-mode:lr-tb;fill:#231f20;fill-opacity:1;fill-rule:nonzero;stroke:none"
       transform="matrix(1,0,0,-1,93.2026,403.1147)"><tspan
         id="tspan230"
         y="0"
         x="0 4.5 9 12.501 15.003 17.504999 20.007 24.507 29.007">position</tspan><tspan
         id="tspan232"
         y="20.6406"
         x="0 4.5">x</tspan><tspan
         id="tspan234"
         y="44.265598"
         x="0 4.5">y</tspan><tspan
         id="tspan236"
         y="67.890602"
         x="0 3.9960001">z</tspan><tspan
         id="tspan238"
         y="137.1465"
         x="44.869499 49.369499 53.869499 57.370499 59.872501 62.3745 64.876503 69.376503 73.876503">position</tspan><tspan
         id="tspan240"
         y="160.7715"
         x="44.869499 49.369499 53.365501 55.8675 60.3675 64.8675 67.369499">height</tspan><tspan
         id="tspan242"
         y="184.3965"
         x="44.869499 47.866501 51.862499 56.362499 58.864498 63.364498 66.865501">radius</tspan></text>
<path
       id="path246"
       style="fill:#ffffff;fill-opacity:1;fill-rule:nonzero;stroke:none"
       d="m 0.37498,77.123 h 137.25 v 15.375 h -137.25 z" /><path
       id="path248"
       style="fill:none;stroke:#231f20;stroke-width:0.75;stroke-linecap:square;stroke-linejoin:miter;stroke-miterlimit:10;stroke-dasharray:3.75, 3.75;stroke-dashoffset:0;stroke-opacity:1"
       d="M 0.37498,92.498 V 77.123 H 137.625 v 15.375 z" /><text
       id="text252"
       style="font-variant:normal;font-weight:normal;font-stretch:normal;font-size:9px;font-family:Times;-inkscape-font-specification:Times-Roman;writing-mode:lr-tb;fill:#231f20;fill-opacity:1;fill-rule:nonzero;stroke:none"
       transform="matrix(1,0,0,-1,7.727,82.5244)"><tspan
         id="tspan250"
         y="0"
         x="0 2.5020001 5.0040002 8.5050001 11.007 15.507 20.007 23.004 27.504 30.500999 34.271999 38.637001 42.632999 45.630001 49.131001 51.632999 56.132999 58.634998 62.631001 67.130997 69.633003 74.133003 78.633003 83.133003 85.635002 90.135002 94.635002 99.135002 103.635 106.137 108.639 112.635 119.637">list_of_reversible_topology_item</tspan></text>
<path
       id="path254"
       style="fill:#ffffff;fill-opacity:1;fill-rule:nonzero;stroke:none"
       d="m 224.999,77.311 h 136.5 v 15.375 h -136.5 z" /><path
       id="path256"
       style="fill:none;stroke:#231f20;stroke-width:0.75;stroke-linecap:square;stroke-linejoin:miter;stroke-miterlimit:10;stroke-dasharray:3.75, 3.75;stroke-dashoffset:0;stroke-opacity:1"
       d="M 224.999,92.686 V 77.311 h 136.5 v 15.375 z" /><text
       id="text260"
       style="font-variant:normal;font-weight:normal;font-stretch:normal;font-size:9px;font-family:Times;-inkscape-font-specification:Times-Roman;writing-mode:lr-tb;fill:#231f20;fill-opacity:1;fill-rule:nonzero;stroke:none"
       transform="matrix(1,0,0,-1,233.4731,82.7119)"><tspan
         id="tspan258"
         y="0"
         x="0 3.5009999 7.4970002 9.9989996 14.499 18.999001 21.996 26.496 29.493 33.264 37.629002 41.625 44.622002 48.123001 50.625 55.125 57.626999 61.623001 66.123001 68.625 73.125 77.625 82.125 84.626999 89.126999 93.626999 98.126999 102.627 105.129 107.631 111.627 118.629">set_of_reversible_topology_item</tspan></text>
<path
       id="path262"
       style="fill:#ffffff;fill-opacity:1;fill-rule:nonzero;stroke:none"
       d="m 46.703,335.538 h 35.25 v 86.25 h -35.25 z" /><g
       transform="translate(46.703,421.788)"
       id="g264"><path
         id="path266"
         style="fill:none;stroke:#231f20;stroke-width:0.75;stroke-linecap:square;stroke-linejoin:miter;stroke-miterlimit:10;stroke-dasharray:none;stroke-opacity:1"
         d="M 35.25,0 H 0 v -86.25 h 35.25 z" /><g
         id="g268"><path
           id="path270"
           style="fill:none;stroke:#231f20;stroke-width:0.75;stroke-linecap:square;stroke-linejoin:miter;stroke-miterlimit:10;stroke-dasharray:none;stroke-opacity:1"
           d="M 0,0 Z" /></g></g><text
       id="text274"
       style="font-variant:normal;font-weight:normal;font-stretch:normal;font-size:9px;font-family:Times;-inkscape-font-specification:Times-Roman;writing-mode:lr-tb;fill:#231f20;fill-opacity:1;fill-rule:nonzero;stroke:none"
       transform="matrix(1,0,0,-1,53.8247,375.4995)"><tspan
         id="tspan272"
         y="0"
         x="0 4.5 7.0019999 11.502 15.498 19.997999">block</tspan></text>
<path
       id="path276"
       style="fill:#ffffff;fill-opacity:1;fill-rule:nonzero;stroke:none"
       d="m 21.822,222.015 h 105 v 62.625 h -105 z" /><g
       transform="translate(21.822,284.64)"
       id="g278"><path
         id="path280"
         style="fill:none;stroke:#231f20;stroke-width:0.75;stroke-linecap:square;stroke-linejoin:miter;stroke-miterlimit:10;stroke-dasharray:none;stroke-opacity:1"
         d="M 105,0 H 0 v -62.625 h 105 z" /><g
         id="g282"><path
           id="path284"
           style="fill:none;stroke:#231f20;stroke-width:0.75;stroke-linecap:square;stroke-linejoin:miter;stroke-miterlimit:10;stroke-dasharray:none;stroke-opacity:1"
           d="M 0,0 Z" /></g></g><text
       id="text288"
       style="font-variant:normal;font-weight:normal;font-stretch:normal;font-size:9px;font-family:Times;-inkscape-font-specification:Times-Roman;writing-mode:lr-tb;fill:#231f20;fill-opacity:1;fill-rule:nonzero;stroke:none"
       transform="matrix(1,0,0,-1,33.5639,251.0869)"><tspan
         id="tspan286"
         y="0"
         x="0 2.997 5.4990001 9.9989996 14.499 17.000999 21.500999 25.497 27.999001 30.996 34.992001 39.492001 41.993999 45.990002 48.987 53.487 57.348 61.848 64.349998 66.851997 71.351997 75.851997 79.848 82.845001">right_circular_cylinder</tspan></text>
<path
       id="path290"
       style="fill:#ffffff;fill-opacity:1;fill-rule:nonzero;stroke:none"
       d="m 142.312,0.375 h 90 v 39 h -90 z" /><path
       id="path292"
       style="fill:none;stroke:#231f20;stroke-width:0.75;stroke-linecap:square;stroke-linejoin:miter;stroke-miterlimit:10;stroke-dasharray:3.75, 3.75;stroke-dashoffset:0;stroke-opacity:1"
       d="m 142.312,39.375 v -39 h 90 v 39 z m 7.5,-39 v 39" /><text
       id="text296"
       style="font-variant:normal;font-weight:normal;font-stretch:normal;font-size:9px;font-family:Times;-inkscape-font-specification:Times-Roman;writing-mode:lr-tb;fill:#231f20;fill-opacity:1;fill-rule:nonzero;stroke:none"
       transform="matrix(1,0,0,-1,155.0478,17.6348)"><tspan
         id="tspan294"
         y="0"
         x="0 2.997 6.7680001 11.133 15.129 18.125999 21.627001 24.129 28.629 31.131001 35.126999 39.626999 42.129002 46.629002 51.129002 55.629002 58.131001 62.631001 67.130997 71.630997">reversible_topology</tspan></text>
<path
       id="path298"
       style="fill:#ffffff;fill-opacity:1;fill-rule:nonzero;stroke:none"
       d="m 131.812,115.373 h 117.75 v 66 h -117.75 z" /><path
       id="path300"
       style="fill:none;stroke:#231f20;stroke-width:0.75;stroke-linecap:square;stroke-linejoin:miter;stroke-miterlimit:10;stroke-dasharray:3.75, 3.75;stroke-dashoffset:0;stroke-opacity:1"
       d="m 131.812,181.373 v -66 h 117.75 v 66 z m 7.5,-66 v 66" /><text
       id="text304"
       style="font-variant:normal;font-weight:normal;font-stretch:normal;font-size:9px;font-family:Times;-inkscape-font-specification:Times-Roman;writing-mode:lr-tb;fill:#231f20;fill-opacity:1;fill-rule:nonzero;stroke:none"
       transform="matrix(1,0,0,-1,147.4204,146.1309)"><tspan
         id="tspan302"
         y="0"
         x="0 2.997 6.7680001 11.133 15.129 18.125999 21.627001 24.129 28.629 31.131001 35.126999 39.626999 42.129002 46.629002 51.129002 55.629002 58.131001 62.631001 67.130997 71.630997 76.130997 78.633003 81.135002 85.130997 92.133003">reversible_topology_item</tspan></text>
<path
       id="path306"
       style="fill:#ffffff;fill-opacity:1;fill-rule:nonzero;stroke:none"
       d="m 11.062,165.998 h 74.25 v 15.375 h -74.25 z" /><g
       transform="translate(18.75,181.373)"
       id="g308"><path
         id="path310"
         style="fill:none;stroke:#231f20;stroke-width:0.75;stroke-linecap:square;stroke-linejoin:miter;stroke-miterlimit:10;stroke-dasharray:none;stroke-opacity:1"
         d="m 0,0 h 58.875 c 4.243,0 7.688,-3.444 7.688,-7.687 0,-4.245 -3.445,-7.688 -7.688,-7.688 H 0 c -4.244,0 -7.687,3.443 -7.687,7.688 C -7.687,-3.444 -4.244,0 0,0 Z" /></g><text
       id="text314"
       style="font-variant:normal;font-weight:normal;font-stretch:normal;font-size:9px;font-family:Times;-inkscape-font-specification:Times-Roman;writing-mode:lr-tb;fill:#231f20;fill-opacity:1;fill-rule:nonzero;stroke:none"
       transform="matrix(1,0,0,-1,20.6655,171.4434)"><tspan
         id="tspan312"
         y="0"
         x="0 4.5 9 11.25 13.5 18 22.5 27 29.25 31.5 35.495998 39.995998 44.495998 48.492001">37, 134, edge</tspan></text>
<path
       id="path316"
       style="fill:#ffffff;fill-opacity:1;fill-rule:nonzero;stroke:none"
       d="m 11.062,138.998 h 93.75 v 18.75 h -93.75 z" /><g
       transform="translate(20.437,157.748)"
       id="g318"><path
         id="path320"
         style="fill:none;stroke:#231f20;stroke-width:0.75;stroke-linecap:square;stroke-linejoin:miter;stroke-miterlimit:10;stroke-dasharray:none;stroke-opacity:1"
         d="m 0,0 h 75 c 5.175,0 9.375,-4.2 9.375,-9.375 0,-5.176 -4.2,-9.375 -9.375,-9.375 H 0 c -5.175,0 -9.375,4.199 -9.375,9.375 C -9.375,-4.2 -5.175,0 0,0 Z" /></g><text
       id="text324"
       style="font-variant:normal;font-weight:normal;font-stretch:normal;font-size:9px;font-family:Times;-inkscape-font-specification:Times-Roman;writing-mode:lr-tb;fill:#231f20;fill-opacity:1;fill-rule:nonzero;stroke:none"
       transform="matrix(1,0,0,-1,15.6645,145.8027)"><tspan
         id="tspan322"
         y="0"
         x="0 4.5 9 11.25 13.5 18 22.5 27 29.25 31.5 35.495998 37.998001 42.498001 45.999001 49.994999 54.494999 58.994999 62.495998 66.996002 70.991997 73.494003 75.996002">38, 140, closed_shell</tspan></text>
<path
       id="path326"
       style="fill:#ffffff;fill-opacity:1;fill-rule:nonzero;stroke:none"
       d="m 11.062,115.373 h 98.25 v 15.375 h -98.25 z" /><g
       transform="translate(18.75,130.748)"
       id="g328"><path
         id="path330"
         style="fill:none;stroke:#231f20;stroke-width:0.75;stroke-linecap:square;stroke-linejoin:miter;stroke-miterlimit:10;stroke-dasharray:none;stroke-opacity:1"
         d="m 0,0 h 82.875 c 4.243,0 7.688,-3.444 7.688,-7.688 0,-4.244 -3.445,-7.687 -7.688,-7.687 H 0 c -4.244,0 -7.687,3.443 -7.687,7.687 C -7.687,-3.444 -4.244,0 0,0 Z" /></g><text
       id="text334"
       style="font-variant:normal;font-weight:normal;font-stretch:normal;font-size:9px;font-family:Times;-inkscape-font-specification:Times-Roman;writing-mode:lr-tb;fill:#231f20;fill-opacity:1;fill-rule:nonzero;stroke:none"
       transform="matrix(1,0,0,-1,19.1562,120.4453)"><tspan
         id="tspan332"
         y="0"
         x="0 4.5 9 11.25 13.5 18 22.5 27 29.25 31.5 34.407001 38.403 42.398998 46.395 50.895 55.395 59.895 64.394997 68.894997 73.394997">36, 138, face_bound</tspan></text>
<path
       id="path336"
       style="fill:#ffffff;fill-opacity:1;fill-rule:nonzero;stroke:none"
       d="m 288.562,165.998 h 72.75 v 15.375 h -72.75 z" /><g
       transform="translate(296.249,181.373)"
       id="g338"><path
         id="path340"
         style="fill:none;stroke:#231f20;stroke-width:0.75;stroke-linecap:square;stroke-linejoin:miter;stroke-miterlimit:10;stroke-dasharray:none;stroke-opacity:1"
         d="m 0,0 h 57.375 c 4.243,0 7.688,-3.444 7.688,-7.687 0,-4.245 -3.445,-7.688 -7.688,-7.688 H 0 c -4.243,0 -7.687,3.443 -7.687,7.688 C -7.687,-3.444 -4.243,0 0,0 Z" /></g><text
       id="text344"
       style="font-variant:normal;font-weight:normal;font-stretch:normal;font-size:9px;font-family:Times;-inkscape-font-specification:Times-Roman;writing-mode:lr-tb;fill:#231f20;fill-opacity:1;fill-rule:nonzero;stroke:none"
       transform="matrix(1,0,0,-1,298.9184,171.0703)"><tspan
         id="tspan342"
         y="0"
         x="0 4.5 9 11.25 13.5 18 22.5 27 29.25 31.5 34.407001 38.403 42.398998 46.395">36, 139, face</tspan></text>
<path
       id="path346"
       style="fill:#ffffff;fill-opacity:1;fill-rule:nonzero;stroke:none"
       d="m 288.562,142.373 h 72.75 v 15.375 h -72.75 z" /><g
       transform="translate(296.249,157.748)"
       id="g348"><path
         id="path350"
         style="fill:none;stroke:#231f20;stroke-width:0.75;stroke-linecap:square;stroke-linejoin:miter;stroke-miterlimit:10;stroke-dasharray:none;stroke-opacity:1"
         d="m 0,0 h 57.375 c 4.243,0 7.688,-3.444 7.688,-7.687 0,-4.245 -3.445,-7.688 -7.688,-7.688 H 0 c -4.243,0 -7.687,3.443 -7.687,7.688 C -7.687,-3.444 -4.243,0 0,0 Z" /></g><text
       id="text354"
       style="font-variant:normal;font-weight:normal;font-stretch:normal;font-size:9px;font-family:Times;-inkscape-font-specification:Times-Roman;writing-mode:lr-tb;fill:#231f20;fill-opacity:1;fill-rule:nonzero;stroke:none"
       transform="matrix(1,0,0,-1,298.6665,147.7598)"><tspan
         id="tspan352"
         y="0"
         x="0 4.5 9 11.25 13.5 18 22.5 27 29.25 31.5 36 39.995998 42.498001 46.998001">37, 136, path</tspan></text>
<path
       id="path356"
       style="fill:#ffffff;fill-opacity:1;fill-rule:nonzero;stroke:none"
       d="m 272.062,115.373 h 89.25 v 18.75 h -89.25 z" /><g
       transform="translate(281.437,134.123)"
       id="g358"><path
         id="path360"
         style="fill:none;stroke:#231f20;stroke-width:0.75;stroke-linecap:square;stroke-linejoin:miter;stroke-miterlimit:10;stroke-dasharray:none;stroke-opacity:1"
         d="m 0,0 h 70.5 c 5.175,0 9.375,-4.2 9.375,-9.375 0,-5.176 -4.2,-9.375 -9.375,-9.375 H 0 c -5.175,0 -9.375,4.199 -9.375,9.375 C -9.375,-4.2 -5.175,0 0,0 Z" /></g><text
       id="text364"
       style="font-variant:normal;font-weight:normal;font-stretch:normal;font-size:9px;font-family:Times;-inkscape-font-specification:Times-Roman;writing-mode:lr-tb;fill:#231f20;fill-opacity:1;fill-rule:nonzero;stroke:none"
       transform="matrix(1,0,0,-1,277.4116,122.4473)"><tspan
         id="tspan362"
         y="0"
         x="0 4.5 9 11.25 13.5 18 22.5 27 29.25 31.5 36 40.5 44.495998 48.995998 53.495998 56.997002 61.497002 65.492996 67.995003 70.497002">38, 141, open_shell</tspan></text>
<g
       transform="translate(188.069,111.594)"
       id="g366"><path
         id="path368"
         style="fill:#ffffff;fill-opacity:1;fill-rule:nonzero;stroke:none"
         d="M 0,0 C 0,2.069 -1.68,3.75 -3.75,3.75 -5.82,3.75 -7.5,2.069 -7.5,0 c 0,-2.07 1.68,-3.75 3.75,-3.75 C -1.68,-3.75 0,-2.07 0,0" /></g><g
       transform="translate(188.069,111.594)"
       id="g370"><path
         id="path372"
         style="fill:none;stroke:#231f20;stroke-width:0.75;stroke-linecap:square;stroke-linejoin:miter;stroke-miterlimit:10;stroke-dasharray:none;stroke-opacity:1"
         d="M 0,0 C 0,2.069 -1.68,3.75 -3.75,3.75 -5.82,3.75 -7.5,2.069 -7.5,0 c 0,-2.07 1.68,-3.75 3.75,-3.75 C -1.68,-3.75 0,-2.07 0,0" /></g><g
       transform="translate(288.598,73.523)"
       id="g374"><path
         id="path376"
         style="fill:#ffffff;fill-opacity:1;fill-rule:nonzero;stroke:none"
         d="M 0,0 C 0,2.07 -1.679,3.75 -3.75,3.75 -5.819,3.75 -7.5,2.07 -7.5,0 c 0,-2.07 1.681,-3.75 3.75,-3.75 C -1.679,-3.75 0,-2.07 0,0" /></g><g
       transform="translate(288.598,73.523)"
       id="g378"><path
         id="path380"
         style="fill:none;stroke:#231f20;stroke-width:0.75;stroke-linecap:square;stroke-linejoin:miter;stroke-miterlimit:10;stroke-dasharray:none;stroke-opacity:1"
         d="M 0,0 C 0,2.07 -1.679,3.75 -3.75,3.75 -5.819,3.75 -7.5,2.07 -7.5,0 c 0,-2.07 1.681,-3.75 3.75,-3.75 C -1.679,-3.75 0,-2.07 0,0" /></g><g
       transform="translate(68.099,73.344)"
       id="g382"><path
         id="path384"
         style="fill:#ffffff;fill-opacity:1;fill-rule:nonzero;stroke:none"
         d="M 0,0 C 0,2.069 -1.68,3.75 -3.75,3.75 -5.82,3.75 -7.5,2.069 -7.5,0 c 0,-2.07 1.68,-3.75 3.75,-3.75 C -1.68,-3.75 0,-2.07 0,0" /></g><g
       transform="translate(68.099,73.344)"
       id="g386"><path
         id="path388"
         style="fill:none;stroke:#231f20;stroke-width:0.75;stroke-linecap:square;stroke-linejoin:miter;stroke-miterlimit:10;stroke-dasharray:none;stroke-opacity:1"
         d="M 0,0 C 0,2.069 -1.68,3.75 -3.75,3.75 -5.82,3.75 -7.5,2.069 -7.5,0 c 0,-2.07 1.68,-3.75 3.75,-3.75 C -1.68,-3.75 0,-2.07 0,0" /></g><g
       transform="translate(169.259,111.594)"
       id="g390"><path
         id="path392"
         style="fill:#ffffff;fill-opacity:1;fill-rule:nonzero;stroke:none"
         d="M 0,0 C 0,2.069 -1.68,3.75 -3.75,3.75 -5.82,3.75 -7.5,2.069 -7.5,0 c 0,-2.07 1.68,-3.75 3.75,-3.75 C -1.68,-3.75 0,-2.07 0,0" /></g><g
       transform="translate(169.259,111.594)"
       id="g394"><path
         id="path396"
         style="fill:none;stroke:#231f20;stroke-width:0.75;stroke-linecap:square;stroke-linejoin:miter;stroke-miterlimit:10;stroke-dasharray:none;stroke-opacity:1"
         d="M 0,0 C 0,2.069 -1.68,3.75 -3.75,3.75 -5.82,3.75 -7.5,2.069 -7.5,0 c 0,-2.07 1.68,-3.75 3.75,-3.75 C -1.68,-3.75 0,-2.07 0,0" /></g><g
       transform="translate(207.598,111.594)"
       id="g398"><path
         id="path400"
         style="fill:#ffffff;fill-opacity:1;fill-rule:nonzero;stroke:none"
         d="M 0,0 C 0,2.069 -1.679,3.75 -3.75,3.75 -5.819,3.75 -7.5,2.069 -7.5,0 c 0,-2.07 1.681,-3.75 3.75,-3.75 C -1.679,-3.75 0,-2.07 0,0" /></g><g
       transform="translate(207.598,111.594)"
       id="g402"><path
         id="path404"
         style="fill:none;stroke:#231f20;stroke-width:0.75;stroke-linecap:square;stroke-linejoin:miter;stroke-miterlimit:10;stroke-dasharray:none;stroke-opacity:1"
         d="M 0,0 C 0,2.069 -1.679,3.75 -3.75,3.75 -5.819,3.75 -7.5,2.069 -7.5,0 c 0,-2.07 1.681,-3.75 3.75,-3.75 C -1.679,-3.75 0,-2.07 0,0" /></g></g></svg>