<?xml version="1.0" encoding="UTF-8" standalone="no"?>
<svg
   xmlns:dc="http://purl.org/dc/elements/1.1/"
   xmlns:cc="http://creativecommons.org/ns#"
   xmlns:rdf="http://www.w3.org/1999/02/22-rdf-syntax-ns#"
   xmlns:svg="http://www.w3.org/2000/svg"
   xmlns="http://www.w3.org/2000/svg"
   viewBox="0 0 445.21466 419.76132"
   height="419.76132"
   width="445.21466"
   xml:space="preserve"
   id="svg2"
   version="1.1"><metadata
     id="metadata8"><rdf:RDF><cc:Work
         rdf:about=""><dc:format>image/svg+xml</dc:format><dc:type
           rdf:resource="http://purl.org/dc/dcmitype/StillImage" /></cc:Work></rdf:RDF></metadata><defs
     id="defs6" /><g
     transform="matrix(1.3333333,0,0,-1.3333333,0,419.76133)"
     id="g10"><g
       transform="translate(105.5,228.946)"
       id="g12"><path
         id="path14"
         style="fill:none;stroke:#231f20;stroke-width:0.75;stroke-linecap:square;stroke-linejoin:miter;stroke-miterlimit:10;stroke-dasharray:none;stroke-opacity:1"
         d="M 0,0 V -11.462" /><g
         transform="translate(15.891,78.375)"
         id="g16"><path
           id="path18"
           style="fill:none;stroke:#231f20;stroke-width:0.75;stroke-linecap:square;stroke-linejoin:miter;stroke-miterlimit:10;stroke-dasharray:none;stroke-opacity:1"
           d="M 0,0 V -7.875" /><g
           transform="translate(23.977,-105.025)"
           id="g20"><path
             id="path22"
             style="fill:none;stroke:#231f20;stroke-width:0.75;stroke-linecap:square;stroke-linejoin:miter;stroke-miterlimit:10;stroke-dasharray:none;stroke-opacity:1"
             d="M 0,0 H -27.75" /></g></g></g><path
       id="path24"
       style="fill:none;stroke:#231f20;stroke-width:0.75;stroke-linecap:square;stroke-linejoin:miter;stroke-miterlimit:10;stroke-dasharray:3.75, 3.75;stroke-dashoffset:0;stroke-opacity:1"
       d="M 147.992,178.671 H 117.617" /><g
       transform="translate(254.786,144.946)"
       id="g26"><path
         id="path28"
         style="fill:none;stroke:#231f20;stroke-width:0.75;stroke-linecap:square;stroke-linejoin:miter;stroke-miterlimit:10;stroke-dasharray:none;stroke-opacity:1"
         d="M 0,0 H -42.75" /><g
         transform="translate(-87.087,139.313)"
         id="g30"><path
           id="path32"
           style="fill:none;stroke:#231f20;stroke-width:0.75;stroke-linecap:square;stroke-linejoin:miter;stroke-miterlimit:10;stroke-dasharray:none;stroke-opacity:1"
           d="M 0,0 H -27.75" /></g></g><path
       id="path34"
       style="fill:none;stroke:#231f20;stroke-width:0.75;stroke-linecap:square;stroke-linejoin:miter;stroke-miterlimit:10;stroke-dasharray:3.75, 3.75;stroke-dashoffset:0;stroke-opacity:1"
       d="M 200.698,260.634 H 139.949" /><g
       transform="translate(79.244,217.484)"
       id="g36"><path
         id="path38"
         style="fill:none;stroke:#231f20;stroke-width:0.75;stroke-linecap:square;stroke-linejoin:miter;stroke-miterlimit:10;stroke-dasharray:none;stroke-opacity:1"
         d="M 0,0 -0.061,35.462" /><g
         transform="translate(-14.994)"
         id="g40"><path
           id="path42"
           style="fill:none;stroke:#231f20;stroke-width:0.75;stroke-linecap:square;stroke-linejoin:miter;stroke-miterlimit:10;stroke-dasharray:none;stroke-opacity:1"
           d="M 0,0 V 35.462" /></g></g><g
       transform="translate(54.805,50.234)"
       id="g44"><path
         id="path46"
         style="fill:none;stroke:#231f20;stroke-width:2.25;stroke-linecap:square;stroke-linejoin:miter;stroke-miterlimit:10;stroke-dasharray:none;stroke-opacity:1"
         d="M 0,0 0.19,120.75" /></g><g
       transform="translate(145.367,202.296)"
       id="g48"><path
         id="path50"
         style="fill:none;stroke:#231f20;stroke-width:0.75;stroke-linecap:square;stroke-linejoin:miter;stroke-miterlimit:10;stroke-dasharray:none;stroke-opacity:1"
         d="M 0,0 H 27.751" /><g
         transform="translate(22.331,81.962)"
         id="g52"><path
           id="path54"
           style="fill:none;stroke:#231f20;stroke-width:0.75;stroke-linecap:square;stroke-linejoin:miter;stroke-miterlimit:10;stroke-dasharray:none;stroke-opacity:1"
           d="M 0,0 H 27.749" /><g
           transform="translate(62.419,-55.312)"
           id="g56"><path
             id="path58"
             style="fill:none;stroke:#231f20;stroke-width:0.75;stroke-linecap:square;stroke-linejoin:miter;stroke-miterlimit:10;stroke-dasharray:none;stroke-opacity:1"
             d="M 0,0 H -124.618" /><g
             transform="translate(-78.919,78.375)"
             id="g60"><path
               id="path62"
               style="fill:none;stroke:#231f20;stroke-width:0.75;stroke-linecap:square;stroke-linejoin:miter;stroke-miterlimit:10;stroke-dasharray:none;stroke-opacity:1"
               d="M 0,0 H -29.808" /><g
               transform="translate(-5.831,-105.025)"
               id="g64"><path
                 id="path66"
                 style="fill:none;stroke:#231f20;stroke-width:0.75;stroke-linecap:square;stroke-linejoin:miter;stroke-miterlimit:10;stroke-dasharray:none;stroke-opacity:1"
                 d="M 0,0 V 0" /><g
                 transform="translate(22.331,81.962)"
                 id="g68"><path
                   id="path70"
                   style="fill:none;stroke:#231f20;stroke-width:0.75;stroke-linecap:square;stroke-linejoin:miter;stroke-miterlimit:10;stroke-dasharray:none;stroke-opacity:1"
                   d="M 0,0 V 0" /></g></g></g></g></g></g><path
       id="path72"
       style="fill:none;stroke:#231f20;stroke-width:0.75;stroke-linecap:square;stroke-linejoin:miter;stroke-miterlimit:10;stroke-dasharray:3.75, 3.75;stroke-dashoffset:0;stroke-opacity:1"
       d="m 178.368,178.671 h -30.376 m 0,0 v 0" /><g
       transform="translate(75.805,31.696)"
       id="g74"><path
         id="path76"
         style="fill:none;stroke:#231f20;stroke-width:2.25;stroke-linecap:square;stroke-linejoin:miter;stroke-miterlimit:10;stroke-dasharray:none;stroke-opacity:1"
         d="M 0,0 H -21" /><g
         transform="translate(6.75,21.75)"
         id="g78"><path
           id="path80"
           style="fill:none;stroke:#231f20;stroke-width:2.25;stroke-linecap:square;stroke-linejoin:miter;stroke-miterlimit:10;stroke-dasharray:none;stroke-opacity:1"
           d="M 0,0 H -27.75" /></g></g><g
       transform="translate(200.868,105.922)"
       id="g82"><path
         id="path84"
         style="fill:none;stroke:#231f20;stroke-width:0.75;stroke-linecap:square;stroke-linejoin:miter;stroke-miterlimit:10;stroke-dasharray:none;stroke-opacity:1"
         d="M 0,0 H 51.75" /><g
         transform="translate(0,-23.625)"
         id="g86"><path
           id="path88"
           style="fill:none;stroke:#231f20;stroke-width:0.75;stroke-linecap:square;stroke-linejoin:miter;stroke-miterlimit:10;stroke-dasharray:none;stroke-opacity:1"
           d="M 0,0 H 22.5" /></g></g><g
       transform="translate(75.148,6.75)"
       id="g90"><path
         id="path92"
         style="fill:none;stroke:#231f20;stroke-width:2.25;stroke-linecap:square;stroke-linejoin:miter;stroke-miterlimit:10;stroke-dasharray:none;stroke-opacity:1"
         d="M 0,0 H -20.344" /><g
         transform="translate(-20.344,46.696)"
         id="g94"><path
           id="path96"
           style="fill:none;stroke:#231f20;stroke-width:2.25;stroke-linecap:square;stroke-linejoin:miter;stroke-miterlimit:10;stroke-dasharray:none;stroke-opacity:1"
           d="M 0,0 V -3.212" /><g
           transform="translate(0,-46.696)"
           id="g98"><path
             id="path100"
             style="fill:none;stroke:#231f20;stroke-width:2.25;stroke-linecap:square;stroke-linejoin:miter;stroke-miterlimit:10;stroke-dasharray:none;stroke-opacity:1"
             d="M 0,0 V 43.484" /><g
             transform="translate(0,24.946)"
             id="g102"><path
               id="path104"
               style="fill:none;stroke:#231f20;stroke-width:2.25;stroke-linecap:square;stroke-linejoin:miter;stroke-miterlimit:10;stroke-dasharray:none;stroke-opacity:1"
               d="M 0,0 V 18.538" /></g></g></g></g><g
       transform="translate(94.37,170.984)"
       id="g106"><path
         id="path108"
         style="fill:none;stroke:#231f20;stroke-width:0.75;stroke-linecap:square;stroke-linejoin:miter;stroke-miterlimit:10;stroke-dasharray:none;stroke-opacity:1"
         d="M 0,0 V -32.838" /><g
         transform="translate(14.167,-32.838)"
         id="g110"><path
           id="path112"
           style="fill:none;stroke:#231f20;stroke-width:0.75;stroke-linecap:square;stroke-linejoin:miter;stroke-miterlimit:10;stroke-dasharray:none;stroke-opacity:1"
           d="M 0,0 H -14.167" /><g
           transform="translate(0.831,-47.011)"
           id="g114"><path
             id="path116"
             style="fill:none;stroke:#231f20;stroke-width:0.75;stroke-linecap:square;stroke-linejoin:miter;stroke-miterlimit:10;stroke-dasharray:none;stroke-opacity:1"
             d="M 0,0 H -36.935 V 79.849" /></g></g></g><path
       id="path118"
       style="fill:#ffffff;fill-opacity:1;fill-rule:nonzero;stroke:none"
       d="M 82.555,45.359 H 257.306 V 60.734 H 82.555 Z" /><g
       transform="translate(90.242,60.734)"
       id="g120"><path
         id="path122"
         style="fill:none;stroke:#231f20;stroke-width:0.75;stroke-linecap:square;stroke-linejoin:miter;stroke-miterlimit:10;stroke-dasharray:none;stroke-opacity:1"
         d="m 0,0 h 159.376 c 4.243,0 7.687,-3.444 7.687,-7.687 0,-4.245 -3.444,-7.688 -7.687,-7.688 H 0 c -4.244,0 -7.687,3.443 -7.687,7.688 C -7.687,-3.444 -4.244,0 0,0 Z" /></g><text
       id="text126"
       style="font-variant:normal;font-weight:normal;font-stretch:normal;font-size:9px;font-family:Times;-inkscape-font-specification:Times-Roman;writing-mode:lr-tb;fill:#231f20;fill-opacity:1;fill-rule:nonzero;stroke:none"
       transform="matrix(1,0,0,-1,93.8892,50.8057)"><tspan
         id="tspan124"
         y="0"
         x="0 4.5 9 11.25 13.5 18 22.5 24.75 27 34.001999 37.998001 41.993999 46.493999 48.995998 53.495998 55.998001 60.498001 64.998001 69.498001 73.494003 77.994003 80.496002 82.998001 85.5 90 94.5 99 102.996 107.496 114.498 118.998 123.498 127.998 131.994 136.494 138.996">41, 12, machining_cutting_component</tspan></text>
<path
       id="path128"
       style="fill:#ffffff;fill-opacity:1;fill-rule:nonzero;stroke:none"
       d="m 173.118,194.609 h 78.75 v 15.375 h -78.75 z" /><g
       transform="translate(180.805,209.984)"
       id="g130"><path
         id="path132"
         style="fill:none;stroke:#231f20;stroke-width:0.75;stroke-linecap:square;stroke-linejoin:miter;stroke-miterlimit:10;stroke-dasharray:none;stroke-opacity:1"
         d="m 0,0 h 63.375 c 4.243,0 7.688,-3.444 7.688,-7.688 0,-4.243 -3.445,-7.688 -7.688,-7.688 H 0 c -4.244,0 -7.687,3.445 -7.687,7.688 C -7.687,-3.444 -4.244,0 0,0 Z" /></g><text
       id="text136"
       style="font-variant:normal;font-weight:normal;font-stretch:normal;font-size:9px;font-family:Times;-inkscape-font-specification:Times-Roman;writing-mode:lr-tb;fill:#231f20;fill-opacity:1;fill-rule:nonzero;stroke:none"
       transform="matrix(1,0,0,-1,187.9761,199.7271)"><tspan
         id="tspan134"
         y="0"
         x="0 4.5 9 11.25 13.5 18 22.5 24.75 27 29.502001 33.498001 37.998001 41.993999 44.495998">65, 33, label</tspan></text>
<path
       id="path138"
       style="fill:#ffffff;fill-opacity:1;fill-rule:nonzero;stroke:none"
       d="m 178.368,170.984 h 73.5 v 15.375 h -73.5 z" /><g
       transform="translate(186.055,186.359)"
       id="g140"><path
         id="path142"
         style="fill:none;stroke:#231f20;stroke-width:0.75;stroke-linecap:square;stroke-linejoin:miter;stroke-miterlimit:10;stroke-dasharray:none;stroke-opacity:1"
         d="m 0,0 h 58.125 c 4.243,0 7.688,-3.444 7.688,-7.687 0,-4.244 -3.445,-7.688 -7.688,-7.688 H 0 c -4.244,0 -7.687,3.444 -7.687,7.688 C -7.687,-3.444 -4.244,0 0,0 Z" /></g><text
       id="text146"
       style="font-variant:normal;font-weight:normal;font-stretch:normal;font-size:9px;font-family:Times;-inkscape-font-specification:Times-Roman;writing-mode:lr-tb;fill:#231f20;fill-opacity:1;fill-rule:nonzero;stroke:none"
       transform="matrix(1,0,0,-1,192.8511,176.1695)"><tspan
         id="tspan144"
         y="0"
         x="0 4.5 9 11.25 13.5 18 22.5 24.75 27 29.502001 33.362999 37.862999 40.365002">65, 34, text</tspan></text>
<path
       id="path148"
       style="fill:#ffffff;fill-opacity:1;fill-rule:nonzero;stroke:none"
       d="m 254.786,137.259 h 78.75 v 15.375 h -78.75 z" /><g
       transform="translate(262.473,152.634)"
       id="g150"><path
         id="path152"
         style="fill:none;stroke:#231f20;stroke-width:0.75;stroke-linecap:square;stroke-linejoin:miter;stroke-miterlimit:10;stroke-dasharray:none;stroke-opacity:1"
         d="m 0,0 h 63.375 c 4.243,0 7.688,-3.444 7.688,-7.687 0,-4.244 -3.445,-7.688 -7.688,-7.688 H 0 c -4.243,0 -7.687,3.444 -7.687,7.688 C -7.687,-3.444 -4.243,0 0,0 Z" /></g><text
       id="text156"
       style="font-variant:normal;font-weight:normal;font-stretch:normal;font-size:9px;font-family:Times;-inkscape-font-specification:Times-Roman;writing-mode:lr-tb;fill:#231f20;fill-opacity:1;fill-rule:nonzero;stroke:none"
       transform="matrix(1,0,0,-1,269.645,142.377)"><tspan
         id="tspan154"
         y="0"
         x="0 4.5 9 11.25 13.5 18 22.5 24.75 27 29.502001 33.498001 37.998001 41.993999 44.495998">65, 33, label</tspan></text>
<path
       id="path158"
       style="fill:#ffffff;fill-opacity:1;fill-rule:nonzero;stroke:none"
       d="m 195.448,276.571 h 78.75 v 15.375 h -78.75 z" /><g
       transform="translate(203.135,291.946)"
       id="g160"><path
         id="path162"
         style="fill:none;stroke:#231f20;stroke-width:0.75;stroke-linecap:square;stroke-linejoin:miter;stroke-miterlimit:10;stroke-dasharray:none;stroke-opacity:1"
         d="m 0,0 h 63.375 c 4.244,0 7.688,-3.444 7.688,-7.687 0,-4.244 -3.444,-7.688 -7.688,-7.688 H 0 c -4.242,0 -7.687,3.444 -7.687,7.688 C -7.687,-3.444 -4.242,0 0,0 Z" /></g><text
       id="text166"
       style="font-variant:normal;font-weight:normal;font-stretch:normal;font-size:9px;font-family:Times;-inkscape-font-specification:Times-Roman;writing-mode:lr-tb;fill:#231f20;fill-opacity:1;fill-rule:nonzero;stroke:none"
       transform="matrix(1,0,0,-1,210.3071,281.689)"><tspan
         id="tspan164"
         y="0"
         x="0 4.5 9 11.25 13.5 18 22.5 24.75 27 29.502001 33.498001 37.998001 41.993999 44.495998">65, 33, label</tspan></text>
<path
       id="path168"
       style="fill:#ffffff;fill-opacity:1;fill-rule:nonzero;stroke:none"
       d="m 200.698,252.946 h 73.5 v 15.375 h -73.5 z" /><g
       transform="translate(208.385,268.321)"
       id="g170"><path
         id="path172"
         style="fill:none;stroke:#231f20;stroke-width:0.75;stroke-linecap:square;stroke-linejoin:miter;stroke-miterlimit:10;stroke-dasharray:none;stroke-opacity:1"
         d="m 0,0 h 58.125 c 4.244,0 7.688,-3.444 7.688,-7.687 0,-4.244 -3.444,-7.688 -7.688,-7.688 H 0 c -4.242,0 -7.687,3.444 -7.687,7.688 C -7.687,-3.444 -4.242,0 0,0 Z" /></g><text
       id="text176"
       style="font-variant:normal;font-weight:normal;font-stretch:normal;font-size:9px;font-family:Times;-inkscape-font-specification:Times-Roman;writing-mode:lr-tb;fill:#231f20;fill-opacity:1;fill-rule:nonzero;stroke:none"
       transform="matrix(1,0,0,-1,215.1821,258.1319)"><tspan
         id="tspan174"
         y="0"
         x="0 4.5 9 11.25 13.5 18 22.5 24.75 27 29.502001 33.362999 37.862999 40.365002">65, 34, text</tspan></text>
<path
       id="path178"
       style="fill:#ffffff;fill-opacity:1;fill-rule:nonzero;stroke:none"
       d="m 230.118,219.359 h 53.625 v 15.375 h -53.625 z" /><g
       transform="translate(237.805,234.734)"
       id="g180"><path
         id="path182"
         style="fill:none;stroke:#231f20;stroke-width:0.75;stroke-linecap:square;stroke-linejoin:miter;stroke-miterlimit:10;stroke-dasharray:none;stroke-opacity:1"
         d="m 0,0 h 38.25 c 4.243,0 7.688,-3.444 7.688,-7.688 0,-4.243 -3.445,-7.688 -7.688,-7.688 H 0 c -4.244,0 -7.687,3.445 -7.687,7.688 C -7.687,-3.444 -4.244,0 0,0 Z" /></g><text
       id="text186"
       style="font-variant:normal;font-weight:normal;font-stretch:normal;font-size:9px;font-family:Times;-inkscape-font-specification:Times-Roman;writing-mode:lr-tb;fill:#231f20;fill-opacity:1;fill-rule:nonzero;stroke:none"
       transform="matrix(1,0,0,-1,235.1675,224.6797)"><tspan
         id="tspan184"
         y="0"
         x="0 4.5 6.75 9 13.5 18 20.25 23.247 27.747 29.997 32.247002 36.747002 39.743999">6, 68 (9, 7)</tspan></text>
<path
       id="path188"
       style="fill:#ffffff;fill-opacity:1;fill-rule:nonzero;stroke:none"
       d="m 151.199,299.071 h 66.749 v 15.375 h -66.749 z" /><g
       transform="translate(158.886,314.446)"
       id="g190"><path
         id="path192"
         style="fill:none;stroke:#231f20;stroke-width:0.75;stroke-linecap:square;stroke-linejoin:miter;stroke-miterlimit:10;stroke-dasharray:none;stroke-opacity:1"
         d="m 0,0 h 51.374 c 4.244,0 7.688,-3.444 7.688,-7.687 0,-4.244 -3.444,-7.688 -7.688,-7.688 H 0 c -4.244,0 -7.687,3.444 -7.687,7.688 C -7.687,-3.444 -4.244,0 0,0 Z" /></g><text
       id="text200"
       style="font-variant:normal;font-weight:normal;font-stretch:normal;font-size:9px;font-family:Times;-inkscape-font-specification:Times-Roman;writing-mode:lr-tb;fill:#231f20;fill-opacity:1;fill-rule:nonzero;stroke:none"
       transform="matrix(1,0,0,-1,167.8154,304.3916)"><tspan
         id="tspan194"
         y="0"
         x="0 4.5 6.75 9 13.5 18 20.25 23.247 27.747 30.743999">6, 69 (9)</tspan><tspan
         id="tspan196"
         y="136.70551"
         x="-42.6978 -38.1978 -34.201801 -30.7008 -26.7048 -23.7078 -21.205799 -16.705799 -14.2038 -11.7018 -7.2017999 -2.7018001">description</tspan><tspan
         id="tspan198"
         y="54.743401"
         x="-20.3661 -15.8661 -11.8701 -8.3690996 -4.3730998 -1.3760999 1.1259 5.6258998 8.1279001 10.6299 15.1299 19.6299">description</tspan></text>
<g
       transform="translate(83.312,31.723)"
       id="g202"><path
         id="path204"
         style="fill:#ffffff;fill-opacity:1;fill-rule:nonzero;stroke:none"
         d="M 0,0 C 0,2.07 -1.679,3.75 -3.75,3.75 -5.82,3.75 -7.5,2.07 -7.5,0 c 0,-2.07 1.68,-3.75 3.75,-3.75 C -1.679,-3.75 0,-2.07 0,0" /></g><g
       transform="translate(83.312,31.723)"
       id="g206"><path
         id="path208"
         style="fill:none;stroke:#231f20;stroke-width:0.75;stroke-linecap:square;stroke-linejoin:miter;stroke-miterlimit:10;stroke-dasharray:none;stroke-opacity:1"
         d="M 0,0 C 0,2.07 -1.679,3.75 -3.75,3.75 -5.82,3.75 -7.5,2.07 -7.5,0 c 0,-2.07 1.68,-3.75 3.75,-3.75 C -1.679,-3.75 0,-2.07 0,0" /></g><g
       transform="translate(109.232,213.792)"
       id="g210"><path
         id="path212"
         style="fill:#ffffff;fill-opacity:1;fill-rule:nonzero;stroke:none"
         d="M 0,0 C 0,2.07 -1.68,3.75 -3.75,3.75 -5.82,3.75 -7.5,2.07 -7.5,0 c 0,-2.07 1.68,-3.75 3.75,-3.75 C -1.68,-3.75 0,-2.07 0,0" /></g><g
       transform="translate(109.232,213.792)"
       id="g214"><path
         id="path216"
         style="fill:none;stroke:#231f20;stroke-width:0.75;stroke-linecap:square;stroke-linejoin:miter;stroke-miterlimit:10;stroke-dasharray:none;stroke-opacity:1"
         d="M 0,0 C 0,2.07 -1.68,3.75 -3.75,3.75 -5.82,3.75 -7.5,2.07 -7.5,0 c 0,-2.07 1.68,-3.75 3.75,-3.75 C -1.68,-3.75 0,-2.07 0,0" /></g><g
       transform="translate(125.163,295.692)"
       id="g218"><path
         id="path220"
         style="fill:#ffffff;fill-opacity:1;fill-rule:nonzero;stroke:none"
         d="M 0,0 C 0,2.07 -1.68,3.75 -3.75,3.75 -5.82,3.75 -7.5,2.07 -7.5,0 c 0,-2.069 1.68,-3.75 3.75,-3.75 C -1.68,-3.75 0,-2.069 0,0" /></g><g
       transform="translate(125.163,295.692)"
       id="g222"><path
         id="path224"
         style="fill:none;stroke:#231f20;stroke-width:0.75;stroke-linecap:square;stroke-linejoin:miter;stroke-miterlimit:10;stroke-dasharray:none;stroke-opacity:1"
         d="M 0,0 C 0,2.07 -1.68,3.75 -3.75,3.75 -5.82,3.75 -7.5,2.07 -7.5,0 c 0,-2.069 1.68,-3.75 3.75,-3.75 C -1.68,-3.75 0,-2.069 0,0" /></g><text
       id="text234"
       style="font-variant:normal;font-weight:normal;font-stretch:normal;font-size:9px;font-family:Times;-inkscape-font-specification:Times-Roman;writing-mode:lr-tb;fill:#231f20;fill-opacity:1;fill-rule:nonzero;stroke:none"
       transform="matrix(1,0,0,-1,125.1172,194.0655)"><tspan
         id="tspan226"
         y="0"
         x="0 4.5 8.4960003 15.498 19.493999">name</tspan><tspan
         id="tspan228"
         y="57.3507"
         x="94.418098 98.918098 102.9141 109.9161 113.9121">name</tspan><tspan
         id="tspan230"
         y="-81.962097"
         x="22.330799 26.830799 30.826799 37.8288 41.824799">name</tspan><tspan
         id="tspan232"
         y="-47.771099"
         x="-42.185699 -39.188702 -35.192699 -32.690701 -28.6947 -26.192699 -23.690701 -19.190701 -14.6907 -10.1907 -7.1936998 -3.1977 0.30329999 4.8032999 9.3032999 12.3003 16.296301 20.292299">relating_resource</tspan></text>
<text
       id="text238"
       style="font-variant:normal;font-weight:normal;font-stretch:normal;font-size:9px;font-family:Times;-inkscape-font-specification:Times-Roman;writing-mode:lr-tb;fill:#231f20;fill-opacity:1;fill-rule:nonzero;stroke:none"
       transform="matrix(1,0,0,-1,0,242.336)"><tspan
         id="tspan236"
         y="0"
         x="0">r</tspan></text>
<text
       id="text242"
       style="font-variant:normal;font-weight:normal;font-stretch:normal;font-size:9px;font-family:Times;-inkscape-font-specification:Times-Roman;writing-mode:lr-tb;fill:#231f20;fill-opacity:1;fill-rule:nonzero;stroke:none"
       transform="matrix(1,0,0,-1,2.9971,242.336)"><tspan
         id="tspan240"
         y="0"
         x="0 3.9960001 6.4980001 10.494 12.996 16.992001 21.492001 25.992001 28.989 32.985001 36.486 40.986 45.486 48.483002 52.479 56.474998">elated_resource</tspan></text>
<path
       id="path244"
       style="fill:#ffffff;fill-opacity:1;fill-rule:nonzero;stroke:none"
       d="m 41.867,170.984 h 75.75 v 39 h -75.75 z" /><g
       transform="translate(41.867,209.984)"
       id="g246"><path
         id="path248"
         style="fill:none;stroke:#231f20;stroke-width:0.75;stroke-linecap:square;stroke-linejoin:miter;stroke-miterlimit:10;stroke-dasharray:none;stroke-opacity:1"
         d="M 75.75,0 H 0 v -39 h 75.75 z" /><g
         id="g250"><path
           id="path252"
           style="fill:none;stroke:#231f20;stroke-width:0.75;stroke-linecap:square;stroke-linejoin:miter;stroke-miterlimit:10;stroke-dasharray:none;stroke-opacity:1"
           d="M 0,0 Z" /></g></g><text
       id="text256"
       style="font-variant:normal;font-weight:normal;font-stretch:normal;font-size:9px;font-family:Times;-inkscape-font-specification:Times-Roman;writing-mode:lr-tb;fill:#231f20;fill-opacity:1;fill-rule:nonzero;stroke:none"
       transform="matrix(1,0,0,-1,51.7295,187.8155)"><tspan
         id="tspan254"
         y="0"
         x="0 3.9960001 7.9920001 10.494 12.996 17.496 21.996 26.496 29.493 33.488998 36.990002 41.490002 45.990002 48.987 52.983002 56.979">action_resource</tspan></text>
<path
       id="path258"
       style="fill:#ffffff;fill-opacity:1;fill-rule:nonzero;stroke:none"
       d="m 116.036,127.884 h 95.999 v 24.75 h -95.999 z" /><g
       transform="translate(116.036,152.634)"
       id="g260"><path
         id="path262"
         style="fill:none;stroke:#231f20;stroke-width:0.75;stroke-linecap:square;stroke-linejoin:miter;stroke-miterlimit:10;stroke-dasharray:none;stroke-opacity:1"
         d="M 95.999,0 H 0 v -24.75 h 95.999 z" /><g
         id="g264"><path
           id="path266"
           style="fill:none;stroke:#231f20;stroke-width:0.75;stroke-linecap:square;stroke-linejoin:miter;stroke-miterlimit:10;stroke-dasharray:none;stroke-opacity:1"
           d="M 0,0 Z" /></g></g><text
       id="text270"
       style="font-variant:normal;font-weight:normal;font-stretch:normal;font-size:9px;font-family:Times;-inkscape-font-specification:Times-Roman;writing-mode:lr-tb;fill:#231f20;fill-opacity:1;fill-rule:nonzero;stroke:none"
       transform="matrix(1,0,0,-1,125.0156,137.9903)"><tspan
         id="tspan268"
         y="0"
         x="0 3.9960001 7.9920001 10.494 12.996 17.496 21.996 26.496 29.493 33.488998 36.990002 41.490002 45.990002 48.987 52.983002 56.979 61.479 63.980999 68.481003 72.981003 76.976997">action_resource_type</tspan></text>
<path
       id="path272"
       style="fill:#ffffff;fill-opacity:1;fill-rule:nonzero;stroke:none"
       d="m 23.699,252.946 h 116.25 v 39 H 23.699 Z" /><g
       transform="translate(23.699,291.946)"
       id="g274"><path
         id="path276"
         style="fill:none;stroke:#231f20;stroke-width:0.75;stroke-linecap:square;stroke-linejoin:miter;stroke-miterlimit:10;stroke-dasharray:none;stroke-opacity:1"
         d="M 116.25,0 H 0 v -39 h 116.25 z" /><g
         id="g278"><path
           id="path280"
           style="fill:none;stroke:#231f20;stroke-width:0.75;stroke-linecap:square;stroke-linejoin:miter;stroke-miterlimit:10;stroke-dasharray:none;stroke-opacity:1"
           d="M 0,0 Z" /></g></g><text
       id="text284"
       style="font-variant:normal;font-weight:normal;font-stretch:normal;font-size:9px;font-family:Times;-inkscape-font-specification:Times-Roman;writing-mode:lr-tb;fill:#231f20;fill-opacity:1;fill-rule:nonzero;stroke:none"
       transform="matrix(1,0,0,-1,30.3008,270.147)"><tspan
         id="tspan282"
         y="0"
         x="0 3.9960001 7.9920001 10.494 12.996 17.496 21.996 26.496 29.493 33.488998 36.990002 41.490002 45.990002 48.987 52.983002 56.979 61.479 64.475998 68.472 70.973999 74.970001 77.472 79.973999 84.473999 88.973999 92.474998 96.974998 99.476997 103.977">action_resource_relationship</tspan></text>
<path
       id="path286"
       style="fill:#ffffff;fill-opacity:1;fill-rule:nonzero;stroke:none"
       d="m 82.648,0.375 h 128.25 V 15.75 H 82.648 Z" /><g
       transform="translate(82.648,15.75)"
       id="g288"><path
         id="path290"
         style="fill:none;stroke:#231f20;stroke-width:0.75;stroke-linecap:square;stroke-linejoin:miter;stroke-miterlimit:10;stroke-dasharray:none;stroke-opacity:1"
         d="M 128.25,0 H 0 v -15.375 h 128.25 z" /><g
         id="g292"><path
           id="path294"
           style="fill:none;stroke:#231f20;stroke-width:0.75;stroke-linecap:square;stroke-linejoin:miter;stroke-miterlimit:10;stroke-dasharray:none;stroke-opacity:1"
           d="M 0,0 Z" /></g></g><text
       id="text298"
       style="font-variant:normal;font-weight:normal;font-stretch:normal;font-size:9px;font-family:Times;-inkscape-font-specification:Times-Roman;writing-mode:lr-tb;fill:#231f20;fill-opacity:1;fill-rule:nonzero;stroke:none"
       transform="matrix(1,0,0,-1,89.6484,5.8213)"><tspan
         id="tspan296"
         y="0"
         x="0 7.0019999 10.998 14.994 19.493999 21.996 26.496 28.997999 33.498001 37.998001 42.498001 46.359001 50.723999 54.720001 58.716 63.216 65.718002 68.220001 72.720001 77.220001 81.720001 84.717003 88.712997 92.213997 96.713997 101.214 104.211 108.207 112.203">machining_execution_resource</tspan></text>
<path
       id="path300"
       style="fill:#ffffff;fill-opacity:1;fill-rule:nonzero;stroke:none"
       d="m 83.305,23.609 h 74.25 v 15.375 h -74.25 z" /><g
       transform="translate(83.305,38.984)"
       id="g302"><path
         id="path304"
         style="fill:none;stroke:#231f20;stroke-width:0.75;stroke-linecap:square;stroke-linejoin:miter;stroke-miterlimit:10;stroke-dasharray:none;stroke-opacity:1"
         d="M 74.25,0 H 0 v -15.375 h 74.25 z" /><g
         id="g306"><path
           id="path308"
           style="fill:none;stroke:#231f20;stroke-width:0.75;stroke-linecap:square;stroke-linejoin:miter;stroke-miterlimit:10;stroke-dasharray:none;stroke-opacity:1"
           d="M 0,0 Z" /></g></g><text
       id="text312"
       style="font-variant:normal;font-weight:normal;font-stretch:normal;font-size:9px;font-family:Times;-inkscape-font-specification:Times-Roman;writing-mode:lr-tb;fill:#231f20;fill-opacity:1;fill-rule:nonzero;stroke:none"
       transform="matrix(1,0,0,-1,90.1675,29.0557)"><tspan
         id="tspan310"
         y="0"
         x="0 7.0019999 10.998 14.994 19.493999 21.996 26.496 28.997999 33.498001 37.998001 42.498001 45 49.5 54 56.501999">machining_tool</tspan></text>
<g
       transform="translate(83.043,213.792)"
       id="g314"><path
         id="path316"
         style="fill:#ffffff;fill-opacity:1;fill-rule:nonzero;stroke:none"
         d="M 0,0 C 0,2.07 -1.68,3.75 -3.75,3.75 -5.82,3.75 -7.5,2.07 -7.5,0 c 0,-2.07 1.68,-3.75 3.75,-3.75 C -1.68,-3.75 0,-2.07 0,0" /></g><g
       transform="translate(83.043,213.792)"
       id="g318"><path
         id="path320"
         style="fill:none;stroke:#231f20;stroke-width:0.75;stroke-linecap:square;stroke-linejoin:miter;stroke-miterlimit:10;stroke-dasharray:none;stroke-opacity:1"
         d="M 0,0 C 0,2.07 -1.68,3.75 -3.75,3.75 -5.82,3.75 -7.5,2.07 -7.5,0 c 0,-2.07 1.68,-3.75 3.75,-3.75 C -1.68,-3.75 0,-2.07 0,0" /></g><g
       transform="translate(68.013,213.792)"
       id="g322"><path
         id="path324"
         style="fill:#ffffff;fill-opacity:1;fill-rule:nonzero;stroke:none"
         d="M 0,0 C 0,2.07 -1.68,3.75 -3.75,3.75 -5.82,3.75 -7.5,2.07 -7.5,0 c 0,-2.07 1.68,-3.75 3.75,-3.75 C -1.68,-3.75 0,-2.07 0,0" /></g><g
       transform="translate(68.013,213.792)"
       id="g326"><path
         id="path328"
         style="fill:none;stroke:#231f20;stroke-width:0.75;stroke-linecap:square;stroke-linejoin:miter;stroke-miterlimit:10;stroke-dasharray:none;stroke-opacity:1"
         d="M 0,0 C 0,2.07 -1.68,3.75 -3.75,3.75 -5.82,3.75 -7.5,2.07 -7.5,0 c 0,-2.07 1.68,-3.75 3.75,-3.75 C -1.68,-3.75 0,-2.07 0,0" /></g><path
       id="path330"
       style="fill:#ffffff;fill-opacity:1;fill-rule:nonzero;stroke:none"
       d="m 116.867,74.609 h 84.001 v 39 h -84.001 z" /><path
       id="path332"
       style="fill:none;stroke:#231f20;stroke-width:0.75;stroke-linecap:square;stroke-linejoin:miter;stroke-miterlimit:10;stroke-dasharray:3.75, 3.75;stroke-dashoffset:0;stroke-opacity:1"
       d="m 116.867,113.609 v -39 h 84.001 v 39 z m 7.5,-39 v 39" /><text
       id="text338"
       style="font-variant:normal;font-weight:normal;font-stretch:normal;font-size:9px;font-family:Times;-inkscape-font-specification:Times-Roman;writing-mode:lr-tb;fill:#231f20;fill-opacity:1;fill-rule:nonzero;stroke:none"
       transform="matrix(1,0,0,-1,131.6035,91.8096)"><tspan
         id="tspan334"
         y="0"
         x="0 3.5009999 8.0010004 12.501 17.000999 21.500999 24.497999 27 30.996 35.495998 39.995998 42.498001 45 48.995998 55.998001">supported_item</tspan><tspan
         id="tspan336"
         y="12.4506"
         x="-66.463203 -61.9632 -58.4622 -54.466202 -49.966202 -45.9702 -43.7202 -38.716202 -35.7192 -31.2192 -28.717199 -24.721201 -21.724199">usage S[1:?]</tspan></text>
<path
       id="path340"
       style="fill:#ffffff;fill-opacity:1;fill-rule:nonzero;stroke:none"
       d="m 252.618,98.234 h 74.25 v 15.375 h -74.25 z" /><g
       transform="translate(260.305,113.609)"
       id="g342"><path
         id="path344"
         style="fill:none;stroke:#231f20;stroke-width:0.75;stroke-linecap:square;stroke-linejoin:miter;stroke-miterlimit:10;stroke-dasharray:none;stroke-opacity:1"
         d="m 0,0 h 58.875 c 4.242,0 7.688,-3.444 7.688,-7.687 0,-4.245 -3.446,-7.688 -7.688,-7.688 H 0 c -4.244,0 -7.687,3.443 -7.687,7.688 C -7.687,-3.444 -4.244,0 0,0 Z" /></g><text
       id="text348"
       style="font-variant:normal;font-weight:normal;font-stretch:normal;font-size:9px;font-family:Times;-inkscape-font-specification:Times-Roman;writing-mode:lr-tb;fill:#231f20;fill-opacity:1;fill-rule:nonzero;stroke:none"
       transform="matrix(1,0,0,-1,265.2261,103.3516)"><tspan
         id="tspan346"
         y="0"
         x="0 4.5 6.75 9 13.5 18 20.25 22.5 26.496 30.492001 32.993999 35.495998 39.995998 44.495998">5, 46, action</tspan></text>
<path
       id="path350"
       style="fill:#ffffff;fill-opacity:1;fill-rule:nonzero;stroke:none"
       d="m 223.368,74.609 h 103.5 v 15.375 h -103.5 z" /><g
       transform="translate(231.055,89.984)"
       id="g352"><path
         id="path354"
         style="fill:none;stroke:#231f20;stroke-width:0.75;stroke-linecap:square;stroke-linejoin:miter;stroke-miterlimit:10;stroke-dasharray:none;stroke-opacity:1"
         d="m 0,0 h 88.125 c 4.242,0 7.688,-3.444 7.688,-7.687 0,-4.245 -3.446,-7.688 -7.688,-7.688 H 0 c -4.244,0 -7.687,3.443 -7.687,7.688 C -7.687,-3.444 -4.244,0 0,0 Z" /></g><text
       id="text358"
       style="font-variant:normal;font-weight:normal;font-stretch:normal;font-size:9px;font-family:Times;-inkscape-font-specification:Times-Roman;writing-mode:lr-tb;fill:#231f20;fill-opacity:1;fill-rule:nonzero;stroke:none"
       transform="matrix(1,0,0,-1,233.0913,79.7266)"><tspan
         id="tspan356"
         y="0"
         x="0 4.5 6.75 9 13.5 18 20.25 22.5 26.496 30.492001 32.993999 35.495998 39.995998 44.495998 48.995998 55.998001 59.993999 62.495998 66.996002 71.496002 75.996002">1, 45, action_method</tspan></text>
<g
       transform="translate(82.682,6.793)"
       id="g360"><path
         id="path362"
         style="fill:#ffffff;fill-opacity:1;fill-rule:nonzero;stroke:none"
         d="M 0,0 C 0,2.0693 -1.68,3.75 -3.75,3.75 -5.82,3.75 -7.5,2.0693 -7.5,0 c 0,-2.0703 1.68,-3.75 3.75,-3.75 C -1.68,-3.75 0,-2.0703 0,0" /></g><g
       transform="translate(82.682,6.793)"
       id="g364"><path
         id="path366"
         style="fill:none;stroke:#231f20;stroke-width:0.75;stroke-linecap:square;stroke-linejoin:miter;stroke-miterlimit:10;stroke-dasharray:none;stroke-opacity:1"
         d="M 0,0 C 0,2.0693 -1.68,3.75 -3.75,3.75 -5.82,3.75 -7.5,2.0693 -7.5,0 c 0,-2.0703 1.68,-3.75 3.75,-3.75 C -1.68,-3.75 0,-2.0703 0,0" /></g><g
       transform="translate(115.982,138.192)"
       id="g368"><path
         id="path370"
         style="fill:#ffffff;fill-opacity:1;fill-rule:nonzero;stroke:none"
         d="M 0,0 C 0,2.07 -1.68,3.75 -3.75,3.75 -5.82,3.75 -7.5,2.07 -7.5,0 c 0,-2.069 1.68,-3.75 3.75,-3.75 C -1.68,-3.75 0,-2.069 0,0" /></g><g
       transform="translate(115.982,138.192)"
       id="g372"><path
         id="path374"
         style="fill:none;stroke:#231f20;stroke-width:0.75;stroke-linecap:square;stroke-linejoin:miter;stroke-miterlimit:10;stroke-dasharray:none;stroke-opacity:1"
         d="M 0,0 C 0,2.07 -1.68,3.75 -3.75,3.75 -5.82,3.75 -7.5,2.07 -7.5,0 c 0,-2.069 1.68,-3.75 3.75,-3.75 C -1.68,-3.75 0,-2.069 0,0" /></g><text
       id="text378"
       style="font-variant:normal;font-weight:normal;font-stretch:normal;font-size:9px;font-family:Times;-inkscape-font-specification:Times-Roman;writing-mode:lr-tb;fill:#231f20;fill-opacity:1;fill-rule:nonzero;stroke:none"
       transform="matrix(1,0,0,-1,89.8789,127.3272)"><tspan
         id="tspan376"
         y="0"
         x="0 4.5 7.0019999 11.502 16.002001">kind</tspan></text>
<g
       transform="translate(116.883,91.123)"
       id="g380"><path
         id="path382"
         style="fill:#ffffff;fill-opacity:1;fill-rule:nonzero;stroke:none"
         d="M 0,0 C 0,2.069 -1.68,3.75 -3.75,3.75 -5.821,3.75 -7.5,2.069 -7.5,0 c 0,-2.07 1.679,-3.75 3.75,-3.75 C -1.68,-3.75 0,-2.07 0,0" /></g><g
       transform="translate(116.883,91.123)"
       id="g384"><path
         id="path386"
         style="fill:none;stroke:#231f20;stroke-width:0.75;stroke-linecap:square;stroke-linejoin:miter;stroke-miterlimit:10;stroke-dasharray:none;stroke-opacity:1"
         d="M 0,0 C 0,2.069 -1.68,3.75 -3.75,3.75 -5.821,3.75 -7.5,2.069 -7.5,0 c 0,-2.07 1.679,-3.75 3.75,-3.75 C -1.68,-3.75 0,-2.07 0,0" /></g></g></svg>