<?xml version="1.0" encoding="UTF-8" standalone="no"?>
<svg
   xmlns:dc="http://purl.org/dc/elements/1.1/"
   xmlns:cc="http://creativecommons.org/ns#"
   xmlns:rdf="http://www.w3.org/1999/02/22-rdf-syntax-ns#"
   xmlns:svg="http://www.w3.org/2000/svg"
   xmlns="http://www.w3.org/2000/svg"
   viewBox="0 0 451.40399 620.80536"
   height="620.80536"
   width="451.40399"
   xml:space="preserve"
   id="svg2"
   version="1.1"><metadata
     id="metadata8"><rdf:RDF><cc:Work
         rdf:about=""><dc:format>image/svg+xml</dc:format><dc:type
           rdf:resource="http://purl.org/dc/dcmitype/StillImage" /></cc:Work></rdf:RDF></metadata><defs
     id="defs6" /><g
     transform="matrix(1.3333333,0,0,-1.3333333,0,620.80533)"
     id="g10"><g
       transform="translate(123.375,213.719)"
       id="g12"><path
         id="path14"
         style="fill:none;stroke:#231f20;stroke-width:0.75;stroke-linecap:square;stroke-linejoin:miter;stroke-miterlimit:10;stroke-dasharray:none;stroke-opacity:1"
         d="M 0,0 H 57.75" /><g
         transform="translate(64.138,212.323)"
         id="g16"><path
           id="path18"
           style="fill:none;stroke:#231f20;stroke-width:0.75;stroke-linecap:square;stroke-linejoin:miter;stroke-miterlimit:10;stroke-dasharray:none;stroke-opacity:1"
           d="M 0,0 H -92.25" /><g
           transform="translate(-27,-23.625)"
           id="g20"><path
             id="path22"
             style="fill:none;stroke:#231f20;stroke-width:0.75;stroke-linecap:square;stroke-linejoin:miter;stroke-miterlimit:10;stroke-dasharray:none;stroke-opacity:1"
             d="M 0,0 H -65.25" /><g
             transform="translate(-25.888,-127.198)"
             id="g24"><path
               id="path26"
               style="fill:none;stroke:#231f20;stroke-width:0.75;stroke-linecap:square;stroke-linejoin:miter;stroke-miterlimit:10;stroke-dasharray:none;stroke-opacity:1"
               d="M 0,0 H -34.125" /><g
               transform="translate(34.125,-23.625)"
               id="g28"><path
                 id="path30"
                 style="fill:none;stroke:#231f20;stroke-width:0.75;stroke-linecap:square;stroke-linejoin:miter;stroke-miterlimit:10;stroke-dasharray:none;stroke-opacity:1"
                 d="M 0,0 H -68.25" /></g></g></g></g></g><g
       transform="translate(61.95,228.906)"
       id="g32"><path
         id="path34"
         style="fill:none;stroke:#231f20;stroke-width:2.25;stroke-linecap:square;stroke-linejoin:miter;stroke-miterlimit:10;stroke-dasharray:none;stroke-opacity:1"
         d="M 0,0 0.3,15" /></g><g
       transform="translate(146.357,344.161)"
       id="g36"><path
         id="path38"
         style="fill:none;stroke:#231f20;stroke-width:0.75;stroke-linecap:square;stroke-linejoin:miter;stroke-miterlimit:10;stroke-dasharray:none;stroke-opacity:1"
         d="M 0,0 H -43.5" /><g
         transform="translate(-11.732,-68.942)"
         id="g40"><path
           id="path42"
           style="fill:none;stroke:#231f20;stroke-width:0.75;stroke-linecap:square;stroke-linejoin:miter;stroke-miterlimit:10;stroke-dasharray:none;stroke-opacity:1"
           d="M 0,0 H 34.125" /></g></g><g
       transform="translate(58.428,139.313)"
       id="g44"><path
         id="path46"
         style="fill:none;stroke:#231f20;stroke-width:2.25;stroke-linecap:square;stroke-linejoin:miter;stroke-miterlimit:10;stroke-dasharray:none;stroke-opacity:1"
         d="M 0,0 V 15.375" /></g><g
       transform="translate(134.625,275.219)"
       id="g48"><path
         id="path50"
         style="fill:none;stroke:#231f20;stroke-width:0.75;stroke-linecap:square;stroke-linejoin:miter;stroke-miterlimit:10;stroke-dasharray:none;stroke-opacity:1"
         d="M 0,0 V 0" /></g><g
       transform="translate(58.138,441.229)"
       id="g52"><path
         id="path54"
         style="fill:none;stroke:#231f20;stroke-width:2.25;stroke-linecap:square;stroke-linejoin:miter;stroke-miterlimit:10;stroke-dasharray:none;stroke-opacity:1"
         d="M 0,0 V 8.625" /><g
         transform="translate(3.094,-81.88)"
         id="g56"><path
           id="path58"
           style="fill:none;stroke:#231f20;stroke-width:2.25;stroke-linecap:square;stroke-linejoin:miter;stroke-miterlimit:10;stroke-dasharray:none;stroke-opacity:1"
           d="M 0,0 V 7.125" /><g
           transform="translate(1.261,-68.95)"
           id="g60"><path
             id="path62"
             style="fill:none;stroke:#231f20;stroke-width:2.25;stroke-linecap:square;stroke-linejoin:miter;stroke-miterlimit:10;stroke-dasharray:none;stroke-opacity:1"
             d="M 0,0 0.508,7.882" /></g></g></g><g
       transform="translate(142.428,31.688)"
       id="g64"><path
         id="path66"
         style="fill:none;stroke:#231f20;stroke-width:0.75;stroke-linecap:square;stroke-linejoin:miter;stroke-miterlimit:10;stroke-dasharray:none;stroke-opacity:1"
         d="M 0,0 H -27.75" /><g
         transform="translate(0,-23.625)"
         id="g68"><path
           id="path70"
           style="fill:none;stroke:#231f20;stroke-width:0.75;stroke-linecap:square;stroke-linejoin:miter;stroke-miterlimit:10;stroke-dasharray:none;stroke-opacity:1"
           d="M 0,0 H -22.5" /><g
           transform="translate(100.5,23.625)"
           id="g72"><path
             id="path74"
             style="fill:none;stroke:#231f20;stroke-width:0.75;stroke-linecap:square;stroke-linejoin:miter;stroke-miterlimit:10;stroke-dasharray:none;stroke-opacity:1"
             d="M 0,0 H 22.5" /></g></g></g><g
       transform="translate(58.471,95.895)"
       id="g76"><path
         id="path78"
         style="fill:none;stroke:#231f20;stroke-width:2.25;stroke-linecap:square;stroke-linejoin:miter;stroke-miterlimit:10;stroke-dasharray:none;stroke-opacity:1"
         d="M 0,0 -0.043,20.543" /></g><g
       transform="translate(192.678,46.875)"
       id="g80"><path
         id="path82"
         style="fill:none;stroke:#231f20;stroke-width:0.75;stroke-linecap:square;stroke-linejoin:miter;stroke-miterlimit:10;stroke-dasharray:none;stroke-opacity:1"
         d="M 0,0 V 77.543 H -100.5" /></g><path
       id="path84"
       style="fill:#ffffff;fill-opacity:1;fill-rule:nonzero;stroke:none"
       d="m 187.513,418.354 h 108.5 v 15.375 h -108.5 z" /><g
       transform="translate(195.2,433.729)"
       id="g86"><path
         id="path88"
         style="fill:none;stroke:#231f20;stroke-width:0.75;stroke-linecap:square;stroke-linejoin:miter;stroke-miterlimit:10;stroke-dasharray:none;stroke-opacity:1"
         d="m 0,0 h 93.125 c 4.243,0 7.687,-3.444 7.687,-7.687 0,-4.244 -3.444,-7.688 -7.687,-7.688 H 0 c -4.243,0 -7.687,3.444 -7.687,7.688 C -7.687,-3.444 -4.243,0 0,0 Z" /></g><text
       id="text92"
       style="font-variant:normal;font-weight:normal;font-stretch:normal;font-size:9px;font-family:Times;-inkscape-font-specification:Times-Roman;writing-mode:lr-tb;fill:#231f20;fill-opacity:1;fill-rule:nonzero;stroke:none"
       transform="matrix(1,0,0,-1,198.4834,423.8003)"><tspan
         id="tspan90"
         y="0"
         x="0 4.5 9 11.25 13.5 18 22.5 27 29.25 31.5 34.001999 37.998001 42.498001 46.998001 49.5 54 58.5 65.501999 69.498001 73.494003 76.995003 81.495003 84.491997 88.487999">48, 143, length_measure</tspan></text>
<path
       id="path94"
       style="fill:#ffffff;fill-opacity:1;fill-rule:nonzero;stroke:none"
       d="m 160.513,394.729 h 135.5 v 15.375 h -135.5 z" /><g
       transform="translate(168.2,410.104)"
       id="g96"><path
         id="path98"
         style="fill:none;stroke:#231f20;stroke-width:0.75;stroke-linecap:square;stroke-linejoin:miter;stroke-miterlimit:10;stroke-dasharray:none;stroke-opacity:1"
         d="m 0,0 h 120.125 c 4.243,0 7.687,-3.444 7.687,-7.687 0,-4.244 -3.444,-7.688 -7.687,-7.688 H 0 c -4.244,0 -7.687,3.444 -7.687,7.688 C -7.687,-3.444 -4.244,0 0,0 Z" /></g><text
       id="text102"
       style="font-variant:normal;font-weight:normal;font-stretch:normal;font-size:9px;font-family:Times;-inkscape-font-specification:Times-Roman;writing-mode:lr-tb;fill:#231f20;fill-opacity:1;fill-rule:nonzero;stroke:none"
       transform="matrix(1,0,0,-1,172.7256,400.1754)"><tspan
         id="tspan100"
         y="0"
         x="0 4.5 9 11.25 13.5 18 22.5 27 29.25 31.5 36 38.501999 42.498001 46.998001 50.993999 55.493999 59.490002 63.990002 68.489998 70.991997 74.987999 79.487999 86.489998 90.486 94.482002 97.983002 102.483 105.48 109.476">48, 146, plane_angle_measure</tspan></text>
<path
       id="path104"
       style="fill:#ffffff;fill-opacity:1;fill-rule:nonzero;stroke:none"
       d="M 168.75,267.531 H 315 v 15.375 H 168.75 Z" /><g
       transform="translate(176.438,282.906)"
       id="g106"><path
         id="path108"
         style="fill:none;stroke:#231f20;stroke-width:0.75;stroke-linecap:square;stroke-linejoin:miter;stroke-miterlimit:10;stroke-dasharray:none;stroke-opacity:1"
         d="m 0,0 h 130.875 c 4.244,0 7.687,-3.443 7.687,-7.687 0,-4.244 -3.443,-7.688 -7.687,-7.688 H 0 c -4.243,0 -7.687,3.444 -7.687,7.688 C -7.687,-3.443 -4.243,0 0,0 Z" /></g><text
       id="text112"
       style="font-variant:normal;font-weight:normal;font-stretch:normal;font-size:9px;font-family:Times;-inkscape-font-specification:Times-Roman;writing-mode:lr-tb;fill:#231f20;fill-opacity:1;fill-rule:nonzero;stroke:none"
       transform="matrix(1,0,0,-1,178.8399,272.9781)"><tspan
         id="tspan110"
         y="0"
         x="0 4.5 9 11.25 13.5 18 22.5 27 29.25 31.5 36 40.5 44.000999 46.502998 49.005001 51.282001 55.646999 59.643002 64.142998 66.644997 70.640999 75.140999 79.640999 82.142998 86.642998 91.142998 98.144997 102.141 106.137 109.638 114.138 117.135 121.131">48, 155, positive_length_measure</tspan></text>
<path
       id="path114"
       style="fill:#ffffff;fill-opacity:1;fill-rule:nonzero;stroke:none"
       d="M 168.75,243.906 H 315 v 15.375 H 168.75 Z" /><g
       transform="translate(176.438,259.281)"
       id="g116"><path
         id="path118"
         style="fill:none;stroke:#231f20;stroke-width:0.75;stroke-linecap:square;stroke-linejoin:miter;stroke-miterlimit:10;stroke-dasharray:none;stroke-opacity:1"
         d="m 0,0 h 130.875 c 4.244,0 7.687,-3.443 7.687,-7.687 0,-4.244 -3.443,-7.688 -7.687,-7.688 H 0 c -4.243,0 -7.687,3.444 -7.687,7.688 C -7.687,-3.443 -4.243,0 0,0 Z" /></g><text
       id="text122"
       style="font-variant:normal;font-weight:normal;font-stretch:normal;font-size:9px;font-family:Times;-inkscape-font-specification:Times-Roman;writing-mode:lr-tb;fill:#231f20;fill-opacity:1;fill-rule:nonzero;stroke:none"
       transform="matrix(1,0,0,-1,178.8399,249.3531)"><tspan
         id="tspan120"
         y="0"
         x="0 4.5 9 11.25 13.5 18 22.5 27 29.25 31.5 36 40.5 44.000999 46.502998 49.005001 51.282001 55.646999 59.643002 64.142998 66.644997 70.640999 75.140999 79.640999 82.142998 86.642998 91.142998 98.144997 102.141 106.137 109.638 114.138 117.135 121.131">48, 155, positive_length_measure</tspan></text>
<path
       id="path124"
       style="fill:#ffffff;fill-opacity:1;fill-rule:nonzero;stroke:none"
       d="m 146.357,336.474 h 142.249 v 15.375 H 146.357 Z" /><g
       transform="translate(154.044,351.849)"
       id="g126"><path
         id="path128"
         style="fill:none;stroke:#231f20;stroke-width:0.75;stroke-linecap:square;stroke-linejoin:miter;stroke-miterlimit:10;stroke-dasharray:none;stroke-opacity:1"
         d="m 0,0 h 126.874 c 4.244,0 7.688,-3.444 7.688,-7.688 0,-4.243 -3.444,-7.687 -7.688,-7.687 H 0 c -4.244,0 -7.687,3.444 -7.687,7.687 C -7.687,-3.444 -4.244,0 0,0 Z" /></g><text
       id="text132"
       style="font-variant:normal;font-weight:normal;font-stretch:normal;font-size:9px;font-family:Times;-inkscape-font-specification:Times-Roman;writing-mode:lr-tb;fill:#231f20;fill-opacity:1;fill-rule:nonzero;stroke:none"
       transform="matrix(1,0,0,-1,156.4453,341.92)"><tspan
         id="tspan130"
         y="0"
         x="0 4.5 9 11.25 13.5 18 22.5 27 29.25 31.5 36 40.5 44.000999 46.502998 49.005001 51.282001 55.646999 59.643002 64.142998 66.644997 70.640999 75.140999 79.640999 82.142998 86.642998 91.142998 98.144997 102.141 106.137 109.638 114.138 117.135 121.131">48, 155, positive_length_measure</tspan></text>
<path
       id="path134"
       style="fill:#ffffff;fill-opacity:1;fill-rule:nonzero;stroke:none"
       d="m 22.428,154.688 h 72 v 15.375 h -72 z" /><g
       transform="translate(30.115,170.063)"
       id="g136"><path
         id="path138"
         style="fill:none;stroke:#231f20;stroke-width:0.75;stroke-linecap:square;stroke-linejoin:miter;stroke-miterlimit:10;stroke-dasharray:none;stroke-opacity:1"
         d="m 0,0 h 56.625 c 4.244,0 7.688,-3.443 7.688,-7.687 0,-4.244 -3.444,-7.688 -7.688,-7.688 H 0 c -4.244,0 -7.687,3.444 -7.687,7.688 C -7.687,-3.443 -4.244,0 0,0 Z" /></g><text
       id="text142"
       style="font-variant:normal;font-weight:normal;font-stretch:normal;font-size:9px;font-family:Times;-inkscape-font-specification:Times-Roman;writing-mode:lr-tb;fill:#231f20;fill-opacity:1;fill-rule:nonzero;stroke:none"
       transform="matrix(1,0,0,-1,34.1641,160.0078)"><tspan
         id="tspan140"
         y="0"
         x="0 4.5 9 11.25 13.5 18 22.5 27 29.25 32.247002 36.747002 41.247002 44.243999">30, 289 (24)</tspan></text>
<g
       transform="translate(188.632,213.711)"
       id="g144"><path
         id="path146"
         style="fill:#ffffff;fill-opacity:1;fill-rule:nonzero;stroke:none"
         d="M 0,0 C 0,2.07 -1.68,3.75 -3.75,3.75 -5.819,3.75 -7.5,2.07 -7.5,0 c 0,-2.07 1.681,-3.75 3.75,-3.75 C -1.68,-3.75 0,-2.07 0,0" /></g><g
       transform="translate(188.632,213.711)"
       id="g148"><path
         id="path150"
         style="fill:none;stroke:#231f20;stroke-width:0.75;stroke-linecap:square;stroke-linejoin:miter;stroke-miterlimit:10;stroke-dasharray:none;stroke-opacity:1"
         d="M 0,0 C 0,2.07 -1.68,3.75 -3.75,3.75 -5.819,3.75 -7.5,2.07 -7.5,0 c 0,-2.07 1.681,-3.75 3.75,-3.75 C -1.68,-3.75 0,-2.07 0,0" /></g><g
       transform="translate(65.603,225.141)"
       id="g152"><path
         id="path154"
         style="fill:#ffffff;fill-opacity:1;fill-rule:nonzero;stroke:none"
         d="M 0,0 C 0,2.07 -1.68,3.75 -3.75,3.75 -5.82,3.75 -7.5,2.07 -7.5,0 c 0,-2.069 1.68,-3.75 3.75,-3.75 C -1.68,-3.75 0,-2.069 0,0" /></g><g
       transform="translate(65.603,225.141)"
       id="g156"><path
         id="path158"
         style="fill:none;stroke:#231f20;stroke-width:0.75;stroke-linecap:square;stroke-linejoin:miter;stroke-miterlimit:10;stroke-dasharray:none;stroke-opacity:1"
         d="M 0,0 C 0,2.07 -1.68,3.75 -3.75,3.75 -5.82,3.75 -7.5,2.07 -7.5,0 c 0,-2.069 1.68,-3.75 3.75,-3.75 C -1.68,-3.75 0,-2.069 0,0" /></g><g
       transform="translate(62.182,135.591)"
       id="g160"><path
         id="path162"
         style="fill:#ffffff;fill-opacity:1;fill-rule:nonzero;stroke:none"
         d="M 0,0 C 0,2.07 -1.679,3.75 -3.75,3.75 -5.82,3.75 -7.5,2.07 -7.5,0 c 0,-2.069 1.68,-3.75 3.75,-3.75 C -1.679,-3.75 0,-2.069 0,0" /></g><g
       transform="translate(62.182,135.591)"
       id="g164"><path
         id="path166"
         style="fill:none;stroke:#231f20;stroke-width:0.75;stroke-linecap:square;stroke-linejoin:miter;stroke-miterlimit:10;stroke-dasharray:none;stroke-opacity:1"
         d="M 0,0 C 0,2.07 -1.679,3.75 -3.75,3.75 -5.82,3.75 -7.5,2.07 -7.5,0 c 0,-2.069 1.68,-3.75 3.75,-3.75 C -1.679,-3.75 0,-2.069 0,0" /></g><text
       id="text180"
       style="font-variant:normal;font-weight:normal;font-stretch:normal;font-size:9px;font-family:Times;-inkscape-font-specification:Times-Roman;writing-mode:lr-tb;fill:#231f20;fill-opacity:1;fill-rule:nonzero;stroke:none"
       transform="matrix(1,0,0,-1,106.5127,415.0562)"><tspan
         id="tspan168"
         y="0"
         x="0 2.997 6.993 11.493 13.995 18.495001 21.996">radius</tspan><tspan
         id="tspan170"
         y="23.625"
         x="0 3.5009999 7.4970002 14.499 17.000999 21.500999 25.497 29.997 34.497002 36.999001 40.994999">semi_angle</tspan><tspan
         id="tspan172"
         y="212.3217"
         x="24.362101 27.8631 31.8591 34.361099 38.357101 42.3531 44.855099 49.355099 53.855099 58.355099 60.857101 64.853104 67.850098">select_outer</tspan><tspan
         id="tspan174"
         y="150.82201"
         x="1.4868 8.4888 12.4848 14.9868 19.486799 22.483801 26.983801 29.980801 33.976799 38.476799 40.978802 45.478802 48.979801">major_radius</tspan><tspan
         id="tspan176"
         y="174.44701"
         x="1.4868 8.4888 10.9908 15.4908 19.990801 22.987801 27.487801 30.4848 34.480801 38.980801 41.4828 45.9828 49.483799">minor_radius</tspan><tspan
         id="tspan178"
         y="81.880203"
         x="3.8429999 6.8400002 10.836 15.336 17.837999 22.337999 25.839001">radius</tspan></text>
<path
       id="path182"
       style="fill:#ffffff;fill-opacity:1;fill-rule:nonzero;stroke:none"
       d="m 188.625,206.031 h 63 v 15.375 h -63 z" /><g
       transform="translate(188.625,221.406)"
       id="g184"><path
         id="path186"
         style="fill:none;stroke:#231f20;stroke-width:0.75;stroke-linecap:square;stroke-linejoin:miter;stroke-miterlimit:10;stroke-dasharray:none;stroke-opacity:1"
         d="M 63,0 H 0 v -15.375 h 63 z" /><g
         id="g188"><path
           id="path190"
           style="fill:none;stroke:#231f20;stroke-width:0.75;stroke-linecap:square;stroke-linejoin:miter;stroke-miterlimit:10;stroke-dasharray:none;stroke-opacity:1"
           d="M 0,0 Z" /><g
           transform="translate(55.5,-15.375)"
           id="g192"><path
             id="path194"
             style="fill:none;stroke:#231f20;stroke-width:0.75;stroke-linecap:square;stroke-linejoin:miter;stroke-miterlimit:10;stroke-dasharray:none;stroke-opacity:1"
             d="M 0,0 V 15.375" /></g></g></g><text
       id="text198"
       style="font-variant:normal;font-weight:normal;font-stretch:normal;font-size:9px;font-family:Times;-inkscape-font-specification:Times-Roman;writing-mode:lr-tb;fill:#231f20;fill-opacity:1;fill-rule:nonzero;stroke:none"
       transform="matrix(1,0,0,-1,199.8652,210.5557)"><tspan
         id="tspan196"
         y="0"
         x="0 6.0029998 10.503 15.003 17.504999 21.500999 25.497 29.997">Boolean</tspan></text>
<path
       id="path200"
       style="fill:#ffffff;fill-opacity:1;fill-rule:nonzero;stroke:none"
       d="m 21.013,394.729 h 74.25 v 39 h -74.25 z" /><g
       transform="translate(21.013,433.729)"
       id="g202"><path
         id="path204"
         style="fill:none;stroke:#231f20;stroke-width:0.75;stroke-linecap:square;stroke-linejoin:miter;stroke-miterlimit:10;stroke-dasharray:none;stroke-opacity:1"
         d="M 74.25,0 H 0 v -39 h 74.25 z" /><g
         id="g206"><path
           id="path208"
           style="fill:none;stroke:#231f20;stroke-width:0.75;stroke-linecap:square;stroke-linejoin:miter;stroke-miterlimit:10;stroke-dasharray:none;stroke-opacity:1"
           d="M 0,0 Z" /></g></g><text
       id="text212"
       style="font-variant:normal;font-weight:normal;font-stretch:normal;font-size:9px;font-family:Times;-inkscape-font-specification:Times-Roman;writing-mode:lr-tb;fill:#231f20;fill-opacity:1;fill-rule:nonzero;stroke:none"
       transform="matrix(1,0,0,-1,28.8765,411.5157)"><tspan
         id="tspan210"
         y="0"
         x="0 3.9960001 8.4960003 12.996 15.498 19.493999 23.49 25.992001 30.492001 33.993 38.493 41.490002 44.396999 48.393002 52.389 56.384998">conical_surface</tspan></text>
<path
       id="path214"
       style="fill:#ffffff;fill-opacity:1;fill-rule:nonzero;stroke:none"
       d="m 0.375,196.656 h 123 v 24.75 h -123 z" /><g
       transform="translate(0.375,221.406)"
       id="g216"><path
         id="path218"
         style="fill:none;stroke:#231f20;stroke-width:0.75;stroke-linecap:square;stroke-linejoin:miter;stroke-miterlimit:10;stroke-dasharray:none;stroke-opacity:1"
         d="M 123,0 H 0 v -24.75 h 123 z" /><g
         id="g220"><path
           id="path222"
           style="fill:none;stroke:#231f20;stroke-width:0.75;stroke-linecap:square;stroke-linejoin:miter;stroke-miterlimit:10;stroke-dasharray:none;stroke-opacity:1"
           d="M 0,0 Z" /></g></g><text
       id="text226"
       style="font-variant:normal;font-weight:normal;font-stretch:normal;font-size:9px;font-family:Times;-inkscape-font-specification:Times-Roman;writing-mode:lr-tb;fill:#231f20;fill-opacity:1;fill-rule:nonzero;stroke:none"
       transform="matrix(1,0,0,-1,11.5957,205.7461)"><tspan
         id="tspan224"
         y="0"
         x="0 4.5 8.3610001 12.861 16.857 21.357 25.353001 28.35 32.346001 34.848 38.844002 43.344002 45.846001 50.346001 53.342999 57.842999 60.345001 64.845001 68.841003 71.343002 75.843002 79.344002 83.844002 86.841003 89.748001 93.744003 97.739998 101.736">degenerate_toroidal_surface</tspan></text>
<path
       id="path228"
       style="fill:#ffffff;fill-opacity:1;fill-rule:nonzero;stroke:none"
       d="m 24,243.906 h 76.5 v 39 H 24 Z" /><g
       transform="translate(24,282.906)"
       id="g230"><path
         id="path232"
         style="fill:none;stroke:#231f20;stroke-width:0.75;stroke-linecap:square;stroke-linejoin:miter;stroke-miterlimit:10;stroke-dasharray:none;stroke-opacity:1"
         d="M 76.5,0 H 0 v -39 h 76.5 z" /><g
         id="g234"><path
           id="path236"
           style="fill:none;stroke:#231f20;stroke-width:0.75;stroke-linecap:square;stroke-linejoin:miter;stroke-miterlimit:10;stroke-dasharray:none;stroke-opacity:1"
           d="M 0,0 Z" /></g></g><text
       id="text240"
       style="font-variant:normal;font-weight:normal;font-stretch:normal;font-size:9px;font-family:Times;-inkscape-font-specification:Times-Roman;writing-mode:lr-tb;fill:#231f20;fill-opacity:1;fill-rule:nonzero;stroke:none"
       transform="matrix(1,0,0,-1,33.2373,260.6934)"><tspan
         id="tspan238"
         y="0"
         x="0 2.5020001 7.0019999 9.9989996 14.499 17.000999 21.500999 25.497 27.999001 32.499001 36 40.5 43.497002 46.403999 50.400002 54.396 58.391998">toroidal_surface</tspan></text>
<path
       id="path242"
       style="fill:#ffffff;fill-opacity:1;fill-rule:nonzero;stroke:none"
       d="m 14.229,73.02 h 88.5 v 15.375 h -88.5 z" /><g
       transform="translate(14.229,88.395)"
       id="g244"><path
         id="path246"
         style="fill:none;stroke:#231f20;stroke-width:0.75;stroke-linecap:square;stroke-linejoin:miter;stroke-miterlimit:10;stroke-dasharray:none;stroke-opacity:1"
         d="M 88.5,0 H 0 v -15.375 h 88.5 z" /><g
         id="g248"><path
           id="path250"
           style="fill:none;stroke:#231f20;stroke-width:0.75;stroke-linecap:square;stroke-linejoin:miter;stroke-miterlimit:10;stroke-dasharray:none;stroke-opacity:1"
           d="M 0,0 Z" /></g></g><text
       id="text254"
       style="font-variant:normal;font-weight:normal;font-stretch:normal;font-size:9px;font-family:Times;-inkscape-font-specification:Times-Roman;writing-mode:lr-tb;fill:#231f20;fill-opacity:1;fill-rule:nonzero;stroke:none"
       transform="matrix(1,0,0,-1,20.7139,78.4668)"><tspan
         id="tspan252"
         y="0"
         x="0 4.5 8.4960003 12.996 19.997999 23.993999 26.496 29.493 31.995001 35.991001 40.491001 44.487 48.987 51.984001 56.348999 60.345001 64.845001 68.346001 72.342003 74.844002">geometric_curve_set</tspan></text>
<path
       id="path256"
       style="fill:#ffffff;fill-opacity:1;fill-rule:nonzero;stroke:none"
       d="m 24.678,116.438 h 67.5 v 15.375 h -67.5 z" /><g
       transform="translate(24.678,131.813)"
       id="g258"><path
         id="path260"
         style="fill:none;stroke:#231f20;stroke-width:0.75;stroke-linecap:square;stroke-linejoin:miter;stroke-miterlimit:10;stroke-dasharray:none;stroke-opacity:1"
         d="M 67.5,0 H 0 v -15.375 h 67.5 z" /><g
         id="g262"><path
           id="path264"
           style="fill:none;stroke:#231f20;stroke-width:0.75;stroke-linecap:square;stroke-linejoin:miter;stroke-miterlimit:10;stroke-dasharray:none;stroke-opacity:1"
           d="M 0,0 Z" /></g></g><text
       id="text268"
       style="font-variant:normal;font-weight:normal;font-stretch:normal;font-size:9px;font-family:Times;-inkscape-font-specification:Times-Roman;writing-mode:lr-tb;fill:#231f20;fill-opacity:1;fill-rule:nonzero;stroke:none"
       transform="matrix(1,0,0,-1,32.168,121.8848)"><tspan
         id="tspan266"
         y="0"
         x="0 4.5 8.4960003 12.996 19.997999 23.993999 26.496 29.493 31.995001 35.991001 40.491001 43.992001 47.987999 50.490002">geometric_set</tspan></text>
<path
       id="path270"
       style="fill:#ffffff;fill-opacity:1;fill-rule:nonzero;stroke:none"
       d="m 19.607,327.099 h 83.25 v 24.75 h -83.25 z" /><g
       transform="translate(19.607,351.849)"
       id="g272"><path
         id="path274"
         style="fill:none;stroke:#231f20;stroke-width:0.75;stroke-linecap:square;stroke-linejoin:miter;stroke-miterlimit:10;stroke-dasharray:none;stroke-opacity:1"
         d="M 83.25,0 H 0 v -24.75 h 83.25 z" /><g
         id="g276"><path
           id="path278"
           style="fill:none;stroke:#231f20;stroke-width:0.75;stroke-linecap:square;stroke-linejoin:miter;stroke-miterlimit:10;stroke-dasharray:none;stroke-opacity:1"
           d="M 0,0 Z" /></g></g><text
       id="text282"
       style="font-variant:normal;font-weight:normal;font-stretch:normal;font-size:9px;font-family:Times;-inkscape-font-specification:Times-Roman;writing-mode:lr-tb;fill:#231f20;fill-opacity:1;fill-rule:nonzero;stroke:none"
       transform="matrix(1,0,0,-1,28.9697,337.1289)"><tspan
         id="tspan280"
         y="0"
         x="0 3.5009999 8.0010004 12.501 16.497 19.493999 21.996 25.992001 29.988001 32.490002 36.990002 40.491001 44.991001 47.987999 50.895 54.890999 58.887001 62.882999">spherical_surface</tspan></text>
<path
       id="path284"
       style="fill:#ffffff;fill-opacity:1;fill-rule:nonzero;stroke:none"
       d="m 22.138,449.854 h 72 v 15.375 h -72 z" /><g
       transform="translate(29.825,465.229)"
       id="g286"><path
         id="path288"
         style="fill:none;stroke:#231f20;stroke-width:0.75;stroke-linecap:square;stroke-linejoin:miter;stroke-miterlimit:10;stroke-dasharray:none;stroke-opacity:1"
         d="m 0,0 h 56.625 c 4.244,0 7.687,-3.444 7.687,-7.687 0,-4.244 -3.443,-7.688 -7.687,-7.688 H 0 c -4.244,0 -7.687,3.444 -7.687,7.688 C -7.687,-3.444 -4.244,0 0,0 Z" /></g><text
       id="text292"
       style="font-variant:normal;font-weight:normal;font-stretch:normal;font-size:9px;font-family:Times;-inkscape-font-specification:Times-Roman;writing-mode:lr-tb;fill:#231f20;fill-opacity:1;fill-rule:nonzero;stroke:none"
       transform="matrix(1,0,0,-1,38.8779,455.1743)"><tspan
         id="tspan290"
         y="0"
         x="0 4.5 9 11.25 13.5 18 20.25 23.247 27.747 32.247002 35.243999">30, 0 (27)</tspan></text>
<g
       transform="translate(61.913,437.451)"
       id="g294"><path
         id="path296"
         style="fill:#ffffff;fill-opacity:1;fill-rule:nonzero;stroke:none"
         d="M 0,0 C 0,2.07 -1.68,3.75 -3.75,3.75 -5.821,3.75 -7.5,2.07 -7.5,0 c 0,-2.07 1.679,-3.75 3.75,-3.75 C -1.68,-3.75 0,-2.07 0,0" /></g><g
       transform="translate(61.913,437.451)"
       id="g298"><path
         id="path300"
         style="fill:none;stroke:#231f20;stroke-width:0.75;stroke-linecap:square;stroke-linejoin:miter;stroke-miterlimit:10;stroke-dasharray:none;stroke-opacity:1"
         d="M 0,0 C 0,2.07 -1.68,3.75 -3.75,3.75 -5.821,3.75 -7.5,2.07 -7.5,0 c 0,-2.07 1.679,-3.75 3.75,-3.75 C -1.68,-3.75 0,-2.07 0,0" /></g><path
       id="path302"
       style="fill:#ffffff;fill-opacity:1;fill-rule:nonzero;stroke:none"
       d="m 25.232,366.474 h 72 v 15.375 h -72 z" /><g
       transform="translate(32.919,381.849)"
       id="g304"><path
         id="path306"
         style="fill:none;stroke:#231f20;stroke-width:0.75;stroke-linecap:square;stroke-linejoin:miter;stroke-miterlimit:10;stroke-dasharray:none;stroke-opacity:1"
         d="m 0,0 h 56.625 c 4.243,0 7.688,-3.444 7.688,-7.687 0,-4.244 -3.445,-7.688 -7.688,-7.688 H 0 c -4.244,0 -7.687,3.444 -7.687,7.688 C -7.687,-3.444 -4.244,0 0,0 Z" /></g><text
       id="text310"
       style="font-variant:normal;font-weight:normal;font-stretch:normal;font-size:9px;font-family:Times;-inkscape-font-specification:Times-Roman;writing-mode:lr-tb;fill:#231f20;fill-opacity:1;fill-rule:nonzero;stroke:none"
       transform="matrix(1,0,0,-1,41.9707,371.794)"><tspan
         id="tspan308"
         y="0"
         x="0 4.5 9 11.25 13.5 18 20.25 23.247 27.747 32.247002 35.243999">30, 0 (27)</tspan></text>
<g
       transform="translate(64.973,355.551)"
       id="g312"><path
         id="path314"
         style="fill:#ffffff;fill-opacity:1;fill-rule:nonzero;stroke:none"
         d="M 0,0 C 0,2.07 -1.68,3.75 -3.75,3.75 -5.82,3.75 -7.5,2.07 -7.5,0 c 0,-2.069 1.68,-3.75 3.75,-3.75 C -1.68,-3.75 0,-2.069 0,0" /></g><g
       transform="translate(64.973,355.551)"
       id="g316"><path
         id="path318"
         style="fill:none;stroke:#231f20;stroke-width:0.75;stroke-linecap:square;stroke-linejoin:miter;stroke-miterlimit:10;stroke-dasharray:none;stroke-opacity:1"
         d="M 0,0 C 0,2.07 -1.68,3.75 -3.75,3.75 -5.82,3.75 -7.5,2.07 -7.5,0 c 0,-2.069 1.68,-3.75 3.75,-3.75 C -1.68,-3.75 0,-2.069 0,0" /></g><path
       id="path320"
       style="fill:#ffffff;fill-opacity:1;fill-rule:nonzero;stroke:none"
       d="m 27,298.281 h 72 v 15.375 H 27 Z" /><g
       transform="translate(34.688,313.656)"
       id="g322"><path
         id="path324"
         style="fill:none;stroke:#231f20;stroke-width:0.75;stroke-linecap:square;stroke-linejoin:miter;stroke-miterlimit:10;stroke-dasharray:none;stroke-opacity:1"
         d="m 0,0 h 56.625 c 4.244,0 7.688,-3.443 7.688,-7.687 0,-4.244 -3.444,-7.688 -7.688,-7.688 H 0 c -4.243,0 -7.687,3.444 -7.687,7.688 C -7.687,-3.443 -4.243,0 0,0 Z" /></g><text
       id="text328"
       style="font-variant:normal;font-weight:normal;font-stretch:normal;font-size:9px;font-family:Times;-inkscape-font-specification:Times-Roman;writing-mode:lr-tb;fill:#231f20;fill-opacity:1;fill-rule:nonzero;stroke:none"
       transform="matrix(1,0,0,-1,43.7402,303.6021)"><tspan
         id="tspan326"
         y="0"
         x="0 4.5 9 11.25 13.5 18 20.25 23.247 27.747 32.247002 35.243999">30, 0 (27)</tspan></text>
<g
       transform="translate(66.052,286.611)"
       id="g330"><path
         id="path332"
         style="fill:#ffffff;fill-opacity:1;fill-rule:nonzero;stroke:none"
         d="M 0,0 C 0,2.07 -1.68,3.75 -3.75,3.75 -5.82,3.75 -7.5,2.07 -7.5,0 c 0,-2.07 1.68,-3.75 3.75,-3.75 C -1.68,-3.75 0,-2.07 0,0" /></g><g
       transform="translate(66.052,286.611)"
       id="g334"><path
         id="path336"
         style="fill:none;stroke:#231f20;stroke-width:0.75;stroke-linecap:square;stroke-linejoin:miter;stroke-miterlimit:10;stroke-dasharray:none;stroke-opacity:1"
         d="M 0,0 C 0,2.07 -1.68,3.75 -3.75,3.75 -5.82,3.75 -7.5,2.07 -7.5,0 c 0,-2.07 1.68,-3.75 3.75,-3.75 C -1.68,-3.75 0,-2.07 0,0" /></g><path
       id="path338"
       style="fill:#ffffff;fill-opacity:1;fill-rule:nonzero;stroke:none"
       d="m 142.428,0.375 h 100.5 v 39 h -100.5 z" /><path
       id="path340"
       style="fill:none;stroke:#231f20;stroke-width:0.75;stroke-linecap:square;stroke-linejoin:miter;stroke-miterlimit:10;stroke-dasharray:3.75, 3.75;stroke-dashoffset:0;stroke-opacity:1"
       d="m 142.428,39.375 v -39 h 100.5 v 39 z m 7.5,-39 v 39" /><text
       id="text344"
       style="font-variant:normal;font-weight:normal;font-stretch:normal;font-size:9px;font-family:Times;-inkscape-font-specification:Times-Roman;writing-mode:lr-tb;fill:#231f20;fill-opacity:1;fill-rule:nonzero;stroke:none"
       transform="matrix(1,0,0,-1,158.9121,17.6348)"><tspan
         id="tspan342"
         y="0"
         x="0 4.5 8.4960003 12.996 19.997999 23.993999 26.496 29.493 31.995001 35.991001 40.491001 43.992001 47.987999 50.490002 54.990002 58.491001 62.487 64.988998 68.985001 72.981003 75.483002">geometric_set_select</tspan></text>
<path
       id="path346"
       style="fill:#ffffff;fill-opacity:1;fill-rule:nonzero;stroke:none"
       d="m 40.428,24 h 74.25 v 15.375 h -74.25 z" /><g
       transform="translate(48.115,39.375)"
       id="g348"><path
         id="path350"
         style="fill:none;stroke:#231f20;stroke-width:0.75;stroke-linecap:square;stroke-linejoin:miter;stroke-miterlimit:10;stroke-dasharray:none;stroke-opacity:1"
         d="m 0,0 h 58.875 c 4.244,0 7.688,-3.443 7.688,-7.687 0,-4.244 -3.444,-7.688 -7.688,-7.688 H 0 c -4.244,0 -7.687,3.444 -7.687,7.688 C -7.687,-3.443 -4.244,0 0,0 Z" /></g><text
       id="text354"
       style="font-variant:normal;font-weight:normal;font-stretch:normal;font-size:9px;font-family:Times;-inkscape-font-specification:Times-Roman;writing-mode:lr-tb;fill:#231f20;fill-opacity:1;fill-rule:nonzero;stroke:none"
       transform="matrix(1,0,0,-1,50.2832,29.3887)"><tspan
         id="tspan352"
         y="0"
         x="0 4.5 9 11.25 13.5 18 22.5 27 29.25 31.5 36 40.5 43.001999 47.501999 50.004002">24, 129, point</tspan></text>
<path
       id="path356"
       style="fill:#ffffff;fill-opacity:1;fill-rule:nonzero;stroke:none"
       d="m 40.428,0.375 h 79.5 V 15.75 h -79.5 z" /><g
       transform="translate(48.115,15.75)"
       id="g358"><path
         id="path360"
         style="fill:none;stroke:#231f20;stroke-width:0.75;stroke-linecap:square;stroke-linejoin:miter;stroke-miterlimit:10;stroke-dasharray:none;stroke-opacity:1"
         d="m 0,0 h 64.125 c 4.244,0 7.688,-3.443 7.688,-7.6875 0,-4.2435 -3.444,-7.6875 -7.688,-7.6875 H 0 c -4.244,0 -7.687,3.444 -7.687,7.6875 C -7.687,-3.443 -4.244,0 0,0 Z" /></g><text
       id="text364"
       style="font-variant:normal;font-weight:normal;font-stretch:normal;font-size:9px;font-family:Times;-inkscape-font-specification:Times-Roman;writing-mode:lr-tb;fill:#231f20;fill-opacity:1;fill-rule:nonzero;stroke:none"
       transform="matrix(1,0,0,-1,50.4107,5.4483)"><tspan
         id="tspan362"
         y="0"
         x="0 4.5 9 11.25 13.5 18 22.5 24.75 27 30.500999 35.000999 37.998001 40.904999 44.901001 48.896999 52.893002">27, 77, surface</tspan></text>
<path
       id="path366"
       style="fill:#ffffff;fill-opacity:1;fill-rule:nonzero;stroke:none"
       d="m 265.428,24 h 72.75 v 15.375 h -72.75 z" /><g
       transform="translate(273.115,39.375)"
       id="g368"><path
         id="path370"
         style="fill:none;stroke:#231f20;stroke-width:0.75;stroke-linecap:square;stroke-linejoin:miter;stroke-miterlimit:10;stroke-dasharray:none;stroke-opacity:1"
         d="m 0,0 h 57.375 c 4.244,0 7.688,-3.443 7.688,-7.687 0,-4.244 -3.444,-7.688 -7.688,-7.688 H 0 c -4.244,0 -7.687,3.444 -7.687,7.688 C -7.687,-3.443 -4.244,0 0,0 Z" /></g><text
       id="text374"
       style="font-variant:normal;font-weight:normal;font-stretch:normal;font-size:9px;font-family:Times;-inkscape-font-specification:Times-Roman;writing-mode:lr-tb;fill:#231f20;fill-opacity:1;fill-rule:nonzero;stroke:none"
       transform="matrix(1,0,0,-1,275.7881,29.1856)"><tspan
         id="tspan372"
         y="0"
         x="0 4.5 9 11.25 13.5 18 22.5 24.75 27 30.996 35.495998 38.493 42.858002 46.854">32, 80, curve</tspan></text>
<g
       transform="translate(62.273,92.121)"
       id="g376"><path
         id="path378"
         style="fill:#ffffff;fill-opacity:1;fill-rule:nonzero;stroke:none"
         d="M 0,0 C 0,2.07 -1.681,3.75 -3.75,3.75 -5.82,3.75 -7.5,2.07 -7.5,0 c 0,-2.07 1.68,-3.75 3.75,-3.75 C -1.681,-3.75 0,-2.07 0,0" /></g><g
       transform="translate(62.273,92.121)"
       id="g380"><path
         id="path382"
         style="fill:none;stroke:#231f20;stroke-width:0.75;stroke-linecap:square;stroke-linejoin:miter;stroke-miterlimit:10;stroke-dasharray:none;stroke-opacity:1"
         d="M 0,0 C 0,2.07 -1.681,3.75 -3.75,3.75 -5.82,3.75 -7.5,2.07 -7.5,0 c 0,-2.07 1.68,-3.75 3.75,-3.75 C -1.681,-3.75 0,-2.07 0,0" /></g><text
       id="text386"
       style="font-variant:normal;font-weight:normal;font-stretch:normal;font-size:9px;font-family:Times;-inkscape-font-specification:Times-Roman;writing-mode:lr-tb;fill:#231f20;fill-opacity:1;fill-rule:nonzero;stroke:none"
       transform="matrix(1,0,0,-1,103.4277,113.1416)"><tspan
         id="tspan384"
         y="0"
         x="0 3.9960001 6.4980001 10.494 17.496 21.492001 25.992001 28.493999 31.995001 34.244999 39.249001 42.245998 46.745998 49.248001 53.243999 56.241001">elements S[1:?]</tspan></text>
<g
       transform="translate(196.372,43.071)"
       id="g388"><path
         id="path390"
         style="fill:#ffffff;fill-opacity:1;fill-rule:nonzero;stroke:none"
         d="M 0,0 C 0,2.069 -1.681,3.75 -3.75,3.75 -5.819,3.75 -7.5,2.069 -7.5,0 c 0,-2.069 1.681,-3.75 3.75,-3.75 C -1.681,-3.75 0,-2.069 0,0" /></g><g
       transform="translate(196.372,43.071)"
       id="g392"><path
         id="path394"
         style="fill:none;stroke:#231f20;stroke-width:0.75;stroke-linecap:square;stroke-linejoin:miter;stroke-miterlimit:10;stroke-dasharray:none;stroke-opacity:1"
         d="M 0,0 C 0,2.069 -1.681,3.75 -3.75,3.75 -5.819,3.75 -7.5,2.069 -7.5,0 c 0,-2.069 1.681,-3.75 3.75,-3.75 C -1.681,-3.75 0,-2.069 0,0" /></g></g></svg>