<?xml version="1.0" encoding="UTF-8" standalone="no"?>
<svg
   xmlns:dc="http://purl.org/dc/elements/1.1/"
   xmlns:cc="http://creativecommons.org/ns#"
   xmlns:rdf="http://www.w3.org/1999/02/22-rdf-syntax-ns#"
   xmlns:svg="http://www.w3.org/2000/svg"
   xmlns="http://www.w3.org/2000/svg"
   viewBox="0 0 452.54001 535.5"
   height="535.5"
   width="452.54001"
   xml:space="preserve"
   id="svg2"
   version="1.1"><metadata
     id="metadata8"><rdf:RDF><cc:Work
         rdf:about=""><dc:format>image/svg+xml</dc:format><dc:type
           rdf:resource="http://purl.org/dc/dcmitype/StillImage" /></cc:Work></rdf:RDF></metadata><defs
     id="defs6" /><g
     transform="matrix(1.3333333,0,0,-1.3333333,0,535.5)"
     id="g10"><g
       transform="translate(10.875,209.813)"
       id="g12"><path
         id="path14"
         style="fill:none;stroke:#231f20;stroke-width:2.25;stroke-linecap:square;stroke-linejoin:miter;stroke-miterlimit:10;stroke-dasharray:none;stroke-opacity:1"
         d="M 0,0 V -172.312" /><g
         transform="translate(0,-201.638)"
         id="g16"><path
           id="path18"
           style="fill:none;stroke:#231f20;stroke-width:2.25;stroke-linecap:square;stroke-linejoin:miter;stroke-miterlimit:10;stroke-dasharray:none;stroke-opacity:1"
           d="M 0,0 V 29.325" /><g
           transform="translate(0,20.25)"
           id="g20"><path
             id="path22"
             style="fill:none;stroke:#231f20;stroke-width:2.25;stroke-linecap:square;stroke-linejoin:miter;stroke-miterlimit:10;stroke-dasharray:none;stroke-opacity:1"
             d="M 0,0 V 9.075" /><g
             transform="translate(0,-20.25)"
             id="g24"><path
               id="path26"
               style="fill:none;stroke:#231f20;stroke-width:2.25;stroke-linecap:square;stroke-linejoin:miter;stroke-miterlimit:10;stroke-dasharray:none;stroke-opacity:1"
               d="M 0,0 H 22.5" /><g
               transform="translate(0,20.25)"
               id="g28"><path
                 id="path30"
                 style="fill:none;stroke:#231f20;stroke-width:2.25;stroke-linecap:square;stroke-linejoin:miter;stroke-miterlimit:10;stroke-dasharray:none;stroke-opacity:1"
                 d="M 0,0 H 22.5" /></g></g></g></g></g><g
       transform="translate(199.875,8.9248)"
       id="g32"><path
         id="path34"
         style="fill:none;stroke:#231f20;stroke-width:0.75;stroke-linecap:square;stroke-linejoin:miter;stroke-miterlimit:10;stroke-dasharray:none;stroke-opacity:1"
         d="M 0,0 H -36.75" /><g
         transform="translate(-154.5,385.478)"
         id="g36"><path
           id="path38"
           style="fill:none;stroke:#231f20;stroke-width:0.75;stroke-linecap:square;stroke-linejoin:miter;stroke-miterlimit:10;stroke-dasharray:none;stroke-opacity:1"
           d="M 0,0 V -14.153" /><g
           transform="translate(111.75,-29.34)"
           id="g40"><path
             id="path42"
             style="fill:none;stroke:#231f20;stroke-width:0.75;stroke-linecap:square;stroke-linejoin:miter;stroke-miterlimit:10;stroke-dasharray:none;stroke-opacity:1"
             d="M 0,0 H -66.75" /></g></g></g><path
       id="path44"
       style="fill:none;stroke:#231f20;stroke-width:0.75;stroke-linecap:square;stroke-linejoin:miter;stroke-miterlimit:10;stroke-dasharray:3.75, 3.75;stroke-dashoffset:0;stroke-opacity:1"
       d="m 162.375,341.438 h -72" /><g
       transform="translate(115.125,317.813)"
       id="g46"><path
         id="path48"
         style="fill:none;stroke:#231f20;stroke-width:0.75;stroke-linecap:square;stroke-linejoin:miter;stroke-miterlimit:10;stroke-dasharray:none;stroke-opacity:1"
         d="M 0,0 H -24.75" /></g><g
       transform="translate(10.863,209.813)"
       id="g50"><path
         id="path52"
         style="fill:none;stroke:#231f20;stroke-width:2.25;stroke-linecap:square;stroke-linejoin:miter;stroke-miterlimit:10;stroke-dasharray:none;stroke-opacity:1"
         d="M 0,0 V 100.313" /></g><g
       transform="translate(97.211,275.924)"
       id="g54"><path
         id="path56"
         style="fill:none;stroke:#231f20;stroke-width:0.75;stroke-linecap:square;stroke-linejoin:miter;stroke-miterlimit:10;stroke-dasharray:none;stroke-opacity:1"
         d="M 0,0 H 33.664" /><g
         transform="translate(17.914,41.888)"
         id="g58"><path
           id="path60"
           style="fill:none;stroke:#231f20;stroke-width:0.75;stroke-linecap:square;stroke-linejoin:miter;stroke-miterlimit:10;stroke-dasharray:none;stroke-opacity:1"
           d="M 0,0 H 24.75" /><g
           transform="translate(-53.625,76.59)"
           id="g62"><path
             id="path64"
             style="fill:none;stroke:#231f20;stroke-width:0.75;stroke-linecap:square;stroke-linejoin:miter;stroke-miterlimit:10;stroke-dasharray:none;stroke-opacity:1"
             d="M 0,0 H -16.125" /><g
             transform="translate(53.625,-76.59)"
             id="g66"><path
               id="path68"
               style="fill:none;stroke:#231f20;stroke-width:0.75;stroke-linecap:square;stroke-linejoin:miter;stroke-miterlimit:10;stroke-dasharray:none;stroke-opacity:1"
               d="M 0,0 V 0" /></g></g></g></g><g
       transform="translate(10.875,209.813)"
       id="g70"><path
         id="path72"
         style="fill:none;stroke:#231f20;stroke-width:2.25;stroke-linecap:square;stroke-linejoin:miter;stroke-miterlimit:10;stroke-dasharray:none;stroke-opacity:1"
         d="M 0,0 H -0.012" /></g><g
       transform="translate(162.53,98.809)"
       id="g74"><path
         id="path76"
         style="fill:none;stroke:#231f20;stroke-width:0.75;stroke-linecap:square;stroke-linejoin:miter;stroke-miterlimit:10;stroke-dasharray:none;stroke-opacity:1"
         d="M 0,0 H 66.751" /><g
         transform="translate(0,-23.625)"
         id="g78"><path
           id="path80"
           style="fill:none;stroke:#231f20;stroke-width:0.75;stroke-linecap:square;stroke-linejoin:miter;stroke-miterlimit:10;stroke-dasharray:none;stroke-opacity:1"
           d="M 0,0 H 22.501" /><g
           transform="translate(0,118.751)"
           id="g82"><path
             id="path84"
             style="fill:none;stroke:#231f20;stroke-width:0.75;stroke-linecap:square;stroke-linejoin:miter;stroke-miterlimit:10;stroke-dasharray:none;stroke-opacity:1"
             d="M 0,0 H -28.5" /><g
             transform="translate(-28.5,-23.625)"
             id="g86"><path
               id="path88"
               style="fill:none;stroke:#231f20;stroke-width:0.75;stroke-linecap:square;stroke-linejoin:miter;stroke-miterlimit:10;stroke-dasharray:none;stroke-opacity:1"
               d="M 0,0 H 22.5" /><g
               transform="translate(66.751,-23.625)"
               id="g90"><path
                 id="path92"
                 style="fill:none;stroke:#231f20;stroke-width:0.75;stroke-linecap:square;stroke-linejoin:miter;stroke-miterlimit:10;stroke-dasharray:none;stroke-opacity:1"
                 d="M 0,0 H -66.751" /><g
                 transform="translate(-103.569,129.24)"
                 id="g94"><path
                   id="path96"
                   style="fill:none;stroke:#231f20;stroke-width:0.75;stroke-linecap:square;stroke-linejoin:miter;stroke-miterlimit:10;stroke-dasharray:none;stroke-opacity:1"
                   d="M 0,0 V -5.362" /><g
                   transform="translate(49.666,-20.549)"
                   id="g98"><path
                     id="path100"
                     style="fill:none;stroke:#231f20;stroke-width:0.75;stroke-linecap:square;stroke-linejoin:miter;stroke-miterlimit:10;stroke-dasharray:none;stroke-opacity:1"
                     d="M 0,0 V 0" /><g
                     transform="translate(11.25)"
                     id="g102"><path
                       id="path104"
                       style="fill:none;stroke:#231f20;stroke-width:0.75;stroke-linecap:square;stroke-linejoin:miter;stroke-miterlimit:10;stroke-dasharray:none;stroke-opacity:1"
                       d="M 0,0 H -11.25 -22.5" /><g
                       transform="translate(-117.869,-141.379)"
                       id="g106"><path
                         id="path108"
                         style="fill:none;stroke:#231f20;stroke-width:0.75;stroke-linecap:square;stroke-linejoin:miter;stroke-miterlimit:10;stroke-dasharray:none;stroke-opacity:1"
                         d="M 0,0 -0.728,124.316" /><g
                         transform="translate(24.022,95.126)"
                         id="g110"><path
                           id="path112"
                           style="fill:none;stroke:#231f20;stroke-width:0.75;stroke-linecap:square;stroke-linejoin:miter;stroke-miterlimit:10;stroke-dasharray:none;stroke-opacity:1"
                           d="M 0,0 V 29.19" /><g
                           transform="translate(29.625)"
                           id="g114"><path
                             id="path116"
                             style="fill:none;stroke:#231f20;stroke-width:0.75;stroke-linecap:square;stroke-linejoin:miter;stroke-miterlimit:10;stroke-dasharray:none;stroke-opacity:1"
                             d="M 0,0 V 14.374 H 44.625" /><g
                             transform="translate(15.375,-95.126)"
                             id="g118"><path
                               id="path120"
                               style="fill:none;stroke:#231f20;stroke-width:0.75;stroke-linecap:square;stroke-linejoin:miter;stroke-miterlimit:10;stroke-dasharray:none;stroke-opacity:1"
                               d="M 0,0 V 6.75 H 27.97" /><g
                               transform="translate(-63,156.566)"
                               id="g122"><path
                                 id="path124"
                                 style="fill:none;stroke:#231f20;stroke-width:0.75;stroke-linecap:square;stroke-linejoin:miter;stroke-miterlimit:10;stroke-dasharray:none;stroke-opacity:1"
                                 d="M 0,0 V 39.563" /></g></g></g></g></g></g></g></g></g></g></g></g></g><path
       id="path126"
       style="fill:#ffffff;fill-opacity:1;fill-rule:nonzero;stroke:none"
       d="m 157.125,357.375 h 78.75 v 15.375 h -78.75 z" /><g
       transform="translate(164.812,372.75)"
       id="g128"><path
         id="path130"
         style="fill:none;stroke:#231f20;stroke-width:0.75;stroke-linecap:square;stroke-linejoin:miter;stroke-miterlimit:10;stroke-dasharray:none;stroke-opacity:1"
         d="m 0,0 h 63.375 c 4.243,0 7.688,-3.444 7.688,-7.687 0,-4.244 -3.445,-7.688 -7.688,-7.688 H 0 c -4.244,0 -7.687,3.444 -7.687,7.688 C -7.687,-3.444 -4.244,0 0,0 Z" /></g><text
       id="text134"
       style="font-variant:normal;font-weight:normal;font-stretch:normal;font-size:9px;font-family:Times;-inkscape-font-specification:Times-Roman;writing-mode:lr-tb;fill:#231f20;fill-opacity:1;fill-rule:nonzero;stroke:none"
       transform="matrix(1,0,0,-1,171.9839,362.4932)"><tspan
         id="tspan132"
         y="0"
         x="0 4.5 9 11.25 13.5 18 22.5 24.75 27 29.502001 33.498001 37.998001 41.993999 44.495998">65, 33, label</tspan></text>
<path
       id="path136"
       style="fill:#ffffff;fill-opacity:1;fill-rule:nonzero;stroke:none"
       d="m 162.375,333.75 h 73.5 v 15.375 h -73.5 z" /><g
       transform="translate(170.062,349.125)"
       id="g138"><path
         id="path140"
         style="fill:none;stroke:#231f20;stroke-width:0.75;stroke-linecap:square;stroke-linejoin:miter;stroke-miterlimit:10;stroke-dasharray:none;stroke-opacity:1"
         d="m 0,0 h 58.125 c 4.243,0 7.688,-3.444 7.688,-7.687 0,-4.244 -3.445,-7.688 -7.688,-7.688 H 0 c -4.244,0 -7.687,3.444 -7.687,7.688 C -7.687,-3.444 -4.244,0 0,0 Z" /></g><text
       id="text144"
       style="font-variant:normal;font-weight:normal;font-stretch:normal;font-size:9px;font-family:Times;-inkscape-font-specification:Times-Roman;writing-mode:lr-tb;fill:#231f20;fill-opacity:1;fill-rule:nonzero;stroke:none"
       transform="matrix(1,0,0,-1,176.8594,338.9356)"><tspan
         id="tspan142"
         y="0"
         x="0 4.5 9 11.25 13.5 18 22.5 24.75 27 29.502001 33.362999 37.862999 40.365002">65, 34, text</tspan></text>
<path
       id="path146"
       style="fill:#ffffff;fill-opacity:1;fill-rule:nonzero;stroke:none"
       d="m 139.875,310.125 h 96 V 325.5 h -96 z" /><g
       transform="translate(147.562,325.5)"
       id="g148"><path
         id="path150"
         style="fill:none;stroke:#231f20;stroke-width:0.75;stroke-linecap:square;stroke-linejoin:miter;stroke-miterlimit:10;stroke-dasharray:none;stroke-opacity:1"
         d="m 0,0 h 80.625 c 4.243,0 7.688,-3.444 7.688,-7.687 0,-4.244 -3.445,-7.688 -7.688,-7.688 H 0 c -4.244,0 -7.687,3.444 -7.687,7.688 C -7.687,-3.444 -4.244,0 0,0 Z" /></g><text
       id="text154"
       style="font-variant:normal;font-weight:normal;font-stretch:normal;font-size:9px;font-family:Times;-inkscape-font-specification:Times-Roman;writing-mode:lr-tb;fill:#231f20;fill-opacity:1;fill-rule:nonzero;stroke:none"
       transform="matrix(1,0,0,-1,155.8575,315.1978)"><tspan
         id="tspan152"
         y="0"
         x="0 4.5 9 11.25 13.5 18 22.5 24.75 27 29.502001 34.001999 37.998001 42.498001 45 47.501999 50.319 52.820999 56.817001 59.813999">65, 32, identifier</tspan></text>
<path
       id="path156"
       style="fill:#ffffff;fill-opacity:1;fill-rule:nonzero;stroke:none"
       d="M 137.25,112.875 H 217.5 V 128.25 H 137.25 Z" /><g
       transform="translate(144.937,128.25)"
       id="g158"><path
         id="path160"
         style="fill:none;stroke:#231f20;stroke-width:0.75;stroke-linecap:square;stroke-linejoin:miter;stroke-miterlimit:10;stroke-dasharray:none;stroke-opacity:1"
         d="m 0,0 h 64.875 c 4.243,0 7.688,-3.444 7.688,-7.687 0,-4.244 -3.445,-7.688 -7.688,-7.688 H 0 c -4.244,0 -7.687,3.444 -7.687,7.688 C -7.687,-3.444 -4.244,0 0,0 Z" /></g><text
       id="text164"
       style="font-variant:normal;font-weight:normal;font-stretch:normal;font-size:9px;font-family:Times;-inkscape-font-specification:Times-Roman;writing-mode:lr-tb;fill:#231f20;fill-opacity:1;fill-rule:nonzero;stroke:none"
       transform="matrix(1,0,0,-1,158.1153,118.1963)"><tspan
         id="tspan162"
         y="0"
         x="0 4.5 9 11.25 13.5 18 22.5 24.75 27.747 32.247002 35.243999">14, 51 (5)</tspan></text>
<path
       id="path166"
       style="fill:#ffffff;fill-opacity:1;fill-rule:nonzero;stroke:none"
       d="m 130.875,268.313 h 80.25 v 15.375 h -80.25 z" /><g
       transform="translate(138.562,283.688)"
       id="g168"><path
         id="path170"
         style="fill:none;stroke:#231f20;stroke-width:0.75;stroke-linecap:square;stroke-linejoin:miter;stroke-miterlimit:10;stroke-dasharray:none;stroke-opacity:1"
         d="m 0,0 h 64.875 c 4.243,0 7.688,-3.444 7.688,-7.687 0,-4.244 -3.445,-7.688 -7.688,-7.688 H 0 c -4.244,0 -7.687,3.444 -7.687,7.688 C -7.687,-3.444 -4.244,0 0,0 Z" /></g><text
       id="text174"
       style="font-variant:normal;font-weight:normal;font-stretch:normal;font-size:9px;font-family:Times;-inkscape-font-specification:Times-Roman;writing-mode:lr-tb;fill:#231f20;fill-opacity:1;fill-rule:nonzero;stroke:none"
       transform="matrix(1,0,0,-1,149.2383,273.6328)"><tspan
         id="tspan172"
         y="0"
         x="0 4.5 9 11.25 13.5 18 22.5 24.75 27.747 32.247002 36.747002 39.743999">14, 52 (15)</tspan></text>
<path
       id="path176"
       style="fill:#ffffff;fill-opacity:1;fill-rule:nonzero;stroke:none"
       d="M 61.5,385.875 H 182.25 V 401.25 H 61.5 Z" /><g
       transform="translate(69.187,401.25)"
       id="g178"><path
         id="path180"
         style="fill:none;stroke:#231f20;stroke-width:0.75;stroke-linecap:square;stroke-linejoin:miter;stroke-miterlimit:10;stroke-dasharray:none;stroke-opacity:1"
         d="m 0,0 h 105.375 c 4.243,0 7.687,-3.444 7.687,-7.687 0,-4.244 -3.444,-7.688 -7.687,-7.688 H 0 c -4.244,0 -7.687,3.444 -7.687,7.688 C -7.687,-3.444 -4.244,0 0,0 Z" /></g><text
       id="text186"
       style="font-variant:normal;font-weight:normal;font-stretch:normal;font-size:9px;font-family:Times;-inkscape-font-specification:Times-Roman;writing-mode:lr-tb;fill:#231f20;fill-opacity:1;fill-rule:nonzero;stroke:none"
       transform="matrix(1,0,0,-1,72.5909,391.1953)"><tspan
         id="tspan182"
         y="0"
         x="0 4.5 9 11.25 13.5 18 22.5 24.75 27.747 32.247002 36.747002 38.997002 41.247002 45.747002 50.247002 52.497002 54.747002 59.247002 63.747002 65.997002 68.247002 72.747002 77.247002 79.497002 81.747002 86.247002 89.244003">14, 58 (15, 17, 59, 63, 5)</tspan><tspan
         id="tspan184"
         y="60.742802"
         x="25.283701 29.783701 33.779701 37.280701 41.276699 44.273701 46.7757 51.2757 53.777699 56.279701 60.779701 65.279701">description</tspan></text>
<g
       transform="translate(40.896,8.1641)"
       id="g188"><path
         id="path190"
         style="fill:#ffffff;fill-opacity:1;fill-rule:nonzero;stroke:none"
         d="M 0,0 C 0,2.069 -1.68,3.75 -3.75,3.75 -5.82,3.75 -7.5,2.069 -7.5,0 c 0,-2.0694 1.68,-3.75 3.75,-3.75 C -1.68,-3.75 0,-2.0694 0,0" /></g><g
       transform="translate(40.896,8.1641)"
       id="g192"><path
         id="path194"
         style="fill:none;stroke:#231f20;stroke-width:0.75;stroke-linecap:square;stroke-linejoin:miter;stroke-miterlimit:10;stroke-dasharray:none;stroke-opacity:1"
         d="M 0,0 C 0,2.069 -1.68,3.75 -3.75,3.75 -5.82,3.75 -7.5,2.069 -7.5,0 c 0,-2.0694 1.68,-3.75 3.75,-3.75 C -1.68,-3.75 0,-2.0694 0,0" /></g><g
       transform="translate(40.896,28.414)"
       id="g196"><path
         id="path198"
         style="fill:#ffffff;fill-opacity:1;fill-rule:nonzero;stroke:none"
         d="M 0,0 C 0,2.069 -1.68,3.75 -3.75,3.75 -5.82,3.75 -7.5,2.069 -7.5,0 c 0,-2.069 1.68,-3.75 3.75,-3.75 C -1.68,-3.75 0,-2.069 0,0" /></g><g
       transform="translate(40.896,28.414)"
       id="g200"><path
         id="path202"
         style="fill:none;stroke:#231f20;stroke-width:0.75;stroke-linecap:square;stroke-linejoin:miter;stroke-miterlimit:10;stroke-dasharray:none;stroke-opacity:1"
         d="M 0,0 C 0,2.069 -1.68,3.75 -3.75,3.75 -5.82,3.75 -7.5,2.069 -7.5,0 c 0,-2.069 1.68,-3.75 3.75,-3.75 C -1.68,-3.75 0,-2.069 0,0" /></g><g
       transform="translate(163.115,8.8838)"
       id="g204"><path
         id="path206"
         style="fill:#ffffff;fill-opacity:1;fill-rule:nonzero;stroke:none"
         d="M 0,0 C 0,2.07 -1.68,3.75 -3.75,3.75 -5.82,3.75 -7.5,2.07 -7.5,0 c 0,-2.0693 1.68,-3.75 3.75,-3.75 C -1.68,-3.75 0,-2.0693 0,0" /></g><g
       transform="translate(163.115,8.8838)"
       id="g208"><path
         id="path210"
         style="fill:none;stroke:#231f20;stroke-width:0.75;stroke-linecap:square;stroke-linejoin:miter;stroke-miterlimit:10;stroke-dasharray:none;stroke-opacity:1"
         d="M 0,0 C 0,2.07 -1.68,3.75 -3.75,3.75 -5.82,3.75 -7.5,2.07 -7.5,0 c 0,-2.0693 1.68,-3.75 3.75,-3.75 C -1.68,-3.75 0,-2.0693 0,0" /></g><g
       transform="translate(49.175,376.444)"
       id="g212"><path
         id="path214"
         style="fill:#ffffff;fill-opacity:1;fill-rule:nonzero;stroke:none"
         d="M 0,0 C 0,2.07 -1.68,3.75 -3.75,3.75 -5.82,3.75 -7.5,2.07 -7.5,0 c 0,-2.07 1.68,-3.75 3.75,-3.75 C -1.68,-3.75 0,-2.07 0,0" /></g><g
       transform="translate(49.175,376.444)"
       id="g216"><path
         id="path218"
         style="fill:none;stroke:#231f20;stroke-width:0.75;stroke-linecap:square;stroke-linejoin:miter;stroke-miterlimit:10;stroke-dasharray:none;stroke-opacity:1"
         d="M 0,0 C 0,2.07 -1.68,3.75 -3.75,3.75 -5.82,3.75 -7.5,2.07 -7.5,0 c 0,-2.07 1.68,-3.75 3.75,-3.75 C -1.68,-3.75 0,-2.07 0,0" /></g><text
       id="text224"
       style="font-variant:normal;font-weight:normal;font-stretch:normal;font-size:9px;font-family:Times;-inkscape-font-specification:Times-Roman;writing-mode:lr-tb;fill:#231f20;fill-opacity:1;fill-rule:nonzero;stroke:none"
       transform="matrix(1,0,0,-1,97.875,356.8311)"><tspan
         id="tspan220"
         y="0"
         x="0 4.5 8.4960003 15.498 19.493999">name</tspan><tspan
         id="tspan222"
         y="50.233501"
         x="0 2.997 9.4949999 14.994 20.997 23.993999 26.496 30.996">(DER)id</tspan></text>
<path
       id="path226"
       style="fill:#ffffff;fill-opacity:1;fill-rule:nonzero;stroke:none"
       d="m 40.875,0.37502 h 114.75 v 15.375 H 40.875 Z" /><g
       transform="translate(40.875,15.75)"
       id="g228"><path
         id="path230"
         style="fill:none;stroke:#231f20;stroke-width:0.75;stroke-linecap:square;stroke-linejoin:miter;stroke-miterlimit:10;stroke-dasharray:none;stroke-opacity:1"
         d="M 114.75,0 H 0 v -15.375 h 114.75 z" /><g
         id="g232"><path
           id="path234"
           style="fill:none;stroke:#231f20;stroke-width:0.75;stroke-linecap:square;stroke-linejoin:miter;stroke-miterlimit:10;stroke-dasharray:none;stroke-opacity:1"
           d="M 0,0 Z" /></g></g><text
       id="text238"
       style="font-variant:normal;font-weight:normal;font-stretch:normal;font-size:9px;font-family:Times;-inkscape-font-specification:Times-Roman;writing-mode:lr-tb;fill:#231f20;fill-opacity:1;fill-rule:nonzero;stroke:none"
       transform="matrix(1,0,0,-1,50.9717,5.7178)"><tspan
         id="tspan236"
         y="0"
         x="0 4.5 7.4970002 11.997 16.497 20.997 24.993 27.495001 31.995001 36.494999 40.491001 43.307999 45.810001 50.310001 52.812 55.313999 57.816002 62.316002 66.816002 71.316002 74.817001 79.317001 83.313004 87.813004 91.808998">product_definition_shape</tspan></text>
<path
       id="path240"
       style="fill:#ffffff;fill-opacity:1;fill-rule:nonzero;stroke:none"
       d="m 0.37498,310.125 h 90 v 62.625 h -90 z" /><g
       transform="translate(0.37498,372.75)"
       id="g242"><path
         id="path244"
         style="fill:none;stroke:#231f20;stroke-width:0.75;stroke-linecap:square;stroke-linejoin:miter;stroke-miterlimit:10;stroke-dasharray:none;stroke-opacity:1"
         d="M 90,0 H 0 v -62.625 h 90 z" /><g
         id="g246"><path
           id="path248"
           style="fill:none;stroke:#231f20;stroke-width:0.75;stroke-linecap:square;stroke-linejoin:miter;stroke-miterlimit:10;stroke-dasharray:none;stroke-opacity:1"
           d="M 0,0 Z" /></g></g><text
       id="text252"
       style="font-variant:normal;font-weight:normal;font-stretch:normal;font-size:9px;font-family:Times;-inkscape-font-specification:Times-Roman;writing-mode:lr-tb;fill:#231f20;fill-opacity:1;fill-rule:nonzero;stroke:none"
       transform="matrix(1,0,0,-1,10.3584,339.124)"><tspan
         id="tspan250"
         y="0"
         x="0 4.5 7.4970002 11.997 16.497 20.493 23.49 25.992001 30.492001 34.992001 39.492001 43.487999 46.305 48.806999 53.306999 55.808998 58.311001 60.813 65.313004 69.813004">property_definition</tspan></text>
<path
       id="path254"
       style="fill:#ffffff;fill-opacity:1;fill-rule:nonzero;stroke:none"
       d="m 40.875,20.625 h 84.75 V 36 h -84.75 z" /><g
       transform="translate(40.875,36)"
       id="g256"><path
         id="path258"
         style="fill:none;stroke:#231f20;stroke-width:0.75;stroke-linecap:square;stroke-linejoin:miter;stroke-miterlimit:10;stroke-dasharray:none;stroke-opacity:1"
         d="M 84.75,0 H 0 v -15.375 h 84.75 z" /><g
         id="g260"><path
           id="path262"
           style="fill:none;stroke:#231f20;stroke-width:0.75;stroke-linecap:square;stroke-linejoin:miter;stroke-miterlimit:10;stroke-dasharray:none;stroke-opacity:1"
           d="M 0,0 Z" /></g></g><text
       id="text266"
       style="font-variant:normal;font-weight:normal;font-stretch:normal;font-size:9px;font-family:Times;-inkscape-font-specification:Times-Roman;writing-mode:lr-tb;fill:#231f20;fill-opacity:1;fill-rule:nonzero;stroke:none"
       transform="matrix(1,0,0,-1,51.2403,26.0449)"><tspan
         id="tspan264"
         y="0"
         x="0 7.0019999 10.998 13.5 17.496 20.493 22.995001 26.990999 29.493 33.993 38.493 41.490002 45.990002 50.490002 54.486 57.483002 59.985001 64.485001">material_property</tspan></text>
<path
       id="path268"
       style="fill:#ffffff;fill-opacity:1;fill-rule:nonzero;stroke:none"
       d="m 138.53,213.622 h 80.251 v 15.375 H 138.53 Z" /><g
       transform="translate(146.217,228.997)"
       id="g270"><path
         id="path272"
         style="fill:none;stroke:#231f20;stroke-width:0.75;stroke-linecap:square;stroke-linejoin:miter;stroke-miterlimit:10;stroke-dasharray:none;stroke-opacity:1"
         d="m 0,0 h 64.876 c 4.242,0 7.687,-3.444 7.687,-7.687 0,-4.244 -3.445,-7.688 -7.687,-7.688 H 0 c -4.244,0 -7.687,3.444 -7.687,7.688 C -7.687,-3.444 -4.244,0 0,0 Z" /></g><text
       id="text276"
       style="font-variant:normal;font-weight:normal;font-stretch:normal;font-size:9px;font-family:Times;-inkscape-font-specification:Times-Roman;writing-mode:lr-tb;fill:#231f20;fill-opacity:1;fill-rule:nonzero;stroke:none"
       transform="matrix(1,0,0,-1,159.3951,218.9424)"><tspan
         id="tspan274"
         y="0"
         x="0 4.5 9 11.25 13.5 18 22.5 24.75 27.747 32.247002 35.243999">14, 56 (5)</tspan></text>
<path
       id="path278"
       style="fill:#ffffff;fill-opacity:1;fill-rule:nonzero;stroke:none"
       d="m 25.28,67.496 h 137.25 v 39 H 25.28 Z" /><path
       id="path280"
       style="fill:none;stroke:#231f20;stroke-width:0.75;stroke-linecap:square;stroke-linejoin:miter;stroke-miterlimit:10;stroke-dasharray:3.75, 3.75;stroke-dashoffset:0;stroke-opacity:1"
       d="m 25.28,106.496 v -39 h 137.25 v 39 z m 7.5,-39 v 39" /><text
       id="text284"
       style="font-variant:normal;font-weight:normal;font-stretch:normal;font-size:9px;font-family:Times;-inkscape-font-specification:Times-Roman;writing-mode:lr-tb;fill:#231f20;fill-opacity:1;fill-rule:nonzero;stroke:none"
       transform="matrix(1,0,0,-1,36.7798,84.6514)"><tspan
         id="tspan282"
         y="0"
         x="0 3.9960001 8.4960003 12.492 15.489 19.485001 23.481001 25.983 29.979 32.976002 35.478001 39.473999 43.470001 47.970001 52.470001 56.970001 59.966999 64.467003 68.967003 73.467003 77.462997 79.964996 84.464996 88.964996 92.960999 95.778 98.279999 102.78 105.282 107.784 110.286 114.786 119.286">characterized_product_definition</tspan></text>
<path
       id="path286"
       style="fill:#ffffff;fill-opacity:1;fill-rule:nonzero;stroke:none"
       d="m 229.28,91.121 h 109.75 v 15.375 H 229.28 Z" /><g
       transform="translate(236.968,106.496)"
       id="g288"><path
         id="path290"
         style="fill:none;stroke:#231f20;stroke-width:0.75;stroke-linecap:square;stroke-linejoin:miter;stroke-miterlimit:10;stroke-dasharray:none;stroke-opacity:1"
         d="m 0,0 h 94.375 c 4.242,0 7.688,-3.444 7.688,-7.687 0,-4.244 -3.446,-7.688 -7.688,-7.688 H 0 c -4.244,0 -7.687,3.444 -7.687,7.688 C -7.687,-3.444 -4.244,0 0,0 Z" /></g><text
       id="text294"
       style="font-variant:normal;font-weight:normal;font-stretch:normal;font-size:9px;font-family:Times;-inkscape-font-specification:Times-Roman;writing-mode:lr-tb;fill:#231f20;fill-opacity:1;fill-rule:nonzero;stroke:none"
       transform="matrix(1,0,0,-1,236.1241,96.4639)"><tspan
         id="tspan292"
         y="0"
         x="0 4.5 9 11.25 13.5 18 22.5 24.75 27 31.5 34.497002 38.997002 43.497002 47.997002 51.993 54.494999 58.994999 63.494999 67.490997 70.307999 72.809998 77.309998 79.811996 82.314003 84.816002 89.316002 93.816002">10, 39, product_definition</tspan></text>
<path
       id="path296"
       style="fill:#ffffff;fill-opacity:1;fill-rule:nonzero;stroke:none"
       d="m 185.03,67.496 h 154 v 15.375 h -154 z" /><g
       transform="translate(192.718,82.871)"
       id="g298"><path
         id="path300"
         style="fill:none;stroke:#231f20;stroke-width:0.75;stroke-linecap:square;stroke-linejoin:miter;stroke-miterlimit:10;stroke-dasharray:none;stroke-opacity:1"
         d="m 0,0 h 138.625 c 4.242,0 7.687,-3.444 7.687,-7.687 0,-4.244 -3.445,-7.688 -7.687,-7.688 H 0 c -4.244,0 -7.687,3.444 -7.687,7.688 C -7.687,-3.444 -4.244,0 0,0 Z" /></g><text
       id="text304"
       style="font-variant:normal;font-weight:normal;font-stretch:normal;font-size:9px;font-family:Times;-inkscape-font-specification:Times-Roman;writing-mode:lr-tb;fill:#231f20;fill-opacity:1;fill-rule:nonzero;stroke:none"
       transform="matrix(1,0,0,-1,188.4893,72.8389)"><tspan
         id="tspan302"
         y="0"
         x="0 4.5 9 11.25 13.5 18 22.5 24.75 27 31.5 34.497002 38.997002 43.497002 47.997002 51.993 54.494999 58.994999 63.494999 67.490997 70.307999 72.809998 77.309998 79.811996 82.314003 84.816002 89.316002 93.816002 98.316002 101.313 105.309 107.811 111.807 114.309 116.811 121.311 125.811 129.312 133.812 136.314 140.814">13, 50, product_definition_relationship</tspan></text>
<path
       id="path306"
       style="fill:#ffffff;fill-opacity:1;fill-rule:nonzero;stroke:none"
       d="m 53.78,138.997 h 80.25 v 62.625 H 53.78 Z" /><path
       id="path308"
       style="fill:none;stroke:#231f20;stroke-width:0.75;stroke-linecap:square;stroke-linejoin:miter;stroke-miterlimit:10;stroke-dasharray:3.75, 3.75;stroke-dashoffset:0;stroke-opacity:1"
       d="m 53.78,201.622 v -62.625 h 80.25 v 62.625 z m 7.5,-62.625 v 62.625" /><text
       id="text312"
       style="font-variant:normal;font-weight:normal;font-stretch:normal;font-size:9px;font-family:Times;-inkscape-font-specification:Times-Roman;writing-mode:lr-tb;fill:#231f20;fill-opacity:1;fill-rule:nonzero;stroke:none"
       transform="matrix(1,0,0,-1,67.8863,167.9658)"><tspan
         id="tspan310"
         y="0"
         x="0 3.5009999 8.0010004 11.997 16.497 20.493 24.993 29.493 33.488998 36.306 38.807999 43.307999 45.810001 48.312 50.813999 55.313999 59.813999">shape_definition</tspan></text>
<path
       id="path314"
       style="fill:#ffffff;fill-opacity:1;fill-rule:nonzero;stroke:none"
       d="m 162.53,186.247 h 132.25 v 15.375 H 162.53 Z" /><g
       transform="translate(170.217,201.622)"
       id="g316"><path
         id="path318"
         style="fill:none;stroke:#231f20;stroke-width:0.75;stroke-linecap:square;stroke-linejoin:miter;stroke-miterlimit:10;stroke-dasharray:none;stroke-opacity:1"
         d="m 0,0 h 116.875 c 4.243,0 7.688,-3.443 7.688,-7.687 0,-4.244 -3.445,-7.688 -7.688,-7.688 H 0 c -4.244,0 -7.687,3.444 -7.687,7.688 C -7.687,-3.443 -4.244,0 0,0 Z" /></g><text
       id="text322"
       style="font-variant:normal;font-weight:normal;font-stretch:normal;font-size:9px;font-family:Times;-inkscape-font-specification:Times-Roman;writing-mode:lr-tb;fill:#231f20;fill-opacity:1;fill-rule:nonzero;stroke:none"
       transform="matrix(1,0,0,-1,167.3643,191.5908)"><tspan
         id="tspan320"
         y="0"
         x="0 4.5 9 11.25 13.5 18 22.5 24.75 27 31.5 34.497002 38.997002 43.497002 47.997002 51.993 54.494999 58.994999 63.494999 67.490997 70.307999 72.809998 77.309998 79.811996 82.314003 84.816002 89.316002 93.816002 98.316002 101.817 106.317 110.313 114.813 118.809">14, 53, product_definition_shape</tspan></text>
<path
       id="path324"
       style="fill:#ffffff;fill-opacity:1;fill-rule:nonzero;stroke:none"
       d="m 156.53,162.622 h 138.25 v 15.375 H 156.53 Z" /><g
       transform="translate(164.217,177.997)"
       id="g326"><path
         id="path328"
         style="fill:none;stroke:#231f20;stroke-width:0.75;stroke-linecap:square;stroke-linejoin:miter;stroke-miterlimit:10;stroke-dasharray:none;stroke-opacity:1"
         d="m 0,0 h 122.875 c 4.243,0 7.688,-3.443 7.688,-7.687 0,-4.244 -3.445,-7.688 -7.688,-7.688 H 0 c -4.244,0 -7.687,3.444 -7.687,7.688 C -7.687,-3.443 -4.244,0 0,0 Z" /></g><text
       id="text332"
       style="font-variant:normal;font-weight:normal;font-stretch:normal;font-size:9px;font-family:Times;-inkscape-font-specification:Times-Roman;writing-mode:lr-tb;fill:#231f20;fill-opacity:1;fill-rule:nonzero;stroke:none"
       transform="matrix(1,0,0,-1,161.1158,168.0098)"><tspan
         id="tspan330"
         y="0"
         x="0 4.5 9 11.25 13.5 18 22.5 24.75 27 30.500999 35.000999 38.997002 43.497002 47.493 51.993 55.988998 59.490002 63.990002 67.986 71.982002 74.484001 78.984001 81.981003 85.976997 88.478996 92.474998 94.976997 97.478996 101.979 106.479 109.98 114.48 116.982 121.482">42, 55, shape_aspect_relationship</tspan></text>
<path
       id="path334"
       style="fill:#ffffff;fill-opacity:1;fill-rule:nonzero;stroke:none"
       d="m 200.78,138.997 h 94 v 15.375 h -94 z" /><g
       transform="translate(208.468,154.372)"
       id="g336"><path
         id="path338"
         style="fill:none;stroke:#231f20;stroke-width:0.75;stroke-linecap:square;stroke-linejoin:miter;stroke-miterlimit:10;stroke-dasharray:none;stroke-opacity:1"
         d="m 0,0 h 78.625 c 4.242,0 7.688,-3.443 7.688,-7.687 0,-4.244 -3.446,-7.688 -7.688,-7.688 H 0 c -4.244,0 -7.687,3.444 -7.687,7.688 C -7.687,-3.443 -4.244,0 0,0 Z" /></g><text
       id="text342"
       style="font-variant:normal;font-weight:normal;font-stretch:normal;font-size:9px;font-family:Times;-inkscape-font-specification:Times-Roman;writing-mode:lr-tb;fill:#231f20;fill-opacity:1;fill-rule:nonzero;stroke:none"
       transform="matrix(1,0,0,-1,208.751,144.3848)"><tspan
         id="tspan340"
         y="0"
         x="0 4.5 9 11.25 13.5 18 22.5 24.75 27 30.500999 35.000999 38.997002 43.497002 47.493 51.993 55.988998 59.490002 63.990002 67.986 71.982002 74.484001">40, 54, shape_aspect</tspan></text>
<path
       id="path344"
       style="fill:#ffffff;fill-opacity:1;fill-rule:nonzero;stroke:none"
       d="m 27.375,238.313 h 108.252 v 24.75 H 27.375 Z" /><path
       id="path346"
       style="fill:none;stroke:#231f20;stroke-width:0.75;stroke-linecap:square;stroke-linejoin:miter;stroke-miterlimit:10;stroke-dasharray:3.75, 3.75;stroke-dashoffset:0;stroke-opacity:1"
       d="m 27.375,263.063 v -24.75 h 108.251 v 24.75 z m 7.5,-24.75 v 24.75" /><text
       id="text350"
       style="font-variant:normal;font-weight:normal;font-stretch:normal;font-size:9px;font-family:Times;-inkscape-font-specification:Times-Roman;writing-mode:lr-tb;fill:#231f20;fill-opacity:1;fill-rule:nonzero;stroke:none"
       transform="matrix(1,0,0,-1,41.7315,247.9741)"><tspan
         id="tspan348"
         y="0"
         x="0 3.9960001 8.4960003 12.492 15.489 19.485001 23.481001 25.983 29.979 32.976002 35.478001 39.473999 43.470001 47.970001 52.470001 56.970001 60.966 63.783001 66.285004 70.785004 73.287003 75.789001 78.291 82.791 87.291">characterized_definition</tspan></text>
<g
       transform="translate(101.016,266.824)"
       id="g352"><path
         id="path354"
         style="fill:#ffffff;fill-opacity:1;fill-rule:nonzero;stroke:none"
         d="M 0,0 C 0,2.07 -1.681,3.75 -3.75,3.75 -5.82,3.75 -7.5,2.07 -7.5,0 c 0,-2.07 1.68,-3.75 3.75,-3.75 C -1.681,-3.75 0,-2.07 0,0" /></g><g
       transform="translate(101.016,266.824)"
       id="g356"><path
         id="path358"
         style="fill:none;stroke:#231f20;stroke-width:0.75;stroke-linecap:square;stroke-linejoin:miter;stroke-miterlimit:10;stroke-dasharray:none;stroke-opacity:1"
         d="M 0,0 C 0,2.07 -1.681,3.75 -3.75,3.75 -5.82,3.75 -7.5,2.07 -7.5,0 c 0,-2.07 1.68,-3.75 3.75,-3.75 C -1.681,-3.75 0,-2.07 0,0" /></g><text
       id="text362"
       style="font-variant:normal;font-weight:normal;font-stretch:normal;font-size:9px;font-family:Times;-inkscape-font-specification:Times-Roman;writing-mode:lr-tb;fill:#231f20;fill-opacity:1;fill-rule:nonzero;stroke:none"
       transform="matrix(1,0,0,-1,51.7798,295.4868)"><tspan
         id="tspan360"
         y="0"
         x="0 4.5 8.4960003 11.313 13.815 18.315001 20.816999 23.319 25.820999 30.320999 34.820999">definition</tspan></text>
<path
       id="path364"
       style="fill:#ffffff;fill-opacity:1;fill-rule:nonzero;stroke:none"
       d="m 158.126,247.688 h 119.75 v 15.375 h -119.75 z" /><g
       transform="translate(165.814,263.063)"
       id="g366"><path
         id="path368"
         style="fill:none;stroke:#231f20;stroke-width:0.75;stroke-linecap:square;stroke-linejoin:miter;stroke-miterlimit:10;stroke-dasharray:none;stroke-opacity:1"
         d="m 0,0 h 104.375 c 4.244,0 7.688,-3.444 7.688,-7.687 0,-4.244 -3.444,-7.688 -7.688,-7.688 H 0 c -4.244,0 -7.687,3.444 -7.687,7.688 C -7.687,-3.444 -4.244,0 0,0 Z" /></g><text
       id="text372"
       style="font-variant:normal;font-weight:normal;font-stretch:normal;font-size:9px;font-family:Times;-inkscape-font-specification:Times-Roman;writing-mode:lr-tb;fill:#231f20;fill-opacity:1;fill-rule:nonzero;stroke:none"
       transform="matrix(1,0,0,-1,164.9727,253.0889)"><tspan
         id="tspan370"
         y="0"
         x="0 4.5 9 11.25 13.5 18 22.5 24.75 27 30.996 35.495998 39.492001 42.488998 46.485001 50.480999 52.983002 56.979 59.976002 62.478001 66.473999 70.470001 74.970001 79.470001 83.970001 88.470001 90.972 94.968002 98.963997 101.466">41, 49, characterized_object</tspan></text>
<g
       transform="translate(44.045,110.224)"
       id="g374"><path
         id="path376"
         style="fill:#ffffff;fill-opacity:1;fill-rule:nonzero;stroke:none"
         d="M 0,0 C 0,2.07 -1.68,3.75 -3.75,3.75 -5.82,3.75 -7.5,2.07 -7.5,0 c 0,-2.069 1.68,-3.75 3.75,-3.75 C -1.68,-3.75 0,-2.069 0,0" /></g><g
       transform="translate(44.045,110.224)"
       id="g378"><path
         id="path380"
         style="fill:none;stroke:#231f20;stroke-width:0.75;stroke-linecap:square;stroke-linejoin:miter;stroke-miterlimit:10;stroke-dasharray:none;stroke-opacity:1"
         d="M 0,0 C 0,2.07 -1.68,3.75 -3.75,3.75 -5.82,3.75 -7.5,2.07 -7.5,0 c 0,-2.069 1.68,-3.75 3.75,-3.75 C -1.68,-3.75 0,-2.069 0,0" /></g><g
       transform="translate(68.075,205.354)"
       id="g382"><path
         id="path384"
         style="fill:#ffffff;fill-opacity:1;fill-rule:nonzero;stroke:none"
         d="M 0,0 C 0,2.07 -1.68,3.75 -3.75,3.75 -5.82,3.75 -7.5,2.07 -7.5,0 c 0,-2.07 1.68,-3.75 3.75,-3.75 C -1.68,-3.75 0,-2.07 0,0" /></g><g
       transform="translate(68.075,205.354)"
       id="g386"><path
         id="path388"
         style="fill:none;stroke:#231f20;stroke-width:0.75;stroke-linecap:square;stroke-linejoin:miter;stroke-miterlimit:10;stroke-dasharray:none;stroke-opacity:1"
         d="M 0,0 C 0,2.07 -1.68,3.75 -3.75,3.75 -5.82,3.75 -7.5,2.07 -7.5,0 c 0,-2.07 1.68,-3.75 3.75,-3.75 C -1.68,-3.75 0,-2.07 0,0" /></g><g
       transform="translate(97.595,205.354)"
       id="g390"><path
         id="path392"
         style="fill:#ffffff;fill-opacity:1;fill-rule:nonzero;stroke:none"
         d="M 0,0 C 0,2.07 -1.68,3.75 -3.75,3.75 -5.82,3.75 -7.5,2.07 -7.5,0 c 0,-2.07 1.68,-3.75 3.75,-3.75 C -1.68,-3.75 0,-2.07 0,0" /></g><g
       transform="translate(97.595,205.354)"
       id="g394"><path
         id="path396"
         style="fill:none;stroke:#231f20;stroke-width:0.75;stroke-linecap:square;stroke-linejoin:miter;stroke-miterlimit:10;stroke-dasharray:none;stroke-opacity:1"
         d="M 0,0 C 0,2.07 -1.68,3.75 -3.75,3.75 -5.82,3.75 -7.5,2.07 -7.5,0 c 0,-2.07 1.68,-3.75 3.75,-3.75 C -1.68,-3.75 0,-2.07 0,0" /></g><g
       transform="translate(113.075,110.224)"
       id="g398"><path
         id="path400"
         style="fill:#ffffff;fill-opacity:1;fill-rule:nonzero;stroke:none"
         d="M 0,0 C 0,2.07 -1.68,3.75 -3.75,3.75 -5.82,3.75 -7.5,2.07 -7.5,0 c 0,-2.069 1.68,-3.75 3.75,-3.75 C -1.68,-3.75 0,-2.069 0,0" /></g><g
       transform="translate(113.075,110.224)"
       id="g402"><path
         id="path404"
         style="fill:none;stroke:#231f20;stroke-width:0.75;stroke-linecap:square;stroke-linejoin:miter;stroke-miterlimit:10;stroke-dasharray:none;stroke-opacity:1"
         d="M 0,0 C 0,2.07 -1.68,3.75 -3.75,3.75 -5.82,3.75 -7.5,2.07 -7.5,0 c 0,-2.069 1.68,-3.75 3.75,-3.75 C -1.68,-3.75 0,-2.069 0,0" /></g><g
       transform="translate(50.075,266.824)"
       id="g406"><path
         id="path408"
         style="fill:#ffffff;fill-opacity:1;fill-rule:nonzero;stroke:none"
         d="M 0,0 C 0,2.07 -1.68,3.75 -3.75,3.75 -5.82,3.75 -7.5,2.07 -7.5,0 c 0,-2.07 1.68,-3.75 3.75,-3.75 C -1.68,-3.75 0,-2.07 0,0" /></g><g
       transform="translate(50.075,266.824)"
       id="g410"><path
         id="path412"
         style="fill:none;stroke:#231f20;stroke-width:0.75;stroke-linecap:square;stroke-linejoin:miter;stroke-miterlimit:10;stroke-dasharray:none;stroke-opacity:1"
         d="M 0,0 C 0,2.07 -1.68,3.75 -3.75,3.75 -5.82,3.75 -7.5,2.07 -7.5,0 c 0,-2.07 1.68,-3.75 3.75,-3.75 C -1.68,-3.75 0,-2.07 0,0" /></g><path
       id="path414"
       style="fill:#ffffff;fill-opacity:1;fill-rule:nonzero;stroke:none"
       d="M 199.875,0.37502 H 280.5 v 15.375 h -80.625 z" /><g
       transform="translate(207.562,15.75)"
       id="g416"><path
         id="path418"
         style="fill:none;stroke:#231f20;stroke-width:0.75;stroke-linecap:square;stroke-linejoin:miter;stroke-miterlimit:10;stroke-dasharray:none;stroke-opacity:1"
         d="m 0,0 h 65.25 c 4.243,0 7.688,-3.444 7.688,-7.6875 0,-4.2445 -3.445,-7.6875 -7.688,-7.6875 H 0 c -4.244,0 -7.687,3.443 -7.687,7.6875 C -7.687,-3.444 -4.244,0 0,0 Z" /></g><text
       id="text422"
       style="font-variant:normal;font-weight:normal;font-stretch:normal;font-size:9px;font-family:Times;-inkscape-font-specification:Times-Roman;writing-mode:lr-tb;fill:#231f20;fill-opacity:1;fill-rule:nonzero;stroke:none"
       transform="matrix(1,0,0,-1,203.4131,5.6963)"><tspan
         id="tspan420"
         y="0"
         x="0 4.5 9 11.25 13.5 18 22.5 24.75 27.747 32.247002 36.747002 38.997002 41.247002 45.747002 50.247002 52.497002 54.747002 59.247002 63.747002 66.744003">14, 53 (14, 40, 22)</tspan></text>
</g></svg>