<?xml version="1.0" encoding="UTF-8" standalone="no"?>
<svg
   xmlns:dc="http://purl.org/dc/elements/1.1/"
   xmlns:cc="http://creativecommons.org/ns#"
   xmlns:rdf="http://www.w3.org/1999/02/22-rdf-syntax-ns#"
   xmlns:svg="http://www.w3.org/2000/svg"
   xmlns="http://www.w3.org/2000/svg"
   viewBox="0 0 494.09201 605.89734"
   height="605.89734"
   width="494.09201"
   xml:space="preserve"
   id="svg2"
   version="1.1"><metadata
     id="metadata8"><rdf:RDF><cc:Work
         rdf:about=""><dc:format>image/svg+xml</dc:format><dc:type
           rdf:resource="http://purl.org/dc/dcmitype/StillImage" /></cc:Work></rdf:RDF></metadata><defs
     id="defs6" /><g
     transform="matrix(1.3333333,0,0,-1.3333333,0,605.89733)"
     id="g10"><g
       transform="translate(66.444,447.025)"
       id="g12"><path
         id="path14"
         style="fill:none;stroke:#231f20;stroke-width:0.75;stroke-linecap:square;stroke-linejoin:miter;stroke-miterlimit:10;stroke-dasharray:none;stroke-opacity:1"
         d="M 0,0 V -10.226" /><g
         transform="translate(157.125,-25.414)"
         id="g16"><path
           id="path18"
           style="fill:none;stroke:#231f20;stroke-width:0.75;stroke-linecap:square;stroke-linejoin:miter;stroke-miterlimit:10;stroke-dasharray:none;stroke-opacity:1"
           d="M 0,0 H -99" /><g
           transform="translate(25.5,-23.625)"
           id="g20"><path
             id="path22"
             style="fill:none;stroke:#231f20;stroke-width:0.75;stroke-linecap:square;stroke-linejoin:miter;stroke-miterlimit:10;stroke-dasharray:none;stroke-opacity:1"
             d="M 0,0 H -124.5" /><g
             transform="translate(-28.5,-23.625)"
             id="g24"><path
               id="path26"
               style="fill:none;stroke:#231f20;stroke-width:0.75;stroke-linecap:square;stroke-linejoin:miter;stroke-miterlimit:10;stroke-dasharray:none;stroke-opacity:1"
               d="M 0,0 H -96" /><g
               transform="translate(86.429,-37.125)"
               id="g28"><path
                 id="path30"
                 style="fill:none;stroke:#231f20;stroke-width:0.75;stroke-linecap:square;stroke-linejoin:miter;stroke-miterlimit:10;stroke-dasharray:none;stroke-opacity:1"
                 d="M 0,0 H -176.429" /></g></g></g></g></g><g
       transform="translate(66.444,352.423)"
       id="g32"><path
         id="path34"
         style="fill:none;stroke:#231f20;stroke-width:2.25;stroke-linecap:square;stroke-linejoin:miter;stroke-miterlimit:10;stroke-dasharray:none;stroke-opacity:1"
         d="M 0,0 V 14.25" /></g><g
       transform="translate(309.998,195.385)"
       id="g36"><path
         id="path38"
         style="fill:none;stroke:#231f20;stroke-width:0.75;stroke-linecap:square;stroke-linejoin:miter;stroke-miterlimit:10;stroke-dasharray:none;stroke-opacity:1"
         d="M 0,0 H -104.874" /><g
         transform="translate(-65.124,-135.188)"
         id="g40"><path
           id="path42"
           style="fill:none;stroke:#231f20;stroke-width:0.75;stroke-linecap:square;stroke-linejoin:miter;stroke-miterlimit:10;stroke-dasharray:none;stroke-opacity:1"
           d="M 0,0 H -79.499" /><g
           transform="translate(25.5,-23.625)"
           id="g44"><path
             id="path46"
             style="fill:none;stroke:#231f20;stroke-width:0.75;stroke-linecap:square;stroke-linejoin:miter;stroke-miterlimit:10;stroke-dasharray:none;stroke-opacity:1"
             d="M 0,0 H -104.999" /><g
             transform="translate(5.25,-23.625)"
             id="g48"><path
               id="path50"
               style="fill:none;stroke:#231f20;stroke-width:0.75;stroke-linecap:square;stroke-linejoin:miter;stroke-miterlimit:10;stroke-dasharray:none;stroke-opacity:1"
               d="M 0,0 H -110.249" /><g
               transform="translate(45.75,150.938)"
               id="g52"><path
                 id="path54"
                 style="fill:none;stroke:#231f20;stroke-width:0.75;stroke-linecap:square;stroke-linejoin:miter;stroke-miterlimit:10;stroke-dasharray:none;stroke-opacity:1"
                 d="M 0,0 -127.626,0.015" /><g
                 transform="translate(-123.467,-35.239)"
                 id="g56"><path
                   id="path58"
                   style="fill:none;stroke:#231f20;stroke-width:0.75;stroke-linecap:square;stroke-linejoin:miter;stroke-miterlimit:10;stroke-dasharray:none;stroke-opacity:1"
                   d="M 0,0 H -55.499" /></g></g></g></g></g></g><path
       id="path60"
       style="fill:none;stroke:#231f20;stroke-width:0.75;stroke-linecap:square;stroke-linejoin:miter;stroke-miterlimit:10;stroke-dasharray:3.75, 3.75;stroke-dashoffset:0;stroke-opacity:1"
       d="M 203.157,105.021 H 142.408" /><g
       transform="translate(96.808,143.828)"
       id="g62"><path
         id="path64"
         style="fill:none;stroke:#231f20;stroke-width:0.75;stroke-linecap:square;stroke-linejoin:miter;stroke-miterlimit:10;stroke-dasharray:none;stroke-opacity:1"
         d="M 0,0 -0.56,11.071" /></g><g
       transform="translate(96.248,180.197)"
       id="g66"><path
         id="path68"
         style="fill:none;stroke:#231f20;stroke-width:2.25;stroke-linecap:square;stroke-linejoin:miter;stroke-miterlimit:10;stroke-dasharray:none;stroke-opacity:1"
         d="M 0,0 V -8.625" /></g><g
       transform="translate(125.694,447.025)"
       id="g70"><path
         id="path72"
         style="fill:none;stroke:#231f20;stroke-width:0.75;stroke-linecap:square;stroke-linejoin:miter;stroke-miterlimit:10;stroke-dasharray:none;stroke-opacity:1"
         d="M 0,0 H -59.25" /><g
         transform="translate(-22.697,-365.625)"
         id="g74"><path
           id="path76"
           style="fill:none;stroke:#231f20;stroke-width:0.75;stroke-linecap:square;stroke-linejoin:miter;stroke-miterlimit:10;stroke-dasharray:none;stroke-opacity:1"
           d="M 0,0 0.542,-6.03" /><g
           transform="translate(218.376,82.485)"
           id="g78"><path
             id="path80"
             style="fill:none;stroke:#231f20;stroke-width:0.75;stroke-linecap:square;stroke-linejoin:miter;stroke-miterlimit:10;stroke-dasharray:none;stroke-opacity:1"
             d="m 0,0 -0.126,-82.485 h -218.25" /><g
             transform="translate(-14.376,173.351)"
             id="g82"><path
               id="path84"
               style="fill:none;stroke:#231f20;stroke-width:0.75;stroke-linecap:square;stroke-linejoin:miter;stroke-miterlimit:10;stroke-dasharray:none;stroke-opacity:1"
               d="M 0,0 V -24.75" /><g
               transform="translate(3,-141.851)"
               id="g86"><path
                 id="path88"
                 style="fill:none;stroke:#231f20;stroke-width:0.75;stroke-linecap:square;stroke-linejoin:miter;stroke-miterlimit:10;stroke-dasharray:none;stroke-opacity:1"
                 d="M 0,0 V 15.852" /><g
                 transform="translate(-63.554,101.914)"
                 id="g90"><path
                   id="path92"
                   style="fill:none;stroke:#231f20;stroke-width:0.75;stroke-linecap:square;stroke-linejoin:miter;stroke-miterlimit:10;stroke-dasharray:none;stroke-opacity:1"
                   d="M 0,0 H -22.5" /><g
                   transform="translate(0,-23.625)"
                   id="g94"><path
                     id="path96"
                     style="fill:none;stroke:#231f20;stroke-width:0.75;stroke-linecap:square;stroke-linejoin:miter;stroke-miterlimit:10;stroke-dasharray:none;stroke-opacity:1"
                     d="M 0,0 H -30.75" /><g
                     transform="translate(0,-23.625)"
                     id="g98"><path
                       id="path100"
                       style="fill:none;stroke:#231f20;stroke-width:0.75;stroke-linecap:square;stroke-linejoin:miter;stroke-miterlimit:10;stroke-dasharray:none;stroke-opacity:1"
                       d="M 0,0 H -89.25" /><g
                       transform="translate(-49.5,-23.624)"
                       id="g102"><path
                         id="path104"
                         style="fill:none;stroke:#231f20;stroke-width:0.75;stroke-linecap:square;stroke-linejoin:miter;stroke-miterlimit:10;stroke-dasharray:none;stroke-opacity:1"
                         d="M 0,0 H 49.5" /><g
                         transform="translate(-49.5)"
                         id="g106"><path
                           id="path108"
                           style="fill:none;stroke:#231f20;stroke-width:0.75;stroke-linecap:square;stroke-linejoin:miter;stroke-miterlimit:10;stroke-dasharray:none;stroke-opacity:1"
                           d="M 0,0 H 49.5 V 0" /></g></g></g></g></g></g></g></g></g></g><path
       id="path110"
       style="fill:#ffffff;fill-opacity:1;fill-rule:nonzero;stroke:none"
       d="m 223.569,413.923 h 104.25 v 15.375 h -104.25 z" /><g
       transform="translate(231.257,429.298)"
       id="g112"><path
         id="path114"
         style="fill:none;stroke:#231f20;stroke-width:0.75;stroke-linecap:square;stroke-linejoin:miter;stroke-miterlimit:10;stroke-dasharray:none;stroke-opacity:1"
         d="m 0,0 h 88.875 c 4.243,0 7.688,-3.444 7.688,-7.687 0,-4.243 -3.445,-7.688 -7.688,-7.688 H 0 c -4.244,0 -7.687,3.445 -7.687,7.688 C -7.687,-3.444 -4.244,0 0,0 Z" /></g><text
       id="text118"
       style="font-variant:normal;font-weight:normal;font-stretch:normal;font-size:9px;font-family:Times;-inkscape-font-specification:Times-Roman;writing-mode:lr-tb;fill:#231f20;fill-opacity:1;fill-rule:nonzero;stroke:none"
       transform="matrix(1,0,0,-1,238.4209,419.0415)"><tspan
         id="tspan116"
         y="0"
         x="0 4.5 9 11.25 13.5 18 22.5 27 29.25 31.5 36 40.5 44.495998 48.995998 55.998001 59.993999 64.494003 66.996002">58, 170, document</tspan></text>
<path
       id="path120"
       style="fill:#ffffff;fill-opacity:1;fill-rule:nonzero;stroke:none"
       d="m 249.069,390.298 h 78.75 v 15.375 h -78.75 z" /><g
       transform="translate(256.757,405.673)"
       id="g122"><path
         id="path124"
         style="fill:none;stroke:#231f20;stroke-width:0.75;stroke-linecap:square;stroke-linejoin:miter;stroke-miterlimit:10;stroke-dasharray:none;stroke-opacity:1"
         d="m 0,0 h 63.375 c 4.243,0 7.688,-3.444 7.688,-7.687 0,-4.243 -3.445,-7.688 -7.688,-7.688 H 0 c -4.244,0 -7.687,3.445 -7.687,7.688 C -7.687,-3.444 -4.244,0 0,0 Z" /></g><text
       id="text128"
       style="font-variant:normal;font-weight:normal;font-stretch:normal;font-size:9px;font-family:Times;-inkscape-font-specification:Times-Roman;writing-mode:lr-tb;fill:#231f20;fill-opacity:1;fill-rule:nonzero;stroke:none"
       transform="matrix(1,0,0,-1,263.9277,395.4165)"><tspan
         id="tspan126"
         y="0"
         x="0 4.5 9 11.25 13.5 18 22.5 24.75 27 29.502001 33.498001 37.998001 41.993999 44.495998">65, 33, label</tspan></text>
<path
       id="path130"
       style="fill:#ffffff;fill-opacity:1;fill-rule:nonzero;stroke:none"
       d="m 220.569,366.673 h 107.25 v 15.375 h -107.25 z" /><g
       transform="translate(228.257,382.048)"
       id="g132"><path
         id="path134"
         style="fill:none;stroke:#231f20;stroke-width:0.75;stroke-linecap:square;stroke-linejoin:miter;stroke-miterlimit:10;stroke-dasharray:none;stroke-opacity:1"
         d="m 0,0 h 91.875 c 4.243,0 7.688,-3.444 7.688,-7.687 0,-4.243 -3.445,-7.688 -7.688,-7.688 H 0 c -4.244,0 -7.687,3.445 -7.687,7.688 C -7.687,-3.444 -4.244,0 0,0 Z" /></g><text
       id="text138"
       style="font-variant:normal;font-weight:normal;font-stretch:normal;font-size:9px;font-family:Times;-inkscape-font-specification:Times-Roman;writing-mode:lr-tb;fill:#231f20;fill-opacity:1;fill-rule:nonzero;stroke:none"
       transform="matrix(1,0,0,-1,234.6709,372.0752)"><tspan
         id="tspan136"
         y="0"
         x="0 4.5 9 11.25 13.5 18 22.5 27 29.25 31.5 36 40.5 43.001999 46.998001 50.993999 53.495998 57.995998 60.993 65.492996 67.995003 71.990997">61, 165, object_role</tspan></text>
<path
       id="path140"
       style="fill:#ffffff;fill-opacity:1;fill-rule:nonzero;stroke:none"
       d="m 244.874,52.51 h 104.25 v 15.375 h -104.25 z" /><g
       transform="translate(252.562,67.885)"
       id="g142"><path
         id="path144"
         style="fill:none;stroke:#231f20;stroke-width:0.75;stroke-linecap:square;stroke-linejoin:miter;stroke-miterlimit:10;stroke-dasharray:none;stroke-opacity:1"
         d="m 0,0 h 88.875 c 4.244,0 7.688,-3.444 7.688,-7.687 0,-4.244 -3.444,-7.688 -7.688,-7.688 H 0 c -4.242,0 -7.687,3.444 -7.687,7.688 C -7.687,-3.444 -4.242,0 0,0 Z" /></g><text
       id="text148"
       style="font-variant:normal;font-weight:normal;font-stretch:normal;font-size:9px;font-family:Times;-inkscape-font-specification:Times-Roman;writing-mode:lr-tb;fill:#231f20;fill-opacity:1;fill-rule:nonzero;stroke:none"
       transform="matrix(1,0,0,-1,259.7266,57.627)"><tspan
         id="tspan146"
         y="0"
         x="0 4.5 9 11.25 13.5 18 22.5 27 29.25 31.5 36 40.5 44.495998 48.995998 55.998001 59.993999 64.494003 66.996002">58, 170, document</tspan></text>
<path
       id="path150"
       style="fill:#ffffff;fill-opacity:1;fill-rule:nonzero;stroke:none"
       d="m 270.374,28.885 h 78.75 V 44.26 h -78.75 z" /><g
       transform="translate(278.062,44.26)"
       id="g152"><path
         id="path154"
         style="fill:none;stroke:#231f20;stroke-width:0.75;stroke-linecap:square;stroke-linejoin:miter;stroke-miterlimit:10;stroke-dasharray:none;stroke-opacity:1"
         d="m 0,0 h 63.375 c 4.244,0 7.688,-3.444 7.688,-7.687 0,-4.244 -3.444,-7.688 -7.688,-7.688 H 0 c -4.242,0 -7.687,3.444 -7.687,7.688 C -7.687,-3.444 -4.242,0 0,0 Z" /></g><text
       id="text158"
       style="font-variant:normal;font-weight:normal;font-stretch:normal;font-size:9px;font-family:Times;-inkscape-font-specification:Times-Roman;writing-mode:lr-tb;fill:#231f20;fill-opacity:1;fill-rule:nonzero;stroke:none"
       transform="matrix(1,0,0,-1,285.2334,34.002)"><tspan
         id="tspan156"
         y="0"
         x="0 4.5 9 11.25 13.5 18 22.5 24.75 27 29.502001 33.498001 37.998001 41.993999 44.495998">65, 33, label</tspan></text>
<path
       id="path160"
       style="fill:#ffffff;fill-opacity:1;fill-rule:nonzero;stroke:none"
       d="m 275.624,5.2598 h 73.5 v 15.375 h -73.5 z" /><g
       transform="translate(283.312,20.635)"
       id="g162"><path
         id="path164"
         style="fill:none;stroke:#231f20;stroke-width:0.75;stroke-linecap:square;stroke-linejoin:miter;stroke-miterlimit:10;stroke-dasharray:none;stroke-opacity:1"
         d="m 0,0 h 58.125 c 4.244,0 7.688,-3.444 7.688,-7.687 0,-4.244 -3.444,-7.688 -7.688,-7.688 H 0 c -4.242,0 -7.687,3.444 -7.687,7.688 C -7.687,-3.444 -4.242,0 0,0 Z" /></g><text
       id="text168"
       style="font-variant:normal;font-weight:normal;font-stretch:normal;font-size:9px;font-family:Times;-inkscape-font-specification:Times-Roman;writing-mode:lr-tb;fill:#231f20;fill-opacity:1;fill-rule:nonzero;stroke:none"
       transform="matrix(1,0,0,-1,290.1084,10.4454)"><tspan
         id="tspan166"
         y="0"
         x="0 4.5 9 11.25 13.5 18 22.5 24.75 27 29.502001 33.362999 37.862999 40.365002">65, 44, text</tspan></text>
<path
       id="path170"
       style="fill:#ffffff;fill-opacity:1;fill-rule:nonzero;stroke:none"
       d="m 197.907,120.958 h 78.75 v 15.375 h -78.75 z" /><g
       transform="translate(205.595,136.333)"
       id="g172"><path
         id="path174"
         style="fill:none;stroke:#231f20;stroke-width:0.75;stroke-linecap:square;stroke-linejoin:miter;stroke-miterlimit:10;stroke-dasharray:none;stroke-opacity:1"
         d="m 0,0 h 63.375 c 4.244,0 7.687,-3.444 7.687,-7.687 0,-4.245 -3.443,-7.688 -7.687,-7.688 H 0 c -4.243,0 -7.687,3.443 -7.687,7.688 C -7.687,-3.444 -4.243,0 0,0 Z" /></g><text
       id="text178"
       style="font-variant:normal;font-weight:normal;font-stretch:normal;font-size:9px;font-family:Times;-inkscape-font-specification:Times-Roman;writing-mode:lr-tb;fill:#231f20;fill-opacity:1;fill-rule:nonzero;stroke:none"
       transform="matrix(1,0,0,-1,212.7666,126.0752)"><tspan
         id="tspan176"
         y="0"
         x="0 4.5 9 11.25 13.5 18 22.5 24.75 27 29.502001 33.498001 37.998001 41.993999 44.495998">65, 33, label</tspan></text>
<path
       id="path180"
       style="fill:#ffffff;fill-opacity:1;fill-rule:nonzero;stroke:none"
       d="m 203.157,97.333 h 73.5 v 15.375 h -73.5 z" /><g
       transform="translate(210.845,112.708)"
       id="g182"><path
         id="path184"
         style="fill:none;stroke:#231f20;stroke-width:0.75;stroke-linecap:square;stroke-linejoin:miter;stroke-miterlimit:10;stroke-dasharray:none;stroke-opacity:1"
         d="m 0,0 h 58.125 c 4.244,0 7.687,-3.444 7.687,-7.687 0,-4.245 -3.443,-7.688 -7.687,-7.688 H 0 c -4.243,0 -7.687,3.443 -7.687,7.688 C -7.687,-3.444 -4.243,0 0,0 Z" /></g><text
       id="text188"
       style="font-variant:normal;font-weight:normal;font-stretch:normal;font-size:9px;font-family:Times;-inkscape-font-specification:Times-Roman;writing-mode:lr-tb;fill:#231f20;fill-opacity:1;fill-rule:nonzero;stroke:none"
       transform="matrix(1,0,0,-1,217.6416,102.5186)"><tspan
         id="tspan186"
         y="0"
         x="0 4.5 9 11.25 13.5 18 22.5 24.75 27 29.502001 33.362999 37.862999 40.365002">65, 34, text</tspan></text>
<path
       id="path190"
       style="fill:#ffffff;fill-opacity:1;fill-rule:nonzero;stroke:none"
       d="m 125.694,438.673 h 72 v 15.375 h -72 z" /><g
       transform="translate(133.382,454.048)"
       id="g192"><path
         id="path194"
         style="fill:none;stroke:#231f20;stroke-width:0.75;stroke-linecap:square;stroke-linejoin:miter;stroke-miterlimit:10;stroke-dasharray:none;stroke-opacity:1"
         d="m 0,0 h 56.625 c 4.243,0 7.688,-3.444 7.688,-7.687 0,-4.243 -3.445,-7.688 -7.688,-7.688 H 0 c -4.244,0 -7.688,3.445 -7.688,7.688 C -7.688,-3.444 -4.244,0 0,0 Z" /></g><text
       id="text200"
       style="font-variant:normal;font-weight:normal;font-stretch:normal;font-size:9px;font-family:Times;-inkscape-font-specification:Times-Roman;writing-mode:lr-tb;fill:#231f20;fill-opacity:1;fill-rule:nonzero;stroke:none"
       transform="matrix(1,0,0,-1,137.4302,443.9942)"><tspan
         id="tspan196"
         y="0"
         x="0 4.5 9 11.25 13.5 18 22.5 27 29.25 32.247002 36.747002 41.247002 44.243999">59, 172 (61)</tspan><tspan
         id="tspan198"
         y="349.95871"
         x="12.4776 16.9776 20.9736 24.4746 28.4706 31.4676 33.969601 38.469601 40.9716 43.473598 47.973598 52.473598">description</tspan></text>
<g
       transform="translate(70.244,348.638)"
       id="g202"><path
         id="path204"
         style="fill:#ffffff;fill-opacity:1;fill-rule:nonzero;stroke:none"
         d="M 0,0 C 0,2.07 -1.68,3.75 -3.75,3.75 -5.82,3.75 -7.5,2.07 -7.5,0 c 0,-2.07 1.68,-3.75 3.75,-3.75 C -1.68,-3.75 0,-2.07 0,0" /></g><g
       transform="translate(70.244,348.638)"
       id="g206"><path
         id="path208"
         style="fill:none;stroke:#231f20;stroke-width:0.75;stroke-linecap:square;stroke-linejoin:miter;stroke-miterlimit:10;stroke-dasharray:none;stroke-opacity:1"
         d="M 0,0 C 0,2.07 -1.68,3.75 -3.75,3.75 -5.82,3.75 -7.5,2.07 -7.5,0 c 0,-2.07 1.68,-3.75 3.75,-3.75 C -1.68,-3.75 0,-2.07 0,0" /></g><g
       transform="translate(99.944,183.939)"
       id="g210"><path
         id="path212"
         style="fill:#ffffff;fill-opacity:1;fill-rule:nonzero;stroke:none"
         d="M 0,0 C 0,2.07 -1.68,3.75 -3.75,3.75 -5.82,3.75 -7.5,2.07 -7.5,0 c 0,-2.07 1.68,-3.75 3.75,-3.75 C -1.68,-3.75 0,-2.07 0,0" /></g><g
       transform="translate(99.944,183.939)"
       id="g214"><path
         id="path216"
         style="fill:none;stroke:#231f20;stroke-width:0.75;stroke-linecap:square;stroke-linejoin:miter;stroke-miterlimit:10;stroke-dasharray:none;stroke-opacity:1"
         d="M 0,0 C 0,2.07 -1.68,3.75 -3.75,3.75 -5.82,3.75 -7.5,2.07 -7.5,0 c 0,-2.07 1.68,-3.75 3.75,-3.75 C -1.68,-3.75 0,-2.07 0,0" /></g><g
       transform="translate(70.244,433.058)"
       id="g218"><path
         id="path220"
         style="fill:#ffffff;fill-opacity:1;fill-rule:nonzero;stroke:none"
         d="M 0,0 C 0,2.07 -1.68,3.75 -3.75,3.75 -5.82,3.75 -7.5,2.07 -7.5,0 c 0,-2.069 1.68,-3.75 3.75,-3.75 C -1.68,-3.75 0,-2.069 0,0" /></g><g
       transform="translate(70.244,433.058)"
       id="g222"><path
         id="path224"
         style="fill:none;stroke:#231f20;stroke-width:0.75;stroke-linecap:square;stroke-linejoin:miter;stroke-miterlimit:10;stroke-dasharray:none;stroke-opacity:1"
         d="M 0,0 C 0,2.07 -1.68,3.75 -3.75,3.75 -5.82,3.75 -7.5,2.07 -7.5,0 c 0,-2.069 1.68,-3.75 3.75,-3.75 C -1.68,-3.75 0,-2.069 0,0" /></g><text
       id="text244"
       style="font-variant:normal;font-weight:normal;font-stretch:normal;font-size:9px;font-family:Times;-inkscape-font-specification:Times-Roman;writing-mode:lr-tb;fill:#231f20;fill-opacity:1;fill-rule:nonzero;stroke:none"
       transform="matrix(1,0,0,-1,135.8193,410.626)"><tspan
         id="tspan226"
         y="0"
         x="0 3.9960001 7.4970002 10.998 13.5 18 22.5 26.496 30.996 35.495998 39.995998 44.495998 48.492001 52.992001 59.993999 63.990002 68.489998 70.991997">assigned_document</tspan><tspan
         id="tspan228"
         y="20.871"
         x="0 3.5009999 8.0010004 12.501 15.498 19.493999 23.49">source</tspan><tspan
         id="tspan230"
         y="47.4804"
         x="0 2.997 9.4949999 14.994 20.997 23.993999 26.990999 31.490999 33.993 37.988998">(DER)role</tspan><tspan
         id="tspan232"
         y="358.6608"
         x="40.806 44.306999 48.806999 53.306999 56.304001 60.299999 64.295998">source</tspan><tspan
         id="tspan234"
         y="385.03979"
         x="40.806 44.306999 48.806999 53.306999 55.808998 59.805 63.800999 66.303001 70.803001 74.799004 77.301003 81.296997 88.299004 92.294998 96.794998 99.296997">subject_element</tspan><tspan
         id="tspan236"
         y="408.66479"
         x="40.806 44.306999 48.806999 53.306999 55.808998 59.805 63.800999 66.303001 70.803001 74.799004 77.301003 81.296997 88.299004 92.294998 96.794998 99.296997 103.797 108.072 112.068 114.57 119.07 123.066">subject_element_value</tspan><tspan
         id="tspan238"
         y="257.7114"
         x="69.179398 73.1754 76.676399 80.177399 82.679398 87.179398 91.679398 95.6754 100.1754 104.6754 109.1754 113.6754 117.6714 122.1714 129.1734 133.1694 137.6694 140.1714 144.6714 149.1714 152.67239 156.6684 161.1684 165.1644">assigned_document_usage</tspan><tspan
         id="tspan240"
         y="290.21219"
         x="14.0895 18.5895 22.585501 29.5875 33.5835">name</tspan><tspan
         id="tspan242"
         y="266.7114"
         x="-28.320299 -25.323299 -20.823299 -18.321301 -14.3253">role</tspan></text>
<path
       id="path246"
       style="fill:#ffffff;fill-opacity:1;fill-rule:nonzero;stroke:none"
       d="m 8.3193,366.673 h 116.25 v 62.625 H 8.3193 Z" /><g
       transform="translate(8.3193,429.298)"
       id="g248"><path
         id="path250"
         style="fill:none;stroke:#231f20;stroke-width:0.75;stroke-linecap:square;stroke-linejoin:miter;stroke-miterlimit:10;stroke-dasharray:none;stroke-opacity:1"
         d="M 116.25,0 H 0 v -62.625 h 116.25 z" /><g
         id="g252"><path
           id="path254"
           style="fill:none;stroke:#231f20;stroke-width:0.75;stroke-linecap:square;stroke-linejoin:miter;stroke-miterlimit:10;stroke-dasharray:none;stroke-opacity:1"
           d="M 0,0 Z" /></g></g><text
       id="text258"
       style="font-variant:normal;font-weight:normal;font-stretch:normal;font-size:9px;font-family:Times;-inkscape-font-specification:Times-Roman;writing-mode:lr-tb;fill:#231f20;fill-opacity:1;fill-rule:nonzero;stroke:none"
       transform="matrix(1,0,0,-1,13.1733,395.6011)"><tspan
         id="tspan256"
         y="0"
         x="0 2.997 9.4949999 15.498 20.502001 23.499001 27.999001 32.499001 36.494999 40.994999 47.997002 51.993 56.493 58.994999 63.494999 66.491997 70.487999 73.485001 77.481003 80.477997 84.473999 88.973999 92.970001 96.966003">(ABS)document_reference</tspan></text>
<path
       id="path260"
       style="fill:#ffffff;fill-opacity:1;fill-rule:nonzero;stroke:none"
       d="m 2.3193,320.173 h 128.25 v 24.75 H 2.3193 Z" /><g
       transform="translate(2.3193,344.923)"
       id="g262"><path
         id="path264"
         style="fill:none;stroke:#231f20;stroke-width:0.75;stroke-linecap:square;stroke-linejoin:miter;stroke-miterlimit:10;stroke-dasharray:none;stroke-opacity:1"
         d="M 128.25,0 H 0 v -24.75 h 128.25 z" /><g
         id="g266"><path
           id="path268"
           style="fill:none;stroke:#231f20;stroke-width:0.75;stroke-linecap:square;stroke-linejoin:miter;stroke-miterlimit:10;stroke-dasharray:none;stroke-opacity:1"
           d="M 0,0 Z" /></g></g><text
       id="text272"
       style="font-variant:normal;font-weight:normal;font-stretch:normal;font-size:9px;font-family:Times;-inkscape-font-specification:Times-Roman;writing-mode:lr-tb;fill:#231f20;fill-opacity:1;fill-rule:nonzero;stroke:none"
       transform="matrix(1,0,0,-1,12.1645,330.2041)"><tspan
         id="tspan270"
         y="0"
         x="0 3.9960001 8.4960003 12.996 15.498 18 21.996 26.496 30.996 35.495998 39.995998 43.992001 48.492001 55.493999 59.490002 63.990002 66.491997 70.991997 73.988998 77.985001 80.982002 84.977997 87.974998 91.971001 96.471001 100.467 104.463">applied_document_reference</tspan></text>
<path
       id="path274"
       style="fill:#ffffff;fill-opacity:1;fill-rule:nonzero;stroke:none"
       d="m 0.37502,187.697 h 204.749 v 15.375 H 0.37502 Z" /><g
       transform="translate(0.37502,203.072)"
       id="g276"><path
         id="path278"
         style="fill:none;stroke:#231f20;stroke-width:0.75;stroke-linecap:square;stroke-linejoin:miter;stroke-miterlimit:10;stroke-dasharray:none;stroke-opacity:1"
         d="M 204.749,0 H 0 v -15.375 h 204.749 z" /><g
         id="g280"><path
           id="path282"
           style="fill:none;stroke:#231f20;stroke-width:0.75;stroke-linecap:square;stroke-linejoin:miter;stroke-miterlimit:10;stroke-dasharray:none;stroke-opacity:1"
           d="M 0,0 Z" /></g></g><text
       id="text286"
       style="font-variant:normal;font-weight:normal;font-stretch:normal;font-size:9px;font-family:Times;-inkscape-font-specification:Times-Roman;writing-mode:lr-tb;fill:#231f20;fill-opacity:1;fill-rule:nonzero;stroke:none"
       transform="matrix(1,0,0,-1,13.7007,193.1436)"><tspan
         id="tspan284"
         y="0"
         x="0 3.9960001 8.4960003 12.996 15.498 18 21.996 26.496 30.996 35.495998 39.995998 43.992001 48.492001 55.493999 59.490002 63.990002 66.491997 70.991997 75.491997 78.992996 82.988998 87.488998 91.485001 95.985001 99.981003 104.481 108.981 112.482 114.984 117.981 121.977 124.479 128.979 131.481 135.981 139.97701 143.478 146.979 149.481 153.981 158.481 165.483 169.479 173.979 176.481">applied_document_usage_constraint_assignment</tspan></text>
<path
       id="path288"
       style="fill:#ffffff;fill-opacity:1;fill-rule:nonzero;stroke:none"
       d="m 0.37502,154.9 h 193.373 v 16.673 H 0.37502 Z" /><g
       transform="translate(0.37502,171.572)"
       id="g290"><path
         id="path292"
         style="fill:none;stroke:#231f20;stroke-width:0.75;stroke-linecap:square;stroke-linejoin:miter;stroke-miterlimit:10;stroke-dasharray:none;stroke-opacity:1"
         d="M 193.373,0 H 0 v -16.673 h 193.373 z" /><g
         id="g294"><path
           id="path296"
           style="fill:none;stroke:#231f20;stroke-width:0.75;stroke-linecap:square;stroke-linejoin:miter;stroke-miterlimit:10;stroke-dasharray:none;stroke-opacity:1"
           d="M 0,0 Z" /></g></g><text
       id="text300"
       style="font-variant:normal;font-weight:normal;font-stretch:normal;font-size:9px;font-family:Times;-inkscape-font-specification:Times-Roman;writing-mode:lr-tb;fill:#231f20;fill-opacity:1;fill-rule:nonzero;stroke:none"
       transform="matrix(1,0,0,-1,9.0205,160.9092)"><tspan
         id="tspan298"
         y="0"
         x="0 2.997 9.4949999 15.498 20.502001 23.499001 27.999001 32.499001 36.494999 40.994999 47.997002 51.993 56.493 58.994999 63.494999 67.995003 71.496002 75.491997 79.991997 83.987999 88.487999 92.484001 96.984001 101.484 104.985 107.487 110.484 114.48 116.982 121.482 123.984 128.48399 132.48 135.981 139.48199 141.98399 146.48399 150.98399 157.98599 161.98199 166.48199 168.98399">(ABS)document_usage_constraint_assignment</tspan></text>
<path
       id="path302"
       style="fill:#ffffff;fill-opacity:1;fill-rule:nonzero;stroke:none"
       d="m 42.375,5.2598 h 123 v 62.625 h -123 z" /><g
       transform="translate(42.375,67.885)"
       id="g304"><path
         id="path306"
         style="fill:none;stroke:#231f20;stroke-width:0.75;stroke-linecap:square;stroke-linejoin:miter;stroke-miterlimit:10;stroke-dasharray:none;stroke-opacity:1"
         d="M 123,0 H 0 v -62.625 h 123 z" /><g
         id="g308"><path
           id="path310"
           style="fill:none;stroke:#231f20;stroke-width:0.75;stroke-linecap:square;stroke-linejoin:miter;stroke-miterlimit:10;stroke-dasharray:none;stroke-opacity:1"
           d="M 0,0 Z" /></g></g><text
       id="text314"
       style="font-variant:normal;font-weight:normal;font-stretch:normal;font-size:9px;font-family:Times;-inkscape-font-specification:Times-Roman;writing-mode:lr-tb;fill:#231f20;fill-opacity:1;fill-rule:nonzero;stroke:none"
       transform="matrix(1,0,0,-1,53.3462,34.3311)"><tspan
         id="tspan312"
         y="0"
         x="0 4.5 9 12.996 17.496 24.497999 28.493999 32.993999 35.495998 39.995998 44.495998 47.997002 51.993 56.493 60.488998 64.988998 68.985001 73.485001 77.985001 81.486 83.987999 86.985001 90.981003 93.483002 97.983002 100.485">document_usage_constraint</tspan></text>
<path
       id="path316"
       style="fill:#ffffff;fill-opacity:1;fill-rule:nonzero;stroke:none"
       d="m 44.158,97.333 h 98.25 v 39 h -98.25 z" /><g
       transform="translate(44.158,136.333)"
       id="g318"><path
         id="path320"
         style="fill:none;stroke:#231f20;stroke-width:0.75;stroke-linecap:square;stroke-linejoin:miter;stroke-miterlimit:10;stroke-dasharray:none;stroke-opacity:1"
         d="M 98.25,0 H 0 v -39 h 98.25 z" /><g
         id="g322"><path
           id="path324"
           style="fill:none;stroke:#231f20;stroke-width:0.75;stroke-linecap:square;stroke-linejoin:miter;stroke-miterlimit:10;stroke-dasharray:none;stroke-opacity:1"
           d="M 0,0 Z" /></g></g><text
       id="text328"
       style="font-variant:normal;font-weight:normal;font-stretch:normal;font-size:9px;font-family:Times;-inkscape-font-specification:Times-Roman;writing-mode:lr-tb;fill:#231f20;fill-opacity:1;fill-rule:nonzero;stroke:none"
       transform="matrix(1,0,0,-1,53.7598,114.5909)"><tspan
         id="tspan326"
         y="0"
         x="0 4.5 9 12.996 17.496 24.497999 28.493999 32.993999 35.495998 39.995998 44.495998 47.997002 51.993 56.493 60.488998 64.988998 67.986 72.486 74.987999 78.984001">document_usage_role</tspan></text>
<g
       transform="translate(107.684,71.618)"
       id="g330"><path
         id="path332"
         style="fill:#ffffff;fill-opacity:1;fill-rule:nonzero;stroke:none"
         d="M 0,0 C 0,2.07 -1.68,3.75 -3.75,3.75 -5.82,3.75 -7.5,2.07 -7.5,0 c 0,-2.07 1.68,-3.75 3.75,-3.75 C -1.68,-3.75 0,-2.07 0,0" /></g><g
       transform="translate(107.684,71.618)"
       id="g334"><path
         id="path336"
         style="fill:none;stroke:#231f20;stroke-width:0.75;stroke-linecap:square;stroke-linejoin:miter;stroke-miterlimit:10;stroke-dasharray:none;stroke-opacity:1"
         d="M 0,0 C 0,2.07 -1.68,3.75 -3.75,3.75 -5.82,3.75 -7.5,2.07 -7.5,0 c 0,-2.07 1.68,-3.75 3.75,-3.75 C -1.68,-3.75 0,-2.07 0,0" /></g><g
       transform="translate(100.754,140.108)"
       id="g338"><path
         id="path340"
         style="fill:#ffffff;fill-opacity:1;fill-rule:nonzero;stroke:none"
         d="M 0,0 C 0,2.069 -1.68,3.75 -3.75,3.75 -5.82,3.75 -7.5,2.069 -7.5,0 c 0,-2.07 1.68,-3.75 3.75,-3.75 C -1.68,-3.75 0,-2.07 0,0" /></g><g
       transform="translate(100.754,140.108)"
       id="g342"><path
         id="path344"
         style="fill:none;stroke:#231f20;stroke-width:0.75;stroke-linecap:square;stroke-linejoin:miter;stroke-miterlimit:10;stroke-dasharray:none;stroke-opacity:1"
         d="M 0,0 C 0,2.069 -1.68,3.75 -3.75,3.75 -5.82,3.75 -7.5,2.069 -7.5,0 c 0,-2.07 1.68,-3.75 3.75,-3.75 C -1.68,-3.75 0,-2.07 0,0" /></g><path
       id="path346"
       style="fill:#ffffff;fill-opacity:1;fill-rule:nonzero;stroke:none"
       d="m 246.444,218.736 h 123.75 v 86.249 h -123.75 z" /><path
       id="path348"
       style="fill:none;stroke:#231f20;stroke-width:0.75;stroke-linecap:square;stroke-linejoin:miter;stroke-miterlimit:10;stroke-dasharray:3.75, 3.75;stroke-dashoffset:0;stroke-opacity:1"
       d="m 246.444,304.986 v -86.25 h 123.75 v 86.25 z" /><path
       id="path350"
       style="fill:none;stroke:#231f20;stroke-width:0.75;stroke-linecap:square;stroke-linejoin:miter;stroke-miterlimit:10;stroke-dasharray:3.75, 3.75;stroke-dashoffset:0;stroke-opacity:1"
       d="m 253.944,218.736 v 86.25" /><text
       id="text354"
       style="font-variant:normal;font-weight:normal;font-stretch:normal;font-size:9px;font-family:Times;-inkscape-font-specification:Times-Roman;writing-mode:lr-tb;fill:#231f20;fill-opacity:1;fill-rule:nonzero;stroke:none"
       transform="matrix(1,0,0,-1,263.7969,259.148)"><tspan
         id="tspan352"
         y="0"
         x="0 4.5 9 12.996 17.496 24.497999 28.493999 32.993999 35.495998 39.995998 42.993 46.988998 49.986 53.981998 56.979 60.974998 65.474998 69.471001 73.467003 77.967003 80.469002 82.971001 86.967003 93.969002">document_reference_item</tspan></text>
<g
       transform="translate(310.725,308.678)"
       id="g356"><path
         id="path358"
         style="fill:#ffffff;fill-opacity:1;fill-rule:nonzero;stroke:none"
         d="M 0,0 C 0,2.07 -1.681,3.75 -3.75,3.75 -5.821,3.75 -7.5,2.07 -7.5,0 c 0,-2.069 1.679,-3.75 3.75,-3.75 C -1.681,-3.75 0,-2.069 0,0" /></g><g
       transform="translate(310.725,308.678)"
       id="g360"><path
         id="path362"
         style="fill:none;stroke:#231f20;stroke-width:0.75;stroke-linecap:square;stroke-linejoin:miter;stroke-miterlimit:10;stroke-dasharray:none;stroke-opacity:1"
         d="M 0,0 C 0,2.07 -1.681,3.75 -3.75,3.75 -5.821,3.75 -7.5,2.07 -7.5,0 c 0,-2.069 1.679,-3.75 3.75,-3.75 C -1.681,-3.75 0,-2.069 0,0" /></g><text
       id="text366"
       style="font-variant:normal;font-weight:normal;font-stretch:normal;font-size:9px;font-family:Times;-inkscape-font-specification:Times-Roman;writing-mode:lr-tb;fill:#231f20;fill-opacity:1;fill-rule:nonzero;stroke:none"
       transform="matrix(1,0,0,-1,138.0693,325.96)"><tspan
         id="tspan364"
         y="0"
         x="0 2.5020001 5.0040002 9 16.002001 19.503 21.753 26.757 29.754 34.254002 36.756001 40.751999 43.749001">items S[1:?]</tspan></text>
<g
       transform="translate(313.784,214.988)"
       id="g368"><path
         id="path370"
         style="fill:#ffffff;fill-opacity:1;fill-rule:nonzero;stroke:none"
         d="M 0,0 C 0,2.069 -1.68,3.75 -3.75,3.75 -5.82,3.75 -7.5,2.069 -7.5,0 c 0,-2.07 1.68,-3.75 3.75,-3.75 C -1.68,-3.75 0,-2.07 0,0" /></g><g
       transform="translate(313.784,214.988)"
       id="g372"><path
         id="path374"
         style="fill:none;stroke:#231f20;stroke-width:0.75;stroke-linecap:square;stroke-linejoin:miter;stroke-miterlimit:10;stroke-dasharray:none;stroke-opacity:1"
         d="M 0,0 C 0,2.069 -1.68,3.75 -3.75,3.75 -5.82,3.75 -7.5,2.069 -7.5,0 c 0,-2.07 1.68,-3.75 3.75,-3.75 C -1.68,-3.75 0,-2.07 0,0" /></g><text
       id="text378"
       style="font-variant:normal;font-weight:normal;font-stretch:normal;font-size:9px;font-family:Times;-inkscape-font-specification:Times-Roman;writing-mode:lr-tb;fill:#231f20;fill-opacity:1;fill-rule:nonzero;stroke:none"
       transform="matrix(1,0,0,-1,210.374,184.1084)"><tspan
         id="tspan376"
         y="0"
         x="0 2.5020001 5.0040002 9 16.002001 19.503 21.753 26.757 29.754 34.254002 36.756001 40.751999 43.749001">items S[1:?]</tspan></text>
<path
       id="path380"
       style="fill:#ffffff;fill-opacity:1;fill-rule:nonzero;stroke:none"
       d="m 29.694,289.611 h 194.25 v 15.375 H 29.694 Z" /><g
       transform="translate(37.382,304.986)"
       id="g382"><path
         id="path384"
         style="fill:none;stroke:#231f20;stroke-width:0.75;stroke-linecap:square;stroke-linejoin:miter;stroke-miterlimit:10;stroke-dasharray:none;stroke-opacity:1"
         d="m 0,0 h 178.875 c 4.243,0 7.688,-3.444 7.688,-7.687 0,-4.243 -3.445,-7.688 -7.688,-7.688 H 0 c -4.244,0 -7.687,3.445 -7.687,7.688 C -7.687,-3.444 -4.244,0 0,0 Z" /></g><text
       id="text388"
       style="font-variant:normal;font-weight:normal;font-stretch:normal;font-size:9px;font-family:Times;-inkscape-font-specification:Times-Roman;writing-mode:lr-tb;fill:#231f20;fill-opacity:1;fill-rule:nonzero;stroke:none"
       transform="matrix(1,0,0,-1,36.6943,294.9854)"><tspan
         id="tspan386"
         y="0"
         x="0 4.5 9 11.25 13.5 18 22.5 27 29.25 31.5 35.361 39.861 42.362999 46.359001 49.355999 53.855999 57.852001 60.354 62.855999 67.356003 71.856003 76.356003 80.351997 83.168999 85.670998 90.170998 94.167 98.667 103.167 107.667 110.169 117.171 121.167 125.667 129.168 131.67 136.17 140.67 145.17 149.67 153.666 156.483 158.985 163.485 165.987 168.489 170.991 175.491 179.991">45, 123, externally_defined_dimension_definition</tspan></text>
<path
       id="path390"
       style="fill:#ffffff;fill-opacity:1;fill-rule:nonzero;stroke:none"
       d="m 29.694,265.986 h 186 v 15.375 h -186 z" /><g
       transform="translate(37.382,281.361)"
       id="g392"><path
         id="path394"
         style="fill:none;stroke:#231f20;stroke-width:0.75;stroke-linecap:square;stroke-linejoin:miter;stroke-miterlimit:10;stroke-dasharray:none;stroke-opacity:1"
         d="m 0,0 h 170.625 c 4.243,0 7.688,-3.444 7.688,-7.687 0,-4.243 -3.445,-7.688 -7.688,-7.688 H 0 c -4.244,0 -7.687,3.445 -7.687,7.688 C -7.687,-3.444 -4.244,0 0,0 Z" /></g><text
       id="text398"
       style="font-variant:normal;font-weight:normal;font-stretch:normal;font-size:9px;font-family:Times;-inkscape-font-specification:Times-Roman;writing-mode:lr-tb;fill:#231f20;fill-opacity:1;fill-rule:nonzero;stroke:none"
       transform="matrix(1,0,0,-1,36.6416,271.3604)"><tspan
         id="tspan396"
         y="0"
         x="0 4.5 9 11.25 13.5 18 22.5 27 29.25 31.5 35.361 39.861 42.362999 46.359001 49.355999 53.855999 57.852001 60.354 62.855999 67.356003 71.856003 76.356003 80.351997 83.168999 85.670998 90.170998 94.167 98.667 103.167 106.164 110.16 114.156 116.658 121.158 124.155 128.151 132.651 137.151 141.147 143.964 146.466 150.966 153.468 155.97 158.472 162.972 167.472">41, 124, externally_defined_feature_definition</tspan></text>
<path
       id="path400"
       style="fill:#ffffff;fill-opacity:1;fill-rule:nonzero;stroke:none"
       d="m 29.694,242.361 h 127.5 v 15.375 h -127.5 z" /><g
       transform="translate(37.382,257.736)"
       id="g402"><path
         id="path404"
         style="fill:none;stroke:#231f20;stroke-width:0.75;stroke-linecap:square;stroke-linejoin:miter;stroke-miterlimit:10;stroke-dasharray:none;stroke-opacity:1"
         d="m 0,0 h 112.125 c 4.243,0 7.688,-3.444 7.688,-7.687 0,-4.243 -3.445,-7.688 -7.688,-7.688 H 0 c -4.244,0 -7.687,3.445 -7.687,7.688 C -7.687,-3.444 -4.244,0 0,0 Z" /></g><text
       id="text408"
       style="font-variant:normal;font-weight:normal;font-stretch:normal;font-size:9px;font-family:Times;-inkscape-font-specification:Times-Roman;writing-mode:lr-tb;fill:#231f20;fill-opacity:1;fill-rule:nonzero;stroke:none"
       transform="matrix(1,0,0,-1,34.4136,247.8077)"><tspan
         id="tspan406"
         y="0"
         x="0 4.5 9 11.25 13.5 18 22.5 27 29.25 31.5 38.501999 42.498001 45 48.995998 51.993 54.494999 58.491001 60.993 65.492996 69.992996 73.988998 77.489998 79.991997 84.491997 88.991997 92.987999 95.489998 97.991997 102.492 106.992">15, 125, material_designation</tspan></text>
<path
       id="path410"
       style="fill:#ffffff;fill-opacity:1;fill-rule:nonzero;stroke:none"
       d="m 29.694,218.736 h 117.75 V 234.11 H 29.694 Z" /><g
       transform="translate(37.382,234.111)"
       id="g412"><path
         id="path414"
         style="fill:none;stroke:#231f20;stroke-width:0.75;stroke-linecap:square;stroke-linejoin:miter;stroke-miterlimit:10;stroke-dasharray:none;stroke-opacity:1"
         d="m 0,0 h 102.375 c 4.243,0 7.688,-3.444 7.688,-7.687 0,-4.243 -3.445,-7.687 -7.688,-7.687 H 0 c -4.244,0 -7.687,3.444 -7.687,7.687 C -7.687,-3.444 -4.244,0 0,0 Z" /></g><text
       id="text418"
       style="font-variant:normal;font-weight:normal;font-stretch:normal;font-size:9px;font-family:Times;-inkscape-font-specification:Times-Roman;writing-mode:lr-tb;fill:#231f20;fill-opacity:1;fill-rule:nonzero;stroke:none"
       transform="matrix(1,0,0,-1,36.5405,224.1114)"><tspan
         id="tspan416"
         y="0"
         x="0 4.5 9 11.25 13.5 18 22.5 24.75 27 31.5 34.497002 38.997002 43.497002 47.493 50.490002 52.992001 57.492001 61.992001 66.491997 70.487999 73.305 75.806999 80.306999 82.808998 85.310997 87.813004 92.313004 96.813004">14, 58, property_definition</tspan></text>
</g></svg>