<?xml version="1.0" encoding="UTF-8" standalone="no"?>
<svg
   xmlns:dc="http://purl.org/dc/elements/1.1/"
   xmlns:cc="http://creativecommons.org/ns#"
   xmlns:rdf="http://www.w3.org/1999/02/22-rdf-syntax-ns#"
   xmlns:svg="http://www.w3.org/2000/svg"
   xmlns="http://www.w3.org/2000/svg"
   viewBox="0 0 417 607.77869"
   height="607.77869"
   width="417"
   xml:space="preserve"
   id="svg2"
   version="1.1"><metadata
     id="metadata8"><rdf:RDF><cc:Work
         rdf:about=""><dc:format>image/svg+xml</dc:format><dc:type
           rdf:resource="http://purl.org/dc/dcmitype/StillImage" /></cc:Work></rdf:RDF></metadata><defs
     id="defs6" /><g
     transform="matrix(1.3333333,0,0,-1.3333333,0,607.77867)"
     id="g10"><g
       transform="translate(1.125,293.696)"
       id="g12"><path
         id="path14"
         style="fill:none;stroke:#231f20;stroke-width:2.25;stroke-linecap:square;stroke-linejoin:miter;stroke-miterlimit:10;stroke-dasharray:none;stroke-opacity:1"
         d="M 0,0 H 17.25" /></g><g
       transform="translate(66.75,447.9)"
       id="g16"><path
         id="path18"
         style="fill:none;stroke:#231f20;stroke-width:0.75;stroke-linecap:square;stroke-linejoin:miter;stroke-miterlimit:10;stroke-dasharray:none;stroke-opacity:1"
         d="M 0,0 V -8.191" /><g
         transform="translate(76.875,-23.379)"
         id="g20"><path
           id="path22"
           style="fill:none;stroke:#231f20;stroke-width:0.75;stroke-linecap:square;stroke-linejoin:miter;stroke-miterlimit:10;stroke-dasharray:none;stroke-opacity:1"
           d="M 0,0 H -58.125" /></g></g><path
       id="path24"
       style="fill:none;stroke:#231f20;stroke-width:0.75;stroke-linecap:square;stroke-linejoin:miter;stroke-miterlimit:10;stroke-dasharray:3.75, 3.75;stroke-dashoffset:0;stroke-opacity:1"
       d="M 207,400.897 H 85.5" /><g
       transform="translate(164.25,377.272)"
       id="g26"><path
         id="path28"
         style="fill:none;stroke:#231f20;stroke-width:0.75;stroke-linecap:square;stroke-linejoin:miter;stroke-miterlimit:10;stroke-dasharray:none;stroke-opacity:1"
         d="M 0,0 H -78.75" /><g
         transform="translate(20.25,-23.625)"
         id="g30"><path
           id="path32"
           style="fill:none;stroke:#231f20;stroke-width:0.75;stroke-linecap:square;stroke-linejoin:miter;stroke-miterlimit:10;stroke-dasharray:none;stroke-opacity:1"
           d="M 0,0 H -99" /><g
           transform="translate(31.5,-100.312)"
           id="g34"><path
             id="path36"
             style="fill:none;stroke:#231f20;stroke-width:0.75;stroke-linecap:square;stroke-linejoin:miter;stroke-miterlimit:10;stroke-dasharray:none;stroke-opacity:1"
             d="M 0,0 H -70.5" /><g
             transform="translate(5.25,-23.625)"
             id="g38"><path
               id="path40"
               style="fill:none;stroke:#231f20;stroke-width:0.75;stroke-linecap:square;stroke-linejoin:miter;stroke-miterlimit:10;stroke-dasharray:none;stroke-opacity:1"
               d="M 0,0 H -75.75" /><g
               transform="translate(6.651,-23.625)"
               id="g42"><path
                 id="path44"
                 style="fill:none;stroke:#231f20;stroke-width:0.75;stroke-linecap:square;stroke-linejoin:miter;stroke-miterlimit:10;stroke-dasharray:none;stroke-opacity:1"
                 d="M 0,0 H -82.401" /><g
                 transform="translate(-46.026,92.813)"
                 id="g46"><path
                   id="path48"
                   style="fill:none;stroke:#231f20;stroke-width:0.75;stroke-linecap:square;stroke-linejoin:miter;stroke-miterlimit:10;stroke-dasharray:none;stroke-opacity:1"
                   d="M 0,0 H -34.5" /><g
                   transform="translate(-73.973,-30.375)"
                   id="g50"><path
                     id="path52"
                     style="fill:none;stroke:#231f20;stroke-width:0.75;stroke-linecap:square;stroke-linejoin:miter;stroke-miterlimit:10;stroke-dasharray:none;stroke-opacity:1"
                     d="M 0,0 V 13.313" /></g></g></g></g></g></g></g><g
       transform="translate(66.75,339.49)"
       id="g54"><path
         id="path56"
         style="fill:none;stroke:#231f20;stroke-width:2.25;stroke-linecap:square;stroke-linejoin:miter;stroke-miterlimit:10;stroke-dasharray:none;stroke-opacity:1"
         d="M 0,0 V 6.469" /></g><g
       transform="translate(44.456,274.335)"
       id="g58"><path
         id="path60"
         style="fill:none;stroke:#231f20;stroke-width:0.75;stroke-linecap:square;stroke-linejoin:miter;stroke-miterlimit:10;stroke-dasharray:none;stroke-opacity:1"
         d="M 0,0 -0.231,-13.314" /><g
         transform="translate(158.869,-180.21)"
         id="g62"><path
           id="path64"
           style="fill:none;stroke:#231f20;stroke-width:0.75;stroke-linecap:square;stroke-linejoin:miter;stroke-miterlimit:10;stroke-dasharray:none;stroke-opacity:1"
           d="M 0,0 H -55.5" /><g
           transform="translate(5.25,-23.625)"
           id="g66"><path
             id="path68"
             style="fill:none;stroke:#231f20;stroke-width:0.75;stroke-linecap:square;stroke-linejoin:miter;stroke-miterlimit:10;stroke-dasharray:none;stroke-opacity:1"
             d="M 0,0 H -60.75" /><g
             transform="translate(-33.375,67.688)"
             id="g70"><path
               id="path72"
               style="fill:none;stroke:#231f20;stroke-width:0.75;stroke-linecap:square;stroke-linejoin:miter;stroke-miterlimit:10;stroke-dasharray:none;stroke-opacity:1"
               d="M 0,0 H -69" /><g
               transform="translate(-87.32,-28.876)"
               id="g74"><path
                 id="path76"
                 style="fill:none;stroke:#231f20;stroke-width:0.75;stroke-linecap:square;stroke-linejoin:miter;stroke-miterlimit:10;stroke-dasharray:none;stroke-opacity:1"
                 d="M 0,0 0.146,11.813" /><g
                 transform="translate(-47.854,4.313)"
                 id="g78"><path
                   id="path80"
                   style="fill:none;stroke:#231f20;stroke-width:0.75;stroke-linecap:square;stroke-linejoin:miter;stroke-miterlimit:10;stroke-dasharray:none;stroke-opacity:1"
                   d="M 0,0 V -11.812" /><g
                   transform="translate(31.944,-66.752)"
                   id="g82"><path
                     id="path84"
                     style="fill:none;stroke:#231f20;stroke-width:0.75;stroke-linecap:square;stroke-linejoin:miter;stroke-miterlimit:10;stroke-dasharray:none;stroke-opacity:1"
                     d="M 0,0 -0.444,15.939" /><g
                     transform="translate(71.654,377.648)"
                     id="g86"><path
                       id="path88"
                       style="fill:none;stroke:#231f20;stroke-width:0.75;stroke-linecap:square;stroke-linejoin:miter;stroke-miterlimit:10;stroke-dasharray:none;stroke-opacity:1"
                       d="M 0,0 H 58.125" /><g
                       transform="translate(84.276,-218.438)"
                       id="g90"><path
                         id="path92"
                         style="fill:none;stroke:#231f20;stroke-width:0.75;stroke-linecap:square;stroke-linejoin:miter;stroke-miterlimit:10;stroke-dasharray:none;stroke-opacity:1"
                         d="M 0,0 V -14.812" /><g
                         transform="translate(-46.026,92.813)"
                         id="g94"><path
                           id="path96"
                           style="fill:none;stroke:#231f20;stroke-width:0.75;stroke-linecap:square;stroke-linejoin:miter;stroke-miterlimit:10;stroke-dasharray:none;stroke-opacity:1"
                           d="M 0,0 H 34.5" /><g
                           transform="translate(-71.25,149.004)"
                           id="g98"><path
                             id="path100"
                             style="fill:none;stroke:#231f20;stroke-width:0.75;stroke-linecap:square;stroke-linejoin:miter;stroke-miterlimit:10;stroke-dasharray:none;stroke-opacity:1"
                             d="M 0,0 H -43.875" /><g
                             transform="translate(33,-23.379)"
                             id="g102"><path
                               id="path104"
                               style="fill:none;stroke:#231f20;stroke-width:0.75;stroke-linecap:square;stroke-linejoin:miter;stroke-miterlimit:10;stroke-dasharray:none;stroke-opacity:1"
                               d="M 0,0 V 0" /><g
                               transform="translate(38.25,-125.625)"
                               id="g106"><path
                                 id="path108"
                                 style="fill:none;stroke:#231f20;stroke-width:0.75;stroke-linecap:square;stroke-linejoin:miter;stroke-miterlimit:10;stroke-dasharray:none;stroke-opacity:1"
                                 d="M 0,0 V 0" /></g></g></g></g></g></g></g></g></g></g></g></g></g><g
       transform="translate(66.75,339.49)"
       id="g110"><path
         id="path112"
         style="fill:none;stroke:#231f20;stroke-width:2.25;stroke-linecap:square;stroke-linejoin:miter;stroke-miterlimit:10;stroke-dasharray:none;stroke-opacity:1"
         d="M 0,0 H -65.625 V -207.799 H -50.55" /></g><g
       transform="translate(143.7,31.688)"
       id="g114"><path
         id="path116"
         style="fill:none;stroke:#231f20;stroke-width:0.75;stroke-linecap:square;stroke-linejoin:miter;stroke-miterlimit:10;stroke-dasharray:none;stroke-opacity:1"
         d="M 0,0 H -11.25" /><g
         transform="translate(11.25)"
         id="g118"><path
           id="path120"
           style="fill:none;stroke:#231f20;stroke-width:0.75;stroke-linecap:square;stroke-linejoin:miter;stroke-miterlimit:10;stroke-dasharray:none;stroke-opacity:1"
           d="M 0,0 H -11.25 V 0" /><g
           transform="translate(-22.5,-23.625)"
           id="g122"><path
             id="path124"
             style="fill:none;stroke:#231f20;stroke-width:0.75;stroke-linecap:square;stroke-linejoin:miter;stroke-miterlimit:10;stroke-dasharray:none;stroke-opacity:1"
             d="M 0,0 H 30.75" /></g></g></g><path
       id="path126"
       style="fill:#ffffff;fill-opacity:1;fill-rule:nonzero;stroke:none"
       d="m 201.75,416.834 h 78.75 v 15.375 h -78.75 z" /><g
       transform="translate(209.437,432.209)"
       id="g128"><path
         id="path130"
         style="fill:none;stroke:#231f20;stroke-width:0.75;stroke-linecap:square;stroke-linejoin:miter;stroke-miterlimit:10;stroke-dasharray:none;stroke-opacity:1"
         d="m 0,0 h 63.375 c 4.243,0 7.688,-3.443 7.688,-7.687 0,-4.244 -3.445,-7.688 -7.688,-7.688 H 0 c -4.243,0 -7.687,3.444 -7.687,7.688 C -7.687,-3.443 -4.243,0 0,0 Z" /></g><text
       id="text134"
       style="font-variant:normal;font-weight:normal;font-stretch:normal;font-size:9px;font-family:Times;-inkscape-font-specification:Times-Roman;writing-mode:lr-tb;fill:#231f20;fill-opacity:1;fill-rule:nonzero;stroke:none"
       transform="matrix(1,0,0,-1,216.6094,421.9522)"><tspan
         id="tspan132"
         y="0"
         x="0 4.5 9 11.25 13.5 18 22.5 24.75 27 29.502001 33.498001 37.998001 41.993999 44.495998">65, 33, label</tspan></text>
<path
       id="path136"
       style="fill:#ffffff;fill-opacity:1;fill-rule:nonzero;stroke:none"
       d="m 207,393.209 h 73.5 v 15.375 H 207 Z" /><g
       transform="translate(214.687,408.584)"
       id="g138"><path
         id="path140"
         style="fill:none;stroke:#231f20;stroke-width:0.75;stroke-linecap:square;stroke-linejoin:miter;stroke-miterlimit:10;stroke-dasharray:none;stroke-opacity:1"
         d="m 0,0 h 58.125 c 4.243,0 7.688,-3.443 7.688,-7.687 0,-4.244 -3.445,-7.688 -7.688,-7.688 H 0 c -4.243,0 -7.687,3.444 -7.687,7.688 C -7.687,-3.443 -4.243,0 0,0 Z" /></g><text
       id="text144"
       style="font-variant:normal;font-weight:normal;font-stretch:normal;font-size:9px;font-family:Times;-inkscape-font-specification:Times-Roman;writing-mode:lr-tb;fill:#231f20;fill-opacity:1;fill-rule:nonzero;stroke:none"
       transform="matrix(1,0,0,-1,221.4834,398.3946)"><tspan
         id="tspan142"
         y="0"
         x="0 4.5 9 11.25 13.5 18 22.5 24.75 27 29.502001 33.362999 37.862999 40.365002">65, 34, text</tspan></text>
<path
       id="path146"
       style="fill:#ffffff;fill-opacity:1;fill-rule:nonzero;stroke:none"
       d="M 164.25,369.584 H 280.5 v 15.375 H 164.25 Z" /><g
       transform="translate(171.937,384.959)"
       id="g148"><path
         id="path150"
         style="fill:none;stroke:#231f20;stroke-width:0.75;stroke-linecap:square;stroke-linejoin:miter;stroke-miterlimit:10;stroke-dasharray:none;stroke-opacity:1"
         d="m 0,0 h 100.875 c 4.243,0 7.688,-3.443 7.688,-7.687 0,-4.244 -3.445,-7.688 -7.688,-7.688 H 0 c -4.243,0 -7.687,3.444 -7.687,7.688 C -7.687,-3.443 -4.243,0 0,0 Z" /></g><text
       id="text154"
       style="font-variant:normal;font-weight:normal;font-stretch:normal;font-size:9px;font-family:Times;-inkscape-font-specification:Times-Roman;writing-mode:lr-tb;fill:#231f20;fill-opacity:1;fill-rule:nonzero;stroke:none"
       transform="matrix(1,0,0,-1,180.3497,374.7022)"><tspan
         id="tspan152"
         y="0"
         x="0 4.5 6.75 9 13.5 18 20.25 22.5 26.496 30.492001 32.993999 35.495998 39.995998 44.495998 48.995998 55.998001 59.993999 62.495998 66.996002 71.496002 75.996002">1, 45, action_method</tspan></text>
<path
       id="path156"
       style="fill:#ffffff;fill-opacity:1;fill-rule:nonzero;stroke:none"
       d="m 184.5,345.959 h 96 v 15.375 h -96 z" /><g
       transform="translate(192.187,361.334)"
       id="g158"><path
         id="path160"
         style="fill:none;stroke:#231f20;stroke-width:0.75;stroke-linecap:square;stroke-linejoin:miter;stroke-miterlimit:10;stroke-dasharray:none;stroke-opacity:1"
         d="m 0,0 h 80.625 c 4.243,0 7.688,-3.443 7.688,-7.688 0,-4.243 -3.445,-7.687 -7.688,-7.687 H 0 c -4.243,0 -7.687,3.444 -7.687,7.687 C -7.687,-3.443 -4.243,0 0,0 Z" /></g><text
       id="text164"
       style="font-variant:normal;font-weight:normal;font-stretch:normal;font-size:9px;font-family:Times;-inkscape-font-specification:Times-Roman;writing-mode:lr-tb;fill:#231f20;fill-opacity:1;fill-rule:nonzero;stroke:none"
       transform="matrix(1,0,0,-1,200.4834,351.0328)"><tspan
         id="tspan162"
         y="0"
         x="0 4.5 9 11.25 13.5 18 22.5 24.75 27 29.502001 34.001999 37.998001 42.498001 45 47.501999 50.319 52.820999 56.817001 59.813999">65, 32, identifier</tspan></text>
<path
       id="path166"
       style="fill:#ffffff;fill-opacity:1;fill-rule:nonzero;stroke:none"
       d="m 216,245.647 h 78.75 v 15.375 H 216 Z" /><g
       transform="translate(223.687,261.022)"
       id="g168"><path
         id="path170"
         style="fill:none;stroke:#231f20;stroke-width:0.75;stroke-linecap:square;stroke-linejoin:miter;stroke-miterlimit:10;stroke-dasharray:none;stroke-opacity:1"
         d="m 0,0 h 63.375 c 4.243,0 7.688,-3.443 7.688,-7.687 0,-4.244 -3.445,-7.688 -7.688,-7.688 H 0 c -4.243,0 -7.687,3.444 -7.687,7.688 C -7.687,-3.443 -4.243,0 0,0 Z" /></g><text
       id="text174"
       style="font-variant:normal;font-weight:normal;font-stretch:normal;font-size:9px;font-family:Times;-inkscape-font-specification:Times-Roman;writing-mode:lr-tb;fill:#231f20;fill-opacity:1;fill-rule:nonzero;stroke:none"
       transform="matrix(1,0,0,-1,230.8594,250.7647)"><tspan
         id="tspan172"
         y="0"
         x="0 4.5 9 11.25 13.5 18 22.5 24.75 27 29.502001 33.498001 37.998001 41.993999 44.495998">65, 33, label</tspan></text>
<path
       id="path176"
       style="fill:#ffffff;fill-opacity:1;fill-rule:nonzero;stroke:none"
       d="m 221.25,222.022 h 73.5 v 15.375 h -73.5 z" /><g
       transform="translate(228.937,237.397)"
       id="g178"><path
         id="path180"
         style="fill:none;stroke:#231f20;stroke-width:0.75;stroke-linecap:square;stroke-linejoin:miter;stroke-miterlimit:10;stroke-dasharray:none;stroke-opacity:1"
         d="m 0,0 h 58.125 c 4.243,0 7.688,-3.443 7.688,-7.687 0,-4.243 -3.445,-7.688 -7.688,-7.688 H 0 c -4.243,0 -7.687,3.445 -7.687,7.688 C -7.687,-3.443 -4.243,0 0,0 Z" /></g><text
       id="text184"
       style="font-variant:normal;font-weight:normal;font-stretch:normal;font-size:9px;font-family:Times;-inkscape-font-specification:Times-Roman;writing-mode:lr-tb;fill:#231f20;fill-opacity:1;fill-rule:nonzero;stroke:none"
       transform="matrix(1,0,0,-1,235.7334,227.2071)"><tspan
         id="tspan182"
         y="0"
         x="0 4.5 9 11.25 13.5 18 22.5 24.75 27 29.502001 33.362999 37.862999 40.365002">65, 44, text</tspan></text>
<path
       id="path186"
       style="fill:#ffffff;fill-opacity:1;fill-rule:nonzero;stroke:none"
       d="m 102,175.897 h 189 v 15.375 H 102 Z" /><g
       transform="translate(109.687,191.272)"
       id="g188"><path
         id="path190"
         style="fill:none;stroke:#231f20;stroke-width:0.75;stroke-linecap:square;stroke-linejoin:miter;stroke-miterlimit:10;stroke-dasharray:none;stroke-opacity:1"
         d="m 0,0 h 173.625 c 4.243,0 7.688,-3.443 7.688,-7.687 0,-4.243 -3.445,-7.688 -7.688,-7.688 H 0 c -4.244,0 -7.687,3.445 -7.687,7.688 C -7.687,-3.443 -4.244,0 0,0 Z" /></g><text
       id="text194"
       style="font-variant:normal;font-weight:normal;font-stretch:normal;font-size:9px;font-family:Times;-inkscape-font-specification:Times-Roman;writing-mode:lr-tb;fill:#231f20;fill-opacity:1;fill-rule:nonzero;stroke:none"
       transform="matrix(1,0,0,-1,116.459,181.2403)"><tspan
         id="tspan192"
         y="0"
         x="0 4.5 9 11.25 13.5 18 22.5 24.75 27 30.996 35.495998 39.492001 42.488998 46.485001 50.480999 52.983002 56.979 59.976002 62.478001 66.473999 70.470001 74.970001 79.470001 83.970001 86.967003 91.467003 95.967003 100.467 104.463 106.965 111.465 115.965 119.961 122.778 125.28 129.78 132.282 134.784 137.286 141.786 146.286">14, 51, characterized_product_definition</tspan></text>
<path
       id="path196"
       style="fill:#ffffff;fill-opacity:1;fill-rule:nonzero;stroke:none"
       d="m 216.375,291.209 h 96 v 15.375 h -96 z" /><g
       transform="translate(224.062,306.584)"
       id="g198"><path
         id="path200"
         style="fill:none;stroke:#231f20;stroke-width:0.75;stroke-linecap:square;stroke-linejoin:miter;stroke-miterlimit:10;stroke-dasharray:none;stroke-opacity:1"
         d="m 0,0 h 80.625 c 4.243,0 7.688,-3.443 7.688,-7.687 0,-4.244 -3.445,-7.688 -7.688,-7.688 H 0 c -4.243,0 -7.687,3.444 -7.687,7.688 C -7.687,-3.443 -4.243,0 0,0 Z" /></g><text
       id="text204"
       style="font-variant:normal;font-weight:normal;font-stretch:normal;font-size:9px;font-family:Times;-inkscape-font-specification:Times-Roman;writing-mode:lr-tb;fill:#231f20;fill-opacity:1;fill-rule:nonzero;stroke:none"
       transform="matrix(1,0,0,-1,232.3584,296.2828)"><tspan
         id="tspan202"
         y="0"
         x="0 4.5 9 11.25 13.5 18 22.5 24.75 27 29.502001 34.001999 37.998001 42.498001 45 47.501999 50.319 52.820999 56.817001 59.813999">65, 32, identifier</tspan></text>
<path
       id="path206"
       style="fill:#ffffff;fill-opacity:1;fill-rule:nonzero;stroke:none"
       d="m 203.325,86.438 h 78.75 v 15.375 h -78.75 z" /><g
       transform="translate(211.013,101.813)"
       id="g208"><path
         id="path210"
         style="fill:none;stroke:#231f20;stroke-width:0.75;stroke-linecap:square;stroke-linejoin:miter;stroke-miterlimit:10;stroke-dasharray:none;stroke-opacity:1"
         d="m 0,0 h 63.375 c 4.243,0 7.687,-3.444 7.687,-7.687 0,-4.245 -3.444,-7.688 -7.687,-7.688 H 0 c -4.243,0 -7.687,3.443 -7.687,7.688 C -7.687,-3.444 -4.243,0 0,0 Z" /></g><text
       id="text214"
       style="font-variant:normal;font-weight:normal;font-stretch:normal;font-size:9px;font-family:Times;-inkscape-font-specification:Times-Roman;writing-mode:lr-tb;fill:#231f20;fill-opacity:1;fill-rule:nonzero;stroke:none"
       transform="matrix(1,0,0,-1,218.1846,91.5557)"><tspan
         id="tspan212"
         y="0"
         x="0 4.5 9 11.25 13.5 18 22.5 24.75 27 29.502001 33.498001 37.998001 41.993999 44.495998">65, 33, label</tspan></text>
<path
       id="path216"
       style="fill:#ffffff;fill-opacity:1;fill-rule:nonzero;stroke:none"
       d="m 208.575,62.813 h 73.5 v 15.375 h -73.5 z" /><g
       transform="translate(216.263,78.188)"
       id="g218"><path
         id="path220"
         style="fill:none;stroke:#231f20;stroke-width:0.75;stroke-linecap:square;stroke-linejoin:miter;stroke-miterlimit:10;stroke-dasharray:none;stroke-opacity:1"
         d="m 0,0 h 58.125 c 4.243,0 7.687,-3.444 7.687,-7.687 0,-4.245 -3.444,-7.688 -7.687,-7.688 H 0 c -4.243,0 -7.687,3.443 -7.687,7.688 C -7.687,-3.444 -4.243,0 0,0 Z" /></g><text
       id="text224"
       style="font-variant:normal;font-weight:normal;font-stretch:normal;font-size:9px;font-family:Times;-inkscape-font-specification:Times-Roman;writing-mode:lr-tb;fill:#231f20;fill-opacity:1;fill-rule:nonzero;stroke:none"
       transform="matrix(1,0,0,-1,223.0596,67.9981)"><tspan
         id="tspan222"
         y="0"
         x="0 4.5 9 11.25 13.5 18 22.5 24.75 27 29.502001 33.362999 37.862999 40.365002">65, 44, text</tspan></text>
<path
       id="path226"
       style="fill:#ffffff;fill-opacity:1;fill-rule:nonzero;stroke:none"
       d="m 175.2,130.5 h 96 v 15.375 h -96 z" /><g
       transform="translate(182.888,145.875)"
       id="g228"><path
         id="path230"
         style="fill:none;stroke:#231f20;stroke-width:0.75;stroke-linecap:square;stroke-linejoin:miter;stroke-miterlimit:10;stroke-dasharray:none;stroke-opacity:1"
         d="m 0,0 h 80.625 c 4.243,0 7.687,-3.444 7.687,-7.687 0,-4.245 -3.444,-7.688 -7.687,-7.688 H 0 c -4.243,0 -7.687,3.443 -7.687,7.688 C -7.687,-3.444 -4.243,0 0,0 Z" /></g><text
       id="text234"
       style="font-variant:normal;font-weight:normal;font-stretch:normal;font-size:9px;font-family:Times;-inkscape-font-specification:Times-Roman;writing-mode:lr-tb;fill:#231f20;fill-opacity:1;fill-rule:nonzero;stroke:none"
       transform="matrix(1,0,0,-1,191.1827,135.5723)"><tspan
         id="tspan232"
         y="0"
         x="0 4.5 9 11.25 13.5 18 22.5 24.75 27 29.502001 34.001999 37.998001 42.498001 45 47.501999 50.319 52.820999 56.817001 59.813999">65, 32, identifier</tspan></text>
<path
       id="path236"
       style="fill:#ffffff;fill-opacity:1;fill-rule:nonzero;stroke:none"
       d="m 110.625,440.084 h 93.75 v 15.375 h -93.75 z" /><g
       transform="translate(118.312,455.459)"
       id="g238"><path
         id="path240"
         style="fill:none;stroke:#231f20;stroke-width:0.75;stroke-linecap:square;stroke-linejoin:miter;stroke-miterlimit:10;stroke-dasharray:none;stroke-opacity:1"
         d="m 0,0 h 78.375 c 4.243,0 7.688,-3.443 7.688,-7.687 0,-4.244 -3.445,-7.688 -7.688,-7.688 H 0 c -4.244,0 -7.687,3.444 -7.687,7.688 C -7.687,-3.443 -4.244,0 0,0 Z" /></g><text
       id="text246"
       style="font-variant:normal;font-weight:normal;font-stretch:normal;font-size:9px;font-family:Times;-inkscape-font-specification:Times-Roman;writing-mode:lr-tb;fill:#231f20;fill-opacity:1;fill-rule:nonzero;stroke:none"
       transform="matrix(1,0,0,-1,118.2242,445.4043)"><tspan
         id="tspan242"
         y="0"
         x="0 4.5 6.75 9 13.5 18 20.25 23.247 27.747 29.997 32.247002 36.747002 38.997002 41.247002 45.747002 47.997002 50.247002 54.747002 56.997002 59.247002 63.747002 68.247002 71.244003">5, 46 (8, 8, 8, 6, 63)</tspan><tspan
         id="tspan244"
         y="55.492199"
         x="-25.2243 -20.7243 -16.7283 -13.2273 -9.2313004 -6.2343001 -3.7323 0.76770002 3.2697001 5.7716999 10.2717 14.7717">description</tspan></text>
<g
       transform="translate(25.862,293.655)"
       id="g248"><path
         id="path250"
         style="fill:#ffffff;fill-opacity:1;fill-rule:nonzero;stroke:none"
         d="M 0,0 C 0,2.07 -1.68,3.75 -3.75,3.75 -5.82,3.75 -7.5,2.07 -7.5,0 c 0,-2.07 1.68,-3.75 3.75,-3.75 C -1.68,-3.75 0,-2.07 0,0" /></g><g
       transform="translate(25.862,293.655)"
       id="g252"><path
         id="path254"
         style="fill:none;stroke:#231f20;stroke-width:0.75;stroke-linecap:square;stroke-linejoin:miter;stroke-miterlimit:10;stroke-dasharray:none;stroke-opacity:1"
         d="M 0,0 C 0,2.07 -1.68,3.75 -3.75,3.75 -5.82,3.75 -7.5,2.07 -7.5,0 c 0,-2.07 1.68,-3.75 3.75,-3.75 C -1.68,-3.75 0,-2.07 0,0" /></g><g
       transform="translate(23.702,131.654)"
       id="g256"><path
         id="path258"
         style="fill:#ffffff;fill-opacity:1;fill-rule:nonzero;stroke:none"
         d="M 0,0 C 0,2.071 -1.68,3.75 -3.75,3.75 -5.82,3.75 -7.5,2.071 -7.5,0 c 0,-2.069 1.68,-3.75 3.75,-3.75 C -1.68,-3.75 0,-2.069 0,0" /></g><g
       transform="translate(23.702,131.654)"
       id="g260"><path
         id="path262"
         style="fill:none;stroke:#231f20;stroke-width:0.75;stroke-linecap:square;stroke-linejoin:miter;stroke-miterlimit:10;stroke-dasharray:none;stroke-opacity:1"
         d="M 0,0 C 0,2.071 -1.68,3.75 -3.75,3.75 -5.82,3.75 -7.5,2.071 -7.5,0 c 0,-2.069 1.68,-3.75 3.75,-3.75 C -1.68,-3.75 0,-2.069 0,0" /></g><g
       transform="translate(70.502,435.944)"
       id="g264"><path
         id="path266"
         style="fill:#ffffff;fill-opacity:1;fill-rule:nonzero;stroke:none"
         d="M 0,0 C 0,2.071 -1.68,3.75 -3.75,3.75 -5.82,3.75 -7.5,2.071 -7.5,0 c 0,-2.069 1.68,-3.75 3.75,-3.75 C -1.68,-3.75 0,-2.069 0,0" /></g><g
       transform="translate(70.502,435.944)"
       id="g268"><path
         id="path270"
         style="fill:none;stroke:#231f20;stroke-width:0.75;stroke-linecap:square;stroke-linejoin:miter;stroke-miterlimit:10;stroke-dasharray:none;stroke-opacity:1"
         d="M 0,0 C 0,2.071 -1.68,3.75 -3.75,3.75 -5.82,3.75 -7.5,2.071 -7.5,0 c 0,-2.069 1.68,-3.75 3.75,-3.75 C -1.68,-3.75 0,-2.069 0,0" /></g><text
       id="text300"
       style="font-variant:normal;font-weight:normal;font-stretch:normal;font-size:9px;font-family:Times;-inkscape-font-specification:Times-Roman;writing-mode:lr-tb;fill:#231f20;fill-opacity:1;fill-rule:nonzero;stroke:none"
       transform="matrix(1,0,0,-1,93,416.2911)"><tspan
         id="tspan272"
         y="0"
         x="0 4.5 8.4960003 15.498 19.493999">name</tspan><tspan
         id="tspan274"
         y="50.004002"
         x="0 3.9960001 8.4960003 12.996 16.497 20.493 24.993 29.493 36.494999 40.491001 42.993 47.493 51.993 56.493">chosen_method</tspan><tspan
         id="tspan276"
         y="73.859398"
         x="0 2.997 9.4949999 14.994 20.997 23.993999 26.496 30.996">(DER)id</tspan><tspan
         id="tspan278"
         y="171.18719"
         x="60.000301 64.500298 68.4963 75.498299 79.494301">name</tspan><tspan
         id="tspan280"
         y="197.56619"
         x="60.000301 64.500298 68.4963 71.997299 75.993301 78.990303 81.492302 85.992302 88.494301 90.9963 95.4963 99.9963">description</tspan><tspan
         id="tspan282"
         y="221.34419"
         x="60.000301 64.500298 68.4963 71.313301 73.8153 78.3153 82.311302 86.811302 91.311302 95.811302 98.808296 103.3083 107.8083 112.3083 116.3043 118.8063">defined_product</tspan><tspan
         id="tspan284"
         y="128.53169"
         x="61.875 64.376999 68.876999 72.873001 77.373001 79.875 82.376999 85.194 87.695999 91.692001 95.688004 98.190002 100.692 105.192 109.692">identification</tspan><tspan
         id="tspan286"
         y="145.04131"
         x="18.1521 21.149099 24.146099 30.6441 37.142101 40.139099 44.639099 47.636101 52.136101 56.636101 61.136101 65.132103 67.634102 72.134102 76.634102 80.630096 83.447098 85.949097 90.449097 92.951103 95.453102 97.955101 102.4551 106.9551 110.4561 112.7061 117.7101 120.7071 125.2071 127.7091 131.70509 134.7021">(INV)product_definitions S[1:?]</tspan><tspan
         id="tspan288"
         y="149.49631"
         x="-45.0243 -40.5243 -37.527302 -33.027302 -29.0313 -25.035299 -21.5343 -18.0333">process</tspan><tspan
         id="tspan290"
         y="330.3981"
         x="62.325001 66.824997 70.820999 77.822998 81.819">name</tspan><tspan
         id="tspan292"
         y="356.7771"
         x="62.325001 66.824997 70.820999 74.321999 78.318001 81.315002 83.817001 88.317001 90.819 93.320999 97.820999 102.321">description</tspan><tspan
         id="tspan294"
         y="289.242"
         x="20.700001 23.202 27.702 31.698 36.198002 38.700001 41.202 44.019001 46.521 50.516998 54.513 57.014999 59.516998 64.016998 68.516998">identification</tspan><tspan
         id="tspan296"
         y="306.29071"
         x="-2.7234001 0.27360001 3.2706001 9.7686005 16.2666 19.263599 23.763599 26.760599 31.260599 35.760601 39.756599 42.753601 45.2556 47.757599 51.753601 55.254601 57.504601 62.508598 65.5056 70.0056 72.507599 76.503601 79.500603">(INV)properties S[1:?]</tspan><tspan
         id="tspan298"
         y="306.49591"
         x="-48.473099 -43.973099 -40.976101 -36.476101 -32.480099 -28.4841 -24.983101 -21.4821">process</tspan></text>
<path
       id="path302"
       style="fill:#ffffff;fill-opacity:1;fill-rule:nonzero;stroke:none"
       d="m 48,345.959 h 37.5 v 86.25 H 48 Z" /><g
       transform="translate(48,432.209)"
       id="g304"><path
         id="path306"
         style="fill:none;stroke:#231f20;stroke-width:0.75;stroke-linecap:square;stroke-linejoin:miter;stroke-miterlimit:10;stroke-dasharray:none;stroke-opacity:1"
         d="M 37.5,0 H 0 v -86.25 h 37.5 z" /><g
         id="g308"><path
           id="path310"
           style="fill:none;stroke:#231f20;stroke-width:0.75;stroke-linecap:square;stroke-linejoin:miter;stroke-miterlimit:10;stroke-dasharray:none;stroke-opacity:1"
           d="M 0,0 Z" /></g></g><text
       id="text314"
       style="font-variant:normal;font-weight:normal;font-stretch:normal;font-size:9px;font-family:Times;-inkscape-font-specification:Times-Roman;writing-mode:lr-tb;fill:#231f20;fill-opacity:1;fill-rule:nonzero;stroke:none"
       transform="matrix(1,0,0,-1,54.7442,385.9209)"><tspan
         id="tspan312"
         y="0"
         x="0 3.9960001 7.9920001 10.494 12.996 17.496 21.996">action</tspan></text>
<path
       id="path316"
       style="fill:#ffffff;fill-opacity:1;fill-rule:nonzero;stroke:none"
       d="M 20.25,198.397 H 145.5 v 62.625 H 20.25 Z" /><g
       transform="translate(20.25,261.022)"
       id="g318"><path
         id="path320"
         style="fill:none;stroke:#231f20;stroke-width:0.75;stroke-linecap:square;stroke-linejoin:miter;stroke-miterlimit:10;stroke-dasharray:none;stroke-opacity:1"
         d="M 125.25,0 H 0 v -62.625 h 125.25 z" /><g
         id="g322"><path
           id="path324"
           style="fill:none;stroke:#231f20;stroke-width:0.75;stroke-linecap:square;stroke-linejoin:miter;stroke-miterlimit:10;stroke-dasharray:none;stroke-opacity:1"
           d="M 0,0 Z" /></g></g><text
       id="text328"
       style="font-variant:normal;font-weight:normal;font-stretch:normal;font-size:9px;font-family:Times;-inkscape-font-specification:Times-Roman;writing-mode:lr-tb;fill:#231f20;fill-opacity:1;fill-rule:nonzero;stroke:none"
       transform="matrix(1,0,0,-1,30.6001,227.4102)"><tspan
         id="tspan326"
         y="0"
         x="0 4.5 7.4970002 11.997 15.993 19.989 23.49 26.990999 31.490999 35.991001 38.987999 43.487999 47.987999 52.487999 56.484001 58.986 63.486 67.482002 70.983002 74.484001 78.984001 82.980003 85.482002 89.477997 91.980003 94.482002 98.982002 103.482">process_product_association</tspan></text>
<path
       id="path330"
       style="fill:#ffffff;fill-opacity:1;fill-rule:nonzero;stroke:none"
       d="m 25.875,281.834 h 121.5 v 24.75 h -121.5 z" /><g
       transform="translate(25.875,306.584)"
       id="g332"><path
         id="path334"
         style="fill:none;stroke:#231f20;stroke-width:0.75;stroke-linecap:square;stroke-linejoin:miter;stroke-miterlimit:10;stroke-dasharray:none;stroke-opacity:1"
         d="M 121.5,0 H 0 v -24.75 h 121.5 z" /><g
         id="g336"><path
           id="path338"
           style="fill:none;stroke:#231f20;stroke-width:0.75;stroke-linecap:square;stroke-linejoin:miter;stroke-miterlimit:10;stroke-dasharray:none;stroke-opacity:1"
           d="M 0,0 Z" /></g></g><text
       id="text342"
       style="font-variant:normal;font-weight:normal;font-stretch:normal;font-size:9px;font-family:Times;-inkscape-font-specification:Times-Roman;writing-mode:lr-tb;fill:#231f20;fill-opacity:1;fill-rule:nonzero;stroke:none"
       transform="matrix(1,0,0,-1,36.8501,291.8648)"><tspan
         id="tspan340"
         y="0"
         x="0 4.5 7.4970002 11.997 16.497 20.997 24.993 27.495001 31.995001 36.494999 40.491001 43.307999 45.810001 50.310001 52.812 55.313999 57.816002 62.316002 66.816002 71.316002 75.816002 78.813004 83.313004 87.308998 91.305 94.806 98.306999">product_definition_process</tspan></text>
<path
       id="path344"
       style="fill:#ffffff;fill-opacity:1;fill-rule:nonzero;stroke:none"
       d="m 19.575,62.813 h 128.25 v 39 H 19.575 Z" /><g
       transform="translate(19.575,101.813)"
       id="g346"><path
         id="path348"
         style="fill:none;stroke:#231f20;stroke-width:0.75;stroke-linecap:square;stroke-linejoin:miter;stroke-miterlimit:10;stroke-dasharray:none;stroke-opacity:1"
         d="M 128.25,0 H 0 v -39 h 128.25 z" /><g
         id="g350"><path
           id="path352"
           style="fill:none;stroke:#231f20;stroke-width:0.75;stroke-linecap:square;stroke-linejoin:miter;stroke-miterlimit:10;stroke-dasharray:none;stroke-opacity:1"
           d="M 0,0 Z" /></g></g><text
       id="text356"
       style="font-variant:normal;font-weight:normal;font-stretch:normal;font-size:9px;font-family:Times;-inkscape-font-specification:Times-Roman;writing-mode:lr-tb;fill:#231f20;fill-opacity:1;fill-rule:nonzero;stroke:none"
       transform="matrix(1,0,0,-1,28.9268,80.044)"><tspan
         id="tspan354"
         y="0"
         x="0 4.5 7.4970002 11.997 15.993 19.989 23.49 26.990999 31.490999 35.991001 38.987999 43.487999 47.987999 51.984001 54.980999 57.483002 61.983002 66.483002 70.478996 73.980003 77.481003 81.981003 85.976997 88.478996 92.474998 94.976997 97.478996 101.979 106.479">process_property_association</tspan></text>
<path
       id="path358"
       style="fill:#ffffff;fill-opacity:1;fill-rule:nonzero;stroke:none"
       d="m 23.7,121.125 h 82.5 v 24.75 H 23.7 Z" /><g
       transform="translate(23.7,145.875)"
       id="g360"><path
         id="path362"
         style="fill:none;stroke:#231f20;stroke-width:0.75;stroke-linecap:square;stroke-linejoin:miter;stroke-miterlimit:10;stroke-dasharray:none;stroke-opacity:1"
         d="M 82.5,0 H 0 v -24.75 h 82.5 z" /><g
         id="g364"><path
           id="path366"
           style="fill:none;stroke:#231f20;stroke-width:0.75;stroke-linecap:square;stroke-linejoin:miter;stroke-miterlimit:10;stroke-dasharray:none;stroke-opacity:1"
           d="M 0,0 Z" /></g></g><text
       id="text370"
       style="font-variant:normal;font-weight:normal;font-stretch:normal;font-size:9px;font-family:Times;-inkscape-font-specification:Times-Roman;writing-mode:lr-tb;fill:#231f20;fill-opacity:1;fill-rule:nonzero;stroke:none"
       transform="matrix(1,0,0,-1,30.1875,131.4522)"><tspan
         id="tspan368"
         y="0"
         x="0 4.5 7.4970002 11.997 16.497 20.493 23.49 25.992001 30.492001 34.992001 39.492001 42.488998 46.988998 50.985001 54.980999 58.481998 61.983002">property_process</tspan></text>
<g
       transform="translate(111.632,264.765)"
       id="g372"><path
         id="path374"
         style="fill:#ffffff;fill-opacity:1;fill-rule:nonzero;stroke:none"
         d="M 0,0 C 0,2.07 -1.68,3.75 -3.75,3.75 -5.819,3.75 -7.5,2.07 -7.5,0 c 0,-2.071 1.681,-3.75 3.75,-3.75 C -1.68,-3.75 0,-2.071 0,0" /></g><g
       transform="translate(111.632,264.765)"
       id="g376"><path
         id="path378"
         style="fill:none;stroke:#231f20;stroke-width:0.75;stroke-linecap:square;stroke-linejoin:miter;stroke-miterlimit:10;stroke-dasharray:none;stroke-opacity:1"
         d="M 0,0 C 0,2.07 -1.68,3.75 -3.75,3.75 -5.819,3.75 -7.5,2.07 -7.5,0 c 0,-2.071 1.681,-3.75 3.75,-3.75 C -1.68,-3.75 0,-2.071 0,0" /></g><g
       transform="translate(48.272,278.085)"
       id="g380"><path
         id="path382"
         style="fill:#ffffff;fill-opacity:1;fill-rule:nonzero;stroke:none"
         d="M 0,0 C 0,2.07 -1.68,3.75 -3.75,3.75 -5.82,3.75 -7.5,2.07 -7.5,0 c 0,-2.07 1.68,-3.75 3.75,-3.75 C -1.68,-3.75 0,-2.07 0,0" /></g><g
       transform="translate(48.272,278.085)"
       id="g384"><path
         id="path386"
         style="fill:none;stroke:#231f20;stroke-width:0.75;stroke-linecap:square;stroke-linejoin:miter;stroke-miterlimit:10;stroke-dasharray:none;stroke-opacity:1"
         d="M 0,0 C 0,2.07 -1.68,3.75 -3.75,3.75 -5.82,3.75 -7.5,2.07 -7.5,0 c 0,-2.07 1.68,-3.75 3.75,-3.75 C -1.68,-3.75 0,-2.07 0,0" /></g><g
       transform="translate(91.562,105.555)"
       id="g388"><path
         id="path390"
         style="fill:#ffffff;fill-opacity:1;fill-rule:nonzero;stroke:none"
         d="M 0,0 C 0,2.07 -1.681,3.75 -3.75,3.75 -5.82,3.75 -7.5,2.07 -7.5,0 c 0,-2.069 1.68,-3.75 3.75,-3.75 C -1.681,-3.75 0,-2.069 0,0" /></g><g
       transform="translate(91.562,105.555)"
       id="g392"><path
         id="path394"
         style="fill:none;stroke:#231f20;stroke-width:0.75;stroke-linecap:square;stroke-linejoin:miter;stroke-miterlimit:10;stroke-dasharray:none;stroke-opacity:1"
         d="M 0,0 C 0,2.07 -1.681,3.75 -3.75,3.75 -5.82,3.75 -7.5,2.07 -7.5,0 c 0,-2.069 1.68,-3.75 3.75,-3.75 C -1.681,-3.75 0,-2.069 0,0" /></g><g
       transform="translate(43.772,117.345)"
       id="g396"><path
         id="path398"
         style="fill:#ffffff;fill-opacity:1;fill-rule:nonzero;stroke:none"
         d="M 0,0 C 0,2.07 -1.68,3.75 -3.75,3.75 -5.82,3.75 -7.5,2.07 -7.5,0 c 0,-2.069 1.68,-3.75 3.75,-3.75 C -1.68,-3.75 0,-2.069 0,0" /></g><g
       transform="translate(43.772,117.345)"
       id="g400"><path
         id="path402"
         style="fill:none;stroke:#231f20;stroke-width:0.75;stroke-linecap:square;stroke-linejoin:miter;stroke-miterlimit:10;stroke-dasharray:none;stroke-opacity:1"
         d="M 0,0 C 0,2.07 -1.68,3.75 -3.75,3.75 -5.82,3.75 -7.5,2.07 -7.5,0 c 0,-2.069 1.68,-3.75 3.75,-3.75 C -1.68,-3.75 0,-2.069 0,0" /></g><path
       id="path404"
       style="fill:#ffffff;fill-opacity:1;fill-rule:nonzero;stroke:none"
       d="m 11.7,0.375 h 120.75 v 39 H 11.7 Z" /><path
       id="path406"
       style="fill:none;stroke:#231f20;stroke-width:0.75;stroke-linecap:square;stroke-linejoin:miter;stroke-miterlimit:10;stroke-dasharray:3.75, 3.75;stroke-dashoffset:0;stroke-opacity:1"
       d="m 11.7,39.375 v -39 h 120.75 v 39 z m 7.5,-39 v 39" /><text
       id="text410"
       style="font-variant:normal;font-weight:normal;font-stretch:normal;font-size:9px;font-family:Times;-inkscape-font-specification:Times-Roman;writing-mode:lr-tb;fill:#231f20;fill-opacity:1;fill-rule:nonzero;stroke:none"
       transform="matrix(1,0,0,-1,27.8008,16.6065)"><tspan
         id="tspan408"
         y="0"
         x="0 4.5 7.4970002 11.997 16.497 20.493 23.49 25.992001 30.492001 34.992001 39.492001 42.488998 46.988998 50.490002 54.990002 58.986 63.486 67.482002 71.982002 75.483002 79.478996 81.981003 85.976997 89.973 92.474998">property_or_shape_select</tspan></text>
<g
       transform="translate(75.812,43.095)"
       id="g412"><path
         id="path414"
         style="fill:#ffffff;fill-opacity:1;fill-rule:nonzero;stroke:none"
         d="M 0,0 C 0,2.07 -1.681,3.75 -3.75,3.75 -5.82,3.75 -7.5,2.07 -7.5,0 c 0,-2.069 1.68,-3.75 3.75,-3.75 C -1.681,-3.75 0,-2.069 0,0" /></g><g
       transform="translate(75.812,43.095)"
       id="g416"><path
         id="path418"
         style="fill:none;stroke:#231f20;stroke-width:0.75;stroke-linecap:square;stroke-linejoin:miter;stroke-miterlimit:10;stroke-dasharray:none;stroke-opacity:1"
         d="M 0,0 C 0,2.07 -1.681,3.75 -3.75,3.75 -5.82,3.75 -7.5,2.07 -7.5,0 c 0,-2.069 1.68,-3.75 3.75,-3.75 C -1.681,-3.75 0,-2.069 0,0" /></g><path
       id="path420"
       style="fill:#ffffff;fill-opacity:1;fill-rule:nonzero;stroke:none"
       d="M 154.95,24 H 272.7 V 39.375 H 154.95 Z" /><g
       transform="translate(162.638,39.375)"
       id="g422"><path
         id="path424"
         style="fill:none;stroke:#231f20;stroke-width:0.75;stroke-linecap:square;stroke-linejoin:miter;stroke-miterlimit:10;stroke-dasharray:none;stroke-opacity:1"
         d="m 0,0 h 102.375 c 4.243,0 7.687,-3.444 7.687,-7.688 0,-4.244 -3.444,-7.687 -7.687,-7.687 H 0 c -4.244,0 -7.687,3.443 -7.687,7.687 C -7.687,-3.444 -4.244,0 0,0 Z" /></g><text
       id="text428"
       style="font-variant:normal;font-weight:normal;font-stretch:normal;font-size:9px;font-family:Times;-inkscape-font-specification:Times-Roman;writing-mode:lr-tb;fill:#231f20;fill-opacity:1;fill-rule:nonzero;stroke:none"
       transform="matrix(1,0,0,-1,161.7959,29.3741)"><tspan
         id="tspan426"
         y="0"
         x="0 4.5 9 11.25 13.5 18 22.5 24.75 27 31.5 34.497002 38.997002 43.497002 47.493 50.490002 52.992001 57.492001 61.992001 66.491997 70.487999 73.305 75.806999 80.306999 82.808998 85.310997 87.813004 92.313004 96.813004">14, 58, property_definition</tspan></text>
<path
       id="path430"
       style="fill:#ffffff;fill-opacity:1;fill-rule:nonzero;stroke:none"
       d="M 163.2,0.375 H 272.7 V 15.75 H 163.2 Z" /><g
       transform="translate(170.888,15.75)"
       id="g432"><path
         id="path434"
         style="fill:none;stroke:#231f20;stroke-width:0.75;stroke-linecap:square;stroke-linejoin:miter;stroke-miterlimit:10;stroke-dasharray:none;stroke-opacity:1"
         d="m 0,0 h 94.125 c 4.243,0 7.687,-3.444 7.687,-7.6875 0,-4.2445 -3.444,-7.6875 -7.687,-7.6875 H 0 c -4.243,0 -7.687,3.443 -7.687,7.6875 C -7.687,-3.444 -4.243,0 0,0 Z" /></g><text
       id="text440"
       style="font-variant:normal;font-weight:normal;font-stretch:normal;font-size:9px;font-family:Times;-inkscape-font-specification:Times-Roman;writing-mode:lr-tb;fill:#231f20;fill-opacity:1;fill-rule:nonzero;stroke:none"
       transform="matrix(1,0,0,-1,170.169,5.7178)"><tspan
         id="tspan436"
         y="0"
         x="0 4.5 9 11.25 13.5 18 22.5 24.75 27 30.500999 35.000999 38.997002 43.497002 47.493 51.993 56.493 60.488998 63.306 65.807999 70.307999 72.809998 75.311996 77.814003 82.314003 86.814003">14, 56, shape_definition</tspan><tspan
         id="tspan438"
         y="-44.141399"
         x="-93.330902 -88.830902 -85.8339 -81.3339 -76.8339 -72.837898 -69.840897 -67.338898 -62.838902 -58.338902 -53.838902 -50.8419 -46.3419 -42.8409 -38.3409 -34.344898 -29.8449 -25.8489">property_or_shape</tspan></text>
</g></svg>