<?xml version="1.0" encoding="UTF-8" standalone="no"?>
<svg
   xmlns:dc="http://purl.org/dc/elements/1.1/"
   xmlns:cc="http://creativecommons.org/ns#"
   xmlns:rdf="http://www.w3.org/1999/02/22-rdf-syntax-ns#"
   xmlns:svg="http://www.w3.org/2000/svg"
   xmlns="http://www.w3.org/2000/svg"
   viewBox="0 0 426.61334 639.76935"
   height="639.76935"
   width="426.61334"
   xml:space="preserve"
   id="svg2"
   version="1.1"><metadata
     id="metadata8"><rdf:RDF><cc:Work
         rdf:about=""><dc:format>image/svg+xml</dc:format><dc:type
           rdf:resource="http://purl.org/dc/dcmitype/StillImage" /></cc:Work></rdf:RDF></metadata><defs
     id="defs6" /><g
     transform="matrix(1.3333333,0,0,-1.3333333,0,639.76933)"
     id="g10"><g
       transform="translate(162.835,13.1)"
       id="g12"><path
         id="path14"
         style="fill:none;stroke:#231f20;stroke-width:0.75;stroke-linecap:square;stroke-linejoin:miter;stroke-miterlimit:10;stroke-dasharray:none;stroke-opacity:1"
         d="M 0,0 H -71.251" /><g
         transform="translate(9.75,31.875)"
         id="g16"><path
           id="path18"
           style="fill:none;stroke:#231f20;stroke-width:0.75;stroke-linecap:square;stroke-linejoin:miter;stroke-miterlimit:10;stroke-dasharray:none;stroke-opacity:1"
           d="M 0,0 H -83.251" /><g
           transform="translate(-27,73.875)"
           id="g20"><path
             id="path22"
             style="fill:none;stroke:#231f20;stroke-width:0.75;stroke-linecap:square;stroke-linejoin:miter;stroke-miterlimit:10;stroke-dasharray:none;stroke-opacity:1"
             d="M 0,0 H 77.25" /><g
             transform="translate(-5.25,-23.625)"
             id="g24"><path
               id="path26"
               style="fill:none;stroke:#231f20;stroke-width:0.75;stroke-linecap:square;stroke-linejoin:miter;stroke-miterlimit:10;stroke-dasharray:none;stroke-opacity:1"
               d="M 0,0 H 82.5" /></g></g></g></g><g
       transform="translate(228.388,28.287)"
       id="g28"><path
         id="path30"
         style="fill:none;stroke:#231f20;stroke-width:2.25;stroke-linecap:square;stroke-linejoin:miter;stroke-miterlimit:10;stroke-dasharray:none;stroke-opacity:1"
         d="M 0,0 V 9" /></g><g
       transform="translate(82.209,68.975)"
       id="g32"><path
         id="path34"
         style="fill:none;stroke:#231f20;stroke-width:0.75;stroke-linecap:square;stroke-linejoin:miter;stroke-miterlimit:10;stroke-dasharray:none;stroke-opacity:1"
         d="M 0,0 H 86.251" /></g><g
       transform="translate(300.388,76.443)"
       id="g36"><path
         id="path38"
         style="fill:none;stroke:#231f20;stroke-width:2.25;stroke-linecap:square;stroke-linejoin:miter;stroke-miterlimit:10;stroke-dasharray:none;stroke-opacity:1"
         d="M 0,0 V 11.094" /><g
         transform="translate(-22.053,-31.656)"
         id="g40"><path
           id="path42"
           style="fill:none;stroke:#231f20;stroke-width:2.25;stroke-linecap:square;stroke-linejoin:miter;stroke-miterlimit:10;stroke-dasharray:none;stroke-opacity:1"
           d="M 0,0 H 22.269" /><g
           transform="translate(22.269,31.656)"
           id="g44"><path
             id="path46"
             style="fill:none;stroke:#231f20;stroke-width:2.25;stroke-linecap:square;stroke-linejoin:miter;stroke-miterlimit:10;stroke-dasharray:none;stroke-opacity:1"
             d="M 0,0 H -0.216" /><g
             transform="translate(0,-11.094)"
             id="g48"><path
               id="path50"
               style="fill:none;stroke:#231f20;stroke-width:2.25;stroke-linecap:square;stroke-linejoin:miter;stroke-miterlimit:10;stroke-dasharray:none;stroke-opacity:1"
               d="M 0,0 V 11.094" /></g></g></g></g><g
       transform="translate(290.335,134.037)"
       id="g52"><path
         id="path54"
         style="fill:none;stroke:#231f20;stroke-width:0.75;stroke-linecap:square;stroke-linejoin:miter;stroke-miterlimit:10;stroke-dasharray:none;stroke-opacity:1"
         d="M 0,0 V 73.095" /><g
         transform="translate(-123.75,17.438)"
         id="g56"><path
           id="path58"
           style="fill:none;stroke:#231f20;stroke-width:0.75;stroke-linecap:square;stroke-linejoin:miter;stroke-miterlimit:10;stroke-dasharray:none;stroke-opacity:1"
           d="M 0,0 H -71.251" /></g></g><g
       transform="translate(59.888,450.117)"
       id="g60"><path
         id="path62"
         style="fill:none;stroke:#231f20;stroke-width:2.25;stroke-linecap:square;stroke-linejoin:miter;stroke-miterlimit:10;stroke-dasharray:none;stroke-opacity:1"
         d="M 0,0 -0.554,10.585" /></g><g
       transform="translate(263.335,150.882)"
       id="g64"><path
         id="path66"
         style="fill:none;stroke:#231f20;stroke-width:0.75;stroke-linecap:square;stroke-linejoin:miter;stroke-miterlimit:10;stroke-dasharray:none;stroke-opacity:1"
         d="M 0,0 H 16.5 V 56.25" /><g
         transform="translate(6.75,56.25)"
         id="g68"><path
           id="path70"
           style="fill:none;stroke:#231f20;stroke-width:0.75;stroke-linecap:square;stroke-linejoin:miter;stroke-miterlimit:10;stroke-dasharray:none;stroke-opacity:1"
           d="M 0,0 V -27.75" /><g
           transform="translate(-27.376,-28.409)"
           id="g72"><path
             id="path74"
             style="fill:none;stroke:#231f20;stroke-width:0.75;stroke-linecap:square;stroke-linejoin:miter;stroke-miterlimit:10;stroke-dasharray:none;stroke-opacity:1"
             d="M 0,0 27.376,0.659" /><g
             transform="translate(-76.499,2.002)"
             id="g76"><path
               id="path78"
               style="fill:none;stroke:#231f20;stroke-width:0.75;stroke-linecap:square;stroke-linejoin:miter;stroke-miterlimit:10;stroke-dasharray:none;stroke-opacity:1"
               d="M 0,0 H -42.75" /></g></g></g></g><g
       transform="translate(279.46,68.787)"
       id="g80"><path
         id="path82"
         style="fill:none;stroke:#231f20;stroke-width:2.25;stroke-linecap:square;stroke-linejoin:miter;stroke-miterlimit:10;stroke-dasharray:none;stroke-opacity:1"
         d="M 0,0 H 21.144" /><g
         transform="translate(21.144,-24)"
         id="g84"><path
           id="path86"
           style="fill:none;stroke:#231f20;stroke-width:2.25;stroke-linecap:square;stroke-linejoin:miter;stroke-miterlimit:10;stroke-dasharray:none;stroke-opacity:1"
           d="M 0,0 V 20.563" /><g
           transform="translate(0,24)"
           id="g88"><path
             id="path90"
             style="fill:none;stroke:#231f20;stroke-width:2.25;stroke-linecap:square;stroke-linejoin:miter;stroke-miterlimit:10;stroke-dasharray:none;stroke-opacity:1"
             d="M 0,0 V -3.437" /></g></g></g><g
       transform="translate(141.375,365.265)"
       id="g92"><path
         id="path94"
         style="fill:none;stroke:#231f20;stroke-width:0.75;stroke-linecap:square;stroke-linejoin:miter;stroke-miterlimit:10;stroke-dasharray:none;stroke-opacity:1"
         d="M 0,0 H 55.5" /><g
         transform="translate(0,-24.75)"
         id="g96"><path
           id="path98"
           style="fill:none;stroke:#231f20;stroke-width:0.75;stroke-linecap:square;stroke-linejoin:miter;stroke-miterlimit:10;stroke-dasharray:none;stroke-opacity:1"
           d="M 0,0 H 60.75" /><g
           transform="translate(0,-25.312)"
           id="g100"><path
             id="path102"
             style="fill:none;stroke:#231f20;stroke-width:0.75;stroke-linecap:square;stroke-linejoin:miter;stroke-miterlimit:10;stroke-dasharray:none;stroke-opacity:1"
             d="M 0,0 H 116.53" /><g
             transform="translate(116.53,-65.913)"
             id="g104"><path
               id="path106"
               style="fill:none;stroke:#231f20;stroke-width:0.75;stroke-linecap:square;stroke-linejoin:miter;stroke-miterlimit:10;stroke-dasharray:none;stroke-opacity:1"
               d="M 0,0 V 65.913" /><g
               transform="translate(-187.03,56.538)"
               id="g108"><path
                 id="path110"
                 style="fill:none;stroke:#231f20;stroke-width:0.75;stroke-linecap:square;stroke-linejoin:miter;stroke-miterlimit:10;stroke-dasharray:none;stroke-opacity:1"
                 d="M 0,0 V -24.75" /><g
                 transform="translate(223.96,-56.538)"
                 id="g112"><path
                   id="path114"
                   style="fill:none;stroke:#231f20;stroke-width:0.75;stroke-linecap:square;stroke-linejoin:miter;stroke-miterlimit:10;stroke-dasharray:none;stroke-opacity:1"
                   d="M 0,0 V 186.695 H -159.556" /></g></g></g></g></g></g><path
       id="path116"
       style="fill:#ffffff;fill-opacity:1;fill-rule:nonzero;stroke:none"
       d="m 66.834,111.162 h 78.75 v 15.375 h -78.75 z" /><g
       transform="translate(74.522,126.537)"
       id="g118"><path
         id="path120"
         style="fill:none;stroke:#231f20;stroke-width:0.75;stroke-linecap:square;stroke-linejoin:miter;stroke-miterlimit:10;stroke-dasharray:none;stroke-opacity:1"
         d="m 0,0 h 63.375 c 4.244,0 7.688,-3.443 7.688,-7.687 0,-4.245 -3.444,-7.688 -7.688,-7.688 H 0 c -4.244,0 -7.687,3.443 -7.687,7.688 C -7.687,-3.443 -4.244,0 0,0 Z" /></g><text
       id="text124"
       style="font-variant:normal;font-weight:normal;font-stretch:normal;font-size:9px;font-family:Times;-inkscape-font-specification:Times-Roman;writing-mode:lr-tb;fill:#231f20;fill-opacity:1;fill-rule:nonzero;stroke:none"
       transform="matrix(1,0,0,-1,81.6938,116.2802)"><tspan
         id="tspan122"
         y="0"
         x="0 4.5 9 11.25 13.5 18 22.5 24.75 27 29.502001 33.498001 37.998001 41.993999 44.495998">65, 33, label</tspan></text>
<path
       id="path126"
       style="fill:#ffffff;fill-opacity:1;fill-rule:nonzero;stroke:none"
       d="m 66.834,87.537 h 73.5 v 15.375 h -73.5 z" /><g
       transform="translate(74.522,102.912)"
       id="g128"><path
         id="path130"
         style="fill:none;stroke:#231f20;stroke-width:0.75;stroke-linecap:square;stroke-linejoin:miter;stroke-miterlimit:10;stroke-dasharray:none;stroke-opacity:1"
         d="m 0,0 h 58.125 c 4.244,0 7.688,-3.443 7.688,-7.687 0,-4.245 -3.444,-7.688 -7.688,-7.688 H 0 c -4.244,0 -7.687,3.443 -7.687,7.688 C -7.687,-3.443 -4.244,0 0,0 Z" /></g><text
       id="text134"
       style="font-variant:normal;font-weight:normal;font-stretch:normal;font-size:9px;font-family:Times;-inkscape-font-specification:Times-Roman;writing-mode:lr-tb;fill:#231f20;fill-opacity:1;fill-rule:nonzero;stroke:none"
       transform="matrix(1,0,0,-1,81.3188,92.7226)"><tspan
         id="tspan132"
         y="0"
         x="0 4.5 9 11.25 13.5 18 22.5 24.75 27 29.502001 33.362999 37.862999 40.365002">65, 44, text</tspan></text>
<path
       id="path136"
       style="fill:#ffffff;fill-opacity:1;fill-rule:nonzero;stroke:none"
       d="m 8.7095,61.287 h 73.5 v 15.375 h -73.5 z" /><g
       transform="translate(16.397,76.662)"
       id="g138"><path
         id="path140"
         style="fill:none;stroke:#231f20;stroke-width:0.75;stroke-linecap:square;stroke-linejoin:miter;stroke-miterlimit:10;stroke-dasharray:none;stroke-opacity:1"
         d="m 0,0 h 58.125 c 4.244,0 7.687,-3.443 7.687,-7.687 0,-4.245 -3.443,-7.688 -7.687,-7.688 H 0 c -4.244,0 -7.6875,3.443 -7.6875,7.688 C -7.6875,-3.443 -4.244,0 0,0 Z" /></g><text
       id="text146"
       style="font-variant:normal;font-weight:normal;font-stretch:normal;font-size:9px;font-family:Times;-inkscape-font-specification:Times-Roman;writing-mode:lr-tb;fill:#231f20;fill-opacity:1;fill-rule:nonzero;stroke:none"
       transform="matrix(1,0,0,-1,23.1938,66.4726)"><tspan
         id="tspan142"
         y="0"
         x="0 4.5 9 11.25 13.5 18 22.5 24.75 27 29.502001 33.362999 37.862999 40.365002">65, 44, text</tspan><tspan
         id="tspan144"
         y="-9.8711996"
         x="281.65948 286.15948">1</tspan></text>
<g
       transform="translate(91.598,13.109)"
       id="g148"><path
         id="path150"
         style="fill:#ffffff;fill-opacity:1;fill-rule:nonzero;stroke:none"
         d="M 0,0 C 0,2.069 -1.68,3.75 -3.75,3.75 -5.82,3.75 -7.5,2.069 -7.5,0 c 0,-2.07 1.68,-3.75 3.75,-3.75 C -1.68,-3.75 0,-2.07 0,0" /></g><g
       transform="translate(91.598,13.109)"
       id="g152"><path
         id="path154"
         style="fill:none;stroke:#231f20;stroke-width:0.75;stroke-linecap:square;stroke-linejoin:miter;stroke-miterlimit:10;stroke-dasharray:none;stroke-opacity:1"
         d="M 0,0 C 0,2.069 -1.68,3.75 -3.75,3.75 -5.82,3.75 -7.5,2.069 -7.5,0 c 0,-2.07 1.68,-3.75 3.75,-3.75 C -1.68,-3.75 0,-2.07 0,0" /></g><g
       transform="translate(89.348,44.97)"
       id="g156"><path
         id="path158"
         style="fill:#ffffff;fill-opacity:1;fill-rule:nonzero;stroke:none"
         d="M 0,0 C 0,2.069 -1.68,3.75 -3.75,3.75 -5.82,3.75 -7.5,2.069 -7.5,0 c 0,-2.07 1.68,-3.75 3.75,-3.75 C -1.68,-3.75 0,-2.07 0,0" /></g><g
       transform="translate(89.348,44.97)"
       id="g160"><path
         id="path162"
         style="fill:none;stroke:#231f20;stroke-width:0.75;stroke-linecap:square;stroke-linejoin:miter;stroke-miterlimit:10;stroke-dasharray:none;stroke-opacity:1"
         d="M 0,0 C 0,2.069 -1.68,3.75 -3.75,3.75 -5.82,3.75 -7.5,2.069 -7.5,0 c 0,-2.07 1.68,-3.75 3.75,-3.75 C -1.68,-3.75 0,-2.07 0,0" /></g><g
       transform="translate(232.088,24.539)"
       id="g164"><path
         id="path166"
         style="fill:#ffffff;fill-opacity:1;fill-rule:nonzero;stroke:none"
         d="M 0,0 C 0,2.07 -1.681,3.75 -3.75,3.75 -5.819,3.75 -7.5,2.07 -7.5,0 c 0,-2.069 1.681,-3.75 3.75,-3.75 C -1.681,-3.75 0,-2.069 0,0" /></g><g
       transform="translate(232.088,24.539)"
       id="g168"><path
         id="path170"
         style="fill:none;stroke:#231f20;stroke-width:0.75;stroke-linecap:square;stroke-linejoin:miter;stroke-miterlimit:10;stroke-dasharray:none;stroke-opacity:1"
         d="M 0,0 C 0,2.07 -1.681,3.75 -3.75,3.75 -5.819,3.75 -7.5,2.07 -7.5,0 c 0,-2.069 1.681,-3.75 3.75,-3.75 C -1.681,-3.75 0,-2.069 0,0" /></g><g
       transform="translate(278.348,44.789)"
       id="g172"><path
         id="path174"
         style="fill:#ffffff;fill-opacity:1;fill-rule:nonzero;stroke:none"
         d="M 0,0 C 0,2.07 -1.68,3.75 -3.75,3.75 -5.819,3.75 -7.5,2.07 -7.5,0 c 0,-2.069 1.681,-3.75 3.75,-3.75 C -1.68,-3.75 0,-2.069 0,0" /></g><g
       transform="translate(278.348,44.789)"
       id="g176"><path
         id="path178"
         style="fill:none;stroke:#231f20;stroke-width:0.75;stroke-linecap:square;stroke-linejoin:miter;stroke-miterlimit:10;stroke-dasharray:none;stroke-opacity:1"
         d="M 0,0 C 0,2.07 -1.68,3.75 -3.75,3.75 -5.819,3.75 -7.5,2.07 -7.5,0 c 0,-2.069 1.681,-3.75 3.75,-3.75 C -1.68,-3.75 0,-2.069 0,0" /></g><text
       id="text190"
       style="font-variant:normal;font-weight:normal;font-stretch:normal;font-size:9px;font-family:Times;-inkscape-font-specification:Times-Roman;writing-mode:lr-tb;fill:#231f20;fill-opacity:1;fill-rule:nonzero;stroke:none"
       transform="matrix(1,0,0,-1,153.0845,110.6191)"><tspan
         id="tspan180"
         y="0"
         x="0 7.0019999 10.998 14.994 18.495001 22.995001 25.992001 29.988001 34.487999 38.987999 42.984001 49.986 53.981998">measure_name</tspan><tspan
         id="tspan182"
         y="26.3799"
         x="-5.2497001 -0.74970001 3.2463 6.7473001 10.7433 13.7403 16.2423 20.7423 23.244301 25.7463 30.2463 34.7463">description</tspan><tspan
         id="tspan184"
         y="108.657"
         x="-54 -50.004002 -45.639 -41.273998 -37.278 -34.280998 -30.285 -25.785 -21.789 -17.289 -14.382 -10.386 -6.3899999 -3.888 0.61199999 3.609">coverage_factor</tspan><tspan
         id="tspan186"
         y="76.629601"
         x="-52.499699 -47.999699 -43.499699 -39.5037 -35.507702 -32.5107 -30.008699 -26.012699 -23.5107 -19.0107 -16.508699 -12.0087 -7.5086999 -3.2337 0.76230001 3.2643001 7.7642999 11.7603">uncertainty_value</tspan><tspan
         id="tspan188"
         y="52.629299"
         x="-52.624802 -48.124802 -43.624802 -39.628799 -35.632801 -32.635799 -30.133801 -26.1378 -23.635799 -19.135799 -16.633801 -12.1338 -7.6338 -3.3587999 0.6372 3.1392 7.6392002 11.6352">uncertainty_value</tspan></text>
<path
       id="path192"
       style="fill:#ffffff;fill-opacity:1;fill-rule:nonzero;stroke:none"
       d="m 41.334,5.4121 h 42.75 v 15.375 h -42.75 z" /><g
       transform="translate(41.334,20.787)"
       id="g194"><path
         id="path196"
         style="fill:none;stroke:#231f20;stroke-width:0.75;stroke-linecap:square;stroke-linejoin:miter;stroke-miterlimit:10;stroke-dasharray:none;stroke-opacity:1"
         d="M 42.75,0 H 0 v -15.375 h 42.75 z" /><g
         id="g198"><path
           id="path200"
           style="fill:none;stroke:#231f20;stroke-width:0.75;stroke-linecap:square;stroke-linejoin:miter;stroke-miterlimit:10;stroke-dasharray:none;stroke-opacity:1"
           d="M 0,0 Z" /><g
           transform="translate(35.25,-15.375)"
           id="g202"><path
             id="path204"
             style="fill:none;stroke:#231f20;stroke-width:0.75;stroke-linecap:square;stroke-linejoin:miter;stroke-miterlimit:10;stroke-dasharray:none;stroke-opacity:1"
             d="M 0,0 V 15.375" /></g></g></g><text
       id="text208"
       style="font-variant:normal;font-weight:normal;font-stretch:normal;font-size:9px;font-family:Times;-inkscape-font-specification:Times-Roman;writing-mode:lr-tb;fill:#231f20;fill-opacity:1;fill-rule:nonzero;stroke:none"
       transform="matrix(1,0,0,-1,49.7075,9.9365)"><tspan
         id="tspan206"
         y="0"
         x="0 6.0029998 9.9989996 13.995 16.497">Real</tspan></text>
<path
       id="path210"
       style="fill:#ffffff;fill-opacity:1;fill-rule:nonzero;stroke:none"
       d="m 39.084,37.287 h 42.75 v 15.375 h -42.75 z" /><g
       transform="translate(39.084,52.662)"
       id="g212"><path
         id="path214"
         style="fill:none;stroke:#231f20;stroke-width:0.75;stroke-linecap:square;stroke-linejoin:miter;stroke-miterlimit:10;stroke-dasharray:none;stroke-opacity:1"
         d="M 42.75,0 H 0 v -15.375 h 42.75 z" /><g
         id="g216"><path
           id="path218"
           style="fill:none;stroke:#231f20;stroke-width:0.75;stroke-linecap:square;stroke-linejoin:miter;stroke-miterlimit:10;stroke-dasharray:none;stroke-opacity:1"
           d="M 0,0 Z" /><g
           transform="translate(35.25,-15.375)"
           id="g220"><path
             id="path222"
             style="fill:none;stroke:#231f20;stroke-width:0.75;stroke-linecap:square;stroke-linejoin:miter;stroke-miterlimit:10;stroke-dasharray:none;stroke-opacity:1"
             d="M 0,0 V 15.375" /></g></g></g><text
       id="text226"
       style="font-variant:normal;font-weight:normal;font-stretch:normal;font-size:9px;font-family:Times;-inkscape-font-specification:Times-Roman;writing-mode:lr-tb;fill:#231f20;fill-opacity:1;fill-rule:nonzero;stroke:none"
       transform="matrix(1,0,0,-1,47.4575,41.8115)"><tspan
         id="tspan224"
         y="0"
         x="0 6.0029998 9.9989996 13.995 16.497">Real</tspan></text>
<path
       id="path228"
       style="fill:#ffffff;fill-opacity:1;fill-rule:nonzero;stroke:none"
       d="m 222.835,87.537 h 96.75 v 39 h -96.75 z" /><g
       transform="translate(222.835,126.537)"
       id="g230"><path
         id="path232"
         style="fill:none;stroke:#231f20;stroke-width:0.75;stroke-linecap:square;stroke-linejoin:miter;stroke-miterlimit:10;stroke-dasharray:none;stroke-opacity:1"
         d="M 96.75,0 H 0 v -39 h 96.75 z" /><g
         id="g234"><path
           id="path236"
           style="fill:none;stroke:#231f20;stroke-width:0.75;stroke-linecap:square;stroke-linejoin:miter;stroke-miterlimit:10;stroke-dasharray:none;stroke-opacity:1"
           d="M 0,0 Z" /></g></g><text
       id="text240"
       style="font-variant:normal;font-weight:normal;font-stretch:normal;font-size:9px;font-family:Times;-inkscape-font-specification:Times-Roman;writing-mode:lr-tb;fill:#231f20;fill-opacity:1;fill-rule:nonzero;stroke:none"
       transform="matrix(1,0,0,-1,230.9443,104.7246)"><tspan
         id="tspan238"
         y="0"
         x="0 4.5 9 12.996 16.992001 19.989 22.490999 26.487 28.989 33.488998 35.991001 40.491001 44.991001 49.491001 53.991001 57.987 60.488998 62.991001 65.807999 68.309998 72.306 75.303001">uncertainty_qualifier</tspan></text>
<path
       id="path242"
       style="fill:#ffffff;fill-opacity:1;fill-rule:nonzero;stroke:none"
       d="m 162.835,5.4121 h 101.25 v 15.375 h -101.25 z" /><g
       transform="translate(162.835,20.787)"
       id="g244"><path
         id="path246"
         style="fill:none;stroke:#231f20;stroke-width:0.75;stroke-linecap:square;stroke-linejoin:miter;stroke-miterlimit:10;stroke-dasharray:none;stroke-opacity:1"
         d="M 101.25,0 H 0 v -15.375 h 101.25 z" /><g
         id="g248"><path
           id="path250"
           style="fill:none;stroke:#231f20;stroke-width:0.75;stroke-linecap:square;stroke-linejoin:miter;stroke-miterlimit:10;stroke-dasharray:none;stroke-opacity:1"
           d="M 0,0 Z" /></g></g><text
       id="text254"
       style="font-variant:normal;font-weight:normal;font-stretch:normal;font-size:9px;font-family:Times;-inkscape-font-specification:Times-Roman;writing-mode:lr-tb;fill:#231f20;fill-opacity:1;fill-rule:nonzero;stroke:none"
       transform="matrix(1,0,0,-1,169.1846,10.831)"><tspan
         id="tspan252"
         y="0"
         x="0 3.8610001 8.3610001 12.861 16.857 21.357 25.857 29.853001 34.353001 38.853001 43.353001 47.853001 51.848999 55.845001 58.841999 61.344002 65.339996 67.842003 72.342003 74.844002 79.344002">expanded_uncertainty</tspan></text>
<path
       id="path256"
       style="fill:#ffffff;fill-opacity:1;fill-rule:nonzero;stroke:none"
       d="m 172.585,37.287 h 98.25 v 15.375 h -98.25 z" /><g
       transform="translate(172.585,52.662)"
       id="g258"><path
         id="path260"
         style="fill:none;stroke:#231f20;stroke-width:0.75;stroke-linecap:square;stroke-linejoin:miter;stroke-miterlimit:10;stroke-dasharray:none;stroke-opacity:1"
         d="M 98.25,0 H 0 v -15.375 h 98.25 z" /><g
         id="g262"><path
           id="path264"
           style="fill:none;stroke:#231f20;stroke-width:0.75;stroke-linecap:square;stroke-linejoin:miter;stroke-miterlimit:10;stroke-dasharray:none;stroke-opacity:1"
           d="M 0,0 Z" /></g></g><text
       id="text268"
       style="font-variant:normal;font-weight:normal;font-stretch:normal;font-size:9px;font-family:Times;-inkscape-font-specification:Times-Roman;writing-mode:lr-tb;fill:#231f20;fill-opacity:1;fill-rule:nonzero;stroke:none"
       transform="matrix(1,0,0,-1,179.6885,42.706)"><tspan
         id="tspan266"
         y="0"
         x="0 3.5009999 6.0029998 9.9989996 14.499 18.999001 22.995001 25.992001 30.492001 34.992001 39.492001 43.992001 47.987999 51.984001 54.980999 57.483002 61.479 63.980999 68.481003 70.983002 75.483002">standard_uncertainty</tspan></text>
<path
       id="path270"
       style="fill:#ffffff;fill-opacity:1;fill-rule:nonzero;stroke:none"
       d="m 3.2793,427.247 h 132 v 15.376 h -132 z" /><g
       transform="translate(3.2793,442.623)"
       id="g272"><path
         id="path274"
         style="fill:none;stroke:#231f20;stroke-width:0.75;stroke-linecap:square;stroke-linejoin:miter;stroke-miterlimit:10;stroke-dasharray:none;stroke-opacity:1"
         d="M 132,0 H 0 v -15.376 h 132 z" /><g
         id="g276"><path
           id="path278"
           style="fill:none;stroke:#231f20;stroke-width:0.75;stroke-linecap:square;stroke-linejoin:miter;stroke-miterlimit:10;stroke-dasharray:none;stroke-opacity:1"
           d="M 0,0 Z" /></g></g><text
       id="text282"
       style="font-variant:normal;font-weight:normal;font-stretch:normal;font-size:9px;font-family:Times;-inkscape-font-specification:Times-Roman;writing-mode:lr-tb;fill:#231f20;fill-opacity:1;fill-rule:nonzero;stroke:none"
       transform="matrix(1,0,0,-1,10.2534,432.5908)"><tspan
         id="tspan280"
         y="0"
         x="0 4.5 9 12.996 15.498 18 20.816999 23.319 27.315001 31.815001 36.314999 39.312 43.307999 47.807999 50.805 54.800999 58.301998 62.298 66.797997 69.300003 73.295998 75.797997 78.300003 82.800003 87.300003 91.800003 94.302002 96.804001 100.8 107.802">qualified_representation_item</tspan></text>
<path
       id="path284"
       style="fill:#ffffff;fill-opacity:1;fill-rule:nonzero;stroke:none"
       d="m 168.46,61.287 h 103.5 v 15.375 h -103.5 z" /><g
       transform="translate(168.46,76.662)"
       id="g286"><path
         id="path288"
         style="fill:none;stroke:#231f20;stroke-width:0.75;stroke-linecap:square;stroke-linejoin:miter;stroke-miterlimit:10;stroke-dasharray:none;stroke-opacity:1"
         d="M 103.5,0 H 0 v -15.375 h 103.5 z" /><g
         id="g290"><path
           id="path292"
           style="fill:none;stroke:#231f20;stroke-width:0.75;stroke-linecap:square;stroke-linejoin:miter;stroke-miterlimit:10;stroke-dasharray:none;stroke-opacity:1"
           d="M 0,0 Z" /></g></g><text
       id="text296"
       style="font-variant:normal;font-weight:normal;font-stretch:normal;font-size:9px;font-family:Times;-inkscape-font-specification:Times-Roman;writing-mode:lr-tb;fill:#231f20;fill-opacity:1;fill-rule:nonzero;stroke:none"
       transform="matrix(1,0,0,-1,175.4394,66.706)"><tspan
         id="tspan294"
         y="0"
         x="0 4.5 9 12.996 15.498 18 20.502001 24.497999 27 29.277 33.641998 37.638 42.138 46.638 51.138 55.133999 59.130001 62.126999 64.628998 68.625 71.126999 75.626999 78.128998 82.628998">qualitative_uncertainty</tspan></text>
<path
       id="path298"
       style="fill:#ffffff;fill-opacity:1;fill-rule:nonzero;stroke:none"
       d="m 228.46,207.132 h 79.497 v 34.657 H 228.46 Z" /><path
       id="path300"
       style="fill:none;stroke:#231f20;stroke-width:0.75;stroke-linecap:square;stroke-linejoin:miter;stroke-miterlimit:10;stroke-dasharray:3.75, 3.75;stroke-dashoffset:0;stroke-opacity:1"
       d="m 228.46,241.789 v -34.657 h 79.497 v 34.657 z m 7.5,-34.657 v 34.657" /><text
       id="text304"
       style="font-variant:normal;font-weight:normal;font-stretch:normal;font-size:9px;font-family:Times;-inkscape-font-specification:Times-Roman;writing-mode:lr-tb;fill:#231f20;fill-opacity:1;fill-rule:nonzero;stroke:none"
       transform="matrix(1,0,0,-1,242.9473,222.1172)"><tspan
         id="tspan302"
         y="0"
         x="0 4.2750001 8.2709999 10.773 15.273 19.268999 23.768999 28.268999 32.769001 36.764999 39.266998 41.769001 44.585999 47.088001 51.084 54.081001">value_qualifier</tspan></text>
<g
       transform="translate(294.098,130.289)"
       id="g306"><path
         id="path308"
         style="fill:#ffffff;fill-opacity:1;fill-rule:nonzero;stroke:none"
         d="M 0,0 C 0,2.07 -1.68,3.75 -3.75,3.75 -5.819,3.75 -7.5,2.07 -7.5,0 c 0,-2.069 1.681,-3.75 3.75,-3.75 C -1.68,-3.75 0,-2.069 0,0" /></g><g
       transform="translate(294.098,130.289)"
       id="g310"><path
         id="path312"
         style="fill:none;stroke:#231f20;stroke-width:0.75;stroke-linecap:square;stroke-linejoin:miter;stroke-miterlimit:10;stroke-dasharray:none;stroke-opacity:1"
         d="M 0,0 C 0,2.07 -1.68,3.75 -3.75,3.75 -5.819,3.75 -7.5,2.07 -7.5,0 c 0,-2.069 1.681,-3.75 3.75,-3.75 C -1.68,-3.75 0,-2.069 0,0" /></g><path
       id="path314"
       style="fill:#ffffff;fill-opacity:1;fill-rule:nonzero;stroke:none"
       d="m 166.585,143.787 h 89.25 v 15.375 h -89.25 z" /><g
       transform="translate(166.585,159.162)"
       id="g316"><path
         id="path318"
         style="fill:none;stroke:#231f20;stroke-width:0.75;stroke-linecap:square;stroke-linejoin:miter;stroke-miterlimit:10;stroke-dasharray:none;stroke-opacity:1"
         d="M 89.25,0 H 0 v -15.375 h 89.25 z" /><g
         id="g320"><path
           id="path322"
           style="fill:none;stroke:#231f20;stroke-width:0.75;stroke-linecap:square;stroke-linejoin:miter;stroke-miterlimit:10;stroke-dasharray:none;stroke-opacity:1"
           d="M 0,0 Z" /></g></g><text
       id="text326"
       style="font-variant:normal;font-weight:normal;font-stretch:normal;font-size:9px;font-family:Times;-inkscape-font-specification:Times-Roman;writing-mode:lr-tb;fill:#231f20;fill-opacity:1;fill-rule:nonzero;stroke:none"
       transform="matrix(1,0,0,-1,174.9482,149.1299)"><tspan
         id="tspan324"
         y="0"
         x="0 4.5 7.4970002 11.493 15.489 17.990999 21.492001 23.993999 28.493999 32.993999 37.493999 41.993999 46.493999 50.490002 52.992001 55.493999 58.311001 60.813 64.808998 67.806">precision_qualifier</tspan></text>
<path
       id="path328"
       style="fill:#ffffff;fill-opacity:1;fill-rule:nonzero;stroke:none"
       d="m 27.834,143.787 h 60 v 15.375 h -60 z" /><g
       transform="translate(27.834,159.162)"
       id="g330"><path
         id="path332"
         style="fill:none;stroke:#231f20;stroke-width:0.75;stroke-linecap:square;stroke-linejoin:miter;stroke-miterlimit:10;stroke-dasharray:none;stroke-opacity:1"
         d="M 60,0 H 0 v -15.375 h 60 z" /><g
         id="g334"><path
           id="path336"
           style="fill:none;stroke:#231f20;stroke-width:0.75;stroke-linecap:square;stroke-linejoin:miter;stroke-miterlimit:10;stroke-dasharray:none;stroke-opacity:1"
           d="M 0,0 Z" /><g
           transform="translate(52.5,-15.375)"
           id="g338"><path
             id="path340"
             style="fill:none;stroke:#231f20;stroke-width:0.75;stroke-linecap:square;stroke-linejoin:miter;stroke-miterlimit:10;stroke-dasharray:none;stroke-opacity:1"
             d="M 0,0 V 15.375" /></g></g></g><text
       id="text344"
       style="font-variant:normal;font-weight:normal;font-stretch:normal;font-size:9px;font-family:Times;-inkscape-font-specification:Times-Roman;writing-mode:lr-tb;fill:#231f20;fill-opacity:1;fill-rule:nonzero;stroke:none"
       transform="matrix(1,0,0,-1,40.0762,149.2334)"><tspan
         id="tspan342"
         y="0"
         x="0 2.997 7.4970002 9.9989996 13.86 18.360001 22.356001 25.353001">Integer</tspan></text>
<g
       transform="translate(95.288,151.439)"
       id="g346"><path
         id="path348"
         style="fill:#ffffff;fill-opacity:1;fill-rule:nonzero;stroke:none"
         d="M 0,0 C 0,2.07 -1.679,3.75 -3.75,3.75 -5.82,3.75 -7.5,2.07 -7.5,0 c 0,-2.07 1.68,-3.75 3.75,-3.75 C -1.679,-3.75 0,-2.07 0,0" /></g><g
       transform="translate(95.288,151.439)"
       id="g350"><path
         id="path352"
         style="fill:none;stroke:#231f20;stroke-width:0.75;stroke-linecap:square;stroke-linejoin:miter;stroke-miterlimit:10;stroke-dasharray:none;stroke-opacity:1"
         d="M 0,0 C 0,2.07 -1.679,3.75 -3.75,3.75 -5.82,3.75 -7.5,2.07 -7.5,0 c 0,-2.07 1.68,-3.75 3.75,-3.75 C -1.679,-3.75 0,-2.07 0,0" /></g><text
       id="text356"
       style="font-variant:normal;font-weight:normal;font-stretch:normal;font-size:9px;font-family:Times;-inkscape-font-specification:Times-Roman;writing-mode:lr-tb;fill:#231f20;fill-opacity:1;fill-rule:nonzero;stroke:none"
       transform="matrix(1,0,0,-1,102.8345,140.4892)"><tspan
         id="tspan354"
         y="0"
         x="0 4.5 7.4970002 11.493 15.489 17.990999 21.492001 23.993999 28.493999 32.993999 37.493999 41.769001 45.764999 48.266998 52.766998 56.763">precision_value</tspan></text>
<path
       id="path358"
       style="fill:#ffffff;fill-opacity:1;fill-rule:nonzero;stroke:none"
       d="m 28.584,460.702 h 61.5 v 18.75 h -61.5 z" /><g
       transform="translate(37.959,479.452)"
       id="g360"><path
         id="path362"
         style="fill:none;stroke:#231f20;stroke-width:0.75;stroke-linecap:square;stroke-linejoin:miter;stroke-miterlimit:10;stroke-dasharray:none;stroke-opacity:1"
         d="m 0,0 h 42.75 c 5.175,0 9.375,-4.199 9.375,-9.375 0,-5.174 -4.2,-9.375 -9.375,-9.375 H 0 c -5.175,0 -9.375,4.201 -9.375,9.375 C -9.375,-4.199 -5.175,0 0,0 Z" /></g><text
       id="text366"
       style="font-variant:normal;font-weight:normal;font-stretch:normal;font-size:9px;font-family:Times;-inkscape-font-specification:Times-Roman;writing-mode:lr-tb;fill:#231f20;fill-opacity:1;fill-rule:nonzero;stroke:none"
       transform="matrix(1,0,0,-1,35.0708,467.7109)"><tspan
         id="tspan364"
         y="0"
         x="0 4.5 9 11.25 13.5 18 22.5 27 29.25 32.247002 36.747002 41.247002 44.243999">49, 296 (21)</tspan></text>
<g
       transform="translate(63.788,446.37)"
       id="g368"><path
         id="path370"
         style="fill:#ffffff;fill-opacity:1;fill-rule:nonzero;stroke:none"
         d="M 0,0 C 0,2.07 -1.679,3.75 -3.75,3.75 -5.82,3.75 -7.5,2.07 -7.5,0 c 0,-2.07 1.68,-3.75 3.75,-3.75 C -1.679,-3.75 0,-2.07 0,0" /></g><g
       transform="translate(63.788,446.37)"
       id="g372"><path
         id="path374"
         style="fill:none;stroke:#231f20;stroke-width:0.75;stroke-linecap:square;stroke-linejoin:miter;stroke-miterlimit:10;stroke-dasharray:none;stroke-opacity:1"
         d="M 0,0 C 0,2.07 -1.679,3.75 -3.75,3.75 -5.82,3.75 -7.5,2.07 -7.5,0 c 0,-2.07 1.68,-3.75 3.75,-3.75 C -1.679,-3.75 0,-2.07 0,0" /></g><g
       transform="translate(263.318,150.899)"
       id="g376"><path
         id="path378"
         style="fill:#ffffff;fill-opacity:1;fill-rule:nonzero;stroke:none"
         d="M 0,0 C 0,2.07 -1.681,3.75 -3.75,3.75 -5.82,3.75 -7.5,2.07 -7.5,0 c 0,-2.07 1.68,-3.75 3.75,-3.75 C -1.681,-3.75 0,-2.07 0,0" /></g><g
       transform="translate(263.318,150.899)"
       id="g380"><path
         id="path382"
         style="fill:none;stroke:#231f20;stroke-width:0.75;stroke-linecap:square;stroke-linejoin:miter;stroke-miterlimit:10;stroke-dasharray:none;stroke-opacity:1"
         d="M 0,0 C 0,2.07 -1.681,3.75 -3.75,3.75 -5.82,3.75 -7.5,2.07 -7.5,0 c 0,-2.07 1.68,-3.75 3.75,-3.75 C -1.681,-3.75 0,-2.07 0,0" /></g><path
       id="path384"
       style="fill:#ffffff;fill-opacity:1;fill-rule:nonzero;stroke:none"
       d="m 166.21,173.037 h 69 v 15.375 h -69 z" /><g
       transform="translate(166.21,188.412)"
       id="g386"><path
         id="path388"
         style="fill:none;stroke:#231f20;stroke-width:0.75;stroke-linecap:square;stroke-linejoin:miter;stroke-miterlimit:10;stroke-dasharray:none;stroke-opacity:1"
         d="M 69,0 H 0 v -15.375 h 69 z" /><g
         id="g390"><path
           id="path392"
           style="fill:none;stroke:#231f20;stroke-width:0.75;stroke-linecap:square;stroke-linejoin:miter;stroke-miterlimit:10;stroke-dasharray:none;stroke-opacity:1"
           d="M 0,0 Z" /></g></g><text
       id="text396"
       style="font-variant:normal;font-weight:normal;font-stretch:normal;font-size:9px;font-family:Times;-inkscape-font-specification:Times-Roman;writing-mode:lr-tb;fill:#231f20;fill-opacity:1;fill-rule:nonzero;stroke:none"
       transform="matrix(1,0,0,-1,173.9482,178.4121)"><tspan
         id="tspan394"
         y="0"
         x="0 2.5020001 7.0019999 11.502 15.498 19.997999 24.497999 28.997999 32.993999 35.495998 37.998001 40.814999 43.317001 47.313 50.310001">type_qualifier</tspan></text>
<g
       transform="translate(242.708,178.619)"
       id="g398"><path
         id="path400"
         style="fill:#ffffff;fill-opacity:1;fill-rule:nonzero;stroke:none"
         d="M 0,0 C 0,2.07 -1.68,3.75 -3.75,3.75 -5.82,3.75 -7.5,2.07 -7.5,0 c 0,-2.07 1.68,-3.75 3.75,-3.75 C -1.68,-3.75 0,-2.07 0,0" /></g><g
       transform="translate(242.708,178.619)"
       id="g402"><path
         id="path404"
         style="fill:none;stroke:#231f20;stroke-width:0.75;stroke-linecap:square;stroke-linejoin:miter;stroke-miterlimit:10;stroke-dasharray:none;stroke-opacity:1"
         d="M 0,0 C 0,2.07 -1.68,3.75 -3.75,3.75 -5.82,3.75 -7.5,2.07 -7.5,0 c 0,-2.07 1.68,-3.75 3.75,-3.75 C -1.68,-3.75 0,-2.07 0,0" /></g><path
       id="path406"
       style="fill:#ffffff;fill-opacity:1;fill-rule:nonzero;stroke:none"
       d="m 44.709,173.037 h 78.75 v 15.375 h -78.75 z" /><g
       transform="translate(52.397,188.412)"
       id="g408"><path
         id="path410"
         style="fill:none;stroke:#231f20;stroke-width:0.75;stroke-linecap:square;stroke-linejoin:miter;stroke-miterlimit:10;stroke-dasharray:none;stroke-opacity:1"
         d="m 0,0 h 63.375 c 4.244,0 7.688,-3.443 7.688,-7.687 0,-4.245 -3.444,-7.688 -7.688,-7.688 H 0 c -4.244,0 -7.687,3.443 -7.687,7.688 C -7.687,-3.443 -4.244,0 0,0 Z" /></g><text
       id="text416"
       style="font-variant:normal;font-weight:normal;font-stretch:normal;font-size:9px;font-family:Times;-inkscape-font-specification:Times-Roman;writing-mode:lr-tb;fill:#231f20;fill-opacity:1;fill-rule:nonzero;stroke:none"
       transform="matrix(1,0,0,-1,59.5688,178.1552)"><tspan
         id="tspan412"
         y="0"
         x="0 4.5 9 11.25 13.5 18 22.5 24.75 27 29.502001 33.498001 37.998001 41.993999 44.495998">65, 33, label</tspan><tspan
         id="tspan414"
         y="5.6619"
         x="71.390701 75.890701 79.886703 86.888702 90.884697">name</tspan></text>
<g
       transform="translate(279.428,68.819)"
       id="g418"><path
         id="path420"
         style="fill:#ffffff;fill-opacity:1;fill-rule:nonzero;stroke:none"
         d="M 0,0 C 0,2.069 -1.68,3.75 -3.75,3.75 -5.819,3.75 -7.5,2.069 -7.5,0 c 0,-2.069 1.681,-3.75 3.75,-3.75 C -1.68,-3.75 0,-2.069 0,0" /></g><g
       transform="translate(279.428,68.819)"
       id="g422"><path
         id="path424"
         style="fill:none;stroke:#231f20;stroke-width:0.75;stroke-linecap:square;stroke-linejoin:miter;stroke-miterlimit:10;stroke-dasharray:none;stroke-opacity:1"
         d="M 0,0 C 0,2.069 -1.68,3.75 -3.75,3.75 -5.819,3.75 -7.5,2.069 -7.5,0 c 0,-2.069 1.681,-3.75 3.75,-3.75 C -1.68,-3.75 0,-2.069 0,0" /></g><text
       id="text428"
       style="font-variant:normal;font-weight:normal;font-stretch:normal;font-size:9px;font-family:Times;-inkscape-font-specification:Times-Roman;writing-mode:lr-tb;fill:#231f20;fill-opacity:1;fill-rule:nonzero;stroke:none"
       transform="matrix(1,0,0,-1,140.3755,421.709)"><tspan
         id="tspan426"
         y="0"
         x="0 4.5 9 12.996 15.498 18 20.816999 23.319 27.315001 30.312 33.813 36.063 41.067001 44.063999 48.563999 51.066002 55.062 58.058998">qualifiers S[1:?]</tspan></text>
<path
       id="path430"
       style="fill:#ffffff;fill-opacity:1;fill-rule:nonzero;stroke:none"
       d="m 196.875,357.577 h 78.75 v 15.375 h -78.75 z" /><g
       transform="translate(204.562,372.952)"
       id="g432"><path
         id="path434"
         style="fill:none;stroke:#231f20;stroke-width:0.75;stroke-linecap:square;stroke-linejoin:miter;stroke-miterlimit:10;stroke-dasharray:none;stroke-opacity:1"
         d="m 0,0 h 63.375 c 4.244,0 7.688,-3.443 7.688,-7.687 0,-4.243 -3.444,-7.688 -7.688,-7.688 H 0 c -4.243,0 -7.688,3.445 -7.688,7.688 C -7.688,-3.443 -4.243,0 0,0 Z" /></g><text
       id="text438"
       style="font-variant:normal;font-weight:normal;font-stretch:normal;font-size:9px;font-family:Times;-inkscape-font-specification:Times-Roman;writing-mode:lr-tb;fill:#231f20;fill-opacity:1;fill-rule:nonzero;stroke:none"
       transform="matrix(1,0,0,-1,211.7344,362.6953)"><tspan
         id="tspan436"
         y="0"
         x="0 4.5 9 11.25 13.5 18 22.5 24.75 27 29.502001 33.498001 37.998001 41.993999 44.495998">65, 33, label</tspan></text>
<path
       id="path440"
       style="fill:#ffffff;fill-opacity:1;fill-rule:nonzero;stroke:none"
       d="m 202.125,332.827 h 73.5 v 15.375 h -73.5 z" /><g
       transform="translate(209.812,348.202)"
       id="g442"><path
         id="path444"
         style="fill:none;stroke:#231f20;stroke-width:0.75;stroke-linecap:square;stroke-linejoin:miter;stroke-miterlimit:10;stroke-dasharray:none;stroke-opacity:1"
         d="m 0,0 h 58.125 c 4.244,0 7.688,-3.443 7.688,-7.687 0,-4.243 -3.444,-7.688 -7.688,-7.688 H 0 c -4.243,0 -7.687,3.445 -7.687,7.688 C -7.687,-3.443 -4.243,0 0,0 Z" /></g><text
       id="text448"
       style="font-variant:normal;font-weight:normal;font-stretch:normal;font-size:9px;font-family:Times;-inkscape-font-specification:Times-Roman;writing-mode:lr-tb;fill:#231f20;fill-opacity:1;fill-rule:nonzero;stroke:none"
       transform="matrix(1,0,0,-1,216.6094,338.0127)"><tspan
         id="tspan446"
         y="0"
         x="0 4.5 9 11.25 13.5 18 22.5 24.75 27 29.502001 33.362999 37.862999 40.365002">65, 44, text</tspan></text>
<path
       id="path450"
       style="fill:#ffffff;fill-opacity:1;fill-rule:nonzero;stroke:none"
       d="m 0.375,265.702 h 141 v 15.375 h -141 z" /><g
       transform="translate(8.0625,281.077)"
       id="g452"><path
         id="path454"
         style="fill:none;stroke:#231f20;stroke-width:0.75;stroke-linecap:square;stroke-linejoin:miter;stroke-miterlimit:10;stroke-dasharray:none;stroke-opacity:1"
         d="m 0,0 h 125.625 c 4.244,0 7.687,-3.443 7.687,-7.687 0,-4.243 -3.443,-7.688 -7.687,-7.688 H 0 c -4.2432,0 -7.6875,3.445 -7.6875,7.688 C -7.6875,-3.443 -4.2432,0 0,0 Z" /></g><text
       id="text458"
       style="font-variant:normal;font-weight:normal;font-stretch:normal;font-size:9px;font-family:Times;-inkscape-font-specification:Times-Roman;writing-mode:lr-tb;fill:#231f20;fill-opacity:1;fill-rule:nonzero;stroke:none"
       transform="matrix(1,0,0,-1,15.5972,270.8203)"><tspan
         id="tspan456"
         y="0"
         x="0 4.5 9 11.25 13.5 18 22.5 27 29.25 31.5 38.501999 42.498001 46.493999 49.994999 54.494999 57.492001 61.487999 65.987999 72.486 74.987999 77.489998 81.989998 86.489998 90.989998 95.489998 97.991997 100.494">47, 181, measure_with_unit</tspan></text>
<path
       id="path460"
       style="fill:#ffffff;fill-opacity:1;fill-rule:nonzero;stroke:none"
       d="m 0.375,305.827 h 141 v 67.125 h -141 z" /><g
       transform="translate(0.375,372.952)"
       id="g462"><path
         id="path464"
         style="fill:none;stroke:#231f20;stroke-width:0.75;stroke-linecap:square;stroke-linejoin:miter;stroke-miterlimit:10;stroke-dasharray:none;stroke-opacity:1"
         d="M 141,0 H 0 v -67.125 h 141 z" /><g
         id="g466"><path
           id="path468"
           style="fill:none;stroke:#231f20;stroke-width:0.75;stroke-linecap:square;stroke-linejoin:miter;stroke-miterlimit:10;stroke-dasharray:none;stroke-opacity:1"
           d="M 0,0 Z" /></g></g><text
       id="text476"
       style="font-variant:normal;font-weight:normal;font-stretch:normal;font-size:9px;font-family:Times;-inkscape-font-specification:Times-Roman;writing-mode:lr-tb;fill:#231f20;fill-opacity:1;fill-rule:nonzero;stroke:none"
       transform="matrix(1,0,0,-1,27.1084,337.0454)"><tspan
         id="tspan470"
         y="0"
         x="0 7.0019999 10.998 14.994 18.495001 22.995001 25.992001 29.988001 34.487999 38.987999 43.487999 47.484001 49.986 52.487999 55.305 57.806999 61.803001 65.799004 68.301003 70.803001 75.303001 79.803001">measure_qualification</tspan><tspan
         id="tspan472"
         y="-19.989"
         x="121.7664 126.2664 130.26241 137.2644 141.26041">name</tspan><tspan
         id="tspan474"
         y="7.5149999"
         x="121.7664 126.2664 130.26241 133.7634 137.7594 140.75639 143.25841 147.75841 150.26041 152.76241 157.26241 161.76241">description</tspan></text>
<g
       transform="translate(261.608,245.58)"
       id="g478"><path
         id="path480"
         style="fill:#ffffff;fill-opacity:1;fill-rule:nonzero;stroke:none"
         d="M 0,0 C 0,2.069 -1.681,3.75 -3.75,3.75 -5.82,3.75 -7.5,2.069 -7.5,0 c 0,-2.071 1.68,-3.751 3.75,-3.751 2.069,0 3.75,1.68 3.75,3.751" /></g><g
       transform="translate(261.608,245.58)"
       id="g482"><path
         id="path484"
         style="fill:none;stroke:#231f20;stroke-width:0.75;stroke-linecap:square;stroke-linejoin:miter;stroke-miterlimit:10;stroke-dasharray:none;stroke-opacity:1"
         d="M 0,0 C 0,2.069 -1.681,3.75 -3.75,3.75 -5.82,3.75 -7.5,2.069 -7.5,0 c 0,-2.071 1.68,-3.751 3.75,-3.751 2.069,0 3.75,1.68 3.75,3.751" /></g><text
       id="text490"
       style="font-variant:normal;font-weight:normal;font-stretch:normal;font-size:9px;font-family:Times;-inkscape-font-specification:Times-Roman;writing-mode:lr-tb;fill:#231f20;fill-opacity:1;fill-rule:nonzero;stroke:none"
       transform="matrix(1,0,0,-1,78.375,287.1894)"><tspan
         id="tspan486"
         y="0"
         x="0 4.5 9 12.996 15.498 18 20.816999 23.319 27.315001 31.815001 36.314999 43.317001 47.313 51.308998 54.810001 59.310001 62.306999 66.303001">qualified_measure</tspan><tspan
         id="tspan488"
         y="-12.987"
         x="70.959602 75.459602 79.959602 83.955597 86.457603 88.959602 91.776604 94.278603 98.274597 101.2716 104.7726 107.0226 112.0266 115.0236 119.5236 122.0256 126.0216 129.0186">qualifiers S[1:?]</tspan></text>
<g
       transform="translate(298.598,245.58)"
       id="g492"><path
         id="path494"
         style="fill:#ffffff;fill-opacity:1;fill-rule:nonzero;stroke:none"
         d="M 0,0 C 0,2.069 -1.68,3.75 -3.75,3.75 -5.819,3.75 -7.5,2.069 -7.5,0 c 0,-2.071 1.681,-3.751 3.75,-3.751 2.07,0 3.75,1.68 3.75,3.751" /></g><g
       transform="translate(298.598,245.58)"
       id="g496"><path
         id="path498"
         style="fill:none;stroke:#231f20;stroke-width:0.75;stroke-linecap:square;stroke-linejoin:miter;stroke-miterlimit:10;stroke-dasharray:none;stroke-opacity:1"
         d="M 0,0 C 0,2.069 -1.68,3.75 -3.75,3.75 -5.819,3.75 -7.5,2.069 -7.5,0 c 0,-2.071 1.681,-3.751 3.75,-3.751 2.07,0 3.75,1.68 3.75,3.751" /></g></g></svg>