<?xml version="1.0" encoding="UTF-8" standalone="no"?>
<svg
   xmlns:dc="http://purl.org/dc/elements/1.1/"
   xmlns:cc="http://creativecommons.org/ns#"
   xmlns:rdf="http://www.w3.org/1999/02/22-rdf-syntax-ns#"
   xmlns:svg="http://www.w3.org/2000/svg"
   xmlns="http://www.w3.org/2000/svg"
   viewBox="0 0 502 342.66666"
   height="342.66666"
   width="502"
   xml:space="preserve"
   id="svg2"
   version="1.1"><metadata
     id="metadata8"><rdf:RDF><cc:Work
         rdf:about=""><dc:format>image/svg+xml</dc:format><dc:type
           rdf:resource="http://purl.org/dc/dcmitype/StillImage" /></cc:Work></rdf:RDF></metadata><defs
     id="defs6" /><g
     transform="matrix(1.3333333,0,0,-1.3333333,0,342.66667)"
     id="g10"><g
       transform="translate(129.795,170.001)"
       id="g12"><path
         id="path14"
         style="fill:none;stroke:#231f20;stroke-width:0.75;stroke-linecap:square;stroke-linejoin:miter;stroke-miterlimit:10;stroke-dasharray:none;stroke-opacity:1"
         d="M 0,0 V -7.375" /><g
         transform="translate(61.08,-22.562)"
         id="g16"><path
           id="path18"
           style="fill:none;stroke:#231f20;stroke-width:0.75;stroke-linecap:square;stroke-linejoin:miter;stroke-miterlimit:10;stroke-dasharray:none;stroke-opacity:1"
           d="M 0,0 H -55.5" /><g
           transform="translate(-25.125,-23.626)"
           id="g20"><path
             id="path22"
             style="fill:none;stroke:#231f20;stroke-width:0.75;stroke-linecap:square;stroke-linejoin:miter;stroke-miterlimit:10;stroke-dasharray:none;stroke-opacity:1"
             d="M 0,0 H -30.375" /><g
             transform="translate(-74.955,-29.687)"
             id="g24"><path
               id="path26"
               style="fill:none;stroke:#231f20;stroke-width:0.75;stroke-linecap:square;stroke-linejoin:miter;stroke-miterlimit:10;stroke-dasharray:none;stroke-opacity:1"
               d="M 0,0 V 22" /><g
               transform="translate(176.955,154.813)"
               id="g28"><path
                 id="path30"
                 style="fill:none;stroke:#231f20;stroke-width:0.75;stroke-linecap:square;stroke-linejoin:miter;stroke-miterlimit:10;stroke-dasharray:none;stroke-opacity:1"
                 d="M 0,0 H -110.25" /><g
                 transform="translate(5.25,-23.625)"
                 id="g32"><path
                   id="path34"
                   style="fill:none;stroke:#231f20;stroke-width:0.75;stroke-linecap:square;stroke-linejoin:miter;stroke-miterlimit:10;stroke-dasharray:none;stroke-opacity:1"
                   d="M 0,0 H -115.5" /><g
                   transform="translate(-184.455,-62.688)"
                   id="g36"><path
                     id="path38"
                     style="fill:none;stroke:#231f20;stroke-width:0.75;stroke-linecap:square;stroke-linejoin:miter;stroke-miterlimit:10;stroke-dasharray:none;stroke-opacity:1"
                     d="M 0,0 V 31.375" /><g
                     transform="translate(141.705,39.063)"
                     id="g40"><path
                       id="path42"
                       style="fill:none;stroke:#231f20;stroke-width:0.75;stroke-linecap:square;stroke-linejoin:miter;stroke-miterlimit:10;stroke-dasharray:none;stroke-opacity:1"
                       d="M 0,0 H -72.75" /><g
                       transform="translate(-64.5,-77.876)"
                       id="g44"><path
                         id="path46"
                         style="fill:none;stroke:#231f20;stroke-width:0.75;stroke-linecap:square;stroke-linejoin:miter;stroke-miterlimit:10;stroke-dasharray:none;stroke-opacity:1"
                         d="M 0,0 H 30.375" /><g
                         transform="translate(49.375,46.188)"
                         id="g48"><path
                           id="path50"
                           style="fill:none;stroke:#231f20;stroke-width:0.75;stroke-linecap:square;stroke-linejoin:miter;stroke-miterlimit:10;stroke-dasharray:none;stroke-opacity:1"
                           d="M 0,0 H -85.33" /><g
                           transform="translate(-49.375,-46.188)"
                           id="g52"><path
                             id="path54"
                             style="fill:none;stroke:#231f20;stroke-width:0.75;stroke-linecap:square;stroke-linejoin:miter;stroke-miterlimit:10;stroke-dasharray:none;stroke-opacity:1"
                             d="M 0,0 V 0" /><g
                             transform="translate(-10.875,-44.875)"
                             id="g56"><path
                               id="path58"
                               style="fill:none;stroke:#231f20;stroke-width:0.75;stroke-linecap:square;stroke-linejoin:miter;stroke-miterlimit:10;stroke-dasharray:none;stroke-opacity:1"
                               d="M 0,0 H 111.75" /><g
                               transform="translate(0,-23.625)"
                               id="g60"><path
                                 id="path62"
                                 style="fill:none;stroke:#231f20;stroke-width:0.75;stroke-linecap:square;stroke-linejoin:miter;stroke-miterlimit:10;stroke-dasharray:none;stroke-opacity:1"
                                 d="M 0,0 H 68.25" /><g
                                 transform="translate(0,-23.625)"
                                 id="g64"><path
                                   id="path66"
                                   style="fill:none;stroke:#231f20;stroke-width:0.75;stroke-linecap:square;stroke-linejoin:miter;stroke-miterlimit:10;stroke-dasharray:none;stroke-opacity:1"
                                   d="M 0,0 H 66.75" /><g
                                   transform="translate(0,-23.625)"
                                   id="g68"><path
                                   id="path70"
                                   style="fill:none;stroke:#231f20;stroke-width:0.75;stroke-linecap:square;stroke-linejoin:miter;stroke-miterlimit:10;stroke-dasharray:none;stroke-opacity:1"
                                   d="M 0,0 H 22.5" /></g></g></g></g></g></g></g></g></g></g></g></g></g></g></g><path
       id="path72"
       style="fill:#ffffff;fill-opacity:1;fill-rule:nonzero;stroke:none"
       d="m 190.875,139.751 h 78.75 v 15.375 h -78.75 z" /><g
       transform="translate(198.563,155.126)"
       id="g74"><path
         id="path76"
         style="fill:none;stroke:#231f20;stroke-width:0.75;stroke-linecap:square;stroke-linejoin:miter;stroke-miterlimit:10;stroke-dasharray:none;stroke-opacity:1"
         d="m 0,0 h 63.375 c 4.244,0 7.687,-3.444 7.687,-7.687 0,-4.244 -3.443,-7.688 -7.687,-7.688 H 0 c -4.244,0 -7.687,3.444 -7.687,7.688 C -7.687,-3.444 -4.244,0 0,0 Z" /></g><text
       id="text80"
       style="font-variant:normal;font-weight:normal;font-stretch:normal;font-size:9px;font-family:Times;-inkscape-font-specification:Times-Roman;writing-mode:lr-tb;fill:#231f20;fill-opacity:1;fill-rule:nonzero;stroke:none"
       transform="matrix(1,0,0,-1,205.7344,144.8682)"><tspan
         id="tspan78"
         y="0"
         x="0 4.5 9 11.25 13.5 18 22.5 24.75 27 29.502001 33.498001 37.998001 41.993999 44.495998">65, 33, label</tspan></text>
<path
       id="path82"
       style="fill:#ffffff;fill-opacity:1;fill-rule:nonzero;stroke:none"
       d="m 196.125,116.125 h 73.5 v 15.376 h -73.5 z" /><g
       transform="translate(203.813,131.501)"
       id="g84"><path
         id="path86"
         style="fill:none;stroke:#231f20;stroke-width:0.75;stroke-linecap:square;stroke-linejoin:miter;stroke-miterlimit:10;stroke-dasharray:none;stroke-opacity:1"
         d="m 0,0 h 58.125 c 4.244,0 7.687,-3.444 7.687,-7.688 0,-4.244 -3.443,-7.688 -7.687,-7.688 H 0 c -4.244,0 -7.687,3.444 -7.687,7.688 C -7.687,-3.444 -4.244,0 0,0 Z" /></g><text
       id="text90"
       style="font-variant:normal;font-weight:normal;font-stretch:normal;font-size:9px;font-family:Times;-inkscape-font-specification:Times-Roman;writing-mode:lr-tb;fill:#231f20;fill-opacity:1;fill-rule:nonzero;stroke:none"
       transform="matrix(1,0,0,-1,210.6094,121.3105)"><tspan
         id="tspan88"
         y="0"
         x="0 4.5 9 11.25 13.5 18 22.5 24.75 27 29.502001 33.362999 37.862999 40.365002">65, 44, text</tspan></text>
<path
       id="path92"
       style="fill:#ffffff;fill-opacity:1;fill-rule:nonzero;stroke:none"
       d="m 267.75,241.251 h 78.75 v 15.375 h -78.75 z" /><g
       transform="translate(275.438,256.625)"
       id="g94"><path
         id="path96"
         style="fill:none;stroke:#231f20;stroke-width:0.75;stroke-linecap:square;stroke-linejoin:miter;stroke-miterlimit:10;stroke-dasharray:none;stroke-opacity:1"
         d="m 0,0 h 63.375 c 4.244,0 7.688,-3.444 7.688,-7.687 0,-4.244 -3.444,-7.688 -7.688,-7.688 H 0 c -4.244,0 -7.687,3.444 -7.687,7.688 C -7.687,-3.444 -4.244,0 0,0 Z" /></g><text
       id="text100"
       style="font-variant:normal;font-weight:normal;font-stretch:normal;font-size:9px;font-family:Times;-inkscape-font-specification:Times-Roman;writing-mode:lr-tb;fill:#231f20;fill-opacity:1;fill-rule:nonzero;stroke:none"
       transform="matrix(1,0,0,-1,282.6094,246.3682)"><tspan
         id="tspan98"
         y="0"
         x="0 4.5 9 11.25 13.5 18 22.5 24.75 27 29.502001 33.498001 37.998001 41.993999 44.495998">65, 33, label</tspan></text>
<path
       id="path102"
       style="fill:#ffffff;fill-opacity:1;fill-rule:nonzero;stroke:none"
       d="m 273,217.626 h 73.5 v 15.375 H 273 Z" /><g
       transform="translate(280.688,233.001)"
       id="g104"><path
         id="path106"
         style="fill:none;stroke:#231f20;stroke-width:0.75;stroke-linecap:square;stroke-linejoin:miter;stroke-miterlimit:10;stroke-dasharray:none;stroke-opacity:1"
         d="m 0,0 h 58.125 c 4.244,0 7.688,-3.444 7.688,-7.687 0,-4.244 -3.444,-7.688 -7.688,-7.688 H 0 c -4.244,0 -7.687,3.444 -7.687,7.688 C -7.687,-3.444 -4.244,0 0,0 Z" /></g><text
       id="text110"
       style="font-variant:normal;font-weight:normal;font-stretch:normal;font-size:9px;font-family:Times;-inkscape-font-specification:Times-Roman;writing-mode:lr-tb;fill:#231f20;fill-opacity:1;fill-rule:nonzero;stroke:none"
       transform="matrix(1,0,0,-1,287.4844,222.811)"><tspan
         id="tspan108"
         y="0"
         x="0 4.5 9 11.25 13.5 18 22.5 24.75 27 29.502001 33.362999 37.862999 40.365002">65, 44, text</tspan></text>
<path
       id="path112"
       style="fill:#ffffff;fill-opacity:1;fill-rule:nonzero;stroke:none"
       d="M 230.25,194.001 H 346.5 v 15.375 H 230.25 Z" /><g
       transform="translate(237.938,209.376)"
       id="g114"><path
         id="path116"
         style="fill:none;stroke:#231f20;stroke-width:0.75;stroke-linecap:square;stroke-linejoin:miter;stroke-miterlimit:10;stroke-dasharray:none;stroke-opacity:1"
         d="m 0,0 h 100.875 c 4.244,0 7.687,-3.444 7.687,-7.687 0,-4.244 -3.443,-7.688 -7.687,-7.688 H 0 c -4.244,0 -7.687,3.444 -7.687,7.688 C -7.687,-3.444 -4.244,0 0,0 Z" /></g><text
       id="text120"
       style="font-variant:normal;font-weight:normal;font-stretch:normal;font-size:9px;font-family:Times;-inkscape-font-specification:Times-Roman;writing-mode:lr-tb;fill:#231f20;fill-opacity:1;fill-rule:nonzero;stroke:none"
       transform="matrix(1,0,0,-1,244.5987,199.3887)"><tspan
         id="tspan118"
         y="0"
         x="0 4.5 9 11.25 13.5 18 22.5 24.75 27 29.997 33.993 38.493 41.490002 45.486 48.987 52.983002 57.483002 59.985001 63.980999 66.483002 68.985001 73.485001 77.985001">18, 61, representation</tspan></text>
<path
       id="path122"
       style="fill:#ffffff;fill-opacity:1;fill-rule:nonzero;stroke:none"
       d="m 215.125,162.25 h 58.25 v 15.375 h -58.25 z" /><g
       transform="translate(222.813,177.625)"
       id="g124"><path
         id="path126"
         style="fill:none;stroke:#231f20;stroke-width:0.75;stroke-linecap:square;stroke-linejoin:miter;stroke-miterlimit:10;stroke-dasharray:none;stroke-opacity:1"
         d="m 0,0 h 42.875 c 4.244,0 7.687,-3.444 7.687,-7.687 0,-4.244 -3.443,-7.688 -7.687,-7.688 H 0 c -4.244,0 -7.687,3.444 -7.687,7.688 C -7.687,-3.444 -4.244,0 0,0 Z" /></g><text
       id="text130"
       style="font-variant:normal;font-weight:normal;font-stretch:normal;font-size:9px;font-family:Times;-inkscape-font-specification:Times-Roman;writing-mode:lr-tb;fill:#231f20;fill-opacity:1;fill-rule:nonzero;stroke:none"
       transform="matrix(1,0,0,-1,225.9883,167.5708)"><tspan
         id="tspan128"
         y="0"
         x="0 4.5 6.75 9 13.5 18 22.5 24.75 27.747 32.247002 36.747002 39.743999">9, 110 (17)</tspan></text>
<g
       transform="translate(133.545,158.883)"
       id="g132"><path
         id="path134"
         style="fill:#ffffff;fill-opacity:1;fill-rule:nonzero;stroke:none"
         d="M 0,0 C 0,2.07 -1.68,3.75 -3.75,3.75 -5.82,3.75 -7.5,2.07 -7.5,0 c 0,-2.07 1.68,-3.75 3.75,-3.75 C -1.68,-3.75 0,-2.07 0,0" /></g><g
       transform="translate(133.545,158.883)"
       id="g136"><path
         id="path138"
         style="fill:none;stroke:#231f20;stroke-width:0.75;stroke-linecap:square;stroke-linejoin:miter;stroke-miterlimit:10;stroke-dasharray:none;stroke-opacity:1"
         d="M 0,0 C 0,2.07 -1.68,3.75 -3.75,3.75 -5.82,3.75 -7.5,2.07 -7.5,0 c 0,-2.07 1.68,-3.75 3.75,-3.75 C -1.68,-3.75 0,-2.07 0,0" /></g><text
       id="text152"
       style="font-variant:normal;font-weight:normal;font-stretch:normal;font-size:9px;font-family:Times;-inkscape-font-specification:Times-Roman;writing-mode:lr-tb;fill:#231f20;fill-opacity:1;fill-rule:nonzero;stroke:none"
       transform="matrix(1,0,0,-1,142.875,139.207)"><tspan
         id="tspan140"
         y="0"
         x="0 4.5 8.4960003 15.498 19.493999">name</tspan><tspan
         id="tspan142"
         y="26.379"
         x="0 4.5 8.4960003 11.997 15.993 18.99 21.492001 25.992001 28.493999 30.996 35.495998 39.995998">description</tspan><tspan
         id="tspan144"
         y="-101.5002"
         x="22.124701 26.624701 30.620701 37.6227 41.618698">name</tspan><tspan
         id="tspan146"
         y="-75.121201"
         x="22.124701 26.624701 30.620701 34.1217 38.117699 41.1147 43.616699 48.116699 50.618698 53.120701 57.620701 62.120701">description</tspan><tspan
         id="tspan148"
         y="-42.4953"
         x="-49.830299 -45.330299 -42.333302 -37.833302 -33.333302 -29.337299 -26.3403 -23.838301 -19.338301">property</tspan><tspan
         id="tspan150"
         y="-49.496399"
         x="22.124701 25.1217 29.117701 33.617699 36.6147 40.610699 44.111698 48.1077 52.6077 55.109699 59.105701 61.6077 64.109703 68.609703 73.109703">representation</tspan></text>
<path
       id="path154"
       style="fill:#ffffff;fill-opacity:1;fill-rule:nonzero;stroke:none"
       d="m 49.125,116.125 h 86.25 v 39.001 h -86.25 z" /><g
       transform="translate(49.125,155.126)"
       id="g156"><path
         id="path158"
         style="fill:none;stroke:#231f20;stroke-width:0.75;stroke-linecap:square;stroke-linejoin:miter;stroke-miterlimit:10;stroke-dasharray:none;stroke-opacity:1"
         d="M 86.25,0 H 0 v -39.001 h 86.25 z" /><g
         id="g160"><path
           id="path162"
           style="fill:none;stroke:#231f20;stroke-width:0.75;stroke-linecap:square;stroke-linejoin:miter;stroke-miterlimit:10;stroke-dasharray:none;stroke-opacity:1"
           d="M 0,0 Z" /></g></g><text
       id="text166"
       style="font-variant:normal;font-weight:normal;font-stretch:normal;font-size:9px;font-family:Times;-inkscape-font-specification:Times-Roman;writing-mode:lr-tb;fill:#231f20;fill-opacity:1;fill-rule:nonzero;stroke:none"
       transform="matrix(1,0,0,-1,59.7373,133.5781)"><tspan
         id="tspan164"
         y="0"
         x="0 2.997 6.993 10.494 14.994 19.493999 22.490999 26.487 30.483 34.983002 39.483002 42.48 46.98 51.48 55.476002 58.473 60.974998 65.474998">resource_property</tspan></text>
<path
       id="path168"
       style="fill:#ffffff;fill-opacity:1;fill-rule:nonzero;stroke:none"
       d="m 10.5,194.001 h 147 v 62.625 h -147 z" /><g
       transform="translate(10.5,256.625)"
       id="g170"><path
         id="path172"
         style="fill:none;stroke:#231f20;stroke-width:0.75;stroke-linecap:square;stroke-linejoin:miter;stroke-miterlimit:10;stroke-dasharray:none;stroke-opacity:1"
         d="M 147,0 H 0 v -62.625 h 147 z" /><g
         id="g174"><path
           id="path176"
           style="fill:none;stroke:#231f20;stroke-width:0.75;stroke-linecap:square;stroke-linejoin:miter;stroke-miterlimit:10;stroke-dasharray:none;stroke-opacity:1"
           d="M 0,0 Z" /></g></g><text
       id="text180"
       style="font-variant:normal;font-weight:normal;font-stretch:normal;font-size:9px;font-family:Times;-inkscape-font-specification:Times-Roman;writing-mode:lr-tb;fill:#231f20;fill-opacity:1;fill-rule:nonzero;stroke:none"
       transform="matrix(1,0,0,-1,23.2212,223.0449)"><tspan
         id="tspan178"
         y="0"
         x="0 2.997 6.993 10.494 14.994 19.493999 22.490999 26.487 30.483 34.983002 39.483002 42.48 46.98 51.48 55.476002 58.473 60.974998 65.474998 69.974998 72.972 76.968002 81.468002 84.464996 88.460999 91.961998 95.958 100.458 102.96 106.956 109.458 111.96 116.46 120.96">resource_property_representation</tspan></text>
<g
       transform="translate(92.325,158.883)"
       id="g182"><path
         id="path184"
         style="fill:#ffffff;fill-opacity:1;fill-rule:nonzero;stroke:none"
         d="M 0,0 C 0,2.07 -1.68,3.75 -3.75,3.75 -5.82,3.75 -7.5,2.07 -7.5,0 c 0,-2.07 1.68,-3.75 3.75,-3.75 C -1.68,-3.75 0,-2.07 0,0" /></g><g
       transform="translate(92.325,158.883)"
       id="g186"><path
         id="path188"
         style="fill:none;stroke:#231f20;stroke-width:0.75;stroke-linecap:square;stroke-linejoin:miter;stroke-miterlimit:10;stroke-dasharray:none;stroke-opacity:1"
         d="M 0,0 C 0,2.07 -1.68,3.75 -3.75,3.75 -5.82,3.75 -7.5,2.07 -7.5,0 c 0,-2.07 1.68,-3.75 3.75,-3.75 C -1.68,-3.75 0,-2.07 0,0" /></g><path
       id="path190"
       style="fill:#ffffff;fill-opacity:1;fill-rule:nonzero;stroke:none"
       d="m 0.37502,0.375 h 154.5 v 86.25 h -154.5 z" /><path
       id="path192"
       style="fill:none;stroke:#231f20;stroke-width:0.75;stroke-linecap:square;stroke-linejoin:miter;stroke-miterlimit:10;stroke-dasharray:3.75, 3.75;stroke-dashoffset:0;stroke-opacity:1"
       d="M 0.37502,86.625 V 0.375 H 154.875 v 86.25 z M 7.875,0.375 v 86.25" /><text
       id="text196"
       style="font-variant:normal;font-weight:normal;font-stretch:normal;font-size:9px;font-family:Times;-inkscape-font-specification:Times-Roman;writing-mode:lr-tb;fill:#231f20;fill-opacity:1;fill-rule:nonzero;stroke:none"
       transform="matrix(1,0,0,-1,17.8487,40.7871)"><tspan
         id="tspan194"
         y="0"
         x="0 3.9960001 8.4960003 12.492 15.489 19.485001 23.481001 25.983 29.979 32.976002 35.478001 39.473999 43.470001 47.970001 52.470001 55.466999 59.463001 62.964001 67.463997 71.963997 74.960999 78.957001 82.953003 87.453003 91.953003 95.948997 98.765999 101.268 105.768 108.27 110.772 113.274 117.774 122.274">characterized_resource_definition</tspan></text>
<g
       transform="translate(94.575,90.354)"
       id="g198"><path
         id="path200"
         style="fill:#ffffff;fill-opacity:1;fill-rule:nonzero;stroke:none"
         d="M 0,0 C 0,2.069 -1.68,3.75 -3.75,3.75 -5.82,3.75 -7.5,2.069 -7.5,0 c 0,-2.071 1.68,-3.75 3.75,-3.75 C -1.68,-3.75 0,-2.071 0,0" /></g><g
       transform="translate(94.575,90.354)"
       id="g202"><path
         id="path204"
         style="fill:none;stroke:#231f20;stroke-width:0.75;stroke-linecap:square;stroke-linejoin:miter;stroke-miterlimit:10;stroke-dasharray:none;stroke-opacity:1"
         d="M 0,0 C 0,2.069 -1.68,3.75 -3.75,3.75 -5.82,3.75 -7.5,2.069 -7.5,0 c 0,-2.071 1.68,-3.75 3.75,-3.75 C -1.68,-3.75 0,-2.071 0,0" /></g><text
       id="text208"
       style="font-variant:normal;font-weight:normal;font-stretch:normal;font-size:9px;font-family:Times;-inkscape-font-specification:Times-Roman;writing-mode:lr-tb;fill:#231f20;fill-opacity:1;fill-rule:nonzero;stroke:none"
       transform="matrix(1,0,0,-1,97.0454,102.8945)"><tspan
         id="tspan206"
         y="0"
         x="0 2.997 6.993 10.494 14.994 19.493999 22.490999 26.487 30.483">resource</tspan></text>
<path
       id="path210"
       style="fill:#ffffff;fill-opacity:1;fill-rule:nonzero;stroke:none"
       d="m 266.625,71.25 h 109.5 v 15.375 h -109.5 z" /><g
       transform="translate(274.313,86.625)"
       id="g212"><path
         id="path214"
         style="fill:none;stroke:#231f20;stroke-width:0.75;stroke-linecap:square;stroke-linejoin:miter;stroke-miterlimit:10;stroke-dasharray:none;stroke-opacity:1"
         d="m 0,0 h 94.125 c 4.244,0 7.688,-3.443 7.688,-7.687 0,-4.244 -3.444,-7.688 -7.688,-7.688 H 0 c -4.244,0 -7.687,3.444 -7.687,7.688 C -7.687,-3.443 -4.244,0 0,0 Z" /></g><text
       id="text218"
       style="font-variant:normal;font-weight:normal;font-stretch:normal;font-size:9px;font-family:Times;-inkscape-font-specification:Times-Roman;writing-mode:lr-tb;fill:#231f20;fill-opacity:1;fill-rule:nonzero;stroke:none"
       transform="matrix(1,0,0,-1,283.8516,76.3682)"><tspan
         id="tspan216"
         y="0"
         x="0 4.5 6.75 9 13.5 18 20.25 22.5 26.496 30.492001 32.993999 35.495998 39.995998 44.495998 48.995998 51.993 55.988998 59.490002 63.990002 68.489998 71.487 75.483002 79.478996">6, 68, action_resource</tspan></text>
<path
       id="path220"
       style="fill:#ffffff;fill-opacity:1;fill-rule:nonzero;stroke:none"
       d="m 223.125,47.625 h 153 V 63 h -153 z" /><g
       transform="translate(230.813,63)"
       id="g222"><path
         id="path224"
         style="fill:none;stroke:#231f20;stroke-width:0.75;stroke-linecap:square;stroke-linejoin:miter;stroke-miterlimit:10;stroke-dasharray:none;stroke-opacity:1"
         d="m 0,0 h 137.625 c 4.244,0 7.687,-3.443 7.687,-7.687 0,-4.244 -3.443,-7.688 -7.687,-7.688 H 0 c -4.244,0 -7.687,3.444 -7.687,7.688 C -7.687,-3.443 -4.244,0 0,0 Z" /></g><text
       id="text228"
       style="font-variant:normal;font-weight:normal;font-stretch:normal;font-size:9px;font-family:Times;-inkscape-font-specification:Times-Roman;writing-mode:lr-tb;fill:#231f20;fill-opacity:1;fill-rule:nonzero;stroke:none"
       transform="matrix(1,0,0,-1,236.5918,53.0137)"><tspan
         id="tspan226"
         y="0"
         x="0 4.5 6.75 9 13.5 18 20.25 22.5 26.496 30.492001 32.993999 35.495998 39.995998 44.495998 48.995998 51.993 55.988998 59.490002 63.990002 68.489998 71.487 75.483002 79.478996 83.978996 86.975998 90.972 93.473999 97.470001 99.972 102.474 106.974 111.474 114.975 119.475 121.977 126.477">6, 69, action_resource_relationship</tspan></text>
<path
       id="path230"
       style="fill:#ffffff;fill-opacity:1;fill-rule:nonzero;stroke:none"
       d="m 221.625,24 h 154.5 v 15.375 h -154.5 z" /><g
       transform="translate(229.313,39.375)"
       id="g232"><path
         id="path234"
         style="fill:none;stroke:#231f20;stroke-width:0.75;stroke-linecap:square;stroke-linejoin:miter;stroke-miterlimit:10;stroke-dasharray:none;stroke-opacity:1"
         d="m 0,0 h 139.125 c 4.244,0 7.687,-3.443 7.687,-7.687 0,-4.244 -3.443,-7.688 -7.687,-7.688 H 0 c -4.244,0 -7.687,3.444 -7.687,7.688 C -7.687,-3.443 -4.244,0 0,0 Z" /></g><text
       id="text238"
       style="font-variant:normal;font-weight:normal;font-stretch:normal;font-size:9px;font-family:Times;-inkscape-font-specification:Times-Roman;writing-mode:lr-tb;fill:#231f20;fill-opacity:1;fill-rule:nonzero;stroke:none"
       transform="matrix(1,0,0,-1,234.8428,29.3887)"><tspan
         id="tspan236"
         y="0"
         x="0 4.5 6.75 9 13.5 18 20.25 22.5 26.496 30.492001 32.993999 35.495998 39.995998 44.495998 48.995998 51.993 55.988998 59.490002 63.990002 68.489998 71.487 75.483002 79.478996 83.978996 86.975998 90.972 95.472 99.972 102.474 105.471 109.467 116.469 120.465 124.965 127.467">7, 72, action_resource_requirement</tspan></text>
<path
       id="path240"
       style="fill:#ffffff;fill-opacity:1;fill-rule:nonzero;stroke:none"
       d="m 177.375,0.375 h 198.75 V 15.75 h -198.75 z" /><g
       transform="translate(185.063,15.75)"
       id="g242"><path
         id="path244"
         style="fill:none;stroke:#231f20;stroke-width:0.75;stroke-linecap:square;stroke-linejoin:miter;stroke-miterlimit:10;stroke-dasharray:none;stroke-opacity:1"
         d="m 0,0 h 183.375 c 4.244,0 7.687,-3.443 7.687,-7.6875 0,-4.2435 -3.443,-7.6875 -7.687,-7.6875 H 0 c -4.244,0 -7.687,3.444 -7.687,7.6875 C -7.687,-3.443 -4.244,0 0,0 Z" /></g><text
       id="text248"
       style="font-variant:normal;font-weight:normal;font-stretch:normal;font-size:9px;font-family:Times;-inkscape-font-specification:Times-Roman;writing-mode:lr-tb;fill:#231f20;fill-opacity:1;fill-rule:nonzero;stroke:none"
       transform="matrix(1,0,0,-1,187.2076,5.7637)"><tspan
         id="tspan246"
         y="0"
         x="0 4.5 6.75 9 13.5 18 20.25 22.5 26.496 30.492001 32.993999 35.495998 39.995998 44.495998 48.995998 51.993 55.988998 59.490002 63.990002 68.489998 71.487 75.483002 79.478996 83.978996 86.975998 90.972 95.472 99.972 102.474 105.471 109.467 116.469 120.465 124.965 127.467 131.967 134.964 138.96001 141.46201 145.45799 147.96001 150.46201 154.96201 159.46201 162.963 167.463 169.965 174.465">7, 73, action_resource_requirement_relationship</tspan></text>
</g></svg>