<?xml version="1.0" encoding="UTF-8" standalone="no"?>
<svg
   xmlns:dc="http://purl.org/dc/elements/1.1/"
   xmlns:cc="http://creativecommons.org/ns#"
   xmlns:rdf="http://www.w3.org/1999/02/22-rdf-syntax-ns#"
   xmlns:svg="http://www.w3.org/2000/svg"
   xmlns="http://www.w3.org/2000/svg"
   viewBox="0 0 490.86267 603.18799"
   height="603.18799"
   width="490.86267"
   xml:space="preserve"
   id="svg2"
   version="1.1"><metadata
     id="metadata8"><rdf:RDF><cc:Work
         rdf:about=""><dc:format>image/svg+xml</dc:format><dc:type
           rdf:resource="http://purl.org/dc/dcmitype/StillImage" /></cc:Work></rdf:RDF></metadata><defs
     id="defs6" /><g
     transform="matrix(1.3333333,0,0,-1.3333333,0,603.188)"
     id="g10"><g
       transform="translate(219.271,152.444)"
       id="g12"><path
         id="path14"
         style="fill:none;stroke:#231f20;stroke-width:0.75;stroke-linecap:square;stroke-linejoin:miter;stroke-miterlimit:10;stroke-dasharray:none;stroke-opacity:1"
         d="M 0,0 H -82.5" /><g
         transform="translate(80.25)"
         id="g16"><path
           id="path18"
           style="fill:none;stroke:#231f20;stroke-width:0.75;stroke-linecap:square;stroke-linejoin:miter;stroke-miterlimit:10;stroke-dasharray:none;stroke-opacity:1"
           d="M 0,0 H -80.25 V 0" /></g></g><path
       id="path20"
       style="fill:none;stroke:#231f20;stroke-width:0.75;stroke-linecap:square;stroke-linejoin:miter;stroke-miterlimit:10;stroke-dasharray:3.75, 3.75;stroke-dashoffset:0;stroke-opacity:1"
       d="m 220.021,128.819 h -83.25 m 164.25,0 h -81 m 0,0 v 0" /><g
       transform="translate(136.771,105.194)"
       id="g22"><path
         id="path24"
         style="fill:none;stroke:#231f20;stroke-width:0.75;stroke-linecap:square;stroke-linejoin:miter;stroke-miterlimit:10;stroke-dasharray:none;stroke-opacity:1"
         d="M 0,0 H 118.5" /><g
         transform="translate(61.133,-49.882)"
         id="g26"><path
           id="path28"
           style="fill:none;stroke:#231f20;stroke-width:0.75;stroke-linecap:square;stroke-linejoin:miter;stroke-miterlimit:10;stroke-dasharray:none;stroke-opacity:1"
           d="M 0,0 H -27" /><g
           transform="translate(0,-23.625)"
           id="g30"><path
             id="path32"
             style="fill:none;stroke:#231f20;stroke-width:0.75;stroke-linecap:square;stroke-linejoin:miter;stroke-miterlimit:10;stroke-dasharray:none;stroke-opacity:1"
             d="M 0,0 H -22.5" /><g
             transform="translate(0,-23.625)"
             id="g34"><path
               id="path36"
               style="fill:none;stroke:#231f20;stroke-width:0.75;stroke-linecap:square;stroke-linejoin:miter;stroke-miterlimit:10;stroke-dasharray:none;stroke-opacity:1"
               d="M 0,0 H -32.25" /><g
               transform="translate(53.625,62.438)"
               id="g38"><path
                 id="path40"
                 style="fill:none;stroke:#231f20;stroke-width:0.75;stroke-linecap:square;stroke-linejoin:miter;stroke-miterlimit:10;stroke-dasharray:none;stroke-opacity:1"
                 d="M 0,0 V 11.069 H -114.758" /><g
                 transform="translate(-92.904,373.829)"
                 id="g42"><path
                   id="path44"
                   style="fill:none;stroke:#231f20;stroke-width:0.75;stroke-linecap:square;stroke-linejoin:miter;stroke-miterlimit:10;stroke-dasharray:none;stroke-opacity:1"
                   d="M 0,0 H -32.25" /><g
                   transform="translate(32.25)"
                   id="g46"><path
                     id="path48"
                     style="fill:none;stroke:#231f20;stroke-width:0.75;stroke-linecap:square;stroke-linejoin:miter;stroke-miterlimit:10;stroke-dasharray:none;stroke-opacity:1"
                     d="M 0,0 H -32.25 V 0" /><g
                     transform="translate(46.673,-157.449)"
                     id="g50"><path
                       id="path52"
                       style="fill:none;stroke:#231f20;stroke-width:0.75;stroke-linecap:square;stroke-linejoin:miter;stroke-miterlimit:10;stroke-dasharray:none;stroke-opacity:1"
                       d="M 0,0 H -45.562" /><g
                       transform="translate(0.75,-72.562)"
                       id="g54"><path
                         id="path56"
                         style="fill:none;stroke:#231f20;stroke-width:0.75;stroke-linecap:square;stroke-linejoin:miter;stroke-miterlimit:10;stroke-dasharray:none;stroke-opacity:1"
                         d="M 0,0 H -63.749" /><g
                         transform="translate(0,-23.625)"
                         id="g58"><path
                           id="path60"
                           style="fill:none;stroke:#231f20;stroke-width:0.75;stroke-linecap:square;stroke-linejoin:miter;stroke-miterlimit:10;stroke-dasharray:none;stroke-opacity:1"
                           d="M 0,0 H -22.5" /></g></g></g></g></g></g></g></g></g></g><g
       transform="translate(70.917,261.379)"
       id="g62"><path
         id="path64"
         style="fill:none;stroke:#231f20;stroke-width:2.25;stroke-linecap:square;stroke-linejoin:miter;stroke-miterlimit:10;stroke-dasharray:none;stroke-opacity:1"
         d="M 0,0 -0.298,14.439" /></g><g
       transform="translate(296.798,229.505)"
       id="g66"><path
         id="path68"
         style="fill:none;stroke:#231f20;stroke-width:0.75;stroke-linecap:square;stroke-linejoin:miter;stroke-miterlimit:10;stroke-dasharray:none;stroke-opacity:1"
         d="M 0,0 V 16.688 H -111.75" /><g
         transform="translate(-126.923,123.154)"
         id="g70"><path
           id="path72"
           style="fill:none;stroke:#231f20;stroke-width:0.75;stroke-linecap:square;stroke-linejoin:miter;stroke-miterlimit:10;stroke-dasharray:none;stroke-opacity:1"
           d="M 0,0 H 94.5" /><g
           transform="translate(94.5,-11.761)"
           id="g74"><path
             id="path76"
             style="fill:none;stroke:#231f20;stroke-width:0.75;stroke-linecap:square;stroke-linejoin:miter;stroke-miterlimit:10;stroke-dasharray:none;stroke-opacity:1"
             d="M 0,0 V 11.761" /><g
             transform="translate(-49.5,-15.187)"
             id="g78"><path
               id="path80"
               style="fill:none;stroke:#231f20;stroke-width:0.75;stroke-linecap:square;stroke-linejoin:miter;stroke-miterlimit:10;stroke-dasharray:none;stroke-opacity:1"
               d="M 0,0 H -22.5" /><g
               transform="translate(-51.937,87.681)"
               id="g82"><path
                 id="path84"
                 style="fill:none;stroke:#231f20;stroke-width:0.75;stroke-linecap:square;stroke-linejoin:miter;stroke-miterlimit:10;stroke-dasharray:none;stroke-opacity:1"
                 d="M 0,0 H 55.5" /></g></g></g></g></g><path
       id="path86"
       style="fill:none;stroke:#231f20;stroke-width:0.75;stroke-linecap:square;stroke-linejoin:miter;stroke-miterlimit:10;stroke-dasharray:3.75, 3.75;stroke-dashoffset:0;stroke-opacity:1"
       d="m 162.938,389.766 h 60.75" /><g
       transform="translate(65.438,401.596)"
       id="g88"><path
         id="path90"
         style="fill:none;stroke:#231f20;stroke-width:0.75;stroke-linecap:square;stroke-linejoin:miter;stroke-miterlimit:10;stroke-dasharray:none;stroke-opacity:1"
         d="M 0,0 H -18.818 V 33.17" /></g><g
       transform="translate(25.486,285.192)"
       id="g92"><path
         id="path94"
         style="fill:none;stroke:#231f20;stroke-width:2.25;stroke-linecap:square;stroke-linejoin:miter;stroke-miterlimit:10;stroke-dasharray:none;stroke-opacity:1"
         d="M 0,0 H -16.332" /><g
         transform="translate(3.389,66.716)"
         id="g96"><path
           id="path98"
           style="fill:none;stroke:#231f20;stroke-width:2.25;stroke-linecap:square;stroke-linejoin:miter;stroke-miterlimit:10;stroke-dasharray:none;stroke-opacity:1"
           d="M 0,0 H -19.721" /><g
           transform="translate(-19.721,-66.716)"
           id="g100"><path
             id="path102"
             style="fill:none;stroke:#231f20;stroke-width:2.25;stroke-linecap:square;stroke-linejoin:miter;stroke-miterlimit:10;stroke-dasharray:none;stroke-opacity:1"
             d="M 0,0 V 91.125" /><g
             transform="translate(0,66.716)"
             id="g104"><path
               id="path106"
               style="fill:none;stroke:#231f20;stroke-width:2.25;stroke-linecap:square;stroke-linejoin:miter;stroke-miterlimit:10;stroke-dasharray:none;stroke-opacity:1"
               d="M 0,0 V 24.409" /><g
               transform="translate(0,53.633)"
               id="g108"><path
                 id="path110"
                 style="fill:none;stroke:#231f20;stroke-width:2.25;stroke-linecap:square;stroke-linejoin:miter;stroke-miterlimit:10;stroke-dasharray:none;stroke-opacity:1"
                 d="M 0,0 H 0.5957" /><g
                 transform="translate(0,-29.224)"
                 id="g112"><path
                   id="path114"
                   style="fill:none;stroke:#231f20;stroke-width:2.25;stroke-linecap:square;stroke-linejoin:miter;stroke-miterlimit:10;stroke-dasharray:none;stroke-opacity:1"
                   d="M 0,0 V 29.224" /><g
                   transform="translate(0.5957,29.224)"
                   id="g116"><path
                     id="path118"
                     style="fill:none;stroke:#231f20;stroke-width:2.25;stroke-linecap:square;stroke-linejoin:miter;stroke-miterlimit:10;stroke-dasharray:none;stroke-opacity:1"
                     d="M 0,0 V 29.224" /></g></g></g></g></g></g></g><path
       id="path120"
       style="fill:#ffffff;fill-opacity:1;fill-rule:nonzero;stroke:none"
       d="m 36.375,343.898 h 133.5 v 15.375 h -133.5 z" /><g
       transform="translate(36.375,359.273)"
       id="g122"><path
         id="path124"
         style="fill:none;stroke:#231f20;stroke-width:0.75;stroke-linecap:square;stroke-linejoin:miter;stroke-miterlimit:10;stroke-dasharray:none;stroke-opacity:1"
         d="M 133.5,0 H 0 v -15.375 h 133.5 z" /><g
         id="g126"><path
           id="path128"
           style="fill:none;stroke:#231f20;stroke-width:0.75;stroke-linecap:square;stroke-linejoin:miter;stroke-miterlimit:10;stroke-dasharray:none;stroke-opacity:1"
           d="M 0,0 Z" /></g></g><text
       id="text132"
       style="font-variant:normal;font-weight:normal;font-stretch:normal;font-size:9px;font-family:Times;-inkscape-font-specification:Times-Roman;writing-mode:lr-tb;fill:#231f20;fill-opacity:1;fill-rule:nonzero;stroke:none"
       transform="matrix(1,0,0,-1,41.375,349.2993)"><tspan
         id="tspan130"
         y="0"
         x="0 3.9960001 8.4960003 12.996 15.498 18 21.996 26.496 30.996 33.498001 37.998001 41.993999 46.493999 48.995998 51.498001 54.314999 56.817001 60.813 64.808998 67.310997 69.813004 74.313004 78.813004 83.313004 87.308998 90.809998 94.310997 96.813004 101.313 105.813 112.815 116.811 121.311 123.813">applied_identification_assignment</tspan></text>
<path
       id="path134"
       style="fill:#ffffff;fill-opacity:1;fill-rule:nonzero;stroke:none"
       d="m 18.271,73.882 h 118.5 v 86.25 h -118.5 z" /><g
       transform="translate(18.271,160.132)"
       id="g136"><path
         id="path138"
         style="fill:none;stroke:#231f20;stroke-width:0.75;stroke-linecap:square;stroke-linejoin:miter;stroke-miterlimit:10;stroke-dasharray:none;stroke-opacity:1"
         d="M 118.5,0 H 0 v -86.25 h 118.5 z" /><g
         id="g140"><path
           id="path142"
           style="fill:none;stroke:#231f20;stroke-width:0.75;stroke-linecap:square;stroke-linejoin:miter;stroke-miterlimit:10;stroke-dasharray:none;stroke-opacity:1"
           d="M 0,0 Z" /></g></g><text
       id="text146"
       style="font-variant:normal;font-weight:normal;font-stretch:normal;font-size:9px;font-family:Times;-inkscape-font-specification:Times-Roman;writing-mode:lr-tb;fill:#231f20;fill-opacity:1;fill-rule:nonzero;stroke:none"
       transform="matrix(1,0,0,-1,24.4961,114.7656)"><tspan
         id="tspan144"
         y="0"
         x="0 4.5 8.4960003 12.996 16.992001 19.989 23.985001 26.487 30.987 35.487 38.484001 42.984001 47.484001 51.48 54.477001 56.979 61.479 65.978996 69.974998 73.475998 76.976997 81.476997 85.473 87.974998 91.971001 94.473 96.974998 101.475 105.975">general_property_association</tspan></text>
<path
       id="path148"
       style="fill:#ffffff;fill-opacity:1;fill-rule:nonzero;stroke:none"
       d="m 299.521,144.757 h 68.25 v 15.375 h -68.25 z" /><g
       transform="translate(307.209,160.132)"
       id="g150"><path
         id="path152"
         style="fill:none;stroke:#231f20;stroke-width:0.75;stroke-linecap:square;stroke-linejoin:miter;stroke-miterlimit:10;stroke-dasharray:none;stroke-opacity:1"
         d="m 0,0 h 52.875 c 4.243,0 7.688,-3.443 7.688,-7.687 0,-4.244 -3.445,-7.688 -7.688,-7.688 H 0 c -4.243,0 -7.687,3.444 -7.687,7.688 C -7.687,-3.443 -4.243,0 0,0 Z" /></g><text
       id="text156"
       style="font-variant:normal;font-weight:normal;font-stretch:normal;font-size:9px;font-family:Times;-inkscape-font-specification:Times-Roman;writing-mode:lr-tb;fill:#231f20;fill-opacity:1;fill-rule:nonzero;stroke:none"
       transform="matrix(1,0,0,-1,309.1299,149.875)"><tspan
         id="tspan154"
         y="0"
         x="0 4.5 9 11.25 13.5 18 22.5 24.75 27 29.502001 33.498001 37.998001 41.993999 44.495998">65, 33, label</tspan></text>
<path
       id="path158"
       style="fill:#ffffff;fill-opacity:1;fill-rule:nonzero;stroke:none"
       d="m 301.021,121.132 h 66.75 v 15.375 h -66.75 z" /><g
       transform="translate(308.709,136.507)"
       id="g160"><path
         id="path162"
         style="fill:none;stroke:#231f20;stroke-width:0.75;stroke-linecap:square;stroke-linejoin:miter;stroke-miterlimit:10;stroke-dasharray:none;stroke-opacity:1"
         d="m 0,0 h 51.375 c 4.243,0 7.688,-3.443 7.688,-7.687 0,-4.244 -3.445,-7.688 -7.688,-7.688 H 0 c -4.243,0 -7.687,3.444 -7.687,7.688 C -7.687,-3.443 -4.243,0 0,0 Z" /></g><text
       id="text166"
       style="font-variant:normal;font-weight:normal;font-stretch:normal;font-size:9px;font-family:Times;-inkscape-font-specification:Times-Roman;writing-mode:lr-tb;fill:#231f20;fill-opacity:1;fill-rule:nonzero;stroke:none"
       transform="matrix(1,0,0,-1,312.1299,126.3174)"><tspan
         id="tspan164"
         y="0"
         x="0 4.5 9 11.25 13.5 18 22.5 24.75 27 29.502001 33.362999 37.862999 40.365002">65, 34, text</tspan></text>
<path
       id="path168"
       style="fill:#ffffff;fill-opacity:1;fill-rule:nonzero;stroke:none"
       d="m 255.271,97.507 h 112.5 v 15.375 h -112.5 z" /><g
       transform="translate(262.959,112.882)"
       id="g170"><path
         id="path172"
         style="fill:none;stroke:#231f20;stroke-width:0.75;stroke-linecap:square;stroke-linejoin:miter;stroke-miterlimit:10;stroke-dasharray:none;stroke-opacity:1"
         d="m 0,0 h 97.125 c 4.243,0 7.688,-3.443 7.688,-7.687 0,-4.244 -3.445,-7.688 -7.688,-7.688 H 0 c -4.243,0 -7.688,3.444 -7.688,7.688 C -7.688,-3.443 -4.243,0 0,0 Z" /></g><text
       id="text182"
       style="font-variant:normal;font-weight:normal;font-stretch:normal;font-size:9px;font-family:Times;-inkscape-font-specification:Times-Roman;writing-mode:lr-tb;fill:#231f20;fill-opacity:1;fill-rule:nonzero;stroke:none"
       transform="matrix(1,0,0,-1,262.4941,102.9531)"><tspan
         id="tspan174"
         y="0"
         x="0 4.5 9 11.25 13.5 18 22.5 24.75 27 31.5 35.495998 39.995998 43.992001 46.988998 50.985001 53.487 57.987 62.487 65.484001 69.984001 74.484001 78.480003 81.476997 83.978996 88.478996">16, 57, general_property</tspan><tspan
         id="tspan176"
         y="-41.260502"
         x="-118.2222 -113.7222 -109.7262 -102.7242 -98.728203">name</tspan><tspan
         id="tspan178"
         y="-14.8815"
         x="-118.2222 -113.7222 -109.7262 -106.2252 -102.2292 -99.232201 -96.730202 -92.230202 -89.728203 -87.226196 -82.726196 -78.226196">description</tspan><tspan
         id="tspan180"
         y="8.8964996"
         x="-118.2222 -113.7222 -109.7262 -106.2252 -102.2292 -97.729202 -93.229202 -89.2332 -86.416199 -83.9142 -79.4142 -76.912201 -74.410202 -71.908203 -67.408203 -62.908199">base_definition</tspan></text>
<path
       id="path184"
       style="fill:#ffffff;fill-opacity:1;fill-rule:nonzero;stroke:none"
       d="m 197.904,0.37498 h 107.25 v 62.625 h -107.25 z" /><path
       id="path186"
       style="fill:none;stroke:#231f20;stroke-width:0.75;stroke-linecap:square;stroke-linejoin:miter;stroke-miterlimit:10;stroke-dasharray:3.75, 3.75;stroke-dashoffset:0;stroke-opacity:1"
       d="M 197.904,63 V 0.37498 h 107.25 V 63 Z m 7.5,-62.62502 V 63" /><text
       id="text192"
       style="font-variant:normal;font-weight:normal;font-stretch:normal;font-size:9px;font-family:Times;-inkscape-font-specification:Times-Roman;writing-mode:lr-tb;fill:#231f20;fill-opacity:1;fill-rule:nonzero;stroke:none"
       transform="matrix(1,0,0,-1,212.2597,29.4199)"><tspan
         id="tspan188"
         y="0"
         x="0 4.5 8.4960003 11.493 13.77 18.135 22.131001 26.631001 31.131001 35.631001 38.627998 43.127998 47.627998 51.624001 54.620998 57.123001 61.623001 66.123001 69.624001 73.620003 76.122002 80.117996 84.113998 86.615997">derived_property_select</tspan><tspan
         id="tspan190"
         y="-41.0121"
         x="-67.987801 -63.487801 -59.491798 -56.494801 -54.2178 -49.852798 -45.8568 -41.3568 -36.8568 -32.3568 -28.3608 -25.5438 -23.0418 -18.5418 -16.039801 -13.5378 -11.0358 -6.5358 -2.0358">derived_definition</tspan></text>
<path
       id="path194"
       style="fill:#ffffff;fill-opacity:1;fill-rule:nonzero;stroke:none"
       d="m 53.155,47.625 h 117.75 V 63 H 53.155 Z" /><g
       transform="translate(60.842,63)"
       id="g196"><path
         id="path198"
         style="fill:none;stroke:#231f20;stroke-width:0.75;stroke-linecap:square;stroke-linejoin:miter;stroke-miterlimit:10;stroke-dasharray:none;stroke-opacity:1"
         d="m 0,0 h 102.375 c 4.243,0 7.687,-3.443 7.687,-7.687 0,-4.244 -3.444,-7.688 -7.687,-7.688 H 0 c -4.244,0 -7.687,3.444 -7.687,7.688 C -7.687,-3.443 -4.244,0 0,0 Z" /></g><text
       id="text202"
       style="font-variant:normal;font-weight:normal;font-stretch:normal;font-size:9px;font-family:Times;-inkscape-font-specification:Times-Roman;writing-mode:lr-tb;fill:#231f20;fill-opacity:1;fill-rule:nonzero;stroke:none"
       transform="matrix(1,0,0,-1,60.0009,53)"><tspan
         id="tspan200"
         y="0"
         x="0 4.5 9 11.25 13.5 18 22.5 24.75 27 31.5 34.497002 38.997002 43.497002 47.493 50.490002 52.992001 57.492001 61.992001 66.491997 70.487999 73.305 75.806999 80.306999 82.808998 85.310997 87.813004 92.313004 96.813004">14, 58, property_definition</tspan></text>
<path
       id="path204"
       style="fill:#ffffff;fill-opacity:1;fill-rule:nonzero;stroke:none"
       d="m 53.155,24 h 122.25 V 39.375 H 53.155 Z" /><g
       transform="translate(60.842,39.375)"
       id="g206"><path
         id="path208"
         style="fill:none;stroke:#231f20;stroke-width:0.75;stroke-linecap:square;stroke-linejoin:miter;stroke-miterlimit:10;stroke-dasharray:none;stroke-opacity:1"
         d="m 0,0 h 106.875 c 4.243,0 7.687,-3.443 7.687,-7.687 0,-4.244 -3.444,-7.688 -7.687,-7.688 H 0 c -4.244,0 -7.687,3.444 -7.687,7.688 C -7.687,-3.443 -4.244,0 0,0 Z" /></g><text
       id="text212"
       style="font-variant:normal;font-weight:normal;font-stretch:normal;font-size:9px;font-family:Times;-inkscape-font-specification:Times-Roman;writing-mode:lr-tb;fill:#231f20;fill-opacity:1;fill-rule:nonzero;stroke:none"
       transform="matrix(1,0,0,-1,62.7549,29.4883)"><tspan
         id="tspan210"
         y="0"
         x="0 4.5 6.75 9 13.5 18 22.5 24.75 27 29.997 33.993 37.493999 41.993999 46.493999 49.491001 53.487 57.483002 61.983002 66.483002 69.480003 73.980003 78.480003 82.475998 85.473 87.974998 92.474998">9, 110, resource_property</tspan></text>
<path
       id="path214"
       style="fill:#ffffff;fill-opacity:1;fill-rule:nonzero;stroke:none"
       d="m 53.155,0.37498 h 112.5 v 15.375 h -112.5 z" /><g
       transform="translate(60.842,15.75)"
       id="g216"><path
         id="path218"
         style="fill:none;stroke:#231f20;stroke-width:0.75;stroke-linecap:square;stroke-linejoin:miter;stroke-miterlimit:10;stroke-dasharray:none;stroke-opacity:1"
         d="m 0,0 h 97.125 c 4.243,0 7.687,-3.443 7.687,-7.6875 0,-4.2435 -3.444,-7.6875 -7.687,-7.6875 H 0 c -4.244,0 -7.687,3.444 -7.687,7.6875 C -7.687,-3.443 -4.244,0 0,0 Z" /></g><text
       id="text222"
       style="font-variant:normal;font-weight:normal;font-stretch:normal;font-size:9px;font-family:Times;-inkscape-font-specification:Times-Roman;writing-mode:lr-tb;fill:#231f20;fill-opacity:1;fill-rule:nonzero;stroke:none"
       transform="matrix(1,0,0,-1,63.3789,5.7949)"><tspan
         id="tspan220"
         y="0"
         x="0 4.5 6.75 9 13.5 18 22.5 24.75 27 30.996 34.992001 37.493999 39.995998 44.495998 48.995998 53.495998 57.995998 60.993 65.492996 69.992996 73.988998 76.986 79.487999 83.987999">8, 108, action_property</tspan></text>
<g
       transform="translate(255.28,66.699)"
       id="g224"><path
         id="path226"
         style="fill:#ffffff;fill-opacity:1;fill-rule:nonzero;stroke:none"
         d="M 0,0 C 0,2.07 -1.68,3.75 -3.75,3.75 -5.819,3.75 -7.5,2.07 -7.5,0 c 0,-2.07 1.681,-3.75 3.75,-3.75 C -1.68,-3.75 0,-2.07 0,0" /></g><g
       transform="translate(255.28,66.699)"
       id="g228"><path
         id="path230"
         style="fill:none;stroke:#231f20;stroke-width:0.75;stroke-linecap:square;stroke-linejoin:miter;stroke-miterlimit:10;stroke-dasharray:none;stroke-opacity:1"
         d="M 0,0 C 0,2.07 -1.68,3.75 -3.75,3.75 -5.819,3.75 -7.5,2.07 -7.5,0 c 0,-2.07 1.681,-3.75 3.75,-3.75 C -1.68,-3.75 0,-2.07 0,0" /></g><path
       id="path232"
       style="fill:#ffffff;fill-opacity:1;fill-rule:nonzero;stroke:none"
       d="m 190.875,436.641 h 97.5 v 15.375 h -97.5 z" /><g
       transform="translate(198.563,452.016)"
       id="g234"><path
         id="path236"
         style="fill:none;stroke:#231f20;stroke-width:0.75;stroke-linecap:square;stroke-linejoin:miter;stroke-miterlimit:10;stroke-dasharray:none;stroke-opacity:1"
         d="m 0,0 h 82.125 c 4.243,0 7.688,-3.444 7.688,-7.687 0,-4.244 -3.445,-7.688 -7.688,-7.688 H 0 c -4.243,0 -7.687,3.444 -7.687,7.688 C -7.687,-3.444 -4.243,0 0,0 Z" /></g><text
       id="text240"
       style="font-variant:normal;font-weight:normal;font-stretch:normal;font-size:9px;font-family:Times;-inkscape-font-specification:Times-Roman;writing-mode:lr-tb;fill:#231f20;fill-opacity:1;fill-rule:nonzero;stroke:none"
       transform="matrix(1,0,0,-1,207.6084,441.7138)"><tspan
         id="tspan238"
         y="0"
         x="0 4.5 9 11.25 13.5 18 22.5 24.75 27 29.502001 34.001999 37.998001 42.498001 45 47.501999 50.319 52.820999 56.817001 59.813999">65, 32, identifier</tspan></text>
<path
       id="path242"
       style="fill:#ffffff;fill-opacity:1;fill-rule:nonzero;stroke:none"
       d="m 0.375,434.766 h 126 v 17.25 h -126 z" /><g
       transform="translate(0.375,452.016)"
       id="g244"><path
         id="path246"
         style="fill:none;stroke:#231f20;stroke-width:0.75;stroke-linecap:square;stroke-linejoin:miter;stroke-miterlimit:10;stroke-dasharray:none;stroke-opacity:1"
         d="M 126,0 H 0 v -17.25 h 126 z" /><g
         id="g248"><path
           id="path250"
           style="fill:none;stroke:#231f20;stroke-width:0.75;stroke-linecap:square;stroke-linejoin:miter;stroke-miterlimit:10;stroke-dasharray:none;stroke-opacity:1"
           d="M 0,0 Z" /></g></g><text
       id="text256"
       style="font-variant:normal;font-weight:normal;font-stretch:normal;font-size:9px;font-family:Times;-inkscape-font-specification:Times-Roman;writing-mode:lr-tb;fill:#231f20;fill-opacity:1;fill-rule:nonzero;stroke:none"
       transform="matrix(1,0,0,-1,4.8525,441.0644)"><tspan
         id="tspan252"
         y="0"
         x="0 2.997 9.4949999 15.498 20.502001 23.499001 26.000999 30.500999 34.497002 38.997002 41.499001 44.000999 46.818001 49.32 53.316002 57.312 59.813999 62.316002 66.816002 71.316002 75.816002 79.811996 83.313004 86.814003 89.316002 93.816002 98.316002 105.318 109.314 113.814 116.316">(ABS)identification_assignment</tspan><tspan
         id="tspan254"
         y="7.7210999"
         x="129.0222 133.0182 136.5192 140.0202 142.5222 147.0222 151.5222 155.5182 160.0182 164.5182 167.0202 171.5202">assigned_id</tspan></text>
<path
       id="path258"
       style="fill:#ffffff;fill-opacity:1;fill-rule:nonzero;stroke:none"
       d="m 237.548,279.192 h 113.25 v 15.375 h -113.25 z" /><g
       transform="translate(245.235,294.567)"
       id="g260"><path
         id="path262"
         style="fill:none;stroke:#231f20;stroke-width:0.75;stroke-linecap:square;stroke-linejoin:miter;stroke-miterlimit:10;stroke-dasharray:none;stroke-opacity:1"
         d="m 0,0 h 97.875 c 4.244,0 7.688,-3.444 7.688,-7.687 0,-4.244 -3.444,-7.688 -7.688,-7.688 H 0 c -4.243,0 -7.687,3.444 -7.687,7.688 C -7.687,-3.444 -4.243,0 0,0 Z" /></g><text
       id="text266"
       style="font-variant:normal;font-weight:normal;font-stretch:normal;font-size:9px;font-family:Times;-inkscape-font-specification:Times-Roman;writing-mode:lr-tb;fill:#231f20;fill-opacity:1;fill-rule:nonzero;stroke:none"
       transform="matrix(1,0,0,-1,247.6465,284.3105)"><tspan
         id="tspan264"
         y="0"
         x="0 4.5 9 11.25 13.5 18 22.5 27 29.25 31.5 35.361 39.861 42.362999 46.359001 49.355999 53.855999 57.852001 60.354 64.853996 68.355003 72.855003 77.355003 80.351997 84.348 88.344002">16, 118, external_source</tspan></text>
<path
       id="path268"
       style="fill:#ffffff;fill-opacity:1;fill-rule:nonzero;stroke:none"
       d="m 32.986,275.817 h 158.999 v 18.75 H 32.986 Z" /><g
       transform="translate(32.986,294.567)"
       id="g270"><path
         id="path272"
         style="fill:none;stroke:#231f20;stroke-width:0.75;stroke-linecap:square;stroke-linejoin:miter;stroke-miterlimit:10;stroke-dasharray:none;stroke-opacity:1"
         d="M 158.999,0 H 0 v -18.75 h 158.999 z" /><g
         id="g274"><path
           id="path276"
           style="fill:none;stroke:#231f20;stroke-width:0.75;stroke-linecap:square;stroke-linejoin:miter;stroke-miterlimit:10;stroke-dasharray:none;stroke-opacity:1"
           d="M 0,0 Z" /></g></g><text
       id="text282"
       style="font-variant:normal;font-weight:normal;font-stretch:normal;font-size:9px;font-family:Times;-inkscape-font-specification:Times-Roman;writing-mode:lr-tb;fill:#231f20;fill-opacity:1;fill-rule:nonzero;stroke:none"
       transform="matrix(1,0,0,-1,35.9863,282.8657)"><tspan
         id="tspan278"
         y="0"
         x="0 2.997 9.4949999 15.498 20.502001 23.499001 27.360001 31.860001 34.362 38.358002 41.355 45.855 49.851002 52.353001 56.853001 59.355 63.855 67.850998 72.350998 74.852997 77.355003 80.171997 82.674004 86.669998 90.666 93.167999 95.669998 100.17 104.67 109.17 113.166 116.667 120.168 122.67 127.17 131.67 138.672 142.668 147.168 149.67">(ABS)external_identification_assignment</tspan><tspan
         id="tspan280"
         y="4.2174001"
         x="163.4994 167.0004 171.5004 176.0004 178.99741 182.99339 186.9894">source</tspan></text>
<path
       id="path284"
       style="fill:#ffffff;fill-opacity:1;fill-rule:nonzero;stroke:none"
       d="m 14.799,236.63 h 170.249 v 17.25 H 14.799 Z" /><g
       transform="translate(14.799,253.88)"
       id="g286"><path
         id="path288"
         style="fill:none;stroke:#231f20;stroke-width:0.75;stroke-linecap:square;stroke-linejoin:miter;stroke-miterlimit:10;stroke-dasharray:none;stroke-opacity:1"
         d="M 170.249,0 H 0 v -17.25 h 170.249 z" /><g
         id="g290"><path
           id="path292"
           style="fill:none;stroke:#231f20;stroke-width:0.75;stroke-linecap:square;stroke-linejoin:miter;stroke-miterlimit:10;stroke-dasharray:none;stroke-opacity:1"
           d="M 0,0 Z" /></g></g><text
       id="text296"
       style="font-variant:normal;font-weight:normal;font-stretch:normal;font-size:9px;font-family:Times;-inkscape-font-specification:Times-Roman;writing-mode:lr-tb;fill:#231f20;fill-opacity:1;fill-rule:nonzero;stroke:none"
       transform="matrix(1,0,0,-1,20.7988,242.9687)"><tspan
         id="tspan294"
         y="0"
         x="0 3.9960001 8.4960003 12.996 15.498 18 21.996 26.496 30.996 34.856998 39.356998 41.859001 45.855 48.852001 53.352001 57.348 59.849998 64.349998 66.851997 71.351997 75.348 79.848 82.349998 84.851997 87.668999 90.170998 94.167 98.163002 100.665 103.167 107.667 112.167 116.667 120.663 124.164 127.665 130.16701 134.66701 139.16701 146.16901 150.16499 154.66499 157.16701">applied_external_identification_assignment</tspan></text>
<path
       id="path298"
       style="fill:#ffffff;fill-opacity:1;fill-rule:nonzero;stroke:none"
       d="m 238.298,183.005 h 117 v 39 h -117 z" /><path
       id="path300"
       style="fill:none;stroke:#231f20;stroke-width:0.75;stroke-linecap:square;stroke-linejoin:miter;stroke-miterlimit:10;stroke-dasharray:3.75, 3.75;stroke-dashoffset:0;stroke-opacity:1"
       d="m 238.298,222.005 v -39 h 117 v 39 z m 7.5,-39 v 39" /><text
       id="text306"
       style="font-variant:normal;font-weight:normal;font-stretch:normal;font-size:9px;font-family:Times;-inkscape-font-specification:Times-Roman;writing-mode:lr-tb;fill:#231f20;fill-opacity:1;fill-rule:nonzero;stroke:none"
       transform="matrix(1,0,0,-1,249.0263,199.791)"><tspan
         id="tspan302"
         y="0"
         x="0 3.8610001 8.3610001 10.863 14.859 17.856001 22.356001 26.351999 28.854 33.354 35.855999 40.355999 44.352001 48.852001 51.354 53.855999 56.673 59.174999 63.171001 67.167 69.668999 72.170998 76.670998 81.170998 85.670998 88.172997 90.675003 94.670998 101.673">external_identification_item</tspan><tspan
         id="tspan304"
         y="-35.125198"
         x="-56.4786 -53.976601 -51.474602 -47.4786 -40.476601 -36.975601 -34.725601 -29.7216 -26.7246 -22.2246 -19.722601 -15.7266 -12.7296">items S[1:?]</tspan></text>
<path
       id="path308"
       style="fill:#ffffff;fill-opacity:1;fill-rule:nonzero;stroke:none"
       d="m 31.299,206.63 h 143.25 v 15.375 H 31.299 Z" /><g
       transform="translate(38.986,222.005)"
       id="g310"><path
         id="path312"
         style="fill:none;stroke:#231f20;stroke-width:0.75;stroke-linecap:square;stroke-linejoin:miter;stroke-miterlimit:10;stroke-dasharray:none;stroke-opacity:1"
         d="m 0,0 h 127.875 c 4.243,0 7.688,-3.444 7.688,-7.687 0,-4.244 -3.445,-7.688 -7.688,-7.688 H 0 c -4.244,0 -7.687,3.444 -7.687,7.688 C -7.687,-3.444 -4.244,0 0,0 Z" /></g><text
       id="text316"
       style="font-variant:normal;font-weight:normal;font-stretch:normal;font-size:9px;font-family:Times;-inkscape-font-specification:Times-Roman;writing-mode:lr-tb;fill:#231f20;fill-opacity:1;fill-rule:nonzero;stroke:none"
       transform="matrix(1,0,0,-1,37.1391,212.0039)"><tspan
         id="tspan314"
         y="0"
         x="0 4.5 9 11.25 13.5 18 22.5 27 29.25 31.5 35.361 39.861 42.362999 46.359001 49.355999 53.855999 57.852001 60.354 62.855999 67.356003 71.856003 76.356003 80.351997 83.168999 85.670998 90.170998 94.167 98.667 103.167 107.163 109.665 113.661 117.162 120.663">16, 126, externally_defined_class</tspan></text>
<path
       id="path318"
       style="fill:#ffffff;fill-opacity:1;fill-rule:nonzero;stroke:none"
       d="M 31.299,183.005 H 215.798 V 198.38 H 31.299 Z" /><g
       transform="translate(38.986,198.38)"
       id="g320"><path
         id="path322"
         style="fill:none;stroke:#231f20;stroke-width:0.75;stroke-linecap:square;stroke-linejoin:miter;stroke-miterlimit:10;stroke-dasharray:none;stroke-opacity:1"
         d="m 0,0 h 169.124 c 4.244,0 7.688,-3.444 7.688,-7.687 0,-4.244 -3.444,-7.688 -7.688,-7.688 H 0 c -4.244,0 -7.687,3.444 -7.687,7.688 C -7.687,-3.444 -4.244,0 0,0 Z" /></g><text
       id="text326"
       style="font-variant:normal;font-weight:normal;font-stretch:normal;font-size:9px;font-family:Times;-inkscape-font-specification:Times-Roman;writing-mode:lr-tb;fill:#231f20;fill-opacity:1;fill-rule:nonzero;stroke:none"
       transform="matrix(1,0,0,-1,37,188.4062)"><tspan
         id="tspan324"
         y="0"
         x="0 4.5 9 11.25 13.5 18 22.5 27 29.25 31.5 35.361 39.861 42.362999 46.359001 49.355999 53.855999 57.852001 60.354 62.855999 67.356003 71.856003 76.356003 80.351997 83.168999 85.670998 90.170998 94.167 98.667 103.167 107.667 111.663 116.163 120.159 123.156 127.152 129.65401 134.15401 138.65401 141.651 146.151 150.651 154.647 157.644 160.146 164.646">16, 127, externally_defined_general_property</tspan></text>
<g
       transform="translate(74.741,257.679)"
       id="g328"><path
         id="path330"
         style="fill:#ffffff;fill-opacity:1;fill-rule:nonzero;stroke:none"
         d="M 0,0 C 0,2.07 -1.68,3.75 -3.75,3.75 -5.82,3.75 -7.5,2.07 -7.5,0 c 0,-2.07 1.68,-3.75 3.75,-3.75 C -1.68,-3.75 0,-2.07 0,0" /></g><g
       transform="translate(74.741,257.679)"
       id="g332"><path
         id="path334"
         style="fill:none;stroke:#231f20;stroke-width:0.75;stroke-linecap:square;stroke-linejoin:miter;stroke-miterlimit:10;stroke-dasharray:none;stroke-opacity:1"
         d="M 0,0 C 0,2.07 -1.68,3.75 -3.75,3.75 -5.82,3.75 -7.5,2.07 -7.5,0 c 0,-2.07 1.68,-3.75 3.75,-3.75 C -1.68,-3.75 0,-2.07 0,0" /></g><g
       transform="translate(300.551,225.73)"
       id="g336"><path
         id="path338"
         style="fill:#ffffff;fill-opacity:1;fill-rule:nonzero;stroke:none"
         d="M 0,0 C 0,2.069 -1.681,3.75 -3.75,3.75 -5.82,3.75 -7.5,2.069 -7.5,0 c 0,-2.07 1.68,-3.75 3.75,-3.75 C -1.681,-3.75 0,-2.07 0,0" /></g><g
       transform="translate(300.551,225.73)"
       id="g340"><path
         id="path342"
         style="fill:none;stroke:#231f20;stroke-width:0.75;stroke-linecap:square;stroke-linejoin:miter;stroke-miterlimit:10;stroke-dasharray:none;stroke-opacity:1"
         d="M 0,0 C 0,2.069 -1.681,3.75 -3.75,3.75 -5.82,3.75 -7.5,2.069 -7.5,0 c 0,-2.07 1.68,-3.75 3.75,-3.75 C -1.681,-3.75 0,-2.07 0,0" /></g><path
       id="path344"
       style="fill:#ffffff;fill-opacity:1;fill-rule:nonzero;stroke:none"
       d="m 214.875,318.023 h 99 v 15.375 h -99 z" /><path
       id="path346"
       style="fill:none;stroke:#231f20;stroke-width:0.75;stroke-linecap:square;stroke-linejoin:miter;stroke-miterlimit:10;stroke-dasharray:3.75, 3.75;stroke-dashoffset:0;stroke-opacity:1"
       d="m 214.875,333.398 v -15.375 h 99 v 15.375 z m 7.5,-15.375 v 15.375" /><text
       id="text350"
       style="font-variant:normal;font-weight:normal;font-stretch:normal;font-size:9px;font-family:Times;-inkscape-font-specification:Times-Roman;writing-mode:lr-tb;fill:#231f20;fill-opacity:1;fill-rule:nonzero;stroke:none"
       transform="matrix(1,0,0,-1,232.1123,322.9966)"><tspan
         id="tspan348"
         y="0"
         x="0 2.5020001 7.0019999 10.998 15.498 18 20.502001 23.319 25.820999 29.816999 33.813 36.314999 38.817001 43.317001 47.817001 52.317001 54.819 57.320999 61.317001 68.319">identification_item</tspan></text>
<g
       transform="translate(268.15,337.149)"
       id="g352"><path
         id="path354"
         style="fill:#ffffff;fill-opacity:1;fill-rule:nonzero;stroke:none"
         d="M 0,0 C 0,2.07 -1.68,3.75 -3.75,3.75 -5.82,3.75 -7.5,2.07 -7.5,0 c 0,-2.07 1.68,-3.75 3.75,-3.75 C -1.68,-3.75 0,-2.07 0,0" /></g><g
       transform="translate(268.15,337.149)"
       id="g356"><path
         id="path358"
         style="fill:none;stroke:#231f20;stroke-width:0.75;stroke-linecap:square;stroke-linejoin:miter;stroke-miterlimit:10;stroke-dasharray:none;stroke-opacity:1"
         d="M 0,0 C 0,2.07 -1.68,3.75 -3.75,3.75 -5.82,3.75 -7.5,2.07 -7.5,0 c 0,-2.07 1.68,-3.75 3.75,-3.75 C -1.68,-3.75 0,-2.07 0,0" /></g><text
       id="text362"
       style="font-variant:normal;font-weight:normal;font-stretch:normal;font-size:9px;font-family:Times;-inkscape-font-specification:Times-Roman;writing-mode:lr-tb;fill:#231f20;fill-opacity:1;fill-rule:nonzero;stroke:none"
       transform="matrix(1,0,0,-1,181.125,341.3828)"><tspan
         id="tspan360"
         y="0"
         x="0 2.5020001 5.0040002 9 16.002001 19.503 21.753 26.757 29.754 34.254002 36.756001 40.751999 43.749001">items S[1:?]</tspan></text>
<path
       id="path364"
       style="fill:#ffffff;fill-opacity:1;fill-rule:nonzero;stroke:none"
       d="m 77.625,318.023 h 114.75 v 15.375 H 77.625 Z" /><g
       transform="translate(85.313,333.398)"
       id="g366"><path
         id="path368"
         style="fill:none;stroke:#231f20;stroke-width:0.75;stroke-linecap:square;stroke-linejoin:miter;stroke-miterlimit:10;stroke-dasharray:none;stroke-opacity:1"
         d="m 0,0 h 99.375 c 4.243,0 7.688,-3.444 7.688,-7.687 0,-4.244 -3.445,-7.688 -7.688,-7.688 H 0 c -4.243,0 -7.687,3.444 -7.687,7.688 C -7.687,-3.444 -4.243,0 0,0 Z" /></g><text
       id="text372"
       style="font-variant:normal;font-weight:normal;font-stretch:normal;font-size:9px;font-family:Times;-inkscape-font-specification:Times-Roman;writing-mode:lr-tb;fill:#231f20;fill-opacity:1;fill-rule:nonzero;stroke:none"
       transform="matrix(1,0,0,-1,82.976,323.1406)"><tspan
         id="tspan370"
         y="0"
         x="0 4.5 9 11.25 13.5 18 22.5 27 29.25 31.5 36 38.501999 45.504002 49.5 54 57.500999 60.002998 64.502998 69.002998 72.999001 75.500999 80.000999 83.501999 86.003998 90 93.996002">45, 122, dimensional_size</tspan></text>
<path
       id="path374"
       style="fill:#ffffff;fill-opacity:1;fill-rule:nonzero;stroke:none"
       d="m 72.938,382.079 h 90 v 39 h -90 z" /><g
       transform="translate(72.938,421.079)"
       id="g376"><path
         id="path378"
         style="fill:none;stroke:#231f20;stroke-width:0.75;stroke-linecap:square;stroke-linejoin:miter;stroke-miterlimit:10;stroke-dasharray:none;stroke-opacity:1"
         d="M 90,0 H 0 v -39 h 90 z" /><g
         id="g380"><path
           id="path382"
           style="fill:none;stroke:#231f20;stroke-width:0.75;stroke-linecap:square;stroke-linejoin:miter;stroke-miterlimit:10;stroke-dasharray:none;stroke-opacity:1"
           d="M 0,0 Z" /></g></g><text
       id="text388"
       style="font-variant:normal;font-weight:normal;font-stretch:normal;font-size:9px;font-family:Times;-inkscape-font-specification:Times-Roman;writing-mode:lr-tb;fill:#231f20;fill-opacity:1;fill-rule:nonzero;stroke:none"
       transform="matrix(1,0,0,-1,82.9233,398.8652)"><tspan
         id="tspan384"
         y="0"
         x="0 2.5020001 7.0019999 10.998 15.498 18 20.502001 23.319 25.820999 29.816999 33.813 36.314999 38.817001 43.317001 47.817001 52.317001 55.313999 59.813999 62.316002 66.311996">identification_role</tspan><tspan
         id="tspan386"
         y="-22.495501"
         x="-28.804501 -25.807501 -21.307501 -18.8055 -14.8095">role</tspan></text>
<path
       id="path390"
       style="fill:#ffffff;fill-opacity:1;fill-rule:nonzero;stroke:none"
       d="m 218.438,405.704 h 81 v 15.375 h -81 z" /><g
       transform="translate(226.125,421.079)"
       id="g392"><path
         id="path394"
         style="fill:none;stroke:#231f20;stroke-width:0.75;stroke-linecap:square;stroke-linejoin:miter;stroke-miterlimit:10;stroke-dasharray:none;stroke-opacity:1"
         d="m 0,0 h 65.625 c 4.243,0 7.687,-3.444 7.687,-7.687 0,-4.244 -3.444,-7.688 -7.687,-7.688 H 0 c -4.243,0 -7.687,3.444 -7.687,7.688 C -7.687,-3.444 -4.243,0 0,0 Z" /></g><text
       id="text398"
       style="font-variant:normal;font-weight:normal;font-stretch:normal;font-size:9px;font-family:Times;-inkscape-font-specification:Times-Roman;writing-mode:lr-tb;fill:#231f20;fill-opacity:1;fill-rule:nonzero;stroke:none"
       transform="matrix(1,0,0,-1,234.4218,410.8218)"><tspan
         id="tspan396"
         y="0"
         x="0 4.5 9 11.25 13.5 18 22.5 24.75 27 29.502001 33.498001 37.998001 41.993999 44.495998">65, 33, label</tspan></text>
<path
       id="path400"
       style="fill:#ffffff;fill-opacity:1;fill-rule:nonzero;stroke:none"
       d="m 223.688,382.079 h 75.75 v 15.375 h -75.75 z" /><g
       transform="translate(231.375,397.454)"
       id="g402"><path
         id="path404"
         style="fill:none;stroke:#231f20;stroke-width:0.75;stroke-linecap:square;stroke-linejoin:miter;stroke-miterlimit:10;stroke-dasharray:none;stroke-opacity:1"
         d="m 0,0 h 60.375 c 4.243,0 7.687,-3.444 7.687,-7.687 0,-4.244 -3.444,-7.688 -7.687,-7.688 H 0 c -4.243,0 -7.687,3.444 -7.687,7.688 C -7.687,-3.444 -4.243,0 0,0 Z" /></g><text
       id="text412"
       style="font-variant:normal;font-weight:normal;font-stretch:normal;font-size:9px;font-family:Times;-inkscape-font-specification:Times-Roman;writing-mode:lr-tb;fill:#231f20;fill-opacity:1;fill-rule:nonzero;stroke:none"
       transform="matrix(1,0,0,-1,239.2968,387.2641)"><tspan
         id="tspan406"
         y="0"
         x="0 4.5 9 11.25 13.5 18 22.5 24.75 27 29.502001 33.362999 37.862999 40.365002">65, 34, text</tspan><tspan
         id="tspan408"
         y="-17.895599"
         x="-68.859001 -64.359001 -60.362999 -53.361 -49.365002">name</tspan><tspan
         id="tspan410"
         y="8.4834003"
         x="-68.859001 -64.359001 -60.362999 -56.862 -52.866001 -49.868999 -47.367001 -42.867001 -40.365002 -37.862999 -33.362999 -28.863001">description</tspan></text>
<g
       transform="translate(72.94,401.589)"
       id="g414"><path
         id="path416"
         style="fill:#ffffff;fill-opacity:1;fill-rule:nonzero;stroke:none"
         d="M 0,0 C 0,2.07 -1.68,3.75 -3.75,3.75 -5.82,3.75 -7.5,2.07 -7.5,0 c 0,-2.07 1.68,-3.75 3.75,-3.75 C -1.68,-3.75 0,-2.07 0,0" /></g><g
       transform="translate(72.94,401.589)"
       id="g418"><path
         id="path420"
         style="fill:none;stroke:#231f20;stroke-width:0.75;stroke-linecap:square;stroke-linejoin:miter;stroke-miterlimit:10;stroke-dasharray:none;stroke-opacity:1"
         d="M 0,0 C 0,2.07 -1.68,3.75 -3.75,3.75 -5.82,3.75 -7.5,2.07 -7.5,0 c 0,-2.07 1.68,-3.75 3.75,-3.75 C -1.68,-3.75 0,-2.07 0,0" /></g><g
       transform="translate(32.981,285.219)"
       id="g422"><path
         id="path424"
         style="fill:#ffffff;fill-opacity:1;fill-rule:nonzero;stroke:none"
         d="M 0,0 C 0,2.07 -1.68,3.75 -3.75,3.75 -5.821,3.75 -7.5,2.07 -7.5,0 c 0,-2.07 1.679,-3.75 3.75,-3.75 C -1.68,-3.75 0,-2.07 0,0" /></g><g
       transform="translate(32.981,285.219)"
       id="g426"><path
         id="path428"
         style="fill:none;stroke:#231f20;stroke-width:0.75;stroke-linecap:square;stroke-linejoin:miter;stroke-miterlimit:10;stroke-dasharray:none;stroke-opacity:1"
         d="M 0,0 C 0,2.07 -1.68,3.75 -3.75,3.75 -5.821,3.75 -7.5,2.07 -7.5,0 c 0,-2.07 1.679,-3.75 3.75,-3.75 C -1.68,-3.75 0,-2.07 0,0" /></g><g
       transform="translate(36.4,351.909)"
       id="g430"><path
         id="path432"
         style="fill:#ffffff;fill-opacity:1;fill-rule:nonzero;stroke:none"
         d="M 0,0 C 0,2.07 -1.68,3.75 -3.75,3.75 -5.819,3.75 -7.5,2.07 -7.5,0 c 0,-2.07 1.681,-3.75 3.75,-3.75 C -1.68,-3.75 0,-2.07 0,0" /></g><g
       transform="translate(36.4,351.909)"
       id="g434"><path
         id="path436"
         style="fill:none;stroke:#231f20;stroke-width:0.75;stroke-linecap:square;stroke-linejoin:miter;stroke-miterlimit:10;stroke-dasharray:none;stroke-opacity:1"
         d="M 0,0 C 0,2.07 -1.68,3.75 -3.75,3.75 -5.819,3.75 -7.5,2.07 -7.5,0 c 0,-2.07 1.681,-3.75 3.75,-3.75 C -1.68,-3.75 0,-2.07 0,0" /></g></g></svg>