<?xml version="1.0" encoding="UTF-8" standalone="no"?>
<svg
   xmlns:dc="http://purl.org/dc/elements/1.1/"
   xmlns:cc="http://creativecommons.org/ns#"
   xmlns:rdf="http://www.w3.org/1999/02/22-rdf-syntax-ns#"
   xmlns:svg="http://www.w3.org/2000/svg"
   xmlns="http://www.w3.org/2000/svg"
   viewBox="0 0 463.56134 634.68402"
   height="634.68402"
   width="463.56134"
   xml:space="preserve"
   id="svg2"
   version="1.1"><metadata
     id="metadata8"><rdf:RDF><cc:Work
         rdf:about=""><dc:format>image/svg+xml</dc:format><dc:type
           rdf:resource="http://purl.org/dc/dcmitype/StillImage" /></cc:Work></rdf:RDF></metadata><defs
     id="defs6" /><g
     transform="matrix(1.3333333,0,0,-1.3333333,0,634.684)"
     id="g10"><g
       transform="translate(94.921,120.513)"
       id="g12"><path
         id="path14"
         style="fill:none;stroke:#231f20;stroke-width:2.25;stroke-linecap:square;stroke-linejoin:miter;stroke-miterlimit:10;stroke-dasharray:none;stroke-opacity:1"
         d="M 0,0 V -8.625" /><g
         transform="translate(-42.796,-8.625)"
         id="g16"><path
           id="path18"
           style="fill:none;stroke:#231f20;stroke-width:2.25;stroke-linecap:square;stroke-linejoin:miter;stroke-miterlimit:10;stroke-dasharray:none;stroke-opacity:1"
           d="M 0,0 H 42.796" /><g
           transform="translate(253.546)"
           id="g20"><path
             id="path22"
             style="fill:none;stroke:#231f20;stroke-width:2.25;stroke-linecap:square;stroke-linejoin:miter;stroke-miterlimit:10;stroke-dasharray:none;stroke-opacity:1"
             d="M 0,0 H -210.75" /><g
             transform="translate(-253.546)"
             id="g24"><path
               id="path26"
               style="fill:none;stroke:#231f20;stroke-width:2.25;stroke-linecap:square;stroke-linejoin:miter;stroke-miterlimit:10;stroke-dasharray:none;stroke-opacity:1"
               d="M 0,0 V -60.129" /><g
               transform="translate(253.546)"
               id="g28"><path
                 id="path30"
                 style="fill:none;stroke:#231f20;stroke-width:2.25;stroke-linecap:square;stroke-linejoin:miter;stroke-miterlimit:10;stroke-dasharray:none;stroke-opacity:1"
                 d="M 0,0 V -8.25" /></g></g></g></g></g><g
       transform="translate(94.906,469.621)"
       id="g32"><path
         id="path34"
         style="fill:none;stroke:#231f20;stroke-width:0.75;stroke-linecap:square;stroke-linejoin:miter;stroke-miterlimit:10;stroke-dasharray:none;stroke-opacity:1"
         d="M 0,0 V -10.483" /></g><path
       id="path36"
       style="fill:none;stroke:#231f20;stroke-width:0.75;stroke-linecap:square;stroke-linejoin:miter;stroke-miterlimit:10;stroke-dasharray:3.75, 3.75;stroke-dashoffset:0;stroke-opacity:1"
       d="m 225.781,443.95 h -108 m 54,-23.625 h -54 m 54,-23.625 h -54 m 108,-23.625 h -108 m 108,-23.625 h -108 m 108,-23.625 h -108 m 108,-23.625 h -108 m 108,-23.625 h -108 m 54,-23.625 h -54 m 54,-23.625 h -54 m 108,-23.625 h -108 m 108,-23.625 h -108" /><g
       transform="translate(225.781,160.45)"
       id="g38"><path
         id="path40"
         style="fill:none;stroke:#231f20;stroke-width:0.75;stroke-linecap:square;stroke-linejoin:miter;stroke-miterlimit:10;stroke-dasharray:none;stroke-opacity:1"
         d="M 0,0 H -107.999" /><g
         transform="translate(-17.25,-23.625)"
         id="g42"><path
           id="path44"
           style="fill:none;stroke:#231f20;stroke-width:0.75;stroke-linecap:square;stroke-linejoin:miter;stroke-miterlimit:10;stroke-dasharray:none;stroke-opacity:1"
           d="M 0,0 H -90.749" /><g
           transform="translate(-5.656,-100.254)"
           id="g46"><path
             id="path48"
             style="fill:none;stroke:#231f20;stroke-width:0.75;stroke-linecap:square;stroke-linejoin:miter;stroke-miterlimit:10;stroke-dasharray:none;stroke-opacity:1"
             d="M 0,0 H -99" /></g></g></g><path
       id="path50"
       style="fill:none;stroke:#231f20;stroke-width:0.75;stroke-linecap:square;stroke-linejoin:miter;stroke-miterlimit:10;stroke-dasharray:3.75, 3.75;stroke-dashoffset:0;stroke-opacity:1"
       d="M 236.625,12.946 H 103.875" /><g
       transform="translate(94.906,120.513)"
       id="g52"><path
         id="path54"
         style="fill:none;stroke:#231f20;stroke-width:2.25;stroke-linecap:square;stroke-linejoin:miter;stroke-miterlimit:10;stroke-dasharray:none;stroke-opacity:1"
         d="M 0,0 V 8.625" /></g><g
       transform="translate(193.546,88.45)"
       id="g56"><path
         id="path58"
         style="fill:none;stroke:#231f20;stroke-width:0.75;stroke-linecap:square;stroke-linejoin:miter;stroke-miterlimit:10;stroke-dasharray:none;stroke-opacity:1"
         d="M 0,0 H 70.5" /></g><path
       id="path60"
       style="fill:none;stroke:#231f20;stroke-width:0.75;stroke-linecap:square;stroke-linejoin:miter;stroke-miterlimit:10;stroke-dasharray:3.75, 3.75;stroke-dashoffset:0;stroke-opacity:1"
       d="m 180.046,64.825 h 84" /><g
       transform="translate(119.656,469.621)"
       id="g62"><path
         id="path64"
         style="fill:none;stroke:#231f20;stroke-width:0.75;stroke-linecap:square;stroke-linejoin:miter;stroke-miterlimit:10;stroke-dasharray:none;stroke-opacity:1"
         d="M 0,0 H -24.75" /></g><path
       id="path66"
       style="fill:none;stroke:#231f20;stroke-width:0.75;stroke-linecap:square;stroke-linejoin:miter;stroke-miterlimit:10;stroke-dasharray:3.75, 3.75;stroke-dashoffset:0;stroke-opacity:1"
       d="m 225.781,420.325 h -54 m 0,0 v 0 m 54,-23.625 h -54 m 0,0 v 0 m 54,-141.75 h -54 m 0,0 v 0 m 54,-23.625 h -54 m 0,0 v 0" /><g
       transform="translate(94.921,120.513)"
       id="g68"><path
         id="path70"
         style="fill:none;stroke:#231f20;stroke-width:2.25;stroke-linecap:square;stroke-linejoin:miter;stroke-miterlimit:10;stroke-dasharray:none;stroke-opacity:1"
         d="M 0,0 H -0.015" /></g><path
       id="path72"
       style="fill:#ffffff;fill-opacity:1;fill-rule:nonzero;stroke:none"
       d="m 225.781,436.263 h 78.75 v 15.375 h -78.75 z" /><g
       transform="translate(233.468,451.638)"
       id="g74"><path
         id="path76"
         style="fill:none;stroke:#231f20;stroke-width:0.75;stroke-linecap:square;stroke-linejoin:miter;stroke-miterlimit:10;stroke-dasharray:none;stroke-opacity:1"
         d="m 0,0 h 63.375 c 4.244,0 7.688,-3.444 7.688,-7.687 0,-4.244 -3.444,-7.688 -7.688,-7.688 H 0 c -4.243,0 -7.687,3.444 -7.687,7.688 C -7.687,-3.444 -4.243,0 0,0 Z" /></g><text
       id="text80"
       style="font-variant:normal;font-weight:normal;font-stretch:normal;font-size:9px;font-family:Times;-inkscape-font-specification:Times-Roman;writing-mode:lr-tb;fill:#231f20;fill-opacity:1;fill-rule:nonzero;stroke:none"
       transform="matrix(1,0,0,-1,240.6402,441.3808)"><tspan
         id="tspan78"
         y="0"
         x="0 4.5 9 11.25 13.5 18 22.5 24.75 27 29.502001 33.498001 37.998001 41.993999 44.495998">65, 87, label</tspan></text>
<path
       id="path82"
       style="fill:#ffffff;fill-opacity:1;fill-rule:nonzero;stroke:none"
       d="m 225.781,412.638 h 78.75 v 15.375 h -78.75 z" /><g
       transform="translate(233.468,428.013)"
       id="g84"><path
         id="path86"
         style="fill:none;stroke:#231f20;stroke-width:0.75;stroke-linecap:square;stroke-linejoin:miter;stroke-miterlimit:10;stroke-dasharray:none;stroke-opacity:1"
         d="m 0,0 h 63.375 c 4.244,0 7.688,-3.444 7.688,-7.687 0,-4.244 -3.444,-7.688 -7.688,-7.688 H 0 c -4.243,0 -7.687,3.444 -7.687,7.688 C -7.687,-3.444 -4.243,0 0,0 Z" /></g><text
       id="text90"
       style="font-variant:normal;font-weight:normal;font-stretch:normal;font-size:9px;font-family:Times;-inkscape-font-specification:Times-Roman;writing-mode:lr-tb;fill:#231f20;fill-opacity:1;fill-rule:nonzero;stroke:none"
       transform="matrix(1,0,0,-1,240.6402,417.7558)"><tspan
         id="tspan88"
         y="0"
         x="0 4.5 9 11.25 13.5 18 22.5 24.75 27 29.502001 33.498001 37.998001 41.993999 44.495998">65, 87, label</tspan></text>
<path
       id="path92"
       style="fill:#ffffff;fill-opacity:1;fill-rule:nonzero;stroke:none"
       d="m 225.781,389.013 h 78.75 v 15.375 h -78.75 z" /><g
       transform="translate(233.468,404.388)"
       id="g94"><path
         id="path96"
         style="fill:none;stroke:#231f20;stroke-width:0.75;stroke-linecap:square;stroke-linejoin:miter;stroke-miterlimit:10;stroke-dasharray:none;stroke-opacity:1"
         d="m 0,0 h 63.375 c 4.244,0 7.688,-3.444 7.688,-7.687 0,-4.244 -3.444,-7.688 -7.688,-7.688 H 0 c -4.243,0 -7.687,3.444 -7.687,7.688 C -7.687,-3.444 -4.243,0 0,0 Z" /></g><text
       id="text100"
       style="font-variant:normal;font-weight:normal;font-stretch:normal;font-size:9px;font-family:Times;-inkscape-font-specification:Times-Roman;writing-mode:lr-tb;fill:#231f20;fill-opacity:1;fill-rule:nonzero;stroke:none"
       transform="matrix(1,0,0,-1,240.6402,394.1308)"><tspan
         id="tspan98"
         y="0"
         x="0 4.5 9 11.25 13.5 18 22.5 24.75 27 29.502001 33.498001 37.998001 41.993999 44.495998">65, 87, label</tspan></text>
<path
       id="path102"
       style="fill:#ffffff;fill-opacity:1;fill-rule:nonzero;stroke:none"
       d="m 225.781,365.388 h 78.75 v 15.375 h -78.75 z" /><g
       transform="translate(233.468,380.763)"
       id="g104"><path
         id="path106"
         style="fill:none;stroke:#231f20;stroke-width:0.75;stroke-linecap:square;stroke-linejoin:miter;stroke-miterlimit:10;stroke-dasharray:none;stroke-opacity:1"
         d="m 0,0 h 63.375 c 4.244,0 7.688,-3.444 7.688,-7.687 0,-4.244 -3.444,-7.688 -7.688,-7.688 H 0 c -4.243,0 -7.687,3.444 -7.687,7.688 C -7.687,-3.444 -4.243,0 0,0 Z" /></g><text
       id="text110"
       style="font-variant:normal;font-weight:normal;font-stretch:normal;font-size:9px;font-family:Times;-inkscape-font-specification:Times-Roman;writing-mode:lr-tb;fill:#231f20;fill-opacity:1;fill-rule:nonzero;stroke:none"
       transform="matrix(1,0,0,-1,240.6402,370.5058)"><tspan
         id="tspan108"
         y="0"
         x="0 4.5 9 11.25 13.5 18 22.5 24.75 27 29.502001 33.498001 37.998001 41.993999 44.495998">65, 87, label</tspan></text>
<path
       id="path112"
       style="fill:#ffffff;fill-opacity:1;fill-rule:nonzero;stroke:none"
       d="m 225.781,341.763 h 78.75 v 15.375 h -78.75 z" /><g
       transform="translate(233.468,357.138)"
       id="g114"><path
         id="path116"
         style="fill:none;stroke:#231f20;stroke-width:0.75;stroke-linecap:square;stroke-linejoin:miter;stroke-miterlimit:10;stroke-dasharray:none;stroke-opacity:1"
         d="m 0,0 h 63.375 c 4.244,0 7.688,-3.444 7.688,-7.687 0,-4.244 -3.444,-7.688 -7.688,-7.688 H 0 c -4.243,0 -7.687,3.444 -7.687,7.688 C -7.687,-3.444 -4.243,0 0,0 Z" /></g><text
       id="text120"
       style="font-variant:normal;font-weight:normal;font-stretch:normal;font-size:9px;font-family:Times;-inkscape-font-specification:Times-Roman;writing-mode:lr-tb;fill:#231f20;fill-opacity:1;fill-rule:nonzero;stroke:none"
       transform="matrix(1,0,0,-1,240.6402,346.8808)"><tspan
         id="tspan118"
         y="0"
         x="0 4.5 9 11.25 13.5 18 22.5 24.75 27 29.502001 33.498001 37.998001 41.993999 44.495998">65, 87, label</tspan></text>
<path
       id="path122"
       style="fill:#ffffff;fill-opacity:1;fill-rule:nonzero;stroke:none"
       d="m 225.781,318.138 h 78.75 v 15.375 h -78.75 z" /><g
       transform="translate(233.468,333.513)"
       id="g124"><path
         id="path126"
         style="fill:none;stroke:#231f20;stroke-width:0.75;stroke-linecap:square;stroke-linejoin:miter;stroke-miterlimit:10;stroke-dasharray:none;stroke-opacity:1"
         d="m 0,0 h 63.375 c 4.244,0 7.688,-3.444 7.688,-7.687 0,-4.244 -3.444,-7.688 -7.688,-7.688 H 0 c -4.243,0 -7.687,3.444 -7.687,7.688 C -7.687,-3.444 -4.243,0 0,0 Z" /></g><text
       id="text130"
       style="font-variant:normal;font-weight:normal;font-stretch:normal;font-size:9px;font-family:Times;-inkscape-font-specification:Times-Roman;writing-mode:lr-tb;fill:#231f20;fill-opacity:1;fill-rule:nonzero;stroke:none"
       transform="matrix(1,0,0,-1,240.6402,323.2558)"><tspan
         id="tspan128"
         y="0"
         x="0 4.5 9 11.25 13.5 18 22.5 24.75 27 29.502001 33.498001 37.998001 41.993999 44.495998">65, 87, label</tspan></text>
<path
       id="path132"
       style="fill:#ffffff;fill-opacity:1;fill-rule:nonzero;stroke:none"
       d="m 225.781,294.513 h 78.75 v 15.375 h -78.75 z" /><g
       transform="translate(233.468,309.888)"
       id="g134"><path
         id="path136"
         style="fill:none;stroke:#231f20;stroke-width:0.75;stroke-linecap:square;stroke-linejoin:miter;stroke-miterlimit:10;stroke-dasharray:none;stroke-opacity:1"
         d="m 0,0 h 63.375 c 4.244,0 7.688,-3.444 7.688,-7.687 0,-4.244 -3.444,-7.688 -7.688,-7.688 H 0 c -4.243,0 -7.687,3.444 -7.687,7.688 C -7.687,-3.444 -4.243,0 0,0 Z" /></g><text
       id="text140"
       style="font-variant:normal;font-weight:normal;font-stretch:normal;font-size:9px;font-family:Times;-inkscape-font-specification:Times-Roman;writing-mode:lr-tb;fill:#231f20;fill-opacity:1;fill-rule:nonzero;stroke:none"
       transform="matrix(1,0,0,-1,240.6402,299.6308)"><tspan
         id="tspan138"
         y="0"
         x="0 4.5 9 11.25 13.5 18 22.5 24.75 27 29.502001 33.498001 37.998001 41.993999 44.495998">65, 87, label</tspan></text>
<path
       id="path142"
       style="fill:#ffffff;fill-opacity:1;fill-rule:nonzero;stroke:none"
       d="m 225.781,270.888 h 78.75 v 15.375 h -78.75 z" /><g
       transform="translate(233.468,286.263)"
       id="g144"><path
         id="path146"
         style="fill:none;stroke:#231f20;stroke-width:0.75;stroke-linecap:square;stroke-linejoin:miter;stroke-miterlimit:10;stroke-dasharray:none;stroke-opacity:1"
         d="m 0,0 h 63.375 c 4.244,0 7.688,-3.444 7.688,-7.687 0,-4.244 -3.444,-7.688 -7.688,-7.688 H 0 c -4.243,0 -7.687,3.444 -7.687,7.688 C -7.687,-3.444 -4.243,0 0,0 Z" /></g><text
       id="text150"
       style="font-variant:normal;font-weight:normal;font-stretch:normal;font-size:9px;font-family:Times;-inkscape-font-specification:Times-Roman;writing-mode:lr-tb;fill:#231f20;fill-opacity:1;fill-rule:nonzero;stroke:none"
       transform="matrix(1,0,0,-1,240.6402,276.0058)"><tspan
         id="tspan148"
         y="0"
         x="0 4.5 9 11.25 13.5 18 22.5 24.75 27 29.502001 33.498001 37.998001 41.993999 44.495998">65, 87, label</tspan></text>
<path
       id="path152"
       style="fill:#ffffff;fill-opacity:1;fill-rule:nonzero;stroke:none"
       d="m 225.781,247.263 h 78.75 v 15.375 h -78.75 z" /><g
       transform="translate(233.468,262.638)"
       id="g154"><path
         id="path156"
         style="fill:none;stroke:#231f20;stroke-width:0.75;stroke-linecap:square;stroke-linejoin:miter;stroke-miterlimit:10;stroke-dasharray:none;stroke-opacity:1"
         d="m 0,0 h 63.375 c 4.244,0 7.688,-3.444 7.688,-7.688 0,-4.243 -3.444,-7.687 -7.688,-7.687 H 0 c -4.243,0 -7.687,3.444 -7.687,7.687 C -7.687,-3.444 -4.243,0 0,0 Z" /></g><text
       id="text160"
       style="font-variant:normal;font-weight:normal;font-stretch:normal;font-size:9px;font-family:Times;-inkscape-font-specification:Times-Roman;writing-mode:lr-tb;fill:#231f20;fill-opacity:1;fill-rule:nonzero;stroke:none"
       transform="matrix(1,0,0,-1,240.6402,252.3808)"><tspan
         id="tspan158"
         y="0"
         x="0 4.5 9 11.25 13.5 18 22.5 24.75 27 29.502001 33.498001 37.998001 41.993999 44.495998">65, 87, label</tspan></text>
<path
       id="path162"
       style="fill:#ffffff;fill-opacity:1;fill-rule:nonzero;stroke:none"
       d="m 225.781,223.638 h 78.75 v 15.375 h -78.75 z" /><g
       transform="translate(233.468,239.013)"
       id="g164"><path
         id="path166"
         style="fill:none;stroke:#231f20;stroke-width:0.75;stroke-linecap:square;stroke-linejoin:miter;stroke-miterlimit:10;stroke-dasharray:none;stroke-opacity:1"
         d="m 0,0 h 63.375 c 4.244,0 7.688,-3.443 7.688,-7.687 0,-4.245 -3.444,-7.688 -7.688,-7.688 H 0 c -4.243,0 -7.687,3.443 -7.687,7.688 C -7.687,-3.443 -4.243,0 0,0 Z" /></g><text
       id="text170"
       style="font-variant:normal;font-weight:normal;font-stretch:normal;font-size:9px;font-family:Times;-inkscape-font-specification:Times-Roman;writing-mode:lr-tb;fill:#231f20;fill-opacity:1;fill-rule:nonzero;stroke:none"
       transform="matrix(1,0,0,-1,240.6402,228.7558)"><tspan
         id="tspan168"
         y="0"
         x="0 4.5 9 11.25 13.5 18 22.5 24.75 27 29.502001 33.498001 37.998001 41.993999 44.495998">65, 87, label</tspan></text>
<path
       id="path172"
       style="fill:#ffffff;fill-opacity:1;fill-rule:nonzero;stroke:none"
       d="m 225.781,200.013 h 78.75 v 15.375 h -78.75 z" /><g
       transform="translate(233.468,215.388)"
       id="g174"><path
         id="path176"
         style="fill:none;stroke:#231f20;stroke-width:0.75;stroke-linecap:square;stroke-linejoin:miter;stroke-miterlimit:10;stroke-dasharray:none;stroke-opacity:1"
         d="m 0,0 h 63.375 c 4.244,0 7.688,-3.443 7.688,-7.687 0,-4.245 -3.444,-7.688 -7.688,-7.688 H 0 c -4.243,0 -7.687,3.443 -7.687,7.688 C -7.687,-3.443 -4.243,0 0,0 Z" /></g><text
       id="text180"
       style="font-variant:normal;font-weight:normal;font-stretch:normal;font-size:9px;font-family:Times;-inkscape-font-specification:Times-Roman;writing-mode:lr-tb;fill:#231f20;fill-opacity:1;fill-rule:nonzero;stroke:none"
       transform="matrix(1,0,0,-1,240.6402,205.1308)"><tspan
         id="tspan178"
         y="0"
         x="0 4.5 9 11.25 13.5 18 22.5 24.75 27 29.502001 33.498001 37.998001 41.993999 44.495998">65, 87, label</tspan></text>
<path
       id="path182"
       style="fill:#ffffff;fill-opacity:1;fill-rule:nonzero;stroke:none"
       d="m 225.781,176.388 h 78.75 v 15.375 h -78.75 z" /><g
       transform="translate(233.468,191.763)"
       id="g184"><path
         id="path186"
         style="fill:none;stroke:#231f20;stroke-width:0.75;stroke-linecap:square;stroke-linejoin:miter;stroke-miterlimit:10;stroke-dasharray:none;stroke-opacity:1"
         d="m 0,0 h 63.375 c 4.244,0 7.688,-3.443 7.688,-7.687 0,-4.245 -3.444,-7.688 -7.688,-7.688 H 0 c -4.243,0 -7.687,3.443 -7.687,7.688 C -7.687,-3.443 -4.243,0 0,0 Z" /></g><text
       id="text190"
       style="font-variant:normal;font-weight:normal;font-stretch:normal;font-size:9px;font-family:Times;-inkscape-font-specification:Times-Roman;writing-mode:lr-tb;fill:#231f20;fill-opacity:1;fill-rule:nonzero;stroke:none"
       transform="matrix(1,0,0,-1,240.6402,181.5058)"><tspan
         id="tspan188"
         y="0"
         x="0 4.5 9 11.25 13.5 18 22.5 24.75 27 29.502001 33.498001 37.998001 41.993999 44.495998">65, 87, label</tspan></text>
<path
       id="path192"
       style="fill:#ffffff;fill-opacity:1;fill-rule:nonzero;stroke:none"
       d="m 225.781,152.763 h 78.75 v 15.375 h -78.75 z" /><g
       transform="translate(233.468,168.138)"
       id="g194"><path
         id="path196"
         style="fill:none;stroke:#231f20;stroke-width:0.75;stroke-linecap:square;stroke-linejoin:miter;stroke-miterlimit:10;stroke-dasharray:none;stroke-opacity:1"
         d="m 0,0 h 63.375 c 4.244,0 7.688,-3.443 7.688,-7.687 0,-4.245 -3.444,-7.688 -7.688,-7.688 H 0 c -4.243,0 -7.687,3.443 -7.687,7.688 C -7.687,-3.443 -4.243,0 0,0 Z" /></g><text
       id="text200"
       style="font-variant:normal;font-weight:normal;font-stretch:normal;font-size:9px;font-family:Times;-inkscape-font-specification:Times-Roman;writing-mode:lr-tb;fill:#231f20;fill-opacity:1;fill-rule:nonzero;stroke:none"
       transform="matrix(1,0,0,-1,240.6402,157.8808)"><tspan
         id="tspan198"
         y="0"
         x="0 4.5 9 11.25 13.5 18 22.5 24.75 27 29.502001 33.498001 37.998001 41.993999 44.495998">65, 33, label</tspan></text>
<path
       id="path202"
       style="fill:#ffffff;fill-opacity:1;fill-rule:nonzero;stroke:none"
       d="m 208.531,129.138 h 96 v 15.375 h -96 z" /><g
       transform="translate(216.218,144.513)"
       id="g204"><path
         id="path206"
         style="fill:none;stroke:#231f20;stroke-width:0.75;stroke-linecap:square;stroke-linejoin:miter;stroke-miterlimit:10;stroke-dasharray:none;stroke-opacity:1"
         d="m 0,0 h 80.625 c 4.244,0 7.688,-3.443 7.688,-7.687 0,-4.245 -3.444,-7.688 -7.688,-7.688 H 0 c -4.243,0 -7.687,3.443 -7.687,7.688 C -7.687,-3.443 -4.243,0 0,0 Z" /></g><text
       id="text210"
       style="font-variant:normal;font-weight:normal;font-stretch:normal;font-size:9px;font-family:Times;-inkscape-font-specification:Times-Roman;writing-mode:lr-tb;fill:#231f20;fill-opacity:1;fill-rule:nonzero;stroke:none"
       transform="matrix(1,0,0,-1,224.5142,134.2099)"><tspan
         id="tspan208"
         y="0"
         x="0 4.5 9 11.25 13.5 18 22.5 24.75 27 29.502001 34.001999 37.998001 42.498001 45 47.501999 50.319 52.820999 56.817001 59.813999">65, 32, identifier</tspan></text>
<path
       id="path212"
       style="fill:#ffffff;fill-opacity:1;fill-rule:nonzero;stroke:none"
       d="m 202.875,28.884 h 107.25 v 15.375 h -107.25 z" /><g
       transform="translate(210.562,44.259)"
       id="g214"><path
         id="path216"
         style="fill:none;stroke:#231f20;stroke-width:0.75;stroke-linecap:square;stroke-linejoin:miter;stroke-miterlimit:10;stroke-dasharray:none;stroke-opacity:1"
         d="m 0,0 h 91.875 c 4.244,0 7.688,-3.443 7.688,-7.687 0,-4.245 -3.444,-7.688 -7.688,-7.688 H 0 c -4.242,0 -7.687,3.443 -7.687,7.688 C -7.687,-3.443 -4.242,0 0,0 Z" /></g><text
       id="text220"
       style="font-variant:normal;font-weight:normal;font-stretch:normal;font-size:9px;font-family:Times;-inkscape-font-specification:Times-Roman;writing-mode:lr-tb;fill:#231f20;fill-opacity:1;fill-rule:nonzero;stroke:none"
       transform="matrix(1,0,0,-1,216.9771,34.331)"><tspan
         id="tspan218"
         y="0"
         x="0 4.4981999 8.9963999 11.2446 13.4946 17.9928 22.490999 24.739201 26.989201 31.4874 34.322399 38.820599 42.8148 47.313 49.813202 53.8074 57.801601 60.3018 62.801998 67.300201 71.798401">53, 90, organization</tspan></text>
<path
       id="path222"
       style="fill:#ffffff;fill-opacity:1;fill-rule:nonzero;stroke:none"
       d="m 236.625,5.2588 h 73.5 v 15.375 h -73.5 z" /><g
       transform="translate(244.312,20.634)"
       id="g224"><path
         id="path226"
         style="fill:none;stroke:#231f20;stroke-width:0.75;stroke-linecap:square;stroke-linejoin:miter;stroke-miterlimit:10;stroke-dasharray:none;stroke-opacity:1"
         d="m 0,0 h 58.125 c 4.244,0 7.688,-3.443 7.688,-7.688 0,-4.244 -3.444,-7.687 -7.688,-7.687 H 0 c -4.242,0 -7.687,3.443 -7.687,7.687 C -7.687,-3.443 -4.242,0 0,0 Z" /></g><text
       id="text230"
       style="font-variant:normal;font-weight:normal;font-stretch:normal;font-size:9px;font-family:Times;-inkscape-font-specification:Times-Roman;writing-mode:lr-tb;fill:#231f20;fill-opacity:1;fill-rule:nonzero;stroke:none"
       transform="matrix(1,0,0,-1,251.1089,10.4443)"><tspan
         id="tspan228"
         y="0"
         x="0 4.5 9 11.25 13.5 18 22.5 24.75 27 29.502001 33.362999 37.862999 40.365002">65, 34, text</tspan></text>
<path
       id="path232"
       style="fill:#ffffff;fill-opacity:1;fill-rule:nonzero;stroke:none"
       d="m 106.546,80.763 h 87 v 15.375 h -87 z" /><g
       transform="translate(114.234,96.138)"
       id="g234"><path
         id="path236"
         style="fill:none;stroke:#231f20;stroke-width:0.75;stroke-linecap:square;stroke-linejoin:miter;stroke-miterlimit:10;stroke-dasharray:none;stroke-opacity:1"
         d="m 0,0 h 71.625 c 4.244,0 7.687,-3.443 7.687,-7.687 0,-4.245 -3.443,-7.688 -7.687,-7.688 H 0 c -4.243,0 -7.687,3.443 -7.687,7.688 C -7.687,-3.443 -4.243,0 0,0 Z" /></g><text
       id="text240"
       style="font-variant:normal;font-weight:normal;font-stretch:normal;font-size:9px;font-family:Times;-inkscape-font-specification:Times-Roman;writing-mode:lr-tb;fill:#231f20;fill-opacity:1;fill-rule:nonzero;stroke:none"
       transform="matrix(1,0,0,-1,121.2783,86.2178)"><tspan
         id="tspan238"
         y="0"
         x="0 4.5 9 11.25 13.5 18 22.5 24.75 27 31.5 35.495998 38.493 41.993999 46.493999 50.993999">53, 88, person</tspan></text>
<path
       id="path242"
       style="fill:#ffffff;fill-opacity:1;fill-rule:nonzero;stroke:none"
       d="m 106.546,57.138 h 73.5 v 15.375 h -73.5 z" /><g
       transform="translate(114.234,72.513)"
       id="g244"><path
         id="path246"
         style="fill:none;stroke:#231f20;stroke-width:0.75;stroke-linecap:square;stroke-linejoin:miter;stroke-miterlimit:10;stroke-dasharray:none;stroke-opacity:1"
         d="m 0,0 h 58.125 c 4.244,0 7.687,-3.443 7.687,-7.687 0,-4.245 -3.443,-7.688 -7.687,-7.688 H 0 c -4.243,0 -7.687,3.443 -7.687,7.688 C -7.687,-3.443 -4.243,0 0,0 Z" /></g><text
       id="text250"
       style="font-variant:normal;font-weight:normal;font-stretch:normal;font-size:9px;font-family:Times;-inkscape-font-specification:Times-Roman;writing-mode:lr-tb;fill:#231f20;fill-opacity:1;fill-rule:nonzero;stroke:none"
       transform="matrix(1,0,0,-1,121.0308,62.3232)"><tspan
         id="tspan248"
         y="0"
         x="0 4.5 9 11.25 13.5 18 22.5 24.75 27 29.502001 33.362999 37.862999 40.365002">65, 34, text</tspan></text>
<path
       id="path252"
       style="fill:#ffffff;fill-opacity:1;fill-rule:nonzero;stroke:none"
       d="m 119.656,460.263 h 85.499 v 15.375 h -85.499 z" /><g
       transform="translate(127.344,475.638)"
       id="g254"><path
         id="path256"
         style="fill:none;stroke:#231f20;stroke-width:0.75;stroke-linecap:square;stroke-linejoin:miter;stroke-miterlimit:10;stroke-dasharray:none;stroke-opacity:1"
         d="m 0,0 h 70.124 c 4.245,0 7.688,-3.444 7.688,-7.687 0,-4.244 -3.443,-7.688 -7.688,-7.688 H 0 c -4.244,0 -7.688,3.444 -7.688,7.688 C -7.688,-3.444 -4.244,0 0,0 Z" /></g><text
       id="text288"
       style="font-variant:normal;font-weight:normal;font-stretch:normal;font-size:9px;font-family:Times;-inkscape-font-specification:Times-Roman;writing-mode:lr-tb;fill:#231f20;fill-opacity:1;fill-rule:nonzero;stroke:none"
       transform="matrix(1,0,0,-1,130.6363,465.583)"><tspan
         id="tspan258"
         y="0"
         x="0 4.5 9 11.25 13.5 18 22.5 27 29.25 32.247002 36.747002 41.247002 43.497002 45.747002 50.247002 54.747002 57.743999">55, 130 (63, 63)</tspan><tspan
         id="tspan260"
         y="32.617802"
         x="-5.355 -2.8529999 1.647 4.1490002 8.1450005 11.142 15.642 19.638 22.139999 26.639999 29.142 33.641998 37.638 41.633999 44.136002 46.638 51.138 55.638">internal_location</tspan><tspan
         id="tspan262"
         y="56.242802"
         x="-5.355 -1.854 0.648 3.645 7.6409998 11.637 14.139 18.639 23.139 27.639 34.640999 39.140999 43.137001 46.133999">street_number</tspan><tspan
         id="tspan264"
         y="79.118103"
         x="-5.355 -1.854 0.648 3.645 7.6409998 11.637 14.139">street</tspan><tspan
         id="tspan266"
         y="103.4928"
         x="-5.355 -0.85500002 3.645 7.1459999 9.6479998 13.644 16.146 20.646 25.146 29.646 34.146">postal_box</tspan><tspan
         id="tspan268"
         y="126.3681"
         x="-5.355 -2.8529999 1.4220001 7.9200001 12.42">town</tspan><tspan
         id="tspan270"
         y="150.7428"
         x="-5.355 -2.358 1.503 6.0029998 8.5050001 13.005 17.504999">region</tspan><tspan
         id="tspan272"
         y="174.3678"
         x="-5.355 -0.85500002 3.645 7.1459999 9.6479998 13.644 16.146 20.646 24.642 29.142 33.641998 37.638">postal_code</tspan><tspan
         id="tspan274"
         y="197.2431"
         x="-5.355 -1.359 3.141 7.6409998 12.141 14.643 17.639999 22.139999">country</tspan><tspan
         id="tspan276"
         y="221.7708"
         x="-5.355 -2.448 1.548 5.5440001 9.0450001 11.547 18.549 21.051001 23.552999 27.549 32.049 36.549 41.049 48.050999 52.550999 56.547001 59.543999">facsimile_number</tspan><tspan
         id="tspan278"
         y="245.2437"
         x="-5.355 -2.8529999 1.143 3.645 7.6409998 12.141 16.641001 21.141001 25.641001 29.636999 34.137001 38.637001 43.137001 50.139 54.639 58.634998 61.632">telephone_number</tspan><tspan
         id="tspan280"
         y="268.86871"
         x="-5.355 -1.359 1.143 5.1389999 9.1350002 11.637 14.634 19.134001 23.634001 26.136 30.132 34.632 41.633999 45.630001 48.132 50.633999 55.133999 59.130001 63.630001 68.129997 71.126999 75.123001 78.624001 82.125">electronic_mail_address</tspan><tspan
         id="tspan282"
         y="292.49371"
         x="-5.355 -2.8529999 1.143 3.645 7.506 12.006 16.506001 21.006001 25.506001 32.507999 37.007999 41.004002 44.000999">telex_number</tspan><tspan
         id="tspan284"
         y="463.62149"
         x="-15.5115 -11.0115 -7.0155001 -3.5144999 0.4815 3.4784999 5.9805002 10.4805 12.9825 15.4845 19.984501 24.484501">description</tspan><tspan
         id="tspan286"
         y="411.74371"
         x="86.910301 91.410301 95.406303 98.907303 102.9033 105.9003 108.4023 112.9023 115.4043 117.9063 122.4063 126.9063">description</tspan></text>
<g
       transform="translate(55.853,48.057)"
       id="g290"><path
         id="path292"
         style="fill:#ffffff;fill-opacity:1;fill-rule:nonzero;stroke:none"
         d="M 0,0 C 0,2.069 -1.68,3.75 -3.75,3.75 -5.82,3.75 -7.5,2.069 -7.5,0 c 0,-2.07 1.68,-3.75 3.75,-3.75 C -1.68,-3.75 0,-2.07 0,0" /></g><g
       transform="translate(55.853,48.057)"
       id="g294"><path
         id="path296"
         style="fill:none;stroke:#231f20;stroke-width:0.75;stroke-linecap:square;stroke-linejoin:miter;stroke-miterlimit:10;stroke-dasharray:none;stroke-opacity:1"
         d="M 0,0 C 0,2.069 -1.68,3.75 -3.75,3.75 -5.82,3.75 -7.5,2.069 -7.5,0 c 0,-2.07 1.68,-3.75 3.75,-3.75 C -1.68,-3.75 0,-2.07 0,0" /></g><g
       transform="translate(309.473,99.896)"
       id="g298"><path
         id="path300"
         style="fill:#ffffff;fill-opacity:1;fill-rule:nonzero;stroke:none"
         d="M 0,0 C 0,2.069 -1.681,3.75 -3.75,3.75 -5.82,3.75 -7.5,2.069 -7.5,0 c 0,-2.069 1.68,-3.75 3.75,-3.75 C -1.681,-3.75 0,-2.069 0,0" /></g><g
       transform="translate(309.473,99.896)"
       id="g302"><path
         id="path304"
         style="fill:none;stroke:#231f20;stroke-width:0.75;stroke-linecap:square;stroke-linejoin:miter;stroke-miterlimit:10;stroke-dasharray:none;stroke-opacity:1"
         d="M 0,0 C 0,2.069 -1.681,3.75 -3.75,3.75 -5.82,3.75 -7.5,2.069 -7.5,0 c 0,-2.069 1.68,-3.75 3.75,-3.75 C -1.681,-3.75 0,-2.069 0,0" /></g><g
       transform="translate(98.693,455.397)"
       id="g306"><path
         id="path308"
         style="fill:#ffffff;fill-opacity:1;fill-rule:nonzero;stroke:none"
         d="M 0,0 C 0,2.07 -1.68,3.75 -3.75,3.75 -5.82,3.75 -7.5,2.07 -7.5,0 c 0,-2.07 1.68,-3.75 3.75,-3.75 C -1.68,-3.75 0,-2.07 0,0" /></g><g
       transform="translate(98.693,455.397)"
       id="g310"><path
         id="path312"
         style="fill:none;stroke:#231f20;stroke-width:0.75;stroke-linecap:square;stroke-linejoin:miter;stroke-miterlimit:10;stroke-dasharray:none;stroke-opacity:1"
         d="M 0,0 C 0,2.07 -1.68,3.75 -3.75,3.75 -5.82,3.75 -7.5,2.07 -7.5,0 c 0,-2.07 1.68,-3.75 3.75,-3.75 C -1.68,-3.75 0,-2.07 0,0" /></g><text
       id="text322"
       style="font-variant:normal;font-weight:normal;font-stretch:normal;font-size:9px;font-family:Times;-inkscape-font-specification:Times-Roman;writing-mode:lr-tb;fill:#231f20;fill-opacity:1;fill-rule:nonzero;stroke:none"
       transform="matrix(1,0,0,-1,125.2813,149.2353)"><tspan
         id="tspan314"
         y="0"
         x="0 2.997 9.4949999 14.994 20.997 23.993999 28.493999 32.490002 39.492001 43.487999">(DER)name</tspan><tspan
         id="tspan316"
         y="23.625"
         x="0 2.997 9.4949999 14.994 20.997 23.993999 28.493999 31.490999 33.993">(DER)url</tspan><tspan
         id="tspan318"
         y="123.939"
         x="-10.1565 -5.6582999 -2.8232999 1.6749001 5.6690998 10.1673 12.6675 16.661699 20.655899 23.156099 25.6563 30.154499 34.652699 38.151901 40.401901 45.404099 48.3993 52.897499 55.397701 59.391899 62.3871">organizations S[1:?]</tspan><tspan
         id="tspan320"
         y="72.061203"
         x="85.764603 90.264603 94.260597 98.760597 103.2606 105.7626 109.7586 112.0086 117.0126 120.0096 124.5096 127.0116 131.0076 134.00459">people S[1:?]</tspan></text>
<path
       id="path324"
       style="fill:#ffffff;fill-opacity:1;fill-rule:nonzero;stroke:none"
       d="m 72.031,129.138 h 45.75 v 322.5 h -45.75 z" /><g
       transform="translate(72.031,451.638)"
       id="g326"><path
         id="path328"
         style="fill:none;stroke:#231f20;stroke-width:0.75;stroke-linecap:square;stroke-linejoin:miter;stroke-miterlimit:10;stroke-dasharray:none;stroke-opacity:1"
         d="M 45.75,0 H 0 v -322.5 h 45.75 z" /><g
         id="g330"><path
           id="path332"
           style="fill:none;stroke:#231f20;stroke-width:0.75;stroke-linecap:square;stroke-linejoin:miter;stroke-miterlimit:10;stroke-dasharray:none;stroke-opacity:1"
           d="M 0,0 Z" /></g></g><text
       id="text336"
       style="font-variant:normal;font-weight:normal;font-stretch:normal;font-size:9px;font-family:Times;-inkscape-font-specification:Times-Roman;writing-mode:lr-tb;fill:#231f20;fill-opacity:1;fill-rule:nonzero;stroke:none"
       transform="matrix(1,0,0,-1,78.8994,287.2246)"><tspan
         id="tspan334"
         y="0"
         x="0 3.9960001 8.4960003 12.996 15.993 19.989 23.49 26.990999">address</tspan></text>
<path
       id="path338"
       style="fill:#ffffff;fill-opacity:1;fill-rule:nonzero;stroke:none"
       d="m 0.375,5.2588 h 103.5 v 39 H 0.375 Z" /><g
       transform="translate(0.375,44.259)"
       id="g340"><path
         id="path342"
         style="fill:none;stroke:#231f20;stroke-width:0.75;stroke-linecap:square;stroke-linejoin:miter;stroke-miterlimit:10;stroke-dasharray:none;stroke-opacity:1"
         d="M 103.5,0 H 0 v -39 h 103.5 z" /><g
         id="g344"><path
           id="path346"
           style="fill:none;stroke:#231f20;stroke-width:0.75;stroke-linecap:square;stroke-linejoin:miter;stroke-miterlimit:10;stroke-dasharray:none;stroke-opacity:1"
           d="M 0,0 Z" /></g></g><text
       id="text350"
       style="font-variant:normal;font-weight:normal;font-stretch:normal;font-size:9px;font-family:Times;-inkscape-font-specification:Times-Roman;writing-mode:lr-tb;fill:#231f20;fill-opacity:1;fill-rule:nonzero;stroke:none"
       transform="matrix(1,0,0,-1,12.604,22.5185)"><tspan
         id="tspan348"
         y="0"
         x="0 4.4981999 7.3332 11.8314 15.8256 20.323799 22.823999 26.818199 30.812401 33.312599 35.812801 40.311001 44.8092 48.803398 51.3036 55.8018 59.796001 64.294197 68.792397 71.787598 75.781799 79.280998 82.780197">organizational_address</tspan></text>
<path
       id="path352"
       style="fill:#ffffff;fill-opacity:1;fill-rule:nonzero;stroke:none"
       d="m 264.046,57.138 h 83.25 v 39 h -83.25 z" /><g
       transform="translate(264.046,96.138)"
       id="g354"><path
         id="path356"
         style="fill:none;stroke:#231f20;stroke-width:0.75;stroke-linecap:square;stroke-linejoin:miter;stroke-miterlimit:10;stroke-dasharray:none;stroke-opacity:1"
         d="M 83.25,0 H 0 v -39 h 83.25 z" /><g
         id="g358"><path
           id="path360"
           style="fill:none;stroke:#231f20;stroke-width:0.75;stroke-linecap:square;stroke-linejoin:miter;stroke-miterlimit:10;stroke-dasharray:none;stroke-opacity:1"
           d="M 0,0 Z" /></g></g><text
       id="text364"
       style="font-variant:normal;font-weight:normal;font-stretch:normal;font-size:9px;font-family:Times;-inkscape-font-specification:Times-Roman;writing-mode:lr-tb;fill:#231f20;fill-opacity:1;fill-rule:nonzero;stroke:none"
       transform="matrix(1,0,0,-1,275.9058,74.3379)"><tspan
         id="tspan362"
         y="0"
         x="0 4.5 8.4960003 11.493 14.994 19.493999 23.993999 27.99 30.492001 34.992001 38.987999 43.487999 47.987999 50.985001 54.980999 58.481998 61.983002">personal_address</tspan></text>
</g></svg>