<?xml version="1.0" encoding="UTF-8" standalone="no"?>
<svg
   xmlns:dc="http://purl.org/dc/elements/1.1/"
   xmlns:cc="http://creativecommons.org/ns#"
   xmlns:rdf="http://www.w3.org/1999/02/22-rdf-syntax-ns#"
   xmlns:svg="http://www.w3.org/2000/svg"
   xmlns="http://www.w3.org/2000/svg"
   viewBox="0 0 453.74933 605.2627"
   height="605.2627"
   width="453.74933"
   xml:space="preserve"
   id="svg2"
   version="1.1"><metadata
     id="metadata8"><rdf:RDF><cc:Work
         rdf:about=""><dc:format>image/svg+xml</dc:format><dc:type
           rdf:resource="http://purl.org/dc/dcmitype/StillImage" /></cc:Work></rdf:RDF></metadata><defs
     id="defs6" /><g
     transform="matrix(1.3333333,0,0,-1.3333333,0,605.26267)"
     id="g10"><g
       transform="translate(155.625,314.448)"
       id="g12"><path
         id="path14"
         style="fill:none;stroke:#231f20;stroke-width:0.75;stroke-linecap:square;stroke-linejoin:miter;stroke-miterlimit:10;stroke-dasharray:none;stroke-opacity:1"
         d="M 0,0 H -55.5" /><g
         transform="translate(5.25,-23.625)"
         id="g16"><path
           id="path18"
           style="fill:none;stroke:#231f20;stroke-width:0.75;stroke-linecap:square;stroke-linejoin:miter;stroke-miterlimit:10;stroke-dasharray:none;stroke-opacity:1"
           d="M 0,0 H -60.75" /><g
           transform="translate(-123.544,-72.75)"
           id="g20"><path
             id="path22"
             style="fill:none;stroke:#231f20;stroke-width:0.75;stroke-linecap:square;stroke-linejoin:miter;stroke-miterlimit:10;stroke-dasharray:none;stroke-opacity:1"
             d="M 0,0 0.354,65.063" /><g
             transform="translate(223.856,227.813)"
             id="g24"><path
               id="path26"
               style="fill:none;stroke:#231f20;stroke-width:0.75;stroke-linecap:square;stroke-linejoin:miter;stroke-miterlimit:10;stroke-dasharray:none;stroke-opacity:1"
               d="M 0,0 H -110.25" /><g
               transform="translate(5.25,-23.625)"
               id="g28"><path
                 id="path30"
                 style="fill:none;stroke:#231f20;stroke-width:0.75;stroke-linecap:square;stroke-linejoin:miter;stroke-miterlimit:10;stroke-dasharray:none;stroke-opacity:1"
                 d="M 0,0 H -115.5" /><g
                 transform="translate(-212.172,-92.625)"
                 id="g32"><path
                   id="path34"
                   style="fill:none;stroke:#231f20;stroke-width:0.75;stroke-linecap:square;stroke-linejoin:miter;stroke-miterlimit:10;stroke-dasharray:none;stroke-opacity:1"
                   d="M 0,0 -0.177,61.313" /><g
                   transform="translate(133.047,69)"
                   id="g36"><path
                     id="path38"
                     style="fill:none;stroke:#231f20;stroke-width:0.75;stroke-linecap:square;stroke-linejoin:miter;stroke-miterlimit:10;stroke-dasharray:none;stroke-opacity:1"
                     d="M 0,0 H -36.375" /><g
                     id="g40"><path
                       id="path42"
                       style="fill:none;stroke:#231f20;stroke-width:0.75;stroke-linecap:square;stroke-linejoin:miter;stroke-miterlimit:10;stroke-dasharray:none;stroke-opacity:1"
                       d="M 0,0 H 36.375" /><g
                       id="g44"><path
                         id="path46"
                         style="fill:none;stroke:#231f20;stroke-width:0.75;stroke-linecap:square;stroke-linejoin:miter;stroke-miterlimit:10;stroke-dasharray:none;stroke-opacity:1"
                         d="M 0,0 V 0" /><g
                         transform="translate(-47.814,-195.75)"
                         id="g48"><path
                           id="path50"
                           style="fill:none;stroke:#231f20;stroke-width:0.75;stroke-linecap:square;stroke-linejoin:miter;stroke-miterlimit:10;stroke-dasharray:none;stroke-opacity:1"
                           d="M 0,0 H 96" /><g
                           transform="translate(0,-23.625)"
                           id="g52"><path
                             id="path54"
                             style="fill:none;stroke:#231f20;stroke-width:0.75;stroke-linecap:square;stroke-linejoin:miter;stroke-miterlimit:10;stroke-dasharray:none;stroke-opacity:1"
                             d="M 0,0 H 66.75" /><g
                             transform="translate(0,-23.625)"
                             id="g56"><path
                               id="path58"
                               style="fill:none;stroke:#231f20;stroke-width:0.75;stroke-linecap:square;stroke-linejoin:miter;stroke-miterlimit:10;stroke-dasharray:none;stroke-opacity:1"
                               d="M 0,0 H 22.5" /><g
                               transform="translate(-56.947,62.438)"
                               id="g60"><path
                                 id="path62"
                                 style="fill:none;stroke:#231f20;stroke-width:0.75;stroke-linecap:square;stroke-linejoin:miter;stroke-miterlimit:10;stroke-dasharray:none;stroke-opacity:1"
                                 d="M 0,0 V 8.625" /><g
                                 transform="translate(3.198,111.562)"
                                 id="g64"><path
                                   id="path66"
                                   style="fill:none;stroke:#231f20;stroke-width:0.75;stroke-linecap:square;stroke-linejoin:miter;stroke-miterlimit:10;stroke-dasharray:none;stroke-opacity:1"
                                   d="M 0,0 -0.198,8.267" /><g
                                   transform="translate(73.999,-245.812)"
                                   id="g68"><path
                                   id="path70"
                                   style="fill:none;stroke:#231f20;stroke-width:0.75;stroke-linecap:square;stroke-linejoin:miter;stroke-miterlimit:10;stroke-dasharray:none;stroke-opacity:1"
                                   d="M 0,0 V 0" /><g
                                   transform="translate(-41.625)"
                                   id="g72"><path
                                   id="path74"
                                   style="fill:none;stroke:#231f20;stroke-width:0.75;stroke-linecap:square;stroke-linejoin:miter;stroke-miterlimit:10;stroke-dasharray:none;stroke-opacity:1"
                                   d="M 0,0 H 41.625 83.25" /></g></g></g></g></g></g></g></g></g></g></g></g></g></g></g></g><path
       id="path76"
       style="fill:none;stroke:#231f20;stroke-width:0.75;stroke-linecap:square;stroke-linejoin:miter;stroke-miterlimit:10;stroke-dasharray:3.75, 3.75;stroke-dashoffset:0;stroke-opacity:1"
       d="m 112.873,60.197 h 88.501" /><g
       transform="translate(201.374,36.572)"
       id="g78"><path
         id="path80"
         style="fill:none;stroke:#231f20;stroke-width:0.75;stroke-linecap:square;stroke-linejoin:miter;stroke-miterlimit:10;stroke-dasharray:none;stroke-opacity:1"
         d="M 0,0 H -75.75" /><g
         transform="translate(0,-23.625)"
         id="g82"><path
           id="path84"
           style="fill:none;stroke:#231f20;stroke-width:0.75;stroke-linecap:square;stroke-linejoin:miter;stroke-miterlimit:10;stroke-dasharray:none;stroke-opacity:1"
           d="M 0,0 H -75.75" /><g
           transform="translate(44.625,86.062)"
           id="g86"><path
             id="path88"
             style="fill:none;stroke:#231f20;stroke-width:0.75;stroke-linecap:square;stroke-linejoin:miter;stroke-miterlimit:10;stroke-dasharray:none;stroke-opacity:1"
             d="M 0,0 V 33 H -106.5" /></g></g></g><path
       id="path90"
       style="fill:#ffffff;fill-opacity:1;fill-rule:nonzero;stroke:none"
       d="m 155.625,306.76 h 78.75 v 15.375 h -78.75 z" /><g
       transform="translate(163.312,322.135)"
       id="g92"><path
         id="path94"
         style="fill:none;stroke:#231f20;stroke-width:0.75;stroke-linecap:square;stroke-linejoin:miter;stroke-miterlimit:10;stroke-dasharray:none;stroke-opacity:1"
         d="m 0,0 h 63.375 c 4.243,0 7.687,-3.444 7.687,-7.687 0,-4.244 -3.444,-7.688 -7.687,-7.688 H 0 c -4.244,0 -7.687,3.444 -7.687,7.688 C -7.687,-3.444 -4.244,0 0,0 Z" /></g><text
       id="text98"
       style="font-variant:normal;font-weight:normal;font-stretch:normal;font-size:9px;font-family:Times;-inkscape-font-specification:Times-Roman;writing-mode:lr-tb;fill:#231f20;fill-opacity:1;fill-rule:nonzero;stroke:none"
       transform="matrix(1,0,0,-1,170.4839,311.8779)"><tspan
         id="tspan96"
         y="0"
         x="0 4.5 9 11.25 13.5 18 22.5 24.75 27 29.502001 33.498001 37.998001 41.993999 44.495998">65, 33, label</tspan></text>
<path
       id="path100"
       style="fill:#ffffff;fill-opacity:1;fill-rule:nonzero;stroke:none"
       d="m 160.875,283.135 h 73.5 v 15.375 h -73.5 z" /><g
       transform="translate(168.562,298.51)"
       id="g102"><path
         id="path104"
         style="fill:none;stroke:#231f20;stroke-width:0.75;stroke-linecap:square;stroke-linejoin:miter;stroke-miterlimit:10;stroke-dasharray:none;stroke-opacity:1"
         d="m 0,0 h 58.125 c 4.243,0 7.687,-3.444 7.687,-7.687 0,-4.244 -3.444,-7.688 -7.687,-7.688 H 0 c -4.244,0 -7.687,3.444 -7.687,7.688 C -7.687,-3.444 -4.244,0 0,0 Z" /></g><text
       id="text108"
       style="font-variant:normal;font-weight:normal;font-stretch:normal;font-size:9px;font-family:Times;-inkscape-font-specification:Times-Roman;writing-mode:lr-tb;fill:#231f20;fill-opacity:1;fill-rule:nonzero;stroke:none"
       transform="matrix(1,0,0,-1,175.3589,288.3208)"><tspan
         id="tspan106"
         y="0"
         x="0 4.5 9 11.25 13.5 18 22.5 24.75 27 29.502001 33.362999 37.862999 40.365002">65, 44, text</tspan></text>
<path
       id="path110"
       style="fill:#ffffff;fill-opacity:1;fill-rule:nonzero;stroke:none"
       d="m 261.187,438.197 h 78.75 v 15.375 h -78.75 z" /><g
       transform="translate(268.874,453.572)"
       id="g112"><path
         id="path114"
         style="fill:none;stroke:#231f20;stroke-width:0.75;stroke-linecap:square;stroke-linejoin:miter;stroke-miterlimit:10;stroke-dasharray:none;stroke-opacity:1"
         d="m 0,0 h 63.375 c 4.243,0 7.688,-3.444 7.688,-7.687 0,-4.244 -3.445,-7.688 -7.688,-7.688 H 0 c -4.243,0 -7.687,3.444 -7.687,7.688 C -7.687,-3.444 -4.243,0 0,0 Z" /></g><text
       id="text118"
       style="font-variant:normal;font-weight:normal;font-stretch:normal;font-size:9px;font-family:Times;-inkscape-font-specification:Times-Roman;writing-mode:lr-tb;fill:#231f20;fill-opacity:1;fill-rule:nonzero;stroke:none"
       transform="matrix(1,0,0,-1,276.0464,443.3154)"><tspan
         id="tspan116"
         y="0"
         x="0 4.5 9 11.25 13.5 18 22.5 24.75 27 29.502001 33.498001 37.998001 41.993999 44.495998">65, 33, label</tspan></text>
<path
       id="path120"
       style="fill:#ffffff;fill-opacity:1;fill-rule:nonzero;stroke:none"
       d="m 266.437,414.572 h 73.5 v 15.375 h -73.5 z" /><g
       transform="translate(274.124,429.947)"
       id="g122"><path
         id="path124"
         style="fill:none;stroke:#231f20;stroke-width:0.75;stroke-linecap:square;stroke-linejoin:miter;stroke-miterlimit:10;stroke-dasharray:none;stroke-opacity:1"
         d="m 0,0 h 58.125 c 4.243,0 7.688,-3.444 7.688,-7.687 0,-4.244 -3.445,-7.688 -7.688,-7.688 H 0 c -4.243,0 -7.687,3.444 -7.687,7.688 C -7.687,-3.444 -4.243,0 0,0 Z" /></g><text
       id="text128"
       style="font-variant:normal;font-weight:normal;font-stretch:normal;font-size:9px;font-family:Times;-inkscape-font-specification:Times-Roman;writing-mode:lr-tb;fill:#231f20;fill-opacity:1;fill-rule:nonzero;stroke:none"
       transform="matrix(1,0,0,-1,280.9214,419.7578)"><tspan
         id="tspan126"
         y="0"
         x="0 4.5 9 11.25 13.5 18 22.5 24.75 27 29.502001 33.362999 37.862999 40.365002">65, 44, text</tspan></text>
<path
       id="path130"
       style="fill:#ffffff;fill-opacity:1;fill-rule:nonzero;stroke:none"
       d="m 223.687,390.947 h 116.25 v 15.375 h -116.25 z" /><g
       transform="translate(231.374,406.322)"
       id="g132"><path
         id="path134"
         style="fill:none;stroke:#231f20;stroke-width:0.75;stroke-linecap:square;stroke-linejoin:miter;stroke-miterlimit:10;stroke-dasharray:none;stroke-opacity:1"
         d="m 0,0 h 100.875 c 4.243,0 7.688,-3.444 7.688,-7.687 0,-4.244 -3.445,-7.688 -7.688,-7.688 H 0 c -4.243,0 -7.687,3.444 -7.687,7.688 C -7.687,-3.444 -4.243,0 0,0 Z" /></g><text
       id="text138"
       style="font-variant:normal;font-weight:normal;font-stretch:normal;font-size:9px;font-family:Times;-inkscape-font-specification:Times-Roman;writing-mode:lr-tb;fill:#231f20;fill-opacity:1;fill-rule:nonzero;stroke:none"
       transform="matrix(1,0,0,-1,238.0366,396.3354)"><tspan
         id="tspan136"
         y="0"
         x="0 4.5 9 11.25 13.5 18 22.5 24.75 27 29.997 33.993 38.493 41.490002 45.486 48.987 52.983002 57.483002 59.985001 63.980999 66.483002 68.985001 73.485001 77.985001">18, 61, representation</tspan></text>
<path
       id="path140"
       style="fill:#ffffff;fill-opacity:1;fill-rule:nonzero;stroke:none"
       d="M 57.75,226.697 H 138 v 15.375 H 57.75 Z" /><g
       transform="translate(65.438,242.073)"
       id="g142"><path
         id="path144"
         style="fill:none;stroke:#231f20;stroke-width:0.75;stroke-linecap:square;stroke-linejoin:miter;stroke-miterlimit:10;stroke-dasharray:none;stroke-opacity:1"
         d="m 0,0 h 64.875 c 4.243,0 7.687,-3.444 7.687,-7.688 0,-4.243 -3.444,-7.687 -7.687,-7.687 H 0 c -4.244,0 -7.687,3.444 -7.687,7.687 C -7.687,-3.444 -4.244,0 0,0 Z" /></g><text
       id="text148"
       style="font-variant:normal;font-weight:normal;font-stretch:normal;font-size:9px;font-family:Times;-inkscape-font-specification:Times-Roman;writing-mode:lr-tb;fill:#231f20;fill-opacity:1;fill-rule:nonzero;stroke:none"
       transform="matrix(1,0,0,-1,81.1167,232.0181)"><tspan
         id="tspan146"
         y="0"
         x="0 4.5 6.75 9 13.5 18 20.25 23.247 27.747 30.743999">8, 71 (7)</tspan></text>
<path
       id="path150"
       style="fill:#ffffff;fill-opacity:1;fill-rule:nonzero;stroke:none"
       d="m 64.688,337.9 h 66.748 v 15.36 H 64.688 Z" /><g
       transform="translate(72.367,353.26)"
       id="g152"><path
         id="path154"
         style="fill:none;stroke:#231f20;stroke-width:0.75;stroke-linecap:square;stroke-linejoin:miter;stroke-miterlimit:10;stroke-dasharray:none;stroke-opacity:1"
         d="m 0,0 h 51.389 v 0 c 4.239,0 7.679,-3.441 7.679,-7.68 0,-4.239 -3.44,-7.68 -7.679,-7.68 H 0 c -4.239,0 -7.68,3.441 -7.68,7.68 C -7.68,-3.441 -4.239,0 0,0 Z" /></g><text
       id="text170"
       style="font-variant:normal;font-weight:normal;font-stretch:normal;font-size:9px;font-family:Times;-inkscape-font-specification:Times-Roman;writing-mode:lr-tb;fill:#231f20;fill-opacity:1;fill-rule:nonzero;stroke:none"
       transform="matrix(1,0,0,-1,76.2993,343.2129)"><tspan
         id="tspan156"
         y="0"
         x="0 4.5 6.75 9 13.5 18 22.5 24.75 27.747 32.247002 36.747002 39.743999">8, 108 (17)</tspan><tspan
         id="tspan158"
         y="36.9963"
         x="31.325399 35.825401 39.8214 46.823399 50.819401">name</tspan><tspan
         id="tspan160"
         y="63.375301"
         x="31.325399 35.825401 39.8214 43.322399 47.318401 50.315399 52.817402 57.317402 59.819401 62.3214 66.821404 71.321404">description</tspan><tspan
         id="tspan162"
         y="-94.441498"
         x="82.137604 86.637604 90.633598 97.635597 101.6316">name</tspan><tspan
         id="tspan164"
         y="-68.0625"
         x="82.137604 86.637604 90.633598 94.134598 98.1306 101.1276 103.6296 108.1296 110.6316 113.1336 117.6336 122.1336">description</tspan><tspan
         id="tspan166"
         y="-36.570599"
         x="-16.998301 -12.4983 -9.5012999 -5.0012999 -0.50129998 3.4947 6.4917002 8.9937 13.4937">property</tspan><tspan
         id="tspan168"
         y="-44.4375"
         x="82.137604 85.134598 89.1306 93.6306 96.627602 100.6236 104.1246 108.1206 112.6206 115.1226 119.1186 121.6206 124.1226 128.6226 133.1226">representation</tspan></text>
<path
       id="path172"
       style="fill:#ffffff;fill-opacity:1;fill-rule:nonzero;stroke:none"
       d="m 24.375,283.135 h 75.75 v 39 h -75.75 z" /><g
       transform="translate(24.375,322.135)"
       id="g174"><path
         id="path176"
         style="fill:none;stroke:#231f20;stroke-width:0.75;stroke-linecap:square;stroke-linejoin:miter;stroke-miterlimit:10;stroke-dasharray:none;stroke-opacity:1"
         d="M 75.75,0 H 0 v -39 h 75.75 z" /><g
         id="g178"><path
           id="path180"
           style="fill:none;stroke:#231f20;stroke-width:0.75;stroke-linecap:square;stroke-linejoin:miter;stroke-miterlimit:10;stroke-dasharray:none;stroke-opacity:1"
           d="M 0,0 Z" /></g></g><text
       id="text184"
       style="font-variant:normal;font-weight:normal;font-stretch:normal;font-size:9px;font-family:Times;-inkscape-font-specification:Times-Roman;writing-mode:lr-tb;fill:#231f20;fill-opacity:1;fill-rule:nonzero;stroke:none"
       transform="matrix(1,0,0,-1,34.2359,300.3667)"><tspan
         id="tspan182"
         y="0"
         x="0 3.9960001 7.9920001 10.494 12.996 17.496 21.996 26.496 30.996 33.993 38.493 42.993 46.988998 49.986 52.487999 56.987999">action_property</tspan></text>
<path
       id="path186"
       style="fill:#ffffff;fill-opacity:1;fill-rule:nonzero;stroke:none"
       d="m 14.438,390.947 h 136.5 v 62.625 h -136.5 z" /><g
       transform="translate(14.438,453.572)"
       id="g188"><path
         id="path190"
         style="fill:none;stroke:#231f20;stroke-width:0.75;stroke-linecap:square;stroke-linejoin:miter;stroke-miterlimit:10;stroke-dasharray:none;stroke-opacity:1"
         d="M 136.5,0 H 0 v -62.625 h 136.5 z" /><g
         id="g192"><path
           id="path194"
           style="fill:none;stroke:#231f20;stroke-width:0.75;stroke-linecap:square;stroke-linejoin:miter;stroke-miterlimit:10;stroke-dasharray:none;stroke-opacity:1"
           d="M 0,0 Z" /></g></g><text
       id="text198"
       style="font-variant:normal;font-weight:normal;font-stretch:normal;font-size:9px;font-family:Times;-inkscape-font-specification:Times-Roman;writing-mode:lr-tb;fill:#231f20;fill-opacity:1;fill-rule:nonzero;stroke:none"
       transform="matrix(1,0,0,-1,24.4077,419.9917)"><tspan
         id="tspan196"
         y="0"
         x="0 3.9960001 7.9920001 10.494 12.996 17.496 21.996 26.496 30.996 33.993 38.493 42.993 46.988998 49.986 52.487999 56.987999 61.487999 64.485001 68.481003 72.981003 75.977997 79.973999 83.474998 87.471001 91.971001 94.473 98.469002 100.971 103.473 107.973 112.473">action_property_representation</tspan></text>
<g
       transform="translate(58.023,325.889)"
       id="g200"><path
         id="path202"
         style="fill:#ffffff;fill-opacity:1;fill-rule:nonzero;stroke:none"
         d="M 0,0 C 0,2.07 -1.68,3.75 -3.75,3.75 -5.82,3.75 -7.5,2.07 -7.5,0 c 0,-2.07 1.68,-3.75 3.75,-3.75 C -1.68,-3.75 0,-2.07 0,0" /></g><g
       transform="translate(58.023,325.889)"
       id="g204"><path
         id="path206"
         style="fill:none;stroke:#231f20;stroke-width:0.75;stroke-linecap:square;stroke-linejoin:miter;stroke-miterlimit:10;stroke-dasharray:none;stroke-opacity:1"
         d="M 0,0 C 0,2.07 -1.68,3.75 -3.75,3.75 -5.82,3.75 -7.5,2.07 -7.5,0 c 0,-2.07 1.68,-3.75 3.75,-3.75 C -1.68,-3.75 0,-2.07 0,0" /></g><path
       id="path208"
       style="fill:#ffffff;fill-opacity:1;fill-rule:nonzero;stroke:none"
       d="m 0.375,124.322 h 139.123 v 86.25 H 0.375 Z" /><path
       id="path210"
       style="fill:none;stroke:#231f20;stroke-width:0.75;stroke-linecap:square;stroke-linejoin:miter;stroke-miterlimit:10;stroke-dasharray:3.75, 3.75;stroke-dashoffset:0;stroke-opacity:1"
       d="m 0.375,210.572 v -86.25 h 139.123 v 86.25 z" /><path
       id="path212"
       style="fill:none;stroke:#231f20;stroke-width:0.75;stroke-linecap:square;stroke-linejoin:miter;stroke-miterlimit:10;stroke-dasharray:3.75, 3.75;stroke-dashoffset:0;stroke-opacity:1"
       d="m 7.875,124.322 v 86.25" /><text
       id="text216"
       style="font-variant:normal;font-weight:normal;font-stretch:normal;font-size:9px;font-family:Times;-inkscape-font-specification:Times-Roman;writing-mode:lr-tb;fill:#231f20;fill-opacity:1;fill-rule:nonzero;stroke:none"
       transform="matrix(1,0,0,-1,14.6587,164.7344)"><tspan
         id="tspan214"
         y="0"
         x="0 3.9960001 8.4960003 12.492 15.489 19.485001 23.481001 25.983 29.979 32.976002 35.478001 39.473999 43.470001 47.970001 52.470001 56.466 60.462002 62.964001 65.466003 69.966003 74.466003 78.966003 83.466003 87.461998 90.278999 92.780998 97.280998 99.782997 102.285 104.787 109.287 113.787">characterized_action_definition</tspan></text>
<g
       transform="translate(41.104,214.379)"
       id="g218"><path
         id="path220"
         style="fill:#ffffff;fill-opacity:1;fill-rule:nonzero;stroke:none"
         d="M 0,0 C 0,2.07 -1.68,3.75 -3.75,3.75 -5.82,3.75 -7.5,2.07 -7.5,0 c 0,-2.07 1.68,-3.75 3.75,-3.75 C -1.68,-3.75 0,-2.07 0,0" /></g><g
       transform="translate(41.104,214.379)"
       id="g222"><path
         id="path224"
         style="fill:none;stroke:#231f20;stroke-width:0.75;stroke-linecap:square;stroke-linejoin:miter;stroke-miterlimit:10;stroke-dasharray:none;stroke-opacity:1"
         d="M 0,0 C 0,2.07 -1.68,3.75 -3.75,3.75 -5.82,3.75 -7.5,2.07 -7.5,0 c 0,-2.07 1.68,-3.75 3.75,-3.75 C -1.68,-3.75 0,-2.07 0,0" /></g><text
       id="text228"
       style="font-variant:normal;font-weight:normal;font-stretch:normal;font-size:9px;font-family:Times;-inkscape-font-specification:Times-Roman;writing-mode:lr-tb;fill:#231f20;fill-opacity:1;fill-rule:nonzero;stroke:none"
       transform="matrix(1,0,0,-1,42.0513,268.1299)"><tspan
         id="tspan226"
         y="0"
         x="0 4.5 8.4960003 11.313 13.815 18.315001 20.816999 23.319 25.820999 30.320999 34.820999">definition</tspan></text>
<path
       id="path230"
       style="fill:#ffffff;fill-opacity:1;fill-rule:nonzero;stroke:none"
       d="m 235.499,195.197 h 74.25 v 15.375 h -74.25 z" /><g
       transform="translate(243.186,210.572)"
       id="g232"><path
         id="path234"
         style="fill:none;stroke:#231f20;stroke-width:0.75;stroke-linecap:square;stroke-linejoin:miter;stroke-miterlimit:10;stroke-dasharray:none;stroke-opacity:1"
         d="m 0,0 h 58.875 c 4.243,0 7.688,-3.443 7.688,-7.687 0,-4.244 -3.445,-7.688 -7.688,-7.688 H 0 c -4.244,0 -7.687,3.444 -7.687,7.688 C -7.687,-3.443 -4.244,0 0,0 Z" /></g><text
       id="text238"
       style="font-variant:normal;font-weight:normal;font-stretch:normal;font-size:9px;font-family:Times;-inkscape-font-specification:Times-Roman;writing-mode:lr-tb;fill:#231f20;fill-opacity:1;fill-rule:nonzero;stroke:none"
       transform="matrix(1,0,0,-1,248.1079,200.3154)"><tspan
         id="tspan236"
         y="0"
         x="0 4.5 6.75 9 13.5 18 20.25 22.5 26.496 30.492001 32.993999 35.495998 39.995998 44.495998">5, 46, action</tspan></text>
<path
       id="path240"
       style="fill:#ffffff;fill-opacity:1;fill-rule:nonzero;stroke:none"
       d="m 206.249,171.572 h 103.5 v 15.375 h -103.5 z" /><g
       transform="translate(213.936,186.947)"
       id="g242"><path
         id="path244"
         style="fill:none;stroke:#231f20;stroke-width:0.75;stroke-linecap:square;stroke-linejoin:miter;stroke-miterlimit:10;stroke-dasharray:none;stroke-opacity:1"
         d="m 0,0 h 88.125 c 4.243,0 7.688,-3.443 7.688,-7.687 0,-4.244 -3.445,-7.688 -7.688,-7.688 H 0 c -4.244,0 -7.687,3.444 -7.687,7.688 C -7.687,-3.443 -4.244,0 0,0 Z" /></g><text
       id="text248"
       style="font-variant:normal;font-weight:normal;font-stretch:normal;font-size:9px;font-family:Times;-inkscape-font-specification:Times-Roman;writing-mode:lr-tb;fill:#231f20;fill-opacity:1;fill-rule:nonzero;stroke:none"
       transform="matrix(1,0,0,-1,215.9732,176.6904)"><tspan
         id="tspan246"
         y="0"
         x="0 4.5 6.75 9 13.5 18 20.25 22.5 26.496 30.492001 32.993999 35.495998 39.995998 44.495998 48.995998 55.998001 59.993999 62.495998 66.996002 71.496002 75.996002">1, 45, action_method</tspan></text>
<path
       id="path250"
       style="fill:#ffffff;fill-opacity:1;fill-rule:nonzero;stroke:none"
       d="m 161.998,147.947 h 147.751 v 15.375 H 161.998 Z" /><g
       transform="translate(169.686,163.322)"
       id="g252"><path
         id="path254"
         style="fill:none;stroke:#231f20;stroke-width:0.75;stroke-linecap:square;stroke-linejoin:miter;stroke-miterlimit:10;stroke-dasharray:none;stroke-opacity:1"
         d="m 0,0 h 132.376 c 4.243,0 7.687,-3.443 7.687,-7.687 0,-4.244 -3.444,-7.688 -7.687,-7.688 H 0 c -4.243,0 -7.687,3.444 -7.687,7.688 C -7.687,-3.443 -4.243,0 0,0 Z" /></g><text
       id="text258"
       style="font-variant:normal;font-weight:normal;font-stretch:normal;font-size:9px;font-family:Times;-inkscape-font-specification:Times-Roman;writing-mode:lr-tb;fill:#231f20;fill-opacity:1;fill-rule:nonzero;stroke:none"
       transform="matrix(1,0,0,-1,168.3374,153.335)"><tspan
         id="tspan256"
         y="0"
         x="0 4.5 6.75 9 13.5 18 20.25 22.5 26.496 30.492001 32.993999 35.495998 39.995998 44.495998 48.995998 55.998001 59.993999 62.495998 66.996002 71.496002 75.996002 80.496002 83.492996 87.488998 89.990997 93.987 96.488998 98.990997 103.491 107.991 111.492 115.992 118.494 122.994">3, 47, action_method_relationship</tspan></text>
<g
       transform="translate(86.283,214.379)"
       id="g260"><path
         id="path262"
         style="fill:#ffffff;fill-opacity:1;fill-rule:nonzero;stroke:none"
         d="M 0,0 C 0,2.07 -1.68,3.75 -3.75,3.75 -5.82,3.75 -7.5,2.07 -7.5,0 c 0,-2.07 1.68,-3.75 3.75,-3.75 C -1.68,-3.75 0,-2.07 0,0" /></g><g
       transform="translate(86.283,214.379)"
       id="g264"><path
         id="path266"
         style="fill:none;stroke:#231f20;stroke-width:0.75;stroke-linecap:square;stroke-linejoin:miter;stroke-miterlimit:10;stroke-dasharray:none;stroke-opacity:1"
         d="M 0,0 C 0,2.07 -1.68,3.75 -3.75,3.75 -5.82,3.75 -7.5,2.07 -7.5,0 c 0,-2.07 1.68,-3.75 3.75,-3.75 C -1.68,-3.75 0,-2.07 0,0" /></g><g
       transform="translate(89.614,325.889)"
       id="g268"><path
         id="path270"
         style="fill:#ffffff;fill-opacity:1;fill-rule:nonzero;stroke:none"
         d="M 0,0 C 0,2.07 -1.681,3.75 -3.75,3.75 -5.82,3.75 -7.5,2.07 -7.5,0 c 0,-2.07 1.68,-3.75 3.75,-3.75 C -1.681,-3.75 0,-2.07 0,0" /></g><g
       transform="translate(89.614,325.889)"
       id="g272"><path
         id="path274"
         style="fill:none;stroke:#231f20;stroke-width:0.75;stroke-linecap:square;stroke-linejoin:miter;stroke-miterlimit:10;stroke-dasharray:none;stroke-opacity:1"
         d="M 0,0 C 0,2.07 -1.681,3.75 -3.75,3.75 -5.82,3.75 -7.5,2.07 -7.5,0 c 0,-2.07 1.68,-3.75 3.75,-3.75 C -1.681,-3.75 0,-2.07 0,0" /></g><path
       id="path276"
       style="fill:#ffffff;fill-opacity:1;fill-rule:nonzero;stroke:none"
       d="m 201.374,5.2598 h 89.25 v 86.25 h -89.25 z" /><g
       transform="translate(201.374,91.51)"
       id="g278"><path
         id="path280"
         style="fill:none;stroke:#231f20;stroke-width:0.75;stroke-linecap:square;stroke-linejoin:miter;stroke-miterlimit:10;stroke-dasharray:none;stroke-opacity:1"
         d="M 89.25,0 H 0 v -86.25 h 89.25 z" /><g
         id="g282"><path
           id="path284"
           style="fill:none;stroke:#231f20;stroke-width:0.75;stroke-linecap:square;stroke-linejoin:miter;stroke-miterlimit:10;stroke-dasharray:none;stroke-opacity:1"
           d="M 0,0 Z" /></g></g><text
       id="text288"
       style="font-variant:normal;font-weight:normal;font-stretch:normal;font-size:9px;font-family:Times;-inkscape-font-specification:Times-Roman;writing-mode:lr-tb;fill:#231f20;fill-opacity:1;fill-rule:nonzero;stroke:none"
       transform="matrix(1,0,0,-1,211.482,46.085)"><tspan
         id="tspan286"
         y="0"
         x="0 3.9960001 7.9920001 10.494 12.996 17.496 21.996 26.496 29.493 33.488998 35.991001 39.987 42.488998 44.991001 49.491001 53.991001 57.492001 61.992001 64.494003 68.994003">action_relationship</tspan></text>
<path
       id="path290"
       style="fill:#ffffff;fill-opacity:1;fill-rule:nonzero;stroke:none"
       d="m 39.373,76.135 h 78.75 V 91.51 h -78.75 z" /><g
       transform="translate(47.061,91.51)"
       id="g292"><path
         id="path294"
         style="fill:none;stroke:#231f20;stroke-width:0.75;stroke-linecap:square;stroke-linejoin:miter;stroke-miterlimit:10;stroke-dasharray:none;stroke-opacity:1"
         d="m 0,0 h 63.375 c 4.244,0 7.688,-3.443 7.688,-7.687 0,-4.244 -3.444,-7.688 -7.688,-7.688 H 0 c -4.243,0 -7.687,3.444 -7.687,7.688 C -7.687,-3.443 -4.243,0 0,0 Z" /></g><text
       id="text298"
       style="font-variant:normal;font-weight:normal;font-stretch:normal;font-size:9px;font-family:Times;-inkscape-font-specification:Times-Roman;writing-mode:lr-tb;fill:#231f20;fill-opacity:1;fill-rule:nonzero;stroke:none"
       transform="matrix(1,0,0,-1,54.2324,81.2529)"><tspan
         id="tspan296"
         y="0"
         x="0 4.5 9 11.25 13.5 18 22.5 24.75 27 29.502001 33.498001 37.998001 41.993999 44.495998">65, 33, label</tspan></text>
<path
       id="path300"
       style="fill:#ffffff;fill-opacity:1;fill-rule:nonzero;stroke:none"
       d="m 39.373,52.51 h 73.5 v 15.375 h -73.5 z" /><g
       transform="translate(47.061,67.885)"
       id="g302"><path
         id="path304"
         style="fill:none;stroke:#231f20;stroke-width:0.75;stroke-linecap:square;stroke-linejoin:miter;stroke-miterlimit:10;stroke-dasharray:none;stroke-opacity:1"
         d="m 0,0 h 58.125 c 4.244,0 7.688,-3.443 7.688,-7.687 0,-4.244 -3.444,-7.688 -7.688,-7.688 H 0 c -4.243,0 -7.687,3.444 -7.687,7.688 C -7.687,-3.443 -4.243,0 0,0 Z" /></g><text
       id="text308"
       style="font-variant:normal;font-weight:normal;font-stretch:normal;font-size:9px;font-family:Times;-inkscape-font-specification:Times-Roman;writing-mode:lr-tb;fill:#231f20;fill-opacity:1;fill-rule:nonzero;stroke:none"
       transform="matrix(1,0,0,-1,53.857,57.6953)"><tspan
         id="tspan306"
         y="0"
         x="0 4.5 9 11.25 13.5 18 22.5 24.75 27 29.502001 33.362999 37.862999 40.365002">65, 34, text</tspan></text>
<path
       id="path310"
       style="fill:#ffffff;fill-opacity:1;fill-rule:nonzero;stroke:none"
       d="m 39.373,28.885 h 86.25 V 44.26 h -86.25 z" /><g
       transform="translate(47.061,44.26)"
       id="g312"><path
         id="path314"
         style="fill:none;stroke:#231f20;stroke-width:0.75;stroke-linecap:square;stroke-linejoin:miter;stroke-miterlimit:10;stroke-dasharray:none;stroke-opacity:1"
         d="m 0,0 h 70.875 c 4.244,0 7.688,-3.443 7.688,-7.687 0,-4.244 -3.444,-7.688 -7.688,-7.688 H 0 c -4.243,0 -7.687,3.444 -7.687,7.688 C -7.687,-3.443 -4.243,0 0,0 Z" /></g><text
       id="text318"
       style="font-variant:normal;font-weight:normal;font-stretch:normal;font-size:9px;font-family:Times;-inkscape-font-specification:Times-Roman;writing-mode:lr-tb;fill:#231f20;fill-opacity:1;fill-rule:nonzero;stroke:none"
       transform="matrix(1,0,0,-1,57.9824,34.0029)"><tspan
         id="tspan316"
         y="0"
         x="0 4.5 6.75 9 13.5 18 20.25 22.5 26.496 30.492001 32.993999 35.495998 39.995998 44.495998">5, 46, action</tspan></text>
<path
       id="path320"
       style="fill:#ffffff;fill-opacity:1;fill-rule:nonzero;stroke:none"
       d="m 39.373,5.2598 h 86.25 v 15.375 h -86.25 z" /><g
       transform="translate(47.061,20.635)"
       id="g322"><path
         id="path324"
         style="fill:none;stroke:#231f20;stroke-width:0.75;stroke-linecap:square;stroke-linejoin:miter;stroke-miterlimit:10;stroke-dasharray:none;stroke-opacity:1"
         d="m 0,0 h 70.875 c 4.244,0 7.688,-3.443 7.688,-7.687 0,-4.244 -3.444,-7.688 -7.688,-7.688 H 0 c -4.243,0 -7.687,3.444 -7.687,7.688 C -7.687,-3.443 -4.243,0 0,0 Z" /></g><text
       id="text336"
       style="font-variant:normal;font-weight:normal;font-stretch:normal;font-size:9px;font-family:Times;-inkscape-font-specification:Times-Roman;writing-mode:lr-tb;fill:#231f20;fill-opacity:1;fill-rule:nonzero;stroke:none"
       transform="matrix(1,0,0,-1,57.9824,10.3779)"><tspan
         id="tspan326"
         y="0"
         x="0 4.5 6.75 9 13.5 18 20.25 22.5 26.496 30.492001 32.993999 35.495998 39.995998 44.495998">5, 46, action</tspan><tspan
         id="tspan328"
         y="-65.213097"
         x="112.6404 117.1404 121.1364 128.1384 132.1344">name</tspan><tspan
         id="tspan330"
         y="-38.834099"
         x="93.390297 97.890297 101.8863 105.3873 109.3833 112.3803 114.8823 119.3823 121.8843 124.3863 128.88631 133.38631">description</tspan><tspan
         id="tspan332"
         y="-15.2091"
         x="79.140602 82.137604 86.133598 88.635597 92.631599 95.133598 97.635597 102.1356 106.6356 111.1356 115.1316 119.1276 121.6296 124.1316 128.63161 133.13161">relating_action</tspan><tspan
         id="tspan334"
         y="8.4159002"
         x="84.140999 87.138 91.134003 93.636002 97.632004 100.134 104.13 108.63 113.13 117.126 121.122 123.624 126.126 130.62601 135.12601">related_action</tspan></text>
<g
       transform="translate(249.723,95.219)"
       id="g338"><path
         id="path340"
         style="fill:#ffffff;fill-opacity:1;fill-rule:nonzero;stroke:none"
         d="M 0,0 C 0,2.07 -1.68,3.75 -3.75,3.75 -5.82,3.75 -7.5,2.07 -7.5,0 c 0,-2.07 1.68,-3.75 3.75,-3.75 C -1.68,-3.75 0,-2.07 0,0" /></g><g
       transform="translate(249.723,95.219)"
       id="g342"><path
         id="path344"
         style="fill:none;stroke:#231f20;stroke-width:0.75;stroke-linecap:square;stroke-linejoin:miter;stroke-miterlimit:10;stroke-dasharray:none;stroke-opacity:1"
         d="M 0,0 C 0,2.07 -1.68,3.75 -3.75,3.75 -5.82,3.75 -7.5,2.07 -7.5,0 c 0,-2.07 1.68,-3.75 3.75,-3.75 C -1.68,-3.75 0,-2.07 0,0" /></g></g></svg>