<?xml version="1.0" encoding="UTF-8" standalone="no"?>
<svg
   xmlns:dc="http://purl.org/dc/elements/1.1/"
   xmlns:cc="http://creativecommons.org/ns#"
   xmlns:rdf="http://www.w3.org/1999/02/22-rdf-syntax-ns#"
   xmlns:svg="http://www.w3.org/2000/svg"
   xmlns="http://www.w3.org/2000/svg"
   viewBox="0 0 428.06268 411.21066"
   height="411.21066"
   width="428.06268"
   xml:space="preserve"
   id="svg2"
   version="1.1"><metadata
     id="metadata8"><rdf:RDF><cc:Work
         rdf:about=""><dc:format>image/svg+xml</dc:format><dc:type
           rdf:resource="http://purl.org/dc/dcmitype/StillImage" /></cc:Work></rdf:RDF></metadata><defs
     id="defs6" /><g
     transform="matrix(1.3333333,0,0,-1.3333333,0,411.21067)"
     id="g10"><g
       transform="translate(9.7768,114.018)"
       id="g12"><path
         id="path14"
         style="fill:none;stroke:#231f20;stroke-width:2.25;stroke-linecap:square;stroke-linejoin:miter;stroke-miterlimit:10;stroke-dasharray:none;stroke-opacity:1"
         d="M 0,0 V -62.478" /><g
         transform="translate(0,-79.407)"
         id="g16"><path
           id="path18"
           style="fill:none;stroke:#231f20;stroke-width:2.25;stroke-linecap:square;stroke-linejoin:miter;stroke-miterlimit:10;stroke-dasharray:none;stroke-opacity:1"
           d="M 0,0 V 16.93" /><g
           transform="translate(0,-24.438)"
           id="g20"><path
             id="path22"
             style="fill:none;stroke:#231f20;stroke-width:2.25;stroke-linecap:square;stroke-linejoin:miter;stroke-miterlimit:10;stroke-dasharray:none;stroke-opacity:1"
             d="M 0,0 V 41.368" /><g
             id="g24"><path
               id="path26"
               style="fill:none;stroke:#231f20;stroke-width:2.25;stroke-linecap:square;stroke-linejoin:miter;stroke-miterlimit:10;stroke-dasharray:none;stroke-opacity:1"
               d="M 0,0 H 13.655" /></g></g></g></g><g
       transform="translate(36.025,300.174)"
       id="g28"><path
         id="path30"
         style="fill:none;stroke:#231f20;stroke-width:0.75;stroke-linecap:square;stroke-linejoin:miter;stroke-miterlimit:10;stroke-dasharray:none;stroke-opacity:1"
         d="M 0,0 V -13.141" /><g
         transform="translate(91.1,-28.329)"
         id="g32"><path
           id="path34"
           style="fill:none;stroke:#231f20;stroke-width:0.75;stroke-linecap:square;stroke-linejoin:miter;stroke-miterlimit:10;stroke-dasharray:none;stroke-opacity:1"
           d="M 0,0 -55.449,-0.09" /><g
           transform="translate(15.75,-23.625)"
           id="g36"><path
             id="path38"
             style="fill:none;stroke:#231f20;stroke-width:0.75;stroke-linecap:square;stroke-linejoin:miter;stroke-miterlimit:10;stroke-dasharray:none;stroke-opacity:1"
             d="M 0,0 -71.199,-0.367" /></g></g></g><path
       id="path40"
       style="fill:none;stroke:#231f20;stroke-width:0.75;stroke-linecap:square;stroke-linejoin:miter;stroke-miterlimit:10;stroke-dasharray:3.75, 3.75;stroke-dashoffset:0;stroke-opacity:1"
       d="m 148.125,223.845 -76.449,0.106" /><g
       transform="translate(235.169,168.355)"
       id="g42"><path
         id="path44"
         style="fill:none;stroke:#231f20;stroke-width:0.75;stroke-linecap:square;stroke-linejoin:miter;stroke-miterlimit:10;stroke-dasharray:none;stroke-opacity:1"
         d="M 0,0 H -88.499" /><g
         transform="translate(-181.074,-3.359)"
         id="g46"><path
           id="path48"
           style="fill:none;stroke:#231f20;stroke-width:0.75;stroke-linecap:square;stroke-linejoin:miter;stroke-miterlimit:10;stroke-dasharray:none;stroke-opacity:1"
           d="M 0,0 -0.42,51.179" /><g
           transform="translate(187.827,-68.673)"
           id="g50"><path
             id="path52"
             style="fill:none;stroke:#231f20;stroke-width:0.75;stroke-linecap:square;stroke-linejoin:miter;stroke-miterlimit:10;stroke-dasharray:none;stroke-opacity:1"
             d="M 0,0 H -42.75" /><g
             transform="translate(-221.603,-14.99)"
             id="g54"><path
               id="path56"
               style="fill:none;stroke:#231f20;stroke-width:0.75;stroke-linecap:square;stroke-linejoin:miter;stroke-miterlimit:10;stroke-dasharray:none;stroke-opacity:1"
               d="M 0,0 H 43.853" /><g
               transform="translate(16.527,15.095)"
               id="g58"><path
                 id="path60"
                 style="fill:none;stroke:#231f20;stroke-width:0.75;stroke-linecap:square;stroke-linejoin:miter;stroke-miterlimit:10;stroke-dasharray:none;stroke-opacity:1"
                 d="M 0,0 -0.42,119.747" /></g></g></g></g></g><g
       transform="translate(9.8457,114.018)"
       id="g62"><path
         id="path64"
         style="fill:none;stroke:#231f20;stroke-width:2.25;stroke-linecap:square;stroke-linejoin:miter;stroke-miterlimit:10;stroke-dasharray:none;stroke-opacity:1"
         d="M 0,0 -0.42,102.156" /></g><g
       transform="translate(140.432,12.946)"
       id="g66"><path
         id="path68"
         style="fill:none;stroke:#231f20;stroke-width:0.75;stroke-linecap:square;stroke-linejoin:miter;stroke-miterlimit:10;stroke-dasharray:none;stroke-opacity:1"
         d="M 0,0 H -19.5" /></g><g
       transform="translate(9.7768,34.61)"
       id="g70"><path
         id="path72"
         style="fill:none;stroke:#231f20;stroke-width:2.25;stroke-linecap:square;stroke-linejoin:miter;stroke-miterlimit:10;stroke-dasharray:none;stroke-opacity:1"
         d="M 0,0 H 20.114" /></g><g
       transform="translate(140.432,12.946)"
       id="g74"><path
         id="path76"
         style="fill:none;stroke:#231f20;stroke-width:0.75;stroke-linecap:square;stroke-linejoin:miter;stroke-miterlimit:10;stroke-dasharray:none;stroke-opacity:1"
         d="M 0,0 H 19.5" /><g
         transform="translate(-80.057,287.228)"
         id="g78"><path
           id="path80"
           style="fill:none;stroke:#231f20;stroke-width:0.75;stroke-linecap:square;stroke-linejoin:miter;stroke-miterlimit:10;stroke-dasharray:none;stroke-opacity:1"
           d="M 0,0 H -24.35" /><g
           transform="translate(-6.28,-135.179)"
           id="g82"><path
             id="path84"
             style="fill:none;stroke:#231f20;stroke-width:0.75;stroke-linecap:square;stroke-linejoin:miter;stroke-miterlimit:10;stroke-dasharray:none;stroke-opacity:1"
             d="M 0,0 H 10.824" /><g
             transform="translate(-33.776,-83.663)"
             id="g86"><path
               id="path88"
               style="fill:none;stroke:#231f20;stroke-width:0.75;stroke-linecap:square;stroke-linejoin:miter;stroke-miterlimit:10;stroke-dasharray:none;stroke-opacity:1"
               d="M 0,0 -0.407,127.342" /><g
               transform="translate(16.527,15.095)"
               id="g90"><path
                 id="path92"
                 style="fill:none;stroke:#231f20;stroke-width:0.75;stroke-linecap:square;stroke-linejoin:miter;stroke-miterlimit:10;stroke-dasharray:none;stroke-opacity:1"
                 d="M 0,0 H 19.826" /><g
                 transform="translate(103.586,-83.481)"
                 id="g94"><path
                   id="path96"
                   style="fill:none;stroke:#231f20;stroke-width:0.75;stroke-linecap:square;stroke-linejoin:miter;stroke-miterlimit:10;stroke-dasharray:none;stroke-opacity:1"
                   d="M 0,0 V 0" /></g></g></g></g></g></g><g
       transform="translate(9.7768,114.018)"
       id="g98"><path
         id="path100"
         style="fill:none;stroke:#231f20;stroke-width:2.25;stroke-linecap:square;stroke-linejoin:miter;stroke-miterlimit:10;stroke-dasharray:none;stroke-opacity:1"
         d="M 0,0 H 0.0689" /></g><path
       id="path102"
       style="fill:#ffffff;fill-opacity:1;fill-rule:nonzero;stroke:none"
       d="m 29.891,27.509 h 109.5 v 15.375 h -109.5 z" /><g
       transform="translate(37.578,42.884)"
       id="g104"><path
         id="path106"
         style="fill:none;stroke:#231f20;stroke-width:0.75;stroke-linecap:square;stroke-linejoin:miter;stroke-miterlimit:10;stroke-dasharray:none;stroke-opacity:1"
         d="m 0,0 h 94.125 c 4.243,0 7.688,-3.443 7.688,-7.687 0,-4.243 -3.445,-7.688 -7.688,-7.688 H 0 c -4.244,0 -7.688,3.445 -7.688,7.688 C -7.688,-3.443 -4.244,0 0,0 Z" /></g><text
       id="text110"
       style="font-variant:normal;font-weight:normal;font-stretch:normal;font-size:9px;font-family:Times;-inkscape-font-specification:Times-Roman;writing-mode:lr-tb;fill:#231f20;fill-opacity:1;fill-rule:nonzero;stroke:none"
       transform="matrix(1,0,0,-1,41.6162,32.583)"><tspan
         id="tspan108"
         y="0"
         x="0 4.5 9 11.25 13.5 18 22.5 24.75 27 31.5 36 39.995998 44.495998 51.498001 55.493999 59.993999 62.495998 66.996002 69.813004 72.315002 74.817001 78.813004">41, 10, document_file</tspan></text>
<path
       id="path112"
       style="fill:#ffffff;fill-opacity:1;fill-rule:nonzero;stroke:none"
       d="m 127.125,264.158 h 96 v 15.375 h -96 z" /><g
       transform="translate(134.812,279.533)"
       id="g114"><path
         id="path116"
         style="fill:none;stroke:#231f20;stroke-width:0.75;stroke-linecap:square;stroke-linejoin:miter;stroke-miterlimit:10;stroke-dasharray:none;stroke-opacity:1"
         d="m 0,0 h 80.625 c 4.244,0 7.688,-3.444 7.688,-7.687 0,-4.244 -3.444,-7.688 -7.688,-7.688 H 0 c -4.243,0 -7.687,3.444 -7.687,7.688 C -7.687,-3.444 -4.243,0 0,0 Z" /></g><text
       id="text120"
       style="font-variant:normal;font-weight:normal;font-stretch:normal;font-size:9px;font-family:Times;-inkscape-font-specification:Times-Roman;writing-mode:lr-tb;fill:#231f20;fill-opacity:1;fill-rule:nonzero;stroke:none"
       transform="matrix(1,0,0,-1,143.1079,269.2305)"><tspan
         id="tspan118"
         y="0"
         x="0 4.5 9 11.25 13.5 18 22.5 24.75 27 29.502001 34.001999 37.998001 42.498001 45 47.501999 50.319 52.820999 56.817001 59.813999">65, 32, identifier</tspan></text>
<path
       id="path122"
       style="fill:#ffffff;fill-opacity:1;fill-rule:nonzero;stroke:none"
       d="m 142.875,240.533 h 78.75 v 15.375 h -78.75 z" /><g
       transform="translate(150.562,255.908)"
       id="g124"><path
         id="path126"
         style="fill:none;stroke:#231f20;stroke-width:0.75;stroke-linecap:square;stroke-linejoin:miter;stroke-miterlimit:10;stroke-dasharray:none;stroke-opacity:1"
         d="m 0,0 h 63.375 c 4.244,0 7.688,-3.444 7.688,-7.687 0,-4.244 -3.444,-7.688 -7.688,-7.688 H 0 c -4.243,0 -7.687,3.444 -7.687,7.688 C -7.687,-3.444 -4.243,0 0,0 Z" /></g><text
       id="text130"
       style="font-variant:normal;font-weight:normal;font-stretch:normal;font-size:9px;font-family:Times;-inkscape-font-specification:Times-Roman;writing-mode:lr-tb;fill:#231f20;fill-opacity:1;fill-rule:nonzero;stroke:none"
       transform="matrix(1,0,0,-1,157.7343,245.6509)"><tspan
         id="tspan128"
         y="0"
         x="0 4.5 9 11.25 13.5 18 22.5 24.75 27 29.502001 33.498001 37.998001 41.993999 44.495998">65, 33, label</tspan></text>
<path
       id="path132"
       style="fill:#ffffff;fill-opacity:1;fill-rule:nonzero;stroke:none"
       d="m 148.125,216.158 h 73.5 v 15.375 h -73.5 z" /><g
       transform="translate(155.812,231.533)"
       id="g134"><path
         id="path136"
         style="fill:none;stroke:#231f20;stroke-width:0.75;stroke-linecap:square;stroke-linejoin:miter;stroke-miterlimit:10;stroke-dasharray:none;stroke-opacity:1"
         d="m 0,0 h 58.125 c 4.244,0 7.688,-3.444 7.688,-7.687 0,-4.244 -3.444,-7.688 -7.688,-7.688 H 0 c -4.243,0 -7.687,3.444 -7.687,7.688 C -7.687,-3.444 -4.243,0 0,0 Z" /></g><text
       id="text140"
       style="font-variant:normal;font-weight:normal;font-stretch:normal;font-size:9px;font-family:Times;-inkscape-font-specification:Times-Roman;writing-mode:lr-tb;fill:#231f20;fill-opacity:1;fill-rule:nonzero;stroke:none"
       transform="matrix(1,0,0,-1,162.6084,221.3433)"><tspan
         id="tspan138"
         y="0"
         x="0 4.5 9 11.25 13.5 18 22.5 24.75 27 29.502001 33.362999 37.862999 40.365002">65, 34, text</tspan></text>
<path
       id="path142"
       style="fill:#ffffff;fill-opacity:1;fill-rule:nonzero;stroke:none"
       d="m 235.169,160.667 h 78.75 v 15.374 h -78.75 z" /><g
       transform="translate(242.856,176.041)"
       id="g144"><path
         id="path146"
         style="fill:none;stroke:#231f20;stroke-width:0.75;stroke-linecap:square;stroke-linejoin:miter;stroke-miterlimit:10;stroke-dasharray:none;stroke-opacity:1"
         d="m 0,0 h 63.375 c 4.244,0 7.688,-3.443 7.688,-7.686 0,-4.245 -3.444,-7.688 -7.688,-7.688 H 0 c -4.242,0 -7.687,3.443 -7.687,7.688 C -7.687,-3.443 -4.242,0 0,0 Z" /></g><text
       id="text150"
       style="font-variant:normal;font-weight:normal;font-stretch:normal;font-size:9px;font-family:Times;-inkscape-font-specification:Times-Roman;writing-mode:lr-tb;fill:#231f20;fill-opacity:1;fill-rule:nonzero;stroke:none"
       transform="matrix(1,0,0,-1,250.0283,165.7842)"><tspan
         id="tspan148"
         y="0"
         x="0 4.5 9 11.25 13.5 18 22.5 24.75 27 29.502001 33.498001 37.998001 41.993999 44.495998">65, 33, label</tspan></text>
<path
       id="path152"
       style="fill:#ffffff;fill-opacity:1;fill-rule:nonzero;stroke:none"
       d="m 241.922,88.635 h 78.75 v 15.375 h -78.75 z" /><g
       transform="translate(249.609,104.01)"
       id="g154"><path
         id="path156"
         style="fill:none;stroke:#231f20;stroke-width:0.75;stroke-linecap:square;stroke-linejoin:miter;stroke-miterlimit:10;stroke-dasharray:none;stroke-opacity:1"
         d="m 0,0 h 63.375 c 4.243,0 7.688,-3.443 7.688,-7.687 0,-4.244 -3.445,-7.688 -7.688,-7.688 H 0 c -4.243,0 -7.687,3.444 -7.687,7.688 C -7.687,-3.443 -4.243,0 0,0 Z" /></g><text
       id="text160"
       style="font-variant:normal;font-weight:normal;font-stretch:normal;font-size:9px;font-family:Times;-inkscape-font-specification:Times-Roman;writing-mode:lr-tb;fill:#231f20;fill-opacity:1;fill-rule:nonzero;stroke:none"
       transform="matrix(1,0,0,-1,256.7802,93.7529)"><tspan
         id="tspan158"
         y="0"
         x="0 4.5 9 11.25 13.5 18 22.5 24.75 27 29.502001 33.498001 37.998001 41.993999 44.495998">65, 33, label</tspan></text>
<path
       id="path162"
       style="fill:#ffffff;fill-opacity:1;fill-rule:nonzero;stroke:none"
       d="m 159.932,5.2588 h 97.5 v 15.375 h -97.5 z" /><g
       transform="translate(167.619,20.634)"
       id="g164"><path
         id="path166"
         style="fill:none;stroke:#231f20;stroke-width:0.75;stroke-linecap:square;stroke-linejoin:miter;stroke-miterlimit:10;stroke-dasharray:none;stroke-opacity:1"
         d="m 0,0 h 82.125 c 4.244,0 7.688,-3.443 7.688,-7.687 0,-4.243 -3.444,-7.688 -7.688,-7.688 H 0 c -4.243,0 -7.687,3.445 -7.687,7.688 C -7.687,-3.443 -4.243,0 0,0 Z" /></g><text
       id="text170"
       style="font-variant:normal;font-weight:normal;font-stretch:normal;font-size:9px;font-family:Times;-inkscape-font-specification:Times-Roman;writing-mode:lr-tb;fill:#231f20;fill-opacity:1;fill-rule:nonzero;stroke:none"
       transform="matrix(1,0,0,-1,176.665,10.333)"><tspan
         id="tspan168"
         y="0"
         x="0 4.5 9 11.25 13.5 18 22.5 24.75 27 29.502001 34.001999 37.998001 42.498001 45 47.501999 50.319 52.820999 56.817001 59.813999">65, 32, identifier</tspan></text>
<path
       id="path172"
       style="fill:#ffffff;fill-opacity:1;fill-rule:nonzero;stroke:none"
       d="m 60.375,292.658 h 112.5 v 15.375 h -112.5 z" /><g
       transform="translate(68.063,308.033)"
       id="g174"><path
         id="path176"
         style="fill:none;stroke:#231f20;stroke-width:0.75;stroke-linecap:square;stroke-linejoin:miter;stroke-miterlimit:10;stroke-dasharray:none;stroke-opacity:1"
         d="m 0,0 h 97.125 c 4.244,0 7.687,-3.444 7.687,-7.687 0,-4.244 -3.443,-7.688 -7.687,-7.688 H 0 c -4.243,0 -7.688,3.444 -7.688,7.688 C -7.688,-3.444 -4.243,0 0,0 Z" /></g><text
       id="text182"
       style="font-variant:normal;font-weight:normal;font-stretch:normal;font-size:9px;font-family:Times;-inkscape-font-specification:Times-Roman;writing-mode:lr-tb;fill:#231f20;fill-opacity:1;fill-rule:nonzero;stroke:none"
       transform="matrix(1,0,0,-1,72.3452,297.978)"><tspan
         id="tspan178"
         y="0"
         x="0 4.5 9 11.25 13.5 18 22.5 27 29.25 32.247002 36.747002 41.247002 43.497002 45.747002 50.247002 52.497002 54.747002 59.247002 63.747002 65.997002 68.247002 72.747002 77.247002 80.244003">58, 170 (59, 1, 59, 10)</tspan><tspan
         id="tspan180"
         y="85.012199"
         x="6.8301001 11.3301 15.3261 18.827101 22.823099 25.820101 28.3221 32.822102 35.3241 37.826099 42.326099 46.826099">description</tspan></text>
<g
       transform="translate(30.879,10.19)"
       id="g184"><path
         id="path186"
         style="fill:#ffffff;fill-opacity:1;fill-rule:nonzero;stroke:none"
         d="M 0,0 C 0,2.07 -1.68,3.75 -3.75,3.75 -5.82,3.75 -7.5,2.07 -7.5,0 c 0,-2.0703 1.68,-3.75 3.75,-3.75 C -1.68,-3.75 0,-2.0703 0,0" /></g><g
       transform="translate(30.879,10.19)"
       id="g188"><path
         id="path190"
         style="fill:none;stroke:#231f20;stroke-width:0.75;stroke-linecap:square;stroke-linejoin:miter;stroke-miterlimit:10;stroke-dasharray:none;stroke-opacity:1"
         d="M 0,0 C 0,2.07 -1.68,3.75 -3.75,3.75 -5.82,3.75 -7.5,2.07 -7.5,0 c 0,-2.0703 1.68,-3.75 3.75,-3.75 C -1.68,-3.75 0,-2.0703 0,0" /></g><g
       transform="translate(39.789,283.34)"
       id="g192"><path
         id="path194"
         style="fill:#ffffff;fill-opacity:1;fill-rule:nonzero;stroke:none"
         d="M 0,0 C 0,2.07 -1.68,3.75 -3.75,3.75 -5.82,3.75 -7.5,2.07 -7.5,0 c 0,-2.07 1.68,-3.75 3.75,-3.75 C -1.68,-3.75 0,-2.07 0,0" /></g><g
       transform="translate(39.789,283.34)"
       id="g196"><path
         id="path198"
         style="fill:none;stroke:#231f20;stroke-width:0.75;stroke-linecap:square;stroke-linejoin:miter;stroke-miterlimit:10;stroke-dasharray:none;stroke-opacity:1"
         d="M 0,0 C 0,2.07 -1.68,3.75 -3.75,3.75 -5.82,3.75 -7.5,2.07 -7.5,0 c 0,-2.07 1.68,-3.75 3.75,-3.75 C -1.68,-3.75 0,-2.07 0,0" /></g><text
       id="text218"
       style="font-variant:normal;font-weight:normal;font-stretch:normal;font-size:9px;font-family:Times;-inkscape-font-specification:Times-Roman;writing-mode:lr-tb;fill:#231f20;fill-opacity:1;fill-rule:nonzero;stroke:none"
       transform="matrix(1,0,0,-1,79.1757,260.7705)"><tspan
         id="tspan200"
         y="0"
         x="0 2.5020001 7.0019999">id</tspan><tspan
         id="tspan202"
         y="21.149099"
         x="0 4.5 8.4960003 15.498 19.493999">name</tspan><tspan
         id="tspan204"
         y="103.4019"
         x="74.993401 79.493401 82.490402 86.990402 91.490402 95.990402 99.986397 102.4884 106.9884 111.4884 115.4844 117.9864 121.9824 126.4824 128.98441 133.48441 137.98441 141.98039">product_data_type</tspan><tspan
         id="tspan206"
         y="56.094299"
         x="-21.4137 -16.9137 -14.4117 -9.9117002 -5.4116998">kind</tspan><tspan
         id="tspan208"
         y="172.6785"
         x="127.4958 131.9958 135.99181 142.9938 146.98981">name</tspan><tspan
         id="tspan210"
         y="191.5587"
         x="-53.032501 -50.0355 -46.039501 -41.539501 -38.5425 -34.546501 -31.0455 -27.0495 -22.5495 -20.047501 -16.0515 -11.5515 -7.0514998 -2.5515001 1.9485 5.9445 10.4445 17.446501 21.442499 25.942499 28.4445">represented_document</tspan><tspan
         id="tspan212"
         y="129.5181"
         x="-38.127602 -35.1306 -32.133598 -25.635599 -19.1376 -16.1406 -13.1436 -9.1476002 -4.6476002 -1.6506 2.3454001 5.8463998 9.8423996 14.3424 16.8444 20.840401 23.3424 25.8444 30.3444 34.844398 39.344398">(INV)representation_</tspan><tspan
         id="tspan214"
         y="140.5179"
         x="-38.127602 -35.625599 -31.125601 -26.625601 -22.629601 -19.128599 -16.878599 -11.8746 -8.8775997 -4.3776002 -1.8756 2.1204 5.1174002">types S[0:?]</tspan><tspan
         id="tspan216"
         y="258.8085"
         x="49.255199 53.251202 55.753201 59.749199 63.250198 66.751198">class</tspan></text>
<path
       id="path220"
       style="fill:#ffffff;fill-opacity:1;fill-rule:nonzero;stroke:none"
       d="m 0.375,216.174 h 71.301 v 63.359 H 0.375 Z" /><g
       transform="translate(0.375,279.533)"
       id="g222"><path
         id="path224"
         style="fill:none;stroke:#231f20;stroke-width:0.75;stroke-linecap:square;stroke-linejoin:miter;stroke-miterlimit:10;stroke-dasharray:none;stroke-opacity:1"
         d="M 71.301,0 H 0 v -63.359 h 71.301 z" /><g
         id="g226"><path
           id="path228"
           style="fill:none;stroke:#231f20;stroke-width:0.75;stroke-linecap:square;stroke-linejoin:miter;stroke-miterlimit:10;stroke-dasharray:none;stroke-opacity:1"
           d="M 0,0 Z" /></g></g><text
       id="text232"
       style="font-variant:normal;font-weight:normal;font-stretch:normal;font-size:9px;font-family:Times;-inkscape-font-specification:Times-Roman;writing-mode:lr-tb;fill:#231f20;fill-opacity:1;fill-rule:nonzero;stroke:none"
       transform="matrix(1,0,0,-1,16.2661,244.6899)"><tspan
         id="tspan230"
         y="0"
         x="0 4.5 9 12.996 17.496 24.497999 28.493999 32.993999 35.495998">document</tspan></text>
<path
       id="path234"
       style="fill:#ffffff;fill-opacity:1;fill-rule:nonzero;stroke:none"
       d="m 72.419,151.292 h 74.25 v 24.749 h -74.25 z" /><g
       transform="translate(72.419,176.041)"
       id="g236"><path
         id="path238"
         style="fill:none;stroke:#231f20;stroke-width:0.75;stroke-linecap:square;stroke-linejoin:miter;stroke-miterlimit:10;stroke-dasharray:none;stroke-opacity:1"
         d="M 74.25,0 H 0 v -24.749 h 74.25 z" /><g
         id="g240"><path
           id="path242"
           style="fill:none;stroke:#231f20;stroke-width:0.75;stroke-linecap:square;stroke-linejoin:miter;stroke-miterlimit:10;stroke-dasharray:none;stroke-opacity:1"
           d="M 0,0 Z" /></g></g><text
       id="text246"
       style="font-variant:normal;font-weight:normal;font-stretch:normal;font-size:9px;font-family:Times;-inkscape-font-specification:Times-Roman;writing-mode:lr-tb;fill:#231f20;fill-opacity:1;fill-rule:nonzero;stroke:none"
       transform="matrix(1,0,0,-1,78.7783,161.3984)"><tspan
         id="tspan244"
         y="0"
         x="0 4.5 9 12.996 17.496 24.497999 28.493999 32.993999 35.495998 39.995998 42.498001 46.998001 51.498001 55.493999">document_type</tspan></text>
<path
       id="path248"
       style="fill:#ffffff;fill-opacity:1;fill-rule:nonzero;stroke:none"
       d="m 64.172,79.26 h 135 v 24.75 h -135 z" /><g
       transform="translate(64.172,104.01)"
       id="g250"><path
         id="path252"
         style="fill:none;stroke:#231f20;stroke-width:0.75;stroke-linecap:square;stroke-linejoin:miter;stroke-miterlimit:10;stroke-dasharray:none;stroke-opacity:1"
         d="M 135,0 H 0 v -24.75 h 135 z" /><g
         id="g254"><path
           id="path256"
           style="fill:none;stroke:#231f20;stroke-width:0.75;stroke-linecap:square;stroke-linejoin:miter;stroke-miterlimit:10;stroke-dasharray:none;stroke-opacity:1"
           d="M 0,0 Z" /></g></g><text
       id="text260"
       style="font-variant:normal;font-weight:normal;font-stretch:normal;font-size:9px;font-family:Times;-inkscape-font-specification:Times-Roman;writing-mode:lr-tb;fill:#231f20;fill-opacity:1;fill-rule:nonzero;stroke:none"
       transform="matrix(1,0,0,-1,74.6396,89.3672)"><tspan
         id="tspan258"
         y="0"
         x="0 4.5 9 12.996 17.496 24.497999 28.493999 32.993999 35.495998 39.995998 42.993 46.988998 51.488998 54.486 58.481998 61.983002 65.978996 70.478996 72.981003 76.976997 79.478996 81.981003 86.481003 90.981003 95.481003 97.983002 102.483 106.983 110.979">document_representation_type</tspan></text>
<path
       id="path262"
       style="fill:#ffffff;fill-opacity:1;fill-rule:nonzero;stroke:none"
       d="m 30.932,3.3838 h 90 v 17.25 h -90 z" /><g
       transform="translate(30.932,20.634)"
       id="g264"><path
         id="path266"
         style="fill:none;stroke:#231f20;stroke-width:0.75;stroke-linecap:square;stroke-linejoin:miter;stroke-miterlimit:10;stroke-dasharray:none;stroke-opacity:1"
         d="M 90,0 H 0 v -17.25 h 90 z" /><g
         id="g268"><path
           id="path270"
           style="fill:none;stroke:#231f20;stroke-width:0.75;stroke-linecap:square;stroke-linejoin:miter;stroke-miterlimit:10;stroke-dasharray:none;stroke-opacity:1"
           d="M 0,0 Z" /></g></g><text
       id="text274"
       style="font-variant:normal;font-weight:normal;font-stretch:normal;font-size:9px;font-family:Times;-inkscape-font-specification:Times-Roman;writing-mode:lr-tb;fill:#231f20;fill-opacity:1;fill-rule:nonzero;stroke:none"
       transform="matrix(1,0,0,-1,32.9169,9.3408)"><tspan
         id="tspan272"
         y="0"
         x="0 4.5 9 12.996 17.496 24.497999 28.493999 32.993999 35.495998 39.995998 46.493999 48.995998 51.498001 55.998001 60.498001 64.494003 66.996002 70.991997 74.492996 77.994003">document_with_class</tspan></text>
<g
       transform="translate(72.459,164.981)"
       id="g276"><path
         id="path278"
         style="fill:#ffffff;fill-opacity:1;fill-rule:nonzero;stroke:none"
         d="M 0,0 C 0,2.069 -1.68,3.75 -3.75,3.75 -5.82,3.75 -7.5,2.069 -7.5,0 c 0,-2.07 1.68,-3.75 3.75,-3.75 C -1.68,-3.75 0,-2.07 0,0" /></g><g
       transform="translate(72.459,164.981)"
       id="g280"><path
         id="path282"
         style="fill:none;stroke:#231f20;stroke-width:0.75;stroke-linecap:square;stroke-linejoin:miter;stroke-miterlimit:10;stroke-dasharray:none;stroke-opacity:1"
         d="M 0,0 C 0,2.069 -1.68,3.75 -3.75,3.75 -5.82,3.75 -7.5,2.069 -7.5,0 c 0,-2.07 1.68,-3.75 3.75,-3.75 C -1.68,-3.75 0,-2.07 0,0" /></g><g
       transform="translate(23.679,212.42)"
       id="g284"><path
         id="path286"
         style="fill:#ffffff;fill-opacity:1;fill-rule:nonzero;stroke:none"
         d="M 0,0 C 0,2.07 -1.68,3.75 -3.75,3.75 -5.82,3.75 -7.5,2.07 -7.5,0 c 0,-2.069 1.68,-3.75 3.75,-3.75 C -1.68,-3.75 0,-2.069 0,0" /></g><g
       transform="translate(23.679,212.42)"
       id="g288"><path
         id="path290"
         style="fill:none;stroke:#231f20;stroke-width:0.75;stroke-linecap:square;stroke-linejoin:miter;stroke-miterlimit:10;stroke-dasharray:none;stroke-opacity:1"
         d="M 0,0 C 0,2.07 -1.68,3.75 -3.75,3.75 -5.82,3.75 -7.5,2.07 -7.5,0 c 0,-2.069 1.68,-3.75 3.75,-3.75 C -1.68,-3.75 0,-2.069 0,0" /></g><g
       transform="translate(64.179,96.41)"
       id="g292"><path
         id="path294"
         style="fill:#ffffff;fill-opacity:1;fill-rule:nonzero;stroke:none"
         d="M 0,0 C 0,2.07 -1.68,3.75 -3.75,3.75 -5.82,3.75 -7.5,2.07 -7.5,0 c 0,-2.07 1.68,-3.75 3.75,-3.75 C -1.68,-3.75 0,-2.07 0,0" /></g><g
       transform="translate(64.179,96.41)"
       id="g296"><path
         id="path298"
         style="fill:none;stroke:#231f20;stroke-width:0.75;stroke-linecap:square;stroke-linejoin:miter;stroke-miterlimit:10;stroke-dasharray:none;stroke-opacity:1"
         d="M 0,0 C 0,2.07 -1.68,3.75 -3.75,3.75 -5.82,3.75 -7.5,2.07 -7.5,0 c 0,-2.07 1.68,-3.75 3.75,-3.75 C -1.68,-3.75 0,-2.07 0,0" /></g></g></svg>