<?xml version="1.0" encoding="UTF-8" standalone="no"?>
<svg
   xmlns:dc="http://purl.org/dc/elements/1.1/"
   xmlns:cc="http://creativecommons.org/ns#"
   xmlns:rdf="http://www.w3.org/1999/02/22-rdf-syntax-ns#"
   xmlns:svg="http://www.w3.org/2000/svg"
   xmlns="http://www.w3.org/2000/svg"
   viewBox="0 0 481.93866 523.96265"
   height="523.96265"
   width="481.93866"
   xml:space="preserve"
   id="svg2"
   version="1.1"><metadata
     id="metadata8"><rdf:RDF><cc:Work
         rdf:about=""><dc:format>image/svg+xml</dc:format><dc:type
           rdf:resource="http://purl.org/dc/dcmitype/StillImage" /></cc:Work></rdf:RDF></metadata><defs
     id="defs6" /><g
     transform="matrix(1.3333333,0,0,-1.3333333,0,523.96267)"
     id="g10"><g
       transform="translate(202.454,384.91)"
       id="g12"><path
         id="path14"
         style="fill:none;stroke:#231f20;stroke-width:0.75;stroke-linecap:square;stroke-linejoin:miter;stroke-miterlimit:10;stroke-dasharray:none;stroke-opacity:1"
         d="M 0,0 -90.524,0.567" /><g
         transform="translate(-139.124,-275.785)"
         id="g16"><path
           id="path18"
           style="fill:none;stroke:#231f20;stroke-width:0.75;stroke-linecap:square;stroke-linejoin:miter;stroke-miterlimit:10;stroke-dasharray:none;stroke-opacity:1"
           d="M 0,0 -0.15,12.563" /><g
           transform="translate(123.795,67.5)"
           id="g20"><path
             id="path22"
             style="fill:none;stroke:#231f20;stroke-width:0.75;stroke-linecap:square;stroke-linejoin:miter;stroke-miterlimit:10;stroke-dasharray:none;stroke-opacity:1"
             d="M 0,0 H -56.25" /><g
             transform="translate(56.25)"
             id="g24"><path
               id="path26"
               style="fill:none;stroke:#231f20;stroke-width:0.75;stroke-linecap:square;stroke-linejoin:miter;stroke-miterlimit:10;stroke-dasharray:none;stroke-opacity:1"
               d="M 0,0 H -56.25 V 0" /><g
               transform="translate(-112.5,-23.625)"
               id="g28"><path
                 id="path30"
                 style="fill:none;stroke:#231f20;stroke-width:0.75;stroke-linecap:square;stroke-linejoin:miter;stroke-miterlimit:10;stroke-dasharray:none;stroke-opacity:1"
                 d="M 0,0 H 82.5" /><g
                 transform="translate(-12.75,-59.063)"
                 id="g32"><path
                   id="path34"
                   style="fill:none;stroke:#231f20;stroke-width:0.75;stroke-linecap:square;stroke-linejoin:miter;stroke-miterlimit:10;stroke-dasharray:none;stroke-opacity:1"
                   d="M 0,0 H 42.75" /><g
                   transform="translate(-53.053,254.626)"
                   id="g36"><path
                     id="path38"
                     style="fill:none;stroke:#231f20;stroke-width:0.75;stroke-linecap:square;stroke-linejoin:miter;stroke-miterlimit:10;stroke-dasharray:none;stroke-opacity:1"
                     d="M 0,0 V 14.02" /><g
                     transform="translate(98.007,-81.778)"
                     id="g40"><path
                       id="path42"
                       style="fill:none;stroke:#231f20;stroke-width:0.75;stroke-linecap:square;stroke-linejoin:miter;stroke-miterlimit:10;stroke-dasharray:none;stroke-opacity:1"
                       d="M 0,0 H -56.25" /><g
                       transform="translate(56.249)"
                       id="g44"><path
                         id="path46"
                         style="fill:none;stroke:#231f20;stroke-width:0.75;stroke-linecap:square;stroke-linejoin:miter;stroke-miterlimit:10;stroke-dasharray:none;stroke-opacity:1"
                         d="M 0,0 H -56.249 V 0" /><g
                         transform="translate(-88.875,-40.125)"
                         id="g48"><path
                           id="path50"
                           style="fill:none;stroke:#231f20;stroke-width:0.75;stroke-linecap:square;stroke-linejoin:miter;stroke-miterlimit:10;stroke-dasharray:none;stroke-opacity:1"
                           d="M 0,0 H 55.499" /><g
                           transform="translate(-45.132,15.188)"
                           id="g52"><path
                             id="path54"
                             style="fill:none;stroke:#231f20;stroke-width:0.75;stroke-linecap:square;stroke-linejoin:miter;stroke-miterlimit:10;stroke-dasharray:none;stroke-opacity:1"
                             d="M 0,0 V 7.875" /><g
                             transform="translate(-30.75,74.465)"
                             id="g56"><path
                               id="path58"
                               style="fill:none;stroke:#231f20;stroke-width:0.75;stroke-linecap:square;stroke-linejoin:miter;stroke-miterlimit:10;stroke-dasharray:none;stroke-opacity:1"
                               d="M 0,0 0.676,-34.341" /><g
                               transform="translate(36.178,-275.813)"
                               id="g60"><path
                                 id="path62"
                                 style="fill:none;stroke:#231f20;stroke-width:0.75;stroke-linecap:square;stroke-linejoin:miter;stroke-miterlimit:10;stroke-dasharray:none;stroke-opacity:1"
                                 d="M 0,0 V -24.75" /><g
                                 transform="translate(27,292.876)"
                                 id="g64"><path
                                   id="path66"
                                   style="fill:none;stroke:#231f20;stroke-width:0.75;stroke-linecap:square;stroke-linejoin:miter;stroke-miterlimit:10;stroke-dasharray:none;stroke-opacity:1"
                                   d="M 0,0 H 84.75" /></g></g></g></g></g></g></g></g></g></g></g></g></g></g><g
       transform="translate(1.125,257.063)"
       id="g68"><path
         id="path70"
         style="fill:none;stroke:#231f20;stroke-width:2.25;stroke-linecap:square;stroke-linejoin:miter;stroke-miterlimit:10;stroke-dasharray:none;stroke-opacity:1"
         d="M 0,0 H 12.197" /><g
         transform="translate(0,-59.25)"
         id="g72"><path
           id="path74"
           style="fill:none;stroke:#231f20;stroke-width:2.25;stroke-linecap:square;stroke-linejoin:miter;stroke-miterlimit:10;stroke-dasharray:none;stroke-opacity:1"
           d="M 0,0 V 59.25" /></g></g><g
       transform="translate(13.322,257.063)"
       id="g76"><path
         id="path78"
         style="fill:none;stroke:#231f20;stroke-width:2.25;stroke-linecap:square;stroke-linejoin:miter;stroke-miterlimit:10;stroke-dasharray:none;stroke-opacity:1"
         d="M 0,0 V 59.25" /></g><g
       transform="translate(8.625,165.828)"
       id="g80"><path
         id="path82"
         style="fill:none;stroke:#231f20;stroke-width:2.25;stroke-linecap:square;stroke-linejoin:miter;stroke-miterlimit:10;stroke-dasharray:none;stroke-opacity:1"
         d="M 0,0 H -7.5" /><g
         transform="translate(0,-35.25)"
         id="g84"><path
           id="path86"
           style="fill:none;stroke:#231f20;stroke-width:2.25;stroke-linecap:square;stroke-linejoin:miter;stroke-miterlimit:10;stroke-dasharray:none;stroke-opacity:1"
           d="M 0,0 H -7.5" /><g
           transform="translate(-7.5,35.25)"
           id="g88"><path
             id="path90"
             style="fill:none;stroke:#231f20;stroke-width:2.25;stroke-linecap:square;stroke-linejoin:miter;stroke-miterlimit:10;stroke-dasharray:none;stroke-opacity:1"
             d="M 0,0 V 31.985" /><g
             transform="translate(0,-35.25)"
             id="g92"><path
               id="path94"
               style="fill:none;stroke:#231f20;stroke-width:2.25;stroke-linecap:square;stroke-linejoin:miter;stroke-miterlimit:10;stroke-dasharray:none;stroke-opacity:1"
               d="M 0,0 V 67.235" /></g></g></g></g><g
       transform="translate(63.524,65.25)"
       id="g96"><path
         id="path98"
         style="fill:none;stroke:#231f20;stroke-width:2.25;stroke-linecap:square;stroke-linejoin:miter;stroke-miterlimit:10;stroke-dasharray:none;stroke-opacity:1"
         d="M 0,0 -0.149,11.625" /><g
         transform="translate(28.548,216.723)"
         id="g100"><path
           id="path102"
           style="fill:none;stroke:#231f20;stroke-width:2.25;stroke-linecap:square;stroke-linejoin:miter;stroke-miterlimit:10;stroke-dasharray:none;stroke-opacity:1"
           d="M 0,0 V 6.856 H 24.882" /></g></g><path
       id="path104"
       style="fill:#ffffff;fill-opacity:1;fill-rule:nonzero;stroke:none"
       d="m 202.454,377.222 h 147.75 v 15.375 h -147.75 z" /><g
       transform="translate(210.142,392.597)"
       id="g106"><path
         id="path108"
         style="fill:none;stroke:#231f20;stroke-width:0.75;stroke-linecap:square;stroke-linejoin:miter;stroke-miterlimit:10;stroke-dasharray:none;stroke-opacity:1"
         d="m 0,0 h 132.375 c 4.244,0 7.688,-3.444 7.688,-7.687 0,-4.244 -3.444,-7.687 -7.688,-7.687 H 0 c -4.243,0 -7.687,3.443 -7.687,7.687 C -7.687,-3.444 -4.243,0 0,0 Z" /></g><text
       id="text114"
       style="font-variant:normal;font-weight:normal;font-stretch:normal;font-size:9px;font-family:Times;-inkscape-font-specification:Times-Roman;writing-mode:lr-tb;fill:#231f20;fill-opacity:1;fill-rule:nonzero;stroke:none"
       transform="matrix(1,0,0,-1,216.7998,382.3403)"><tspan
         id="tspan110"
         y="0"
         x="0 4.5 9 11.25 13.5 18 22.5 27 29.25 31.5 36 38.501999 45.504002 49.5 54 57.500999 60.002998 64.502998 69.002998 72.999001 75.500999 80.000999 82.502998 87.002998 90.999001 94.995003 97.497002 99.999001 104.499 108.999">42, 121, dimensional_location</tspan><tspan
         id="tspan112"
         y="7.8488998"
         x="-93.619797 -90.622803 -86.626801 -84.124802 -80.128799 -77.626801 -73.630798 -69.130798 -64.630798 -60.130798 -57.628799 -50.626801 -46.630798 -42.130798 -38.629799 -36.1278 -31.6278 -27.1278">related_dimension</tspan></text>
<path
       id="path116"
       style="fill:#ffffff;fill-opacity:1;fill-rule:nonzero;stroke:none"
       d="m 4.4546,362.583 h 107.476 v 28.514 H 4.4546 Z" /><g
       transform="translate(4.4546,391.097)"
       id="g118"><path
         id="path120"
         style="fill:none;stroke:#231f20;stroke-width:0.75;stroke-linecap:square;stroke-linejoin:miter;stroke-miterlimit:10;stroke-dasharray:none;stroke-opacity:1"
         d="M 107.476,0 H 0 v -28.514 h 107.476 z" /><g
         id="g122"><path
           id="path124"
           style="fill:none;stroke:#231f20;stroke-width:0.75;stroke-linecap:square;stroke-linejoin:miter;stroke-miterlimit:10;stroke-dasharray:none;stroke-opacity:1"
           d="M 0,0 Z" /></g></g><text
       id="text130"
       style="font-variant:normal;font-weight:normal;font-stretch:normal;font-size:9px;font-family:Times;-inkscape-font-specification:Times-Roman;writing-mode:lr-tb;fill:#231f20;fill-opacity:1;fill-rule:nonzero;stroke:none"
       transform="matrix(1,0,0,-1,21.6254,380.1723)"><tspan
         id="tspan126"
         y="0"
         x="0 4.5 7.0019999 14.004 18 22.5 26.000999 28.503 33.002998 37.502998 42.002998 45 48.995998 51.498001 55.493999 57.995998 61.992001 66.491997 70.991997">dimension_related_</tspan><tspan
         id="tspan128"
         y="10.9998"
         x="-8.2395 -5.7375002 -1.2375 1.2645 5.2605 8.2574997 12.2535 16.7535 20.7495 24.745501 29.245501 33.241501 37.741501 42.241501 46.237499 50.737499 54.733501 57.2355 61.231499 68.233498 72.2295 76.7295 79.231499">tolerance_zone_element</tspan></text>
<path
       id="path132"
       style="fill:#ffffff;fill-opacity:1;fill-rule:nonzero;stroke:none"
       d="m 16.125,121.688 h 105 v 15.375 h -105 z" /><g
       transform="translate(16.125,137.063)"
       id="g134"><path
         id="path136"
         style="fill:none;stroke:#231f20;stroke-width:0.75;stroke-linecap:square;stroke-linejoin:miter;stroke-miterlimit:10;stroke-dasharray:none;stroke-opacity:1"
         d="M 105,0 H 0 v -15.375 h 105 z" /><g
         id="g138"><path
           id="path140"
           style="fill:none;stroke:#231f20;stroke-width:0.75;stroke-linecap:square;stroke-linejoin:miter;stroke-miterlimit:10;stroke-dasharray:none;stroke-opacity:1"
           d="M 0,0 Z" /></g></g><text
       id="text144"
       style="font-variant:normal;font-weight:normal;font-stretch:normal;font-size:9px;font-family:Times;-inkscape-font-specification:Times-Roman;writing-mode:lr-tb;fill:#231f20;fill-opacity:1;fill-rule:nonzero;stroke:none"
       transform="matrix(1,0,0,-1,23.0987,126.6621)"><tspan
         id="tspan142"
         y="0"
         x="0 2.997 7.4970002 11.997 16.497 20.997 23.499001 27.999001 31.995001 36.494999 40.994999 44.991001 49.491001 53.991001 57.987 60.804001 63.306 67.806 70.307999 72.809998 75.311996 79.811996 84.311996">runout_zone_definition</tspan></text>
<path
       id="path146"
       style="fill:#ffffff;fill-opacity:1;fill-rule:nonzero;stroke:none"
       d="m 116.955,280.097 h 71.999 v 15.375 h -71.999 z" /><g
       transform="translate(124.642,295.472)"
       id="g148"><path
         id="path150"
         style="fill:none;stroke:#231f20;stroke-width:0.75;stroke-linecap:square;stroke-linejoin:miter;stroke-miterlimit:10;stroke-dasharray:none;stroke-opacity:1"
         d="m 0,0 h 56.625 c 4.244,0 7.687,-3.444 7.687,-7.687 0,-4.244 -3.443,-7.688 -7.687,-7.688 H 0 c -4.244,0 -7.687,3.444 -7.687,7.688 C -7.687,-3.444 -4.244,0 0,0 Z" /></g><text
       id="text154"
       style="font-variant:normal;font-weight:normal;font-stretch:normal;font-size:9px;font-family:Times;-inkscape-font-specification:Times-Roman;writing-mode:lr-tb;fill:#231f20;fill-opacity:1;fill-rule:nonzero;stroke:none"
       transform="matrix(1,0,0,-1,133.6948,285.4179)"><tspan
         id="tspan152"
         y="0"
         x="0 4.5 9 11.25 13.5 18 20.25 23.247 27.747 32.247002 35.243999">46, 0 (40)</tspan></text>
<path
       id="path156"
       style="fill:#ffffff;fill-opacity:1;fill-rule:nonzero;stroke:none"
       d="m 16.125,145.313 h 114.75 v 39 H 16.125 Z" /><g
       transform="translate(16.125,184.313)"
       id="g158"><path
         id="path160"
         style="fill:none;stroke:#231f20;stroke-width:0.75;stroke-linecap:square;stroke-linejoin:miter;stroke-miterlimit:10;stroke-dasharray:none;stroke-opacity:1"
         d="M 114.75,0 H 0 v -39 h 114.75 z" /><g
         id="g162"><path
           id="path164"
           style="fill:none;stroke:#231f20;stroke-width:0.75;stroke-linecap:square;stroke-linejoin:miter;stroke-miterlimit:10;stroke-dasharray:none;stroke-opacity:1"
           d="M 0,0 Z" /></g></g><text
       id="text168"
       style="font-variant:normal;font-weight:normal;font-stretch:normal;font-size:9px;font-family:Times;-inkscape-font-specification:Times-Roman;writing-mode:lr-tb;fill:#231f20;fill-opacity:1;fill-rule:nonzero;stroke:none"
       transform="matrix(1,0,0,-1,26.2227,162.4814)"><tspan
         id="tspan166"
         y="0"
         x="0 4.5 7.4970002 11.997 14.499 18.495001 22.490999 24.993 28.989 33.488998 37.988998 41.985001 46.485001 50.985001 54.980999 59.480999 63.980999 67.976997 70.793999 73.295998 77.795998 80.297997 82.800003 85.302002 89.802002 94.302002">projected_zone_definition</tspan></text>
<path
       id="path170"
       style="fill:#ffffff;fill-opacity:1;fill-rule:nonzero;stroke:none"
       d="m 243.375,168.938 h 111 v 15.375 h -111 z" /><g
       transform="translate(251.062,184.313)"
       id="g172"><path
         id="path174"
         style="fill:none;stroke:#231f20;stroke-width:0.75;stroke-linecap:square;stroke-linejoin:miter;stroke-miterlimit:10;stroke-dasharray:none;stroke-opacity:1"
         d="m 0,0 h 95.625 c 4.243,0 7.688,-3.444 7.688,-7.687 0,-4.244 -3.445,-7.688 -7.688,-7.688 H 0 c -4.243,0 -7.687,3.444 -7.687,7.688 C -7.687,-3.444 -4.243,0 0,0 Z" /></g><text
       id="text178"
       style="font-variant:normal;font-weight:normal;font-stretch:normal;font-size:9px;font-family:Times;-inkscape-font-specification:Times-Roman;writing-mode:lr-tb;fill:#231f20;fill-opacity:1;fill-rule:nonzero;stroke:none"
       transform="matrix(1,0,0,-1,255.8457,174.3261)"><tspan
         id="tspan176"
         y="0"
         x="0 4.5 9 11.25 13.5 18 22.5 24.75 27 30.500999 35.000999 38.997002 43.497002 47.493 51.993 55.988998 59.490002 63.990002 67.986 71.982002 74.484001">40, 54, shape_aspect</tspan></text>
<path
       id="path180"
       style="fill:#ffffff;fill-opacity:1;fill-rule:nonzero;stroke:none"
       d="m 213.375,145.313 h 141 v 15.375 h -141 z" /><g
       transform="translate(221.063,160.688)"
       id="g182"><path
         id="path184"
         style="fill:none;stroke:#231f20;stroke-width:0.75;stroke-linecap:square;stroke-linejoin:miter;stroke-miterlimit:10;stroke-dasharray:none;stroke-opacity:1"
         d="m 0,0 h 125.625 c 4.243,0 7.688,-3.444 7.688,-7.687 0,-4.244 -3.445,-7.688 -7.688,-7.688 H 0 c -4.243,0 -7.687,3.444 -7.687,7.688 C -7.687,-3.444 -4.243,0 0,0 Z" /></g><text
       id="text192"
       style="font-variant:normal;font-weight:normal;font-stretch:normal;font-size:9px;font-family:Times;-inkscape-font-specification:Times-Roman;writing-mode:lr-tb;fill:#231f20;fill-opacity:1;fill-rule:nonzero;stroke:none"
       transform="matrix(1,0,0,-1,228.5977,150.4306)"><tspan
         id="tspan186"
         y="0"
         x="0 4.5 9 11.25 13.5 18 22.5 27 29.25 31.5 38.501999 42.498001 46.493999 49.994999 54.494999 57.492001 61.487999 65.987999 72.486 74.987999 77.489998 81.989998 86.489998 90.989998 95.489998 97.991997 100.494">47, 181, measure_with_unit</tspan><tspan
         id="tspan188"
         y="-15.2091"
         x="-90.222298 -85.722298 -82.725304 -78.225304 -75.723297 -71.727303 -67.7313 -65.229301 -62.727299 -58.227299 -53.727299 -49.227299 -45.2313 -40.7313 -36.2313">projection_end</tspan><tspan
         id="tspan190"
         y="8.4159002"
         x="-90.222298 -85.722298 -82.725304 -78.225304 -75.723297 -71.727303 -67.7313 -65.229301 -61.233299 -56.733299 -52.233299 -49.7313 -45.735298 -41.235298 -36.735298 -34.233299 -29.733299">projected_length</tspan></text>
<path
       id="path194"
       style="fill:#ffffff;fill-opacity:1;fill-rule:nonzero;stroke:none"
       d="m 8.625,76.875 h 109.5 v 24.75 H 8.625 Z" /><g
       transform="translate(8.625,101.625)"
       id="g196"><path
         id="path198"
         style="fill:none;stroke:#231f20;stroke-width:0.75;stroke-linecap:square;stroke-linejoin:miter;stroke-miterlimit:10;stroke-dasharray:none;stroke-opacity:1"
         d="M 109.5,0 H 0 v -24.75 h 109.5 z" /><g
         id="g200"><path
           id="path202"
           style="fill:none;stroke:#231f20;stroke-width:0.75;stroke-linecap:square;stroke-linejoin:miter;stroke-miterlimit:10;stroke-dasharray:none;stroke-opacity:1"
           d="M 0,0 Z" /></g></g><text
       id="text206"
       style="font-variant:normal;font-weight:normal;font-stretch:normal;font-size:9px;font-family:Times;-inkscape-font-specification:Times-Roman;writing-mode:lr-tb;fill:#231f20;fill-opacity:1;fill-rule:nonzero;stroke:none"
       transform="matrix(1,0,0,-1,14.8472,86.582)"><tspan
         id="tspan204"
         y="0"
         x="0 2.997 7.4970002 11.997 16.497 20.997 23.499001 27.999001 31.995001 36.494999 40.994999 44.991001 49.491001 53.991001 56.987999 59.490002 63.486 67.986 70.487999 74.484001 76.986 79.487999 83.987999 88.487999">runout_zone_orientation</tspan></text>
<g
       transform="translate(67.131,105.318)"
       id="g208"><path
         id="path210"
         style="fill:#ffffff;fill-opacity:1;fill-rule:nonzero;stroke:none"
         d="M 0,0 C 0,2.07 -1.68,3.75 -3.75,3.75 -5.82,3.75 -7.5,2.07 -7.5,0 c 0,-2.069 1.68,-3.75 3.75,-3.75 C -1.68,-3.75 0,-2.069 0,0" /></g><g
       transform="translate(67.131,105.318)"
       id="g212"><path
         id="path214"
         style="fill:none;stroke:#231f20;stroke-width:0.75;stroke-linecap:square;stroke-linejoin:miter;stroke-miterlimit:10;stroke-dasharray:none;stroke-opacity:1"
         d="M 0,0 C 0,2.07 -1.68,3.75 -3.75,3.75 -5.82,3.75 -7.5,2.07 -7.5,0 c 0,-2.069 1.68,-3.75 3.75,-3.75 C -1.68,-3.75 0,-2.069 0,0" /></g><text
       id="text218"
       style="font-variant:normal;font-weight:normal;font-stretch:normal;font-size:9px;font-family:Times;-inkscape-font-specification:Times-Roman;writing-mode:lr-tb;fill:#231f20;fill-opacity:1;fill-rule:nonzero;stroke:none"
       transform="matrix(1,0,0,-1,74.4302,110.7021)"><tspan
         id="tspan216"
         y="0"
         x="0 4.5 7.4970002 9.9989996 13.995 18.495001 20.997 24.993 27.495001 29.997 34.497002 38.997002">orientation</tspan></text>
<path
       id="path220"
       style="fill:#ffffff;fill-opacity:1;fill-rule:nonzero;stroke:none"
       d="m 160.875,86.25 h 141 v 15.375 h -141 z" /><g
       transform="translate(168.563,101.625)"
       id="g222"><path
         id="path224"
         style="fill:none;stroke:#231f20;stroke-width:0.75;stroke-linecap:square;stroke-linejoin:miter;stroke-miterlimit:10;stroke-dasharray:none;stroke-opacity:1"
         d="m 0,0 h 125.625 c 4.243,0 7.687,-3.444 7.687,-7.687 0,-4.244 -3.444,-7.688 -7.687,-7.688 H 0 c -4.244,0 -7.687,3.444 -7.687,7.688 C -7.687,-3.444 -4.244,0 0,0 Z" /></g><text
       id="text230"
       style="font-variant:normal;font-weight:normal;font-stretch:normal;font-size:9px;font-family:Times;-inkscape-font-specification:Times-Roman;writing-mode:lr-tb;fill:#231f20;fill-opacity:1;fill-rule:nonzero;stroke:none"
       transform="matrix(1,0,0,-1,176.0972,91.3681)"><tspan
         id="tspan226"
         y="0"
         x="0 4.5 9 11.25 13.5 18 22.5 27 29.25 31.5 38.501999 42.498001 46.493999 49.994999 54.494999 57.492001 61.487999 65.987999 72.486 74.987999 77.489998 81.989998 86.489998 90.989998 95.489998 97.991997 100.494">47, 181, measure_with_unit</tspan><tspan
         id="tspan228"
         y="8.4159002"
         x="-50.472 -46.476002 -41.976002 -37.476002 -34.973999 -30.978001">angle</tspan></text>
<path
       id="path232"
       style="fill:#ffffff;fill-opacity:1;fill-rule:nonzero;stroke:none"
       d="m 35.58,249.723 h 71.25 v 24.75 H 35.58 Z" /><g
       transform="translate(35.58,274.473)"
       id="g234"><path
         id="path236"
         style="fill:none;stroke:#231f20;stroke-width:0.75;stroke-linecap:square;stroke-linejoin:miter;stroke-miterlimit:10;stroke-dasharray:none;stroke-opacity:1"
         d="M 71.25,0 H 0 v -24.75 h 71.25 z" /><g
         id="g238"><path
           id="path240"
           style="fill:none;stroke:#231f20;stroke-width:0.75;stroke-linecap:square;stroke-linejoin:miter;stroke-miterlimit:10;stroke-dasharray:none;stroke-opacity:1"
           d="M 0,0 Z" /></g></g><text
       id="text244"
       style="font-variant:normal;font-weight:normal;font-stretch:normal;font-size:9px;font-family:Times;-inkscape-font-specification:Times-Roman;writing-mode:lr-tb;fill:#231f20;fill-opacity:1;fill-rule:nonzero;stroke:none"
       transform="matrix(1,0,0,-1,44.438,259.4287)"><tspan
         id="tspan242"
         y="0"
         x="0 2.5020001 7.0019999 9.5039997 13.5 16.497 20.493 24.993 28.989 32.985001 37.485001 41.480999 45.980999 50.480999 54.477001">tolerance_zone</tspan></text>
<path
       id="path246"
       style="fill:#ffffff;fill-opacity:1;fill-rule:nonzero;stroke:none"
       d="m 219.329,259.098 h 141.75 v 15.375 h -141.75 z" /><g
       transform="translate(227.017,274.473)"
       id="g248"><path
         id="path250"
         style="fill:none;stroke:#231f20;stroke-width:0.75;stroke-linecap:square;stroke-linejoin:miter;stroke-miterlimit:10;stroke-dasharray:none;stroke-opacity:1"
         d="m 0,0 h 126.375 v 0 c 4.244,0 7.688,-3.444 7.688,-7.687 0,-4.244 -3.444,-7.688 -7.688,-7.688 H 0 c -4.243,0 -7.687,3.444 -7.687,7.688 C -7.687,-3.444 -4.243,0 0,0 Z" /></g><text
       id="text256"
       style="font-variant:normal;font-weight:normal;font-stretch:normal;font-size:9px;font-family:Times;-inkscape-font-specification:Times-Roman;writing-mode:lr-tb;fill:#231f20;fill-opacity:1;fill-rule:nonzero;stroke:none"
       transform="matrix(1,0,0,-1,231.9248,264.5439)"><tspan
         id="tspan252"
         y="0"
         x="0 4.5 9 11.25 13.5 18 22.5 27 29.25 31.5 36 39.995998 44.495998 51.498001 55.493999 57.995998 60.993 63.494999 67.490997 71.990997 74.492996 78.992996 81.495003 85.490997 88.487999 92.484001 96.984001 100.98 104.976">44, 223, geometric_tolerance</tspan><tspan
         id="tspan254"
         y="9.0351"
         x="-117.5949 -113.0949 -109.0989 -106.2819 -103.7799 -99.2799 -96.777901 -92.277901 -87.777901 -83.277901 -80.775902 -76.275902 -73.773903 -69.777901 -66.780899 -62.784901 -58.284901 -54.288898 -50.2929 -48.0429 -43.038898 -40.041901 -35.541901 -33.039902 -29.0439 -26.0469">defining_tolerance S[1:?]</tspan></text>
<path
       id="path258"
       style="fill:#ffffff;fill-opacity:1;fill-rule:nonzero;stroke:none"
       d="m 35.955,209.598 h 94.5 v 24.75 h -94.5 z" /><g
       transform="translate(35.955,234.348)"
       id="g260"><path
         id="path262"
         style="fill:none;stroke:#231f20;stroke-width:0.75;stroke-linecap:square;stroke-linejoin:miter;stroke-miterlimit:10;stroke-dasharray:none;stroke-opacity:1"
         d="M 94.5,0 H 0 v -24.75 h 94.5 z" /><g
         id="g264"><path
           id="path266"
           style="fill:none;stroke:#231f20;stroke-width:0.75;stroke-linecap:square;stroke-linejoin:miter;stroke-miterlimit:10;stroke-dasharray:none;stroke-opacity:1"
           d="M 0,0 Z" /></g></g><text
       id="text272"
       style="font-variant:normal;font-weight:normal;font-stretch:normal;font-size:9px;font-family:Times;-inkscape-font-specification:Times-Roman;writing-mode:lr-tb;fill:#231f20;fill-opacity:1;fill-rule:nonzero;stroke:none"
       transform="matrix(1,0,0,-1,43.9361,219.2588)"><tspan
         id="tspan268"
         y="0"
         x="0 2.5020001 7.0019999 9.5039997 13.5 16.497 20.493 24.993 28.989 32.985001 37.485001 41.480999 45.980999 50.480999 54.477001 58.977001 61.973999 66.473999 69.471001 76.473">tolerance_zone_form</tspan><tspan
         id="tspan270"
         y="-19.3248"
         x="52.636501 55.633499 60.133499 63.130501 70.1325">form</tspan></text>
<path
       id="path274"
       style="fill:#ffffff;fill-opacity:1;fill-rule:nonzero;stroke:none"
       d="m 185.954,218.973 h 78.75 v 15.375 h -78.75 z" /><g
       transform="translate(193.642,234.348)"
       id="g276"><path
         id="path278"
         style="fill:none;stroke:#231f20;stroke-width:0.75;stroke-linecap:square;stroke-linejoin:miter;stroke-miterlimit:10;stroke-dasharray:none;stroke-opacity:1"
         d="m 0,0 h 63.375 c 4.244,0 7.688,-3.444 7.688,-7.687 0,-4.244 -3.444,-7.688 -7.688,-7.688 H 0 c -4.243,0 -7.688,3.444 -7.688,7.688 C -7.688,-3.444 -4.243,0 0,0 Z" /></g><text
       id="text284"
       style="font-variant:normal;font-weight:normal;font-stretch:normal;font-size:9px;font-family:Times;-inkscape-font-specification:Times-Roman;writing-mode:lr-tb;fill:#231f20;fill-opacity:1;fill-rule:nonzero;stroke:none"
       transform="matrix(1,0,0,-1,200.8135,224.0903)"><tspan
         id="tspan280"
         y="0"
         x="0 4.5 9 11.25 13.5 18 22.5 24.75 27 29.502001 33.498001 37.998001 41.993999 44.495998">65, 33, label</tspan><tspan
         id="tspan282"
         y="5.6619"
         x="-62.8587 -58.3587 -54.362701 -47.360699 -43.3647">name</tspan></text>
<g
       transform="translate(89.091,238.068)"
       id="g286"><path
         id="path288"
         style="fill:#ffffff;fill-opacity:1;fill-rule:nonzero;stroke:none"
         d="M 0,0 C 0,2.07 -1.68,3.75 -3.75,3.75 -5.82,3.75 -7.5,2.07 -7.5,0 c 0,-2.069 1.68,-3.75 3.75,-3.75 C -1.68,-3.75 0,-2.069 0,0" /></g><g
       transform="translate(89.091,238.068)"
       id="g290"><path
         id="path292"
         style="fill:none;stroke:#231f20;stroke-width:0.75;stroke-linecap:square;stroke-linejoin:miter;stroke-miterlimit:10;stroke-dasharray:none;stroke-opacity:1"
         d="M 0,0 C 0,2.07 -1.68,3.75 -3.75,3.75 -5.82,3.75 -7.5,2.07 -7.5,0 c 0,-2.069 1.68,-3.75 3.75,-3.75 C -1.68,-3.75 0,-2.069 0,0" /></g><g
       transform="translate(59.121,278.208)"
       id="g294"><path
         id="path296"
         style="fill:#ffffff;fill-opacity:1;fill-rule:nonzero;stroke:none"
         d="M 0,0 C 0,2.07 -1.68,3.75 -3.75,3.75 -5.82,3.75 -7.5,2.07 -7.5,0 c 0,-2.07 1.68,-3.75 3.75,-3.75 C -1.68,-3.75 0,-2.07 0,0" /></g><g
       transform="translate(59.121,278.208)"
       id="g298"><path
         id="path300"
         style="fill:none;stroke:#231f20;stroke-width:0.75;stroke-linecap:square;stroke-linejoin:miter;stroke-miterlimit:10;stroke-dasharray:none;stroke-opacity:1"
         d="M 0,0 C 0,2.07 -1.68,3.75 -3.75,3.75 -5.82,3.75 -7.5,2.07 -7.5,0 c 0,-2.07 1.68,-3.75 3.75,-3.75 C -1.68,-3.75 0,-2.07 0,0" /></g><path
       id="path302"
       style="fill:#ffffff;fill-opacity:1;fill-rule:nonzero;stroke:none"
       d="m 9.75,0.375 h 162 V 15.75 h -162 z" /><g
       transform="translate(17.438,15.75)"
       id="g304"><path
         id="path306"
         style="fill:none;stroke:#231f20;stroke-width:0.75;stroke-linecap:square;stroke-linejoin:miter;stroke-miterlimit:10;stroke-dasharray:none;stroke-opacity:1"
         d="m 0,0 h 146.625 c 4.244,0 7.688,-3.444 7.688,-7.6875 0,-4.2435 -3.444,-7.6875 -7.688,-7.6875 H 0 c -4.244,0 -7.6875,3.444 -7.6875,7.6875 C -7.6875,-3.444 -4.244,0 0,0 Z" /></g><text
       id="text310"
       style="font-variant:normal;font-weight:normal;font-stretch:normal;font-size:9px;font-family:Times;-inkscape-font-specification:Times-Roman;writing-mode:lr-tb;fill:#231f20;fill-opacity:1;fill-rule:nonzero;stroke:none"
       transform="matrix(1,0,0,-1,22.211,5.7636)"><tspan
         id="tspan308"
         y="0"
         x="0 4.5 9 11.25 13.5 18 22.5 24.75 27 30.500999 35.000999 38.997002 43.497002 47.493 51.993 55.988998 59.490002 63.990002 67.986 71.982002 74.484001 78.984001 81.981003 85.976997 88.478996 92.474998 94.976997 97.478996 101.979 106.479 109.98 114.48 116.982 121.482">42, 55, shape_aspect_relationship</tspan></text>
<path
       id="path312"
       style="fill:#ffffff;fill-opacity:1;fill-rule:nonzero;stroke:none"
       d="M 9.75,40.5 H 189.5 V 57.75 H 9.75 Z" /><g
       transform="translate(9.75,57.75)"
       id="g314"><path
         id="path316"
         style="fill:none;stroke:#231f20;stroke-width:0.75;stroke-linecap:square;stroke-linejoin:miter;stroke-miterlimit:10;stroke-dasharray:none;stroke-opacity:1"
         d="M 179.75,0 H 0 v -17.25 h 179.75 z" /><g
         id="g318"><path
           id="path320"
           style="fill:none;stroke:#231f20;stroke-width:0.75;stroke-linecap:square;stroke-linejoin:miter;stroke-miterlimit:10;stroke-dasharray:none;stroke-opacity:1"
           d="M 0,0 Z" /></g></g><text
       id="text326"
       style="font-variant:normal;font-weight:normal;font-stretch:normal;font-size:9px;font-family:Times;-inkscape-font-specification:Times-Roman;writing-mode:lr-tb;fill:#231f20;fill-opacity:1;fill-rule:nonzero;stroke:none"
       transform="matrix(1,0,0,-1,17.75,46.4121)"><tspan
         id="tspan322"
         y="0"
         x="0 2.997 7.4970002 11.997 16.497 20.997 23.499001 27.999001 31.995001 36.494999 40.994999 44.991001 49.491001 53.991001 56.987999 59.490002 63.486 67.986 70.487999 74.484001 76.986 79.487999 83.987999 88.487999 92.987999 95.985001 99.981003 102.978 106.974 109.971 113.967 118.467 122.463 126.459 130.959 135.459 137.961 140.95799 144.95399 148.95 151.452 153.95399 158.45399 162.95399">runout_zone_orientation_reference_direction</tspan><tspan
         id="tspan324"
         y="16.5501"
         x="79.499702 83.999702 86.996696 89.498703 93.494698 97.994698 100.4967 104.4927 106.9947 109.4967 113.9967 118.4967 122.9967 127.4967 131.49271 134.30969 136.81171 141.31171 143.81371 148.31371 152.81371 157.31371 160.3107 164.3067 166.8087 170.8047 173.3067 175.8087 180.3087 184.8087 188.30969 192.80969 195.31171 199.81171">orientation_defining_relationship</tspan></text>
<path
       id="path328"
       style="fill:#ffffff;fill-opacity:1;fill-rule:nonzero;stroke:none"
       d="m 4.5,316.313 h 113.25 v 24.75 H 4.5 Z" /><g
       transform="translate(4.5,341.063)"
       id="g330"><path
         id="path332"
         style="fill:none;stroke:#231f20;stroke-width:0.75;stroke-linecap:square;stroke-linejoin:miter;stroke-miterlimit:10;stroke-dasharray:none;stroke-opacity:1"
         d="M 113.25,0 H 0 v -24.75 h 113.25 z" /><g
         id="g334"><path
           id="path336"
           style="fill:none;stroke:#231f20;stroke-width:0.75;stroke-linecap:square;stroke-linejoin:miter;stroke-miterlimit:10;stroke-dasharray:none;stroke-opacity:1"
           d="M 0,0 Z" /></g></g><text
       id="text342"
       style="font-variant:normal;font-weight:normal;font-stretch:normal;font-size:9px;font-family:Times;-inkscape-font-specification:Times-Roman;writing-mode:lr-tb;fill:#231f20;fill-opacity:1;fill-rule:nonzero;stroke:none"
       transform="matrix(1,0,0,-1,12.8477,325.9741)"><tspan
         id="tspan338"
         y="0"
         x="0 2.5020001 7.0019999 9.5039997 13.5 16.497 20.493 24.993 28.989 32.985001 37.485001 41.480999 45.980999 50.480999 54.477001 58.977001 63.477001 67.473 70.290001 72.792 77.292 79.793999 82.295998 84.797997 89.297997 93.797997">tolerance_zone_definition</tspan><tspan
         id="tspan340"
         y="19.167299"
         x="5.8607998 10.3608">1</tspan></text>
<g
       transform="translate(68.841,344.809)"
       id="g344"><path
         id="path346"
         style="fill:#ffffff;fill-opacity:1;fill-rule:nonzero;stroke:none"
         d="M 0,0 C 0,2.07 -1.68,3.75 -3.75,3.75 -5.82,3.75 -7.5,2.07 -7.5,0 c 0,-2.07 1.68,-3.75 3.75,-3.75 C -1.68,-3.75 0,-2.07 0,0" /></g><g
       transform="translate(68.841,344.809)"
       id="g348"><path
         id="path350"
         style="fill:none;stroke:#231f20;stroke-width:0.75;stroke-linecap:square;stroke-linejoin:miter;stroke-miterlimit:10;stroke-dasharray:none;stroke-opacity:1"
         d="M 0,0 C 0,2.07 -1.68,3.75 -3.75,3.75 -5.82,3.75 -7.5,2.07 -7.5,0 c 0,-2.07 1.68,-3.75 3.75,-3.75 C -1.68,-3.75 0,-2.07 0,0" /></g><text
       id="text354"
       style="font-variant:normal;font-weight:normal;font-stretch:normal;font-size:9px;font-family:Times;-inkscape-font-specification:Times-Roman;writing-mode:lr-tb;fill:#231f20;fill-opacity:1;fill-rule:nonzero;stroke:none"
       transform="matrix(1,0,0,-1,69.2388,353.0107)"><tspan
         id="tspan352"
         y="0"
         x="0 2.997 6.993 9.4949999 13.491 15.993 19.989 24.489 28.989 32.985001 35.487 39.483002 46.485001 50.480999 54.980999 57.483002">related_element</tspan></text>
<path
       id="path356"
       style="fill:#ffffff;fill-opacity:1;fill-rule:nonzero;stroke:none"
       d="m 202.5,325.688 h 111 v 15.375 h -111 z" /><g
       transform="translate(210.188,341.063)"
       id="g358"><path
         id="path360"
         style="fill:none;stroke:#231f20;stroke-width:0.75;stroke-linecap:square;stroke-linejoin:miter;stroke-miterlimit:10;stroke-dasharray:none;stroke-opacity:1"
         d="m 0,0 h 95.625 c 4.243,0 7.688,-3.444 7.688,-7.687 0,-4.244 -3.445,-7.688 -7.688,-7.688 H 0 c -4.243,0 -7.687,3.444 -7.687,7.688 C -7.687,-3.444 -4.243,0 0,0 Z" /></g><text
       id="text368"
       style="font-variant:normal;font-weight:normal;font-stretch:normal;font-size:9px;font-family:Times;-inkscape-font-specification:Times-Roman;writing-mode:lr-tb;fill:#231f20;fill-opacity:1;fill-rule:nonzero;stroke:none"
       transform="matrix(1,0,0,-1,214.9707,331.0761)"><tspan
         id="tspan362"
         y="0"
         x="0 4.5 9 11.25 13.5 18 22.5 24.75 27 30.500999 35.000999 38.997002 43.497002 47.493 51.993 55.988998 59.490002 63.990002 67.986 71.982002 74.484001">40, 54, shape_aspect</tspan><tspan
         id="tspan364"
         y="8.9765997"
         x="-89.721001 -85.221001 -80.721001 -76.221001 -71.721001 -67.221001 -63.224998 -60.228001 -57.726002 -53.73 -50.229 -47.979 -42.974998 -39.978001 -35.478001 -32.976002 -28.98 -25.983">boundaries S[1:?]</tspan><tspan
         id="tspan366"
         y="25.3953"
         x="-154.3149 -150.31889 -145.81889 -141.31889 -137.32291">zone</tspan></text>
<g
       transform="translate(16.101,165.798)"
       id="g370"><path
         id="path372"
         style="fill:#ffffff;fill-opacity:1;fill-rule:nonzero;stroke:none"
         d="M 0,0 C 0,2.071 -1.68,3.75 -3.75,3.75 -5.819,3.75 -7.5,2.071 -7.5,0 c 0,-2.069 1.681,-3.75 3.75,-3.75 C -1.68,-3.75 0,-2.069 0,0" /></g><g
       transform="translate(16.101,165.798)"
       id="g374"><path
         id="path376"
         style="fill:none;stroke:#231f20;stroke-width:0.75;stroke-linecap:square;stroke-linejoin:miter;stroke-miterlimit:10;stroke-dasharray:none;stroke-opacity:1"
         d="M 0,0 C 0,2.071 -1.68,3.75 -3.75,3.75 -5.819,3.75 -7.5,2.071 -7.5,0 c 0,-2.069 1.681,-3.75 3.75,-3.75 C -1.68,-3.75 0,-2.069 0,0" /></g><g
       transform="translate(16.101,130.608)"
       id="g378"><path
         id="path380"
         style="fill:#ffffff;fill-opacity:1;fill-rule:nonzero;stroke:none"
         d="M 0,0 C 0,2.07 -1.68,3.75 -3.75,3.75 -5.819,3.75 -7.5,2.07 -7.5,0 c 0,-2.07 1.681,-3.75 3.75,-3.75 C -1.68,-3.75 0,-2.07 0,0" /></g><g
       transform="translate(16.101,130.608)"
       id="g382"><path
         id="path384"
         style="fill:none;stroke:#231f20;stroke-width:0.75;stroke-linecap:square;stroke-linejoin:miter;stroke-miterlimit:10;stroke-dasharray:none;stroke-opacity:1"
         d="M 0,0 C 0,2.07 -1.68,3.75 -3.75,3.75 -5.819,3.75 -7.5,2.07 -7.5,0 c 0,-2.07 1.681,-3.75 3.75,-3.75 C -1.68,-3.75 0,-2.07 0,0" /></g><g
       transform="translate(67.311,61.488)"
       id="g386"><path
         id="path388"
         style="fill:#ffffff;fill-opacity:1;fill-rule:nonzero;stroke:none"
         d="M 0,0 C 0,2.07 -1.68,3.75 -3.75,3.75 -5.82,3.75 -7.5,2.07 -7.5,0 c 0,-2.069 1.68,-3.75 3.75,-3.75 C -1.68,-3.75 0,-2.069 0,0" /></g><g
       transform="translate(67.311,61.488)"
       id="g390"><path
         id="path392"
         style="fill:none;stroke:#231f20;stroke-width:0.75;stroke-linecap:square;stroke-linejoin:miter;stroke-miterlimit:10;stroke-dasharray:none;stroke-opacity:1"
         d="M 0,0 C 0,2.07 -1.68,3.75 -3.75,3.75 -5.82,3.75 -7.5,2.07 -7.5,0 c 0,-2.069 1.68,-3.75 3.75,-3.75 C -1.68,-3.75 0,-2.069 0,0" /></g><g
       transform="translate(95.841,278.208)"
       id="g394"><path
         id="path396"
         style="fill:#ffffff;fill-opacity:1;fill-rule:nonzero;stroke:none"
         d="M 0,0 C 0,2.07 -1.68,3.75 -3.75,3.75 -5.82,3.75 -7.5,2.07 -7.5,0 c 0,-2.07 1.68,-3.75 3.75,-3.75 C -1.68,-3.75 0,-2.07 0,0" /></g><g
       transform="translate(95.841,278.208)"
       id="g398"><path
         id="path400"
         style="fill:none;stroke:#231f20;stroke-width:0.75;stroke-linecap:square;stroke-linejoin:miter;stroke-miterlimit:10;stroke-dasharray:none;stroke-opacity:1"
         d="M 0,0 C 0,2.07 -1.68,3.75 -3.75,3.75 -5.82,3.75 -7.5,2.07 -7.5,0 c 0,-2.07 1.68,-3.75 3.75,-3.75 C -1.68,-3.75 0,-2.07 0,0" /></g></g></svg>