<?xml version="1.0" encoding="UTF-8" standalone="no"?>
<svg
   xmlns:dc="http://purl.org/dc/elements/1.1/"
   xmlns:cc="http://creativecommons.org/ns#"
   xmlns:rdf="http://www.w3.org/1999/02/22-rdf-syntax-ns#"
   xmlns:svg="http://www.w3.org/2000/svg"
   xmlns="http://www.w3.org/2000/svg"
   viewBox="0 0 410.29468 566.5733"
   height="566.5733"
   width="410.29468"
   xml:space="preserve"
   id="svg2"
   version="1.1"><metadata
     id="metadata8"><rdf:RDF><cc:Work
         rdf:about=""><dc:format>image/svg+xml</dc:format><dc:type
           rdf:resource="http://purl.org/dc/dcmitype/StillImage" /></cc:Work></rdf:RDF></metadata><defs
     id="defs6" /><g
     transform="matrix(1.3333333,0,0,-1.3333333,0,566.57333)"
     id="g10"><g
       transform="translate(132.039,236.551)"
       id="g12"><path
         id="path14"
         style="fill:none;stroke:#231f20;stroke-width:2.25;stroke-linecap:square;stroke-linejoin:miter;stroke-miterlimit:10;stroke-dasharray:none;stroke-opacity:1"
         d="M 0,0 0.603,-9.665" /><g
         transform="translate(0.603,-24.375)"
         id="g16"><path
           id="path18"
           style="fill:none;stroke:#231f20;stroke-width:2.25;stroke-linecap:square;stroke-linejoin:miter;stroke-miterlimit:10;stroke-dasharray:none;stroke-opacity:1"
           d="M 0,0 V 14.71" /><g
           transform="translate(0,-21)"
           id="g20"><path
             id="path22"
             style="fill:none;stroke:#231f20;stroke-width:2.25;stroke-linecap:square;stroke-linejoin:miter;stroke-miterlimit:10;stroke-dasharray:none;stroke-opacity:1"
             d="M 0,0 V 35.71" /><g
             transform="translate(0,2.25)"
             id="g24"><path
               id="path26"
               style="fill:none;stroke:#231f20;stroke-width:2.25;stroke-linecap:square;stroke-linejoin:miter;stroke-miterlimit:10;stroke-dasharray:none;stroke-opacity:1"
               d="M 0,0 V 33.46" /><g
               transform="translate(0,19.5)"
               id="g28"><path
                 id="path30"
                 style="fill:none;stroke:#231f20;stroke-width:2.25;stroke-linecap:square;stroke-linejoin:miter;stroke-miterlimit:10;stroke-dasharray:none;stroke-opacity:1"
                 d="M 0,0 V 13.96" /><g
                 transform="translate(-75.951,-114.676)"
                 id="g32"><path
                   id="path34"
                   style="fill:none;stroke:#231f20;stroke-width:2.25;stroke-linecap:square;stroke-linejoin:miter;stroke-miterlimit:10;stroke-dasharray:none;stroke-opacity:1"
                   d="M 0,0 V -9" /><g
                   transform="translate(0,-6.824)"
                   id="g36"><path
                     id="path38"
                     style="fill:none;stroke:#231f20;stroke-width:2.25;stroke-linecap:square;stroke-linejoin:miter;stroke-miterlimit:10;stroke-dasharray:none;stroke-opacity:1"
                     d="M 0,0 V -2.176" /><g
                     transform="translate(0,-21)"
                     id="g40"><path
                       id="path42"
                       style="fill:none;stroke:#231f20;stroke-width:2.25;stroke-linecap:square;stroke-linejoin:miter;stroke-miterlimit:10;stroke-dasharray:none;stroke-opacity:1"
                       d="M 0,0 V 18.824" /><g
                       transform="translate(0,-21)"
                       id="g44"><path
                         id="path46"
                         style="fill:none;stroke:#231f20;stroke-width:2.25;stroke-linecap:square;stroke-linejoin:miter;stroke-miterlimit:10;stroke-dasharray:none;stroke-opacity:1"
                         d="M 0,0 V 39.824" /><g
                         transform="translate(0,-21)"
                         id="g48"><path
                           id="path50"
                           style="fill:none;stroke:#231f20;stroke-width:2.25;stroke-linecap:square;stroke-linejoin:miter;stroke-miterlimit:10;stroke-dasharray:none;stroke-opacity:1"
                           d="M 0,0 V 60.824" /><g
                           transform="translate(0,-21)"
                           id="g52"><path
                             id="path54"
                             style="fill:none;stroke:#231f20;stroke-width:2.25;stroke-linecap:square;stroke-linejoin:miter;stroke-miterlimit:10;stroke-dasharray:none;stroke-opacity:1"
                             d="M 0,0 V 81.824" /><g
                             transform="translate(76.099,361.123)"
                             id="g56"><path
                               id="path58"
                               style="fill:none;stroke:#231f20;stroke-width:2.25;stroke-linecap:square;stroke-linejoin:miter;stroke-miterlimit:10;stroke-dasharray:none;stroke-opacity:1"
                               d="M 0,0 0.381,-18.665" /><g
                               transform="translate(0.381,-36.375)"
                               id="g60"><path
                                 id="path62"
                                 style="fill:none;stroke:#231f20;stroke-width:2.25;stroke-linecap:square;stroke-linejoin:miter;stroke-miterlimit:10;stroke-dasharray:none;stroke-opacity:1"
                                 d="M 0,0 V 17.71" /><g
                                 transform="translate(0,-18.75)"
                                 id="g64"><path
                                   id="path66"
                                   style="fill:none;stroke:#231f20;stroke-width:2.25;stroke-linecap:square;stroke-linejoin:miter;stroke-miterlimit:10;stroke-dasharray:none;stroke-opacity:1"
                                   d="M 0,0 V 36.46" /><g
                                   transform="translate(0,20.25)"
                                   id="g68"><path
                                   id="path70"
                                   style="fill:none;stroke:#231f20;stroke-width:2.25;stroke-linecap:square;stroke-linejoin:miter;stroke-miterlimit:10;stroke-dasharray:none;stroke-opacity:1"
                                   d="M 0,0 V 16.21" /><g
                                   transform="translate(0,-19.5)"
                                   id="g72"><path
                                   id="path74"
                                   style="fill:none;stroke:#231f20;stroke-width:2.25;stroke-linecap:square;stroke-linejoin:miter;stroke-miterlimit:10;stroke-dasharray:none;stroke-opacity:1"
                                   d="M 0,0 V 35.71" /><g
                                   transform="translate(-0.528,-101.998)"
                                   id="g76"><path
                                   id="path78"
                                   style="fill:none;stroke:#231f20;stroke-width:2.25;stroke-linecap:square;stroke-linejoin:miter;stroke-miterlimit:10;stroke-dasharray:none;stroke-opacity:1"
                                   d="M 0,0 H -19.545" /><g
                                   transform="translate(0,-21)"
                                   id="g80"><path
                                   id="path82"
                                   style="fill:none;stroke:#231f20;stroke-width:2.25;stroke-linecap:square;stroke-linejoin:miter;stroke-miterlimit:10;stroke-dasharray:none;stroke-opacity:1"
                                   d="M 0,0 H 23.205" /><g
                                   transform="translate(0.528,140.998)"
                                   id="g84"><path
                                   id="path86"
                                   style="fill:none;stroke:#231f20;stroke-width:2.25;stroke-linecap:square;stroke-linejoin:miter;stroke-miterlimit:10;stroke-dasharray:none;stroke-opacity:1"
                                   d="M 0,0 H 12.927" /><g
                                   transform="translate(-76.479,-240.748)"
                                   id="g88"><path
                                   id="path90"
                                   style="fill:none;stroke:#231f20;stroke-width:2.25;stroke-linecap:square;stroke-linejoin:miter;stroke-miterlimit:10;stroke-dasharray:none;stroke-opacity:1"
                                   d="M 0,0 H 7.125" /><g
                                   transform="translate(75.951,102)"
                                   id="g92"><path
                                   id="path94"
                                   style="fill:none;stroke:#231f20;stroke-width:2.25;stroke-linecap:square;stroke-linejoin:miter;stroke-miterlimit:10;stroke-dasharray:none;stroke-opacity:1"
                                   d="M 0,0 H -20.295" /><g
                                   transform="translate(-75.951,-123)"
                                   id="g96"><path
                                   id="path98"
                                   style="fill:none;stroke:#231f20;stroke-width:2.25;stroke-linecap:square;stroke-linejoin:miter;stroke-miterlimit:10;stroke-dasharray:none;stroke-opacity:1"
                                   d="M 0,0 H 7.125" /><g
                                   transform="translate(76.479,242.998)"
                                   id="g100"><path
                                   id="path102"
                                   style="fill:none;stroke:#231f20;stroke-width:2.25;stroke-linecap:square;stroke-linejoin:miter;stroke-miterlimit:10;stroke-dasharray:none;stroke-opacity:1"
                                   d="M 0,0 H 13.456" /><g
                                   transform="translate(-76.479,-263.998)"
                                   id="g104"><path
                                   id="path106"
                                   style="fill:none;stroke:#231f20;stroke-width:2.25;stroke-linecap:square;stroke-linejoin:miter;stroke-miterlimit:10;stroke-dasharray:none;stroke-opacity:1"
                                   d="M 0,0 H 7.125" /><g
                                   transform="translate(0,-21)"
                                   id="g108"><path
                                   id="path110"
                                   style="fill:none;stroke:#231f20;stroke-width:2.25;stroke-linecap:square;stroke-linejoin:miter;stroke-miterlimit:10;stroke-dasharray:none;stroke-opacity:1"
                                   d="M 0,0 H 7.125" /><g
                                   transform="translate(76.479,305.248)"
                                   id="g112"><path
                                   id="path114"
                                   style="fill:none;stroke:#231f20;stroke-width:2.25;stroke-linecap:square;stroke-linejoin:miter;stroke-miterlimit:10;stroke-dasharray:none;stroke-opacity:1"
                                   d="M 0,0 H -15.794" /><g
                                   transform="translate(0,-19.5)"
                                   id="g116"><path
                                   id="path118"
                                   style="fill:none;stroke:#231f20;stroke-width:2.25;stroke-linecap:square;stroke-linejoin:miter;stroke-miterlimit:10;stroke-dasharray:none;stroke-opacity:1"
                                   d="M 0,0 H -16.544" /><g
                                   transform="translate(-0.528,-101.248)"
                                   id="g120"><path
                                   id="path122"
                                   style="fill:none;stroke:#231f20;stroke-width:2.25;stroke-linecap:square;stroke-linejoin:miter;stroke-miterlimit:10;stroke-dasharray:none;stroke-opacity:1"
                                   d="M 0,0 H 23.205" /><g
                                   transform="translate(-75.951,-205.5)"
                                   id="g124"><path
                                   id="path126"
                                   style="fill:none;stroke:#231f20;stroke-width:2.25;stroke-linecap:square;stroke-linejoin:miter;stroke-miterlimit:10;stroke-dasharray:none;stroke-opacity:1"
                                   d="M 0,0 H 7.125" /><g
                                   transform="translate(0.078,90.824)"
                                   id="g128"><path
                                   id="path130"
                                   style="fill:none;stroke:#231f20;stroke-width:2.25;stroke-linecap:square;stroke-linejoin:miter;stroke-miterlimit:10;stroke-dasharray:none;stroke-opacity:1"
                                   d="M 0,0 V 9" /><g
                                   transform="translate(75.174,161.174)"
                                   id="g132"><path
                                   id="path134"
                                   style="fill:none;stroke:#231f20;stroke-width:2.25;stroke-linecap:square;stroke-linejoin:miter;stroke-miterlimit:10;stroke-dasharray:none;stroke-opacity:1"
                                   d="M 0,0 -0.174,6.754" /><g
                                   transform="translate(-1.132,131.989)"
                                   id="g136"><path
                                   id="path138"
                                   style="fill:none;stroke:#231f20;stroke-width:2.25;stroke-linecap:square;stroke-linejoin:miter;stroke-miterlimit:10;stroke-dasharray:none;stroke-opacity:1"
                                   d="M 0,0 1.042,14.392" /><g
                                   transform="translate(-38.166,-261.289)"
                                   id="g140"><path
                                   id="path142"
                                   style="fill:none;stroke:#231f20;stroke-width:2.25;stroke-linecap:square;stroke-linejoin:miter;stroke-miterlimit:10;stroke-dasharray:none;stroke-opacity:1"
                                   d="M 0,0 0.124,5.86" /><g
                                   transform="translate(-35.954,-31.874)"
                                   id="g144"><path
                                   id="path146"
                                   style="fill:none;stroke:#231f20;stroke-width:2.25;stroke-linecap:square;stroke-linejoin:miter;stroke-miterlimit:10;stroke-dasharray:none;stroke-opacity:1"
                                   d="M 0,0 H 0.078" /></g></g></g></g></g></g></g></g></g></g></g></g></g></g></g></g></g></g></g></g></g></g></g></g></g></g></g></g></g></g></g></g></g></g><g
       transform="translate(113.079,212.126)"
       id="g148"><path
         id="path150"
         style="fill:#ffffff;fill-opacity:1;fill-rule:nonzero;stroke:none"
         d="M 0,0 C 0,2.07 -1.68,3.75 -3.75,3.75 -5.82,3.75 -7.5,2.07 -7.5,0 c 0,-2.07 1.68,-3.75 3.75,-3.75 C -1.68,-3.75 0,-2.07 0,0" /></g><g
       transform="translate(113.079,212.126)"
       id="g152"><path
         id="path154"
         style="fill:none;stroke:#231f20;stroke-width:0.75;stroke-linecap:square;stroke-linejoin:miter;stroke-miterlimit:10;stroke-dasharray:none;stroke-opacity:1"
         d="M 0,0 C 0,2.07 -1.68,3.75 -3.75,3.75 -5.82,3.75 -7.5,2.07 -7.5,0 c 0,-2.07 1.68,-3.75 3.75,-3.75 C -1.68,-3.75 0,-2.07 0,0" /></g><g
       transform="translate(163.299,191.156)"
       id="g156"><path
         id="path158"
         style="fill:#ffffff;fill-opacity:1;fill-rule:nonzero;stroke:none"
         d="M 0,0 C 0,2.07 -1.679,3.75 -3.75,3.75 -5.819,3.75 -7.5,2.07 -7.5,0 c 0,-2.069 1.681,-3.75 3.75,-3.75 C -1.679,-3.75 0,-2.069 0,0" /></g><g
       transform="translate(163.299,191.156)"
       id="g160"><path
         id="path162"
         style="fill:none;stroke:#231f20;stroke-width:0.75;stroke-linecap:square;stroke-linejoin:miter;stroke-miterlimit:10;stroke-dasharray:none;stroke-opacity:1"
         d="M 0,0 C 0,2.07 -1.679,3.75 -3.75,3.75 -5.819,3.75 -7.5,2.07 -7.5,0 c 0,-2.069 1.681,-3.75 3.75,-3.75 C -1.679,-3.75 0,-2.069 0,0" /></g><g
       transform="translate(153.579,332.186)"
       id="g164"><path
         id="path166"
         style="fill:#ffffff;fill-opacity:1;fill-rule:nonzero;stroke:none"
         d="M 0,0 C 0,2.07 -1.68,3.75 -3.75,3.75 -5.82,3.75 -7.5,2.07 -7.5,0 c 0,-2.07 1.68,-3.75 3.75,-3.75 C -1.68,-3.75 0,-2.07 0,0" /></g><g
       transform="translate(153.579,332.186)"
       id="g168"><path
         id="path170"
         style="fill:none;stroke:#231f20;stroke-width:0.75;stroke-linecap:square;stroke-linejoin:miter;stroke-miterlimit:10;stroke-dasharray:none;stroke-opacity:1"
         d="M 0,0 C 0,2.07 -1.68,3.75 -3.75,3.75 -5.82,3.75 -7.5,2.07 -7.5,0 c 0,-2.07 1.68,-3.75 3.75,-3.75 C -1.68,-3.75 0,-2.07 0,0" /></g><g
       transform="translate(71.319,91.437)"
       id="g172"><path
         id="path174"
         style="fill:#ffffff;fill-opacity:1;fill-rule:nonzero;stroke:none"
         d="M 0,0 C 0,2.069 -1.68,3.75 -3.75,3.75 -5.82,3.75 -7.5,2.069 -7.5,0 c 0,-2.069 1.68,-3.75 3.75,-3.75 C -1.68,-3.75 0,-2.069 0,0" /></g><g
       transform="translate(71.319,91.437)"
       id="g176"><path
         id="path178"
         style="fill:none;stroke:#231f20;stroke-width:0.75;stroke-linecap:square;stroke-linejoin:miter;stroke-miterlimit:10;stroke-dasharray:none;stroke-opacity:1"
         d="M 0,0 C 0,2.069 -1.68,3.75 -3.75,3.75 -5.82,3.75 -7.5,2.069 -7.5,0 c 0,-2.069 1.68,-3.75 3.75,-3.75 C -1.68,-3.75 0,-2.069 0,0" /></g><g
       transform="translate(112.359,193.406)"
       id="g180"><path
         id="path182"
         style="fill:#ffffff;fill-opacity:1;fill-rule:nonzero;stroke:none"
         d="M 0,0 C 0,2.07 -1.68,3.75 -3.75,3.75 -5.82,3.75 -7.5,2.07 -7.5,0 c 0,-2.069 1.68,-3.75 3.75,-3.75 C -1.68,-3.75 0,-2.069 0,0" /></g><g
       transform="translate(112.359,193.406)"
       id="g184"><path
         id="path186"
         style="fill:none;stroke:#231f20;stroke-width:0.75;stroke-linecap:square;stroke-linejoin:miter;stroke-miterlimit:10;stroke-dasharray:none;stroke-opacity:1"
         d="M 0,0 C 0,2.07 -1.68,3.75 -3.75,3.75 -5.82,3.75 -7.5,2.07 -7.5,0 c 0,-2.069 1.68,-3.75 3.75,-3.75 C -1.68,-3.75 0,-2.069 0,0" /></g><g
       transform="translate(71.319,70.467)"
       id="g188"><path
         id="path190"
         style="fill:#ffffff;fill-opacity:1;fill-rule:nonzero;stroke:none"
         d="M 0,0 C 0,2.069 -1.68,3.75 -3.75,3.75 -5.82,3.75 -7.5,2.069 -7.5,0 c 0,-2.07 1.68,-3.75 3.75,-3.75 C -1.68,-3.75 0,-2.07 0,0" /></g><g
       transform="translate(71.319,70.467)"
       id="g192"><path
         id="path194"
         style="fill:none;stroke:#231f20;stroke-width:0.75;stroke-linecap:square;stroke-linejoin:miter;stroke-miterlimit:10;stroke-dasharray:none;stroke-opacity:1"
         d="M 0,0 C 0,2.069 -1.68,3.75 -3.75,3.75 -5.82,3.75 -7.5,2.069 -7.5,0 c 0,-2.07 1.68,-3.75 3.75,-3.75 C -1.68,-3.75 0,-2.07 0,0" /></g><g
       transform="translate(154.119,313.466)"
       id="g196"><path
         id="path198"
         style="fill:#ffffff;fill-opacity:1;fill-rule:nonzero;stroke:none"
         d="M 0,0 C 0,2.07 -1.68,3.75 -3.75,3.75 -5.82,3.75 -7.5,2.07 -7.5,0 c 0,-2.07 1.68,-3.749 3.75,-3.749 C -1.68,-3.749 0,-2.07 0,0" /></g><g
       transform="translate(154.119,313.466)"
       id="g200"><path
         id="path202"
         style="fill:none;stroke:#231f20;stroke-width:0.75;stroke-linecap:square;stroke-linejoin:miter;stroke-miterlimit:10;stroke-dasharray:none;stroke-opacity:1"
         d="M 0,0 C 0,2.07 -1.68,3.75 -3.75,3.75 -5.82,3.75 -7.5,2.07 -7.5,0 c 0,-2.07 1.68,-3.749 3.75,-3.749 C -1.68,-3.749 0,-2.07 0,0" /></g><g
       transform="translate(71.319,49.406)"
       id="g204"><path
         id="path206"
         style="fill:#ffffff;fill-opacity:1;fill-rule:nonzero;stroke:none"
         d="M 0,0 C 0,2.07 -1.68,3.75 -3.75,3.75 -5.82,3.75 -7.5,2.07 -7.5,0 c 0,-2.069 1.68,-3.75 3.75,-3.75 C -1.68,-3.75 0,-2.069 0,0" /></g><g
       transform="translate(71.319,49.406)"
       id="g208"><path
         id="path210"
         style="fill:none;stroke:#231f20;stroke-width:0.75;stroke-linecap:square;stroke-linejoin:miter;stroke-miterlimit:10;stroke-dasharray:none;stroke-opacity:1"
         d="M 0,0 C 0,2.07 -1.68,3.75 -3.75,3.75 -5.82,3.75 -7.5,2.07 -7.5,0 c 0,-2.069 1.68,-3.75 3.75,-3.75 C -1.68,-3.75 0,-2.069 0,0" /></g><g
       transform="translate(71.319,28.436)"
       id="g212"><path
         id="path214"
         style="fill:#ffffff;fill-opacity:1;fill-rule:nonzero;stroke:none"
         d="M 0,0 C 0,2.069 -1.68,3.75 -3.75,3.75 -5.82,3.75 -7.5,2.069 -7.5,0 c 0,-2.069 1.68,-3.75 3.75,-3.75 C -1.68,-3.75 0,-2.069 0,0" /></g><g
       transform="translate(71.319,28.436)"
       id="g216"><path
         id="path218"
         style="fill:none;stroke:#231f20;stroke-width:0.75;stroke-linecap:square;stroke-linejoin:miter;stroke-miterlimit:10;stroke-dasharray:none;stroke-opacity:1"
         d="M 0,0 C 0,2.069 -1.68,3.75 -3.75,3.75 -5.82,3.75 -7.5,2.069 -7.5,0 c 0,-2.069 1.68,-3.75 3.75,-3.75 C -1.68,-3.75 0,-2.069 0,0" /></g><g
       transform="translate(117.399,333.626)"
       id="g220"><path
         id="path222"
         style="fill:#ffffff;fill-opacity:1;fill-rule:nonzero;stroke:none"
         d="M 0,0 C 0,2.07 -1.68,3.75 -3.75,3.75 -5.82,3.75 -7.5,2.07 -7.5,0 c 0,-2.071 1.68,-3.75 3.75,-3.75 C -1.68,-3.75 0,-2.071 0,0" /></g><g
       transform="translate(117.399,333.626)"
       id="g224"><path
         id="path226"
         style="fill:none;stroke:#231f20;stroke-width:0.75;stroke-linecap:square;stroke-linejoin:miter;stroke-miterlimit:10;stroke-dasharray:none;stroke-opacity:1"
         d="M 0,0 C 0,2.07 -1.68,3.75 -3.75,3.75 -5.82,3.75 -7.5,2.07 -7.5,0 c 0,-2.071 1.68,-3.75 3.75,-3.75 C -1.68,-3.75 0,-2.071 0,0" /></g><g
       transform="translate(116.679,314.186)"
       id="g228"><path
         id="path230"
         style="fill:#ffffff;fill-opacity:1;fill-rule:nonzero;stroke:none"
         d="M 0,0 C 0,2.07 -1.68,3.75 -3.75,3.75 -5.82,3.75 -7.5,2.07 -7.5,0 c 0,-2.07 1.68,-3.75 3.75,-3.75 C -1.68,-3.75 0,-2.07 0,0" /></g><g
       transform="translate(116.679,314.186)"
       id="g232"><path
         id="path234"
         style="fill:none;stroke:#231f20;stroke-width:0.75;stroke-linecap:square;stroke-linejoin:miter;stroke-miterlimit:10;stroke-dasharray:none;stroke-opacity:1"
         d="M 0,0 C 0,2.07 -1.68,3.75 -3.75,3.75 -5.82,3.75 -7.5,2.07 -7.5,0 c 0,-2.07 1.68,-3.75 3.75,-3.75 C -1.68,-3.75 0,-2.07 0,0" /></g><g
       transform="translate(163.299,212.937)"
       id="g236"><path
         id="path238"
         style="fill:#ffffff;fill-opacity:1;fill-rule:nonzero;stroke:none"
         d="M 0,0 C 0,2.07 -1.679,3.75 -3.75,3.75 -5.819,3.75 -7.5,2.07 -7.5,0 c 0,-2.069 1.681,-3.75 3.75,-3.75 C -1.679,-3.75 0,-2.069 0,0" /></g><g
       transform="translate(163.299,212.937)"
       id="g240"><path
         id="path242"
         style="fill:none;stroke:#231f20;stroke-width:0.75;stroke-linecap:square;stroke-linejoin:miter;stroke-miterlimit:10;stroke-dasharray:none;stroke-opacity:1"
         d="M 0,0 C 0,2.07 -1.679,3.75 -3.75,3.75 -5.819,3.75 -7.5,2.07 -7.5,0 c 0,-2.069 1.681,-3.75 3.75,-3.75 C -1.679,-3.75 0,-2.069 0,0" /></g><g
       transform="translate(71.319,7.4668)"
       id="g244"><path
         id="path246"
         style="fill:#ffffff;fill-opacity:1;fill-rule:nonzero;stroke:none"
         d="M 0,0 C 0,2.0693 -1.68,3.75 -3.75,3.75 -5.82,3.75 -7.5,2.0693 -7.5,0 c 0,-2.0703 1.68,-3.75 3.75,-3.75 C -1.68,-3.75 0,-2.0703 0,0" /></g><g
       transform="translate(71.319,7.4668)"
       id="g248"><path
         id="path250"
         style="fill:none;stroke:#231f20;stroke-width:0.75;stroke-linecap:square;stroke-linejoin:miter;stroke-miterlimit:10;stroke-dasharray:none;stroke-opacity:1"
         d="M 0,0 C 0,2.0693 -1.68,3.75 -3.75,3.75 -5.82,3.75 -7.5,2.0693 -7.5,0 c 0,-2.0703 1.68,-3.75 3.75,-3.75 C -1.68,-3.75 0,-2.0703 0,0" /></g><path
       id="path252"
       style="fill:#ffffff;fill-opacity:1;fill-rule:nonzero;stroke:none"
       d="m 2.8461,205.426 h 102.75 v 15.375 H 2.8461 Z" /><g
       transform="translate(2.8461,220.801)"
       id="g254"><path
         id="path256"
         style="fill:none;stroke:#231f20;stroke-width:0.75;stroke-linecap:square;stroke-linejoin:miter;stroke-miterlimit:10;stroke-dasharray:none;stroke-opacity:1"
         d="M 102.75,0 H 0 v -15.375 h 102.75 z" /><g
         id="g258"><path
           id="path260"
           style="fill:none;stroke:#231f20;stroke-width:0.75;stroke-linecap:square;stroke-linejoin:miter;stroke-miterlimit:10;stroke-dasharray:none;stroke-opacity:1"
           d="M 0,0 Z" /></g></g><text
       id="text264"
       style="font-variant:normal;font-weight:normal;font-stretch:normal;font-size:9px;font-family:Times;-inkscape-font-specification:Times-Roman;writing-mode:lr-tb;fill:#231f20;fill-opacity:1;fill-rule:nonzero;stroke:none"
       transform="matrix(1,0,0,-1,8.4472,210.8721)"><tspan
         id="tspan262"
         y="0"
         x="0 4.5 8.4960003 12.492 16.992001 21.492001 25.992001 30.492001 33.488998 35.991001 40.491001 44.991001 49.491001 53.991001 58.491001 62.487 65.484001 69.480003 71.982002 74.484001 78.984001 83.484001">back_boring_operation</tspan></text>
<path
       id="path266"
       style="fill:#ffffff;fill-opacity:1;fill-rule:nonzero;stroke:none"
       d="m 77.657,236.551 h 105 v 15.375 h -105 z" /><g
       transform="translate(77.657,251.926)"
       id="g268"><path
         id="path270"
         style="fill:none;stroke:#231f20;stroke-width:0.75;stroke-linecap:square;stroke-linejoin:miter;stroke-miterlimit:10;stroke-dasharray:none;stroke-opacity:1"
         d="M 105,0 H 0 v -15.375 h 105 z" /><g
         id="g272"><path
           id="path274"
           style="fill:none;stroke:#231f20;stroke-width:0.75;stroke-linecap:square;stroke-linejoin:miter;stroke-miterlimit:10;stroke-dasharray:none;stroke-opacity:1"
           d="M 0,0 Z" /></g></g><text
       id="text278"
       style="font-variant:normal;font-weight:normal;font-stretch:normal;font-size:9px;font-family:Times;-inkscape-font-specification:Times-Roman;writing-mode:lr-tb;fill:#231f20;fill-opacity:1;fill-rule:nonzero;stroke:none"
       transform="matrix(1,0,0,-1,84.8877,241.9971)"><tspan
         id="tspan276"
         y="0"
         x="0 4.5 7.4970002 9.9989996 12.501 15.003 17.504999 22.004999 26.504999 31.004999 33.507 38.007 42.507 46.502998 51.002998 55.502998 60.002998 63.999001 66.996002 70.991997 73.494003 75.996002 80.496002 84.996002">drilling_type_operation</tspan></text>
<path
       id="path280"
       style="fill:#ffffff;fill-opacity:1;fill-rule:nonzero;stroke:none"
       d="m 163.346,184.426 h 81 v 15.375 h -81 z" /><g
       transform="translate(163.346,199.801)"
       id="g282"><path
         id="path284"
         style="fill:none;stroke:#231f20;stroke-width:0.75;stroke-linecap:square;stroke-linejoin:miter;stroke-miterlimit:10;stroke-dasharray:none;stroke-opacity:1"
         d="M 81,0 H 0 v -15.375 h 81 z" /><g
         id="g286"><path
           id="path288"
           style="fill:none;stroke:#231f20;stroke-width:0.75;stroke-linecap:square;stroke-linejoin:miter;stroke-miterlimit:10;stroke-dasharray:none;stroke-opacity:1"
           d="M 0,0 Z" /></g></g><text
       id="text292"
       style="font-variant:normal;font-weight:normal;font-stretch:normal;font-size:9px;font-family:Times;-inkscape-font-specification:Times-Roman;writing-mode:lr-tb;fill:#231f20;fill-opacity:1;fill-rule:nonzero;stroke:none"
       transform="matrix(1,0,0,-1,170.0781,189.8721)"><tspan
         id="tspan290"
         y="0"
         x="0 4.5 9 11.997 14.499 18.999001 23.499001 27.999001 32.499001 36.999001 40.994999 43.992001 47.987999 50.490002 52.992001 57.492001 61.992001">boring_operation</tspan></text>
<path
       id="path294"
       style="fill:#ffffff;fill-opacity:1;fill-rule:nonzero;stroke:none"
       d="m 153.596,326.173 h 153.75 v 15.375 h -153.75 z" /><g
       transform="translate(153.596,341.548)"
       id="g296"><path
         id="path298"
         style="fill:none;stroke:#231f20;stroke-width:0.75;stroke-linecap:square;stroke-linejoin:miter;stroke-miterlimit:10;stroke-dasharray:none;stroke-opacity:1"
         d="M 153.75,0 H 0 v -15.375 h 153.75 z" /><g
         id="g300"><path
           id="path302"
           style="fill:none;stroke:#231f20;stroke-width:0.75;stroke-linecap:square;stroke-linejoin:miter;stroke-miterlimit:10;stroke-dasharray:none;stroke-opacity:1"
           d="M 0,0 Z" /></g></g><text
       id="text306"
       style="font-variant:normal;font-weight:normal;font-stretch:normal;font-size:9px;font-family:Times;-inkscape-font-specification:Times-Roman;writing-mode:lr-tb;fill:#231f20;fill-opacity:1;fill-rule:nonzero;stroke:none"
       transform="matrix(1,0,0,-1,159.4394,331.6196)"><tspan
         id="tspan304"
         y="0"
         x="0 4.5 9 11.502 14.004 18.504 25.506001 30.006001 34.001999 38.501999 43.001999 47.501999 51.002998 53.505001 58.005001 62.000999 66.500999 73.502998 76.004997 78.507004 81.009003 83.511002 88.011002 92.511002 97.011002 101.511 106.011 110.007 113.004 117 119.502 122.004 126.504 131.004">bottom_and_side_milling_operation</tspan></text>
<path
       id="path308"
       style="fill:#ffffff;fill-opacity:1;fill-rule:nonzero;stroke:none"
       d="m 81.75,368.548 h 103.5 v 15.375 H 81.75 Z" /><g
       transform="translate(81.75,383.923)"
       id="g310"><path
         id="path312"
         style="fill:none;stroke:#231f20;stroke-width:0.75;stroke-linecap:square;stroke-linejoin:miter;stroke-miterlimit:10;stroke-dasharray:none;stroke-opacity:1"
         d="M 103.5,0 H 0 v -15.375 h 103.5 z" /><g
         id="g314"><path
           id="path316"
           style="fill:none;stroke:#231f20;stroke-width:0.75;stroke-linecap:square;stroke-linejoin:miter;stroke-miterlimit:10;stroke-dasharray:none;stroke-opacity:1"
           d="M 0,0 Z" /></g></g><text
       id="text320"
       style="font-variant:normal;font-weight:normal;font-stretch:normal;font-size:9px;font-family:Times;-inkscape-font-specification:Times-Roman;writing-mode:lr-tb;fill:#231f20;fill-opacity:1;fill-rule:nonzero;stroke:none"
       transform="matrix(1,0,0,-1,88.4824,373.9946)"><tspan
         id="tspan318"
         y="0"
         x="0 7.0019999 9.5039997 12.006 14.508 17.01 21.51 26.01 30.51 33.012001 37.512001 42.012001 46.007999 50.507999 55.007999 59.507999 63.504002 66.500999 70.497002 72.999001 75.500999 80.000999 84.500999">milling_type_operation</tspan></text>
<path
       id="path322"
       style="fill:#ffffff;fill-opacity:1;fill-rule:nonzero;stroke:none"
       d="m 71.315,83.625 h 138.75 V 99 H 71.315 Z" /><g
       transform="translate(71.315,99)"
       id="g324"><path
         id="path326"
         style="fill:none;stroke:#231f20;stroke-width:0.75;stroke-linecap:square;stroke-linejoin:miter;stroke-miterlimit:10;stroke-dasharray:none;stroke-opacity:1"
         d="M 138.75,0 H 0 v -15.375 h 138.75 z" /><g
         id="g328"><path
           id="path330"
           style="fill:none;stroke:#231f20;stroke-width:0.75;stroke-linecap:square;stroke-linejoin:miter;stroke-miterlimit:10;stroke-dasharray:none;stroke-opacity:1"
           d="M 0,0 Z" /></g></g><text
       id="text334"
       style="font-variant:normal;font-weight:normal;font-stretch:normal;font-size:9px;font-family:Times;-inkscape-font-specification:Times-Roman;writing-mode:lr-tb;fill:#231f20;fill-opacity:1;fill-rule:nonzero;stroke:none"
       transform="matrix(1,0,0,-1,82.1582,89.0703)"><tspan
         id="tspan332"
         y="0"
         x="0 3.9960001 8.4960003 12.996 15.498 19.997999 24.497999 27.495001 29.997 34.497002 38.997002 43.497002 45.999001 50.499001 53.495998 57.995998 60.498001 64.998001 69.498001 73.998001 78.498001 82.998001 86.994003 89.990997 93.987 96.488998 98.990997 103.491 107.991">contouring_turning_operation</tspan></text>
<path
       id="path336"
       style="fill:#ffffff;fill-opacity:1;fill-rule:nonzero;stroke:none"
       d="m 37.439,107.25 h 110.25 v 15.375 H 37.439 Z" /><g
       transform="translate(37.439,122.625)"
       id="g338"><path
         id="path340"
         style="fill:none;stroke:#231f20;stroke-width:0.75;stroke-linecap:square;stroke-linejoin:miter;stroke-miterlimit:10;stroke-dasharray:none;stroke-opacity:1"
         d="M 110.25,0 H 0 v -15.375 h 110.25 z" /><g
         id="g342"><path
           id="path344"
           style="fill:none;stroke:#231f20;stroke-width:0.75;stroke-linecap:square;stroke-linejoin:miter;stroke-miterlimit:10;stroke-dasharray:none;stroke-opacity:1"
           d="M 0,0 Z" /></g></g><text
       id="text348"
       style="font-variant:normal;font-weight:normal;font-stretch:normal;font-size:9px;font-family:Times;-inkscape-font-specification:Times-Roman;writing-mode:lr-tb;fill:#231f20;fill-opacity:1;fill-rule:nonzero;stroke:none"
       transform="matrix(1,0,0,-1,46.5385,112.6953)"><tspan
         id="tspan346"
         y="0"
         x="0 2.5020001 7.0019999 9.9989996 14.499 17.000999 21.500999 26.000999 30.500999 33.002998 37.502998 42.002998 45.999001 50.499001 54.999001 59.499001 63.494999 66.491997 70.487999 72.989998 75.491997 79.991997 84.491997">turning_type_operation</tspan></text>
<path
       id="path350"
       style="fill:#ffffff;fill-opacity:1;fill-rule:nonzero;stroke:none"
       d="m 20.096,185.176 h 84.75 v 15.375 h -84.75 z" /><g
       transform="translate(20.096,200.551)"
       id="g352"><path
         id="path354"
         style="fill:none;stroke:#231f20;stroke-width:0.75;stroke-linecap:square;stroke-linejoin:miter;stroke-miterlimit:10;stroke-dasharray:none;stroke-opacity:1"
         d="M 84.75,0 H 0 v -15.375 h 84.75 z" /><g
         id="g356"><path
           id="path358"
           style="fill:none;stroke:#231f20;stroke-width:0.75;stroke-linecap:square;stroke-linejoin:miter;stroke-miterlimit:10;stroke-dasharray:none;stroke-opacity:1"
           d="M 0,0 Z" /></g></g><text
       id="text362"
       style="font-variant:normal;font-weight:normal;font-stretch:normal;font-size:9px;font-family:Times;-inkscape-font-specification:Times-Roman;writing-mode:lr-tb;fill:#231f20;fill-opacity:1;fill-rule:nonzero;stroke:none"
       transform="matrix(1,0,0,-1,28.2085,190.6221)"><tspan
         id="tspan360"
         y="0"
         x="0 4.5 7.4970002 9.9989996 12.501 15.003 17.504999 22.004999 26.504999 31.004999 35.505001 40.005001 44.000999 46.998001 50.993999 53.495998 55.998001 60.498001 64.998001">drilling_operation</tspan></text>
<path
       id="path364"
       style="fill:#ffffff;fill-opacity:1;fill-rule:nonzero;stroke:none"
       d="m 71.315,63.375 h 119.25 V 78.75 H 71.315 Z" /><g
       transform="translate(71.315,78.75)"
       id="g366"><path
         id="path368"
         style="fill:none;stroke:#231f20;stroke-width:0.75;stroke-linecap:square;stroke-linejoin:miter;stroke-miterlimit:10;stroke-dasharray:none;stroke-opacity:1"
         d="M 119.25,0 H 0 v -15.375 h 119.25 z" /><g
         id="g370"><path
           id="path372"
           style="fill:none;stroke:#231f20;stroke-width:0.75;stroke-linecap:square;stroke-linejoin:miter;stroke-miterlimit:10;stroke-dasharray:none;stroke-opacity:1"
           d="M 0,0 Z" /></g></g><text
       id="text376"
       style="font-variant:normal;font-weight:normal;font-stretch:normal;font-size:9px;font-family:Times;-inkscape-font-specification:Times-Roman;writing-mode:lr-tb;fill:#231f20;fill-opacity:1;fill-rule:nonzero;stroke:none"
       transform="matrix(1,0,0,-1,81.413,68.7764)"><tspan
         id="tspan374"
         y="0"
         x="0 2.9070001 6.9029999 10.899 13.401 17.900999 22.400999 26.900999 29.403 33.903 36.900002 41.400002 43.902 48.402 52.902 57.402 61.902 66.402 70.398003 73.394997 77.390999 79.892998 82.394997 86.894997 91.394997">facing_turning_operation</tspan></text>
<path
       id="path378"
       style="fill:#ffffff;fill-opacity:1;fill-rule:nonzero;stroke:none"
       d="m 154.125,305.173 h 121.5 v 15.375 h -121.5 z" /><g
       transform="translate(154.125,320.548)"
       id="g380"><path
         id="path382"
         style="fill:none;stroke:#231f20;stroke-width:0.75;stroke-linecap:square;stroke-linejoin:miter;stroke-miterlimit:10;stroke-dasharray:none;stroke-opacity:1"
         d="M 121.5,0 H 0 v -15.375 h 121.5 z" /><g
         id="g384"><path
           id="path386"
           style="fill:none;stroke:#231f20;stroke-width:0.75;stroke-linecap:square;stroke-linejoin:miter;stroke-miterlimit:10;stroke-dasharray:none;stroke-opacity:1"
           d="M 0,0 Z" /></g></g><text
       id="text390"
       style="font-variant:normal;font-weight:normal;font-stretch:normal;font-size:9px;font-family:Times;-inkscape-font-specification:Times-Roman;writing-mode:lr-tb;fill:#231f20;fill-opacity:1;fill-rule:nonzero;stroke:none"
       transform="matrix(1,0,0,-1,161.6084,310.5752)"><tspan
         id="tspan388"
         y="0"
         x="0 2.997 5.994 9.9899998 13.986 16.983 21.483 24.48 31.482 35.981998 42.984001 45.486 47.987999 50.490002 52.992001 57.492001 61.992001 66.491997 70.991997 75.491997 79.487999 82.485001 86.481003 88.983002 91.485001 95.985001 100.485">freeform_milling_operation</tspan></text>
<path
       id="path392"
       style="fill:#ffffff;fill-opacity:1;fill-rule:nonzero;stroke:none"
       d="m 71.315,42.375 h 132 V 57.75 h -132 z" /><g
       transform="translate(71.315,57.75)"
       id="g394"><path
         id="path396"
         style="fill:none;stroke:#231f20;stroke-width:0.75;stroke-linecap:square;stroke-linejoin:miter;stroke-miterlimit:10;stroke-dasharray:none;stroke-opacity:1"
         d="M 132,0 H 0 v -15.375 h 132 z" /><g
         id="g398"><path
           id="path400"
           style="fill:none;stroke:#231f20;stroke-width:0.75;stroke-linecap:square;stroke-linejoin:miter;stroke-miterlimit:10;stroke-dasharray:none;stroke-opacity:1"
           d="M 0,0 Z" /></g></g><text
       id="text404"
       style="font-variant:normal;font-weight:normal;font-stretch:normal;font-size:9px;font-family:Times;-inkscape-font-specification:Times-Roman;writing-mode:lr-tb;fill:#231f20;fill-opacity:1;fill-rule:nonzero;stroke:none"
       transform="matrix(1,0,0,-1,82.5366,47.8203)"><tspan
         id="tspan402"
         y="0"
         x="0 4.5 7.4970002 11.997 16.362 20.862 23.364 27.864 32.363998 36.863998 39.366001 43.866001 46.862999 51.362999 53.865002 58.365002 62.865002 67.364998 71.864998 76.364998 80.361 83.358002 87.353996 89.856003 92.358002 96.858002 101.358">grooving_turning_operation</tspan></text>
<path
       id="path406"
       style="fill:#ffffff;fill-opacity:1;fill-rule:nonzero;stroke:none"
       d="m 71.315,20.625 h 128.25 V 36 H 71.315 Z" /><g
       transform="translate(71.315,36)"
       id="g408"><path
         id="path410"
         style="fill:none;stroke:#231f20;stroke-width:0.75;stroke-linecap:square;stroke-linejoin:miter;stroke-miterlimit:10;stroke-dasharray:none;stroke-opacity:1"
         d="M 128.25,0 H 0 v -15.375 h 128.25 z" /><g
         id="g412"><path
           id="path414"
           style="fill:none;stroke:#231f20;stroke-width:0.75;stroke-linecap:square;stroke-linejoin:miter;stroke-miterlimit:10;stroke-dasharray:none;stroke-opacity:1"
           d="M 0,0 Z" /></g></g><text
       id="text418"
       style="font-variant:normal;font-weight:normal;font-stretch:normal;font-size:9px;font-family:Times;-inkscape-font-specification:Times-Roman;writing-mode:lr-tb;fill:#231f20;fill-opacity:1;fill-rule:nonzero;stroke:none"
       transform="matrix(1,0,0,-1,82.1645,26.0703)"><tspan
         id="tspan416"
         y="0"
         x="0 4.5 9 13.5 16.497 18.999001 21.500999 26.000999 30.500999 35.000999 37.502998 42.002998 45 49.5 52.001999 56.501999 61.001999 65.501999 70.001999 74.501999 78.498001 81.495003 85.490997 87.992996 90.495003 94.995003 99.495003">knurling_turning_operation</tspan></text>
<path
       id="path420"
       style="fill:#ffffff;fill-opacity:1;fill-rule:nonzero;stroke:none"
       d="m 0.375,325.798 h 109.5 v 15.375 H 0.375 Z" /><g
       transform="translate(0.375,341.173)"
       id="g422"><path
         id="path424"
         style="fill:none;stroke:#231f20;stroke-width:0.75;stroke-linecap:square;stroke-linejoin:miter;stroke-miterlimit:10;stroke-dasharray:none;stroke-opacity:1"
         d="M 109.5,0 H 0 v -15.375 h 109.5 z" /><g
         id="g426"><path
           id="path428"
           style="fill:none;stroke:#231f20;stroke-width:0.75;stroke-linecap:square;stroke-linejoin:miter;stroke-miterlimit:10;stroke-dasharray:none;stroke-opacity:1"
           d="M 0,0 Z" /></g></g><text
       id="text432"
       style="font-variant:normal;font-weight:normal;font-stretch:normal;font-size:9px;font-family:Times;-inkscape-font-specification:Times-Roman;writing-mode:lr-tb;fill:#231f20;fill-opacity:1;fill-rule:nonzero;stroke:none"
       transform="matrix(1,0,0,-1,7.6054,331.2446)"><tspan
         id="tspan430"
         y="0"
         x="0 4.5 7.0019999 10.998 15.498 19.493999 23.993999 30.996 33.498001 36 38.501999 41.004002 45.504002 50.004002 54.504002 59.004002 63.504002 67.5 70.497002 74.492996 76.995003 79.497002 83.997002 88.497002">plane_milling_operation</tspan></text>
<path
       id="path434"
       style="fill:#ffffff;fill-opacity:1;fill-rule:nonzero;stroke:none"
       d="m 5.625,304.798 h 103.5 v 15.375 H 5.625 Z" /><g
       transform="translate(5.625,320.173)"
       id="g436"><path
         id="path438"
         style="fill:none;stroke:#231f20;stroke-width:0.75;stroke-linecap:square;stroke-linejoin:miter;stroke-miterlimit:10;stroke-dasharray:none;stroke-opacity:1"
         d="M 103.5,0 H 0 v -15.375 h 103.5 z" /><g
         id="g440"><path
           id="path442"
           style="fill:none;stroke:#231f20;stroke-width:0.75;stroke-linecap:square;stroke-linejoin:miter;stroke-miterlimit:10;stroke-dasharray:none;stroke-opacity:1"
           d="M 0,0 Z" /></g></g><text
       id="text446"
       style="font-variant:normal;font-weight:normal;font-stretch:normal;font-size:9px;font-family:Times;-inkscape-font-specification:Times-Roman;writing-mode:lr-tb;fill:#231f20;fill-opacity:1;fill-rule:nonzero;stroke:none"
       transform="matrix(1,0,0,-1,12.6093,310.2446)"><tspan
         id="tspan444"
         y="0"
         x="0 3.5009999 6.0029998 10.503 14.499 18.999001 26.000999 28.503 31.004999 33.507 36.008999 40.508999 45.008999 49.508999 54.008999 58.508999 62.505001 65.501999 69.498001 72 74.501999 79.001999 83.501999">side_milling_operation</tspan></text>
<path
       id="path448"
       style="fill:#ffffff;fill-opacity:1;fill-rule:nonzero;stroke:none"
       d="m 163.346,203.926 h 84.75 v 15.375 h -84.75 z" /><g
       transform="translate(163.346,219.301)"
       id="g450"><path
         id="path452"
         style="fill:none;stroke:#231f20;stroke-width:0.75;stroke-linecap:square;stroke-linejoin:miter;stroke-miterlimit:10;stroke-dasharray:none;stroke-opacity:1"
         d="M 84.75,0 H 0 v -15.375 h 84.75 z" /><g
         id="g454"><path
           id="path456"
           style="fill:none;stroke:#231f20;stroke-width:0.75;stroke-linecap:square;stroke-linejoin:miter;stroke-miterlimit:10;stroke-dasharray:none;stroke-opacity:1"
           d="M 0,0 Z" /></g></g><text
       id="text460"
       style="font-variant:normal;font-weight:normal;font-stretch:normal;font-size:9px;font-family:Times;-inkscape-font-specification:Times-Roman;writing-mode:lr-tb;fill:#231f20;fill-opacity:1;fill-rule:nonzero;stroke:none"
       transform="matrix(1,0,0,-1,169.6992,209.3721)"><tspan
         id="tspan458"
         y="0"
         x="0 2.5020001 6.4980001 10.998 15.498 18 22.5 27 31.5 36 40.5 44.495998 47.493 51.488998 53.991001 56.493 60.993 65.492996">tapping_operation</tspan></text>
<path
       id="path462"
       style="fill:#ffffff;fill-opacity:1;fill-rule:nonzero;stroke:none"
       d="m 71.315,0.37502 h 133.5 v 15.375 h -133.5 z" /><g
       transform="translate(71.315,15.75)"
       id="g464"><path
         id="path466"
         style="fill:none;stroke:#231f20;stroke-width:0.75;stroke-linecap:square;stroke-linejoin:miter;stroke-miterlimit:10;stroke-dasharray:none;stroke-opacity:1"
         d="M 133.5,0 H 0 v -15.375 h 133.5 z" /><g
         id="g468"><path
           id="path470"
           style="fill:none;stroke:#231f20;stroke-width:0.75;stroke-linecap:square;stroke-linejoin:miter;stroke-miterlimit:10;stroke-dasharray:none;stroke-opacity:1"
           d="M 0,0 Z" /></g></g><text
       id="text474"
       style="font-variant:normal;font-weight:normal;font-stretch:normal;font-size:9px;font-family:Times;-inkscape-font-specification:Times-Roman;writing-mode:lr-tb;fill:#231f20;fill-opacity:1;fill-rule:nonzero;stroke:none"
       transform="matrix(1,0,0,-1,81.7832,5.8203)"><tspan
         id="tspan472"
         y="0"
         x="0 2.5020001 7.0019999 9.9989996 13.995 17.990999 22.490999 24.993 29.493 33.993 38.493 40.994999 45.494999 48.492001 52.992001 55.493999 59.993999 64.494003 68.994003 73.494003 77.994003 81.989998 84.987 88.983002 91.485001 93.987 98.487 102.987">threading_turning_operation</tspan></text>
<path
       id="path476"
       style="fill:#ffffff;fill-opacity:1;fill-rule:nonzero;stroke:none"
       d="m 105.518,266.178 h 52.5 v 18.75 h -52.5 z" /><g
       transform="translate(114.893,284.928)"
       id="g478"><path
         id="path480"
         style="fill:none;stroke:#231f20;stroke-width:0.75;stroke-linecap:square;stroke-linejoin:miter;stroke-miterlimit:10;stroke-dasharray:none;stroke-opacity:1"
         d="m 0,0 h 33.75 c 5.175,0 9.375,-4.2 9.375,-9.375 0,-5.175 -4.2,-9.375 -9.375,-9.375 H 0 c -5.175,0 -9.375,4.2 -9.375,9.375 C -9.375,-4.2 -5.175,0 0,0 Z" /></g><text
       id="text484"
       style="font-variant:normal;font-weight:normal;font-stretch:normal;font-size:9px;font-family:Times;-inkscape-font-specification:Times-Roman;writing-mode:lr-tb;fill:#231f20;fill-opacity:1;fill-rule:nonzero;stroke:none"
       transform="matrix(1,0,0,-1,117.5117,273.1855)"><tspan
         id="tspan482"
         y="0"
         x="0 4.5 6.75 9 13.5 15.75 18.747 23.247 26.243999">2, 0 (1)</tspan></text>
<g
       transform="translate(135.759,255.687)"
       id="g486"><path
         id="path488"
         style="fill:#ffffff;fill-opacity:1;fill-rule:nonzero;stroke:none"
         d="M 0,0 C 0,2.07 -1.68,3.75 -3.75,3.75 -5.82,3.75 -7.5,2.07 -7.5,0 c 0,-2.07 1.68,-3.75 3.75,-3.75 C -1.68,-3.75 0,-2.07 0,0" /></g><g
       transform="translate(135.759,255.687)"
       id="g490"><path
         id="path492"
         style="fill:none;stroke:#231f20;stroke-width:0.75;stroke-linecap:square;stroke-linejoin:miter;stroke-miterlimit:10;stroke-dasharray:none;stroke-opacity:1"
         d="M 0,0 C 0,2.07 -1.68,3.75 -3.75,3.75 -5.82,3.75 -7.5,2.07 -7.5,0 c 0,-2.07 1.68,-3.75 3.75,-3.75 C -1.68,-3.75 0,-2.07 0,0" /></g><path
       id="path494"
       style="fill:#ffffff;fill-opacity:1;fill-rule:nonzero;stroke:none"
       d="m 105.601,405.805 h 52.5 v 18.75 h -52.5 z" /><g
       transform="translate(114.976,424.555)"
       id="g496"><path
         id="path498"
         style="fill:none;stroke:#231f20;stroke-width:0.75;stroke-linecap:square;stroke-linejoin:miter;stroke-miterlimit:10;stroke-dasharray:none;stroke-opacity:1"
         d="m 0,0 h 33.75 c 5.175,0 9.375,-4.2 9.375,-9.375 0,-5.174 -4.2,-9.375 -9.375,-9.375 H 0 c -5.175,0 -9.375,4.201 -9.375,9.375 C -9.375,-4.2 -5.175,0 0,0 Z" /></g><text
       id="text502"
       style="font-variant:normal;font-weight:normal;font-stretch:normal;font-size:9px;font-family:Times;-inkscape-font-specification:Times-Roman;writing-mode:lr-tb;fill:#231f20;fill-opacity:1;fill-rule:nonzero;stroke:none"
       transform="matrix(1,0,0,-1,117.5952,412.8135)"><tspan
         id="tspan500"
         y="0"
         x="0 4.5 6.75 9 13.5 15.75 18.747 23.247 26.243999">2, 0 (1)</tspan></text>
<g
       transform="translate(134.319,387.626)"
       id="g504"><path
         id="path506"
         style="fill:#ffffff;fill-opacity:1;fill-rule:nonzero;stroke:none"
         d="M 0,0 C 0,2.07 -1.68,3.75 -3.75,3.75 -5.82,3.75 -7.5,2.07 -7.5,0 c 0,-2.071 1.68,-3.75 3.75,-3.75 C -1.68,-3.75 0,-2.071 0,0" /></g><g
       transform="translate(134.319,387.626)"
       id="g508"><path
         id="path510"
         style="fill:none;stroke:#231f20;stroke-width:0.75;stroke-linecap:square;stroke-linejoin:miter;stroke-miterlimit:10;stroke-dasharray:none;stroke-opacity:1"
         d="M 0,0 C 0,2.07 -1.68,3.75 -3.75,3.75 -5.82,3.75 -7.5,2.07 -7.5,0 c 0,-2.071 1.68,-3.75 3.75,-3.75 C -1.68,-3.75 0,-2.071 0,0" /></g><path
       id="path512"
       style="fill:#ffffff;fill-opacity:1;fill-rule:nonzero;stroke:none"
       d="m 66.518,135.984 h 52.5 v 18.75 h -52.5 z" /><g
       transform="translate(75.893,154.734)"
       id="g514"><path
         id="path516"
         style="fill:none;stroke:#231f20;stroke-width:0.75;stroke-linecap:square;stroke-linejoin:miter;stroke-miterlimit:10;stroke-dasharray:none;stroke-opacity:1"
         d="m 0,0 h 33.75 c 5.175,0 9.375,-4.2 9.375,-9.375 0,-5.176 -4.2,-9.375 -9.375,-9.375 H 0 c -5.175,0 -9.375,4.199 -9.375,9.375 C -9.375,-4.2 -5.175,0 0,0 Z" /></g><text
       id="text520"
       style="font-variant:normal;font-weight:normal;font-stretch:normal;font-size:9px;font-family:Times;-inkscape-font-specification:Times-Roman;writing-mode:lr-tb;fill:#231f20;fill-opacity:1;fill-rule:nonzero;stroke:none"
       transform="matrix(1,0,0,-1,78.5117,142.9922)"><tspan
         id="tspan518"
         y="0"
         x="0 4.5 6.75 9 13.5 15.75 18.747 23.247 26.243999">2, 0 (1)</tspan></text>
<g
       transform="translate(96.339,126.356)"
       id="g522"><path
         id="path524"
         style="fill:#ffffff;fill-opacity:1;fill-rule:nonzero;stroke:none"
         d="M 0,0 C 0,2.069 -1.68,3.75 -3.75,3.75 -5.82,3.75 -7.5,2.069 -7.5,0 c 0,-2.07 1.68,-3.75 3.75,-3.75 C -1.68,-3.75 0,-2.07 0,0" /></g><g
       transform="translate(96.339,126.356)"
       id="g526"><path
         id="path528"
         style="fill:none;stroke:#231f20;stroke-width:0.75;stroke-linecap:square;stroke-linejoin:miter;stroke-miterlimit:10;stroke-dasharray:none;stroke-opacity:1"
         d="M 0,0 C 0,2.069 -1.68,3.75 -3.75,3.75 -5.82,3.75 -7.5,2.069 -7.5,0 c 0,-2.07 1.68,-3.75 3.75,-3.75 C -1.68,-3.75 0,-2.07 0,0" /></g></g></svg>