<?xml version="1.0" encoding="UTF-8" standalone="no"?>
<svg
   xmlns:dc="http://purl.org/dc/elements/1.1/"
   xmlns:cc="http://creativecommons.org/ns#"
   xmlns:rdf="http://www.w3.org/1999/02/22-rdf-syntax-ns#"
   xmlns:svg="http://www.w3.org/2000/svg"
   xmlns="http://www.w3.org/2000/svg"
   viewBox="0 0 461.50668 533.25067"
   height="533.25067"
   width="461.50668"
   xml:space="preserve"
   id="svg2"
   version="1.1"><metadata
     id="metadata8"><rdf:RDF><cc:Work
         rdf:about=""><dc:format>image/svg+xml</dc:format><dc:type
           rdf:resource="http://purl.org/dc/dcmitype/StillImage" /></cc:Work></rdf:RDF></metadata><defs
     id="defs6" /><g
     transform="matrix(1.3333333,0,0,-1.3333333,0,533.25067)"
     id="g10"><g
       transform="translate(268.306,218.808)"
       id="g12"><path
         id="path14"
         style="fill:none;stroke:#231f20;stroke-width:2.25;stroke-linecap:square;stroke-linejoin:miter;stroke-miterlimit:10;stroke-dasharray:none;stroke-opacity:1"
         d="M 0,0 0.502,10.425" /><g
         transform="translate(-205.616,0.754)"
         id="g16"><path
           id="path18"
           style="fill:none;stroke:#231f20;stroke-width:2.25;stroke-linecap:square;stroke-linejoin:miter;stroke-miterlimit:10;stroke-dasharray:none;stroke-opacity:1"
           d="M 0,0 0.186,10.875" /><g
           transform="translate(101.936,154.5)"
           id="g20"><path
             id="path22"
             style="fill:none;stroke:#231f20;stroke-width:2.25;stroke-linecap:square;stroke-linejoin:miter;stroke-miterlimit:10;stroke-dasharray:none;stroke-opacity:1"
             d="M 0,0 V 10.125" /></g></g></g><g
       transform="translate(245.625,166.46)"
       id="g24"><path
         id="path26"
         style="fill:none;stroke:#231f20;stroke-width:0.75;stroke-linecap:square;stroke-linejoin:miter;stroke-miterlimit:10;stroke-dasharray:none;stroke-opacity:1"
         d="M 0,0 V 20.103" /><g
         id="g28"><path
           id="path30"
           style="fill:none;stroke:#231f20;stroke-width:0.75;stroke-linecap:square;stroke-linejoin:miter;stroke-miterlimit:10;stroke-dasharray:none;stroke-opacity:1"
           d="M 0,0 H -54" /><g
           transform="translate(-183,0.375)"
           id="g32"><path
             id="path34"
             style="fill:none;stroke:#231f20;stroke-width:0.75;stroke-linecap:square;stroke-linejoin:miter;stroke-miterlimit:10;stroke-dasharray:none;stroke-opacity:1"
             d="M 0,0 V 20.478" /><g
             id="g36"><path
               id="path38"
               style="fill:none;stroke:#231f20;stroke-width:0.75;stroke-linecap:square;stroke-linejoin:miter;stroke-miterlimit:10;stroke-dasharray:none;stroke-opacity:1"
               d="M 0,0 H 105" /><g
               transform="translate(-36.782,52.728)"
               id="g40"><path
                 id="path42"
                 style="fill:none;stroke:#231f20;stroke-width:0.75;stroke-linecap:square;stroke-linejoin:miter;stroke-miterlimit:10;stroke-dasharray:none;stroke-opacity:1"
                 d="M 0,0 -0.718,84.375" /></g></g></g></g></g><g
       transform="translate(129.375,291.188)"
       id="g44"><path
         id="path46"
         style="fill:none;stroke:#231f20;stroke-width:2.25;stroke-linecap:square;stroke-linejoin:miter;stroke-miterlimit:10;stroke-dasharray:none;stroke-opacity:1"
         d="M 0,0 V 13.875" /></g><g
       transform="translate(189.005,276)"
       id="g48"><path
         id="path50"
         style="fill:none;stroke:#231f20;stroke-width:0.75;stroke-linecap:square;stroke-linejoin:miter;stroke-miterlimit:10;stroke-dasharray:none;stroke-opacity:1"
         d="M 0,0 H 82.5" /><g
         transform="translate(14.62,38.625)"
         id="g52"><path
           id="path54"
           style="fill:none;stroke:#231f20;stroke-width:0.75;stroke-linecap:square;stroke-linejoin:miter;stroke-miterlimit:10;stroke-dasharray:none;stroke-opacity:1"
           d="M 0,0 V 27.187" /><g
           transform="translate(-32.25,-23.437)"
           id="g56"><path
             id="path58"
             style="fill:none;stroke:#231f20;stroke-width:0.75;stroke-linecap:square;stroke-linejoin:miter;stroke-miterlimit:10;stroke-dasharray:none;stroke-opacity:1"
             d="M 0,0 V 23.438 H 32.25" /><g
             transform="translate(-79.5,62.625)"
             id="g60"><path
               id="path62"
               style="fill:none;stroke:#231f20;stroke-width:0.75;stroke-linecap:square;stroke-linejoin:miter;stroke-miterlimit:10;stroke-dasharray:none;stroke-opacity:1"
               d="M 0,0 H -68.25 V -34.5" /><g
               transform="translate(99.75,-187.352)"
               id="g64"><path
                 id="path66"
                 style="fill:none;stroke:#231f20;stroke-width:0.75;stroke-linecap:square;stroke-linejoin:miter;stroke-miterlimit:10;stroke-dasharray:none;stroke-opacity:1"
                 d="M 0,0 V -16.352" /><g
                 transform="translate(-24,0.375)"
                 id="g68"><path
                   id="path70"
                   style="fill:none;stroke:#231f20;stroke-width:0.75;stroke-linecap:square;stroke-linejoin:miter;stroke-miterlimit:10;stroke-dasharray:none;stroke-opacity:1"
                   d="M 0,0 V -16.727" /><g
                   transform="translate(-26.317,-31.914)"
                   id="g72"><path
                     id="path74"
                     style="fill:none;stroke:#231f20;stroke-width:0.75;stroke-linecap:square;stroke-linejoin:miter;stroke-miterlimit:10;stroke-dasharray:none;stroke-opacity:1"
                     d="M 0,0 H -22.5" /><g
                     transform="translate(76.5)"
                     id="g76"><path
                       id="path78"
                       style="fill:none;stroke:#231f20;stroke-width:0.75;stroke-linecap:square;stroke-linejoin:miter;stroke-miterlimit:10;stroke-dasharray:none;stroke-opacity:1"
                       d="M 0,0 H 22.5" /></g></g></g></g></g></g></g></g><g
       transform="translate(303.84,65.25)"
       id="g80"><path
         id="path82"
         style="fill:none;stroke:#231f20;stroke-width:2.25;stroke-linecap:square;stroke-linejoin:miter;stroke-miterlimit:10;stroke-dasharray:none;stroke-opacity:1"
         d="M 0,0 V 11.25" /></g><g
       transform="translate(252.465,40.5)"
       id="g84"><path
         id="path86"
         style="fill:none;stroke:#231f20;stroke-width:0.75;stroke-linecap:square;stroke-linejoin:miter;stroke-miterlimit:10;stroke-dasharray:none;stroke-opacity:1"
         d="M 0,0 V -24.75" /></g><g
       transform="translate(52.198,65.438)"
       id="g88"><path
         id="path90"
         style="fill:none;stroke:#231f20;stroke-width:2.25;stroke-linecap:square;stroke-linejoin:miter;stroke-miterlimit:10;stroke-dasharray:none;stroke-opacity:1"
         d="M 0,0 0.307,15.75" /></g><g
       transform="translate(57.38,40.687)"
       id="g92"><path
         id="path94"
         style="fill:none;stroke:#231f20;stroke-width:0.75;stroke-linecap:square;stroke-linejoin:miter;stroke-miterlimit:10;stroke-dasharray:none;stroke-opacity:1"
         d="M 0,0 V -24.75" /><g
         transform="translate(65.245,53.772)"
         id="g96"><path
           id="path98"
           style="fill:none;stroke:#231f20;stroke-width:0.75;stroke-linecap:square;stroke-linejoin:miter;stroke-miterlimit:10;stroke-dasharray:none;stroke-opacity:1"
           d="M 0,0 H 45.75" /><g
           transform="translate(0,-29.022)"
           id="g100"><path
             id="path102"
             style="fill:none;stroke:#231f20;stroke-width:0.75;stroke-linecap:square;stroke-linejoin:miter;stroke-miterlimit:10;stroke-dasharray:none;stroke-opacity:1"
             d="M 0,0 V 29.022" /><g
             transform="translate(45.75,29.022)"
             id="g104"><path
               id="path106"
               style="fill:none;stroke:#231f20;stroke-width:0.75;stroke-linecap:square;stroke-linejoin:miter;stroke-miterlimit:10;stroke-dasharray:none;stroke-opacity:1"
               d="M 0,0 V 32.773" /><g
               transform="translate(25.5,-0.094)"
               id="g108"><path
                 id="path110"
                 style="fill:none;stroke:#231f20;stroke-width:0.75;stroke-linecap:square;stroke-linejoin:miter;stroke-miterlimit:10;stroke-dasharray:none;stroke-opacity:1"
                 d="M 0,0 V 32.867" /><g
                 transform="translate(40.215,-29.116)"
                 id="g112"><path
                   id="path114"
                   style="fill:none;stroke:#231f20;stroke-width:0.75;stroke-linecap:square;stroke-linejoin:miter;stroke-miterlimit:10;stroke-dasharray:none;stroke-opacity:1"
                   d="M 0,0 V 29.116 H -40.215" /></g></g></g></g></g></g><path
       id="path116"
       style="fill:#ffffff;fill-opacity:1;fill-rule:nonzero;stroke:none"
       d="m 232.808,229.233 h 72 v 15.375 h -72 z" /><g
       transform="translate(240.495,244.608)"
       id="g118"><path
         id="path120"
         style="fill:none;stroke:#231f20;stroke-width:0.75;stroke-linecap:square;stroke-linejoin:miter;stroke-miterlimit:10;stroke-dasharray:none;stroke-opacity:1"
         d="m 0,0 h 56.625 c 4.244,0 7.688,-3.444 7.688,-7.687 0,-4.244 -3.444,-7.688 -7.688,-7.688 H 0 c -4.243,0 -7.687,3.444 -7.687,7.688 C -7.687,-3.444 -4.243,0 0,0 Z" /></g><text
       id="text124"
       style="font-variant:normal;font-weight:normal;font-stretch:normal;font-size:9px;font-family:Times;-inkscape-font-specification:Times-Roman;writing-mode:lr-tb;fill:#231f20;fill-opacity:1;fill-rule:nonzero;stroke:none"
       transform="matrix(1,0,0,-1,244.5439,234.5538)"><tspan
         id="tspan122"
         y="0"
         x="0 4.5 9 11.25 13.5 18 22.5 27 29.25 32.247002 36.747002 41.247002 44.243999">39, 285 (24)</tspan></text>
<path
       id="path126"
       style="fill:#ffffff;fill-opacity:1;fill-rule:nonzero;stroke:none"
       d="M 30.25,230.438 H 95.5 v 15.375 H 30.25 Z" /><g
       transform="translate(37.938,245.813)"
       id="g128"><path
         id="path130"
         style="fill:none;stroke:#231f20;stroke-width:0.75;stroke-linecap:square;stroke-linejoin:miter;stroke-miterlimit:10;stroke-dasharray:none;stroke-opacity:1"
         d="m 0,0 h 49.875 c 4.244,0 7.687,-3.444 7.687,-7.687 0,-4.244 -3.443,-7.688 -7.687,-7.688 H 0 c -4.243,0 -7.687,3.444 -7.687,7.688 C -7.687,-3.444 -4.243,0 0,0 Z" /></g><text
       id="text134"
       style="font-variant:normal;font-weight:normal;font-stretch:normal;font-size:9px;font-family:Times;-inkscape-font-specification:Times-Roman;writing-mode:lr-tb;fill:#231f20;fill-opacity:1;fill-rule:nonzero;stroke:none"
       transform="matrix(1,0,0,-1,38.6113,235.7583)"><tspan
         id="tspan132"
         y="0"
         x="0 4.5 9 11.25 13.5 18 22.5 27 29.25 32.247002 36.747002 41.247002 44.243999">39, 287 (24)</tspan></text>
<path
       id="path136"
       style="fill:#ffffff;fill-opacity:1;fill-rule:nonzero;stroke:none"
       d="m 132,384.187 h 65.25 v 15.375 H 132 Z" /><g
       transform="translate(139.688,399.562)"
       id="g138"><path
         id="path140"
         style="fill:none;stroke:#231f20;stroke-width:0.75;stroke-linecap:square;stroke-linejoin:miter;stroke-miterlimit:10;stroke-dasharray:none;stroke-opacity:1"
         d="m 0,0 h 49.875 c 4.244,0 7.688,-3.444 7.688,-7.687 0,-4.244 -3.444,-7.688 -7.688,-7.688 H 0 c -4.243,0 -7.687,3.444 -7.687,7.688 C -7.687,-3.444 -4.243,0 0,0 Z" /></g><text
       id="text144"
       style="font-variant:normal;font-weight:normal;font-stretch:normal;font-size:9px;font-family:Times;-inkscape-font-specification:Times-Roman;writing-mode:lr-tb;fill:#231f20;fill-opacity:1;fill-rule:nonzero;stroke:none"
       transform="matrix(1,0,0,-1,140.3613,389.5083)"><tspan
         id="tspan142"
         y="0"
         x="0 4.5 9 11.25 13.5 18 22.5 27 29.25 32.247002 36.747002 41.247002 44.243999">39, 288 (24)</tspan></text>
<path
       id="path146"
       style="fill:#ffffff;fill-opacity:1;fill-rule:nonzero;stroke:none"
       d="m 0.37502,303.938 h 80.25 v 15.375 h -80.25 z" /><path
       id="path148"
       style="fill:none;stroke:#231f20;stroke-width:0.75;stroke-linecap:square;stroke-linejoin:miter;stroke-miterlimit:10;stroke-dasharray:3.75, 3.75;stroke-dashoffset:0;stroke-opacity:1"
       d="M 0.37502,319.312 V 303.938 H 80.625 v 15.374 z" /><path
       id="path150"
       style="fill:none;stroke:#231f20;stroke-width:0.75;stroke-linecap:square;stroke-linejoin:miter;stroke-miterlimit:10;stroke-dasharray:3.75, 3.75;stroke-dashoffset:0;stroke-opacity:1"
       d="m 7.875,303.938 v 15.374" /><text
       id="text154"
       style="font-variant:normal;font-weight:normal;font-stretch:normal;font-size:9px;font-family:Times;-inkscape-font-specification:Times-Roman;writing-mode:lr-tb;fill:#231f20;fill-opacity:1;fill-rule:nonzero;stroke:none"
       transform="matrix(1,0,0,-1,9.7441,308.9122)"><tspan
         id="tspan152"
         y="0"
         x="0 6.4980001 9 11.997 15.993 18.99 21.987 25.983 32.985001 36.980999 41.480999 48.483002 52.983002 57.483002 61.479 63.980999">wireframe_model</tspan></text>
<path
       id="path156"
       style="fill:#ffffff;fill-opacity:1;fill-rule:nonzero;stroke:none"
       d="m 204.471,186.563 h 121.5 v 24.75 h -121.5 z" /><g
       transform="translate(204.471,211.313)"
       id="g158"><path
         id="path160"
         style="fill:none;stroke:#231f20;stroke-width:0.75;stroke-linecap:square;stroke-linejoin:miter;stroke-miterlimit:10;stroke-dasharray:none;stroke-opacity:1"
         d="M 121.5,0 H 0 v -24.75 h 121.5 z" /><g
         id="g162"><path
           id="path164"
           style="fill:none;stroke:#231f20;stroke-width:0.75;stroke-linecap:square;stroke-linejoin:miter;stroke-miterlimit:10;stroke-dasharray:none;stroke-opacity:1"
           d="M 0,0 Z" /></g></g><text
       id="text168"
       style="font-variant:normal;font-weight:normal;font-stretch:normal;font-size:9px;font-family:Times;-inkscape-font-specification:Times-Roman;writing-mode:lr-tb;fill:#231f20;fill-opacity:1;fill-rule:nonzero;stroke:none"
       transform="matrix(1,0,0,-1,215.1953,196.2247)"><tspan
         id="tspan166"
         y="0"
         x="0 3.5009999 8.0010004 11.997 14.499 17.000999 21.500999 26.000999 29.997 33.498001 37.493999 41.993999 46.493999 49.994999 54.494999 57.492001 60.398998 64.394997 68.390999 72.387001 76.887001 83.889 88.389 92.889 96.885002 99.387001">shell_based_surface_model</tspan></text>
<g
       transform="translate(271.864,215.021)"
       id="g170"><path
         id="path172"
         style="fill:#ffffff;fill-opacity:1;fill-rule:nonzero;stroke:none"
         d="M 0,0 C 0,2.07 -1.681,3.75 -3.75,3.75 -5.82,3.75 -7.5,2.07 -7.5,0 c 0,-2.07 1.68,-3.75 3.75,-3.75 C -1.681,-3.75 0,-2.07 0,0" /></g><g
       transform="translate(271.864,215.021)"
       id="g174"><path
         id="path176"
         style="fill:none;stroke:#231f20;stroke-width:0.75;stroke-linecap:square;stroke-linejoin:miter;stroke-miterlimit:10;stroke-dasharray:none;stroke-opacity:1"
         d="M 0,0 C 0,2.07 -1.681,3.75 -3.75,3.75 -5.82,3.75 -7.5,2.07 -7.5,0 c 0,-2.07 1.68,-3.75 3.75,-3.75 C -1.681,-3.75 0,-2.07 0,0" /></g><path
       id="path178"
       style="fill:#ffffff;fill-opacity:1;fill-rule:nonzero;stroke:none"
       d="m 14.625,187.313 h 118.5 v 24.75 h -118.5 z" /><g
       transform="translate(14.625,212.063)"
       id="g180"><path
         id="path182"
         style="fill:none;stroke:#231f20;stroke-width:0.75;stroke-linecap:square;stroke-linejoin:miter;stroke-miterlimit:10;stroke-dasharray:none;stroke-opacity:1"
         d="M 118.5,0 H 0 v -24.75 h 118.5 z" /><g
         id="g184"><path
           id="path186"
           style="fill:none;stroke:#231f20;stroke-width:0.75;stroke-linecap:square;stroke-linejoin:miter;stroke-miterlimit:10;stroke-dasharray:none;stroke-opacity:1"
           d="M 0,0 Z" /></g></g><text
       id="text190"
       style="font-variant:normal;font-weight:normal;font-stretch:normal;font-size:9px;font-family:Times;-inkscape-font-specification:Times-Roman;writing-mode:lr-tb;fill:#231f20;fill-opacity:1;fill-rule:nonzero;stroke:none"
       transform="matrix(1,0,0,-1,18.625,196.9747)"><tspan
         id="tspan188"
         y="0"
         x="0 3.5009999 8.0010004 11.997 14.499 17.000999 21.500999 26.000999 29.997 33.498001 37.493999 41.993999 46.493999 52.992001 55.493999 58.491001 62.487 65.484001 68.481003 72.476997 79.478996 83.474998 87.974998 94.976997 99.476997 103.977 107.973 110.475">shell_based_wireframe_model</tspan></text>
<g
       transform="translate(66.394,215.831)"
       id="g192"><path
         id="path194"
         style="fill:#ffffff;fill-opacity:1;fill-rule:nonzero;stroke:none"
         d="M 0,0 C 0,2.07 -1.68,3.75 -3.75,3.75 -5.82,3.75 -7.5,2.07 -7.5,0 c 0,-2.07 1.68,-3.75 3.75,-3.75 C -1.68,-3.75 0,-2.07 0,0" /></g><g
       transform="translate(66.394,215.831)"
       id="g196"><path
         id="path198"
         style="fill:none;stroke:#231f20;stroke-width:0.75;stroke-linecap:square;stroke-linejoin:miter;stroke-miterlimit:10;stroke-dasharray:none;stroke-opacity:1"
         d="M 0,0 C 0,2.07 -1.68,3.75 -3.75,3.75 -5.82,3.75 -7.5,2.07 -7.5,0 c 0,-2.07 1.68,-3.75 3.75,-3.75 C -1.68,-3.75 0,-2.07 0,0" /></g><path
       id="path200"
       style="fill:#ffffff;fill-opacity:1;fill-rule:nonzero;stroke:none"
       d="m 99.375,341.812 h 119.25 v 24.75 H 99.375 Z" /><g
       transform="translate(99.375,366.562)"
       id="g202"><path
         id="path204"
         style="fill:none;stroke:#231f20;stroke-width:0.75;stroke-linecap:square;stroke-linejoin:miter;stroke-miterlimit:10;stroke-dasharray:none;stroke-opacity:1"
         d="M 119.25,0 H 0 v -24.75 h 119.25 z" /><g
         id="g206"><path
           id="path208"
           style="fill:none;stroke:#231f20;stroke-width:0.75;stroke-linecap:square;stroke-linejoin:miter;stroke-miterlimit:10;stroke-dasharray:none;stroke-opacity:1"
           d="M 0,0 Z" /></g></g><text
       id="text212"
       style="font-variant:normal;font-weight:normal;font-stretch:normal;font-size:9px;font-family:Times;-inkscape-font-specification:Times-Roman;writing-mode:lr-tb;fill:#231f20;fill-opacity:1;fill-rule:nonzero;stroke:none"
       transform="matrix(1,0,0,-1,103.375,351.9019)"><tspan
         id="tspan210"
         y="0"
         x="0 3.9960001 8.4960003 12.996 16.992001 21.492001 25.992001 29.988001 33.488998 37.485001 41.985001 46.485001 52.983002 55.485001 58.481998 62.478001 65.474998 68.472 72.468002 79.470001 83.466003 87.966003 94.968002 99.468002 103.968 107.964 110.466">edge_based_wireframe_model</tspan></text>
<g
       transform="translate(168.364,370.361)"
       id="g214"><path
         id="path216"
         style="fill:#ffffff;fill-opacity:1;fill-rule:nonzero;stroke:none"
         d="M 0,0 C 0,2.07 -1.68,3.75 -3.75,3.75 -5.82,3.75 -7.5,2.07 -7.5,0 c 0,-2.07 1.68,-3.75 3.75,-3.75 C -1.68,-3.75 0,-2.07 0,0" /></g><g
       transform="translate(168.364,370.361)"
       id="g218"><path
         id="path220"
         style="fill:none;stroke:#231f20;stroke-width:0.75;stroke-linecap:square;stroke-linejoin:miter;stroke-miterlimit:10;stroke-dasharray:none;stroke-opacity:1"
         d="M 0,0 C 0,2.07 -1.68,3.75 -3.75,3.75 -5.82,3.75 -7.5,2.07 -7.5,0 c 0,-2.07 1.68,-3.75 3.75,-3.75 C -1.68,-3.75 0,-2.07 0,0" /></g><g
       transform="translate(29.674,215.831)"
       id="g222"><path
         id="path224"
         style="fill:#ffffff;fill-opacity:1;fill-rule:nonzero;stroke:none"
         d="M 0,0 C 0,2.07 -1.68,3.75 -3.75,3.75 -5.82,3.75 -7.5,2.07 -7.5,0 c 0,-2.07 1.68,-3.75 3.75,-3.75 C -1.68,-3.75 0,-2.07 0,0" /></g><g
       transform="translate(29.674,215.831)"
       id="g226"><path
         id="path228"
         style="fill:none;stroke:#231f20;stroke-width:0.75;stroke-linecap:square;stroke-linejoin:miter;stroke-miterlimit:10;stroke-dasharray:none;stroke-opacity:1"
         d="M 0,0 C 0,2.07 -1.68,3.75 -3.75,3.75 -5.82,3.75 -7.5,2.07 -7.5,0 c 0,-2.07 1.68,-3.75 3.75,-3.75 C -1.68,-3.75 0,-2.07 0,0" /></g><path
       id="path230"
       style="fill:#ffffff;fill-opacity:1;fill-rule:nonzero;stroke:none"
       d="m 98.625,305.063 h 61.5 v 18.75 h -61.5 z" /><g
       transform="translate(108,323.812)"
       id="g232"><path
         id="path234"
         style="fill:none;stroke:#231f20;stroke-width:0.75;stroke-linecap:square;stroke-linejoin:miter;stroke-miterlimit:10;stroke-dasharray:none;stroke-opacity:1"
         d="m 0,0 h 42.75 c 5.175,0 9.375,-4.2 9.375,-9.375 0,-5.175 -4.2,-9.375 -9.375,-9.375 H 0 c -5.175,0 -9.375,4.2 -9.375,9.375 C -9.375,-4.2 -5.175,0 0,0 Z" /></g><text
       id="text238"
       style="font-variant:normal;font-weight:normal;font-stretch:normal;font-size:9px;font-family:Times;-inkscape-font-specification:Times-Roman;writing-mode:lr-tb;fill:#231f20;fill-opacity:1;fill-rule:nonzero;stroke:none"
       transform="matrix(1,0,0,-1,105.1113,312.0708)"><tspan
         id="tspan236"
         y="0"
         x="0 4.5 9 11.25 13.5 18 22.5 27 29.25 32.247002 36.747002 41.247002 44.243999">39, 293 (36)</tspan></text>
<path
       id="path240"
       style="fill:#ffffff;fill-opacity:1;fill-rule:nonzero;stroke:none"
       d="m 100.505,258.938 h 88.5 v 24.75 h -88.5 z" /><g
       transform="translate(100.505,283.688)"
       id="g242"><path
         id="path244"
         style="fill:none;stroke:#231f20;stroke-width:0.75;stroke-linecap:square;stroke-linejoin:miter;stroke-miterlimit:10;stroke-dasharray:none;stroke-opacity:1"
         d="M 88.5,0 H 0 v -24.75 h 88.5 z" /><g
         id="g246"><path
           id="path248"
           style="fill:none;stroke:#231f20;stroke-width:0.75;stroke-linecap:square;stroke-linejoin:miter;stroke-miterlimit:10;stroke-dasharray:none;stroke-opacity:1"
           d="M 0,0 Z" /></g></g><text
       id="text254"
       style="font-variant:normal;font-weight:normal;font-stretch:normal;font-size:9px;font-family:Times;-inkscape-font-specification:Times-Roman;writing-mode:lr-tb;fill:#231f20;fill-opacity:1;fill-rule:nonzero;stroke:none"
       transform="matrix(1,0,0,-1,108.977,269.0718)"><tspan
         id="tspan250"
         y="0"
         x="0 3.9960001 8.4960003 12.996 17.496 21.492001 25.488001 27.99 31.986 36.486 40.986 44.981998 49.481998 53.981998 57.978001 62.478001 65.978996 69.974998 72.476997">connected_edge_set</tspan><tspan
         id="tspan252"
         y="-61.4646"
         x="102.1482 106.1442 110.6442 117.1422 124.1442 128.6442 133.1442 137.6442 142.1442 146.6442 151.1442 155.1402 158.13721 162.63721 164.88721 169.8912 172.8882 177.3882 179.8902 183.8862 186.88319">ebwm_boundary S[1:?]</tspan></text>
<g
       transform="translate(133.174,287.381)"
       id="g256"><path
         id="path258"
         style="fill:#ffffff;fill-opacity:1;fill-rule:nonzero;stroke:none"
         d="M 0,0 C 0,2.07 -1.68,3.75 -3.75,3.75 -5.82,3.75 -7.5,2.07 -7.5,0 c 0,-2.07 1.68,-3.75 3.75,-3.75 C -1.68,-3.75 0,-2.07 0,0" /></g><g
       transform="translate(133.174,287.381)"
       id="g260"><path
         id="path262"
         style="fill:none;stroke:#231f20;stroke-width:0.75;stroke-linecap:square;stroke-linejoin:miter;stroke-miterlimit:10;stroke-dasharray:none;stroke-opacity:1"
         d="M 0,0 C 0,2.07 -1.68,3.75 -3.75,3.75 -5.82,3.75 -7.5,2.07 -7.5,0 c 0,-2.07 1.68,-3.75 3.75,-3.75 C -1.68,-3.75 0,-2.07 0,0" /></g><path
       id="path264"
       style="fill:#ffffff;fill-opacity:1;fill-rule:nonzero;stroke:none"
       d="m 271.505,268.313 h 74.25 v 15.375 h -74.25 z" /><g
       transform="translate(279.192,283.688)"
       id="g266"><path
         id="path268"
         style="fill:none;stroke:#231f20;stroke-width:0.75;stroke-linecap:square;stroke-linejoin:miter;stroke-miterlimit:10;stroke-dasharray:none;stroke-opacity:1"
         d="m 0,0 h 58.875 c 4.243,0 7.688,-3.444 7.688,-7.687 0,-4.244 -3.445,-7.688 -7.688,-7.688 H 0 c -4.244,0 -7.687,3.444 -7.687,7.688 C -7.687,-3.444 -4.244,0 0,0 Z" /></g><text
       id="text274"
       style="font-variant:normal;font-weight:normal;font-stretch:normal;font-size:9px;font-family:Times;-inkscape-font-specification:Times-Roman;writing-mode:lr-tb;fill:#231f20;fill-opacity:1;fill-rule:nonzero;stroke:none"
       transform="matrix(1,0,0,-1,281.1074,273.7593)"><tspan
         id="tspan270"
         y="0"
         x="0 4.5 9 11.25 13.5 18 22.5 27 29.25 31.5 35.495998 39.995998 44.495998 48.492001">37, 134, edge</tspan><tspan
         id="tspan272"
         y="9.0351"
         x="-84.602699 -80.606697 -76.610703 -73.109703 -68.609703 -64.613701 -60.113701 -55.613701 -51.617699 -48.116699 -45.866699 -40.862701 -37.8657 -33.3657 -30.863701 -26.867701 -23.870701">ces_edges S[1:?]</tspan></text>
<g
       transform="translate(175.114,287.381)"
       id="g276"><path
         id="path278"
         style="fill:#ffffff;fill-opacity:1;fill-rule:nonzero;stroke:none"
         d="m 0,0 c 0,2.07 -1.68,3.75 -3.751,3.75 -2.069,0 -3.75,-1.68 -3.75,-3.75 0,-2.07 1.681,-3.75 3.75,-3.75 C -1.68,-3.75 0,-2.07 0,0" /></g><g
       transform="translate(175.114,287.381)"
       id="g280"><path
         id="path282"
         style="fill:none;stroke:#231f20;stroke-width:0.75;stroke-linecap:square;stroke-linejoin:miter;stroke-miterlimit:10;stroke-dasharray:none;stroke-opacity:1"
         d="m 0,0 c 0,2.07 -1.68,3.75 -3.751,3.75 -2.069,0 -3.75,-1.68 -3.75,-3.75 0,-2.07 1.681,-3.75 3.75,-3.75 C -1.68,-3.75 0,-2.07 0,0" /></g><g
       transform="translate(99.334,353.801)"
       id="g284"><path
         id="path286"
         style="fill:#ffffff;fill-opacity:1;fill-rule:nonzero;stroke:none"
         d="M 0,0 C 0,2.07 -1.68,3.75 -3.75,3.75 -5.82,3.75 -7.5,2.07 -7.5,0 c 0,-2.07 1.68,-3.75 3.75,-3.75 C -1.68,-3.75 0,-2.07 0,0" /></g><g
       transform="translate(99.334,353.801)"
       id="g288"><path
         id="path290"
         style="fill:none;stroke:#231f20;stroke-width:0.75;stroke-linecap:square;stroke-linejoin:miter;stroke-miterlimit:10;stroke-dasharray:none;stroke-opacity:1"
         d="M 0,0 C 0,2.07 -1.68,3.75 -3.75,3.75 -5.82,3.75 -7.5,2.07 -7.5,0 c 0,-2.07 1.68,-3.75 3.75,-3.75 C -1.68,-3.75 0,-2.07 0,0" /></g><path
       id="path292"
       style="fill:#ffffff;fill-opacity:1;fill-rule:nonzero;stroke:none"
       d="m 141.308,127.233 h 76.5 v 15.375 h -76.5 z" /><path
       id="path294"
       style="fill:none;stroke:#231f20;stroke-width:0.75;stroke-linecap:square;stroke-linejoin:miter;stroke-miterlimit:10;stroke-dasharray:3.75, 3.75;stroke-dashoffset:0;stroke-opacity:1"
       d="m 141.308,142.608 v -15.375 h 76.5 v 15.375 z m 7.5,-15.375 v 15.375" /><text
       id="text298"
       style="font-variant:normal;font-weight:normal;font-stretch:normal;font-size:9px;font-family:Times;-inkscape-font-specification:Times-Roman;writing-mode:lr-tb;fill:#231f20;fill-opacity:1;fill-rule:nonzero;stroke:none"
       transform="matrix(1,0,0,-1,174.0557,131.7569)"><tspan
         id="tspan296"
         y="0"
         x="0 3.5009999 8.0010004 11.997 14.499 17.000999">shell</tspan></text>
<g
       transform="translate(195.364,146.351)"
       id="g300"><path
         id="path302"
         style="fill:#ffffff;fill-opacity:1;fill-rule:nonzero;stroke:none"
         d="M 0,0 C 0,2.07 -1.681,3.75 -3.75,3.75 -5.82,3.75 -7.5,2.07 -7.5,0 c 0,-2.069 1.68,-3.75 3.75,-3.75 C -1.681,-3.75 0,-2.069 0,0" /></g><g
       transform="translate(195.364,146.351)"
       id="g304"><path
         id="path306"
         style="fill:none;stroke:#231f20;stroke-width:0.75;stroke-linecap:square;stroke-linejoin:miter;stroke-miterlimit:10;stroke-dasharray:none;stroke-opacity:1"
         d="M 0,0 C 0,2.07 -1.681,3.75 -3.75,3.75 -5.82,3.75 -7.5,2.07 -7.5,0 c 0,-2.069 1.68,-3.75 3.75,-3.75 C -1.681,-3.75 0,-2.069 0,0" /></g><text
       id="text310"
       style="font-variant:normal;font-weight:normal;font-stretch:normal;font-size:9px;font-family:Times;-inkscape-font-specification:Times-Roman;writing-mode:lr-tb;fill:#231f20;fill-opacity:1;fill-rule:nonzero;stroke:none"
       transform="matrix(1,0,0,-1,250.875,173.5372)"><tspan
         id="tspan308"
         y="0"
         x="0 3.5009999 8.0010004 11.502 18.504 23.004 27.504 32.004002 36.504002 41.004002 45.504002 49.5 52.497002 56.997002 59.247002 64.250999 67.248001 71.748001 74.25 78.246002 81.242996">sbsm_boundary S[1:?]</tspan></text>
<g
       transform="translate(171.334,146.351)"
       id="g312"><path
         id="path314"
         style="fill:#ffffff;fill-opacity:1;fill-rule:nonzero;stroke:none"
         d="M 0,0 C 0,2.07 -1.68,3.75 -3.75,3.75 -5.82,3.75 -7.5,2.07 -7.5,0 c 0,-2.069 1.68,-3.75 3.75,-3.75 C -1.68,-3.75 0,-2.069 0,0" /></g><g
       transform="translate(171.334,146.351)"
       id="g316"><path
         id="path318"
         style="fill:none;stroke:#231f20;stroke-width:0.75;stroke-linecap:square;stroke-linejoin:miter;stroke-miterlimit:10;stroke-dasharray:none;stroke-opacity:1"
         d="M 0,0 C 0,2.07 -1.68,3.75 -3.75,3.75 -5.82,3.75 -7.5,2.07 -7.5,0 c 0,-2.069 1.68,-3.75 3.75,-3.75 C -1.68,-3.75 0,-2.069 0,0" /></g><text
       id="text322"
       style="font-variant:normal;font-weight:normal;font-stretch:normal;font-size:9px;font-family:Times;-inkscape-font-specification:Times-Roman;writing-mode:lr-tb;fill:#231f20;fill-opacity:1;fill-rule:nonzero;stroke:none"
       transform="matrix(1,0,0,-1,65.625,173.0372)"><tspan
         id="tspan320"
         y="0"
         x="0 3.5009999 8.0010004 14.499 21.500999 26.000999 30.500999 35.000999 39.500999 44.000999 48.500999 52.497002 55.493999 59.993999 62.243999 67.248001 70.245003 74.745003 77.247002 81.242996 84.239998">sbwm_boundary S[1:?]</tspan></text>
<path
       id="path324"
       style="fill:#ffffff;fill-opacity:1;fill-rule:nonzero;stroke:none"
       d="m 25.058,127.233 h 93.75 v 15.375 h -93.75 z" /><g
       transform="translate(32.746,142.608)"
       id="g326"><path
         id="path328"
         style="fill:none;stroke:#231f20;stroke-width:0.75;stroke-linecap:square;stroke-linejoin:miter;stroke-miterlimit:10;stroke-dasharray:none;stroke-opacity:1"
         d="m 0,0 h 78.375 c 4.244,0 7.687,-3.444 7.687,-7.687 0,-4.245 -3.443,-7.689 -7.687,-7.689 H 0 c -4.244,0 -7.687,3.444 -7.687,7.689 C -7.687,-3.444 -4.244,0 0,0 Z" /></g><text
       id="text332"
       style="font-variant:normal;font-weight:normal;font-stretch:normal;font-size:9px;font-family:Times;-inkscape-font-specification:Times-Roman;writing-mode:lr-tb;fill:#231f20;fill-opacity:1;fill-rule:nonzero;stroke:none"
       transform="matrix(1,0,0,-1,32.6572,132.6211)"><tspan
         id="tspan330"
         y="0"
         x="0 4.5 9 11.25 13.5 18 22.5 27 29.25 31.5 36 40.5 44.495998 48.995998 53.495998 56.997002 61.497002 65.492996 67.995003 70.497002">38, 141, open_shell</tspan></text>
<path
       id="path334"
       style="fill:#ffffff;fill-opacity:1;fill-rule:nonzero;stroke:none"
       d="m 240.308,127.233 h 99.75 v 15.375 h -99.75 z" /><g
       transform="translate(247.995,142.608)"
       id="g336"><path
         id="path338"
         style="fill:none;stroke:#231f20;stroke-width:0.75;stroke-linecap:square;stroke-linejoin:miter;stroke-miterlimit:10;stroke-dasharray:none;stroke-opacity:1"
         d="m 0,0 h 84.375 c 4.244,0 7.687,-3.444 7.687,-7.687 0,-4.245 -3.443,-7.689 -7.687,-7.689 H 0 c -4.243,0 -7.688,3.444 -7.688,7.689 C -7.688,-3.444 -4.243,0 0,0 Z" /></g><text
       id="text342"
       style="font-variant:normal;font-weight:normal;font-stretch:normal;font-size:9px;font-family:Times;-inkscape-font-specification:Times-Roman;writing-mode:lr-tb;fill:#231f20;fill-opacity:1;fill-rule:nonzero;stroke:none"
       transform="matrix(1,0,0,-1,247.9102,132.3506)"><tspan
         id="tspan340"
         y="0"
         x="0 4.5 9 11.25 13.5 18 22.5 27 29.25 31.5 35.495998 37.998001 42.498001 45.999001 49.994999 54.494999 58.994999 62.495998 66.996002 70.991997 73.494003 75.996002">38, 140, closed_shell</tspan></text>
<path
       id="path344"
       style="fill:#ffffff;fill-opacity:1;fill-rule:nonzero;stroke:none"
       d="m 273.09,76.5 h 61.5 v 18.75 h -61.5 z" /><g
       transform="translate(282.465,95.25)"
       id="g346"><path
         id="path348"
         style="fill:none;stroke:#231f20;stroke-width:0.75;stroke-linecap:square;stroke-linejoin:miter;stroke-miterlimit:10;stroke-dasharray:none;stroke-opacity:1"
         d="m 0,0 h 42.75 c 5.176,0 9.375,-4.199 9.375,-9.375 0,-5.175 -4.199,-9.375 -9.375,-9.375 H 0 c -5.174,0 -9.375,4.2 -9.375,9.375 C -9.375,-4.199 -5.174,0 0,0 Z" /></g><text
       id="text352"
       style="font-variant:normal;font-weight:normal;font-stretch:normal;font-size:9px;font-family:Times;-inkscape-font-specification:Times-Roman;writing-mode:lr-tb;fill:#231f20;fill-opacity:1;fill-rule:nonzero;stroke:none"
       transform="matrix(1,0,0,-1,279.5762,83.5079)"><tspan
         id="tspan350"
         y="0"
         x="0 4.5 9 11.25 13.5 18 22.5 27 29.25 32.247002 36.747002 41.247002 44.243999">39, 295 (36)</tspan></text>
<path
       id="path354"
       style="fill:#ffffff;fill-opacity:1;fill-rule:nonzero;stroke:none"
       d="m 203.34,0.37498 h 98.25 v 15.375 h -98.25 z" /><g
       transform="translate(211.027,15.75)"
       id="g356"><path
         id="path358"
         style="fill:none;stroke:#231f20;stroke-width:0.75;stroke-linecap:square;stroke-linejoin:miter;stroke-miterlimit:10;stroke-dasharray:none;stroke-opacity:1"
         d="m 0,0 h 82.875 c 4.244,0 7.688,-3.443 7.688,-7.6875 0,-4.2435 -3.444,-7.6875 -7.688,-7.6875 H 0 c -4.242,0 -7.688,3.444 -7.688,7.6875 C -7.688,-3.443 -4.242,0 0,0 Z" /></g><text
       id="text362"
       style="font-variant:normal;font-weight:normal;font-stretch:normal;font-size:9px;font-family:Times;-inkscape-font-specification:Times-Roman;writing-mode:lr-tb;fill:#231f20;fill-opacity:1;fill-rule:nonzero;stroke:none"
       transform="matrix(1,0,0,-1,211.6914,5.7637)"><tspan
         id="tspan360"
         y="0"
         x="0 4.5 9 11.25 13.5 18 22.5 27 29.25 31.5 35.865002 39.861 42.858002 45.360001 49.221001 53.721001 58.221001 60.723 65.223 69.723 74.223">37, 176, vertex_loop</tspan></text>
<path
       id="path364"
       style="fill:#ffffff;fill-opacity:1;fill-rule:nonzero;stroke:none"
       d="M 203.34,40.5 H 334.59 V 57.75 H 203.34 Z" /><g
       transform="translate(203.34,57.75)"
       id="g366"><path
         id="path368"
         style="fill:none;stroke:#231f20;stroke-width:0.75;stroke-linecap:square;stroke-linejoin:miter;stroke-miterlimit:10;stroke-dasharray:none;stroke-opacity:1"
         d="M 131.25,0 H 0 v -17.25 h 131.25 z" /><g
         id="g370"><path
           id="path372"
           style="fill:none;stroke:#231f20;stroke-width:0.75;stroke-linecap:square;stroke-linejoin:miter;stroke-miterlimit:10;stroke-dasharray:none;stroke-opacity:1"
           d="M 0,0 Z" /></g></g><text
       id="text376"
       style="font-variant:normal;font-weight:normal;font-stretch:normal;font-size:9px;font-family:Times;-inkscape-font-specification:Times-Roman;writing-mode:lr-tb;fill:#231f20;fill-opacity:1;fill-rule:nonzero;stroke:none"
       transform="matrix(1,0,0,-1,244.958,46.4571)"><tspan
         id="tspan374"
         y="0"
         x="0 4.3649998 8.3610001 11.358 13.86 17.721001 22.221001 26.721001 30.222 34.722 38.717999 41.220001 43.722">vertex_shell</tspan></text>
<g
       transform="translate(307.594,61.48)"
       id="g378"><path
         id="path380"
         style="fill:#ffffff;fill-opacity:1;fill-rule:nonzero;stroke:none"
         d="M 0,0 C 0,2.07 -1.68,3.75 -3.75,3.75 -5.819,3.75 -7.5,2.07 -7.5,0 c 0,-2.069 1.681,-3.75 3.75,-3.75 C -1.68,-3.75 0,-2.069 0,0" /></g><g
       transform="translate(307.594,61.48)"
       id="g382"><path
         id="path384"
         style="fill:none;stroke:#231f20;stroke-width:0.75;stroke-linecap:square;stroke-linejoin:miter;stroke-miterlimit:10;stroke-dasharray:none;stroke-opacity:1"
         d="M 0,0 C 0,2.07 -1.68,3.75 -3.75,3.75 -5.819,3.75 -7.5,2.07 -7.5,0 c 0,-2.069 1.681,-3.75 3.75,-3.75 C -1.68,-3.75 0,-2.069 0,0" /></g><text
       id="text388"
       style="font-variant:normal;font-weight:normal;font-stretch:normal;font-size:9px;font-family:Times;-inkscape-font-specification:Times-Roman;writing-mode:lr-tb;fill:#231f20;fill-opacity:1;fill-rule:nonzero;stroke:none"
       transform="matrix(1,0,0,-1,257.9648,28.0147)"><tspan
         id="tspan386"
         y="0"
         x="0 4.3649998 8.3610001 11.358 13.86 17.721001 22.221001 26.721001 30.222 34.722 38.717999 41.220001 43.722 48.222 52.083 56.583 59.084999 63.081001 67.581001 70.083">vertex_shell_extent</tspan></text>
<path
       id="path390"
       style="fill:#ffffff;fill-opacity:1;fill-rule:nonzero;stroke:none"
       d="m 21.755,81.188 h 61.5 v 18.75 h -61.5 z" /><g
       transform="translate(31.13,99.938)"
       id="g392"><path
         id="path394"
         style="fill:none;stroke:#231f20;stroke-width:0.75;stroke-linecap:square;stroke-linejoin:miter;stroke-miterlimit:10;stroke-dasharray:none;stroke-opacity:1"
         d="m 0,0 h 42.75 c 5.175,0 9.375,-4.2 9.375,-9.375 0,-5.175 -4.2,-9.375 -9.375,-9.375 H 0 c -5.175,0 -9.375,4.2 -9.375,9.375 C -9.375,-4.2 -5.175,0 0,0 Z" /></g><text
       id="text398"
       style="font-variant:normal;font-weight:normal;font-stretch:normal;font-size:9px;font-family:Times;-inkscape-font-specification:Times-Roman;writing-mode:lr-tb;fill:#231f20;fill-opacity:1;fill-rule:nonzero;stroke:none"
       transform="matrix(1,0,0,-1,28.2412,88.1954)"><tspan
         id="tspan396"
         y="0"
         x="0 4.5 9 11.25 13.5 18 22.5 27 29.25 32.247002 36.747002 41.247002 44.243999">39, 294 (36)</tspan></text>
<path
       id="path400"
       style="fill:#ffffff;fill-opacity:1;fill-rule:nonzero;stroke:none"
       d="m 21.755,0.56248 h 71.25 v 15.375 h -71.25 z" /><g
       transform="translate(29.442,15.937)"
       id="g402"><path
         id="path404"
         style="fill:none;stroke:#231f20;stroke-width:0.75;stroke-linecap:square;stroke-linejoin:miter;stroke-miterlimit:10;stroke-dasharray:none;stroke-opacity:1"
         d="m 0,0 h 55.875 c 4.243,0 7.688,-3.444 7.688,-7.6875 0,-4.2435 -3.445,-7.6875 -7.688,-7.6875 H 0 c -4.244,0 -7.687,3.444 -7.687,7.6875 C -7.687,-3.444 -4.244,0 0,0 Z" /></g><text
       id="text408"
       style="font-variant:normal;font-weight:normal;font-stretch:normal;font-size:9px;font-family:Times;-inkscape-font-specification:Times-Roman;writing-mode:lr-tb;fill:#231f20;fill-opacity:1;fill-rule:nonzero;stroke:none"
       transform="matrix(1,0,0,-1,31.3608,5.9512)"><tspan
         id="tspan406"
         y="0"
         x="0 4.5 9 11.25 13.5 18 22.5 27 29.25 31.5 34.001999 38.501999 43.001999 47.501999">37, 137, loop</tspan></text>
<path
       id="path410"
       style="fill:#ffffff;fill-opacity:1;fill-rule:nonzero;stroke:none"
       d="m 21.755,40.687 h 131.25 v 17.25 H 21.755 Z" /><g
       transform="translate(21.755,57.937)"
       id="g412"><path
         id="path414"
         style="fill:none;stroke:#231f20;stroke-width:0.75;stroke-linecap:square;stroke-linejoin:miter;stroke-miterlimit:10;stroke-dasharray:none;stroke-opacity:1"
         d="M 131.25,0 H 0 v -17.25 h 131.25 z" /><g
         id="g416"><path
           id="path418"
           style="fill:none;stroke:#231f20;stroke-width:0.75;stroke-linecap:square;stroke-linejoin:miter;stroke-miterlimit:10;stroke-dasharray:none;stroke-opacity:1"
           d="M 0,0 Z" /></g></g><text
       id="text422"
       style="font-variant:normal;font-weight:normal;font-stretch:normal;font-size:9px;font-family:Times;-inkscape-font-specification:Times-Roman;writing-mode:lr-tb;fill:#231f20;fill-opacity:1;fill-rule:nonzero;stroke:none"
       transform="matrix(1,0,0,-1,67.3774,46.6446)"><tspan
         id="tspan420"
         y="0"
         x="0 6.4980001 9 11.997 15.993 20.493 23.993999 28.493999 32.490002 34.992001 37.493999">wire_shell</tspan></text>
<g
       transform="translate(55.864,61.661)"
       id="g424"><path
         id="path426"
         style="fill:#ffffff;fill-opacity:1;fill-rule:nonzero;stroke:none"
         d="M 0,0 C 0,2.069 -1.68,3.75 -3.75,3.75 -5.82,3.75 -7.5,2.069 -7.5,0 c 0,-2.07 1.68,-3.75 3.75,-3.75 C -1.68,-3.75 0,-2.07 0,0" /></g><g
       transform="translate(55.864,61.661)"
       id="g428"><path
         id="path430"
         style="fill:none;stroke:#231f20;stroke-width:0.75;stroke-linecap:square;stroke-linejoin:miter;stroke-miterlimit:10;stroke-dasharray:none;stroke-opacity:1"
         d="M 0,0 C 0,2.069 -1.68,3.75 -3.75,3.75 -5.82,3.75 -7.5,2.069 -7.5,0 c 0,-2.07 1.68,-3.75 3.75,-3.75 C -1.68,-3.75 0,-2.07 0,0" /></g><text
       id="text434"
       style="font-variant:normal;font-weight:normal;font-stretch:normal;font-size:9px;font-family:Times;-inkscape-font-specification:Times-Roman;writing-mode:lr-tb;fill:#231f20;fill-opacity:1;fill-rule:nonzero;stroke:none"
       transform="matrix(1,0,0,-1,63.8799,27.9122)"><tspan
         id="tspan432"
         y="0"
         x="0 6.4980001 9 11.997 15.993 20.493 23.993999 28.493999 32.490002 34.992001 37.493999 41.993999 45.855 50.355 52.856998 56.853001 61.353001 63.855 66.105003 71.109001 74.106003 78.606003 81.108002 85.103996 88.100998">wire_shell_extent S[1:?]</tspan></text>
<g
       transform="translate(126.334,61.661)"
       id="g436"><path
         id="path438"
         style="fill:#ffffff;fill-opacity:1;fill-rule:nonzero;stroke:none"
         d="M 0,0 C 0,2.069 -1.68,3.75 -3.75,3.75 -5.82,3.75 -7.5,2.069 -7.5,0 c 0,-2.07 1.68,-3.75 3.75,-3.75 C -1.68,-3.75 0,-2.07 0,0" /></g><g
       transform="translate(126.334,61.661)"
       id="g440"><path
         id="path442"
         style="fill:none;stroke:#231f20;stroke-width:0.75;stroke-linecap:square;stroke-linejoin:miter;stroke-miterlimit:10;stroke-dasharray:none;stroke-opacity:1"
         d="M 0,0 C 0,2.069 -1.68,3.75 -3.75,3.75 -5.82,3.75 -7.5,2.069 -7.5,0 c 0,-2.07 1.68,-3.75 3.75,-3.75 C -1.68,-3.75 0,-2.07 0,0" /></g><g
       transform="translate(237.844,61.48)"
       id="g444"><path
         id="path446"
         style="fill:#ffffff;fill-opacity:1;fill-rule:nonzero;stroke:none"
         d="M 0,0 C 0,2.07 -1.68,3.75 -3.75,3.75 -5.819,3.75 -7.5,2.07 -7.5,0 c 0,-2.069 1.681,-3.75 3.75,-3.75 C -1.68,-3.75 0,-2.069 0,0" /></g><g
       transform="translate(237.844,61.48)"
       id="g448"><path
         id="path450"
         style="fill:none;stroke:#231f20;stroke-width:0.75;stroke-linecap:square;stroke-linejoin:miter;stroke-miterlimit:10;stroke-dasharray:none;stroke-opacity:1"
         d="M 0,0 C 0,2.07 -1.68,3.75 -3.75,3.75 -5.819,3.75 -7.5,2.07 -7.5,0 c 0,-2.069 1.681,-3.75 3.75,-3.75 C -1.68,-3.75 0,-2.069 0,0" /></g></g></svg>