<?xml version="1.0" encoding="UTF-8" standalone="no"?>
<svg
   xmlns:dc="http://purl.org/dc/elements/1.1/"
   xmlns:cc="http://creativecommons.org/ns#"
   xmlns:rdf="http://www.w3.org/1999/02/22-rdf-syntax-ns#"
   xmlns:svg="http://www.w3.org/2000/svg"
   xmlns="http://www.w3.org/2000/svg"
   viewBox="0 0 474.5 359.5"
   height="359.5"
   width="474.5"
   xml:space="preserve"
   id="svg2"
   version="1.1"><metadata
     id="metadata8"><rdf:RDF><cc:Work
         rdf:about=""><dc:format>image/svg+xml</dc:format><dc:type
           rdf:resource="http://purl.org/dc/dcmitype/StillImage" /></cc:Work></rdf:RDF></metadata><defs
     id="defs6" /><g
     transform="matrix(1.3333333,0,0,-1.3333333,0,359.5)"
     id="g10"><g
       transform="translate(28.5,168.375)"
       id="g12"><path
         id="path14"
         style="fill:none;stroke:#231f20;stroke-width:2.25;stroke-linecap:square;stroke-linejoin:miter;stroke-miterlimit:10;stroke-dasharray:none;stroke-opacity:1"
         d="M 0,0 V -12.75" /><g
         transform="translate(0,-77.625)"
         id="g16"><path
           id="path18"
           style="fill:none;stroke:#231f20;stroke-width:2.25;stroke-linecap:square;stroke-linejoin:miter;stroke-miterlimit:10;stroke-dasharray:none;stroke-opacity:1"
           d="M 0,0 V 64.875" /><g
           transform="translate(0,-54)"
           id="g20"><path
             id="path22"
             style="fill:none;stroke:#231f20;stroke-width:2.25;stroke-linecap:square;stroke-linejoin:miter;stroke-miterlimit:10;stroke-dasharray:none;stroke-opacity:1"
             d="M 0,0 V 118.875" /><g
             transform="translate(0,88.5)"
             id="g24"><path
               id="path26"
               style="fill:none;stroke:#231f20;stroke-width:2.25;stroke-linecap:square;stroke-linejoin:miter;stroke-miterlimit:10;stroke-dasharray:none;stroke-opacity:1"
               d="M 0,0 V 30.375" /><g
               transform="translate(0,26.25)"
               id="g28"><path
                 id="path30"
                 style="fill:none;stroke:#231f20;stroke-width:2.25;stroke-linecap:square;stroke-linejoin:miter;stroke-miterlimit:10;stroke-dasharray:none;stroke-opacity:1"
                 d="M 0,0 V 4.125" /><g
                 transform="translate(0,-60.75)"
                 id="g32"><path
                   id="path34"
                   style="fill:none;stroke:#231f20;stroke-width:2.25;stroke-linecap:square;stroke-linejoin:miter;stroke-miterlimit:10;stroke-dasharray:none;stroke-opacity:1"
                   d="M 0,0 H 30" /><g
                   transform="translate(0,-54)"
                   id="g36"><path
                     id="path38"
                     style="fill:none;stroke:#231f20;stroke-width:2.25;stroke-linecap:square;stroke-linejoin:miter;stroke-miterlimit:10;stroke-dasharray:none;stroke-opacity:1"
                     d="M 0,0 H 30.375" /><g
                     transform="translate(0,88.5)"
                     id="g40"><path
                       id="path42"
                       style="fill:none;stroke:#231f20;stroke-width:2.25;stroke-linecap:square;stroke-linejoin:miter;stroke-miterlimit:10;stroke-dasharray:none;stroke-opacity:1"
                       d="M 0,0 H 30.375" /><g
                       transform="translate(0,26.25)"
                       id="g44"><path
                         id="path46"
                         style="fill:none;stroke:#231f20;stroke-width:2.25;stroke-linecap:square;stroke-linejoin:miter;stroke-miterlimit:10;stroke-dasharray:none;stroke-opacity:1"
                         d="M 0,0 H 31.5" /></g></g></g></g></g></g></g></g></g><g
       transform="translate(51.75,262.5)"
       id="g48"><path
         id="path50"
         style="fill:none;stroke:#231f20;stroke-width:0.75;stroke-linecap:square;stroke-linejoin:miter;stroke-miterlimit:10;stroke-dasharray:none;stroke-opacity:1"
         d="M 0,0 V -11.25" /><g
         transform="translate(191.438,-26.437)"
         id="g52"><path
           id="path54"
           style="fill:none;stroke:#231f20;stroke-width:0.75;stroke-linecap:square;stroke-linejoin:miter;stroke-miterlimit:10;stroke-dasharray:none;stroke-opacity:1"
           d="M 0,0 H -140.062" /><g
           transform="translate(22.5,-23.625)"
           id="g56"><path
             id="path58"
             style="fill:none;stroke:#231f20;stroke-width:0.75;stroke-linecap:square;stroke-linejoin:miter;stroke-miterlimit:10;stroke-dasharray:none;stroke-opacity:1"
             d="M 0,0 H -162.562" /><g
             transform="translate(-83.812,-23.625)"
             id="g60"><path
               id="path62"
               style="fill:none;stroke:#231f20;stroke-width:0.75;stroke-linecap:square;stroke-linejoin:miter;stroke-miterlimit:10;stroke-dasharray:none;stroke-opacity:1"
               d="M 0,0 H -78.75" /><g
               transform="translate(152.613,-98.062)"
               id="g64"><path
                 id="path66"
                 style="fill:none;stroke:#231f20;stroke-width:0.75;stroke-linecap:square;stroke-linejoin:miter;stroke-miterlimit:10;stroke-dasharray:none;stroke-opacity:1"
                 d="M 0,0 H -124.488" /></g></g></g></g></g><g
       transform="translate(28.488,168.375)"
       id="g68"><path
         id="path70"
         style="fill:none;stroke:#231f20;stroke-width:2.25;stroke-linecap:square;stroke-linejoin:miter;stroke-miterlimit:10;stroke-dasharray:none;stroke-opacity:1"
         d="M 0,0 V 12.75" /></g><g
       transform="translate(332.988,35.813)"
       id="g72"><path
         id="path74"
         style="fill:none;stroke:#231f20;stroke-width:0.75;stroke-linecap:square;stroke-linejoin:miter;stroke-miterlimit:10;stroke-dasharray:none;stroke-opacity:1"
         d="M 0,0 H -111.363" /><g
         transform="translate(-81.363,89.438)"
         id="g76"><path
           id="path78"
           style="fill:none;stroke:#231f20;stroke-width:0.75;stroke-linecap:square;stroke-linejoin:miter;stroke-miterlimit:10;stroke-dasharray:none;stroke-opacity:1"
           d="M 0,0 H -58.5" /><g
           transform="translate(-69.75,63.562)"
           id="g80"><path
             id="path82"
             style="fill:none;stroke:#231f20;stroke-width:0.75;stroke-linecap:square;stroke-linejoin:miter;stroke-miterlimit:10;stroke-dasharray:none;stroke-opacity:1"
             d="M 0,0 H 41.063" /><g
             transform="translate(152.613,-98.062)"
             id="g84"><path
               id="path86"
               style="fill:none;stroke:#231f20;stroke-width:0.75;stroke-linecap:square;stroke-linejoin:miter;stroke-miterlimit:10;stroke-dasharray:none;stroke-opacity:1"
               d="M 0,0 V -20.625" /><g
               transform="translate(-1.5,-54.937)"
               id="g88"><path
                 id="path90"
                 style="fill:none;stroke:#231f20;stroke-width:0.75;stroke-linecap:square;stroke-linejoin:miter;stroke-miterlimit:10;stroke-dasharray:none;stroke-opacity:1"
                 d="M 0,0 V -20.062" /><g
                 transform="translate(-244.113,226.687)"
                 id="g92"><path
                   id="path94"
                   style="fill:none;stroke:#231f20;stroke-width:0.75;stroke-linecap:square;stroke-linejoin:miter;stroke-miterlimit:10;stroke-dasharray:none;stroke-opacity:1"
                   d="M 0,0 H -37.125" /><g
                   transform="translate(93,-73.688)"
                   id="g96"><path
                     id="path98"
                     style="fill:none;stroke:#231f20;stroke-width:0.75;stroke-linecap:square;stroke-linejoin:miter;stroke-miterlimit:10;stroke-dasharray:none;stroke-opacity:1"
                     d="M 0,0 V 0" /></g></g></g></g></g></g></g><g
       transform="translate(28.5,168.375)"
       id="g100"><path
         id="path102"
         style="fill:none;stroke:#231f20;stroke-width:2.25;stroke-linecap:square;stroke-linejoin:miter;stroke-miterlimit:10;stroke-dasharray:none;stroke-opacity:1"
         d="M 0,0 H -0.012" /></g><path
       id="path104"
       style="fill:#ffffff;fill-opacity:1;fill-rule:nonzero;stroke:none"
       d="m 243.188,228.375 h 90 v 15.375 h -90 z" /><g
       transform="translate(250.875,243.75)"
       id="g106"><path
         id="path108"
         style="fill:none;stroke:#231f20;stroke-width:0.75;stroke-linecap:square;stroke-linejoin:miter;stroke-miterlimit:10;stroke-dasharray:none;stroke-opacity:1"
         d="m 0,0 h 74.625 c 4.243,0 7.688,-3.444 7.688,-7.687 0,-4.244 -3.445,-7.688 -7.688,-7.688 H 0 c -4.243,0 -7.687,3.444 -7.687,7.688 C -7.687,-3.444 -4.243,0 0,0 Z" /></g><text
       id="text112"
       style="font-variant:normal;font-weight:normal;font-stretch:normal;font-size:9px;font-family:Times;-inkscape-font-specification:Times-Roman;writing-mode:lr-tb;fill:#231f20;fill-opacity:1;fill-rule:nonzero;stroke:none"
       transform="matrix(1,0,0,-1,259.1699,233.4477)"><tspan
         id="tspan110"
         y="0"
         x="0 4.5 9 11.25 13.5 18 22.5 24.75 27 29.502001 34.001999 37.998001 42.498001 45 47.501999 50.319 52.820999 56.817001 59.813999">65, 32, identifier</tspan></text>
<path
       id="path114"
       style="fill:#ffffff;fill-opacity:1;fill-rule:nonzero;stroke:none"
       d="m 265.688,204.75 h 67.5 v 15.375 h -67.5 z" /><g
       transform="translate(273.375,220.125)"
       id="g116"><path
         id="path118"
         style="fill:none;stroke:#231f20;stroke-width:0.75;stroke-linecap:square;stroke-linejoin:miter;stroke-miterlimit:10;stroke-dasharray:none;stroke-opacity:1"
         d="m 0,0 h 52.125 c 4.243,0 7.688,-3.444 7.688,-7.687 0,-4.244 -3.445,-7.688 -7.688,-7.688 H 0 c -4.243,0 -7.687,3.444 -7.687,7.688 C -7.687,-3.444 -4.243,0 0,0 Z" /></g><text
       id="text122"
       style="font-variant:normal;font-weight:normal;font-stretch:normal;font-size:9px;font-family:Times;-inkscape-font-specification:Times-Roman;writing-mode:lr-tb;fill:#231f20;fill-opacity:1;fill-rule:nonzero;stroke:none"
       transform="matrix(1,0,0,-1,280.1719,209.935)"><tspan
         id="tspan120"
         y="0"
         x="0 4.5 9 11.25 13.5 18 22.5 24.75 27 29.502001 33.362999 37.862999 40.365002">65, 44, text</tspan></text>
<path
       id="path124"
       style="fill:#ffffff;fill-opacity:1;fill-rule:nonzero;stroke:none"
       d="m 222.938,181.125 h 110.25 V 196.5 h -110.25 z" /><g
       transform="translate(230.625,196.5)"
       id="g126"><path
         id="path128"
         style="fill:none;stroke:#231f20;stroke-width:0.75;stroke-linecap:square;stroke-linejoin:miter;stroke-miterlimit:10;stroke-dasharray:none;stroke-opacity:1"
         d="m 0,0 h 94.875 c 4.243,0 7.688,-3.444 7.688,-7.687 0,-4.244 -3.445,-7.688 -7.688,-7.688 H 0 c -4.243,0 -7.687,3.444 -7.687,7.688 C -7.687,-3.444 -4.243,0 0,0 Z" /></g><text
       id="text132"
       style="font-variant:normal;font-weight:normal;font-stretch:normal;font-size:9px;font-family:Times;-inkscape-font-specification:Times-Roman;writing-mode:lr-tb;fill:#231f20;fill-opacity:1;fill-rule:nonzero;stroke:none"
       transform="matrix(1,0,0,-1,237.2871,186.5127)"><tspan
         id="tspan130"
         y="0"
         x="0 4.5 9 11.25 13.5 18 22.5 24.75 27 29.997 33.993 38.493 41.490002 45.486 48.987 52.983002 57.483002 59.985001 63.980999 66.483002 68.985001 73.485001 77.985001">18, 61, representation</tspan></text>
<path
       id="path134"
       style="fill:#ffffff;fill-opacity:1;fill-rule:nonzero;stroke:none"
       d="M 222.75,54.75 H 355.5 V 70.125 H 222.75 Z" /><g
       transform="translate(230.438,70.125)"
       id="g136"><path
         id="path138"
         style="fill:none;stroke:#231f20;stroke-width:0.75;stroke-linecap:square;stroke-linejoin:miter;stroke-miterlimit:10;stroke-dasharray:none;stroke-opacity:1"
         d="m 0,0 h 117.375 c 4.243,0 7.688,-3.444 7.688,-7.687 0,-4.245 -3.445,-7.688 -7.688,-7.688 H 0 c -4.243,0 -7.687,3.443 -7.687,7.688 C -7.687,-3.444 -4.243,0 0,0 Z" /></g><text
       id="text142"
       style="font-variant:normal;font-weight:normal;font-stretch:normal;font-size:9px;font-family:Times;-inkscape-font-specification:Times-Roman;writing-mode:lr-tb;fill:#231f20;fill-opacity:1;fill-rule:nonzero;stroke:none"
       transform="matrix(1,0,0,-1,237.5957,59.8672)"><tspan
         id="tspan140"
         y="0"
         x="0 4.5 9 11.25 13.5 18 22.5 27 29.25 31.5 36 38.501999 45.504002 49.5 54 57.500999 60.002998 64.502998 69.002998 73.502998 77.499001 81.999001 86.499001 90.999001 93.500999">24, 235, dimension_count</tspan></text>
<path
       id="path144"
       style="fill:#ffffff;fill-opacity:1;fill-rule:nonzero;stroke:none"
       d="m 165.375,0.375 h 189 V 15.75 h -189 z" /><g
       transform="translate(173.063,15.75)"
       id="g146"><path
         id="path148"
         style="fill:none;stroke:#231f20;stroke-width:0.75;stroke-linecap:square;stroke-linejoin:miter;stroke-miterlimit:10;stroke-dasharray:none;stroke-opacity:1"
         d="m 0,0 h 173.625 c 4.243,0 7.688,-3.444 7.688,-7.6875 0,-4.2445 -3.445,-7.6875 -7.688,-7.6875 H 0 c -4.244,0 -7.687,3.443 -7.687,7.6875 C -7.687,-3.444 -4.244,0 0,0 Z" /></g><text
       id="text152"
       style="font-variant:normal;font-weight:normal;font-stretch:normal;font-size:9px;font-family:Times;-inkscape-font-specification:Times-Roman;writing-mode:lr-tb;fill:#231f20;fill-opacity:1;fill-rule:nonzero;stroke:none"
       transform="matrix(1,0,0,-1,180.0859,5.7949)"><tspan
         id="tspan150"
         y="0"
         x="0 4.5 9 11.25 13.5 18 22.5 27 29.25 31.5 36 40.5 44.495998 48.492001 51.488998 53.991001 57.987 60.488998 64.988998 67.490997 71.990997 76.490997 83.492996 87.488998 91.485001 94.986 99.486 102.483 106.479 110.979 117.477 119.979 122.481 126.981 131.481 135.981 140.481 142.983 145.485">47, 236, uncertainty_measure_with_unit</tspan></text>
<path
       id="path154"
       style="fill:#ffffff;fill-opacity:1;fill-rule:nonzero;stroke:none"
       d="m 251.625,117.375 h 81 v 15.375 h -81 z" /><g
       transform="translate(259.313,132.75)"
       id="g156"><path
         id="path158"
         style="fill:none;stroke:#231f20;stroke-width:0.75;stroke-linecap:square;stroke-linejoin:miter;stroke-miterlimit:10;stroke-dasharray:none;stroke-opacity:1"
         d="m 0,0 h 65.625 c 4.243,0 7.688,-3.444 7.688,-7.687 0,-4.245 -3.445,-7.688 -7.688,-7.688 H 0 c -4.243,0 -7.687,3.443 -7.687,7.688 C -7.687,-3.444 -4.243,0 0,0 Z" /></g><text
       id="text162"
       style="font-variant:normal;font-weight:normal;font-stretch:normal;font-size:9px;font-family:Times;-inkscape-font-specification:Times-Roman;writing-mode:lr-tb;fill:#231f20;fill-opacity:1;fill-rule:nonzero;stroke:none"
       transform="matrix(1,0,0,-1,267.3574,122.4922)"><tspan
         id="tspan160"
         y="0"
         x="0 4.5 9 11.25 13.5 18 22.5 27 29.25 31.5 36 40.5 43.001999 45.504002">47, 180, unit</tspan></text>
<path
       id="path164"
       style="fill:#ffffff;fill-opacity:1;fill-rule:nonzero;stroke:none"
       d="m 88.875,253.875 h 66.75 v 15.375 h -66.75 z" /><g
       transform="translate(96.563,269.25)"
       id="g166"><path
         id="path168"
         style="fill:none;stroke:#231f20;stroke-width:0.75;stroke-linecap:square;stroke-linejoin:miter;stroke-miterlimit:10;stroke-dasharray:none;stroke-opacity:1"
         d="m 0,0 h 51.375 c 4.243,0 7.688,-3.444 7.688,-7.687 0,-4.244 -3.445,-7.688 -7.688,-7.688 H 0 c -4.244,0 -7.687,3.444 -7.687,7.688 C -7.687,-3.444 -4.244,0 0,0 Z" /></g><text
       id="text172"
       style="font-variant:normal;font-weight:normal;font-stretch:normal;font-size:9px;font-family:Times;-inkscape-font-specification:Times-Roman;writing-mode:lr-tb;fill:#231f20;fill-opacity:1;fill-rule:nonzero;stroke:none"
       transform="matrix(1,0,0,-1,100.4883,259.1953)"><tspan
         id="tspan170"
         y="0"
         x="0 4.5 9 11.25 13.5 18 22.5 24.75 27.747 32.247002 36.747002 39.743999">20, 62 (18)</tspan></text>
<g
       transform="translate(66.006,90.74)"
       id="g174"><path
         id="path176"
         style="fill:#ffffff;fill-opacity:1;fill-rule:nonzero;stroke:none"
         d="M 0,0 C 0,2.07 -1.68,3.75 -3.75,3.75 -5.82,3.75 -7.5,2.07 -7.5,0 c 0,-2.07 1.68,-3.75 3.75,-3.75 C -1.68,-3.75 0,-2.07 0,0" /></g><g
       transform="translate(66.006,90.74)"
       id="g178"><path
         id="path180"
         style="fill:none;stroke:#231f20;stroke-width:0.75;stroke-linecap:square;stroke-linejoin:miter;stroke-miterlimit:10;stroke-dasharray:none;stroke-opacity:1"
         d="M 0,0 C 0,2.07 -1.68,3.75 -3.75,3.75 -5.82,3.75 -7.5,2.07 -7.5,0 c 0,-2.07 1.68,-3.75 3.75,-3.75 C -1.68,-3.75 0,-2.07 0,0" /></g><g
       transform="translate(66.366,36.74)"
       id="g182"><path
         id="path184"
         style="fill:#ffffff;fill-opacity:1;fill-rule:nonzero;stroke:none"
         d="M 0,0 C 0,2.07 -1.68,3.75 -3.75,3.75 -5.82,3.75 -7.5,2.07 -7.5,0 c 0,-2.07 1.68,-3.75 3.75,-3.75 C -1.68,-3.75 0,-2.07 0,0" /></g><g
       transform="translate(66.366,36.74)"
       id="g186"><path
         id="path188"
         style="fill:none;stroke:#231f20;stroke-width:0.75;stroke-linecap:square;stroke-linejoin:miter;stroke-miterlimit:10;stroke-dasharray:none;stroke-opacity:1"
         d="M 0,0 C 0,2.07 -1.68,3.75 -3.75,3.75 -5.82,3.75 -7.5,2.07 -7.5,0 c 0,-2.07 1.68,-3.75 3.75,-3.75 C -1.68,-3.75 0,-2.07 0,0" /></g><g
       transform="translate(66.366,125.3)"
       id="g190"><path
         id="path192"
         style="fill:#ffffff;fill-opacity:1;fill-rule:nonzero;stroke:none"
         d="M 0,0 C 0,2.071 -1.68,3.75 -3.75,3.75 -5.82,3.75 -7.5,2.071 -7.5,0 c 0,-2.069 1.68,-3.75 3.75,-3.75 C -1.68,-3.75 0,-2.069 0,0" /></g><g
       transform="translate(66.366,125.3)"
       id="g194"><path
         id="path196"
         style="fill:none;stroke:#231f20;stroke-width:0.75;stroke-linecap:square;stroke-linejoin:miter;stroke-miterlimit:10;stroke-dasharray:none;stroke-opacity:1"
         d="M 0,0 C 0,2.071 -1.68,3.75 -3.75,3.75 -5.82,3.75 -7.5,2.071 -7.5,0 c 0,-2.069 1.68,-3.75 3.75,-3.75 C -1.68,-3.75 0,-2.069 0,0" /></g><g
       transform="translate(67.536,151.49)"
       id="g198"><path
         id="path200"
         style="fill:#ffffff;fill-opacity:1;fill-rule:nonzero;stroke:none"
         d="M 0,0 C 0,2.07 -1.68,3.75 -3.75,3.75 -5.819,3.75 -7.5,2.07 -7.5,0 c 0,-2.07 1.681,-3.75 3.75,-3.75 C -1.68,-3.75 0,-2.07 0,0" /></g><g
       transform="translate(67.536,151.49)"
       id="g202"><path
         id="path204"
         style="fill:none;stroke:#231f20;stroke-width:0.75;stroke-linecap:square;stroke-linejoin:miter;stroke-miterlimit:10;stroke-dasharray:none;stroke-opacity:1"
         d="M 0,0 C 0,2.07 -1.68,3.75 -3.75,3.75 -5.819,3.75 -7.5,2.07 -7.5,0 c 0,-2.07 1.681,-3.75 3.75,-3.75 C -1.68,-3.75 0,-2.07 0,0" /></g><g
       transform="translate(55.477,247.521)"
       id="g206"><path
         id="path208"
         style="fill:#ffffff;fill-opacity:1;fill-rule:nonzero;stroke:none"
         d="M 0,0 C 0,2.07 -1.68,3.75 -3.75,3.75 -5.82,3.75 -7.5,2.07 -7.5,0 c 0,-2.07 1.68,-3.75 3.75,-3.75 C -1.68,-3.75 0,-2.07 0,0" /></g><g
       transform="translate(55.477,247.521)"
       id="g210"><path
         id="path212"
         style="fill:none;stroke:#231f20;stroke-width:0.75;stroke-linecap:square;stroke-linejoin:miter;stroke-miterlimit:10;stroke-dasharray:none;stroke-opacity:1"
         d="M 0,0 C 0,2.07 -1.68,3.75 -3.75,3.75 -5.82,3.75 -7.5,2.07 -7.5,0 c 0,-2.07 1.68,-3.75 3.75,-3.75 C -1.68,-3.75 0,-2.07 0,0" /></g><text
       id="text228"
       style="font-variant:normal;font-weight:normal;font-stretch:normal;font-size:9px;font-family:Times;-inkscape-font-specification:Times-Roman;writing-mode:lr-tb;fill:#231f20;fill-opacity:1;fill-rule:nonzero;stroke:none"
       transform="matrix(1,0,0,-1,110.625,224.9238)"><tspan
         id="tspan214"
         y="0"
         x="0 3.9960001 8.4960003 12.996 15.498 19.358999 23.858999 26.361 30.861 33.362999 37.862999 41.859001 46.359001 48.861 51.362999 54.18 56.681999 60.678001 63.674999">context_identifier</tspan><tspan
         id="tspan216"
         y="22.7223"
         x="0 3.9960001 8.4960003 12.996 15.498 19.358999 23.858999 26.361 30.861 33.362999 37.862999 42.362999 46.359001">context_type</tspan><tspan
         id="tspan218"
         y="46.888199"
         x="-2.6433001 0.35370001 3.3506999 9.8486996 16.346701 19.3437 22.3407 26.3367 30.8367 33.833698 37.8297 41.3307 45.326698 49.826698 52.328701 56.324699 58.826698 61.328701 65.828697 70.328697 73.829697 78.329697 80.831703 85.331703 89.831703">(INV)representations_in_</tspan><tspan
         id="tspan220"
         y="57.888"
         x="-2.6433001 1.3527 5.8527002 10.3527 12.8547 16.7157 21.2157 23.717699 25.967699 30.971701 33.9687 38.4687 40.970699 44.966702 47.963699">context S[1:?]</tspan><tspan
         id="tspan222"
         y="146.1582"
         x="104.6133 108.6093 113.1093 117.6093 120.6063 125.1063 127.6083 132.10831 136.10429 138.60629 142.60229 147.10229 150.6033 155.1033 159.0993 163.09531 167.09129 171.59129 176.09129 178.59331 185.59531 189.59129 194.09129 197.5923 200.0943 204.5943 209.0943">coordinate_space_dimension</tspan><tspan
         id="tspan224"
         y="200.9493"
         x="115.8633 120.3633 124.8633 128.8593 132.8553 135.85229 138.35429 142.3503 144.85229 149.35229 151.85429 156.35429 158.60429 163.60831 166.6053 171.1053 173.6073 177.6033 180.6003">uncertainty S[1:?]</tspan><tspan
         id="tspan226"
         y="110.9493"
         x="87.362999 91.862999 96.362999 98.864998 101.367 104.868 107.118 112.122 115.119 119.619 122.121 126.117 129.114">units S[1:?]</tspan></text>
<path
       id="path230"
       style="fill:#ffffff;fill-opacity:1;fill-rule:nonzero;stroke:none"
       d="m 0.375,181.125 h 102.75 V 243.75 H 0.375 Z" /><g
       transform="translate(0.375,243.75)"
       id="g232"><path
         id="path234"
         style="fill:none;stroke:#231f20;stroke-width:0.75;stroke-linecap:square;stroke-linejoin:miter;stroke-miterlimit:10;stroke-dasharray:none;stroke-opacity:1"
         d="M 102.75,0 H 0 v -62.625 h 102.75 z" /><g
         id="g236"><path
           id="path238"
           style="fill:none;stroke:#231f20;stroke-width:0.75;stroke-linecap:square;stroke-linejoin:miter;stroke-miterlimit:10;stroke-dasharray:none;stroke-opacity:1"
           d="M 0,0 Z" /></g></g><text
       id="text242"
       style="font-variant:normal;font-weight:normal;font-stretch:normal;font-size:9px;font-family:Times;-inkscape-font-specification:Times-Roman;writing-mode:lr-tb;fill:#231f20;fill-opacity:1;fill-rule:nonzero;stroke:none"
       transform="matrix(1,0,0,-1,9.9766,210.1377)"><tspan
         id="tspan240"
         y="0"
         x="0 2.997 6.993 11.493 14.49 18.486 21.987 25.983 30.483 32.985001 36.980999 39.483002 41.985001 46.485001 50.985001 55.485001 59.480999 63.980999 68.481003 70.983002 74.844002 79.344002 81.846001">representation_context</tspan></text>
<path
       id="path244"
       style="fill:#ffffff;fill-opacity:1;fill-rule:nonzero;stroke:none"
       d="M 66,82.5 H 210 V 97.875 H 66 Z" /><g
       transform="translate(66,97.875)"
       id="g246"><path
         id="path248"
         style="fill:none;stroke:#231f20;stroke-width:0.75;stroke-linecap:square;stroke-linejoin:miter;stroke-miterlimit:10;stroke-dasharray:none;stroke-opacity:1"
         d="M 144,0 H 0 v -15.375 h 144 z" /><g
         id="g250"><path
           id="path252"
           style="fill:none;stroke:#231f20;stroke-width:0.75;stroke-linecap:square;stroke-linejoin:miter;stroke-miterlimit:10;stroke-dasharray:none;stroke-opacity:1"
           d="M 0,0 Z" /></g></g><text
       id="text256"
       style="font-variant:normal;font-weight:normal;font-stretch:normal;font-size:9px;font-family:Times;-inkscape-font-specification:Times-Roman;writing-mode:lr-tb;fill:#231f20;fill-opacity:1;fill-rule:nonzero;stroke:none"
       transform="matrix(1,0,0,-1,75.9697,87.9453)"><tspan
         id="tspan254"
         y="0"
         x="0 4.5 8.4960003 12.996 19.997999 23.993999 26.496 29.493 31.995001 35.991001 40.491001 43.487999 47.484001 51.984001 54.980999 58.977001 62.478001 66.473999 70.973999 73.475998 77.472 79.973999 82.475998 86.975998 91.475998 95.975998 99.972 104.472 108.972 111.474 115.335 119.835 122.337">geometric_representation_context</tspan></text>
<path
       id="path258"
       style="fill:#ffffff;fill-opacity:1;fill-rule:nonzero;stroke:none"
       d="m 66.375,28.125 h 155.25 V 43.5 H 66.375 Z" /><g
       transform="translate(66.375,43.5)"
       id="g260"><path
         id="path262"
         style="fill:none;stroke:#231f20;stroke-width:0.75;stroke-linecap:square;stroke-linejoin:miter;stroke-miterlimit:10;stroke-dasharray:none;stroke-opacity:1"
         d="M 155.25,0 H 0 v -15.375 h 155.25 z" /><g
         id="g264"><path
           id="path266"
           style="fill:none;stroke:#231f20;stroke-width:0.75;stroke-linecap:square;stroke-linejoin:miter;stroke-miterlimit:10;stroke-dasharray:none;stroke-opacity:1"
           d="M 0,0 Z" /></g></g><text
       id="text270"
       style="font-variant:normal;font-weight:normal;font-stretch:normal;font-size:9px;font-family:Times;-inkscape-font-specification:Times-Roman;writing-mode:lr-tb;fill:#231f20;fill-opacity:1;fill-rule:nonzero;stroke:none"
       transform="matrix(1,0,0,-1,72.9619,33.5703)"><tspan
         id="tspan268"
         y="0"
         x="0 4.5 7.0019999 11.502 16.002001 19.997999 22.5 27 31.5 36 39.995998 43.992001 46.988998 49.491001 53.487 55.988998 60.488998 62.991001 67.490997 71.990997 75.987 79.487999 82.988998 85.490997 89.990997 94.490997 98.487 102.987 107.487 111.483 115.983 120.483 122.985 126.846 131.34599 133.84801">global_uncertainty_assigned_context</tspan></text>
<path
       id="path272"
       style="fill:#ffffff;fill-opacity:1;fill-rule:nonzero;stroke:none"
       d="m 66.375,116.625 h 126.75 V 132 H 66.375 Z" /><g
       transform="translate(66.375,132)"
       id="g274"><path
         id="path276"
         style="fill:none;stroke:#231f20;stroke-width:0.75;stroke-linecap:square;stroke-linejoin:miter;stroke-miterlimit:10;stroke-dasharray:none;stroke-opacity:1"
         d="M 126.75,0 H 0 v -15.375 h 126.75 z" /><g
         id="g278"><path
           id="path280"
           style="fill:none;stroke:#231f20;stroke-width:0.75;stroke-linecap:square;stroke-linejoin:miter;stroke-miterlimit:10;stroke-dasharray:none;stroke-opacity:1"
           d="M 0,0 Z" /></g></g><text
       id="text284"
       style="font-variant:normal;font-weight:normal;font-stretch:normal;font-size:9px;font-family:Times;-inkscape-font-specification:Times-Roman;writing-mode:lr-tb;fill:#231f20;fill-opacity:1;fill-rule:nonzero;stroke:none"
       transform="matrix(1,0,0,-1,76.4678,122.0703)"><tspan
         id="tspan282"
         y="0"
         x="0 4.5 7.0019999 11.502 16.002001 19.997999 22.5 27 31.5 36 38.501999 41.004002 45.504002 49.5 53.000999 56.501999 59.004002 63.504002 68.003998 72 76.5 81 84.996002 89.496002 93.996002 96.498001 100.359 104.859 107.361">global_unit_assigned_context</tspan></text>
<path
       id="path286"
       style="fill:#ffffff;fill-opacity:1;fill-rule:nonzero;stroke:none"
       d="m 67.5,143.25 h 150 v 15.375 h -150 z" /><g
       transform="translate(67.5,158.625)"
       id="g288"><path
         id="path290"
         style="fill:none;stroke:#231f20;stroke-width:0.75;stroke-linecap:square;stroke-linejoin:miter;stroke-miterlimit:10;stroke-dasharray:none;stroke-opacity:1"
         d="M 150,0 H 0 v -15.375 h 150 z" /><g
         id="g292"><path
           id="path294"
           style="fill:none;stroke:#231f20;stroke-width:0.75;stroke-linecap:square;stroke-linejoin:miter;stroke-miterlimit:10;stroke-dasharray:none;stroke-opacity:1"
           d="M 0,0 Z" /></g></g><text
       id="text298"
       style="font-variant:normal;font-weight:normal;font-stretch:normal;font-size:9px;font-family:Times;-inkscape-font-specification:Times-Roman;writing-mode:lr-tb;fill:#231f20;fill-opacity:1;fill-rule:nonzero;stroke:none"
       transform="matrix(1,0,0,-1,75.9707,148.6377)"><tspan
         id="tspan296"
         y="0"
         x="0 4.5 8.4960003 11.493 15.489 22.490999 26.487 28.989 31.986 34.487999 38.484001 42.984001 45.980999 49.977001 54.477001 57.473999 61.470001 64.971001 68.967003 73.467003 75.969002 79.964996 82.467003 84.969002 89.469002 93.969002 98.469002 102.465 106.965 111.465 113.967 117.828 122.328 124.83">parametric_representation_context</tspan></text>
</g></svg>