<?xml version="1.0" encoding="UTF-8" standalone="no"?>
<svg
   xmlns:dc="http://purl.org/dc/elements/1.1/"
   xmlns:cc="http://creativecommons.org/ns#"
   xmlns:rdf="http://www.w3.org/1999/02/22-rdf-syntax-ns#"
   xmlns:svg="http://www.w3.org/2000/svg"
   xmlns="http://www.w3.org/2000/svg"
   viewBox="0 0 576 336"
   height="336"
   width="576"
   xml:space="preserve"
   id="svg2"
   version="1.1"><metadata
     id="metadata8"><rdf:RDF><cc:Work
         rdf:about=""><dc:format>image/svg+xml</dc:format><dc:type
           rdf:resource="http://purl.org/dc/dcmitype/StillImage" /></cc:Work></rdf:RDF></metadata><defs
     id="defs6" /><g
     transform="matrix(1.3333333,0,0,-1.3333333,0,336)"
     id="g10"><g
       transform="translate(294.339,130.11)"
       id="g12"><path
         id="path14"
         style="fill:#231f20;fill-opacity:1;fill-rule:nonzero;stroke:none"
         d="M 0,0 C 0.13,-1.041 0.496,-2.645 1.031,-4.415 1.53,-6.068 2.297,-7.994 2.522,-8.469 h -5.044 c 0.532,1.326 0.992,2.401 1.492,4.054 0.534,1.77 0.9,3.374 1.03,4.415" /></g><g
       transform="translate(230.334,97.334)"
       id="g16"><path
         id="path18"
         style="fill:none;stroke:#231f20;stroke-width:1;stroke-linecap:butt;stroke-linejoin:miter;stroke-miterlimit:4;stroke-dasharray:none;stroke-opacity:1"
         d="M 0,0 V 14 H 64 V 26" /><g
         transform="translate(126.5,-1.933)"
         id="g20"><path
           id="path22"
           style="fill:none;stroke:#231f20;stroke-width:1;stroke-linecap:butt;stroke-linejoin:miter;stroke-miterlimit:4;stroke-dasharray:none;stroke-opacity:1"
           d="M 0,0 V 15.921 H -62.5" /><g
           transform="translate(-214.5,44.933)"
           id="g24"><path
             id="path26"
             style="fill:none;stroke:#231f20;stroke-width:1;stroke-linecap:butt;stroke-linejoin:miter;stroke-miterlimit:4;stroke-dasharray:none;stroke-opacity:1"
             d="m 0,0 c 10.75,-0.5 11.26,-0.934 15.873,-1.068 6.916,-0.201 13.757,1.73 16.956,8.379 4.404,9.158 1.93,19.785 3.584,29.439 0.844,4.929 3.217,11.293 7.076,14.736 5.553,4.954 13.302,4.551 20.256,4.539 C 74.497,56.006 85.245,56.5 96,56.5" /></g></g></g><g
       transform="translate(139.927,139.419)"
       id="g28"><path
         id="path30"
         style="fill:#231f20;fill-opacity:1;fill-rule:nonzero;stroke:none"
         d="M 0,0 C 1.628,-0.576 2.68,-1.085 3.98,-1.678 L 4.215,3.36 C 3.73,3.157 1.771,2.481 0.096,2.059 -1.697,1.607 -3.316,1.316 -4.362,1.234 -3.329,1.056 -1.743,0.616 0,0" /></g><g
       transform="translate(230.432,63.667)"
       id="g32"><path
         id="path34"
         style="fill:#ffffff;fill-opacity:1;fill-rule:nonzero;stroke:#231f20;stroke-width:1;stroke-linecap:butt;stroke-linejoin:miter;stroke-miterlimit:4;stroke-dasharray:none;stroke-opacity:1"
         d="M 0,0 V 19.333" /></g><g
       transform="translate(231.457,61.305)"
       id="g36"><path
         id="path38"
         style="fill:#231f20;fill-opacity:1;fill-rule:nonzero;stroke:none"
         d="M 0,0 C 0.5,1.653 0.959,2.728 1.492,4.054 H -3.553 C -3.327,3.58 -2.56,1.653 -2.061,0 -1.526,-1.77 -1.161,-3.374 -1.03,-4.415 -0.9,-3.374 -0.534,-1.77 0,0" /></g><g
       transform="translate(357.098,64.334)"
       id="g40"><path
         id="path42"
         style="fill:#ffffff;fill-opacity:1;fill-rule:nonzero;stroke:#231f20;stroke-width:1;stroke-linecap:butt;stroke-linejoin:miter;stroke-miterlimit:4;stroke-dasharray:none;stroke-opacity:1"
         d="M 0,0 V 19.333" /></g><g
       transform="translate(358.123,61.972)"
       id="g44"><path
         id="path46"
         style="fill:#231f20;fill-opacity:1;fill-rule:nonzero;stroke:none"
         d="M 0,0 C 0.5,1.653 0.96,2.728 1.492,4.054 H -3.553 C -3.327,3.58 -2.56,1.653 -2.061,0 -1.526,-1.77 -1.161,-3.374 -1.03,-4.415 -0.9,-3.374 -0.534,-1.77 0,0" /></g><text
       id="text50"
       style="font-style:italic;font-variant:normal;font-weight:normal;font-stretch:normal;font-size:9.88309956px;font-family:Helvetica;-inkscape-font-specification:Helvetica-Oblique;writing-mode:lr-tb;fill:#231f20;fill-opacity:1;fill-rule:nonzero;stroke:none"
       transform="matrix(0.99825966,0,0,-1,190.7998,6.7857)"><tspan
         id="tspan48"
         y="0"
         x="0 2.1940482 10.42667 15.921674 18.115723 20.309771 25.25132 27.445368 30.192871 32.940372 38.435375 43.930378 48.871929 53.81348 57.104553 59.298599 64.793602 67.541107 69.735153 75.230156 127.03638 132.53139 137.47293 142.96794 145.16199 147.35603 152.29758 154.49164 157.23914 159.98663 165.48164 170.97664 175.9182 180.85974 184.15082 186.34486 191.83986 194.58737 196.78142 202.27641">implicit descriptionexplicit description</tspan></text>
<g
       transform="translate(277.638,80.345)"
       id="g52"><path
         id="path54"
         style="fill:#939598;fill-opacity:1;fill-rule:nonzero;stroke:none"
         d="m 0,0 c 0,-6.22 -5.372,-11.262 -12,-11.262 h -66.667 c -6.627,0 -12,5.042 -12,11.262 v 7.508 c 0,6.22 5.373,11.262 12,11.262 H -12 c 6.628,0 12,-5.042 12,-11.262 V 0" /></g><g
       transform="translate(275.478,82.505)"
       id="g56"><path
         id="path58"
         style="fill:#ffffff;fill-opacity:1;fill-rule:nonzero;stroke:#231f20;stroke-width:0.5;stroke-linecap:butt;stroke-linejoin:miter;stroke-miterlimit:4;stroke-dasharray:none;stroke-opacity:1"
         d="m 0,0 c 0,-6.22 -5.372,-11.262 -12,-11.262 h -66.667 c -6.627,0 -12,5.042 -12,11.262 v 7.508 c 0,6.219 5.373,11.261 12,11.261 H -12 c 6.628,0 12,-5.042 12,-11.261 z" /></g><text
       id="text64"
       style="font-variant:normal;font-weight:normal;font-stretch:normal;font-size:10px;font-family:Helvetica;-inkscape-font-specification:Helvetica;writing-mode:lr-tb;fill:#231f20;fill-opacity:1;fill-rule:nonzero;stroke:none"
       transform="matrix(0.99826,0,0,-1,195.1858,88.8828)"><tspan
         id="tspan60"
         y="0"
         x="0 5 10.56 16.120001 21.68 27.24 30.02 35.580002 41.139999 43.919998 46.139999 51.700001 53.919998 56.700001 58.919998 64.480003 70.040001">shape definition</tspan><tspan
         id="tspan62"
         y="12"
         x="3.0599999 6.3899999 11.95 17.51 20.84 26.4 31.4 36.959999 42.52 45.299999 50.860001 53.639999 55.860001 61.419998">representation</tspan></text>
<g
       transform="translate(287.056,34.543)"
       id="g66"><path
         id="path68"
         style="fill:#939598;fill-opacity:1;fill-rule:nonzero;stroke:none"
         d="M 0,0 C 0,-6.628 -6.488,-12 -14.492,-12 H -95.01 c -8.003,0 -14.493,5.372 -14.493,12 v 8 c 0,6.627 6.49,12 14.493,12 h 80.518 C -6.488,20 0,14.627 0,8 V 0" /></g><g
       transform="translate(284.896,36.703)"
       id="g70"><path
         id="path72"
         style="fill:#ffffff;fill-opacity:1;fill-rule:nonzero;stroke:#231f20;stroke-width:0.5;stroke-linecap:butt;stroke-linejoin:miter;stroke-miterlimit:4;stroke-dasharray:none;stroke-opacity:1"
         d="M 0,0 C 0,-6.628 -6.488,-12 -14.492,-12 H -95.01 c -8.003,0 -14.493,5.372 -14.493,12 v 8 c 0,6.627 6.49,12 14.493,12 h 80.518 C -6.488,20 0,14.627 0,8 Z" /></g><text
       id="text78"
       style="font-variant:normal;font-weight:normal;font-stretch:normal;font-size:10px;font-family:Helvetica;-inkscape-font-specification:Helvetica;writing-mode:lr-tb;fill:#231f20;fill-opacity:1;fill-rule:nonzero;stroke:none"
       transform="matrix(0.99826,0,0,-1,183.2566,43.3272)"><tspan
         id="tspan74"
         y="0"
         x="0 5 10.56 16.120001 21.68 27.24 30.02 33.349998 38.91 44.470001 47.799999 53.360001 58.360001 63.919998 69.480003 72.260002 77.82 80.599998 82.82 88.379997 93.940002">shape representation</tspan><tspan
         id="tspan76"
         y="12"
         x="11.405 18.625 20.844999 23.625 29.184999 31.965 37.525002 43.084999 46.415001 51.974998 60.305 65.864998 68.644997 74.205002 77.535004">with parameters</tspan></text>
<g
       transform="translate(413.889,40.743)"
       id="g80"><path
         id="path82"
         style="fill:#939598;fill-opacity:1;fill-rule:nonzero;stroke:none"
         d="M 0,0 C 0,-4.574 -6.488,-8.28 -14.493,-8.28 H -95.01 c -8.004,0 -14.493,3.706 -14.493,8.28 v 5.52 c 0,4.573 6.489,8.28 14.493,8.28 h 80.517 C -6.488,13.8 0,10.093 0,5.52 V 0" /></g><g
       transform="translate(411.729,42.903)"
       id="g84"><path
         id="path86"
         style="fill:#ffffff;fill-opacity:1;fill-rule:nonzero;stroke:#231f20;stroke-width:0.5;stroke-linecap:butt;stroke-linejoin:miter;stroke-miterlimit:4;stroke-dasharray:none;stroke-opacity:1"
         d="M 0,0 C 0,-4.574 -6.488,-8.28 -14.493,-8.28 H -95.01 c -8.004,0 -14.493,3.706 -14.493,8.28 v 5.52 c 0,4.573 6.489,8.28 14.493,8.28 h 80.517 C -6.488,13.8 0,10.093 0,5.52 Z" /></g><text
       id="text90"
       style="font-variant:normal;font-weight:normal;font-stretch:normal;font-size:10px;font-family:Helvetica;-inkscape-font-specification:Helvetica;writing-mode:lr-tb;fill:#231f20;fill-opacity:1;fill-rule:nonzero;stroke:none"
       transform="matrix(0.99826,0,0,-1,310.0901,42.2866)"><tspan
         id="tspan88"
         y="0"
         x="0 5 10.56 16.120001 21.68 27.24 30.02 33.349998 38.91 44.470001 47.799999 53.360001 58.360001 63.919998 69.480003 72.260002 77.82 80.599998 82.82 88.379997">shape representation</tspan></text>
<g
       transform="translate(404.471,80.345)"
       id="g92"><path
         id="path94"
         style="fill:#939598;fill-opacity:1;fill-rule:nonzero;stroke:none"
         d="m 0,0 c 0,-6.22 -5.372,-11.262 -12,-11.262 h -66.667 c -6.627,0 -12,5.042 -12,11.262 v 7.508 c 0,6.22 5.373,11.262 12,11.262 H -12 c 6.628,0 12,-5.042 12,-11.262 V 0" /></g><g
       transform="translate(402.311,82.505)"
       id="g96"><path
         id="path98"
         style="fill:#ffffff;fill-opacity:1;fill-rule:nonzero;stroke:#231f20;stroke-width:0.5;stroke-linecap:butt;stroke-linejoin:miter;stroke-miterlimit:4;stroke-dasharray:none;stroke-opacity:1"
         d="m 0,0 c 0,-6.22 -5.372,-11.262 -12,-11.262 h -66.667 c -6.627,0 -12,5.042 -12,11.262 v 7.508 c 0,6.219 5.373,11.261 12,11.261 H -12 c 6.628,0 12,-5.042 12,-11.261 z" /></g><text
       id="text104"
       style="font-variant:normal;font-weight:normal;font-stretch:normal;font-size:10px;font-family:Helvetica;-inkscape-font-specification:Helvetica;writing-mode:lr-tb;fill:#231f20;fill-opacity:1;fill-rule:nonzero;stroke:none"
       transform="matrix(0.99826,0,0,-1,322.0193,88.8828)"><tspan
         id="tspan100"
         y="0"
         x="0 5 10.56 16.120001 21.68 27.24 30.02 35.580002 41.139999 43.919998 46.139999 51.700001 53.919998 56.700001 58.919998 64.480003 70.040001">shape definition</tspan><tspan
         id="tspan102"
         y="12"
         x="3.0599999 6.3899999 11.95 17.51 20.84 26.4 31.4 36.959999 42.52 45.299999 50.860001 53.639999 55.860001 61.419998">representation</tspan></text>
<g
       transform="translate(353.881,177.223)"
       id="g106"><path
         id="path108"
         style="fill:#939598;fill-opacity:1;fill-rule:nonzero;stroke:none"
         d="m 0,0 c 0,-6.245 -5.002,-11.309 -11.172,-11.309 h -93.724 c -6.171,0 -11.173,5.064 -11.173,11.309 v 52.773 c 0,6.247 5.002,11.309 11.173,11.309 h 93.724 C -5.002,64.082 0,59.02 0,52.773 V 0" /></g><g
       transform="translate(351.721,179.383)"
       id="g110"><path
         id="path112"
         style="fill:#ffffff;fill-opacity:1;fill-rule:nonzero;stroke:#231f20;stroke-width:1;stroke-linecap:butt;stroke-linejoin:miter;stroke-miterlimit:4;stroke-dasharray:none;stroke-opacity:1"
         d="m 0,0 c 0,-6.245 -5.002,-11.309 -11.172,-11.309 h -93.724 c -6.171,0 -11.173,5.064 -11.173,11.309 v 52.773 c 0,6.247 5.002,11.309 11.173,11.309 h 93.724 C -5.002,64.082 0,59.02 0,52.773 Z" /></g><text
       id="text116"
       style="font-variant:normal;font-weight:bold;font-stretch:normal;font-size:12px;font-family:Helvetica;-inkscape-font-specification:Helvetica-Bold;writing-mode:lr-tb;fill:#231f20;fill-opacity:1;fill-rule:nonzero;stroke:none"
       transform="matrix(0.99825833,0,0,-1,260.5682,225.3936)"><tspan
         id="tspan114"
         y="0"
         x="0 7.3319998 14.664 21.336 24.672001 32.004002 38.675999 45.348 49.344002 56.675999 61.344002">The Feature</tspan></text>
<text
       id="text120"
       style="font-variant:normal;font-weight:normal;font-stretch:normal;font-size:12px;font-family:Helvetica;-inkscape-font-specification:Helvetica;writing-mode:lr-tb;fill:#231f20;fill-opacity:1;fill-rule:nonzero;stroke:none"
       transform="matrix(0.99825833,0,0,-1,328.46574,225.3936)"><tspan
         id="tspan118"
         y="0"
         x="0"></tspan></text>
<text
       id="text130"
       style="font-variant:normal;font-weight:normal;font-stretch:normal;font-size:10px;font-family:Helvetica;-inkscape-font-specification:Helvetica;writing-mode:lr-tb;fill:#231f20;fill-opacity:1;fill-rule:nonzero;stroke:none"
       transform="matrix(0.99826,0,0,-1,255.9592,213.3936)"><tspan
         id="tspan122"
         y="0"
         x="0 5 10.56 18.889999 24.450001 26.67 32.23 37.23 40.009998 42.23 47.790001 52.790001 55.57 61.130001 66.690002 71.690002 77.25">complex instance</tspan><tspan
         id="tspan124"
         y="12"
         x="-6.6799998 -1.12 1.66 4.4400001 6.6599998 12.22 17.219999 20 25.559999 31.120001 36.119999 41.68 47.240002 52.799999 55.580002 61.139999 66.699997 69.480003 75.040001 78.370003 83.93">of instanced_feature</tspan><tspan
         id="tspan126"
         y="24"
         x="-9.46 -3.9000001 1.66 7.2199998 10 12.78 18.34 23.9 26.68 32.240002 35.57 41.130001 46.689999 52.25 57.810001 60.59 62.810001 68.370003 70.589996 73.370003 75.589996 81.150002 86.709999">and feature_definition</tspan><tspan
         id="tspan128"
         y="36"
         x="18.334999 23.334999 28.895 34.455002 37.235001 42.235001 47.794998 53.355">subtype </tspan></text>
<g
       transform="translate(294.51,140.334)"
       id="g132"><path
         id="path134"
         style="fill:#ffffff;fill-opacity:1;fill-rule:nonzero;stroke:#231f20;stroke-width:1;stroke-linecap:butt;stroke-linejoin:miter;stroke-miterlimit:4;stroke-dasharray:none;stroke-opacity:1"
         d="M 0,0 V 19.333" /></g><g
       transform="translate(293.486,162.029)"
       id="g136"><path
         id="path138"
         style="fill:#231f20;fill-opacity:1;fill-rule:nonzero;stroke:none"
         d="M 0,0 C -0.5,-1.653 -0.96,-2.729 -1.492,-4.055 H 3.553 C 3.327,-3.58 2.56,-1.653 2.061,0 1.526,1.77 1.16,3.374 1.03,4.414 0.899,3.374 0.534,1.77 0,0" /></g><g
       transform="translate(355.721,139.492)"
       id="g140"><path
         id="path142"
         style="fill:#939598;fill-opacity:1;fill-rule:nonzero;stroke:none"
         d="m 0,0 c 0,-5.523 -4.477,-10 -10,-10 h -100 c -5.522,0 -10,4.477 -10,10 0,5.523 4.478,10 10,10 H -10 C -4.477,10 0,5.523 0,0" /></g><g
       transform="translate(353.561,141.652)"
       id="g144"><path
         id="path146"
         style="fill:#ffffff;fill-opacity:1;fill-rule:nonzero;stroke:#231f20;stroke-width:0.5;stroke-linecap:butt;stroke-linejoin:miter;stroke-miterlimit:4;stroke-dasharray:none;stroke-opacity:1"
         d="m 0,0 c 0,-5.523 -4.477,-10 -10,-10 h -100 c -5.522,0 -10,4.477 -10,10 0,5.523 4.478,10 10,10 H -10 C -4.477,10 0,5.523 0,0 Z" /></g><text
       id="text150"
       style="font-variant:normal;font-weight:normal;font-stretch:normal;font-size:10px;font-family:Helvetica;-inkscape-font-specification:Helvetica;writing-mode:lr-tb;fill:#231f20;fill-opacity:1;fill-rule:nonzero;stroke:none"
       transform="matrix(0.99826,0,0,-1,240.5689,138.2759)"><tspan
         id="tspan148"
         y="0"
         x="0 5.5599999 8.8900003 14.45 20.01 25.57 30.57 33.349998 36.130001 41.689999 47.25 50.029999 52.25 57.810001 60.029999 62.810001 65.029999 70.589996 76.150002 78.93 83.93 89.489998 95.050003 100.61">product definition shape</tspan></text>
<g
       transform="translate(74.978,103.334)"
       id="g152"><path
         id="path154"
         style="fill:#ffffff;fill-opacity:1;fill-rule:nonzero;stroke:#231f20;stroke-width:1;stroke-linecap:butt;stroke-linejoin:miter;stroke-miterlimit:4;stroke-dasharray:none;stroke-opacity:1"
         d="M 0,0 V 19.333" /></g><g
       transform="translate(73.954,125.029)"
       id="g156"><path
         id="path158"
         style="fill:#231f20;fill-opacity:1;fill-rule:nonzero;stroke:none"
         d="M 0,0 C -0.5,-1.653 -0.96,-2.728 -1.492,-4.054 H 3.553 C 3.327,-3.58 2.56,-1.653 2.061,0 1.526,1.77 1.16,3.374 1.03,4.415 0.899,3.374 0.534,1.77 0,0" /></g><g
       transform="translate(74.979,140.667)"
       id="g160"><path
         id="path162"
         style="fill:#ffffff;fill-opacity:1;fill-rule:nonzero;stroke:#231f20;stroke-width:1;stroke-linecap:butt;stroke-linejoin:miter;stroke-miterlimit:4;stroke-dasharray:none;stroke-opacity:1"
         d="M 0,0 V 19.333" /></g><g
       transform="translate(73.954,162.362)"
       id="g164"><path
         id="path166"
         style="fill:#231f20;fill-opacity:1;fill-rule:nonzero;stroke:none"
         d="M 0,0 C -0.499,-1.653 -0.96,-2.729 -1.492,-4.055 H 3.553 C 3.327,-3.58 2.56,-1.653 2.061,0 1.526,1.77 1.161,3.374 1.03,4.414 0.9,3.374 0.534,1.77 0,0" /></g><g
       transform="translate(126.039,177.394)"
       id="g168"><path
         id="path170"
         style="fill:#939598;fill-opacity:1;fill-rule:nonzero;stroke:none"
         d="m 0,0 c 0,-5.994 -4.771,-10.853 -10.655,-10.853 h -78.138 c -5.885,0 -10.656,4.859 -10.656,10.853 v 53.059 c 0,5.994 4.771,10.853 10.656,10.853 h 78.138 C -4.771,63.912 0,59.053 0,53.059 V 0" /></g><g
       transform="translate(123.878,179.554)"
       id="g172"><path
         id="path174"
         style="fill:#ffffff;fill-opacity:1;fill-rule:nonzero;stroke:#231f20;stroke-width:1;stroke-linecap:butt;stroke-linejoin:miter;stroke-miterlimit:4;stroke-dasharray:none;stroke-opacity:1"
         d="m 0,0 c 0,-5.994 -4.771,-10.852 -10.655,-10.852 h -78.138 c -5.885,0 -10.656,4.858 -10.656,10.852 v 53.059 c 0,5.994 4.771,10.853 10.656,10.853 h 78.138 C -4.771,63.912 0,59.053 0,53.059 Z" /></g><text
       id="text178"
       style="font-variant:normal;font-weight:bold;font-stretch:normal;font-size:12px;font-family:Helvetica;-inkscape-font-specification:Helvetica-Bold;writing-mode:lr-tb;fill:#231f20;fill-opacity:1;fill-rule:nonzero;stroke:none"
       transform="matrix(0.99825833,0,0,-1,44.6955,225.7066)"><tspan
         id="tspan176"
         y="0"
         x="0 11.328 18.66 23.327999 30 37.332001 40.667999 47.34 54.012001">Workpiece</tspan></text>
<text
       id="text182"
       style="font-variant:normal;font-weight:normal;font-stretch:normal;font-size:12px;font-family:Helvetica;-inkscape-font-specification:Helvetica;writing-mode:lr-tb;fill:#231f20;fill-opacity:1;fill-rule:nonzero;stroke:none"
       transform="matrix(0.99825833,0,0,-1,105.27501,225.7066)"><tspan
         id="tspan180"
         y="0"
         x="0"></tspan></text>
<text
       id="text192"
       style="font-variant:normal;font-weight:normal;font-stretch:normal;font-size:10px;font-family:Helvetica;-inkscape-font-specification:Helvetica;writing-mode:lr-tb;fill:#231f20;fill-opacity:1;fill-rule:nonzero;stroke:none"
       transform="matrix(0.99826,0,0,-1,55.5633,213.7066)"><tspan
         id="tspan184"
         y="0"
         x="0 5.5599999 8.8900003 14.45 20.01 25.57 30.57 33.349998 36.130001 38.91">product /</tspan><tspan
         id="tspan186"
         y="12"
         x="-18.620001 -13.06 -9.7299995 -4.1700001 1.39 6.9499998 11.95 14.73 17.51 23.07 28.629999 31.41 33.630001 39.189999 41.41 44.189999 46.41 51.970001 57.529999">product definition</tspan><tspan
         id="tspan188"
         y="24"
         x="-4.165 -1.385 4.1750002 7.5050001 15.835 21.395 24.174999 26.395 31.955 37.514999 40.294998 43.075001">formation /</tspan><tspan
         id="tspan190"
         y="36"
         x="-18.620001 -13.06 -9.7299995 -4.1700001 1.39 6.9499998 11.95 14.73 17.51 23.07 28.629999 31.41 33.630001 39.189999 41.41 44.189999 46.41 51.970001">product definition</tspan></text>
<g
       transform="translate(74.99,75.945)"
       id="g194"><path
         id="path196"
         style="fill:#ffffff;fill-opacity:1;fill-rule:nonzero;stroke:#231f20;stroke-width:1;stroke-linecap:butt;stroke-linejoin:miter;stroke-miterlimit:4;stroke-dasharray:none;stroke-opacity:1"
         d="M 0,0 V 19.333" /></g><g
       transform="translate(76.015,73.583)"
       id="g198"><path
         id="path200"
         style="fill:#231f20;fill-opacity:1;fill-rule:nonzero;stroke:none"
         d="M 0,0 C 0.5,1.653 0.96,2.728 1.492,4.054 H -3.553 C -3.327,3.58 -2.56,1.653 -2.061,0 -1.526,-1.77 -1.161,-3.374 -1.03,-4.414 -0.9,-3.374 -0.534,-1.77 0,0" /></g><text
       id="text204"
       style="font-style:italic;font-variant:normal;font-weight:normal;font-stretch:normal;font-size:9.88309956px;font-family:Helvetica;-inkscape-font-specification:Helvetica-Oblique;writing-mode:lr-tb;fill:#231f20;fill-opacity:1;fill-rule:nonzero;stroke:none"
       transform="matrix(0.99825966,0,0,-1,30.8428,6.7857)"><tspan
         id="tspan202"
         y="0"
         x="0 7.1355982 12.630602 15.921674 20.863224 26.358227 28.552277 34.047279 38.988831 44.483833 47.231335 52.726337 58.221344 63.716347 71.948967 77.44397 80.191475 83.482544">workpiece geometry</tspan></text>
<g
       transform="translate(130.94,38.97)"
       id="g206"><path
         id="path208"
         style="fill:#939598;fill-opacity:1;fill-rule:nonzero;stroke:none"
         d="M 0,0 C 0,-9.073 -6.488,-16.427 -14.493,-16.427 H -95.01 c -8.004,0 -14.493,7.354 -14.493,16.427 v 10.951 c 0,9.073 6.489,16.428 14.493,16.428 h 80.517 C -6.488,27.379 0,20.024 0,10.951 V 0" /></g><g
       transform="translate(128.78,41.13)"
       id="g210"><path
         id="path212"
         style="fill:#ffffff;fill-opacity:1;fill-rule:nonzero;stroke:#231f20;stroke-width:0.5;stroke-linecap:butt;stroke-linejoin:miter;stroke-miterlimit:4;stroke-dasharray:none;stroke-opacity:1"
         d="M 0,0 C 0,-9.073 -6.488,-16.427 -14.493,-16.427 H -95.01 c -8.004,0 -14.493,7.354 -14.493,16.427 v 10.951 c 0,9.072 6.489,16.427 14.493,16.427 h 80.517 C -6.488,27.378 0,20.023 0,10.951 Z" /></g><text
       id="text220"
       style="font-variant:normal;font-weight:normal;font-stretch:normal;font-size:10px;font-family:Helvetica;-inkscape-font-specification:Helvetica;writing-mode:lr-tb;fill:#231f20;fill-opacity:1;fill-rule:nonzero;stroke:none"
       transform="matrix(0.99826,0,0,-1,27.1414,55.2295)"><tspan
         id="tspan214"
         y="0"
         x="0 5 10.56 16.120001 21.68 27.24 30.02 33.349998 38.91 44.470001 47.799999 53.360001 58.360001 63.919998 69.480003 72.260002 77.82 80.599998 82.82 88.379997 93.940002">shape representation</tspan><tspan
         id="tspan216"
         y="12"
         x="-0.27500001 3.0550001 8.6149998 13.615 19.174999 24.735001 26.955 29.174999 34.174999 36.955002 42.514999 48.075001 50.855 56.415001 61.974998 66.974998 72.535004 78.095001 83.095001 88.654999 94.214996">(usually an advanced</tspan><tspan
         id="tspan218"
         y="24"
         x="11.675 17.235001 20.565001 26.125 31.684999 34.465 39.465 45.025002 50.584999 56.145 61.705002 64.485001 67.815002 73.375 78.934998">brep shape rep)</tspan></text>
<g
       transform="translate(121.523,92.15)"
       id="g222"><path
         id="path224"
         style="fill:#939598;fill-opacity:1;fill-rule:nonzero;stroke:none"
         d="m 0,0 c 0,-6.22 -5.372,-11.262 -12,-11.262 h -66.667 c -6.627,0 -12,5.042 -12,11.262 v 7.508 c 0,6.219 5.373,11.261 12,11.261 H -12 c 6.628,0 12,-5.042 12,-11.261 V 0" /></g><g
       transform="translate(119.362,94.31)"
       id="g226"><path
         id="path228"
         style="fill:#ffffff;fill-opacity:1;fill-rule:nonzero;stroke:#231f20;stroke-width:0.5;stroke-linecap:butt;stroke-linejoin:miter;stroke-miterlimit:4;stroke-dasharray:none;stroke-opacity:1"
         d="m 0,0 c 0,-6.22 -5.372,-11.262 -12,-11.262 h -66.667 c -6.627,0 -12,5.042 -12,11.262 v 7.508 c 0,6.22 5.373,11.261 12,11.261 H -12 c 6.628,0 12,-5.041 12,-11.261 z" /></g><text
       id="text234"
       style="font-variant:normal;font-weight:normal;font-stretch:normal;font-size:10px;font-family:Helvetica;-inkscape-font-specification:Helvetica;writing-mode:lr-tb;fill:#231f20;fill-opacity:1;fill-rule:nonzero;stroke:none"
       transform="matrix(0.99826,0,0,-1,39.0706,100.688)"><tspan
         id="tspan230"
         y="0"
         x="0 5 10.56 16.120001 21.68 27.24 30.02 35.580002 41.139999 43.919998 46.139999 51.700001 53.919998 56.700001 58.919998 64.480003 70.040001">shape definition</tspan><tspan
         id="tspan232"
         y="12"
         x="3.0599999 6.3899999 11.95 17.51 20.84 26.4 31.4 36.959999 42.52 45.299999 50.860001 53.639999 55.860001 61.419998">representation</tspan></text>
<g
       transform="translate(136.189,139.492)"
       id="g236"><path
         id="path238"
         style="fill:#939598;fill-opacity:1;fill-rule:nonzero;stroke:none"
         d="m 0,0 c 0,-5.523 -4.477,-10 -10,-10 h -100 c -5.523,0 -10,4.477 -10,10 0,5.523 4.477,10 10,10 H -10 C -4.477,10 0,5.523 0,0" /></g><g
       transform="translate(134.029,141.652)"
       id="g240"><path
         id="path242"
         style="fill:#ffffff;fill-opacity:1;fill-rule:nonzero;stroke:#231f20;stroke-width:0.5;stroke-linecap:butt;stroke-linejoin:miter;stroke-miterlimit:4;stroke-dasharray:none;stroke-opacity:1"
         d="m 0,0 c 0,-5.523 -4.477,-10 -10,-10 h -100 c -5.523,0 -10,4.477 -10,10 0,5.523 4.477,10 10,10 H -10 C -4.477,10 0,5.523 0,0 Z" /></g><text
       id="text246"
       style="font-variant:normal;font-weight:normal;font-stretch:normal;font-size:10px;font-family:Helvetica;-inkscape-font-specification:Helvetica;writing-mode:lr-tb;fill:#231f20;fill-opacity:1;fill-rule:nonzero;stroke:none"
       transform="matrix(0.99826,0,0,-1,21.0367,138.2759)"><tspan
         id="tspan244"
         y="0"
         x="0 5.5599999 8.8900003 14.45 20.01 25.57 30.57 33.349998 36.130001 41.689999 47.25 50.029999 52.25 57.810001 60.029999 62.810001 65.029999 70.589996 76.150002 78.93 83.93 89.489998 95.050003 100.61">product definition shape</tspan></text>
<text
       id="text262"
       style="font-style:italic;font-variant:normal;font-weight:normal;font-stretch:normal;font-size:10px;font-family:Helvetica;-inkscape-font-specification:Helvetica-Oblique;writing-mode:lr-tb;fill:#231f20;fill-opacity:1;fill-rule:nonzero;stroke:none"
       transform="matrix(0.99826,0,0,-1,372.18064,219.6739)"><tspan
         id="tspan248"
         y="0"
         x="0 5.5599999 8.3400002 13.9 19.459999 22.790001 25.57 30.57 36.130001 41.689999 47.25 52.810001">other shape</tspan><tspan
         id="tspan250"
         y="12"
         x="9.1750002 14.735 19.735001 25.295 30.855 35.855 38.634998 43.634998">aspects</tspan><tspan
         id="tspan252"
         y="24"
         x="3.6199999 9.1800003 14.74 19.74 24.74 28.07 30.290001 35.849998 38.07 43.630001 49.189999">describing</tspan><tspan
         id="tspan254"
         y="36"
         x="-4.7199998 0.83999997 4.1700001 9.7299995 12.51 14.73 16.950001 22.51 27.51 30.290001 35.849998 41.41 44.189999 49.75 54.75">profiles/paths </tspan><tspan
         id="tspan256"
         y="-7.493"
         x="-204.461 -201.681 -196.121 -192.791 -187.231 -181.67101 -176.11099 -170.55099">through</tspan><tspan
         id="tspan258"
         y="4.507"
         x="-220.026 -215.026 -209.466 -203.90601 -198.34599 -192.786 -187.226 -181.666 -176.666 -171.106 -165.54601 -160.54601 -157.76601 -154.98599">shape_aspect.</tspan><tspan
         id="tspan260"
         y="16.507"
         x="-208.076 -202.51601 -199.73599 -194.17599 -189.17599 -183.616 -178.056 -172.496">of_shape</tspan></text>
<g
       transform="translate(361.333,141.667)"
       id="g264"><path
         id="path266"
         style="fill:none;stroke:#231f20;stroke-width:1;stroke-linecap:butt;stroke-linejoin:miter;stroke-miterlimit:4;stroke-dasharray:none;stroke-opacity:1"
         d="m 0,0 c 9.958,-0.235 20.132,-3.423 28.813,3.428 9.337,7.369 11.822,20.668 11.899,31.905" /></g><g
       transform="translate(358.947,140.698)"
       id="g268"><path
         id="path270"
         style="fill:#231f20;fill-opacity:1;fill-rule:nonzero;stroke:none"
         d="M 0,0 C 1.641,-0.539 2.705,-1.024 4.018,-1.587 L 4.137,3.456 C 3.657,3.242 1.713,2.52 0.048,2.06 -1.733,1.567 -3.346,1.24 -4.389,1.134 -3.352,0.979 -1.756,0.576 0,0" /></g></g></svg>