<?xml version="1.0" encoding="UTF-8" standalone="no"?>
<svg
   xmlns:dc="http://purl.org/dc/elements/1.1/"
   xmlns:cc="http://creativecommons.org/ns#"
   xmlns:rdf="http://www.w3.org/1999/02/22-rdf-syntax-ns#"
   xmlns:svg="http://www.w3.org/2000/svg"
   xmlns="http://www.w3.org/2000/svg"
   viewBox="0 0 457.83334 514.75067"
   height="514.75067"
   width="457.83334"
   xml:space="preserve"
   id="svg2"
   version="1.1"><metadata
     id="metadata8"><rdf:RDF><cc:Work
         rdf:about=""><dc:format>image/svg+xml</dc:format><dc:type
           rdf:resource="http://purl.org/dc/dcmitype/StillImage" /></cc:Work></rdf:RDF></metadata><defs
     id="defs6" /><g
     transform="matrix(1.3333333,0,0,-1.3333333,0,514.75067)"
     id="g10"><g
       transform="translate(105.538,41.745)"
       id="g12"><path
         id="path14"
         style="fill:none;stroke:#231f20;stroke-width:0.75;stroke-linecap:square;stroke-linejoin:miter;stroke-miterlimit:10;stroke-dasharray:none;stroke-opacity:1"
         d="M 0,0 V -9.12" /><g
         transform="translate(119.299,-24.308)"
         id="g16"><path
           id="path18"
           style="fill:none;stroke:#231f20;stroke-width:0.75;stroke-linecap:square;stroke-linejoin:miter;stroke-miterlimit:10;stroke-dasharray:none;stroke-opacity:1"
           d="M 0,0 H -85.5" /><g
           transform="translate(-42.212,135.814)"
           id="g20"><path
             id="path22"
             style="fill:none;stroke:#231f20;stroke-width:0.75;stroke-linecap:square;stroke-linejoin:miter;stroke-miterlimit:10;stroke-dasharray:none;stroke-opacity:1"
             d="M 0,0 H -83.624" /><g
             transform="translate(6.375,-23.625)"
             id="g24"><path
               id="path26"
               style="fill:none;stroke:#231f20;stroke-width:0.75;stroke-linecap:square;stroke-linejoin:miter;stroke-miterlimit:10;stroke-dasharray:none;stroke-opacity:1"
               d="M 0,0 H -89.999" /><g
               transform="translate(-165.962,-120.131)"
               id="g28"><path
                 id="path30"
                 style="fill:none;stroke:#231f20;stroke-width:0.75;stroke-linecap:square;stroke-linejoin:miter;stroke-miterlimit:10;stroke-dasharray:none;stroke-opacity:1"
                 d="M 0,0 V 75.318" /></g></g></g></g></g><g
       transform="translate(54.66,107.686)"
       id="g32"><path
         id="path34"
         style="fill:none;stroke:#231f20;stroke-width:2.25;stroke-linecap:square;stroke-linejoin:miter;stroke-miterlimit:10;stroke-dasharray:none;stroke-opacity:1"
         d="M 0,0 0.465,14.252" /></g><g
       transform="translate(238.149,349.5)"
       id="g36"><path
         id="path38"
         style="fill:none;stroke:#231f20;stroke-width:0.75;stroke-linecap:square;stroke-linejoin:miter;stroke-miterlimit:10;stroke-dasharray:none;stroke-opacity:1"
         d="M 0,0 H -135.75" /><g
         transform="translate(-48.75,-23.625)"
         id="g40"><path
           id="path42"
           style="fill:none;stroke:#231f20;stroke-width:0.75;stroke-linecap:square;stroke-linejoin:miter;stroke-miterlimit:10;stroke-dasharray:none;stroke-opacity:1"
           d="M 0,0 H -87" /><g
           transform="translate(57,-59.437)"
           id="g44"><path
             id="path46"
             style="fill:none;stroke:#231f20;stroke-width:0.75;stroke-linecap:square;stroke-linejoin:miter;stroke-miterlimit:10;stroke-dasharray:none;stroke-opacity:1"
             d="M 0,0 H -138.75" /><g
             transform="translate(-42,-23.625)"
             id="g48"><path
               id="path50"
               style="fill:none;stroke:#231f20;stroke-width:0.75;stroke-linecap:square;stroke-linejoin:miter;stroke-miterlimit:10;stroke-dasharray:none;stroke-opacity:1"
               d="M 0,0 H -96.75" /><g
               transform="translate(0,-23.625)"
               id="g52"><path
                 id="path54"
                 style="fill:none;stroke:#231f20;stroke-width:0.75;stroke-linecap:square;stroke-linejoin:miter;stroke-miterlimit:10;stroke-dasharray:none;stroke-opacity:1"
                 d="M 0,0 H -96.75" /><g
                 transform="translate(-21.774,-65.936)"
                 id="g56"><path
                   id="path58"
                   style="fill:none;stroke:#231f20;stroke-width:0.75;stroke-linecap:square;stroke-linejoin:miter;stroke-miterlimit:10;stroke-dasharray:none;stroke-opacity:1"
                   d="M 0,0 H 83.625" /><g
                   transform="translate(-43.663,-111.506)"
                   id="g60"><path
                     id="path62"
                     style="fill:none;stroke:#231f20;stroke-width:0.75;stroke-linecap:square;stroke-linejoin:miter;stroke-miterlimit:10;stroke-dasharray:none;stroke-opacity:1"
                     d="M 0,0 H -33.424" /><g
                     transform="translate(43.663,111.506)"
                     id="g64"><path
                       id="path66"
                       style="fill:none;stroke:#231f20;stroke-width:0.75;stroke-linecap:square;stroke-linejoin:miter;stroke-miterlimit:10;stroke-dasharray:none;stroke-opacity:1"
                       d="M 0,0 V 0" /><g
                       transform="translate(-159.587,-143.756)"
                       id="g68"><path
                         id="path70"
                         style="fill:none;stroke:#231f20;stroke-width:0.75;stroke-linecap:square;stroke-linejoin:miter;stroke-miterlimit:10;stroke-dasharray:none;stroke-opacity:1"
                         d="M 0,0 H 34.549" /></g></g></g></g></g></g></g></g></g><g
       transform="translate(77.715,32.624)"
       id="g72"><path
         id="path74"
         style="fill:none;stroke:#231f20;stroke-width:2.25;stroke-linecap:square;stroke-linejoin:miter;stroke-miterlimit:10;stroke-dasharray:none;stroke-opacity:1"
         d="M 0,0 -0.254,13.126" /><g
         transform="translate(-12.441,332.064)"
         id="g76"><path
           id="path78"
           style="fill:none;stroke:#231f20;stroke-width:2.25;stroke-linecap:square;stroke-linejoin:miter;stroke-miterlimit:10;stroke-dasharray:none;stroke-opacity:1"
           d="M 0,0 V 5.625" /><g
           transform="translate(1.875,-83.062)"
           id="g80"><path
             id="path82"
             style="fill:none;stroke:#231f20;stroke-width:2.25;stroke-linecap:square;stroke-linejoin:miter;stroke-miterlimit:10;stroke-dasharray:none;stroke-opacity:1"
             d="M 0,0 V 7.875" /><g
             transform="translate(-30.655,-113.188)"
             id="g84"><path
               id="path86"
               style="fill:none;stroke:#231f20;stroke-width:2.25;stroke-linecap:square;stroke-linejoin:miter;stroke-miterlimit:10;stroke-dasharray:none;stroke-opacity:1"
               d="M 0,0 -0.119,10.126" /></g></g></g></g><path
       id="path88"
       style="fill:#ffffff;fill-opacity:1;fill-rule:nonzero;stroke:none"
       d="m 224.836,9.75 h 110.5 v 15.375 h -110.5 z" /><g
       transform="translate(232.524,25.125)"
       id="g90"><path
         id="path92"
         style="fill:none;stroke:#231f20;stroke-width:0.75;stroke-linecap:square;stroke-linejoin:miter;stroke-miterlimit:10;stroke-dasharray:none;stroke-opacity:1"
         d="m 0,0 h 95.125 c 4.244,0 7.688,-3.444 7.688,-7.687 0,-4.245 -3.444,-7.688 -7.688,-7.688 H 0 c -4.244,0 -7.687,3.443 -7.687,7.688 C -7.687,-3.444 -4.244,0 0,0 Z" /></g><text
       id="text96"
       style="font-variant:normal;font-weight:normal;font-stretch:normal;font-size:9px;font-family:Times;-inkscape-font-specification:Times-Roman;writing-mode:lr-tb;fill:#231f20;fill-opacity:1;fill-rule:nonzero;stroke:none"
       transform="matrix(1,0,0,-1,235.8071,15.1963)"><tspan
         id="tspan94"
         y="0"
         x="0 4.5 9 11.25 13.5 18 22.5 27 29.25 31.5 34.001999 37.998001 42.498001 46.998001 49.5 54 58.5 65.501999 69.498001 73.494003 76.995003 81.495003 84.491997 88.487999">48, 143, length_measure</tspan></text>
<path
       id="path98"
       style="fill:#ffffff;fill-opacity:1;fill-rule:nonzero;stroke:none"
       d="m 266.249,145.564 h 76.75 v 15.375 h -76.75 z" /><g
       transform="translate(273.937,160.939)"
       id="g100"><path
         id="path102"
         style="fill:none;stroke:#231f20;stroke-width:0.75;stroke-linecap:square;stroke-linejoin:miter;stroke-miterlimit:10;stroke-dasharray:none;stroke-opacity:1"
         d="m 0,0 h 61.375 c 4.244,0 7.687,-3.444 7.687,-7.687 0,-4.245 -3.443,-7.688 -7.687,-7.688 H 0 c -4.243,0 -7.687,3.443 -7.687,7.688 C -7.687,-3.444 -4.243,0 0,0 Z" /></g><text
       id="text106"
       style="font-variant:normal;font-weight:normal;font-stretch:normal;font-size:9px;font-family:Times;-inkscape-font-specification:Times-Roman;writing-mode:lr-tb;fill:#231f20;fill-opacity:1;fill-rule:nonzero;stroke:none"
       transform="matrix(1,0,0,-1,280.3579,150.6357)"><tspan
         id="tspan104"
         y="0"
         x="0 4.5 9 11.25 13.5 18 22.5 24.75 27 30.500999 35.000999 37.998001 40.904999 44.901001 48.896999 52.893002">27, 77, surface</tspan></text>
<path
       id="path108"
       style="fill:#ffffff;fill-opacity:1;fill-rule:nonzero;stroke:none"
       d="m 188.999,121.939 h 154 v 15.375 h -154 z" /><g
       transform="translate(196.687,137.314)"
       id="g110"><path
         id="path112"
         style="fill:none;stroke:#231f20;stroke-width:0.75;stroke-linecap:square;stroke-linejoin:miter;stroke-miterlimit:10;stroke-dasharray:none;stroke-opacity:1"
         d="m 0,0 h 138.625 c 4.244,0 7.687,-3.444 7.687,-7.687 0,-4.245 -3.443,-7.688 -7.687,-7.688 H 0 c -4.243,0 -7.687,3.443 -7.687,7.688 C -7.687,-3.444 -4.243,0 0,0 Z" /></g><text
       id="text116"
       style="font-variant:normal;font-weight:normal;font-stretch:normal;font-size:9px;font-family:Times;-inkscape-font-specification:Times-Roman;writing-mode:lr-tb;fill:#231f20;fill-opacity:1;fill-rule:nonzero;stroke:none"
       transform="matrix(1,0,0,-1,203.7124,127.2813)"><tspan
         id="tspan114"
         y="0"
         x="0 4.5 9 11.25 13.5 18 22.5 24.75 27 31.5 35.495998 38.313 40.814999 45.314999 47.817001 50.319 52.820999 57.320999 61.820999 65.817001 68.319 72.819 75.816002 79.811996 84.311996 87.308998 91.305 94.806 98.802002 103.302 105.804 109.8 112.302 114.804 119.304 123.804">18, 78, definitional_representation</tspan></text>
<path
       id="path118"
       style="fill:#ffffff;fill-opacity:1;fill-rule:nonzero;stroke:none"
       d="m 238.149,341.813 h 72 v 15.375 h -72 z" /><g
       transform="translate(245.836,357.188)"
       id="g120"><path
         id="path122"
         style="fill:none;stroke:#231f20;stroke-width:0.75;stroke-linecap:square;stroke-linejoin:miter;stroke-miterlimit:10;stroke-dasharray:none;stroke-opacity:1"
         d="m 0,0 h 56.625 c 4.244,0 7.687,-3.444 7.687,-7.687 0,-4.245 -3.443,-7.688 -7.687,-7.688 H 0 c -4.244,0 -7.687,3.443 -7.687,7.688 C -7.687,-3.444 -4.244,0 0,0 Z" /></g><text
       id="text126"
       style="font-variant:normal;font-weight:normal;font-stretch:normal;font-size:9px;font-family:Times;-inkscape-font-specification:Times-Roman;writing-mode:lr-tb;fill:#231f20;fill-opacity:1;fill-rule:nonzero;stroke:none"
       transform="matrix(1,0,0,-1,252.6352,346.9981)"><tspan
         id="tspan124"
         y="0"
         x="0 4.5 9 11.25 13.5 18 22.5 24.75 27 30.996 35.495998 38.493 42.858002 46.854">32, 80, curve</tspan></text>
<path
       id="path128"
       style="fill:#ffffff;fill-opacity:1;fill-rule:nonzero;stroke:none"
       d="m 189.399,318.187 h 120.75 v 15.375 h -120.75 z" /><g
       transform="translate(197.086,333.563)"
       id="g130"><path
         id="path132"
         style="fill:none;stroke:#231f20;stroke-width:0.75;stroke-linecap:square;stroke-linejoin:miter;stroke-miterlimit:10;stroke-dasharray:none;stroke-opacity:1"
         d="m 0,0 h 105.375 c 4.244,0 7.687,-3.444 7.687,-7.687 0,-4.245 -3.443,-7.688 -7.687,-7.688 H 0 c -4.244,0 -7.687,3.443 -7.687,7.688 C -7.687,-3.444 -4.244,0 0,0 Z" /></g><text
       id="text136"
       style="font-variant:normal;font-weight:normal;font-stretch:normal;font-size:9px;font-family:Times;-inkscape-font-specification:Times-Roman;writing-mode:lr-tb;fill:#231f20;fill-opacity:1;fill-rule:nonzero;stroke:none"
       transform="matrix(1,0,0,-1,202.9966,323.5752)"><tspan
         id="tspan134"
         y="0"
         x="0 4.5 9 11.25 13.5 18 22.5 27 29.25 31.5 36 39.995998 42.993 46.988998 53.991001 57.987 60.488998 64.485001 67.482002 71.982002 76.257004 80.252998 82.754997 87.254997 91.250999">48, 151, parameter_value</tspan></text>
<path
       id="path138"
       style="fill:#ffffff;fill-opacity:1;fill-rule:nonzero;stroke:none"
       d="m 246.399,258.75 h 77.75 v 15.375 h -77.75 z" /><g
       transform="translate(254.086,274.125)"
       id="g140"><path
         id="path142"
         style="fill:none;stroke:#231f20;stroke-width:0.75;stroke-linecap:square;stroke-linejoin:miter;stroke-miterlimit:10;stroke-dasharray:none;stroke-opacity:1"
         d="m 0,0 h 62.375 c 4.244,0 7.687,-3.444 7.687,-7.687 0,-4.245 -3.443,-7.688 -7.687,-7.688 H 0 c -4.244,0 -7.687,3.443 -7.687,7.688 C -7.687,-3.444 -4.244,0 0,0 Z" /></g><text
       id="text146"
       style="font-variant:normal;font-weight:normal;font-stretch:normal;font-size:9px;font-family:Times;-inkscape-font-specification:Times-Roman;writing-mode:lr-tb;fill:#231f20;fill-opacity:1;fill-rule:nonzero;stroke:none"
       transform="matrix(1,0,0,-1,260.5063,263.8223)"><tspan
         id="tspan144"
         y="0"
         x="0 4.5 9 11.25 13.5 18 22.5 24.75 27 30.500999 35.000999 37.998001 40.904999 44.901001 48.896999 52.893002">27, 77, surface</tspan></text>
<path
       id="path148"
       style="fill:#ffffff;fill-opacity:1;fill-rule:nonzero;stroke:none"
       d="m 204.399,235.125 h 119.75 V 250.5 h -119.75 z" /><g
       transform="translate(212.086,250.5)"
       id="g150"><path
         id="path152"
         style="fill:none;stroke:#231f20;stroke-width:0.75;stroke-linecap:square;stroke-linejoin:miter;stroke-miterlimit:10;stroke-dasharray:none;stroke-opacity:1"
         d="m 0,0 h 104.375 c 4.244,0 7.687,-3.444 7.687,-7.687 0,-4.245 -3.443,-7.688 -7.687,-7.688 H 0 c -4.244,0 -7.687,3.443 -7.687,7.688 C -7.687,-3.444 -4.244,0 0,0 Z" /></g><text
       id="text156"
       style="font-variant:normal;font-weight:normal;font-stretch:normal;font-size:9px;font-family:Times;-inkscape-font-specification:Times-Roman;writing-mode:lr-tb;fill:#231f20;fill-opacity:1;fill-rule:nonzero;stroke:none"
       transform="matrix(1,0,0,-1,217.9966,240.5127)"><tspan
         id="tspan154"
         y="0"
         x="0 4.5 9 11.25 13.5 18 22.5 27 29.25 31.5 36 39.995998 42.993 46.988998 53.991001 57.987 60.488998 64.485001 67.482002 71.982002 76.257004 80.252998 82.754997 87.254997 91.250999">48, 151, parameter_value</tspan></text>
<path
       id="path158"
       style="fill:#ffffff;fill-opacity:1;fill-rule:nonzero;stroke:none"
       d="m 204.399,211.5 h 119.75 v 15.375 h -119.75 z" /><g
       transform="translate(212.086,226.875)"
       id="g160"><path
         id="path162"
         style="fill:none;stroke:#231f20;stroke-width:0.75;stroke-linecap:square;stroke-linejoin:miter;stroke-miterlimit:10;stroke-dasharray:none;stroke-opacity:1"
         d="m 0,0 h 104.375 c 4.244,0 7.687,-3.444 7.687,-7.687 0,-4.245 -3.443,-7.688 -7.687,-7.688 H 0 c -4.244,0 -7.687,3.443 -7.687,7.688 C -7.687,-3.444 -4.244,0 0,0 Z" /></g><text
       id="text166"
       style="font-variant:normal;font-weight:normal;font-stretch:normal;font-size:9px;font-family:Times;-inkscape-font-specification:Times-Roman;writing-mode:lr-tb;fill:#231f20;fill-opacity:1;fill-rule:nonzero;stroke:none"
       transform="matrix(1,0,0,-1,217.9966,216.8877)"><tspan
         id="tspan164"
         y="0"
         x="0 4.5 9 11.25 13.5 18 22.5 27 29.25 31.5 36 39.995998 42.993 46.988998 53.991001 57.987 60.488998 64.485001 67.482002 71.982002 76.257004 80.252998 82.754997 87.254997 91.250999">48, 151, parameter_value</tspan></text>
<path
       id="path168"
       style="fill:#ffffff;fill-opacity:1;fill-rule:nonzero;stroke:none"
       d="m 138.961,34.5 h 179.5 v 15.375 h -179.5 z" /><g
       transform="translate(146.649,49.875)"
       id="g170"><path
         id="path172"
         style="fill:none;stroke:#231f20;stroke-width:0.75;stroke-linecap:square;stroke-linejoin:miter;stroke-miterlimit:10;stroke-dasharray:none;stroke-opacity:1"
         d="m 0,0 h 164.125 c 4.244,0 7.688,-3.444 7.688,-7.687 0,-4.245 -3.444,-7.688 -7.688,-7.688 H 0 c -4.244,0 -7.687,3.443 -7.687,7.688 C -7.687,-3.444 -4.244,0 0,0 Z" /></g><text
       id="text176"
       style="font-variant:normal;font-weight:normal;font-stretch:normal;font-size:9px;font-family:Times;-inkscape-font-specification:Times-Roman;writing-mode:lr-tb;fill:#231f20;fill-opacity:1;fill-rule:nonzero;stroke:none"
       transform="matrix(1,0,0,-1,143.8935,39.8203)"><tspan
         id="tspan174"
         y="0"
         x="0 4.5 9 11.25 13.5 18 22.5 27 29.25 32.247002 36.747002 41.247002 43.497002 45.747002 50.247002 54.747002 56.997002 59.247002 63.747002 68.247002 70.497002 72.747002 77.247002 81.747002 83.997002 86.247002 90.747002 95.247002 97.497002 99.747002 104.247 108.747 110.997 113.247 117.747 122.247 124.497 126.747 131.24699 135.74699 137.99699 140.24699 144.74699 149.24699 151.49699 153.74699 158.24699 162.74699 165.744">25, 186 (32, 35, 35, 29, 29, 23, 32, 24, 37, 32)</tspan></text>
<g
       transform="translate(58.274,103.92)"
       id="g178"><path
         id="path180"
         style="fill:#ffffff;fill-opacity:1;fill-rule:nonzero;stroke:none"
         d="M 0,0 C 0,2.07 -1.68,3.75 -3.75,3.75 -5.819,3.75 -7.5,2.07 -7.5,0 c 0,-2.069 1.681,-3.75 3.75,-3.75 C -1.68,-3.75 0,-2.069 0,0" /></g><g
       transform="translate(58.274,103.92)"
       id="g182"><path
         id="path184"
         style="fill:none;stroke:#231f20;stroke-width:0.75;stroke-linecap:square;stroke-linejoin:miter;stroke-miterlimit:10;stroke-dasharray:none;stroke-opacity:1"
         d="M 0,0 C 0,2.07 -1.68,3.75 -3.75,3.75 -5.819,3.75 -7.5,2.07 -7.5,0 c 0,-2.069 1.681,-3.75 3.75,-3.75 C -1.68,-3.75 0,-2.069 0,0" /></g><g
       transform="translate(109.304,28.86)"
       id="g186"><path
         id="path188"
         style="fill:#ffffff;fill-opacity:1;fill-rule:nonzero;stroke:none"
         d="M 0,0 C 0,2.069 -1.68,3.75 -3.75,3.75 -5.82,3.75 -7.5,2.069 -7.5,0 c 0,-2.07 1.68,-3.75 3.75,-3.75 C -1.68,-3.75 0,-2.07 0,0" /></g><g
       transform="translate(109.304,28.86)"
       id="g190"><path
         id="path192"
         style="fill:none;stroke:#231f20;stroke-width:0.75;stroke-linecap:square;stroke-linejoin:miter;stroke-miterlimit:10;stroke-dasharray:none;stroke-opacity:1"
         d="M 0,0 C 0,2.069 -1.68,3.75 -3.75,3.75 -5.82,3.75 -7.5,2.069 -7.5,0 c 0,-2.07 1.68,-3.75 3.75,-3.75 C -1.68,-3.75 0,-2.07 0,0" /></g><text
       id="text212"
       style="font-variant:normal;font-weight:normal;font-stretch:normal;font-size:9px;font-family:Times;-inkscape-font-specification:Times-Roman;writing-mode:lr-tb;fill:#231f20;fill-opacity:1;fill-rule:nonzero;stroke:none"
       transform="matrix(1,0,0,-1,146.8364,6.3906)"><tspan
         id="tspan194"
         y="0"
         x="0 3.9960001 8.4960003 12.996 15.993 20.493 22.995001 27.495001 31.490999 33.993 37.988998 41.490002 43.740002 49.238998 52.236 56.736 59.237999 63.737999 66.735001">coordinates L[1:3]</tspan><tspan
         id="tspan196"
         y="-135.7218"
         x="-40.337101 -35.837101 -31.841101 -28.340099 -25.8381 -22.337099 -17.837099 -14.3361 -9.8360996 -6.8390999 -3.9321001 0.063900001 4.0598998 8.0558996">basis_surface</tspan><tspan
         id="tspan198"
         y="-112.0968"
         x="-40.337101 -37.340099 -33.344101 -30.347099 -26.351101 -23.354099 -19.358101 -14.8581 -10.8621 -6.8660998 -2.3661001 0.13590001 4.6359 9.1358995 13.1319 17.631901 20.628901 24.9939 28.989901">reference_to_curve</tspan><tspan
         id="tspan200"
         y="-66.438004"
         x="-115.299 -111.303 -106.803 -102.303 -100.026 -95.750999 -91.754997 -89.252998 -85.257004 -80.757004 -78.254997 -73.754997 -69.254997 -64.754997 -62.252998 -57.752998 -55.250999">equivalent_point</tspan><tspan
         id="tspan202"
         y="-332.1243"
         x="-33.1875 -28.6875 -24.6915 -21.1905 -18.688499 -15.1875 -10.6875 -6.6915002 -2.1914999 0.80549997 5.1704998 9.1665001">basis_curve</tspan><tspan
         id="tspan204"
         y="-308.4993"
         x="-33.1875 -28.6875 -24.1875 -21.685499 -17.185499 -14.6835 -10.1835 -5.6834998 -1.6875 1.3095 5.3055 12.3075 16.303499 18.8055 22.8015 25.7985">point_parameter</tspan><tspan
         id="tspan206"
         y="-248.90849"
         x="-27.937799 -23.437799 -19.441799 -15.9408 -13.4388 -9.9378004 -5.4377999 -1.9368 2.5632 5.5602002 8.4672003 12.4632 16.4592 20.4552">basis_surface</tspan><tspan
         id="tspan208"
         y="-225.43649"
         x="-27.937799 -23.437799 -18.937799 -16.435801 -11.9358 -9.4337997 -4.9338002 -0.43380001 3.5622001 6.5591998 10.5552 17.557199 21.5532 24.055201 28.051201 31.048201 35.548199 40.048199">point_parameter_u</tspan><tspan
         id="tspan210"
         y="-201.81149"
         x="-27.937799 -23.437799 -18.937799 -16.435801 -11.9358 -9.4337997 -4.9338002 -0.43380001 3.5622001 6.5591998 10.5552 17.557199 21.5532 24.055201 28.051201 31.048201 35.548199 40.048199">point_parameter_v</tspan></text>
<path
       id="path214"
       style="fill:#ffffff;fill-opacity:1;fill-rule:nonzero;stroke:none"
       d="m 65.086,0.375 h 74.25 v 24.75 h -74.25 z" /><g
       transform="translate(65.086,25.125)"
       id="g216"><path
         id="path218"
         style="fill:none;stroke:#231f20;stroke-width:0.75;stroke-linecap:square;stroke-linejoin:miter;stroke-miterlimit:10;stroke-dasharray:none;stroke-opacity:1"
         d="M 74.25,0 H 0 v -24.75 h 74.25 z" /><g
         id="g220"><path
           id="path222"
           style="fill:none;stroke:#231f20;stroke-width:0.75;stroke-linecap:square;stroke-linejoin:miter;stroke-miterlimit:10;stroke-dasharray:none;stroke-opacity:1"
           d="M 0,0 Z" /></g></g><text
       id="text226"
       style="font-variant:normal;font-weight:normal;font-stretch:normal;font-size:9px;font-family:Times;-inkscape-font-specification:Times-Roman;writing-mode:lr-tb;fill:#231f20;fill-opacity:1;fill-rule:nonzero;stroke:none"
       transform="matrix(1,0,0,-1,73.6972,10.4502)"><tspan
         id="tspan224"
         y="0"
         x="0 3.9960001 7.9920001 10.989 13.491 17.487 20.988001 23.49 27.486 31.986 36.486 40.986 45.486 47.987999 52.487999 54.990002">cartesian_point</tspan></text>
<path
       id="path228"
       style="fill:#ffffff;fill-opacity:1;fill-rule:nonzero;stroke:none"
       d="M 11.25,121.939 H 99 v 39 H 11.25 Z" /><g
       transform="translate(11.25,160.939)"
       id="g230"><path
         id="path232"
         style="fill:none;stroke:#231f20;stroke-width:0.75;stroke-linecap:square;stroke-linejoin:miter;stroke-miterlimit:10;stroke-dasharray:none;stroke-opacity:1"
         d="M 87.75,0 H 0 v -39 h 87.75 z" /><g
         id="g234"><path
           id="path236"
           style="fill:none;stroke:#231f20;stroke-width:0.75;stroke-linecap:square;stroke-linejoin:miter;stroke-miterlimit:10;stroke-dasharray:none;stroke-opacity:1"
           d="M 0,0 Z" /></g></g><text
       id="text240"
       style="font-variant:normal;font-weight:normal;font-stretch:normal;font-size:9px;font-family:Times;-inkscape-font-specification:Times-Roman;writing-mode:lr-tb;fill:#231f20;fill-opacity:1;fill-rule:nonzero;stroke:none"
       transform="matrix(1,0,0,-1,21.353,139.1973)"><tspan
         id="tspan238"
         y="0"
         x="0 4.5 8.3610001 12.861 16.857 21.357 25.353001 28.35 32.346001 34.848 38.844002 43.344002 47.844002 51.84 56.34 59.337002 63.702 67.697998">degenerate_pcurve</tspan></text>
<path
       id="path242"
       style="fill:#ffffff;fill-opacity:1;fill-rule:nonzero;stroke:none"
       d="M 12.75,84.814 H 141 v 15.375 H 12.75 Z" /><g
       transform="translate(12.75,100.189)"
       id="g244"><path
         id="path246"
         style="fill:none;stroke:#231f20;stroke-width:0.75;stroke-linecap:square;stroke-linejoin:miter;stroke-miterlimit:10;stroke-dasharray:none;stroke-opacity:1"
         d="M 128.25,0 H 0 v -15.375 h 128.25 z" /><g
         id="g248"><path
           id="path250"
           style="fill:none;stroke:#231f20;stroke-width:0.75;stroke-linecap:square;stroke-linejoin:miter;stroke-miterlimit:10;stroke-dasharray:none;stroke-opacity:1"
           d="M 0,0 Z" /></g></g><text
       id="text254"
       style="font-variant:normal;font-weight:normal;font-stretch:normal;font-size:9px;font-family:Times;-inkscape-font-specification:Times-Roman;writing-mode:lr-tb;fill:#231f20;fill-opacity:1;fill-rule:nonzero;stroke:none"
       transform="matrix(1,0,0,-1,24.0893,90.2598)"><tspan
         id="tspan252"
         y="0"
         x="0 3.7709999 8.0459995 12.042 14.544 19.044001 23.040001 25.542 29.538 34.037998 38.537998 43.037998 46.898998 51.398998 55.395 59.895 63.890999 66.888 70.884003 73.386002 77.382004 81.882004 86.382004 90.377998 94.877998 97.875 102.24 106.236">evaluated_degenerate_pcurve</tspan></text>
<path
       id="path256"
       style="fill:#ffffff;fill-opacity:1;fill-rule:nonzero;stroke:none"
       d="m 28.149,318.187 h 74.25 v 39 h -74.25 z" /><g
       transform="translate(28.149,357.188)"
       id="g258"><path
         id="path260"
         style="fill:none;stroke:#231f20;stroke-width:0.75;stroke-linecap:square;stroke-linejoin:miter;stroke-miterlimit:10;stroke-dasharray:none;stroke-opacity:1"
         d="M 74.25,0 H 0 v -39 h 74.25 z" /><g
         id="g262"><path
           id="path264"
           style="fill:none;stroke:#231f20;stroke-width:0.75;stroke-linecap:square;stroke-linejoin:miter;stroke-miterlimit:10;stroke-dasharray:none;stroke-opacity:1"
           d="M 0,0 Z" /></g></g><text
       id="text268"
       style="font-variant:normal;font-weight:normal;font-stretch:normal;font-size:9px;font-family:Times;-inkscape-font-specification:Times-Roman;writing-mode:lr-tb;fill:#231f20;fill-opacity:1;fill-rule:nonzero;stroke:none"
       transform="matrix(1,0,0,-1,37.5073,335.3877)"><tspan
         id="tspan266"
         y="0"
         x="0 4.5 9 11.502 16.002001 18.504 23.004 27.504 32.004002 36.504002 40.5 45 47.997002 52.362 56.358002">point_on_curve</tspan></text>
<path
       id="path270"
       style="fill:#ffffff;fill-opacity:1;fill-rule:nonzero;stroke:none"
       d="m 26.649,211.5 h 81 v 62.625 h -81 z" /><g
       transform="translate(26.649,274.125)"
       id="g272"><path
         id="path274"
         style="fill:none;stroke:#231f20;stroke-width:0.75;stroke-linecap:square;stroke-linejoin:miter;stroke-miterlimit:10;stroke-dasharray:none;stroke-opacity:1"
         d="M 81,0 H 0 v -62.625 h 81 z" /><g
         id="g276"><path
           id="path278"
           style="fill:none;stroke:#231f20;stroke-width:0.75;stroke-linecap:square;stroke-linejoin:miter;stroke-miterlimit:10;stroke-dasharray:none;stroke-opacity:1"
           d="M 0,0 Z" /></g></g><text
       id="text282"
       style="font-variant:normal;font-weight:normal;font-stretch:normal;font-size:9px;font-family:Times;-inkscape-font-specification:Times-Roman;writing-mode:lr-tb;fill:#231f20;fill-opacity:1;fill-rule:nonzero;stroke:none"
       transform="matrix(1,0,0,-1,36.6294,240.4678)"><tspan
         id="tspan280"
         y="0"
         x="0 4.5 9 11.502 16.002001 18.504 23.004 27.504 32.004002 36.504002 40.005001 44.505001 47.501999 50.409 54.404999 58.401001 62.396999">point_on_surface</tspan></text>
<g
       transform="translate(65.114,9.5107)"
       id="g284"><path
         id="path286"
         style="fill:#ffffff;fill-opacity:1;fill-rule:nonzero;stroke:none"
         d="M 0,0 C 0,2.069 -1.68,3.75 -3.75,3.75 -5.82,3.75 -7.5,2.069 -7.5,0 c 0,-2.0703 1.68,-3.75 3.75,-3.75 C -1.68,-3.75 0,-2.0703 0,0" /></g><g
       transform="translate(65.114,9.5107)"
       id="g288"><path
         id="path290"
         style="fill:none;stroke:#231f20;stroke-width:0.75;stroke-linecap:square;stroke-linejoin:miter;stroke-miterlimit:10;stroke-dasharray:none;stroke-opacity:1"
         d="M 0,0 C 0,2.069 -1.68,3.75 -3.75,3.75 -5.82,3.75 -7.5,2.069 -7.5,0 c 0,-2.0703 1.68,-3.75 3.75,-3.75 C -1.68,-3.75 0,-2.0703 0,0" /></g><path
       id="path292"
       style="fill:#ffffff;fill-opacity:1;fill-rule:nonzero;stroke:none"
       d="m 41.461,45.75 h 72 v 15.375 h -72 z" /><g
       transform="translate(49.149,61.125)"
       id="g294"><path
         id="path296"
         style="fill:none;stroke:#231f20;stroke-width:0.75;stroke-linecap:square;stroke-linejoin:miter;stroke-miterlimit:10;stroke-dasharray:none;stroke-opacity:1"
         d="m 0,0 h 56.625 c 4.244,0 7.688,-3.444 7.688,-7.687 0,-4.245 -3.444,-7.688 -7.688,-7.688 H 0 c -4.244,0 -7.687,3.443 -7.687,7.688 C -7.687,-3.444 -4.244,0 0,0 Z" /></g><text
       id="text300"
       style="font-variant:normal;font-weight:normal;font-stretch:normal;font-size:9px;font-family:Times;-inkscape-font-specification:Times-Roman;writing-mode:lr-tb;fill:#231f20;fill-opacity:1;fill-rule:nonzero;stroke:none"
       transform="matrix(1,0,0,-1,58.2016,51.0703)"><tspan
         id="tspan298"
         y="0"
         x="0 4.5 9 11.25 13.5 18 20.25 23.247 27.747 32.247002 35.243999">25, 0 (24)</tspan></text>
<g
       transform="translate(81.584,28.86)"
       id="g302"><path
         id="path304"
         style="fill:#ffffff;fill-opacity:1;fill-rule:nonzero;stroke:none"
         d="M 0,0 C 0,2.069 -1.68,3.75 -3.75,3.75 -5.82,3.75 -7.5,2.069 -7.5,0 c 0,-2.07 1.68,-3.75 3.75,-3.75 C -1.68,-3.75 0,-2.07 0,0" /></g><g
       transform="translate(81.584,28.86)"
       id="g306"><path
         id="path308"
         style="fill:none;stroke:#231f20;stroke-width:0.75;stroke-linecap:square;stroke-linejoin:miter;stroke-miterlimit:10;stroke-dasharray:none;stroke-opacity:1"
         d="M 0,0 C 0,2.069 -1.68,3.75 -3.75,3.75 -5.82,3.75 -7.5,2.069 -7.5,0 c 0,-2.07 1.68,-3.75 3.75,-3.75 C -1.68,-3.75 0,-2.07 0,0" /></g><path
       id="path310"
       style="fill:#ffffff;fill-opacity:1;fill-rule:nonzero;stroke:none"
       d="m 29.274,370.313 h 72 v 15.375 h -72 z" /><g
       transform="translate(36.961,385.688)"
       id="g312"><path
         id="path314"
         style="fill:none;stroke:#231f20;stroke-width:0.75;stroke-linecap:square;stroke-linejoin:miter;stroke-miterlimit:10;stroke-dasharray:none;stroke-opacity:1"
         d="m 0,0 h 56.625 c 4.244,0 7.687,-3.444 7.687,-7.687 0,-4.245 -3.443,-7.688 -7.687,-7.688 H 0 c -4.244,0 -7.687,3.443 -7.687,7.688 C -7.687,-3.444 -4.244,0 0,0 Z" /></g><text
       id="text318"
       style="font-variant:normal;font-weight:normal;font-stretch:normal;font-size:9px;font-family:Times;-inkscape-font-specification:Times-Roman;writing-mode:lr-tb;fill:#231f20;fill-opacity:1;fill-rule:nonzero;stroke:none"
       transform="matrix(1,0,0,-1,46.0141,375.6328)"><tspan
         id="tspan316"
         y="0"
         x="0 4.5 9 11.25 13.5 18 20.25 23.247 27.747 32.247002 35.243999">25, 0 (24)</tspan></text>
<g
       transform="translate(68.984,360.961)"
       id="g320"><path
         id="path322"
         style="fill:#ffffff;fill-opacity:1;fill-rule:nonzero;stroke:none"
         d="M 0,0 C 0,2.07 -1.68,3.75 -3.75,3.75 -5.82,3.75 -7.5,2.07 -7.5,0 c 0,-2.07 1.68,-3.75 3.75,-3.75 C -1.68,-3.75 0,-2.07 0,0" /></g><g
       transform="translate(68.984,360.961)"
       id="g324"><path
         id="path326"
         style="fill:none;stroke:#231f20;stroke-width:0.75;stroke-linecap:square;stroke-linejoin:miter;stroke-miterlimit:10;stroke-dasharray:none;stroke-opacity:1"
         d="M 0,0 C 0,2.07 -1.68,3.75 -3.75,3.75 -5.82,3.75 -7.5,2.07 -7.5,0 c 0,-2.07 1.68,-3.75 3.75,-3.75 C -1.68,-3.75 0,-2.07 0,0" /></g><path
       id="path328"
       style="fill:#ffffff;fill-opacity:1;fill-rule:nonzero;stroke:none"
       d="m 31.149,289.5 h 72 v 15.375 h -72 z" /><g
       transform="translate(38.836,304.875)"
       id="g330"><path
         id="path332"
         style="fill:none;stroke:#231f20;stroke-width:0.75;stroke-linecap:square;stroke-linejoin:miter;stroke-miterlimit:10;stroke-dasharray:none;stroke-opacity:1"
         d="m 0,0 h 56.625 c 4.244,0 7.687,-3.444 7.687,-7.687 0,-4.245 -3.443,-7.688 -7.687,-7.688 H 0 c -4.244,0 -7.687,3.443 -7.687,7.688 C -7.687,-3.444 -4.244,0 0,0 Z" /></g><text
       id="text336"
       style="font-variant:normal;font-weight:normal;font-stretch:normal;font-size:9px;font-family:Times;-inkscape-font-specification:Times-Roman;writing-mode:lr-tb;fill:#231f20;fill-opacity:1;fill-rule:nonzero;stroke:none"
       transform="matrix(1,0,0,-1,47.8891,294.8203)"><tspan
         id="tspan334"
         y="0"
         x="0 4.5 9 11.25 13.5 18 20.25 23.247 27.747 32.247002 35.243999">25, 0 (24)</tspan></text>
<g
       transform="translate(70.874,277.89)"
       id="g338"><path
         id="path340"
         style="fill:#ffffff;fill-opacity:1;fill-rule:nonzero;stroke:none"
         d="M 0,0 C 0,2.07 -1.68,3.75 -3.75,3.75 -5.82,3.75 -7.5,2.07 -7.5,0 c 0,-2.07 1.68,-3.75 3.75,-3.75 C -1.68,-3.75 0,-2.07 0,0" /></g><g
       transform="translate(70.874,277.89)"
       id="g342"><path
         id="path344"
         style="fill:none;stroke:#231f20;stroke-width:0.75;stroke-linecap:square;stroke-linejoin:miter;stroke-miterlimit:10;stroke-dasharray:none;stroke-opacity:1"
         d="M 0,0 C 0,2.07 -1.68,3.75 -3.75,3.75 -5.82,3.75 -7.5,2.07 -7.5,0 c 0,-2.07 1.68,-3.75 3.75,-3.75 C -1.68,-3.75 0,-2.07 0,0" /></g><path
       id="path346"
       style="fill:#ffffff;fill-opacity:1;fill-rule:nonzero;stroke:none"
       d="m 0.37498,178.564 h 72 v 15.374 h -72 z" /><g
       transform="translate(8.0625,193.938)"
       id="g348"><path
         id="path350"
         style="fill:none;stroke:#231f20;stroke-width:0.75;stroke-linecap:square;stroke-linejoin:miter;stroke-miterlimit:10;stroke-dasharray:none;stroke-opacity:1"
         d="m 0,0 h 56.625 c 4.244,0 7.688,-3.444 7.688,-7.687 0,-4.244 -3.444,-7.687 -7.688,-7.687 H 0 c -4.2437,0 -7.6875,3.443 -7.6875,7.687 C -7.6875,-3.444 -4.2437,0 0,0 Z" /></g><text
       id="text354"
       style="font-variant:normal;font-weight:normal;font-stretch:normal;font-size:9px;font-family:Times;-inkscape-font-specification:Times-Roman;writing-mode:lr-tb;fill:#231f20;fill-opacity:1;fill-rule:nonzero;stroke:none"
       transform="matrix(1,0,0,-1,17.1147,183.8838)"><tspan
         id="tspan352"
         y="0"
         x="0 4.5 9 11.25 13.5 18 20.25 23.247 27.747 32.247002 35.243999">25, 0 (24)</tspan></text>
<g
       transform="translate(40.274,164.67)"
       id="g356"><path
         id="path358"
         style="fill:#ffffff;fill-opacity:1;fill-rule:nonzero;stroke:none"
         d="M 0,0 C 0,2.07 -1.68,3.75 -3.75,3.75 -5.819,3.75 -7.5,2.07 -7.5,0 c 0,-2.069 1.681,-3.75 3.75,-3.75 C -1.68,-3.75 0,-2.069 0,0" /></g><g
       transform="translate(40.274,164.67)"
       id="g360"><path
         id="path362"
         style="fill:none;stroke:#231f20;stroke-width:0.75;stroke-linecap:square;stroke-linejoin:miter;stroke-miterlimit:10;stroke-dasharray:none;stroke-opacity:1"
         d="M 0,0 C 0,2.07 -1.68,3.75 -3.75,3.75 -5.819,3.75 -7.5,2.07 -7.5,0 c 0,-2.069 1.681,-3.75 3.75,-3.75 C -1.68,-3.75 0,-2.069 0,0" /></g></g></svg>