<?xml version="1.0" encoding="UTF-8" standalone="no"?>
<svg
   xmlns:dc="http://purl.org/dc/elements/1.1/"
   xmlns:cc="http://creativecommons.org/ns#"
   xmlns:rdf="http://www.w3.org/1999/02/22-rdf-syntax-ns#"
   xmlns:svg="http://www.w3.org/2000/svg"
   xmlns="http://www.w3.org/2000/svg"
   viewBox="0 0 439.80133 454.616"
   height="454.616"
   width="439.80133"
   xml:space="preserve"
   id="svg2"
   version="1.1"><metadata
     id="metadata8"><rdf:RDF><cc:Work
         rdf:about=""><dc:format>image/svg+xml</dc:format><dc:type
           rdf:resource="http://purl.org/dc/dcmitype/StillImage" /></cc:Work></rdf:RDF></metadata><defs
     id="defs6"><clipPath
       id="clipPath98"
       clipPathUnits="userSpaceOnUse"><path
         id="path96"
         d="M 272.964,31.875 H 45.75 v -31.5 h 227.214 z" /></clipPath></defs><g
     transform="matrix(1.3333333,0,0,-1.3333333,0,454.616)"
     id="g10"><g
       transform="translate(198.375,264.65)"
       id="g12"><path
         id="path14"
         style="fill:none;stroke:#231f20;stroke-width:0.75;stroke-linecap:square;stroke-linejoin:miter;stroke-miterlimit:10;stroke-dasharray:none;stroke-opacity:1"
         d="M 0,0 H -15" /><g
         transform="translate(-53.625,-102.75)"
         id="g16"><path
           id="path18"
           style="fill:none;stroke:#231f20;stroke-width:0.75;stroke-linecap:square;stroke-linejoin:miter;stroke-miterlimit:10;stroke-dasharray:none;stroke-opacity:1"
           d="M 0,0 H -15" /><g
           transform="translate(-4.5,-107.337)"
           id="g20"><path
             id="path22"
             style="fill:none;stroke:#231f20;stroke-width:0.75;stroke-linecap:square;stroke-linejoin:miter;stroke-miterlimit:10;stroke-dasharray:none;stroke-opacity:1"
             d="M 0,0 H -15" /><g
             transform="translate(75.126,233.213)"
             id="g24"><path
               id="path26"
               style="fill:none;stroke:#231f20;stroke-width:0.75;stroke-linecap:square;stroke-linejoin:miter;stroke-miterlimit:10;stroke-dasharray:none;stroke-opacity:1"
               d="M 0,0 V -7.939" /><g
               transform="translate(-52.219,-97.726)"
               id="g28"><path
                 id="path30"
                 style="fill:none;stroke:#231f20;stroke-width:0.75;stroke-linecap:square;stroke-linejoin:miter;stroke-miterlimit:10;stroke-dasharray:none;stroke-opacity:1"
                 d="M 0,0 0.238,-12.963" /><g
                 transform="translate(-8.113,-111.675)"
                 id="g32"><path
                   id="path34"
                   style="fill:none;stroke:#231f20;stroke-width:0.75;stroke-linecap:square;stroke-linejoin:miter;stroke-miterlimit:10;stroke-dasharray:none;stroke-opacity:1"
                   d="M 0,0 -0.404,-8.629" /><g
                   transform="translate(-62.555,209.401)"
                   id="g36"><path
                     id="path38"
                     style="fill:none;stroke:#231f20;stroke-width:0.75;stroke-linecap:square;stroke-linejoin:miter;stroke-miterlimit:10;stroke-dasharray:none;stroke-opacity:1"
                     d="M 0,0 V 11.689" /></g></g></g></g></g></g></g><path
       id="path40"
       style="fill:none;stroke:#231f20;stroke-width:0.75;stroke-linecap:square;stroke-linejoin:miter;stroke-miterlimit:10;stroke-dasharray:3.75, 3.75;stroke-dashoffset:0;stroke-opacity:1"
       d="m 154.215,39.383 -0.501,-7.508 m 9.559,114.842 -0.559,-10.88 m 88.911,161.813 v 21.562" /><g
       transform="translate(92.489,287.776)"
       id="g42"><path
         id="path44"
         style="fill:none;stroke:#231f20;stroke-width:0.75;stroke-linecap:square;stroke-linejoin:miter;stroke-miterlimit:10;stroke-dasharray:none;stroke-opacity:1"
         d="M 0,0 H 122.887" /></g><path
       id="path46"
       style="fill:none;stroke:#231f20;stroke-width:0.75;stroke-linecap:square;stroke-linejoin:miter;stroke-miterlimit:10;stroke-dasharray:3.75, 3.75;stroke-dashoffset:0;stroke-opacity:1"
       d="m 232.375,297.65 h 19.25 m -19.25,-17.813 v 17.813" /><path
       id="path48"
       style="fill:#ffffff;fill-opacity:1;fill-rule:nonzero;stroke:none"
       d="m 16.875,299.465 h 151.228 v 41.122 H 16.875 Z" /><g
       transform="translate(37.437,340.587)"
       id="g50"><path
         id="path52"
         style="fill:none;stroke:#231f20;stroke-width:0.75;stroke-linecap:square;stroke-linejoin:miter;stroke-miterlimit:10;stroke-dasharray:none;stroke-opacity:1"
         d="m 0,0 h 110.105 c 11.35,0 20.561,-9.211 20.561,-20.561 0,-11.35 -9.211,-20.561 -20.561,-20.561 H 0 c -11.35,0 -20.562,9.211 -20.562,20.561 C -20.562,-9.211 -11.35,0 0,0 Z" /></g><text
       id="text60"
       style="font-variant:normal;font-weight:normal;font-stretch:normal;font-size:9px;font-family:Times;-inkscape-font-specification:Times-Roman;writing-mode:lr-tb;fill:#231f20;fill-opacity:1;fill-rule:nonzero;stroke:none"
       transform="matrix(1,0,0,-1,26.3765,326.3252)"><tspan
         id="tspan54"
         y="0"
         x="0 4.5 9 11.25 13.5 18 22.5 24.75 27.747 32.247002 36.747002 38.997002 41.247002 45.747002 50.247002 52.497002 54.747002 59.247002 63.747002 65.997002 68.247002 72.747002 74.997002 77.247002 81.747002 86.247002 88.497002 90.747002 95.247002 99.747002 101.997 104.247 108.747 113.247 115.497 117.747 122.247 126.747 128.99699">65, 32 (10, 10, 10, 5, 13, 14, 40, 42,</tspan><tspan
         id="tspan56"
         y="10.9998"
         x="-8.6265001 -4.1265001 0.37349999 2.6235001 4.8734999 9.3734999 13.8735 16.123501 18.373501 22.873501 27.373501 29.623501 31.873501 36.373501 40.873501 43.123501 45.373501 49.873501 54.373501 56.623501 58.873501 63.373501 67.873497 70.123497 72.373497 76.873497 81.373497 83.623497 85.873497 90.373497 94.873497 97.123497 99.373497 103.8735 108.3735 110.6235 112.8735 117.3735 121.8735 124.1235 126.3735 130.8735 135.3735 137.6235">16, 20, 18, 53, 12, 16, 16, 55, 11, 58, 43,</tspan><tspan
         id="tspan58"
         y="21.999599"
         x="29.25 33.75 38.25 40.5 42.75 47.25 51.75 54 56.25 60.75 65.25 67.5 69.75 74.25 78.75 81 83.25 87.75 90 92.25 96.75 99.747002">17, 43, 58, 63, 5, 5)</tspan></text>
<path
       id="path62"
       style="fill:#ffffff;fill-opacity:1;fill-rule:nonzero;stroke:none"
       d="m 0.375,190.05 h 329.101 v 42.537 H 0.375 Z" /><g
       transform="translate(21.644,232.587)"
       id="g64"><path
         id="path66"
         style="fill:none;stroke:#231f20;stroke-width:0.75;stroke-linecap:square;stroke-linejoin:miter;stroke-miterlimit:10;stroke-dasharray:none;stroke-opacity:1"
         d="m 0,0 h 286.563 c 11.74,0 21.268,-9.528 21.268,-21.269 0,-11.74 -9.528,-21.268 -21.268,-21.268 H 0 c -11.741,0 -21.269,9.528 -21.269,21.268 C -21.269,-9.528 -11.741,0 0,0 Z" /></g><text
       id="text76"
       style="font-variant:normal;font-weight:normal;font-stretch:normal;font-size:9px;font-family:Times;-inkscape-font-specification:Times-Roman;writing-mode:lr-tb;fill:#231f20;fill-opacity:1;fill-rule:nonzero;stroke:none"
       transform="matrix(1,0,0,-1,11.0011,224.2847)"><tspan
         id="tspan68"
         y="0"
         x="0 4.5 9 11.25 13.5 18 22.5 24.75 27.747 32.247002 36.747002 38.997002 41.247002 45.747002 50.247002 52.497002 54.747002 59.247002 63.747002 65.997002 68.247002 72.747002 77.247002 79.497002 81.747002 86.247002 88.497002 90.747002 95.247002 97.497002 99.747002 104.247 106.497 108.747 113.247 115.497 117.747 122.247 126.747 128.99699 131.24699 135.74699 140.24699 142.49699 144.74699 149.24699 153.74699 155.99699 158.24699 162.74699 167.24699 169.49699 171.74699 176.24699 180.74699 182.99699 185.24699 189.74699 194.24699 196.49699 198.74699 203.24699 207.74699 209.99699 212.24699 216.74699 221.24699 223.49699 225.74699 230.24699 234.74699 236.99699 239.24699 243.74699 248.24699 250.49699 252.74699 257.24701 259.49701 261.74701 266.24701 268.49701 270.74701 275.24701 277.49701 279.74701 284.24701 286.49701 288.74701 293.24701 295.49701 297.74701 302.24701 304.49701 306.74701">65, 33 (10, 12, 12, 10, 5, 1, 3, 8, 41, 13, 14, 40, 42, 15, 16, 18, 21, 15, 6, 6, 6, 7, 7, 7, </tspan><tspan
         id="tspan70"
         y="9.9998999"
         x="-4.1265001 0.37349999 4.8734999 7.1234999 9.3734999 13.8735 18.373501 20.623501 22.873501 27.373501 31.873501 34.123501 36.373501 40.873501 45.373501 47.623501 49.873501 54.373501 58.873501 61.123501 63.373501 67.873497 70.123497 72.373497 76.873497 79.123497 81.373497 85.873497 90.373497 92.623497 94.873497 99.373497 103.8735 106.1235 108.3735 112.8735 117.3735 119.6235 121.8735 126.3735 130.8735 133.1235 135.3735 139.8735 144.3735 146.6235 148.8735 153.3735 157.8735 160.1235 162.3735 166.8735 171.3735 173.6235 175.8735 180.3735 184.8735 187.1235 189.3735 193.8735 198.3735 200.6235 202.8735 207.3735 211.8735 214.1235 216.3735 220.8735 225.3735 227.6235 229.8735 234.3735 238.8735 241.1235 243.3735 247.8735 252.3735 254.6235 256.8735 261.3735 265.8735 268.1235 270.3735 274.8735 279.3735 281.6235 283.8735 288.3735 292.8735 295.1235 297.3735 301.8735 306.3735 308.6235 310.8735">53, 53, 60, 60, 60, 8, 9, 12, 12, 57, 57, 22, 22, 54, 53, 45, 15, 16, 55, 11, 50, 16, 61, 58, </tspan><tspan
         id="tspan72"
         y="19.9998"
         x="-4.1265001 0.37349999 4.8734999 7.1234999 9.3734999 13.8735 18.373501 20.623501 22.873501 27.373501 31.873501 34.123501 36.373501 40.873501 45.373501 47.623501 49.873501 54.373501 58.873501 61.123501 63.373501 67.873497 72.373497 74.623497 76.873497 81.373497 85.873497 88.123497 90.373497 94.873497 99.373497 101.6235 103.8735 108.3735 112.8735 115.1235 117.3735 121.8735 126.3735 128.6235 130.8735 135.3735 139.8735 142.1235 144.3735 148.8735 153.3735 155.6235 157.8735 162.3735 164.6235 166.8735 171.3735 175.8735 178.1235 180.3735 184.8735 189.3735 191.6235 193.8735 198.3735 202.8735 205.1235 207.3735 211.8735 216.3735 218.6235 220.8735 225.3735 229.8735 232.1235 234.3735 238.8735 243.3735 245.6235 247.8735 252.3735 256.8735 259.1235 261.3735 265.8735 270.3735 272.6235 274.8735 279.3735 283.8735 286.1235 288.3735 292.8735 297.3735 299.6235 301.8735 306.3735 310.8735">58, 58, 59, 61, 61, 45, 45, 45, 23, 23, 49, 49, 8, 44, 12, 12, 62, 59, 59, 17, 60, 50, 50, 46</tspan><tspan
         id="tspan74"
         y="29.999701"
         x="77.625 79.875 82.125 86.625 91.125 93.375 95.625 100.125 104.625 106.875 109.125 113.625 118.125 120.375 122.625 127.125 131.625 133.875 136.125 140.625 145.125 147.375 149.625 154.125 158.625 160.875 163.125 167.625 172.125 174.375 176.625 181.125 183.375 185.625 190.125 192.375 194.625 199.125 203.625 205.875 208.125 212.625 217.125 219.375 221.625 226.125 229.12199">, 16, 17, 44, 47, 15, 49, 63, 5, 5, 11, 21, 9)</tspan></text>
<path
       id="path78"
       style="fill:#ffffff;fill-opacity:1;fill-rule:nonzero;stroke:none"
       d="m 45.75,0.37502 h 227.214 v 31.5 H 45.75 Z" /><g
       transform="translate(61.5,31.875)"
       id="g80"><path
         id="path82"
         style="fill:none;stroke:#231f20;stroke-width:0.75;stroke-linecap:square;stroke-linejoin:miter;stroke-miterlimit:10;stroke-dasharray:none;stroke-opacity:1"
         d="m 0,0 h 195.714 c 8.694,0 15.75,-7.057 15.75,-15.75 0,-8.693 -7.056,-15.75 -15.75,-15.75 H 0 c -8.693,0 -15.75,7.057 -15.75,15.75 C -15.75,-7.057 -8.693,0 0,0 Z" /></g><text
       id="text90"
       style="font-variant:normal;font-weight:normal;font-stretch:normal;font-size:9px;font-family:Times;-inkscape-font-specification:Times-Roman;writing-mode:lr-tb;fill:#231f20;fill-opacity:1;fill-rule:nonzero;stroke:none"
       transform="matrix(1,0,0,-1,51.168,23.7579)"><tspan
         id="tspan84"
         y="0"
         x="0 4.5 9 11.25 13.5 18 22.5 24.75 27.747 32.247002 36.747002 38.997002 41.247002 45.747002 50.247002 52.497002 54.747002 59.247002 63.747002 65.997002 68.247002 72.747002 74.997002 77.247002 81.747002 83.997002 86.247002 90.747002 92.997002 95.247002 99.747002 101.997 104.247 108.747 113.247 115.497 117.747 122.247 126.747 128.99699 131.24699 135.74699 140.24699 142.49699 144.74699 149.24699 153.74699 155.99699 158.24699 162.74699 167.24699 169.49699 171.74699 176.24699 180.74699 182.99699 185.24699 189.74699 191.99699 194.24699 198.74699 200.99699 203.24699 207.74699 212.24699 214.49699">65, 34 (10, 10, 10, 5, 1, 3, 8, 41, 13, 14, 40, 42, 16, 6, 6, 53,</tspan><tspan
         id="tspan86"
         y="10.9998"
         x="-0.75150001 1.4985 5.9984999 10.4985 12.7485 14.9985 19.498501 23.998501 26.248501 28.498501 32.998501 37.498501 39.748501 41.998501 46.498501 50.998501 53.248501 55.498501 59.998501 64.498497 66.748497 68.998497 73.498497 77.998497 80.248497 82.498497 86.998497 91.498497 93.748497 95.998497 100.4985 104.9985 107.2485 109.4985 113.9985 118.4985 120.7485 122.9985 127.4985 131.9985 134.2485 136.4985 140.9985 145.4985 147.7485 149.9985 154.4985 158.9985 161.2485 163.4985 167.9985 172.4985 174.7485 176.9985 181.4985 185.9985 188.2485 190.4985 194.9985 199.4985 201.7485 203.9985 208.4985 212.9985 215.2485"> 22, 16, 11, 61, 58, 23, 23, 62, 59, 17, 60, 16, 17, 47, 55, 55,</tspan><tspan
         id="tspan88"
         y="21.999599"
         x="93.375 95.625 100.125 104.625 106.875 109.125 113.625"> 11, 21</tspan></text>
<g
       id="g92"><g
         clip-path="url(#clipPath98)"
         id="g94"><text
           id="text102"
           style="font-variant:normal;font-weight:normal;font-stretch:normal;font-size:9px;font-family:Times;-inkscape-font-specification:Times-Roman;writing-mode:lr-tb;fill:#231f20;fill-opacity:1;fill-rule:nonzero;stroke:none"
           transform="matrix(1,0,0,-1,169.293,1.7579)"><tspan
             id="tspan100"
             y="0"
             x="0">)</tspan></text>
</g></g><text
       id="text106"
       style="font-variant:normal;font-weight:normal;font-stretch:normal;font-size:9px;font-family:Times;-inkscape-font-specification:Times-Roman;writing-mode:lr-tb;fill:#231f20;fill-opacity:1;fill-rule:nonzero;stroke:none"
       transform="matrix(1,0,0,-1,172.2901,1.7579)"><tspan
         id="tspan104"
         y="0"
         x="0"></tspan></text>
<path
       id="path108"
       style="fill:#ffffff;fill-opacity:1;fill-rule:nonzero;stroke:none"
       d="M 10.875,78.375 H 299.214 V 113.25 H 10.875 Z" /><g
       transform="translate(28.313,113.25)"
       id="g110"><path
         id="path112"
         style="fill:none;stroke:#231f20;stroke-width:0.75;stroke-linecap:square;stroke-linejoin:miter;stroke-miterlimit:10;stroke-dasharray:none;stroke-opacity:1"
         d="m 0,0 h 253.464 c 9.626,0 17.437,-7.813 17.437,-17.437 0,-9.626 -7.811,-17.438 -17.437,-17.438 H 0 c -9.625,0 -17.437,7.812 -17.437,17.438 C -17.437,-7.813 -9.625,0 0,0 Z" /></g><text
       id="text118"
       style="font-variant:normal;font-weight:normal;font-stretch:normal;font-size:9px;font-family:Times;-inkscape-font-specification:Times-Roman;writing-mode:lr-tb;fill:#231f20;fill-opacity:1;fill-rule:nonzero;stroke:none"
       transform="matrix(1,0,0,-1,23.7511,98.1114)"><tspan
         id="tspan114"
         y="0"
         x="0 4.5 9 11.25 13.5 18 22.5 24.75 27.747 32.247002 34.497002 36.747002 41.247002 43.497002 45.747002 50.247002 54.747002 56.997002 59.247002 63.747002 68.247002 70.497002 72.747002 77.247002 81.747002 83.997002 86.247002 90.747002 95.247002 97.497002 99.747002 104.247 106.497 108.747 113.247 115.497 117.747 122.247 124.497 126.747 131.24699 135.74699 137.99699 140.24699 144.74699 149.24699 151.49699 153.74699 158.24699 160.49699 162.74699 167.24699 169.49699 171.74699 176.24699 180.74699 182.99699 185.24699 189.74699 194.24699 196.49699 198.74699 203.24699 207.74699 209.99699 212.24699 216.74699 221.24699 223.49699 225.74699 230.24699 234.74699 236.99699 239.24699 243.74699 248.24699 250.49699 252.74699 257.24701 261.74701 263.99701 266.24701">65, 44 (1, 1, 15, 20, 18, 15, 7, 7, 7, 53, 60, 8, 9, 12, 57, 57, 22, 16, 54, 53, </tspan><tspan
         id="tspan116"
         y="10.9998"
         x="34.875 39.375 43.875 46.125 48.375 52.875 57.375 59.625 61.875 66.375 70.875 73.125 75.375 79.875 82.125 84.375 88.875 93.375 95.625 97.875 102.375 106.875 109.125 111.375 115.875 120.375 122.625 124.875 129.375 133.875 136.125 138.375 142.875 147.375 149.625 151.875 156.375 160.875 163.125 165.375 169.875 174.375 176.625 178.875 183.375 187.875 190.125 192.375 196.875 199.125 201.375 205.875 208.125 210.375 214.875 219.375 221.625 223.875 228.375 231.37199">61, 45, 49, 8, 44, 59, 64, 21, 44, 13, 15, 49, 5, 5, 49, 9)</tspan></text>
<path
       id="path120"
       style="fill:#ffffff;fill-opacity:1;fill-rule:nonzero;stroke:none"
       d="m 25.875,120.462 h 263.75 v 15.375 H 25.875 Z" /><g
       transform="translate(33.563,135.837)"
       id="g122"><path
         id="path124"
         style="fill:none;stroke:#231f20;stroke-width:0.75;stroke-linecap:square;stroke-linejoin:miter;stroke-miterlimit:10;stroke-dasharray:none;stroke-opacity:1"
         d="m 0,0 h 248.375 c 4.244,0 7.688,-3.443 7.688,-7.687 0,-4.244 -3.444,-7.688 -7.688,-7.688 H 0 c -4.243,0 -7.687,3.444 -7.687,7.688 C -7.687,-3.443 -4.243,0 0,0 Z" /></g><text
       id="text128"
       style="font-variant:normal;font-weight:normal;font-stretch:normal;font-size:9px;font-family:Times;-inkscape-font-specification:Times-Roman;writing-mode:lr-tb;fill:#231f20;fill-opacity:1;fill-rule:nonzero;stroke:none"
       transform="matrix(1,0,0,-1,30.875,125.7823)"><tspan
         id="tspan126"
         y="0"
         x="0 4.5 9 11.25 13.5 18 22.5 24.75 27.747 32.247002 36.747002 38.997002 41.247002 45.747002 50.247002 52.497002 54.747002 59.247002 63.747002 65.997002 68.247002 72.747002 77.247002 79.497002 81.747002 86.247002 90.747002 92.997002 95.247002 99.747002 104.247 106.497 108.747 113.247 117.747 119.997 122.247 126.747 131.24699 133.49699 135.74699 140.24699 144.74699 146.99699 149.24699 153.74699 158.24699 160.49699 162.74699 167.24699 171.74699 173.99699 176.24699 180.74699 185.24699 187.49699 189.74699 194.24699 198.74699 200.99699 203.24699 207.74699 212.24699 214.49699 216.74699 221.24699 225.74699 227.99699 230.24699 234.74699 239.24699 241.49699 243.74699 248.24699 252.74699 255.744">65, 87 (53, 53, 53, 53, 53, 55, 55, 55, 55, 55, 55, 55, 55, 55, 55, 55, 55)</tspan></text>
<path
       id="path130"
       style="fill:#ffffff;fill-opacity:1;fill-rule:nonzero;stroke:none"
       d="m 204.75,319.212 h 93.75 v 15.375 h -93.75 z" /><g
       transform="translate(212.438,334.587)"
       id="g132"><path
         id="path134"
         style="fill:none;stroke:#231f20;stroke-width:0.75;stroke-linecap:square;stroke-linejoin:miter;stroke-miterlimit:10;stroke-dasharray:none;stroke-opacity:1"
         d="m 0,0 h 78.375 c 4.244,0 7.688,-3.444 7.688,-7.687 0,-4.244 -3.444,-7.688 -7.688,-7.688 H 0 c -4.243,0 -7.687,3.444 -7.687,7.688 C -7.687,-3.444 -4.243,0 0,0 Z" /></g><text
       id="text138"
       style="font-variant:normal;font-weight:normal;font-stretch:normal;font-size:9px;font-family:Times;-inkscape-font-specification:Times-Roman;writing-mode:lr-tb;fill:#231f20;fill-opacity:1;fill-rule:nonzero;stroke:none"
       transform="matrix(1,0,0,-1,222.3575,324.5323)"><tspan
         id="tspan136"
         y="0"
         x="0 4.5 9 11.25 13.5 18 22.5 24.75 27.747 32.247002 36.747002 38.997002 41.247002 45.747002 50.247002 53.243999">65, 89 (53, 13)</tspan></text>
<g
       transform="translate(183.417,264.651)"
       id="g140"><path
         id="path142"
         style="fill:#ffffff;fill-opacity:1;fill-rule:nonzero;stroke:none"
         d="M 0,0 C 0,2.07 -1.68,3.75 -3.75,3.75 -5.82,3.75 -7.5,2.07 -7.5,0 c 0,-2.07 1.68,-3.75 3.75,-3.75 C -1.68,-3.75 0,-2.07 0,0" /></g><g
       transform="translate(183.417,264.651)"
       id="g144"><path
         id="path146"
         style="fill:none;stroke:#231f20;stroke-width:0.75;stroke-linecap:square;stroke-linejoin:miter;stroke-miterlimit:10;stroke-dasharray:none;stroke-opacity:1"
         d="M 0,0 C 0,2.07 -1.68,3.75 -3.75,3.75 -5.82,3.75 -7.5,2.07 -7.5,0 c 0,-2.07 1.68,-3.75 3.75,-3.75 C -1.68,-3.75 0,-2.07 0,0" /></g><g
       transform="translate(129.776,161.872)"
       id="g148"><path
         id="path150"
         style="fill:#ffffff;fill-opacity:1;fill-rule:nonzero;stroke:none"
         d="M 0,0 C 0,2.069 -1.68,3.75 -3.75,3.75 -5.819,3.75 -7.5,2.069 -7.5,0 c 0,-2.071 1.681,-3.75 3.75,-3.75 C -1.68,-3.75 0,-2.071 0,0" /></g><g
       transform="translate(129.776,161.872)"
       id="g152"><path
         id="path154"
         style="fill:none;stroke:#231f20;stroke-width:0.75;stroke-linecap:square;stroke-linejoin:miter;stroke-miterlimit:10;stroke-dasharray:none;stroke-opacity:1"
         d="M 0,0 C 0,2.069 -1.68,3.75 -3.75,3.75 -5.819,3.75 -7.5,2.069 -7.5,0 c 0,-2.071 1.681,-3.75 3.75,-3.75 C -1.68,-3.75 0,-2.071 0,0" /></g><g
       transform="translate(125.276,54.592)"
       id="g156"><path
         id="path158"
         style="fill:#ffffff;fill-opacity:1;fill-rule:nonzero;stroke:none"
         d="M 0,0 C 0,2.07 -1.68,3.75 -3.75,3.75 -5.819,3.75 -7.5,2.07 -7.5,0 c 0,-2.07 1.681,-3.75 3.75,-3.75 C -1.68,-3.75 0,-2.07 0,0" /></g><g
       transform="translate(125.276,54.592)"
       id="g160"><path
         id="path162"
         style="fill:none;stroke:#231f20;stroke-width:0.75;stroke-linecap:square;stroke-linejoin:miter;stroke-miterlimit:10;stroke-dasharray:none;stroke-opacity:1"
         d="M 0,0 C 0,2.07 -1.68,3.75 -3.75,3.75 -5.819,3.75 -7.5,2.07 -7.5,0 c 0,-2.07 1.681,-3.75 3.75,-3.75 C -1.68,-3.75 0,-2.07 0,0" /></g><g
       transform="translate(219.146,276.081)"
       id="g164"><path
         id="path166"
         style="fill:#ffffff;fill-opacity:1;fill-rule:nonzero;stroke:none"
         d="M 0,0 C 0,2.07 -1.68,3.75 -3.75,3.75 -5.819,3.75 -7.5,2.07 -7.5,0 c 0,-2.069 1.681,-3.75 3.75,-3.75 C -1.68,-3.75 0,-2.069 0,0" /></g><g
       transform="translate(219.146,276.081)"
       id="g168"><path
         id="path170"
         style="fill:none;stroke:#231f20;stroke-width:0.75;stroke-linecap:square;stroke-linejoin:miter;stroke-miterlimit:10;stroke-dasharray:none;stroke-opacity:1"
         d="M 0,0 C 0,2.07 -1.68,3.75 -3.75,3.75 -5.819,3.75 -7.5,2.07 -7.5,0 c 0,-2.069 1.681,-3.75 3.75,-3.75 C -1.68,-3.75 0,-2.069 0,0" /></g><g
       transform="translate(167.217,173.392)"
       id="g172"><path
         id="path174"
         style="fill:#ffffff;fill-opacity:1;fill-rule:nonzero;stroke:none"
         d="M 0,0 C 0,2.069 -1.681,3.75 -3.75,3.75 -5.82,3.75 -7.5,2.069 -7.5,0 c 0,-2.07 1.68,-3.75 3.75,-3.75 C -1.681,-3.75 0,-2.07 0,0" /></g><g
       transform="translate(167.217,173.392)"
       id="g176"><path
         id="path178"
         style="fill:none;stroke:#231f20;stroke-width:0.75;stroke-linecap:square;stroke-linejoin:miter;stroke-miterlimit:10;stroke-dasharray:none;stroke-opacity:1"
         d="M 0,0 C 0,2.069 -1.681,3.75 -3.75,3.75 -5.82,3.75 -7.5,2.069 -7.5,0 c 0,-2.07 1.68,-3.75 3.75,-3.75 C -1.681,-3.75 0,-2.07 0,0" /></g><g
       transform="translate(158.217,43.071)"
       id="g180"><path
         id="path182"
         style="fill:#ffffff;fill-opacity:1;fill-rule:nonzero;stroke:none"
         d="M 0,0 C 0,2.07 -1.681,3.75 -3.75,3.75 -5.82,3.75 -7.5,2.07 -7.5,0 c 0,-2.069 1.68,-3.75 3.75,-3.75 C -1.681,-3.75 0,-2.069 0,0" /></g><g
       transform="translate(158.217,43.071)"
       id="g184"><path
         id="path186"
         style="fill:none;stroke:#231f20;stroke-width:0.75;stroke-linecap:square;stroke-linejoin:miter;stroke-miterlimit:10;stroke-dasharray:none;stroke-opacity:1"
         d="M 0,0 C 0,2.07 -1.681,3.75 -3.75,3.75 -5.82,3.75 -7.5,2.07 -7.5,0 c 0,-2.069 1.68,-3.75 3.75,-3.75 C -1.681,-3.75 0,-2.069 0,0" /></g><g
       transform="translate(158.217,66.022)"
       id="g188"><path
         id="path190"
         style="fill:#ffffff;fill-opacity:1;fill-rule:nonzero;stroke:none"
         d="M 0,0 C 0,2.07 -1.681,3.75 -3.75,3.75 -5.82,3.75 -7.5,2.07 -7.5,0 c 0,-2.07 1.68,-3.75 3.75,-3.75 C -1.681,-3.75 0,-2.07 0,0" /></g><g
       transform="translate(158.217,66.022)"
       id="g192"><path
         id="path194"
         style="fill:none;stroke:#231f20;stroke-width:0.75;stroke-linecap:square;stroke-linejoin:miter;stroke-miterlimit:10;stroke-dasharray:none;stroke-opacity:1"
         d="M 0,0 C 0,2.07 -1.681,3.75 -3.75,3.75 -5.82,3.75 -7.5,2.07 -7.5,0 c 0,-2.07 1.68,-3.75 3.75,-3.75 C -1.681,-3.75 0,-2.07 0,0" /></g><g
       transform="translate(167.217,150.441)"
       id="g196"><path
         id="path198"
         style="fill:#ffffff;fill-opacity:1;fill-rule:nonzero;stroke:none"
         d="M 0,0 C 0,2.07 -1.681,3.75 -3.75,3.75 -5.82,3.75 -7.5,2.07 -7.5,0 c 0,-2.069 1.68,-3.75 3.75,-3.75 C -1.681,-3.75 0,-2.069 0,0" /></g><g
       transform="translate(167.217,150.441)"
       id="g200"><path
         id="path202"
         style="fill:none;stroke:#231f20;stroke-width:0.75;stroke-linecap:square;stroke-linejoin:miter;stroke-miterlimit:10;stroke-dasharray:none;stroke-opacity:1"
         d="M 0,0 C 0,2.07 -1.681,3.75 -3.75,3.75 -5.82,3.75 -7.5,2.07 -7.5,0 c 0,-2.069 1.68,-3.75 3.75,-3.75 C -1.681,-3.75 0,-2.069 0,0" /></g><g
       transform="translate(236.156,276.081)"
       id="g204"><path
         id="path206"
         style="fill:#ffffff;fill-opacity:1;fill-rule:nonzero;stroke:none"
         d="M 0,0 C 0,2.07 -1.679,3.75 -3.75,3.75 -5.819,3.75 -7.5,2.07 -7.5,0 c 0,-2.069 1.681,-3.75 3.75,-3.75 C -1.679,-3.75 0,-2.069 0,0" /></g><g
       transform="translate(236.156,276.081)"
       id="g208"><path
         id="path210"
         style="fill:none;stroke:#231f20;stroke-width:0.75;stroke-linecap:square;stroke-linejoin:miter;stroke-miterlimit:10;stroke-dasharray:none;stroke-opacity:1"
         d="M 0,0 C 0,2.07 -1.679,3.75 -3.75,3.75 -5.819,3.75 -7.5,2.07 -7.5,0 c 0,-2.069 1.681,-3.75 3.75,-3.75 C -1.679,-3.75 0,-2.069 0,0" /></g><path
       id="path212"
       style="fill:#ffffff;fill-opacity:1;fill-rule:nonzero;stroke:none"
       d="m 121.125,256.961 h 54.75 v 15.376 h -54.75 z" /><g
       transform="translate(121.125,272.337)"
       id="g214"><path
         id="path216"
         style="fill:none;stroke:#231f20;stroke-width:0.75;stroke-linecap:square;stroke-linejoin:miter;stroke-miterlimit:10;stroke-dasharray:none;stroke-opacity:1"
         d="M 54.75,0 H 0 v -15.376 h 54.75 z" /><g
         id="g218"><path
           id="path220"
           style="fill:none;stroke:#231f20;stroke-width:0.75;stroke-linecap:square;stroke-linejoin:miter;stroke-miterlimit:10;stroke-dasharray:none;stroke-opacity:1"
           d="M 0,0 Z" /><g
           transform="translate(47.25,-15.375)"
           id="g222"><path
             id="path224"
             style="fill:none;stroke:#231f20;stroke-width:0.75;stroke-linecap:square;stroke-linejoin:miter;stroke-miterlimit:10;stroke-dasharray:none;stroke-opacity:1"
             d="M 0,0 V 15.375" /></g></g></g><text
       id="text228"
       style="font-variant:normal;font-weight:normal;font-stretch:normal;font-size:9px;font-family:Times;-inkscape-font-specification:Times-Roman;writing-mode:lr-tb;fill:#231f20;fill-opacity:1;fill-rule:nonzero;stroke:none"
       transform="matrix(1,0,0,-1,132.9961,262.3228)"><tspan
         id="tspan226"
         y="0"
         x="0 5.0040002 7.506 10.503 13.005 17.504999 22.004999">String</tspan></text>
<path
       id="path230"
       style="fill:#ffffff;fill-opacity:1;fill-rule:nonzero;stroke:none"
       d="m 67.5,154.212 h 54.75 v 15.375 H 67.5 Z" /><g
       transform="translate(67.5,169.587)"
       id="g232"><path
         id="path234"
         style="fill:none;stroke:#231f20;stroke-width:0.75;stroke-linecap:square;stroke-linejoin:miter;stroke-miterlimit:10;stroke-dasharray:none;stroke-opacity:1"
         d="M 54.75,0 H 0 v -15.375 h 54.75 z" /><g
         id="g236"><path
           id="path238"
           style="fill:none;stroke:#231f20;stroke-width:0.75;stroke-linecap:square;stroke-linejoin:miter;stroke-miterlimit:10;stroke-dasharray:none;stroke-opacity:1"
           d="M 0,0 Z" /><g
           transform="translate(47.25,-15.375)"
           id="g240"><path
             id="path242"
             style="fill:none;stroke:#231f20;stroke-width:0.75;stroke-linecap:square;stroke-linejoin:miter;stroke-miterlimit:10;stroke-dasharray:none;stroke-opacity:1"
             d="M 0,0 V 15.375" /></g></g></g><text
       id="text246"
       style="font-variant:normal;font-weight:normal;font-stretch:normal;font-size:9px;font-family:Times;-inkscape-font-specification:Times-Roman;writing-mode:lr-tb;fill:#231f20;fill-opacity:1;fill-rule:nonzero;stroke:none"
       transform="matrix(1,0,0,-1,79.3711,159.5723)"><tspan
         id="tspan244"
         y="0"
         x="0 5.0040002 7.506 10.503 13.005 17.504999 22.004999">String</tspan></text>
<path
       id="path248"
       style="fill:#ffffff;fill-opacity:1;fill-rule:nonzero;stroke:none"
       d="m 63,46.875 h 54.75 V 62.25 H 63 Z" /><g
       transform="translate(63,62.25)"
       id="g250"><path
         id="path252"
         style="fill:none;stroke:#231f20;stroke-width:0.75;stroke-linecap:square;stroke-linejoin:miter;stroke-miterlimit:10;stroke-dasharray:none;stroke-opacity:1"
         d="M 54.75,0 H 0 v -15.375 h 54.75 z" /><g
         id="g254"><path
           id="path256"
           style="fill:none;stroke:#231f20;stroke-width:0.75;stroke-linecap:square;stroke-linejoin:miter;stroke-miterlimit:10;stroke-dasharray:none;stroke-opacity:1"
           d="M 0,0 Z" /><g
           transform="translate(47.25,-15.375)"
           id="g258"><path
             id="path260"
             style="fill:none;stroke:#231f20;stroke-width:0.75;stroke-linecap:square;stroke-linejoin:miter;stroke-miterlimit:10;stroke-dasharray:none;stroke-opacity:1"
             d="M 0,0 V 15.375" /></g></g></g><text
       id="text264"
       style="font-variant:normal;font-weight:normal;font-stretch:normal;font-size:9px;font-family:Times;-inkscape-font-specification:Times-Roman;writing-mode:lr-tb;fill:#231f20;fill-opacity:1;fill-rule:nonzero;stroke:none"
       transform="matrix(1,0,0,-1,74.8711,52.2364)"><tspan
         id="tspan262"
         y="0"
         x="0 5.0040002 7.506 10.503 13.005 17.504999 22.004999">String</tspan></text>
<path
       id="path266"
       style="fill:#ffffff;fill-opacity:1;fill-rule:nonzero;stroke:none"
       d="m 198.375,256.961 h 51 v 15.376 h -51 z" /><path
       id="path268"
       style="fill:none;stroke:#231f20;stroke-width:0.75;stroke-linecap:square;stroke-linejoin:miter;stroke-miterlimit:10;stroke-dasharray:3.75, 3.75;stroke-dashoffset:0;stroke-opacity:1"
       d="m 198.375,272.337 v -15.376 h 51 v 15.376 z" /><text
       id="text272"
       style="font-variant:normal;font-weight:normal;font-stretch:normal;font-size:9px;font-family:Times;-inkscape-font-specification:Times-Roman;writing-mode:lr-tb;fill:#231f20;fill-opacity:1;fill-rule:nonzero;stroke:none"
       transform="matrix(1,0,0,-1,206.8702,261.441)"><tspan
         id="tspan270"
         y="0"
         x="0 2.5020001 7.0019999 10.998 15.498 18 20.502001 23.319 25.820999 29.816999 32.813999">identifier</tspan></text>
<path
       id="path274"
       style="fill:#ffffff;fill-opacity:1;fill-rule:nonzero;stroke:none"
       d="m 144.75,154.212 h 33.75 v 15.375 h -33.75 z" /><path
       id="path276"
       style="fill:none;stroke:#231f20;stroke-width:0.75;stroke-linecap:square;stroke-linejoin:miter;stroke-miterlimit:10;stroke-dasharray:3.75, 3.75;stroke-dashoffset:0;stroke-opacity:1"
       d="m 144.75,169.587 v -15.375 h 33.75 v 15.375 z" /><text
       id="text280"
       style="font-variant:normal;font-weight:normal;font-stretch:normal;font-size:9px;font-family:Times;-inkscape-font-specification:Times-Roman;writing-mode:lr-tb;fill:#231f20;fill-opacity:1;fill-rule:nonzero;stroke:none"
       transform="matrix(1,0,0,-1,152.1211,158.7364)"><tspan
         id="tspan278"
         y="0"
         x="0 2.5020001 6.4980001 10.998 14.994 17.496">label</tspan></text>
<path
       id="path282"
       style="fill:#ffffff;fill-opacity:1;fill-rule:nonzero;stroke:none"
       d="m 140.25,46.875 h 28.5 V 62.25 h -28.5 z" /><path
       id="path284"
       style="fill:none;stroke:#231f20;stroke-width:0.75;stroke-linecap:square;stroke-linejoin:miter;stroke-miterlimit:10;stroke-dasharray:3.75, 3.75;stroke-dashoffset:0;stroke-opacity:1"
       d="M 140.25,62.25 V 46.875 h 28.5 V 62.25 Z" /><text
       id="text288"
       style="font-variant:normal;font-weight:normal;font-stretch:normal;font-size:9px;font-family:Times;-inkscape-font-specification:Times-Roman;writing-mode:lr-tb;fill:#231f20;fill-opacity:1;fill-rule:nonzero;stroke:none"
       transform="matrix(1,0,0,-1,147.2461,51.6192)"><tspan
         id="tspan286"
         y="0"
         x="0 2.5020001 6.3629999 10.863 13.365">text</tspan></text>
</g></svg>