<?xml version="1.0" encoding="UTF-8" standalone="no"?>
<svg
   xmlns:dc="http://purl.org/dc/elements/1.1/"
   xmlns:cc="http://creativecommons.org/ns#"
   xmlns:rdf="http://www.w3.org/1999/02/22-rdf-syntax-ns#"
   xmlns:svg="http://www.w3.org/2000/svg"
   xmlns="http://www.w3.org/2000/svg"
   viewBox="0 0 434.17868 403.07068"
   height="403.07068"
   width="434.17868"
   xml:space="preserve"
   id="svg2"
   version="1.1"><metadata
     id="metadata8"><rdf:RDF><cc:Work
         rdf:about=""><dc:format>image/svg+xml</dc:format><dc:type
           rdf:resource="http://purl.org/dc/dcmitype/StillImage" /></cc:Work></rdf:RDF></metadata><defs
     id="defs6"><clipPath
       id="clipPath220"
       clipPathUnits="userSpaceOnUse"><path
         id="path218"
         d="m 220.193,243.482 h -116.96 v -13.94 h 116.96 z" /></clipPath><clipPath
       id="clipPath276"
       clipPathUnits="userSpaceOnUse"><path
         id="path274"
         d="m 68.34,274.422 h -68 v -15.64 h 68 z" /></clipPath><clipPath
       id="clipPath344"
       clipPathUnits="userSpaceOnUse"><path
         id="path342"
         d="m 135.575,140.93 h -79.56 v -17 h 79.56 z" /></clipPath></defs><g
     transform="matrix(1.3333333,0,0,-1.3333333,0,403.07067)"
     id="g10"><g
       transform="translate(8.7554,74.587)"
       id="g12"><path
         id="path14"
         style="fill:none;stroke:#231f20;stroke-width:2.03999996;stroke-linecap:square;stroke-linejoin:miter;stroke-miterlimit:10;stroke-dasharray:none;stroke-opacity:1"
         d="M 0,0 V 156.57" /><g
         transform="translate(0,128.775)"
         id="g16"><path
           id="path18"
           style="fill:none;stroke:#231f20;stroke-width:2.03999996;stroke-linecap:square;stroke-linejoin:miter;stroke-miterlimit:10;stroke-dasharray:none;stroke-opacity:1"
           d="M 0,0 V 27.795" /><g
           transform="translate(0,-42.713)"
           id="g20"><path
             id="path22"
             style="fill:none;stroke:#231f20;stroke-width:2.03999996;stroke-linecap:square;stroke-linejoin:miter;stroke-miterlimit:10;stroke-dasharray:none;stroke-opacity:1"
             d="M 0,0 V 70.508" /><g
             transform="translate(30.897,-49.342)"
             id="g24"><path
               id="path26"
               style="fill:none;stroke:#231f20;stroke-width:2.03999996;stroke-linecap:square;stroke-linejoin:miter;stroke-miterlimit:10;stroke-dasharray:none;stroke-opacity:1"
               d="M 0,0 V 24.097" /><g
               transform="translate(0,22.346)"
               id="g28"><path
                 id="path30"
                 style="fill:none;stroke:#231f20;stroke-width:2.03999996;stroke-linecap:square;stroke-linejoin:miter;stroke-miterlimit:10;stroke-dasharray:none;stroke-opacity:1"
                 d="M 0,0 V 1.751" /></g></g></g></g></g><g
       transform="translate(65.976,237.15)"
       id="g32"><path
         id="path34"
         style="fill:none;stroke:#231f20;stroke-width:0.68000001;stroke-linecap:square;stroke-linejoin:miter;stroke-miterlimit:10;stroke-dasharray:none;stroke-opacity:1"
         d="M 0,0 V -8.755" /><g
         transform="translate(-36.056,50.872)"
         id="g36"><path
           id="path38"
           style="fill:none;stroke:#231f20;stroke-width:0.68000001;stroke-linecap:square;stroke-linejoin:miter;stroke-miterlimit:10;stroke-dasharray:none;stroke-opacity:1"
           d="M 0,0 V -6.8" /><g
           transform="translate(99.067,-73.397)"
           id="g40"><path
             id="path42"
             style="fill:none;stroke:#231f20;stroke-width:0.68000001;stroke-linecap:square;stroke-linejoin:miter;stroke-miterlimit:10;stroke-dasharray:none;stroke-opacity:1"
             d="M 0,0 H -46.92" /><g
             transform="translate(10.539,-21.419)"
             id="g44"><path
               id="path46"
               style="fill:none;stroke:#231f20;stroke-width:0.68000001;stroke-linecap:square;stroke-linejoin:miter;stroke-miterlimit:10;stroke-dasharray:none;stroke-opacity:1"
               d="M 0,0 H -57.459" /></g></g></g></g><path
       id="path48"
       style="fill:none;stroke:#231f20;stroke-width:0.68000001;stroke-linecap:square;stroke-linejoin:miter;stroke-miterlimit:10;stroke-dasharray:3.4, 3.4;stroke-dashoffset:0;stroke-opacity:1"
       d="M 122.74,267.453 H 68.34" /><g
       transform="translate(143.48,160.225)"
       id="g50"><path
         id="path52"
         style="fill:none;stroke:#231f20;stroke-width:0.68000001;stroke-linecap:square;stroke-linejoin:miter;stroke-miterlimit:10;stroke-dasharray:none;stroke-opacity:1"
         d="M 0,0 H -19.72" /><g
         transform="translate(54.655,-26.265)"
         id="g54"><path
           id="path56"
           style="fill:none;stroke:#231f20;stroke-width:0.68000001;stroke-linecap:square;stroke-linejoin:miter;stroke-miterlimit:10;stroke-dasharray:none;stroke-opacity:1"
           d="M 0,0 H -62.56" /></g></g><g
       transform="translate(8.8398,244.97)"
       id="g58"><path
         id="path60"
         style="fill:none;stroke:#231f20;stroke-width:2.03999996;stroke-linecap:square;stroke-linejoin:miter;stroke-miterlimit:10;stroke-dasharray:none;stroke-opacity:1"
         d="M 0,0 V 13.812" /><g
         transform="translate(30.361,-101.49)"
         id="g62"><path
           id="path64"
           style="fill:none;stroke:#231f20;stroke-width:2.03999996;stroke-linecap:square;stroke-linejoin:miter;stroke-miterlimit:10;stroke-dasharray:none;stroke-opacity:1"
           d="M 0,0 V 8.075" /></g></g><g
       transform="translate(139.527,193.205)"
       id="g66"><path
         id="path68"
         style="fill:none;stroke:#231f20;stroke-width:0.68000001;stroke-linecap:square;stroke-linejoin:miter;stroke-miterlimit:10;stroke-dasharray:none;stroke-opacity:1"
         d="M 0,0 H 57.46" /><g
         transform="translate(3.953,-32.98)"
         id="g70"><path
           id="path72"
           style="fill:none;stroke:#231f20;stroke-width:0.68000001;stroke-linecap:square;stroke-linejoin:miter;stroke-miterlimit:10;stroke-dasharray:none;stroke-opacity:1"
           d="M 0,0 H 19.72" /><g
           transform="translate(-40.248,76.925)"
           id="g74"><path
             id="path76"
             style="fill:none;stroke:#231f20;stroke-width:0.68000001;stroke-linecap:square;stroke-linejoin:miter;stroke-miterlimit:10;stroke-dasharray:none;stroke-opacity:1"
             d="M 0,0 H -37.257" /><g
             transform="translate(36.294,-43.945)"
             id="g78"><path
               id="path80"
               style="fill:none;stroke:#231f20;stroke-width:0.68000001;stroke-linecap:square;stroke-linejoin:miter;stroke-miterlimit:10;stroke-dasharray:none;stroke-opacity:1"
               d="M 0,0 V 0" /><g
               transform="translate(3.953,-32.98)"
               id="g82"><path
                 id="path84"
                 style="fill:none;stroke:#231f20;stroke-width:0.68000001;stroke-linecap:square;stroke-linejoin:miter;stroke-miterlimit:10;stroke-dasharray:none;stroke-opacity:1"
                 d="M 0,0 V 0" /></g></g></g></g></g><g
       transform="translate(19.89,74.587)"
       id="g86"><path
         id="path88"
         style="fill:none;stroke:#231f20;stroke-width:2.03999996;stroke-linecap:square;stroke-linejoin:miter;stroke-miterlimit:10;stroke-dasharray:none;stroke-opacity:1"
         d="M 0,0 H -11.135" /><g
         transform="translate(3.018,128.775)"
         id="g90"><path
           id="path92"
           style="fill:none;stroke:#231f20;stroke-width:2.03999996;stroke-linecap:square;stroke-linejoin:miter;stroke-miterlimit:10;stroke-dasharray:none;stroke-opacity:1"
           d="M 0,0 H -14.152" /><g
           transform="translate(-1.827,-42.713)"
           id="g94"><path
             id="path96"
             style="fill:none;stroke:#231f20;stroke-width:2.03999996;stroke-linecap:square;stroke-linejoin:miter;stroke-miterlimit:10;stroke-dasharray:none;stroke-opacity:1"
             d="M 0,0 H -12.325" /><g
             transform="translate(-12.325,84.32)"
             id="g98"><path
               id="path100"
               style="fill:none;stroke:#231f20;stroke-width:2.03999996;stroke-linecap:square;stroke-linejoin:miter;stroke-miterlimit:10;stroke-dasharray:none;stroke-opacity:1"
               d="M 0,0 H 0.0844" /><g
               transform="translate(0,-13.812)"
               id="g102"><path
                 id="path104"
                 style="fill:none;stroke:#231f20;stroke-width:2.03999996;stroke-linecap:square;stroke-linejoin:miter;stroke-miterlimit:10;stroke-dasharray:none;stroke-opacity:1"
                 d="M 0,0 V 13.812" /><g
                 transform="translate(40.375,-119.85)"
                 id="g106"><path
                   id="path108"
                   style="fill:none;stroke:#231f20;stroke-width:2.03999996;stroke-linecap:square;stroke-linejoin:miter;stroke-miterlimit:10;stroke-dasharray:none;stroke-opacity:1"
                   d="M 0,0 H -9.478" /><g
                   transform="translate(0.084,22.346)"
                   id="g110"><path
                     id="path112"
                     style="fill:none;stroke:#231f20;stroke-width:2.03999996;stroke-linecap:square;stroke-linejoin:miter;stroke-miterlimit:10;stroke-dasharray:none;stroke-opacity:1"
                     d="M 0,0 H -9.563" /><g
                     transform="translate(-9.563,9.826)"
                     id="g114"><path
                       id="path116"
                       style="fill:none;stroke:#231f20;stroke-width:2.03999996;stroke-linecap:square;stroke-linejoin:miter;stroke-miterlimit:10;stroke-dasharray:none;stroke-opacity:1"
                       d="M 0,0 H -0.451" /><g
                       transform="translate(0,-8.075)"
                       id="g118"><path
                         id="path120"
                         style="fill:none;stroke:#231f20;stroke-width:2.03999996;stroke-linecap:square;stroke-linejoin:miter;stroke-miterlimit:10;stroke-dasharray:none;stroke-opacity:1"
                         d="M 0,0 V 8.075" /></g></g></g></g></g></g></g></g></g><g
       transform="translate(132.43,28.73)"
       id="g122"><path
         id="path124"
         style="fill:none;stroke:#231f20;stroke-width:0.68000001;stroke-linecap:square;stroke-linejoin:miter;stroke-miterlimit:10;stroke-dasharray:none;stroke-opacity:1"
         d="M 0,0 H -20.4" /><g
         transform="translate(-26.86,-21.42)"
         id="g126"><path
           id="path128"
           style="fill:none;stroke:#231f20;stroke-width:0.68000001;stroke-linecap:square;stroke-linejoin:miter;stroke-miterlimit:10;stroke-dasharray:none;stroke-opacity:1"
           d="M 0,0 H 26.86" /><g
           transform="translate(-26.86)"
           id="g130"><path
             id="path132"
             style="fill:none;stroke:#231f20;stroke-width:0.68000001;stroke-linecap:square;stroke-linejoin:miter;stroke-miterlimit:10;stroke-dasharray:none;stroke-opacity:1"
             d="M 0,0 H 26.86 V 0" /><g
             transform="translate(129.2,21.42)"
             id="g134"><path
               id="path136"
               style="fill:none;stroke:#231f20;stroke-width:0.68000001;stroke-linecap:square;stroke-linejoin:miter;stroke-miterlimit:10;stroke-dasharray:none;stroke-opacity:1"
               d="M 0,0 H 20.4" /><g
               transform="translate(-12.623,21.674)"
               id="g138"><path
                 id="path140"
                 style="fill:none;stroke:#231f20;stroke-width:0.68000001;stroke-linecap:square;stroke-linejoin:miter;stroke-miterlimit:10;stroke-dasharray:none;stroke-opacity:1"
                 d="M 0,0 H 41.184" /><g
                 transform="translate(0,-7.904)"
                 id="g142"><path
                   id="path144"
                   style="fill:none;stroke:#231f20;stroke-width:0.68000001;stroke-linecap:square;stroke-linejoin:miter;stroke-miterlimit:10;stroke-dasharray:none;stroke-opacity:1"
                   d="M 0,0 V 7.904" /><g
                   transform="translate(41.184,7.904)"
                   id="g146"><path
                     id="path148"
                     style="fill:none;stroke:#231f20;stroke-width:0.68000001;stroke-linecap:square;stroke-linejoin:miter;stroke-miterlimit:10;stroke-dasharray:none;stroke-opacity:1"
                     d="M 0,0 V 11.306" /><g
                     transform="translate(-73.697,-7.904)"
                     id="g150"><path
                       id="path152"
                       style="fill:none;stroke:#231f20;stroke-width:0.68000001;stroke-linecap:square;stroke-linejoin:miter;stroke-miterlimit:10;stroke-dasharray:none;stroke-opacity:1"
                       d="M 0,0 V 33.15 H -79.643" /></g></g></g></g></g></g></g></g><path
       id="path154"
       style="fill:#ffffff;fill-opacity:1;fill-rule:nonzero;stroke:none"
       d="m 128.988,207.655 h 148.92 v 13.94 h -148.92 z" /><g
       transform="translate(135.958,221.595)"
       id="g156"><path
         id="path158"
         style="fill:none;stroke:#231f20;stroke-width:0.68000001;stroke-linecap:square;stroke-linejoin:miter;stroke-miterlimit:10;stroke-dasharray:none;stroke-opacity:1"
         d="m 0,0 h 134.979 c 3.848,0 6.971,-3.123 6.971,-6.97 0,-3.848 -3.123,-6.97 -6.971,-6.97 H 0 c -3.847,0 -6.97,3.122 -6.97,6.97 C -6.97,-3.123 -3.847,0 0,0 Z" /></g><text
       id="text162"
       style="font-variant:normal;font-weight:normal;font-stretch:normal;font-size:9px;font-family:Times;-inkscape-font-specification:Times-Roman;writing-mode:lr-tb;fill:#231f20;fill-opacity:1;fill-rule:nonzero;stroke:none"
       transform="matrix(1,0,0,-1,136.9971,212.5932)"><tspan
         id="tspan160"
         y="0"
         x="0 4.5 9 11.25 13.5 18 22.5 27 29.25 31.5 34.001999 38.501999 41.004002 45 47.997002 51.993 56.493 60.488998 64.485001 68.985001 73.485001 75.987 79.983002 84.483002 88.983002 91.485001 95.985001 100.485 107.487 111.483 115.479 118.98 123.48 126.477 130.47301">45, 123, toleranced_length_measure</tspan></text>
<path
       id="path164"
       style="fill:#ffffff;fill-opacity:1;fill-rule:nonzero;stroke:none"
       d="m 196.988,186.235 h 80.92 v 13.941 h -80.92 z" /><g
       transform="translate(203.958,200.175)"
       id="g166"><path
         id="path168"
         style="fill:none;stroke:#231f20;stroke-width:0.68000001;stroke-linecap:square;stroke-linejoin:miter;stroke-miterlimit:10;stroke-dasharray:none;stroke-opacity:1"
         d="m 0,0 h 66.979 v -0.001 c 3.848,0 6.971,-3.122 6.971,-6.969 0,-3.847 -3.123,-6.971 -6.971,-6.971 H 0 c -3.847,0 -6.97,3.124 -6.97,6.971 0,3.847 3.123,6.969 6.97,6.969 z" /></g><text
       id="text172"
       style="font-variant:normal;font-weight:normal;font-stretch:normal;font-size:9px;font-family:Times;-inkscape-font-specification:Times-Roman;writing-mode:lr-tb;fill:#231f20;fill-opacity:1;fill-rule:nonzero;stroke:none"
       transform="matrix(1,0,0,-1,206.1499,190.8755)"><tspan
         id="tspan170"
         y="0"
         x="0 4.5 9 11.25 13.5 18 22.5 27 29.25 31.5 36 38.501999 41.499001 45.494999 49.491001 51.993 54.494999 58.994999 63.494999">47, 122, direction</tspan></text>
<path
       id="path174"
       style="fill:#ffffff;fill-opacity:1;fill-rule:nonzero;stroke:none"
       d="m 122.74,260.482 h 122.4 v 13.94 h -122.4 z" /><g
       transform="translate(129.71,274.422)"
       id="g176"><path
         id="path178"
         style="fill:none;stroke:#231f20;stroke-width:0.68000001;stroke-linecap:square;stroke-linejoin:miter;stroke-miterlimit:10;stroke-dasharray:none;stroke-opacity:1"
         d="m 0,0 h 108.46 c 3.847,0 6.97,-3.122 6.97,-6.97 0,-3.847 -3.123,-6.97 -6.97,-6.97 H 0 c -3.847,0 -6.97,3.123 -6.97,6.97 C -6.97,-3.122 -3.847,0 0,0 Z" /></g><text
       id="text182"
       style="font-variant:normal;font-weight:normal;font-stretch:normal;font-size:9px;font-family:Times;-inkscape-font-specification:Times-Roman;writing-mode:lr-tb;fill:#231f20;fill-opacity:1;fill-rule:nonzero;stroke:none"
       transform="matrix(1,0,0,-1,132.9116,265.3677)"><tspan
         id="tspan180"
         y="0"
         x="0 4.5 9 11.25 13.5 18 22.5 24.75 27 30.996 35.495998 37.998001 41.499001 45.999001 50.499001 54.999001 57.500999 61.497002 65.492996 69.488998 76.490997 80.487 84.987 87.488998 91.988998 96.488998 100.989">47, 42, axis2_placement_3d</tspan></text>
<path
       id="path184"
       style="fill:#ffffff;fill-opacity:1;fill-rule:nonzero;stroke:none"
       d="m 163.2,153.255 h 148.92 v 13.941 H 163.2 Z" /><g
       transform="translate(170.17,167.196)"
       id="g186"><path
         id="path188"
         style="fill:none;stroke:#231f20;stroke-width:0.68000001;stroke-linecap:square;stroke-linejoin:miter;stroke-miterlimit:10;stroke-dasharray:none;stroke-opacity:1"
         d="m 0,0 h 134.979 c 3.848,0 6.971,-3.123 6.971,-6.971 0,-3.846 -3.123,-6.97 -6.971,-6.97 L 0,-13.941 c -3.848,0 -6.97,3.124 -6.97,6.97 C -6.97,-3.123 -3.848,0 0,0 Z" /></g><text
       id="text192"
       style="font-variant:normal;font-weight:normal;font-stretch:normal;font-size:9px;font-family:Times;-inkscape-font-specification:Times-Roman;writing-mode:lr-tb;fill:#231f20;fill-opacity:1;fill-rule:nonzero;stroke:none"
       transform="matrix(1,0,0,-1,171.2095,158.1928)"><tspan
         id="tspan190"
         y="0"
         x="0 4.5 9 11.25 13.5 18 22.5 27 29.25 31.5 34.001999 38.501999 41.004002 45 47.997002 51.993 56.493 60.488998 64.485001 68.985001 73.485001 75.987 79.983002 84.483002 88.983002 91.485001 95.985001 100.485 107.487 111.483 115.479 118.98 123.48 126.477 130.47301">45, 123, toleranced_length_measure</tspan></text>
<path
       id="path194"
       style="fill:#ffffff;fill-opacity:1;fill-rule:nonzero;stroke:none"
       d="m 198.135,126.99 h 127.159 v 13.941 H 198.135 Z" /><g
       transform="translate(205.105,140.93)"
       id="g196"><path
         id="path198"
         style="fill:none;stroke:#231f20;stroke-width:0.68000001;stroke-linecap:square;stroke-linejoin:miter;stroke-miterlimit:10;stroke-dasharray:none;stroke-opacity:1"
         d="m 0,0 h 113.221 c 3.847,0 6.968,-3.123 6.968,-6.97 0,-3.847 -3.121,-6.971 -6.968,-6.971 L 0,-13.941 c -3.848,0 -6.97,3.124 -6.97,6.971 C -6.97,-3.123 -3.848,0 0,0 Z" /></g><text
       id="text202"
       style="font-variant:normal;font-weight:normal;font-stretch:normal;font-size:9px;font-family:Times;-inkscape-font-specification:Times-Roman;writing-mode:lr-tb;fill:#231f20;fill-opacity:1;fill-rule:nonzero;stroke:none"
       transform="matrix(1,0,0,-1,205.4683,131.9282)"><tspan
         id="tspan200"
         y="0"
         x="0 4.5 9 11.25 13.5 18 22.5 27 29.25 31.5 36 38.501999 42.498001 46.998001 50.993999 55.493999 59.490002 63.990002 68.489998 70.991997 74.987999 79.487999 86.489998 90.486 94.482002 97.983002 102.483 105.48 109.476">45, 140, plane_angle_measure</tspan></text>
<path
       id="path204"
       style="fill:#ffffff;fill-opacity:1;fill-rule:nonzero;stroke:none"
       d="m 103.233,229.543 h 116.96 v 13.94 h -116.96 z" /><g
       transform="translate(110.203,243.482)"
       id="g206"><path
         id="path208"
         style="fill:none;stroke:#231f20;stroke-width:0.68000001;stroke-linecap:square;stroke-linejoin:miter;stroke-miterlimit:10;stroke-dasharray:none;stroke-opacity:1"
         d="m 0,0 h 103.02 c 3.847,0 6.97,-3.122 6.97,-6.97 0,-3.847 -3.123,-6.97 -6.97,-6.97 H 0 c -3.848,0 -6.97,3.123 -6.97,6.97 C -6.97,-3.122 -3.848,0 0,0 Z" /></g><text
       id="text212"
       style="font-variant:normal;font-weight:normal;font-stretch:normal;font-size:9px;font-family:Times;-inkscape-font-specification:Times-Roman;writing-mode:lr-tb;fill:#231f20;fill-opacity:1;fill-rule:nonzero;stroke:none"
       transform="matrix(1,0,0,-1,103.2329,234.3667)"><tspan
         id="tspan210"
         y="0"
         x="0 4.5 9 11.25 13.5 18 22.5 27 29.25 32.247002 36.747002 41.247002 43.497002 45.747002 50.247002 54.747002 56.997002 59.247002 63.747002 68.247002 70.497002 72.747002 77.247002 81.747002 83.997002 86.247002 90.747002 95.247002 97.497002 99.747002 104.247 108.747 110.997">33, 125 (27, 27, 27, 26, 28, 26, </tspan></text>
<g
       id="g214"><g
         clip-path="url(#clipPath220)"
         id="g216"><text
           id="text224"
           style="font-variant:normal;font-weight:normal;font-stretch:normal;font-size:9px;font-family:Times;-inkscape-font-specification:Times-Roman;writing-mode:lr-tb;fill:#231f20;fill-opacity:1;fill-rule:nonzero;stroke:none"
           transform="matrix(1,0,0,-1,216.48,234.3667)"><tspan
             id="tspan222"
             y="0"
             x="0">2</tspan></text>
</g></g><path
       id="path226"
       style="fill:#ffffff;fill-opacity:1;fill-rule:nonzero;stroke:none"
       d="m 0.3398,288.022 h 59.16 v 13.941 h -59.16 z" /><g
       transform="translate(7.31,301.963)"
       id="g228"><path
         id="path230"
         style="fill:none;stroke:#231f20;stroke-width:0.68000001;stroke-linecap:square;stroke-linejoin:miter;stroke-miterlimit:10;stroke-dasharray:none;stroke-opacity:1"
         d="m 0,0 h 45.22 c 3.848,0 6.97,-3.123 6.97,-6.97 0,-3.848 -3.122,-6.971 -6.97,-6.971 H 0 c -3.8471,0 -6.9702,3.123 -6.9702,6.971 C -6.9702,-3.123 -3.8471,0 0,0 Z" /></g><text
       id="text240"
       style="font-variant:normal;font-weight:normal;font-stretch:normal;font-size:9px;font-family:Times;-inkscape-font-specification:Times-Roman;writing-mode:lr-tb;fill:#231f20;fill-opacity:1;fill-rule:nonzero;stroke:none"
       transform="matrix(1,0,0,-1,7.9209,292.8467)"><tspan
         id="tspan232"
         y="0"
         x="0 4.5 9 11.25 13.5 18 22.5 27 29.25 32.247002 36.747002 41.247002 44.243999">33, 138 (28)</tspan><tspan
         id="tspan234"
         y="50.616001"
         x="7.7192998 12.2193">1</tspan><tspan
         id="tspan236"
         y="151.84261"
         x="36.080101 40.580101">1</tspan><tspan
         id="tspan238"
         y="35.352901"
         x="67.2192 71.7192 74.221199 78.217201 82.213203 86.209198 93.211197 97.207199 101.7072 104.2092">placement</tspan></text>
<path
       id="path242"
       style="fill:#ffffff;fill-opacity:1;fill-rule:nonzero;stroke:none"
       d="m 29.707,186.235 h 52.36 v 35.36 h -52.36 z" /><g
       transform="translate(29.707,221.595)"
       id="g244"><path
         id="path246"
         style="fill:none;stroke:#231f20;stroke-width:0.68000001;stroke-linecap:square;stroke-linejoin:miter;stroke-miterlimit:10;stroke-dasharray:none;stroke-opacity:1"
         d="M 52.36,0 H 0 v -35.36 h 52.36 z" /><g
         id="g248"><path
           id="path250"
           style="fill:none;stroke:#231f20;stroke-width:0.68000001;stroke-linecap:square;stroke-linejoin:miter;stroke-miterlimit:10;stroke-dasharray:none;stroke-opacity:1"
           d="M 0,0 Z" /></g></g><text
       id="text254"
       style="font-variant:normal;font-weight:normal;font-stretch:normal;font-size:9px;font-family:Times;-inkscape-font-specification:Times-Roman;writing-mode:lr-tb;fill:#231f20;fill-opacity:1;fill-rule:nonzero;stroke:none"
       transform="matrix(1,0,0,-1,35.7041,201.8301)"><tspan
         id="tspan252"
         y="0"
         x="0 2.5020001 5.0040002 9.5039997 13.5 17.496 20.493 24.993 29.493 33.488998 35.991001 40.491001">linear_path</tspan></text>
<path
       id="path256"
       style="fill:#ffffff;fill-opacity:1;fill-rule:nonzero;stroke:none"
       d="m 0.3398,258.783 h 68 v 15.64 h -68 z" /><g
       transform="translate(0.3398,274.422)"
       id="g258"><path
         id="path260"
         style="fill:none;stroke:#231f20;stroke-width:0.68000001;stroke-linecap:square;stroke-linejoin:miter;stroke-miterlimit:10;stroke-dasharray:none;stroke-opacity:1"
         d="M 68,0 H 0 v -15.64 h 68 z" /><g
         id="g262"><path
           id="path264"
           style="fill:none;stroke:#231f20;stroke-width:0.68000001;stroke-linecap:square;stroke-linejoin:miter;stroke-miterlimit:10;stroke-dasharray:none;stroke-opacity:1"
           d="M 0,0 Z" /></g></g><text
       id="text268"
       style="font-variant:normal;font-weight:normal;font-stretch:normal;font-size:9px;font-family:Times;-inkscape-font-specification:Times-Roman;writing-mode:lr-tb;fill:#231f20;fill-opacity:1;fill-rule:nonzero;stroke:none"
       transform="matrix(1,0,0,-1,3.2754,264.4404)"><tspan
         id="tspan266"
         y="0"
         x="0 2.997 9.4949999 15.498 20.502001 23.499001 26.000999 28.997999 32.813999 37.179001 41.174999 43.676998 48.176998 52.676998 56.673 59.174999">(ABS)travel_path</tspan></text>
<g
       id="g270"><g
         clip-path="url(#clipPath276)"
         id="g272"><text
           id="text280"
           style="font-variant:normal;font-weight:normal;font-stretch:normal;font-size:9px;font-family:Times;-inkscape-font-specification:Times-Roman;writing-mode:lr-tb;fill:#231f20;fill-opacity:1;fill-rule:nonzero;stroke:none"
           transform="matrix(1,0,0,-1,66.9448,264.4404)"><tspan
             id="tspan278"
             y="0"
             x="0"></tspan></text>
</g></g><path
       id="path282"
       style="fill:#ffffff;fill-opacity:1;fill-rule:nonzero;stroke:none"
       d="M 26.69,66.98 H 83.131 V 82.621 H 26.69 Z" /><g
       transform="translate(26.69,82.621)"
       id="g284"><path
         id="path286"
         style="fill:none;stroke:#231f20;stroke-width:0.68000001;stroke-linecap:square;stroke-linejoin:miter;stroke-miterlimit:10;stroke-dasharray:none;stroke-opacity:1"
         d="M 56.441,0 H 0 v -15.641 h 56.441 z" /><g
         id="g288"><path
           id="path290"
           style="fill:none;stroke:#231f20;stroke-width:0.68000001;stroke-linecap:square;stroke-linejoin:miter;stroke-miterlimit:10;stroke-dasharray:none;stroke-opacity:1"
           d="M 0,0 Z" /></g></g><text
       id="text294"
       style="font-variant:normal;font-weight:normal;font-stretch:normal;font-size:9px;font-family:Times;-inkscape-font-specification:Times-Roman;writing-mode:lr-tb;fill:#231f20;fill-opacity:1;fill-rule:nonzero;stroke:none"
       transform="matrix(1,0,0,-1,31.0952,72.768)"><tspan
         id="tspan292"
         y="0"
         x="0 4.5 8.4960003 12.996 16.992001 19.989 23.985001 26.487 30.987 35.487 39.483002 41.985001 46.485001">general_path</tspan></text>
<path
       id="path296"
       style="fill:#ffffff;fill-opacity:1;fill-rule:nonzero;stroke:none"
       d="m 27.88,151.555 h 95.88 v 15.641 H 27.88 Z" /><g
       transform="translate(27.88,167.196)"
       id="g298"><path
         id="path300"
         style="fill:none;stroke:#231f20;stroke-width:0.68000001;stroke-linecap:square;stroke-linejoin:miter;stroke-miterlimit:10;stroke-dasharray:none;stroke-opacity:1"
         d="M 95.88,0 H 0 v -15.641 h 95.88 z" /><g
         id="g302"><path
           id="path304"
           style="fill:none;stroke:#231f20;stroke-width:0.68000001;stroke-linecap:square;stroke-linejoin:miter;stroke-miterlimit:10;stroke-dasharray:none;stroke-opacity:1"
           d="M 0,0 Z" /></g></g><text
       id="text308"
       style="font-variant:normal;font-weight:normal;font-stretch:normal;font-size:9px;font-family:Times;-inkscape-font-specification:Times-Roman;writing-mode:lr-tb;fill:#231f20;fill-opacity:1;fill-rule:nonzero;stroke:none"
       transform="matrix(1,0,0,-1,41.5854,157.2134)"><tspan
         id="tspan306"
         y="0"
         x="0 2.997 9.4949999 15.498 20.502001 23.499001 27.495001 29.997 32.993999 36.990002 41.490002 43.992001 47.987999 50.985001 55.485001 59.985001 63.980999 66.483002 70.983002">(ABS)circular_path</tspan></text>
<path
       id="path310"
       style="fill:#ffffff;fill-opacity:1;fill-rule:nonzero;stroke:none"
       d="m 55.93,104.337 h 95.88 v 13.94 H 55.93 Z" /><g
       transform="translate(55.93,118.278)"
       id="g312"><path
         id="path314"
         style="fill:none;stroke:#231f20;stroke-width:0.68000001;stroke-linecap:square;stroke-linejoin:miter;stroke-miterlimit:10;stroke-dasharray:none;stroke-opacity:1"
         d="M 95.88,0 H 0 v -13.94 h 95.88 z" /><g
         id="g316"><path
           id="path318"
           style="fill:none;stroke:#231f20;stroke-width:0.68000001;stroke-linecap:square;stroke-linejoin:miter;stroke-miterlimit:10;stroke-dasharray:none;stroke-opacity:1"
           d="M 0,0 Z" /></g></g><text
       id="text322"
       style="font-variant:normal;font-weight:normal;font-stretch:normal;font-size:9px;font-family:Times;-inkscape-font-specification:Times-Roman;writing-mode:lr-tb;fill:#231f20;fill-opacity:1;fill-rule:nonzero;stroke:none"
       transform="matrix(1,0,0,-1,61.6958,109.2231)"><tspan
         id="tspan320"
         y="0"
         x="0 3.9960001 8.4960003 15.498 19.997999 22.5 26.496 28.997999 32.993999 37.493999 41.490002 43.992001 46.988998 50.985001 55.485001 57.987 61.983002 64.980003 69.480003 73.980003 77.975998 80.477997 84.977997">complete_circular_path</tspan></text>
<path
       id="path324"
       style="fill:#ffffff;fill-opacity:1;fill-rule:nonzero;stroke:none"
       d="m 56.015,123.93 h 79.56 v 17 h -79.56 z" /><g
       transform="translate(56.015,140.93)"
       id="g326"><path
         id="path328"
         style="fill:none;stroke:#231f20;stroke-width:0.68000001;stroke-linecap:square;stroke-linejoin:miter;stroke-miterlimit:10;stroke-dasharray:none;stroke-opacity:1"
         d="M 79.56,0 H 0 v -17 h 79.56 z" /><g
         id="g330"><path
           id="path332"
           style="fill:none;stroke:#231f20;stroke-width:0.68000001;stroke-linecap:square;stroke-linejoin:miter;stroke-miterlimit:10;stroke-dasharray:none;stroke-opacity:1"
           d="M 0,0 Z" /></g></g><text
       id="text336"
       style="font-variant:normal;font-weight:normal;font-stretch:normal;font-size:9px;font-family:Times;-inkscape-font-specification:Times-Roman;writing-mode:lr-tb;fill:#231f20;fill-opacity:1;fill-rule:nonzero;stroke:none"
       transform="matrix(1,0,0,-1,59.0635,130.3452)"><tspan
         id="tspan334"
         y="0"
         x="0 4.5 8.4960003 11.493 13.995 16.497 20.493 22.995001 27.495001 31.490999 33.993 36.990002 40.986 45.486 47.987999 51.984001 54.980999 59.480999 63.980999 67.976997 70.478996">partial_circular_path</tspan></text>
<g
       id="g338"><g
         clip-path="url(#clipPath344)"
         id="g340"><text
           id="text348"
           style="font-variant:normal;font-weight:normal;font-stretch:normal;font-size:9px;font-family:Times;-inkscape-font-specification:Times-Roman;writing-mode:lr-tb;fill:#231f20;fill-opacity:1;fill-rule:nonzero;stroke:none"
           transform="matrix(1,0,0,-1,134.0254,130.3452)"><tspan
             id="tspan346"
             y="0"
             x="0"></tspan></text>
</g></g><g
       transform="translate(26.692,74.57)"
       id="g350"><path
         id="path352"
         style="fill:#ffffff;fill-opacity:1;fill-rule:nonzero;stroke:none"
         d="m 0,0 c 0,1.877 -1.523,3.399 -3.4,3.399 -1.877,0 -3.4,-1.522 -3.4,-3.399 0,-1.877 1.523,-3.4 3.4,-3.4 1.877,0 3.4,1.523 3.4,3.4" /></g><g
       transform="translate(26.692,74.57)"
       id="g354"><path
         id="path356"
         style="fill:none;stroke:#231f20;stroke-width:0.68000001;stroke-linecap:square;stroke-linejoin:miter;stroke-miterlimit:10;stroke-dasharray:none;stroke-opacity:1"
         d="m 0,0 c 0,1.877 -1.523,3.399 -3.4,3.399 -1.877,0 -3.4,-1.522 -3.4,-3.399 0,-1.877 1.523,-3.4 3.4,-3.4 1.877,0 3.4,1.523 3.4,3.4" /></g><g
       transform="translate(29.752,203.395)"
       id="g358"><path
         id="path360"
         style="fill:#ffffff;fill-opacity:1;fill-rule:nonzero;stroke:none"
         d="m 0,0 c 0,1.877 -1.523,3.4 -3.4,3.4 -1.877,0 -3.4,-1.523 -3.4,-3.4 0,-1.876 1.523,-3.4 3.4,-3.4 1.877,0 3.4,1.524 3.4,3.4" /></g><g
       transform="translate(29.752,203.395)"
       id="g362"><path
         id="path364"
         style="fill:none;stroke:#231f20;stroke-width:0.68000001;stroke-linecap:square;stroke-linejoin:miter;stroke-miterlimit:10;stroke-dasharray:none;stroke-opacity:1"
         d="m 0,0 c 0,1.877 -1.523,3.4 -3.4,3.4 -1.877,0 -3.4,-1.523 -3.4,-3.4 0,-1.876 1.523,-3.4 3.4,-3.4 1.877,0 3.4,1.524 3.4,3.4" /></g><g
       transform="translate(27.917,160.657)"
       id="g366"><path
         id="path368"
         style="fill:#ffffff;fill-opacity:1;fill-rule:nonzero;stroke:none"
         d="m 0,0 c 0,1.877 -1.523,3.4 -3.4,3.4 -1.877,0 -3.4,-1.523 -3.4,-3.4 0,-1.876 1.523,-3.399 3.4,-3.399 1.877,0 3.4,1.523 3.4,3.399" /></g><g
       transform="translate(27.917,160.657)"
       id="g370"><path
         id="path372"
         style="fill:none;stroke:#231f20;stroke-width:0.68000001;stroke-linecap:square;stroke-linejoin:miter;stroke-miterlimit:10;stroke-dasharray:none;stroke-opacity:1"
         d="m 0,0 c 0,1.877 -1.523,3.4 -3.4,3.4 -1.877,0 -3.4,-1.523 -3.4,-3.4 0,-1.876 1.523,-3.399 3.4,-3.399 1.877,0 3.4,1.523 3.4,3.399" /></g><g
       transform="translate(55.865,111.289)"
       id="g374"><path
         id="path376"
         style="fill:#ffffff;fill-opacity:1;fill-rule:nonzero;stroke:none"
         d="m 0,0 c 0,1.877 -1.523,3.4 -3.4,3.4 -1.877,0 -3.4,-1.523 -3.4,-3.4 0,-1.877 1.523,-3.399 3.4,-3.399 1.877,0 3.4,1.522 3.4,3.399" /></g><g
       transform="translate(55.865,111.289)"
       id="g378"><path
         id="path380"
         style="fill:none;stroke:#231f20;stroke-width:0.68000001;stroke-linecap:square;stroke-linejoin:miter;stroke-miterlimit:10;stroke-dasharray:none;stroke-opacity:1"
         d="m 0,0 c 0,1.877 -1.523,3.4 -3.4,3.4 -1.877,0 -3.4,-1.523 -3.4,-3.4 0,-1.877 1.523,-3.399 3.4,-3.399 1.877,0 3.4,1.522 3.4,3.399" /></g><g
       transform="translate(56.068,133.627)"
       id="g382"><path
         id="path384"
         style="fill:#ffffff;fill-opacity:1;fill-rule:nonzero;stroke:none"
         d="m 0,0 c 0,1.877 -1.523,3.399 -3.4,3.399 -1.877,0 -3.4,-1.522 -3.4,-3.399 0,-1.877 1.523,-3.4 3.4,-3.4 1.877,0 3.4,1.523 3.4,3.4" /></g><g
       transform="translate(56.068,133.627)"
       id="g386"><path
         id="path388"
         style="fill:none;stroke:#231f20;stroke-width:0.68000001;stroke-linecap:square;stroke-linejoin:miter;stroke-miterlimit:10;stroke-dasharray:none;stroke-opacity:1"
         d="m 0,0 c 0,1.877 -1.523,3.399 -3.4,3.399 -1.877,0 -3.4,-1.522 -3.4,-3.399 0,-1.877 1.523,-3.4 3.4,-3.4 1.877,0 3.4,1.523 3.4,3.4" /></g><g
       transform="translate(69.329,225.02)"
       id="g390"><path
         id="path392"
         style="fill:#ffffff;fill-opacity:1;fill-rule:nonzero;stroke:none"
         d="m 0,0 c 0,1.876 -1.523,3.4 -3.4,3.4 -1.877,0 -3.4,-1.524 -3.4,-3.4 0,-1.877 1.523,-3.4 3.4,-3.4 1.877,0 3.4,1.523 3.4,3.4" /></g><g
       transform="translate(69.329,225.02)"
       id="g394"><path
         id="path396"
         style="fill:none;stroke:#231f20;stroke-width:0.68000001;stroke-linecap:square;stroke-linejoin:miter;stroke-miterlimit:10;stroke-dasharray:none;stroke-opacity:1"
         d="m 0,0 c 0,1.876 -1.523,3.4 -3.4,3.4 -1.877,0 -3.4,-1.524 -3.4,-3.4 0,-1.877 1.523,-3.4 3.4,-3.4 1.877,0 3.4,1.523 3.4,3.4" /></g><g
       transform="translate(33.323,277.855)"
       id="g398"><path
         id="path400"
         style="fill:#ffffff;fill-opacity:1;fill-rule:nonzero;stroke:none"
         d="m 0,0 c 0,1.877 -1.523,3.4 -3.4,3.4 -1.877,0 -3.4,-1.523 -3.4,-3.4 0,-1.877 1.523,-3.4 3.4,-3.4 1.877,0 3.4,1.523 3.4,3.4" /></g><g
       transform="translate(33.323,277.855)"
       id="g402"><path
         id="path404"
         style="fill:none;stroke:#231f20;stroke-width:0.68000001;stroke-linecap:square;stroke-linejoin:miter;stroke-miterlimit:10;stroke-dasharray:none;stroke-opacity:1"
         d="m 0,0 c 0,1.877 -1.523,3.4 -3.4,3.4 -1.877,0 -3.4,-1.523 -3.4,-3.4 0,-1.877 1.523,-3.4 3.4,-3.4 1.877,0 3.4,1.523 3.4,3.4" /></g><text
       id="text414"
       style="font-variant:normal;font-weight:normal;font-stretch:normal;font-size:9px;font-family:Times;-inkscape-font-specification:Times-Roman;writing-mode:lr-tb;fill:#231f20;fill-opacity:1;fill-rule:nonzero;stroke:none"
       transform="matrix(1,0,0,-1,88.8677,204.665)"><tspan
         id="tspan406"
         y="0"
         x="0 4.5 7.0019999 10.503 13.005 17.000999 21.500999 25.497 29.493">distance</tspan><tspan
         id="tspan408"
         y="21.42"
         x="0 2.5020001 5.0040002 8.5050001 13.005 17.504999 20.007 23.004 27 30.996 33.498001 36 40.5 45">its_direction</tspan><tspan
         id="tspan410"
         y="54.399601"
         x="41.692501 44.689499 48.685501 53.185501 55.6875 60.1875 63.688499">radius</tspan><tspan
         id="tspan412"
         y="80.665199"
         x="53.507702 57.008701 63.506699 67.502701 71.498703 75.998703 80.498703 84.494698 88.994698 93.494698 95.996696 99.992699">sweep_angle</tspan></text>
<path
       id="path416"
       style="fill:#ffffff;fill-opacity:1;fill-rule:nonzero;stroke:none"
       d="m 190.91,61.71 h 91.121 V 75.65 H 190.91 Z" /><g
       transform="translate(197.88,75.65)"
       id="g418"><path
         id="path420"
         style="fill:none;stroke:#231f20;stroke-width:0.68000001;stroke-linecap:square;stroke-linejoin:miter;stroke-miterlimit:10;stroke-dasharray:none;stroke-opacity:1"
         d="m 0,0 h 77.18 c 3.847,0 6.97,-3.122 6.97,-6.97 0,-3.847 -3.123,-6.97 -6.97,-6.97 H 0 c -3.848,0 -6.971,3.123 -6.971,6.97 C -6.971,-3.122 -3.848,0 0,0 Z" /></g><text
       id="text424"
       style="font-variant:normal;font-weight:normal;font-stretch:normal;font-size:9px;font-family:Times;-inkscape-font-specification:Times-Roman;writing-mode:lr-tb;fill:#231f20;fill-opacity:1;fill-rule:nonzero;stroke:none"
       transform="matrix(1,0,0,-1,207.6655,66.5346)"><tspan
         id="tspan422"
         y="0"
         x="0 4.5 9 11.25 13.5 18 22.5 27 29.25 32.247002 36.747002 41.247002 43.497002 45.747002 50.247002 54.747002 57.743999">33, 171 (31, 31)</tspan></text>
<path
       id="path426"
       style="fill:#ffffff;fill-opacity:1;fill-rule:nonzero;stroke:none"
       d="m 132.43,0.3398 h 75.479 v 35.361 H 132.43 Z" /><path
       id="path428"
       style="fill:none;stroke:#231f20;stroke-width:0.68000001;stroke-linecap:square;stroke-linejoin:miter;stroke-miterlimit:10;stroke-dasharray:3.4, 3.4;stroke-dashoffset:0;stroke-opacity:1"
       d="M 132.43,35.701 V 0.3398 h 75.48 V 35.701 Z m 6.8,-35.3612 V 35.701" /><text
       id="text434"
       style="font-variant:normal;font-weight:normal;font-stretch:normal;font-size:9px;font-family:Times;-inkscape-font-specification:Times-Roman;writing-mode:lr-tb;fill:#231f20;fill-opacity:1;fill-rule:nonzero;stroke:none"
       transform="matrix(1,0,0,-1,142.2724,15.9355)"><tspan
         id="tspan430"
         y="0"
         x="0 4.5 8.4960003 10.998 15.498 19.997999 23.499001 27.999001 31.995001 36.494999 40.491001 44.991001 47.493 49.994999 53.991001 60.993">path_shape_item</tspan><tspan
         id="tspan432"
         y="-49.7547"
         x="-52.342201 -48.841202 -42.343201 -38.347198 -33.847198 -31.3452 -26.8452 -22.3452 -18.349199 -15.8472 -11.3472">swept_path</tspan></text>
<path
       id="path436"
       style="fill:#ffffff;fill-opacity:1;fill-rule:nonzero;stroke:none"
       d="M 7.31,21.76 H 112.03 V 35.701 H 7.31 Z" /><g
       transform="translate(14.28,35.701)"
       id="g438"><path
         id="path440"
         style="fill:none;stroke:#231f20;stroke-width:0.68000001;stroke-linecap:square;stroke-linejoin:miter;stroke-miterlimit:10;stroke-dasharray:none;stroke-opacity:1"
         d="m 0,0 h 90.78 c 3.847,0 6.97,-3.123 6.97,-6.971 0,-3.847 -3.123,-6.97 -6.97,-6.97 H 0 c -3.847,0 -6.9703,3.123 -6.9703,6.97 C -6.9703,-3.123 -3.847,0 0,0 Z" /></g><text
       id="text444"
       style="font-variant:normal;font-weight:normal;font-stretch:normal;font-size:9px;font-family:Times;-inkscape-font-specification:Times-Roman;writing-mode:lr-tb;fill:#231f20;fill-opacity:1;fill-rule:nonzero;stroke:none"
       transform="matrix(1,0,0,-1,17.936,26.4004)"><tspan
         id="tspan442"
         y="0"
         x="0 4.5 9 11.25 13.5 18 22.5 24.75 27 31.5 36 40.5 45 49.5 53.495998 57.995998 62.495998 66.491997 70.991997 73.988998 78.353996 82.349998">47, 30, bounded_curve</tspan></text>
<path
       id="path446"
       style="fill:#ffffff;fill-opacity:1;fill-rule:nonzero;stroke:none"
       d="m 7.31,0.3398 h 71.4 v 13.939 H 7.31 Z" /><g
       transform="translate(14.28,14.279)"
       id="g448"><path
         id="path450"
         style="fill:none;stroke:#231f20;stroke-width:0.68000001;stroke-linecap:square;stroke-linejoin:miter;stroke-miterlimit:10;stroke-dasharray:none;stroke-opacity:1"
         d="m 0,0 h 57.46 c 3.847,0 6.97,-3.121 6.97,-6.9688 0,-3.8472 -3.123,-6.9702 -6.97,-6.9702 H 0 c -3.847,0 -6.9703,3.123 -6.9703,6.9702 C -6.9703,-3.121 -3.847,0 0,0 Z" /></g><text
       id="text454"
       style="font-variant:normal;font-weight:normal;font-stretch:normal;font-size:9px;font-family:Times;-inkscape-font-specification:Times-Roman;writing-mode:lr-tb;fill:#231f20;fill-opacity:1;fill-rule:nonzero;stroke:none"
       transform="matrix(1,0,0,-1,19.1909,5.2246)"><tspan
         id="tspan452"
         y="0"
         x="0 4.5 9 11.25 13.5 18 22.5 27 29.25 31.5 36 39.995998 42.498001 46.998001">47, 170, path</tspan></text>
<path
       id="path456"
       style="fill:#ffffff;fill-opacity:1;fill-rule:nonzero;stroke:none"
       d="m 228.31,21.76 h 93.16 v 13.941 h -93.16 z" /><g
       transform="translate(235.281,35.701)"
       id="g458"><path
         id="path460"
         style="fill:none;stroke:#231f20;stroke-width:0.68000001;stroke-linecap:square;stroke-linejoin:miter;stroke-miterlimit:10;stroke-dasharray:none;stroke-opacity:1"
         d="m 0,0 h 79.219 c 3.847,0 6.97,-3.123 6.97,-6.971 0,-3.847 -3.123,-6.97 -6.97,-6.97 H 0 c -3.848,0 -6.971,3.123 -6.971,6.97 C -6.971,-3.123 -3.848,0 0,0 Z" /></g><text
       id="text464"
       style="font-variant:normal;font-weight:normal;font-stretch:normal;font-size:9px;font-family:Times;-inkscape-font-specification:Times-Roman;writing-mode:lr-tb;fill:#231f20;fill-opacity:1;fill-rule:nonzero;stroke:none"
       transform="matrix(1,0,0,-1,237.6929,26.6972)"><tspan
         id="tspan462"
         y="0"
         x="0 4.5 9 11.25 13.5 18 22.5 27 29.25 31.5 35.495998 39.995998 44.495998 48.492001 52.992001 56.987999 61.487999 64.485001 68.849998 72.846001">47, 169, edge_curve</tspan></text>
<g
       transform="translate(198.665,39.074)"
       id="g466"><path
         id="path468"
         style="fill:#ffffff;fill-opacity:1;fill-rule:nonzero;stroke:none"
         d="M 0,0 C 0,1.877 -1.522,3.4 -3.399,3.4 -5.276,3.4 -6.8,1.877 -6.8,0 c 0,-1.877 1.524,-3.4 3.401,-3.4 C -1.522,-3.4 0,-1.877 0,0" /></g><g
       transform="translate(198.665,39.074)"
       id="g470"><path
         id="path472"
         style="fill:none;stroke:#231f20;stroke-width:0.68000001;stroke-linecap:square;stroke-linejoin:miter;stroke-miterlimit:10;stroke-dasharray:none;stroke-opacity:1"
         d="M 0,0 C 0,1.877 -1.522,3.4 -3.399,3.4 -5.276,3.4 -6.8,1.877 -6.8,0 c 0,-1.877 1.524,-3.4 3.401,-3.4 C -1.522,-3.4 0,-1.877 0,0" /></g><g
       transform="translate(166.228,39.074)"
       id="g474"><path
         id="path476"
         style="fill:#ffffff;fill-opacity:1;fill-rule:nonzero;stroke:none"
         d="m 0,0 c 0,1.877 -1.522,3.4 -3.399,3.4 -1.877,0 -3.4,-1.523 -3.4,-3.4 0,-1.877 1.523,-3.4 3.4,-3.4 C -1.522,-3.4 0,-1.877 0,0" /></g><g
       transform="translate(166.228,39.074)"
       id="g478"><path
         id="path480"
         style="fill:none;stroke:#231f20;stroke-width:0.68000001;stroke-linecap:square;stroke-linejoin:miter;stroke-miterlimit:10;stroke-dasharray:none;stroke-opacity:1"
         d="m 0,0 c 0,1.877 -1.522,3.4 -3.399,3.4 -1.877,0 -3.4,-1.523 -3.4,-3.4 0,-1.877 1.523,-3.4 3.4,-3.4 C -1.522,-3.4 0,-1.877 0,0" /></g></g></svg>