<?xml version="1.0" encoding="UTF-8" standalone="no"?>
<svg
   xmlns:dc="http://purl.org/dc/elements/1.1/"
   xmlns:cc="http://creativecommons.org/ns#"
   xmlns:rdf="http://www.w3.org/1999/02/22-rdf-syntax-ns#"
   xmlns:svg="http://www.w3.org/2000/svg"
   xmlns="http://www.w3.org/2000/svg"
   viewBox="0 0 442.45334 570.12268"
   height="570.12268"
   width="442.45334"
   xml:space="preserve"
   id="svg2"
   version="1.1"><metadata
     id="metadata8"><rdf:RDF><cc:Work
         rdf:about=""><dc:format>image/svg+xml</dc:format><dc:type
           rdf:resource="http://purl.org/dc/dcmitype/StillImage" /></cc:Work></rdf:RDF></metadata><defs
     id="defs6" /><g
     transform="matrix(1.3333333,0,0,-1.3333333,0,570.12267)"
     id="g10"><g
       transform="translate(51.893,405.577)"
       id="g12"><path
         id="path14"
         style="fill:none;stroke:#231f20;stroke-width:0.68000001;stroke-linecap:square;stroke-linejoin:miter;stroke-miterlimit:10;stroke-dasharray:none;stroke-opacity:1"
         d="M 0,0 V 7.735" /></g><path
       id="path16"
       style="fill:none;stroke:#231f20;stroke-width:0.68000001;stroke-linecap:square;stroke-linejoin:miter;stroke-miterlimit:10;stroke-dasharray:3.4, 3.4;stroke-dashoffset:0;stroke-opacity:1"
       d="m 99.152,391.807 h 149.6 m -85.68,-21.42 h -63.92 m 127.841,0 h -63.921 m 0,0 v 0 m -63.92,-21.42 h 118.32 m -56.78,-21.42 h -61.54 m 123.08,0 h -61.54 m 0,0 v 0 m -61.54,-21.42 h 101.32 m 72.76,-21.42 H 99.152 m 0,-21.419 h 101.32 m 21.76,-21.421 H 99.152 m 0,-21.42 h 123.08" /><g
       transform="translate(174.123,178.372)"
       id="g18"><path
         id="path20"
         style="fill:none;stroke:#231f20;stroke-width:0.68000001;stroke-linecap:square;stroke-linejoin:miter;stroke-miterlimit:10;stroke-dasharray:none;stroke-opacity:1"
         d="M 0,0 V 0" /><g
         transform="translate(28.9)"
         id="g22"><path
           id="path24"
           style="fill:none;stroke:#231f20;stroke-width:0.68000001;stroke-linecap:square;stroke-linejoin:miter;stroke-miterlimit:10;stroke-dasharray:none;stroke-opacity:1"
           d="m 0,0 h -28.9 l -81.448,0.425" /><g
           transform="translate(-156.886,13.77)"
           id="g26"><path
             id="path28"
             style="fill:none;stroke:#231f20;stroke-width:0.68000001;stroke-linecap:square;stroke-linejoin:miter;stroke-miterlimit:10;stroke-dasharray:none;stroke-opacity:1"
             d="M 0,0 V 21.335" /><g
             transform="translate(3.605,-34.681)"
             id="g30"><path
               id="path32"
               style="fill:none;stroke:#231f20;stroke-width:0.68000001;stroke-linecap:square;stroke-linejoin:miter;stroke-miterlimit:10;stroke-dasharray:none;stroke-opacity:1"
               d="M 0,0 0.186,13.191" /><g
               transform="translate(109.038,-50.489)"
               id="g34"><path
                 id="path36"
                 style="fill:none;stroke:#231f20;stroke-width:0.68000001;stroke-linecap:square;stroke-linejoin:miter;stroke-miterlimit:10;stroke-dasharray:none;stroke-opacity:1"
                 d="M 0,0 H -46.241" /><g
                 transform="translate(46.24)"
                 id="g38"><path
                   id="path40"
                   style="fill:none;stroke:#231f20;stroke-width:0.68000001;stroke-linecap:square;stroke-linejoin:miter;stroke-miterlimit:10;stroke-dasharray:none;stroke-opacity:1"
                   d="M 0,0 H -46.24 V 0" /></g></g></g></g></g></g><path
       id="path42"
       style="fill:none;stroke:#231f20;stroke-width:0.68000001;stroke-linecap:square;stroke-linejoin:miter;stroke-miterlimit:10;stroke-dasharray:3.4, 3.4;stroke-dashoffset:0;stroke-opacity:1"
       d="M 112.54,85.551 H 226.78 M 169.66,64.133 h -57.12 m 114.24,0 h -57.12 m 0,0 v 0" /><g
       transform="translate(105.145,44.113)"
       id="g44"><path
         id="path46"
         style="fill:none;stroke:#231f20;stroke-width:0.68000001;stroke-linecap:square;stroke-linejoin:miter;stroke-miterlimit:10;stroke-dasharray:none;stroke-opacity:1"
         d="M 0,0 H 74.12" /><g
         transform="translate(2.253,-28.305)"
         id="g48"><path
           id="path50"
           style="fill:none;stroke:#231f20;stroke-width:0.68000001;stroke-linecap:square;stroke-linejoin:miter;stroke-miterlimit:10;stroke-dasharray:none;stroke-opacity:1"
           d="M 0,0 H 63.24" /><g
           transform="translate(-72.973,26.611)"
           id="g52"><path
             id="path54"
             style="fill:none;stroke:#231f20;stroke-width:0.68000001;stroke-linecap:square;stroke-linejoin:miter;stroke-miterlimit:10;stroke-dasharray:none;stroke-opacity:1"
             d="M 0,0 H -15.7 V 90.621" /><g
             transform="translate(-0.467,-27.893)"
             id="g56"><path
               id="path58"
               style="fill:none;stroke:#231f20;stroke-width:0.68000001;stroke-linecap:square;stroke-linejoin:miter;stroke-miterlimit:10;stroke-dasharray:none;stroke-opacity:1"
               d="M 0,0 H -24.785 V 118.513" /><g
               transform="translate(0.382,70.063)"
               id="g60"><path
                 id="path62"
                 style="fill:none;stroke:#231f20;stroke-width:0.68000001;stroke-linecap:square;stroke-linejoin:miter;stroke-miterlimit:10;stroke-dasharray:none;stroke-opacity:1"
                 d="M 0,0 H -7.965 V 48.451" /></g></g></g></g></g><path
       id="path64"
       style="fill:#ffffff;fill-opacity:1;fill-rule:nonzero;stroke:none"
       d="m 20.273,413.312 h 63.24 v 13.94 h -63.24 z" /><g
       transform="translate(27.243,427.252)"
       id="g66"><path
         id="path68"
         style="fill:none;stroke:#231f20;stroke-width:0.68000001;stroke-linecap:square;stroke-linejoin:miter;stroke-miterlimit:10;stroke-dasharray:none;stroke-opacity:1"
         d="m 0,0 h 49.3 c 3.847,0 6.969,-3.123 6.969,-6.97 0,-3.847 -3.122,-6.97 -6.969,-6.97 H 0 c -3.848,0 -6.97,3.123 -6.97,6.97 C -6.97,-3.123 -3.848,0 0,0 Z" /></g><text
       id="text72"
       style="font-variant:normal;font-weight:normal;font-stretch:normal;font-size:9px;font-family:Times;-inkscape-font-specification:Times-Roman;writing-mode:lr-tb;fill:#231f20;fill-opacity:1;fill-rule:nonzero;stroke:none"
       transform="matrix(1,0,0,-1,29.8931,418.1358)"><tspan
         id="tspan70"
         y="0"
         x="0 4.5 9 11.25 13.5 18 22.5 27 29.25 32.247002 36.747002 41.247002 44.243999">21, 211 (20)</tspan></text>
<path
       id="path74"
       style="fill:#ffffff;fill-opacity:1;fill-rule:nonzero;stroke:none"
       d="m 4.6323,213.477 h 94.52 v 185.3 h -94.52 z" /><g
       transform="translate(4.6323,398.777)"
       id="g76"><path
         id="path78"
         style="fill:none;stroke:#231f20;stroke-width:0.68000001;stroke-linecap:square;stroke-linejoin:miter;stroke-miterlimit:10;stroke-dasharray:none;stroke-opacity:1"
         d="M 94.52,0 H 0 v -185.3 h 94.52 z" /><g
         id="g80"><path
           id="path82"
           style="fill:none;stroke:#231f20;stroke-width:0.68000001;stroke-linecap:square;stroke-linejoin:miter;stroke-miterlimit:10;stroke-dasharray:none;stroke-opacity:1"
           d="M 0,0 Z" /></g></g><text
       id="text86"
       style="font-variant:normal;font-weight:normal;font-stretch:normal;font-size:9px;font-family:Times;-inkscape-font-specification:Times-Roman;writing-mode:lr-tb;fill:#231f20;fill-opacity:1;fill-rule:nonzero;stroke:none"
       transform="matrix(1,0,0,-1,8.1221,304.0953)"><tspan
         id="tspan84"
         y="0"
         x="0 3.9960001 8.4960003 10.998 13.5 16.002001 20.502001 25.002001 29.502001 33.498001 37.998001 42.498001 46.493999 50.993999 55.493999 58.491001 62.991001 67.490997 71.487 74.484001 76.986 79.487999 83.484001 86.985001">cutting_edge_properties</tspan></text>
<g
       transform="translate(55.358,402.155)"
       id="g88"><path
         id="path90"
         style="fill:#ffffff;fill-opacity:1;fill-rule:nonzero;stroke:none"
         d="m 0,0 c 0,1.876 -1.523,3.4 -3.4,3.4 -1.877,0 -3.4,-1.524 -3.4,-3.4 0,-1.877 1.523,-3.4 3.4,-3.4 1.877,0 3.4,1.523 3.4,3.4" /></g><g
       transform="translate(55.358,402.155)"
       id="g92"><path
         id="path94"
         style="fill:none;stroke:#231f20;stroke-width:0.68000001;stroke-linecap:square;stroke-linejoin:miter;stroke-miterlimit:10;stroke-dasharray:none;stroke-opacity:1"
         d="m 0,0 c 0,1.876 -1.523,3.4 -3.4,3.4 -1.877,0 -3.4,-1.524 -3.4,-3.4 0,-1.877 1.523,-3.4 3.4,-3.4 1.877,0 3.4,1.523 3.4,3.4" /></g><path
       id="path96"
       style="fill:#ffffff;fill-opacity:1;fill-rule:nonzero;stroke:none"
       d="m 248.752,384.837 h 78.2 v 13.94 h -78.2 z" /><g
       transform="translate(255.722,398.777)"
       id="g98"><path
         id="path100"
         style="fill:none;stroke:#231f20;stroke-width:0.68000001;stroke-linecap:square;stroke-linejoin:miter;stroke-miterlimit:10;stroke-dasharray:none;stroke-opacity:1"
         d="m 0,0 h 64.26 c 3.847,0 6.97,-3.123 6.97,-6.97 0,-3.847 -3.123,-6.97 -6.97,-6.97 H 0 c -3.848,0 -6.97,3.123 -6.97,6.97 C -6.97,-3.123 -3.848,0 0,0 Z" /></g><text
       id="text104"
       style="font-variant:normal;font-weight:normal;font-stretch:normal;font-size:9px;font-family:Times;-inkscape-font-specification:Times-Roman;writing-mode:lr-tb;fill:#231f20;fill-opacity:1;fill-rule:nonzero;stroke:none"
       transform="matrix(1,0,0,-1,259.7329,389.4771)"><tspan
         id="tspan102"
         y="0"
         x="0 4.5 9 11.25 13.5 18 22.5 24.75 27 34.001999 37.998001 40.5 44.495998 47.493 49.994999 53.991001 56.493">40, 46, material</tspan></text>
<path
       id="path106"
       style="fill:#ffffff;fill-opacity:1;fill-rule:nonzero;stroke:none"
       d="m 226.993,363.417 h 99.96 v 13.94 h -99.96 z" /><g
       transform="translate(233.962,377.357)"
       id="g108"><path
         id="path110"
         style="fill:none;stroke:#231f20;stroke-width:0.68000001;stroke-linecap:square;stroke-linejoin:miter;stroke-miterlimit:10;stroke-dasharray:none;stroke-opacity:1"
         d="m 0,0 h 86.02 c 3.847,0 6.97,-3.123 6.97,-6.97 0,-3.847 -3.123,-6.97 -6.97,-6.97 H 0 c -3.847,0 -6.97,3.123 -6.97,6.97 C -6.97,-3.123 -3.847,0 0,0 Z" /></g><text
       id="text114"
       style="font-variant:normal;font-weight:normal;font-stretch:normal;font-size:9px;font-family:Times;-inkscape-font-specification:Times-Roman;writing-mode:lr-tb;fill:#231f20;fill-opacity:1;fill-rule:nonzero;stroke:none"
       transform="matrix(1,0,0,-1,235.2456,368.0572)"><tspan
         id="tspan112"
         y="0"
         x="0 4.5 9 11.25 13.5 18 22.5 27 29.25 31.5 34.001999 36.504002 43.506001 47.501999 52.001999 59.004002 63 66.996002 70.497002 74.997002 77.994003 81.989998">45, 187, time_measure</tspan></text>
<path
       id="path116"
       style="fill:#ffffff;fill-opacity:1;fill-rule:nonzero;stroke:none"
       d="m 217.472,341.997 h 109.48 v 13.941 h -109.48 z" /><g
       transform="translate(224.443,355.937)"
       id="g118"><path
         id="path120"
         style="fill:none;stroke:#231f20;stroke-width:0.68000001;stroke-linecap:square;stroke-linejoin:miter;stroke-miterlimit:10;stroke-dasharray:none;stroke-opacity:1"
         d="m 0,0 h 95.539 c 3.848,0 6.971,-3.123 6.971,-6.97 0,-3.847 -3.123,-6.971 -6.971,-6.971 H 0 c -3.848,0 -6.971,3.124 -6.971,6.971 C -6.971,-3.123 -3.848,0 0,0 Z" /></g><text
       id="text124"
       style="font-variant:normal;font-weight:normal;font-stretch:normal;font-size:9px;font-family:Times;-inkscape-font-specification:Times-Roman;writing-mode:lr-tb;fill:#231f20;fill-opacity:1;fill-rule:nonzero;stroke:none"
       transform="matrix(1,0,0,-1,227.9898,346.858)"><tspan
         id="tspan122"
         y="0"
         x="0 4.5 9 11.25 13.5 18 22.5 24.75 27 29.997 36.494999 42.498001 47.501999 50.499001 53.000999 56.997002 60.993 65.492996 69.992996 74.492996 76.995003 81.495003 85.995003 90.495003">11, 35, (ABS)technology</tspan></text>
<path
       id="path126"
       style="fill:#ffffff;fill-opacity:1;fill-rule:nonzero;stroke:none"
       d="m 222.232,320.577 h 104.721 v 13.94 H 222.232 Z" /><g
       transform="translate(229.203,334.517)"
       id="g128"><path
         id="path130"
         style="fill:none;stroke:#231f20;stroke-width:0.68000001;stroke-linecap:square;stroke-linejoin:miter;stroke-miterlimit:10;stroke-dasharray:none;stroke-opacity:1"
         d="m 0,0 h 90.779 c 3.848,0 6.971,-3.123 6.971,-6.97 0,-3.848 -3.123,-6.97 -6.971,-6.97 H 0 c -3.848,0 -6.971,3.122 -6.971,6.97 C -6.971,-3.123 -3.848,0 0,0 Z" /></g><text
       id="text134"
       style="font-variant:normal;font-weight:normal;font-stretch:normal;font-size:9px;font-family:Times;-inkscape-font-specification:Times-Roman;writing-mode:lr-tb;fill:#231f20;fill-opacity:1;fill-rule:nonzero;stroke:none"
       transform="matrix(1,0,0,-1,231.728,325.5152)"><tspan
         id="tspan132"
         y="0"
         x="0 4.5 9 11.25 13.5 18 22.5 24.75 27 29.502001 33.498001 37.998001 42.498001 45 49.5 54 61.001999 64.998001 68.994003 72.495003 76.995003 79.991997 83.987999">45, 47, length_measure</tspan></text>
<path
       id="path136"
       style="fill:#ffffff;fill-opacity:1;fill-rule:nonzero;stroke:none"
       d="m 200.472,299.157 h 126.48 v 13.94 h -126.48 z" /><g
       transform="translate(207.443,313.097)"
       id="g138"><path
         id="path140"
         style="fill:none;stroke:#231f20;stroke-width:0.68000001;stroke-linecap:square;stroke-linejoin:miter;stroke-miterlimit:10;stroke-dasharray:none;stroke-opacity:1"
         d="m 0,0 h 112.539 c 3.848,0 6.971,-3.122 6.971,-6.97 0,-3.847 -3.123,-6.97 -6.971,-6.97 H 0 c -3.848,0 -6.971,3.123 -6.971,6.97 C -6.971,-3.122 -3.848,0 0,0 Z" /></g><text
       id="text144"
       style="font-variant:normal;font-weight:normal;font-stretch:normal;font-size:9px;font-family:Times;-inkscape-font-specification:Times-Roman;writing-mode:lr-tb;fill:#231f20;fill-opacity:1;fill-rule:nonzero;stroke:none"
       transform="matrix(1,0,0,-1,207.4663,304.0953)"><tspan
         id="tspan142"
         y="0"
         x="0 4.5 9 11.25 13.5 18 22.5 27 29.25 31.5 36 38.501999 42.498001 46.998001 50.993999 55.493999 59.490002 63.990002 68.489998 70.991997 74.987999 79.487999 86.489998 90.486 94.482002 97.983002 102.483 105.48 109.476">45, 130, plane_angle_measure</tspan></text>
<path
       id="path146"
       style="fill:#ffffff;fill-opacity:1;fill-rule:nonzero;stroke:none"
       d="m 280.032,277.737 h 46.921 v 13.94 h -46.921 z" /><g
       transform="translate(280.032,291.677)"
       id="g148"><path
         id="path150"
         style="fill:none;stroke:#231f20;stroke-width:0.68000001;stroke-linecap:square;stroke-linejoin:miter;stroke-miterlimit:10;stroke-dasharray:none;stroke-opacity:1"
         d="M 46.921,0 H 0 v -13.94 h 46.921 z" /><g
         id="g152"><path
           id="path154"
           style="fill:none;stroke:#231f20;stroke-width:0.68000001;stroke-linecap:square;stroke-linejoin:miter;stroke-miterlimit:10;stroke-dasharray:none;stroke-opacity:1"
           d="M 0,0 Z" /><g
           transform="translate(40.12,-13.94)"
           id="g156"><path
             id="path158"
             style="fill:none;stroke:#231f20;stroke-width:0.68000001;stroke-linecap:square;stroke-linejoin:miter;stroke-miterlimit:10;stroke-dasharray:none;stroke-opacity:1"
             d="M 0,0 V 13.94" /></g></g></g><text
       id="text162"
       style="font-variant:normal;font-weight:normal;font-stretch:normal;font-size:9px;font-family:Times;-inkscape-font-specification:Times-Roman;writing-mode:lr-tb;fill:#231f20;fill-opacity:1;fill-rule:nonzero;stroke:none"
       transform="matrix(1,0,0,-1,289.4351,282.5977)"><tspan
         id="tspan160"
         y="0"
         x="0 5.0040002 7.506 10.503 13.005 17.504999 22.004999">String</tspan></text>
<path
       id="path164"
       style="fill:#ffffff;fill-opacity:1;fill-rule:nonzero;stroke:none"
       d="m 200.472,256.317 h 126.48 v 13.94 h -126.48 z" /><g
       transform="translate(207.443,270.257)"
       id="g166"><path
         id="path168"
         style="fill:none;stroke:#231f20;stroke-width:0.68000001;stroke-linecap:square;stroke-linejoin:miter;stroke-miterlimit:10;stroke-dasharray:none;stroke-opacity:1"
         d="m 0,0 h 112.539 c 3.848,0 6.971,-3.123 6.971,-6.97 0,-3.847 -3.123,-6.97 -6.971,-6.97 H 0 c -3.848,0 -6.971,3.123 -6.971,6.97 C -6.971,-3.123 -3.848,0 0,0 Z" /></g><text
       id="text172"
       style="font-variant:normal;font-weight:normal;font-stretch:normal;font-size:9px;font-family:Times;-inkscape-font-specification:Times-Roman;writing-mode:lr-tb;fill:#231f20;fill-opacity:1;fill-rule:nonzero;stroke:none"
       transform="matrix(1,0,0,-1,207.4663,261.2554)"><tspan
         id="tspan170"
         y="0"
         x="0 4.5 9 11.25 13.5 18 22.5 27 29.25 31.5 36 38.501999 42.498001 46.998001 50.993999 55.493999 59.490002 63.990002 68.489998 70.991997 74.987999 79.487999 86.489998 90.486 94.482002 97.983002 102.483 105.48 109.476">45, 130, plane_angle_measure</tspan></text>
<path
       id="path174"
       style="fill:#ffffff;fill-opacity:1;fill-rule:nonzero;stroke:none"
       d="m 222.232,234.897 h 104.721 v 13.94 H 222.232 Z" /><g
       transform="translate(229.203,248.837)"
       id="g176"><path
         id="path178"
         style="fill:none;stroke:#231f20;stroke-width:0.68000001;stroke-linecap:square;stroke-linejoin:miter;stroke-miterlimit:10;stroke-dasharray:none;stroke-opacity:1"
         d="m 0,0 h 90.779 c 3.848,0 6.971,-3.123 6.971,-6.971 0,-3.846 -3.123,-6.969 -6.971,-6.969 L 0,-13.94 c -3.848,0 -6.971,3.123 -6.971,6.969 C -6.971,-3.123 -3.848,0 0,0 Z" /></g><text
       id="text182"
       style="font-variant:normal;font-weight:normal;font-stretch:normal;font-size:9px;font-family:Times;-inkscape-font-specification:Times-Roman;writing-mode:lr-tb;fill:#231f20;fill-opacity:1;fill-rule:nonzero;stroke:none"
       transform="matrix(1,0,0,-1,231.728,239.8345)"><tspan
         id="tspan180"
         y="0"
         x="0 4.5 9 11.25 13.5 18 22.5 24.75 27 29.502001 33.498001 37.998001 42.498001 45 49.5 54 61.001999 64.998001 68.994003 72.495003 76.995003 79.991997 83.987999">45, 47, length_measure</tspan></text>
<path
       id="path184"
       style="fill:#ffffff;fill-opacity:1;fill-rule:nonzero;stroke:none"
       d="m 222.232,213.477 h 104.721 v 13.939 H 222.232 Z" /><g
       transform="translate(229.203,227.417)"
       id="g186"><path
         id="path188"
         style="fill:none;stroke:#231f20;stroke-width:0.68000001;stroke-linecap:square;stroke-linejoin:miter;stroke-miterlimit:10;stroke-dasharray:none;stroke-opacity:1"
         d="m 0,0 h 90.779 c 3.848,0 6.971,-3.122 6.971,-6.97 0,-3.847 -3.123,-6.969 -6.971,-6.969 H 0 c -3.848,0 -6.971,3.122 -6.971,6.969 C -6.971,-3.122 -3.848,0 0,0 Z" /></g><text
       id="text204"
       style="font-variant:normal;font-weight:normal;font-stretch:normal;font-size:9px;font-family:Times;-inkscape-font-specification:Times-Roman;writing-mode:lr-tb;fill:#231f20;fill-opacity:1;fill-rule:nonzero;stroke:none"
       transform="matrix(1,0,0,-1,231.728,218.4146)"><tspan
         id="tspan190"
         y="0"
         x="0 4.5 9 11.25 13.5 18 22.5 24.75 27 29.502001 33.498001 37.998001 42.498001 45 49.5 54 61.001999 64.998001 68.994003 72.495003 76.995003 79.991997 83.987999">45, 47, length_measure</tspan><tspan
         id="tspan192"
         y="-163.4319"
         x="-125.7759 -123.2739 -120.7719 -117.2709 -112.7709 -105.7689 -101.7729 -99.270897 -95.274902 -92.277901 -89.775902 -85.7799 -83.277901">its_material</tspan><tspan
         id="tspan194"
         y="-141.87421"
         x="-125.7759 -121.9149 -117.4149 -112.9149 -108.9189 -104.9229 -102.4209 -98.424896 -93.924896 -89.424896 -86.922897 -82.422897 -77.922897 -75.420898 -70.920898 -68.4189 -65.916901 -62.919899 -58.923901">expected_tool_life</tspan><tspan
         id="tspan196"
         y="-120.5928"
         x="-125.7759 -123.2739 -120.7719 -117.2709 -112.7709 -110.2689 -106.2729 -102.2769 -97.776901 -93.276901 -88.776901 -86.274902 -81.774902 -77.274902 -72.774902">its_technology</tspan><tspan
         id="tspan198"
         y="-99.172798"
         x="-125.7759 -121.7799 -117.2799 -114.7779 -112.2759 -109.7739 -105.2739 -100.7739 -96.273903 -92.277901 -87.777901 -83.277901 -79.281898 -74.781898 -72.2799 -68.283897 -63.783901 -59.283901 -56.781898 -52.281898">cutting_edge_length</tspan><tspan
         id="tspan200"
         y="-77.7528"
         x="-125.7759 -123.2739 -118.7739 -114.2739 -111.7719 -107.2719 -103.2759 -98.775902 -96.273903 -93.771896 -91.269897 -86.769897 -82.269897 -77.769897 -73.773903 -69.273903 -64.773903 -60.777901 -56.277901 -52.281898 -47.781898 -43.281898 -40.7799 -36.783901">tool_cutting_edge_angle</tspan><tspan
         id="tspan202"
         y="-56.332802"
         x="-125.7759 -123.2739 -118.7739 -114.2739 -111.7719 -107.2719 -103.2759 -98.775902 -96.273903 -93.771896 -91.269897 -86.769897 -82.269897 -77.769897 -73.773903 -69.273903 -64.773903 -60.777901 -56.277901 -52.281898 -47.781898 -43.281898 -40.7799 -36.783901 -32.283901 -29.7819 -25.2819 -20.7819 -16.7859">tool_cutting_edge_angle_type</tspan></text>
<g
       transform="translate(280.064,284.753)"
       id="g206"><path
         id="path208"
         style="fill:#ffffff;fill-opacity:1;fill-rule:nonzero;stroke:none"
         d="M 0,0 C 0,1.877 -1.523,3.4 -3.399,3.4 -5.276,3.4 -6.8,1.877 -6.8,0 c 0,-1.877 1.524,-3.4 3.401,-3.4 C -1.523,-3.4 0,-1.877 0,0" /></g><g
       transform="translate(280.064,284.753)"
       id="g210"><path
         id="path212"
         style="fill:none;stroke:#231f20;stroke-width:0.68000001;stroke-linecap:square;stroke-linejoin:miter;stroke-miterlimit:10;stroke-dasharray:none;stroke-opacity:1"
         d="M 0,0 C 0,1.877 -1.523,3.4 -3.399,3.4 -5.276,3.4 -6.8,1.877 -6.8,0 c 0,-1.877 1.524,-3.4 3.401,-3.4 C -1.523,-3.4 0,-1.877 0,0" /></g><text
       id="text220"
       style="font-variant:normal;font-weight:normal;font-stretch:normal;font-size:9px;font-family:Times;-inkscape-font-specification:Times-Roman;writing-mode:lr-tb;fill:#231f20;fill-opacity:1;fill-rule:nonzero;stroke:none"
       transform="matrix(1,0,0,-1,105.9522,253.3267)"><tspan
         id="tspan214"
         y="0"
         x="0 2.5020001 7.0019999 11.502 14.004 18.504 21.006001 25.506001 29.502001 32.004002 36.504002 41.004002 45 49.5 54 57.995998 62.495998 66.996002 69.498001 73.494003">tool_included_angle</tspan><tspan
         id="tspan216"
         y="21.42"
         x="0 7.0019999 10.998 15.498 18 25.002001 29.502001 36.504002 41.004002 44.505001 47.007 51.507 55.502998 60.002998 63.999001 68.499001 71.000999 73.502998 76.004997 80.504997 85.004997 89.504997 94.004997 98.000999 102.501 105.003 109.503">maximum_side_cutting_depth</tspan><tspan
         id="tspan218"
         y="42.84"
         x="0 7.0019999 10.998 15.498 18 25.002001 29.502001 36.504002 41.004002 45 49.5 54 58.5 62.495998 66.996002 69.498001 72 74.501999 79.001999 83.501999 88.001999 92.501999 96.498001 100.998 103.5 108">maximum_end_cutting_depth</tspan></text>
<path
       id="path222"
       style="fill:#ffffff;fill-opacity:1;fill-rule:nonzero;stroke:none"
       d="m 209.822,171.402 h 51.001 v 13.94 h -51.001 z" /><g
       transform="translate(209.822,185.342)"
       id="g224"><path
         id="path226"
         style="fill:none;stroke:#231f20;stroke-width:0.68000001;stroke-linecap:square;stroke-linejoin:miter;stroke-miterlimit:10;stroke-dasharray:none;stroke-opacity:1"
         d="M 51.001,0 H 0 v -13.94 h 51.001 z" /><g
         id="g228"><path
           id="path230"
           style="fill:none;stroke:#231f20;stroke-width:0.68000001;stroke-linecap:square;stroke-linejoin:miter;stroke-miterlimit:10;stroke-dasharray:none;stroke-opacity:1"
           d="M 0,0 Z" /><g
           transform="translate(44.2,-13.94)"
           id="g232"><path
             id="path234"
             style="fill:none;stroke:#231f20;stroke-width:0.68000001;stroke-linecap:square;stroke-linejoin:miter;stroke-miterlimit:10;stroke-dasharray:none;stroke-opacity:1"
             d="M 0,0 V 13.94" /></g></g></g><text
       id="text238"
       style="font-variant:normal;font-weight:normal;font-stretch:normal;font-size:9px;font-family:Times;-inkscape-font-specification:Times-Roman;writing-mode:lr-tb;fill:#231f20;fill-opacity:1;fill-rule:nonzero;stroke:none"
       transform="matrix(1,0,0,-1,219.2212,176.3394)"><tspan
         id="tspan236"
         y="0"
         x="0 2.997 7.4970002 9.9989996 13.86 18.360001 22.356001 25.353001">Integer</tspan></text>
<path
       id="path240"
       style="fill:#ffffff;fill-opacity:1;fill-rule:nonzero;stroke:none"
       d="m 7.1826,170.653 h 85.492 v 14.689 H 7.1826 Z" /><g
       transform="translate(7.1826,185.342)"
       id="g242"><path
         id="path244"
         style="fill:none;stroke:#231f20;stroke-width:0.68000001;stroke-linecap:square;stroke-linejoin:miter;stroke-miterlimit:10;stroke-dasharray:none;stroke-opacity:1"
         d="M 85.492,0 H 0 v -14.689 h 85.492 z" /><g
         id="g246"><path
           id="path248"
           style="fill:none;stroke:#231f20;stroke-width:0.68000001;stroke-linecap:square;stroke-linejoin:miter;stroke-miterlimit:10;stroke-dasharray:none;stroke-opacity:1"
           d="M 0,0 Z" /></g></g><text
       id="text254"
       style="font-variant:normal;font-weight:normal;font-stretch:normal;font-size:9px;font-family:Times;-inkscape-font-specification:Times-Roman;writing-mode:lr-tb;fill:#231f20;fill-opacity:1;fill-rule:nonzero;stroke:none"
       transform="matrix(1,0,0,-1,19.5449,175.5777)"><tspan
         id="tspan250"
         y="0"
         x="0 3.9960001 8.4960003 11.493 15.993 19.989 22.986 27.486 29.988001 32.985001 36.980999 41.480999 44.981998 47.484001 49.986 52.487999 56.987999 61.487999">corner_transition</tspan><tspan
         id="tspan252"
         y="6.7419"
         x="79.929901 83.925903 88.425903 91.422897 95.922897 99.9189 102.9159 107.4159 109.9179 114.4179 118.4139 122.9139 125.4159 127.9179 130.41991 134.91991">corner_identity</tspan></text>
<g
       transform="translate(209.787,178.367)"
       id="g256"><path
         id="path258"
         style="fill:#ffffff;fill-opacity:1;fill-rule:nonzero;stroke:none"
         d="m 0,0 c 0,1.877 -1.523,3.4 -3.4,3.4 -1.877,0 -3.401,-1.523 -3.401,-3.4 0,-1.877 1.524,-3.399 3.401,-3.399 1.877,0 3.4,1.522 3.4,3.399" /></g><g
       transform="translate(209.787,178.367)"
       id="g260"><path
         id="path262"
         style="fill:none;stroke:#231f20;stroke-width:0.68000001;stroke-linecap:square;stroke-linejoin:miter;stroke-miterlimit:10;stroke-dasharray:none;stroke-opacity:1"
         d="m 0,0 c 0,1.877 -1.523,3.4 -3.4,3.4 -1.877,0 -3.401,-1.523 -3.401,-3.4 0,-1.877 1.524,-3.399 3.401,-3.399 1.877,0 3.4,1.522 3.4,3.399" /></g><text
       id="text266"
       style="font-variant:normal;font-weight:normal;font-stretch:normal;font-size:9px;font-family:Times;-inkscape-font-specification:Times-Roman;writing-mode:lr-tb;fill:#231f20;fill-opacity:1;fill-rule:nonzero;stroke:none"
       transform="matrix(1,0,0,-1,52.937,196.5923)"><tspan
         id="tspan264"
         y="0"
         x="0 3.9960001 8.4960003 11.493 15.993 19.989 22.986 27.486 29.988001 32.985001 36.980999 41.480999 44.981998 47.484001 49.986 52.487999 56.987999 61.487999 64.988998 67.238998 72.737999 75.735001 80.235001 82.737 86.733002 89.730003">corner_transitions L[0:?]</tspan></text>
<g
       transform="translate(49.544,188.771)"
       id="g268"><path
         id="path270"
         style="fill:#ffffff;fill-opacity:1;fill-rule:nonzero;stroke:none"
         d="m 0,0 c 0,1.876 -1.523,3.4 -3.4,3.4 -1.877,0 -3.4,-1.524 -3.4,-3.4 0,-1.877 1.523,-3.4 3.4,-3.4 1.877,0 3.4,1.523 3.4,3.4" /></g><g
       transform="translate(49.544,188.771)"
       id="g272"><path
         id="path274"
         style="fill:none;stroke:#231f20;stroke-width:0.68000001;stroke-linecap:square;stroke-linejoin:miter;stroke-miterlimit:10;stroke-dasharray:none;stroke-opacity:1"
         d="m 0,0 c 0,1.876 -1.523,3.4 -3.4,3.4 -1.877,0 -3.4,-1.524 -3.4,-3.4 0,-1.877 1.523,-3.4 3.4,-3.4 1.877,0 3.4,1.523 3.4,3.4" /></g><text
       id="text278"
       style="font-variant:normal;font-weight:normal;font-stretch:normal;font-size:9px;font-family:Times;-inkscape-font-specification:Times-Roman;writing-mode:lr-tb;fill:#231f20;fill-opacity:1;fill-rule:nonzero;stroke:none"
       transform="matrix(1,0,0,-1,56.7285,153.8931)"><tspan
         id="tspan276"
         y="0"
         x="0 2.5020001 5.4990001 9.4949999 13.995 17.496 19.997999 22.5 25.002001 29.502001 34.001999">transition</tspan></text>
<path
       id="path280"
       style="fill:#ffffff;fill-opacity:1;fill-rule:nonzero;stroke:none"
       d="m 0.3399,133.041 h 98.71 v 17.622 h -98.71 z" /><path
       id="path282"
       style="fill:none;stroke:#231f20;stroke-width:0.68000001;stroke-linecap:square;stroke-linejoin:miter;stroke-miterlimit:10;stroke-dasharray:3.4, 3.4;stroke-dashoffset:0;stroke-opacity:1"
       d="M 0.3399,150.663 V 133.041 H 99.05 v 17.622 z" /><path
       id="path284"
       style="fill:none;stroke:#231f20;stroke-width:0.68000001;stroke-linecap:square;stroke-linejoin:miter;stroke-miterlimit:10;stroke-dasharray:3.4, 3.4;stroke-dashoffset:0;stroke-opacity:1"
       d="m 7.1397,133.041 v 17.622" /><text
       id="text288"
       style="font-variant:normal;font-weight:normal;font-stretch:normal;font-size:9px;font-family:Times;-inkscape-font-specification:Times-Roman;writing-mode:lr-tb;fill:#231f20;fill-opacity:1;fill-rule:nonzero;stroke:none"
       transform="matrix(1,0,0,-1,9.7861,139.4322)"><tspan
         id="tspan286"
         y="0"
         x="0 3.9960001 8.4960003 11.493 15.993 19.989 22.986 27.486 29.988001 32.985001 36.980999 41.480999 44.981998 47.484001 49.986 52.487999 56.987999 61.487999 65.987999 69.488998 73.485001 75.987 79.983002 83.978996 86.481003">corner_transition_select</tspan></text>
<g
       transform="translate(53.114,154.09)"
       id="g290"><path
         id="path292"
         style="fill:#ffffff;fill-opacity:1;fill-rule:nonzero;stroke:none"
         d="m 0,0 c 0,1.877 -1.523,3.4 -3.4,3.4 -1.877,0 -3.4,-1.523 -3.4,-3.4 0,-1.877 1.523,-3.4 3.4,-3.4 1.877,0 3.4,1.523 3.4,3.4" /></g><g
       transform="translate(53.114,154.09)"
       id="g294"><path
         id="path296"
         style="fill:none;stroke:#231f20;stroke-width:0.68000001;stroke-linecap:square;stroke-linejoin:miter;stroke-miterlimit:10;stroke-dasharray:none;stroke-opacity:1"
         d="m 0,0 c 0,1.877 -1.523,3.4 -3.4,3.4 -1.877,0 -3.4,-1.523 -3.4,-3.4 0,-1.877 1.523,-3.4 3.4,-3.4 1.877,0 3.4,1.523 3.4,3.4" /></g><path
       id="path298"
       style="fill:#ffffff;fill-opacity:1;fill-rule:nonzero;stroke:none"
       d="m 41.14,57.162 h 71.4 v 56.779 h -71.4 z" /><g
       transform="translate(41.14,113.941)"
       id="g300"><path
         id="path302"
         style="fill:none;stroke:#231f20;stroke-width:0.68000001;stroke-linecap:square;stroke-linejoin:miter;stroke-miterlimit:10;stroke-dasharray:none;stroke-opacity:1"
         d="M 71.4,0 H 0 v -56.779 h 71.4 z" /><g
         id="g304"><path
           id="path306"
           style="fill:none;stroke:#231f20;stroke-width:0.68000001;stroke-linecap:square;stroke-linejoin:miter;stroke-miterlimit:10;stroke-dasharray:none;stroke-opacity:1"
           d="M 0,0 Z" /></g></g><text
       id="text310"
       style="font-variant:normal;font-weight:normal;font-stretch:normal;font-size:9px;font-family:Times;-inkscape-font-specification:Times-Roman;writing-mode:lr-tb;fill:#231f20;fill-opacity:1;fill-rule:nonzero;stroke:none"
       transform="matrix(1,0,0,-1,43.7349,83.0918)"><tspan
         id="tspan308"
         y="0"
         x="0 3.9960001 8.4960003 12.492 19.493999 22.490999 26.487 29.483999 33.48 37.98 42.48 46.476002 50.976002 53.973 58.473 62.469002 65.466003">chamfered_corner</tspan></text>
<path
       id="path312"
       style="fill:#ffffff;fill-opacity:1;fill-rule:nonzero;stroke:none"
       d="M 205.02,100.002 H 331.5 v 13.939 H 205.02 Z" /><g
       transform="translate(211.99,113.941)"
       id="g314"><path
         id="path316"
         style="fill:none;stroke:#231f20;stroke-width:0.68000001;stroke-linecap:square;stroke-linejoin:miter;stroke-miterlimit:10;stroke-dasharray:none;stroke-opacity:1"
         d="m 0,0 h 112.54 c 3.848,0 6.971,-3.123 6.971,-6.969 0,-3.847 -3.123,-6.97 -6.971,-6.97 H 0 c -3.848,0 -6.97,3.123 -6.97,6.97 C -6.97,-3.123 -3.848,0 0,0 Z" /></g><text
       id="text320"
       style="font-variant:normal;font-weight:normal;font-stretch:normal;font-size:9px;font-family:Times;-inkscape-font-specification:Times-Roman;writing-mode:lr-tb;fill:#231f20;fill-opacity:1;fill-rule:nonzero;stroke:none"
       transform="matrix(1,0,0,-1,212.0132,104.9395)"><tspan
         id="tspan318"
         y="0"
         x="0 4.5 9 11.25 13.5 18 22.5 27 29.25 31.5 36 38.501999 42.498001 46.998001 50.993999 55.493999 59.490002 63.990002 68.489998 70.991997 74.987999 79.487999 86.489998 90.486 94.482002 97.983002 102.483 105.48 109.476">45, 140, plane_angle_measure</tspan></text>
<path
       id="path322"
       style="fill:#ffffff;fill-opacity:1;fill-rule:nonzero;stroke:none"
       d="M 226.78,78.582 H 331.501 V 92.521 H 226.78 Z" /><g
       transform="translate(233.75,92.521)"
       id="g324"><path
         id="path326"
         style="fill:none;stroke:#231f20;stroke-width:0.68000001;stroke-linecap:square;stroke-linejoin:miter;stroke-miterlimit:10;stroke-dasharray:none;stroke-opacity:1"
         d="m 0,0 h 90.779 c 3.848,0 6.971,-3.123 6.971,-6.971 0,-3.845 -3.123,-6.968 -6.971,-6.968 H 0 c -3.848,0 -6.971,3.123 -6.971,6.968 C -6.971,-3.123 -3.848,0 0,0 Z" /></g><text
       id="text330"
       style="font-variant:normal;font-weight:normal;font-stretch:normal;font-size:9px;font-family:Times;-inkscape-font-specification:Times-Roman;writing-mode:lr-tb;fill:#231f20;fill-opacity:1;fill-rule:nonzero;stroke:none"
       transform="matrix(1,0,0,-1,236.2749,83.5196)"><tspan
         id="tspan328"
         y="0"
         x="0 4.5 9 11.25 13.5 18 22.5 24.75 27 29.502001 33.498001 37.998001 42.498001 45 49.5 54 61.001999 64.998001 68.994003 72.495003 76.995003 79.991997 83.987999">45, 47, length_measure</tspan></text>
<path
       id="path332"
       style="fill:#ffffff;fill-opacity:1;fill-rule:nonzero;stroke:none"
       d="M 226.78,57.162 H 331.501 V 71.101 H 226.78 Z" /><g
       transform="translate(233.75,71.102)"
       id="g334"><path
         id="path336"
         style="fill:none;stroke:#231f20;stroke-width:0.68000001;stroke-linecap:square;stroke-linejoin:miter;stroke-miterlimit:10;stroke-dasharray:none;stroke-opacity:1"
         d="m 0,0 h 90.779 c 3.848,0 6.971,-3.121 6.971,-6.969 0,-3.847 -3.123,-6.97 -6.971,-6.97 H 0 c -3.848,0 -6.971,3.123 -6.971,6.97 C -6.971,-3.121 -3.848,0 0,0 Z" /></g><text
       id="text346"
       style="font-variant:normal;font-weight:normal;font-stretch:normal;font-size:9px;font-family:Times;-inkscape-font-specification:Times-Roman;writing-mode:lr-tb;fill:#231f20;fill-opacity:1;fill-rule:nonzero;stroke:none"
       transform="matrix(1,0,0,-1,236.2749,62.0997)"><tspan
         id="tspan338"
         y="0"
         x="0 4.5 9 11.25 13.5 18 22.5 24.75 27 29.502001 33.498001 37.998001 42.498001 45 49.5 54 61.001999 64.998001 68.994003 72.495003 76.995003 79.991997 83.987999">45, 47, length_measure</tspan><tspan
         id="tspan340"
         y="-34.7733"
         x="-116.9352 -112.9392 -108.4392 -105.4422 -100.9422 -96.946198 -93.949203 -89.449203 -85.453201 -80.953201 -76.957199 -69.9552 -66.958199 -62.9622 -59.965199 -55.465199 -51.4692 -46.9692 -42.4692 -39.967201 -35.971199">corner_chamfer_angle</tspan><tspan
         id="tspan342"
         y="-13.3533"
         x="-116.9352 -112.9392 -108.4392 -105.4422 -100.9422 -96.946198 -93.949203 -89.449203 -85.453201 -80.953201 -76.957199 -69.9552 -66.958199 -62.9622 -59.965199 -55.465199 -52.9632 -48.967201 -44.467201 -39.967201 -37.465199 -32.965199">corner_chamfer_length</tspan><tspan
         id="tspan344"
         y="8.0667"
         x="-116.9352 -112.9392 -108.4392 -105.4422 -100.9422 -96.946198 -93.949203 -89.449203 -85.453201 -80.953201 -76.957199 -69.9552 -66.958199 -62.9622 -59.965199 -55.465199 -48.967201 -46.465199 -41.965199 -39.4632 -34.9632">corner_chamfer_width</tspan></text>
<path
       id="path348"
       style="fill:#ffffff;fill-opacity:1;fill-rule:nonzero;stroke:none"
       d="m 41.225,28.645 h 63.92 v 22.439 h -63.92 z" /><g
       transform="translate(41.225,51.084)"
       id="g350"><path
         id="path352"
         style="fill:none;stroke:#231f20;stroke-width:0.68000001;stroke-linecap:square;stroke-linejoin:miter;stroke-miterlimit:10;stroke-dasharray:none;stroke-opacity:1"
         d="M 63.92,0 H 0 v -22.439 h 63.92 z" /><g
         id="g354"><path
           id="path356"
           style="fill:none;stroke:#231f20;stroke-width:0.68000001;stroke-linecap:square;stroke-linejoin:miter;stroke-miterlimit:10;stroke-dasharray:none;stroke-opacity:1"
           d="M 0,0 Z" /></g></g><text
       id="text360"
       style="font-variant:normal;font-weight:normal;font-stretch:normal;font-size:9px;font-family:Times;-inkscape-font-specification:Times-Roman;writing-mode:lr-tb;fill:#231f20;fill-opacity:1;fill-rule:nonzero;stroke:none"
       transform="matrix(1,0,0,-1,45.9756,37.7383)"><tspan
         id="tspan358"
         y="0"
         x="0 4.5 7.4970002 11.997 14.814 17.316 19.818001 23.813999 28.313999 32.813999 36.810001 41.310001 44.306999 48.806999 52.803001 55.799999">profiled_corner</tspan></text>
<path
       id="path362"
       style="fill:#ffffff;fill-opacity:1;fill-rule:nonzero;stroke:none"
       d="m 179.265,37.145 h 117.64 v 13.939 h -117.64 z" /><g
       transform="translate(186.235,51.084)"
       id="g364"><path
         id="path366"
         style="fill:none;stroke:#231f20;stroke-width:0.68000001;stroke-linecap:square;stroke-linejoin:miter;stroke-miterlimit:10;stroke-dasharray:none;stroke-opacity:1"
         d="m 0,0 h 103.7 c 3.848,0 6.97,-3.123 6.97,-6.971 0,-3.845 -3.122,-6.968 -6.97,-6.968 H 0 c -3.847,0 -6.97,3.123 -6.97,6.968 C -6.97,-3.123 -3.847,0 0,0 Z" /></g><text
       id="text372"
       style="font-variant:normal;font-weight:normal;font-stretch:normal;font-size:9px;font-family:Times;-inkscape-font-specification:Times-Roman;writing-mode:lr-tb;fill:#231f20;fill-opacity:1;fill-rule:nonzero;stroke:none"
       transform="matrix(1,0,0,-1,188.8726,41.9512)"><tspan
         id="tspan368"
         y="0"
         x="0 4.5 9 11.25 13.5 18 22.5 27 29.25 31.5 34.497002 40.994999 46.998001 52.001999 54.999001 59.499001 63.999001 67.995003 72.495003 76.995003 81.495003 84.491997 88.991997 91.808998 94.310997 96.813004 100.809">31, 135, (ABS)open_profile</tspan><tspan
         id="tspan370"
         y="7.9352999"
         x="-76.927498 -74.425499 -71.428497 -67.432503 -62.932499 -59.431499 -56.929501 -54.427502 -51.925499 -47.425499 -42.925499 -38.425499 -33.925499 -30.928499 -26.428499 -23.6115 -21.109501 -18.6075 -14.6115">transition_profile</tspan></text>
<path
       id="path374"
       style="fill:#ffffff;fill-opacity:1;fill-rule:nonzero;stroke:none"
       d="m 40.757,0.3399 h 66.64 v 22.439 h -66.64 z" /><g
       transform="translate(40.757,22.779)"
       id="g376"><path
         id="path378"
         style="fill:none;stroke:#231f20;stroke-width:0.68000001;stroke-linecap:square;stroke-linejoin:miter;stroke-miterlimit:10;stroke-dasharray:none;stroke-opacity:1"
         d="M 66.64,0 H 0 v -22.439 h 66.64 z" /><g
         id="g380"><path
           id="path382"
           style="fill:none;stroke:#231f20;stroke-width:0.68000001;stroke-linecap:square;stroke-linejoin:miter;stroke-miterlimit:10;stroke-dasharray:none;stroke-opacity:1"
           d="M 0,0 Z" /></g></g><text
       id="text386"
       style="font-variant:normal;font-weight:normal;font-stretch:normal;font-size:9px;font-family:Times;-inkscape-font-specification:Times-Roman;writing-mode:lr-tb;fill:#231f20;fill-opacity:1;fill-rule:nonzero;stroke:none"
       transform="matrix(1,0,0,-1,45.2769,9.1407)"><tspan
         id="tspan384"
         y="0"
         x="0 2.997 7.4970002 11.997 16.497 20.997 24.993 29.493 33.993 37.988998 42.488998 45.486 49.986 53.981998 56.979">rounded_corner</tspan></text>
<path
       id="path388"
       style="fill:#ffffff;fill-opacity:1;fill-rule:nonzero;stroke:none"
       d="m 170.637,8.8399 h 108.12 v 13.939 h -108.12 z" /><g
       transform="translate(177.607,22.779)"
       id="g390"><path
         id="path392"
         style="fill:none;stroke:#231f20;stroke-width:0.68000001;stroke-linecap:square;stroke-linejoin:miter;stroke-miterlimit:10;stroke-dasharray:none;stroke-opacity:1"
         d="m 0,0 h 94.18 c 3.848,0 6.97,-3.123 6.97,-6.971 0,-3.847 -3.122,-6.968 -6.97,-6.968 H 0 c -3.847,0 -6.97,3.121 -6.97,6.968 C -6.97,-3.123 -3.847,0 0,0 Z" /></g><text
       id="text398"
       style="font-variant:normal;font-weight:normal;font-stretch:normal;font-size:9px;font-family:Times;-inkscape-font-specification:Times-Roman;writing-mode:lr-tb;fill:#231f20;fill-opacity:1;fill-rule:nonzero;stroke:none"
       transform="matrix(1,0,0,-1,179.5645,13.7774)"><tspan
         id="tspan394"
         y="0"
         x="0 4.5 9 11.25 13.5 18 22.5 27 29.25 31.5 34.001999 37.998001 42.498001 46.998001 49.5 54 58.5 65.501999 69.498001 73.494003 76.995003 81.495003 84.491997 88.487999">45, 132, length_measure</tspan><tspan
         id="tspan396"
         y="7.9281001"
         x="-65.366997 -61.370998 -56.870998 -53.874001 -49.374001 -45.377998 -42.381001 -37.881001 -34.883999 -30.888 -26.388 -23.886 -19.386 -15.885">corner_radius</tspan></text>
<g
       transform="translate(41.283,42.4)"
       id="g400"><path
         id="path402"
         style="fill:#ffffff;fill-opacity:1;fill-rule:nonzero;stroke:none"
         d="m 0,0 c 0,1.877 -1.523,3.4 -3.4,3.4 -1.877,0 -3.4,-1.523 -3.4,-3.4 0,-1.877 1.523,-3.4 3.4,-3.4 1.877,0 3.4,1.523 3.4,3.4" /></g><g
       transform="translate(41.283,42.4)"
       id="g404"><path
         id="path406"
         style="fill:none;stroke:#231f20;stroke-width:0.68000001;stroke-linecap:square;stroke-linejoin:miter;stroke-miterlimit:10;stroke-dasharray:none;stroke-opacity:1"
         d="m 0,0 c 0,1.877 -1.523,3.4 -3.4,3.4 -1.877,0 -3.4,-1.523 -3.4,-3.4 0,-1.877 1.523,-3.4 3.4,-3.4 1.877,0 3.4,1.523 3.4,3.4" /></g><g
       transform="translate(40.772,14.555)"
       id="g408"><path
         id="path410"
         style="fill:#ffffff;fill-opacity:1;fill-rule:nonzero;stroke:none"
         d="m 0,0 c 0,1.877 -1.523,3.4 -3.4,3.4 -1.877,0 -3.4,-1.523 -3.4,-3.4 0,-1.877 1.523,-3.4 3.4,-3.4 1.877,0 3.4,1.523 3.4,3.4" /></g><g
       transform="translate(40.772,14.555)"
       id="g412"><path
         id="path414"
         style="fill:none;stroke:#231f20;stroke-width:0.68000001;stroke-linecap:square;stroke-linejoin:miter;stroke-miterlimit:10;stroke-dasharray:none;stroke-opacity:1"
         d="m 0,0 c 0,1.877 -1.523,3.4 -3.4,3.4 -1.877,0 -3.4,-1.523 -3.4,-3.4 0,-1.877 1.523,-3.4 3.4,-3.4 1.877,0 3.4,1.523 3.4,3.4" /></g><g
       transform="translate(41.078,84.629)"
       id="g416"><path
         id="path418"
         style="fill:#ffffff;fill-opacity:1;fill-rule:nonzero;stroke:none"
         d="m 0,0 c 0,1.877 -1.523,3.4 -3.4,3.4 -1.877,0 -3.4,-1.523 -3.4,-3.4 0,-1.877 1.523,-3.4 3.4,-3.4 1.877,0 3.4,1.523 3.4,3.4" /></g><g
       transform="translate(41.078,84.629)"
       id="g420"><path
         id="path422"
         style="fill:none;stroke:#231f20;stroke-width:0.68000001;stroke-linecap:square;stroke-linejoin:miter;stroke-miterlimit:10;stroke-dasharray:none;stroke-opacity:1"
         d="m 0,0 c 0,1.877 -1.523,3.4 -3.4,3.4 -1.877,0 -3.4,-1.523 -3.4,-3.4 0,-1.877 1.523,-3.4 3.4,-3.4 1.877,0 3.4,1.523 3.4,3.4" /></g></g></svg>