<?xml version="1.0" encoding="UTF-8" standalone="no"?>
<svg
   xmlns:dc="http://purl.org/dc/elements/1.1/"
   xmlns:cc="http://creativecommons.org/ns#"
   xmlns:rdf="http://www.w3.org/1999/02/22-rdf-syntax-ns#"
   xmlns:svg="http://www.w3.org/2000/svg"
   xmlns="http://www.w3.org/2000/svg"
   viewBox="0 0 428.63068 445.70801"
   height="445.70801"
   width="428.63068"
   xml:space="preserve"
   id="svg2"
   version="1.1"><metadata
     id="metadata8"><rdf:RDF><cc:Work
         rdf:about=""><dc:format>image/svg+xml</dc:format><dc:type
           rdf:resource="http://purl.org/dc/dcmitype/StillImage" /></cc:Work></rdf:RDF></metadata><defs
     id="defs6" /><g
     transform="matrix(1.3333333,0,0,-1.3333333,0,445.708)"
     id="g10"><g
       transform="translate(1.02,256.21)"
       id="g12"><path
         id="path14"
         style="fill:none;stroke:#231f20;stroke-width:2.03999996;stroke-linecap:square;stroke-linejoin:miter;stroke-miterlimit:10;stroke-dasharray:none;stroke-opacity:1"
         d="M 0,0 V -11.938" /><g
         transform="translate(0,-64.703)"
         id="g16"><path
           id="path18"
           style="fill:none;stroke:#231f20;stroke-width:2.03999996;stroke-linecap:square;stroke-linejoin:miter;stroke-miterlimit:10;stroke-dasharray:none;stroke-opacity:1"
           d="M 0,0 V 52.765" /><g
           transform="translate(0,-128.137)"
           id="g20"><path
             id="path22"
             style="fill:none;stroke:#231f20;stroke-width:2.03999996;stroke-linecap:square;stroke-linejoin:miter;stroke-miterlimit:10;stroke-dasharray:none;stroke-opacity:1"
             d="M 0,0 V 180.902" /></g></g></g><g
       transform="translate(94.967,319.318)"
       id="g24"><path
         id="path26"
         style="fill:none;stroke:#231f20;stroke-width:0.68000001;stroke-linecap:square;stroke-linejoin:miter;stroke-miterlimit:10;stroke-dasharray:none;stroke-opacity:1"
         d="M 0,0 V -9.01" /></g><path
       id="path28"
       style="fill:none;stroke:#231f20;stroke-width:0.68000001;stroke-linecap:square;stroke-linejoin:miter;stroke-miterlimit:10;stroke-dasharray:3.4, 3.4;stroke-dashoffset:0;stroke-opacity:1"
       d="m 179.694,296.538 h -70.8 m 70.8,-21.419 h -70.8" /><g
       transform="translate(59.594,256.21)"
       id="g30"><path
         id="path32"
         style="fill:none;stroke:#231f20;stroke-width:2.03999996;stroke-linecap:square;stroke-linejoin:miter;stroke-miterlimit:10;stroke-dasharray:none;stroke-opacity:1"
         d="M 0,0 V 11.939" /><g
         transform="translate(-26.268,54.092)"
         id="g34"><path
           id="path36"
           style="fill:none;stroke:#231f20;stroke-width:2.03999996;stroke-linecap:square;stroke-linejoin:miter;stroke-miterlimit:10;stroke-dasharray:none;stroke-opacity:1"
           d="M 0,0 0.382,6.639" /></g></g><g
       transform="translate(1.02,256.21)"
       id="g38"><path
         id="path40"
         style="fill:none;stroke:#231f20;stroke-width:2.03999996;stroke-linecap:square;stroke-linejoin:miter;stroke-miterlimit:10;stroke-dasharray:none;stroke-opacity:1"
         d="M 0,0 H 58.574" /><g
         transform="translate(0,-64.703)"
         id="g42"><path
           id="path44"
           style="fill:none;stroke:#231f20;stroke-width:2.03999996;stroke-linecap:square;stroke-linejoin:miter;stroke-miterlimit:10;stroke-dasharray:none;stroke-opacity:1"
           d="M 0,0 H 16.61" /></g></g><g
       transform="translate(66.589,234.597)"
       id="g46"><path
         id="path48"
         style="fill:none;stroke:#231f20;stroke-width:0.68000001;stroke-linecap:square;stroke-linejoin:miter;stroke-miterlimit:10;stroke-dasharray:none;stroke-opacity:1"
         d="M 0,0 H 102.68" /><g
         transform="translate(0,-21.42)"
         id="g50"><path
           id="path52"
           style="fill:none;stroke:#231f20;stroke-width:0.68000001;stroke-linecap:square;stroke-linejoin:miter;stroke-miterlimit:10;stroke-dasharray:none;stroke-opacity:1"
           d="M 0,0 H 80.92" /></g></g><path
       id="path54"
       style="fill:none;stroke:#231f20;stroke-width:0.68000001;stroke-linecap:square;stroke-linejoin:miter;stroke-miterlimit:10;stroke-dasharray:3.4, 3.4;stroke-dashoffset:0;stroke-opacity:1"
       d="M 66.589,191.756 H 227.75 M 66.589,170.337 H 227.75 M 66.589,148.917 H 227.75" /><g
       transform="translate(1.02,63.37)"
       id="g56"><path
         id="path58"
         style="fill:none;stroke:#231f20;stroke-width:2.03999996;stroke-linecap:square;stroke-linejoin:miter;stroke-miterlimit:10;stroke-dasharray:none;stroke-opacity:1"
         d="M 0,0 H 9.56" /></g><g
       transform="translate(72.46,119.286)"
       id="g60"><path
         id="path62"
         style="fill:none;stroke:#231f20;stroke-width:0.68000001;stroke-linecap:square;stroke-linejoin:miter;stroke-miterlimit:10;stroke-dasharray:none;stroke-opacity:1"
         d="M 0,0 H 92.48" /></g><path
       id="path64"
       style="fill:none;stroke:#231f20;stroke-width:0.68000001;stroke-linecap:square;stroke-linejoin:miter;stroke-miterlimit:10;stroke-dasharray:3.4, 3.4;stroke-dashoffset:0;stroke-opacity:1"
       d="m 72.46,97.866 h 92.48 M 72.46,76.446 h 92.48 M 72.46,55.025 H 245.18 M 72.46,33.605 H 245.18 M 72.46,12.186 h 172.72" /><path
       id="path66"
       style="fill:#ffffff;fill-opacity:1;fill-rule:nonzero;stroke:none"
       d="m 179.694,289.568 h 141.439 v 13.94 H 179.694 Z" /><g
       transform="translate(186.664,303.508)"
       id="g68"><path
         id="path70"
         style="fill:none;stroke:#231f20;stroke-width:0.68000001;stroke-linecap:square;stroke-linejoin:miter;stroke-miterlimit:10;stroke-dasharray:none;stroke-opacity:1"
         d="m 0,0 h 127.499 c 3.848,0 6.971,-3.122 6.971,-6.97 0,-3.847 -3.123,-6.97 -6.971,-6.97 H 0 c -3.848,0 -6.97,3.123 -6.97,6.97 C -6.97,-3.122 -3.848,0 0,0 Z" /></g><text
       id="text74"
       style="font-variant:normal;font-weight:normal;font-stretch:normal;font-size:9px;font-family:Times;-inkscape-font-specification:Times-Roman;writing-mode:lr-tb;fill:#231f20;fill-opacity:1;fill-rule:nonzero;stroke:none"
       transform="matrix(1,0,0,-1,190.0913,294.4287)"><tspan
         id="tspan72"
         y="0"
         x="0 4.5 9 11.25 13.5 18 22.5 27 29.25 31.5 34.497002 40.994999 46.998001 52.001999 54.999001 62.000999 65.997002 69.992996 74.492996 76.995003 81.495003 83.997002 88.497002 92.997002 97.497002 100.494 104.49 108.486 110.988 115.488 118.485 122.481">26, 157, (ABS)machining_feature</tspan></text>
<path
       id="path76"
       style="fill:#ffffff;fill-opacity:1;fill-rule:nonzero;stroke:none"
       d="m 179.694,268.148 h 141.439 v 13.939 H 179.694 Z" /><g
       transform="translate(186.664,282.088)"
       id="g78"><path
         id="path80"
         style="fill:none;stroke:#231f20;stroke-width:0.68000001;stroke-linecap:square;stroke-linejoin:miter;stroke-miterlimit:10;stroke-dasharray:none;stroke-opacity:1"
         d="m 0,0 h 127.499 c 3.848,0 6.971,-3.122 6.971,-6.969 0,-3.848 -3.123,-6.97 -6.971,-6.97 H 0 c -3.848,0 -6.97,3.122 -6.97,6.97 C -6.97,-3.122 -3.848,0 0,0 Z" /></g><text
       id="text84"
       style="font-variant:normal;font-weight:normal;font-stretch:normal;font-size:9px;font-family:Times;-inkscape-font-specification:Times-Roman;writing-mode:lr-tb;fill:#231f20;fill-opacity:1;fill-rule:nonzero;stroke:none"
       transform="matrix(1,0,0,-1,190.0913,273.0083)"><tspan
         id="tspan82"
         y="0"
         x="0 4.5 9 11.25 13.5 18 22.5 27 29.25 31.5 34.497002 40.994999 46.998001 52.001999 54.999001 62.000999 65.997002 69.992996 74.492996 76.995003 81.495003 83.997002 88.497002 92.997002 97.497002 100.494 104.49 108.486 110.988 115.488 118.485 122.481">26, 157, (ABS)machining_feature</tspan></text>
<path
       id="path86"
       style="fill:#ffffff;fill-opacity:1;fill-rule:nonzero;stroke:none"
       d="m 77.698,319.318 h 63.24 v 13.94 h -63.24 z" /><g
       transform="translate(84.668,333.258)"
       id="g88"><path
         id="path90"
         style="fill:none;stroke:#231f20;stroke-width:0.68000001;stroke-linecap:square;stroke-linejoin:miter;stroke-miterlimit:10;stroke-dasharray:none;stroke-opacity:1"
         d="m 0,0 h 49.3 c 3.847,0 6.97,-3.123 6.97,-6.97 0,-3.847 -3.123,-6.97 -6.97,-6.97 H 0 c -3.847,0 -6.97,3.123 -6.97,6.97 C -6.97,-3.123 -3.847,0 0,0 Z" /></g><text
       id="text98"
       style="font-variant:normal;font-weight:normal;font-stretch:normal;font-size:9px;font-family:Times;-inkscape-font-specification:Times-Roman;writing-mode:lr-tb;fill:#231f20;fill-opacity:1;fill-rule:nonzero;stroke:none"
       transform="matrix(1,0,0,-1,87.3188,324.1421)"><tspan
         id="tspan92"
         y="0"
         x="0 4.5 9 11.25 13.5 18 22.5 27 29.25 32.247002 36.747002 41.247002 44.243999">24, 158 (23)</tspan><tspan
         id="tspan94"
         y="37.702801"
         x="30.774599 33.591599 36.093601 39.090599 42.591599 45.093601 49.593601 52.590599 56.586601 60.5826 63.084599 67.584602 70.581596 74.577599">first_feature</tspan><tspan
         id="tspan96"
         y="59.121899"
         x="30.774599 34.2756 38.271599 42.267601 46.767601 51.267601 55.767601 60.267601 63.264599 67.260597 71.256599 73.758598 78.258598 81.2556 85.251602">second_feature</tspan></text>
<path
       id="path100"
       style="fill:#ffffff;fill-opacity:1;fill-rule:nonzero;stroke:none"
       d="m 10.293,268.148 h 98.6 v 35.359 h -98.6 z" /><g
       transform="translate(10.293,303.508)"
       id="g102"><path
         id="path104"
         style="fill:none;stroke:#231f20;stroke-width:0.68000001;stroke-linecap:square;stroke-linejoin:miter;stroke-miterlimit:10;stroke-dasharray:none;stroke-opacity:1"
         d="M 98.6,0 H 0 v -35.359 h 98.6 z" /><g
         id="g106"><path
           id="path108"
           style="fill:none;stroke:#231f20;stroke-width:0.68000001;stroke-linecap:square;stroke-linejoin:miter;stroke-miterlimit:10;stroke-dasharray:none;stroke-opacity:1"
           d="M 0,0 Z" /></g></g><text
       id="text112"
       style="font-variant:normal;font-weight:normal;font-stretch:normal;font-size:9px;font-family:Times;-inkscape-font-specification:Times-Roman;writing-mode:lr-tb;fill:#231f20;fill-opacity:1;fill-rule:nonzero;stroke:none"
       transform="matrix(1,0,0,-1,17.1899,283.666)"><tspan
         id="tspan110"
         y="0"
         x="0 2.997 9.4949999 15.498 20.502001 23.499001 26.000999 28.997999 32.993999 37.493999 40.994999 43.497002 45.999001 48.500999 53.000999 57.500999 62.000999 64.998001 68.994003 72.989998 75.491997 79.991997 82.988998 86.985001">(ABS)transition_feature</tspan></text>
<g
       transform="translate(98.393,306.872)"
       id="g114"><path
         id="path116"
         style="fill:#ffffff;fill-opacity:1;fill-rule:nonzero;stroke:none"
         d="m 0,0 c 0,1.877 -1.523,3.4 -3.4,3.4 -1.877,0 -3.4,-1.523 -3.4,-3.4 0,-1.877 1.523,-3.4 3.4,-3.4 1.877,0 3.4,1.523 3.4,3.4" /></g><g
       transform="translate(98.393,306.872)"
       id="g118"><path
         id="path120"
         style="fill:none;stroke:#231f20;stroke-width:0.68000001;stroke-linecap:square;stroke-linejoin:miter;stroke-miterlimit:10;stroke-dasharray:none;stroke-opacity:1"
         d="m 0,0 c 0,1.877 -1.523,3.4 -3.4,3.4 -1.877,0 -3.4,-1.523 -3.4,-3.4 0,-1.877 1.523,-3.4 3.4,-3.4 1.877,0 3.4,1.523 3.4,3.4" /></g><path
       id="path122"
       style="fill:#ffffff;fill-opacity:1;fill-rule:nonzero;stroke:none"
       d="m 5.8276,316.941 h 55.76 v 17 h -55.76 z" /><g
       transform="translate(14.328,333.941)"
       id="g124"><path
         id="path126"
         style="fill:none;stroke:#231f20;stroke-width:0.68000001;stroke-linecap:square;stroke-linejoin:miter;stroke-miterlimit:10;stroke-dasharray:none;stroke-opacity:1"
         d="m 0,0 h 38.76 c 4.692,0 8.5,-3.808 8.5,-8.5 0,-4.692 -3.808,-8.5 -8.5,-8.5 H 0 c -4.6924,0 -8.5,3.808 -8.5,8.5 0,4.692 3.8076,8.5 8.5,8.5 z" /></g><text
       id="text130"
       style="font-variant:normal;font-weight:normal;font-stretch:normal;font-size:9px;font-family:Times;-inkscape-font-specification:Times-Roman;writing-mode:lr-tb;fill:#231f20;fill-opacity:1;fill-rule:nonzero;stroke:none"
       transform="matrix(1,0,0,-1,16.2451,323.2944)"><tspan
         id="tspan128"
         y="0"
         x="0 4.5 9 11.25 13.5 18 20.25 23.247 27.747 32.247002 35.243999">24, 0 (23)</tspan></text>
<g
       transform="translate(36.581,306.872)"
       id="g132"><path
         id="path134"
         style="fill:#ffffff;fill-opacity:1;fill-rule:nonzero;stroke:none"
         d="m 0,0 c 0,1.877 -1.523,3.4 -3.4,3.4 -1.877,0 -3.4,-1.523 -3.4,-3.4 0,-1.877 1.523,-3.4 3.4,-3.4 1.877,0 3.4,1.523 3.4,3.4" /></g><g
       transform="translate(36.581,306.872)"
       id="g136"><path
         id="path138"
         style="fill:none;stroke:#231f20;stroke-width:0.68000001;stroke-linecap:square;stroke-linejoin:miter;stroke-miterlimit:10;stroke-dasharray:none;stroke-opacity:1"
         d="m 0,0 c 0,1.877 -1.523,3.4 -3.4,3.4 -1.877,0 -3.4,-1.523 -3.4,-3.4 0,-1.877 1.523,-3.4 3.4,-3.4 1.877,0 3.4,1.523 3.4,3.4" /></g><path
       id="path140"
       style="fill:#ffffff;fill-opacity:1;fill-rule:nonzero;stroke:none"
       d="m 24.43,141.946 h 42.16 v 99.621 H 24.43 Z" /><g
       transform="translate(24.43,241.567)"
       id="g142"><path
         id="path144"
         style="fill:none;stroke:#231f20;stroke-width:0.68000001;stroke-linecap:square;stroke-linejoin:miter;stroke-miterlimit:10;stroke-dasharray:none;stroke-opacity:1"
         d="M 42.16,0 H 0 v -99.621 h 42.16 z" /><g
         id="g146"><path
           id="path148"
           style="fill:none;stroke:#231f20;stroke-width:0.68000001;stroke-linecap:square;stroke-linejoin:miter;stroke-miterlimit:10;stroke-dasharray:none;stroke-opacity:1"
           d="M 0,0 Z" /></g></g><text
       id="text152"
       style="font-variant:normal;font-weight:normal;font-stretch:normal;font-size:9px;font-family:Times;-inkscape-font-specification:Times-Roman;writing-mode:lr-tb;fill:#231f20;fill-opacity:1;fill-rule:nonzero;stroke:none"
       transform="matrix(1,0,0,-1,30.7725,188.8476)"><tspan
         id="tspan150"
         y="0"
         x="0 3.9960001 8.4960003 12.492 19.493999 22.490999 26.487 29.483999">chamfer</tspan></text>
<g
       transform="translate(24.443,191.51)"
       id="g154"><path
         id="path156"
         style="fill:#ffffff;fill-opacity:1;fill-rule:nonzero;stroke:none"
         d="m 0,0 c 0,1.877 -1.523,3.4 -3.4,3.4 -1.877,0 -3.4,-1.523 -3.4,-3.4 0,-1.877 1.523,-3.4 3.4,-3.4 1.877,0 3.4,1.523 3.4,3.4" /></g><g
       transform="translate(24.443,191.51)"
       id="g158"><path
         id="path160"
         style="fill:none;stroke:#231f20;stroke-width:0.68000001;stroke-linecap:square;stroke-linejoin:miter;stroke-miterlimit:10;stroke-dasharray:none;stroke-opacity:1"
         d="m 0,0 c 0,1.877 -1.523,3.4 -3.4,3.4 -1.877,0 -3.4,-1.523 -3.4,-3.4 0,-1.877 1.523,-3.4 3.4,-3.4 1.877,0 3.4,1.523 3.4,3.4" /></g><path
       id="path162"
       style="fill:#ffffff;fill-opacity:1;fill-rule:nonzero;stroke:none"
       d="m 169.269,227.626 h 127.16 v 13.941 h -127.16 z" /><g
       transform="translate(176.24,241.567)"
       id="g164"><path
         id="path166"
         style="fill:none;stroke:#231f20;stroke-width:0.68000001;stroke-linecap:square;stroke-linejoin:miter;stroke-miterlimit:10;stroke-dasharray:none;stroke-opacity:1"
         d="m 0,0 h 113.22 c 3.847,0 6.969,-3.123 6.969,-6.97 0,-3.848 -3.122,-6.971 -6.969,-6.971 H 0 c -3.848,0 -6.971,3.123 -6.971,6.971 C -6.971,-3.123 -3.848,0 0,0 Z" /></g><text
       id="text170"
       style="font-variant:normal;font-weight:normal;font-stretch:normal;font-size:9px;font-family:Times;-inkscape-font-specification:Times-Roman;writing-mode:lr-tb;fill:#231f20;fill-opacity:1;fill-rule:nonzero;stroke:none"
       transform="matrix(1,0,0,-1,176.603,232.5644)"><tspan
         id="tspan168"
         y="0"
         x="0 4.5 9 11.25 13.5 18 22.5 27 29.25 31.5 36 38.501999 42.498001 46.998001 50.993999 55.493999 59.490002 63.990002 68.489998 70.991997 74.987999 79.487999 86.489998 90.486 94.482002 97.983002 102.483 105.48 109.476">45, 140, plane_angle_measure</tspan></text>
<path
       id="path172"
       style="fill:#ffffff;fill-opacity:1;fill-rule:nonzero;stroke:none"
       d="m 147.51,206.206 h 148.92 v 13.941 H 147.51 Z" /><g
       transform="translate(154.48,220.147)"
       id="g174"><path
         id="path176"
         style="fill:none;stroke:#231f20;stroke-width:0.68000001;stroke-linecap:square;stroke-linejoin:miter;stroke-miterlimit:10;stroke-dasharray:none;stroke-opacity:1"
         d="m 0,0 h 134.979 c 3.848,0 6.97,-3.123 6.97,-6.97 0,-3.847 -3.122,-6.971 -6.97,-6.971 L 0,-13.941 c -3.848,0 -6.97,3.124 -6.97,6.971 C -6.97,-3.123 -3.848,0 0,0 Z" /></g><text
       id="text180"
       style="font-variant:normal;font-weight:normal;font-stretch:normal;font-size:9px;font-family:Times;-inkscape-font-specification:Times-Roman;writing-mode:lr-tb;fill:#231f20;fill-opacity:1;fill-rule:nonzero;stroke:none"
       transform="matrix(1,0,0,-1,155.519,211.1455)"><tspan
         id="tspan178"
         y="0"
         x="0 4.5 9 11.25 13.5 18 22.5 27 29.25 31.5 34.001999 38.501999 41.004002 45 47.997002 51.993 56.493 60.488998 64.485001 68.985001 73.485001 75.987 79.983002 84.483002 88.983002 91.485001 95.985001 100.485 107.487 111.483 115.479 118.98 123.48 126.477 130.47301">45, 123, toleranced_length_measure</tspan></text>
<path
       id="path182"
       style="fill:#ffffff;fill-opacity:1;fill-rule:nonzero;stroke:none"
       d="m 227.75,184.786 h 68.68 v 13.94 h -68.68 z" /><g
       transform="translate(234.719,198.726)"
       id="g184"><path
         id="path186"
         style="fill:none;stroke:#231f20;stroke-width:0.68000001;stroke-linecap:square;stroke-linejoin:miter;stroke-miterlimit:10;stroke-dasharray:none;stroke-opacity:1"
         d="m 0,0 h 54.74 c 3.848,0 6.97,-3.123 6.97,-6.971 0,-3.846 -3.122,-6.968 -6.97,-6.968 H 0 c -3.848,0 -6.97,3.122 -6.97,6.968 C -6.97,-3.123 -3.848,0 0,0 Z" /></g><text
       id="text190"
       style="font-variant:normal;font-weight:normal;font-stretch:normal;font-size:9px;font-family:Times;-inkscape-font-specification:Times-Roman;writing-mode:lr-tb;fill:#231f20;fill-opacity:1;fill-rule:nonzero;stroke:none"
       transform="matrix(1,0,0,-1,238.4985,189.3867)"><tspan
         id="tspan188"
         y="0"
         x="0 4.5 9 11.25 13.5 18 22.5 27 29.25 31.5 34.407001 38.403 42.398998 46.395">47, 121, face</tspan></text>
<path
       id="path192"
       style="fill:#ffffff;fill-opacity:1;fill-rule:nonzero;stroke:none"
       d="m 227.75,163.367 h 68.68 v 13.939 h -68.68 z" /><g
       transform="translate(234.719,177.307)"
       id="g194"><path
         id="path196"
         style="fill:none;stroke:#231f20;stroke-width:0.68000001;stroke-linecap:square;stroke-linejoin:miter;stroke-miterlimit:10;stroke-dasharray:none;stroke-opacity:1"
         d="m 0,0 h 54.74 c 3.848,0 6.97,-3.122 6.97,-6.97 0,-3.847 -3.122,-6.969 -6.97,-6.969 H 0 c -3.848,0 -6.97,3.122 -6.97,6.969 C -6.97,-3.122 -3.848,0 0,0 Z" /></g><text
       id="text200"
       style="font-variant:normal;font-weight:normal;font-stretch:normal;font-size:9px;font-family:Times;-inkscape-font-specification:Times-Roman;writing-mode:lr-tb;fill:#231f20;fill-opacity:1;fill-rule:nonzero;stroke:none"
       transform="matrix(1,0,0,-1,238.4985,167.9658)"><tspan
         id="tspan198"
         y="0"
         x="0 4.5 9 11.25 13.5 18 22.5 27 29.25 31.5 34.407001 38.403 42.398998 46.395">47, 121, face</tspan></text>
<path
       id="path202"
       style="fill:#ffffff;fill-opacity:1;fill-rule:nonzero;stroke:none"
       d="m 227.75,141.946 h 68.68 v 13.94 h -68.68 z" /><g
       transform="translate(234.719,155.887)"
       id="g204"><path
         id="path206"
         style="fill:none;stroke:#231f20;stroke-width:0.68000001;stroke-linecap:square;stroke-linejoin:miter;stroke-miterlimit:10;stroke-dasharray:none;stroke-opacity:1"
         d="m 0,0 h 54.74 c 3.848,0 6.97,-3.122 6.97,-6.97 0,-3.847 -3.122,-6.97 -6.97,-6.97 H 0 c -3.848,0 -6.97,3.123 -6.97,6.97 C -6.97,-3.122 -3.848,0 0,0 Z" /></g><text
       id="text220"
       style="font-variant:normal;font-weight:normal;font-stretch:normal;font-size:9px;font-family:Times;-inkscape-font-specification:Times-Roman;writing-mode:lr-tb;fill:#231f20;fill-opacity:1;fill-rule:nonzero;stroke:none"
       transform="matrix(1,0,0,-1,238.4985,146.5459)"><tspan
         id="tspan208"
         y="0"
         x="0 4.5 9 11.25 13.5 18 22.5 27 29.25 31.5 34.407001 38.403 42.398998 46.395">47, 121, face</tspan><tspan
         id="tspan210"
         y="-78.090302"
         x="-165.1086 -161.11259 -156.61259 -152.11259 -149.6106 -145.61459 -141.11459 -138.61259 -134.11259 -129.61259 -125.1126 -122.6106 -118.6146 -114.1146 -110.1186">angle_to_plane</tspan><tspan
         id="tspan212"
         y="-56.5326"
         x="-165.1086 -162.2916 -159.7896 -156.7926 -153.2916 -150.7896 -146.2896 -141.7896 -139.01759 -136.0206 -132.51961 -128.52361 -126.0216 -121.5216 -117.5256 -110.5236 -106.0236 -101.5236 -97.023598 -94.521599">first_offset_amount</tspan><tspan
         id="tspan214"
         y="-34.987499"
         x="-165.1086 -161.11259 -156.61259 -152.61659 -145.61459 -142.6176 -138.6216 -135.6246 -131.1246 -128.21761 -124.2216 -120.2256 -116.2296 -113.9796 -108.9756 -105.9786 -101.4786 -98.976601 -94.980598 -91.983597">chamfer_face S[1:?]</tspan><tspan
         id="tspan216"
         y="-13.5675"
         x="-165.1086 -162.2916 -159.7896 -156.7926 -153.2916 -150.7896 -146.2896 -143.3826 -139.3866 -135.39059 -131.39461 -126.8946 -123.3936 -118.8936 -114.8976 -110.3976 -106.4016 -104.1516 -99.147598 -96.150597 -91.650597 -89.148598 -85.152603 -82.155602">first_face_shape S[1:?]</tspan><tspan
         id="tspan218"
         y="7.8534002"
         x="-165.1086 -161.6076 -157.6116 -153.6156 -149.1156 -144.6156 -140.1156 -135.6156 -132.7086 -128.7126 -124.7166 -120.7206 -116.2206 -112.7196 -108.2196 -104.2236 -99.723602 -95.7276 -93.4776 -88.473602 -85.476601 -80.976601 -78.474602 -74.4786 -71.481598">second_face_shape S[1:?]</tspan></text>
<path
       id="path222"
       style="fill:#ffffff;fill-opacity:1;fill-rule:nonzero;stroke:none"
       d="m 17.38,5.2158 h 55.081 v 121.04 H 17.38 Z" /><g
       transform="translate(17.38,126.256)"
       id="g224"><path
         id="path226"
         style="fill:none;stroke:#231f20;stroke-width:0.68000001;stroke-linecap:square;stroke-linejoin:miter;stroke-miterlimit:10;stroke-dasharray:none;stroke-opacity:1"
         d="M 55.081,0 H 0 v -121.04 h 55.081 z" /><g
         id="g228"><path
           id="path230"
           style="fill:none;stroke:#231f20;stroke-width:0.68000001;stroke-linecap:square;stroke-linejoin:miter;stroke-miterlimit:10;stroke-dasharray:none;stroke-opacity:1"
           d="M 0,0 Z" /></g></g><text
       id="text234"
       style="font-variant:normal;font-weight:normal;font-stretch:normal;font-size:9px;font-family:Times;-inkscape-font-specification:Times-Roman;writing-mode:lr-tb;fill:#231f20;fill-opacity:1;fill-rule:nonzero;stroke:none"
       transform="matrix(1,0,0,-1,23.1455,63.7041)"><tspan
         id="tspan232"
         y="0"
         x="0 3.9960001 8.4960003 12.996 16.992001 21.492001 24.489 28.989 33.488998 37.988998 42.488998">edge_round</tspan></text>
<g
       transform="translate(17.406,63.398)"
       id="g236"><path
         id="path238"
         style="fill:#ffffff;fill-opacity:1;fill-rule:nonzero;stroke:none"
         d="m 0,0 c 0,1.876 -1.523,3.399 -3.4,3.399 -1.877,0 -3.4,-1.523 -3.4,-3.399 0,-1.877 1.523,-3.4 3.4,-3.4 1.877,0 3.4,1.523 3.4,3.4" /></g><g
       transform="translate(17.406,63.398)"
       id="g240"><path
         id="path242"
         style="fill:none;stroke:#231f20;stroke-width:0.68000001;stroke-linecap:square;stroke-linejoin:miter;stroke-miterlimit:10;stroke-dasharray:none;stroke-opacity:1"
         d="m 0,0 c 0,1.876 -1.523,3.399 -3.4,3.399 -1.877,0 -3.4,-1.523 -3.4,-3.399 0,-1.877 1.523,-3.4 3.4,-3.4 1.877,0 3.4,1.523 3.4,3.4" /></g><text
       id="text246"
       style="font-variant:normal;font-weight:normal;font-stretch:normal;font-size:9px;font-family:Times;-inkscape-font-specification:Times-Roman;writing-mode:lr-tb;fill:#231f20;fill-opacity:1;fill-rule:nonzero;stroke:none"
       transform="matrix(1,0,0,-1,3.0605,243.3603)"><tspan
         id="tspan244"
         y="0"
         x="0 4.5">1</tspan></text>
<path
       id="path248"
       style="fill:#ffffff;fill-opacity:1;fill-rule:nonzero;stroke:none"
       d="m 164.94,112.316 h 148.92 v 13.939 H 164.94 Z" /><g
       transform="translate(171.911,126.256)"
       id="g250"><path
         id="path252"
         style="fill:none;stroke:#231f20;stroke-width:0.68000001;stroke-linecap:square;stroke-linejoin:miter;stroke-miterlimit:10;stroke-dasharray:none;stroke-opacity:1"
         d="m 0,0 h 134.979 c 3.848,0 6.97,-3.122 6.97,-6.97 0,-3.847 -3.122,-6.969 -6.97,-6.969 H 0 c -3.847,0 -6.97,3.122 -6.97,6.969 C -6.97,-3.122 -3.847,0 0,0 Z" /></g><text
       id="text256"
       style="font-variant:normal;font-weight:normal;font-stretch:normal;font-size:9px;font-family:Times;-inkscape-font-specification:Times-Roman;writing-mode:lr-tb;fill:#231f20;fill-opacity:1;fill-rule:nonzero;stroke:none"
       transform="matrix(1,0,0,-1,172.9497,117.2539)"><tspan
         id="tspan254"
         y="0"
         x="0 4.5 9 11.25 13.5 18 22.5 27 29.25 31.5 34.001999 38.501999 41.004002 45 47.997002 51.993 56.493 60.488998 64.485001 68.985001 73.485001 75.987 79.983002 84.483002 88.983002 91.485001 95.985001 100.485 107.487 111.483 115.479 118.98 123.48 126.477 130.47301">45, 123, toleranced_length_measure</tspan></text>
<path
       id="path258"
       style="fill:#ffffff;fill-opacity:1;fill-rule:nonzero;stroke:none"
       d="m 164.94,90.895 h 148.92 v 13.94 H 164.94 Z" /><g
       transform="translate(171.911,104.836)"
       id="g260"><path
         id="path262"
         style="fill:none;stroke:#231f20;stroke-width:0.68000001;stroke-linecap:square;stroke-linejoin:miter;stroke-miterlimit:10;stroke-dasharray:none;stroke-opacity:1"
         d="m 0,0 h 134.979 c 3.848,0 6.97,-3.122 6.97,-6.97 0,-3.847 -3.122,-6.97 -6.97,-6.97 H 0 c -3.847,0 -6.97,3.123 -6.97,6.97 C -6.97,-3.122 -3.847,0 0,0 Z" /></g><text
       id="text266"
       style="font-variant:normal;font-weight:normal;font-stretch:normal;font-size:9px;font-family:Times;-inkscape-font-specification:Times-Roman;writing-mode:lr-tb;fill:#231f20;fill-opacity:1;fill-rule:nonzero;stroke:none"
       transform="matrix(1,0,0,-1,172.9497,95.834)"><tspan
         id="tspan264"
         y="0"
         x="0 4.5 9 11.25 13.5 18 22.5 27 29.25 31.5 34.001999 38.501999 41.004002 45 47.997002 51.993 56.493 60.488998 64.485001 68.985001 73.485001 75.987 79.983002 84.483002 88.983002 91.485001 95.985001 100.485 107.487 111.483 115.479 118.98 123.48 126.477 130.47301">45, 134, toleranced_length_measure</tspan></text>
<path
       id="path268"
       style="fill:#ffffff;fill-opacity:1;fill-rule:nonzero;stroke:none"
       d="m 164.94,69.476 h 148.92 v 13.94 H 164.94 Z" /><g
       transform="translate(171.911,83.416)"
       id="g270"><path
         id="path272"
         style="fill:none;stroke:#231f20;stroke-width:0.68000001;stroke-linecap:square;stroke-linejoin:miter;stroke-miterlimit:10;stroke-dasharray:none;stroke-opacity:1"
         d="m 0,0 h 134.979 c 3.848,0 6.97,-3.123 6.97,-6.97 0,-3.847 -3.122,-6.97 -6.97,-6.97 H 0 c -3.847,0 -6.97,3.123 -6.97,6.97 C -6.97,-3.123 -3.847,0 0,0 Z" /></g><text
       id="text276"
       style="font-variant:normal;font-weight:normal;font-stretch:normal;font-size:9px;font-family:Times;-inkscape-font-specification:Times-Roman;writing-mode:lr-tb;fill:#231f20;fill-opacity:1;fill-rule:nonzero;stroke:none"
       transform="matrix(1,0,0,-1,172.9497,74.414)"><tspan
         id="tspan274"
         y="0"
         x="0 4.5 9 11.25 13.5 18 22.5 27 29.25 31.5 34.001999 38.501999 41.004002 45 47.997002 51.993 56.493 60.488998 64.485001 68.985001 73.485001 75.987 79.983002 84.483002 88.983002 91.485001 95.985001 100.485 107.487 111.483 115.479 118.98 123.48 126.477 130.47301">45, 134, toleranced_length_measure</tspan></text>
<path
       id="path278"
       style="fill:#ffffff;fill-opacity:1;fill-rule:nonzero;stroke:none"
       d="m 245.18,48.056 h 68.68 v 13.941 h -68.68 z" /><g
       transform="translate(252.15,61.996)"
       id="g280"><path
         id="path282"
         style="fill:none;stroke:#231f20;stroke-width:0.68000001;stroke-linecap:square;stroke-linejoin:miter;stroke-miterlimit:10;stroke-dasharray:none;stroke-opacity:1"
         d="m 0,0 h 54.74 c 3.848,0 6.97,-3.123 6.97,-6.971 0,-3.846 -3.122,-6.97 -6.97,-6.97 H 0 c -3.848,0 -6.97,3.124 -6.97,6.97 C -6.97,-3.123 -3.848,0 0,0 Z" /></g><text
       id="text286"
       style="font-variant:normal;font-weight:normal;font-stretch:normal;font-size:9px;font-family:Times;-inkscape-font-specification:Times-Roman;writing-mode:lr-tb;fill:#231f20;fill-opacity:1;fill-rule:nonzero;stroke:none"
       transform="matrix(1,0,0,-1,255.9292,52.6553)"><tspan
         id="tspan284"
         y="0"
         x="0 4.5 9 11.25 13.5 18 22.5 27 29.25 31.5 34.407001 38.403 42.398998 46.395">47, 121, face</tspan></text>
<path
       id="path288"
       style="fill:#ffffff;fill-opacity:1;fill-rule:nonzero;stroke:none"
       d="m 245.18,26.637 h 68.68 v 13.939 h -68.68 z" /><g
       transform="translate(252.15,40.576)"
       id="g290"><path
         id="path292"
         style="fill:none;stroke:#231f20;stroke-width:0.68000001;stroke-linecap:square;stroke-linejoin:miter;stroke-miterlimit:10;stroke-dasharray:none;stroke-opacity:1"
         d="m 0,0 h 54.74 c 3.848,0 6.97,-3.123 6.97,-6.971 0,-3.847 -3.122,-6.968 -6.97,-6.968 H 0 c -3.848,0 -6.97,3.121 -6.97,6.968 C -6.97,-3.123 -3.848,0 0,0 Z" /></g><text
       id="text296"
       style="font-variant:normal;font-weight:normal;font-stretch:normal;font-size:9px;font-family:Times;-inkscape-font-specification:Times-Roman;writing-mode:lr-tb;fill:#231f20;fill-opacity:1;fill-rule:nonzero;stroke:none"
       transform="matrix(1,0,0,-1,255.9292,31.2353)"><tspan
         id="tspan294"
         y="0"
         x="0 4.5 9 11.25 13.5 18 22.5 27 29.25 31.5 34.407001 38.403 42.398998 46.395">47, 121, face</tspan></text>
<path
       id="path298"
       style="fill:#ffffff;fill-opacity:1;fill-rule:nonzero;stroke:none"
       d="m 245.18,5.2158 h 68.68 v 13.939 h -68.68 z" /><g
       transform="translate(252.15,19.155)"
       id="g300"><path
         id="path302"
         style="fill:none;stroke:#231f20;stroke-width:0.68000001;stroke-linecap:square;stroke-linejoin:miter;stroke-miterlimit:10;stroke-dasharray:none;stroke-opacity:1"
         d="m 0,0 h 54.74 c 3.848,0 6.97,-3.121 6.97,-6.969 0,-3.847 -3.122,-6.97 -6.97,-6.97 H 0 c -3.848,0 -6.97,3.123 -6.97,6.97 C -6.97,-3.121 -3.848,0 0,0 Z" /></g><text
       id="text318"
       style="font-variant:normal;font-weight:normal;font-stretch:normal;font-size:9px;font-family:Times;-inkscape-font-specification:Times-Roman;writing-mode:lr-tb;fill:#231f20;fill-opacity:1;fill-rule:nonzero;stroke:none"
       transform="matrix(1,0,0,-1,255.9292,9.8154)"><tspan
         id="tspan304"
         y="0"
         x="0 4.5 9 11.25 13.5 18 22.5 27 29.25 31.5 34.407001 38.403 42.398998 46.395">47, 121, face</tspan><tspan
         id="tspan306"
         y="-99.5112"
         x="-176.6682 -173.6712 -169.6752 -165.1752 -162.6732 -158.1732 -154.6722">radius</tspan><tspan
         id="tspan308"
         y="-77.952599"
         x="-176.6682 -173.8512 -171.3492 -168.3522 -164.8512 -162.3492 -157.8492 -153.3492 -150.57719 -147.5802 -144.07919 -140.08321 -137.58121 -133.08121 -129.08521 -122.0832 -117.5832 -113.0832 -108.5832 -106.0812">first_offset_amount</tspan><tspan
         id="tspan310"
         y="-56.5326"
         x="-176.6682 -173.16721 -169.1712 -165.1752 -160.6752 -156.1752 -151.6752 -147.1752 -142.6752 -139.9032 -136.9062 -133.4052 -129.40919 -126.9072 -122.4072 -118.4112 -111.4092 -106.9092 -102.4092 -97.909203 -95.407204">second_offset_amount</tspan><tspan
         id="tspan312"
         y="-34.987499"
         x="-176.6682 -172.6722 -168.1722 -163.6722 -159.67619 -155.17619 -152.1792 -147.6792 -143.1792 -138.6792 -134.1792 -129.6792 -126.7722 -122.7762 -118.7802 -114.7842 -112.5342 -107.5302 -104.5332 -100.0332 -97.531197 -93.535202 -90.5382">edge_round_face S[1:?]</tspan><tspan
         id="tspan314"
         y="-13.5675"
         x="-176.6682 -173.8512 -171.3492 -168.3522 -164.8512 -162.3492 -157.8492 -154.9422 -150.9462 -146.9502 -142.95419 -138.45419 -134.9532 -130.4532 -126.4572 -121.9572 -117.9612 -115.7112 -110.7072 -107.7102 -103.2102 -100.7082 -96.712196 -93.715202">first_face_shape S[1:?]</tspan><tspan
         id="tspan316"
         y="7.8534002"
         x="-176.6682 -173.16721 -169.1712 -165.1752 -160.6752 -156.1752 -151.6752 -147.1752 -144.2682 -140.2722 -136.2762 -132.2802 -127.7802 -124.2792 -119.7792">second_face_sha</tspan></text>
<text
       id="text322"
       style="font-variant:normal;font-weight:normal;font-stretch:normal;font-size:9px;font-family:Times;-inkscape-font-specification:Times-Roman;writing-mode:lr-tb;fill:#231f20;fill-opacity:1;fill-rule:nonzero;stroke:none"
       transform="matrix(1,0,0,-1,140.1404,1.9619)"><tspan
         id="tspan320"
         y="0"
         x="0">p</tspan></text>
<text
       id="text326"
       style="font-variant:normal;font-weight:normal;font-stretch:normal;font-size:9px;font-family:Times;-inkscape-font-specification:Times-Roman;writing-mode:lr-tb;fill:#231f20;fill-opacity:1;fill-rule:nonzero;stroke:none"
       transform="matrix(1,0,0,-1,144.6404,1.9619)"><tspan
         id="tspan324"
         y="0"
         x="0 3.9960001 6.2459998 11.25 14.247 18.747 21.249001 25.245001 28.242001">e S[1:?]</tspan></text>
</g></svg>