<?xml version="1.0" encoding="UTF-8" standalone="no"?>
<svg
   xmlns:dc="http://purl.org/dc/elements/1.1/"
   xmlns:cc="http://creativecommons.org/ns#"
   xmlns:rdf="http://www.w3.org/1999/02/22-rdf-syntax-ns#"
   xmlns:svg="http://www.w3.org/2000/svg"
   xmlns="http://www.w3.org/2000/svg"
   viewBox="0 0 435.276 344.60266"
   height="344.60266"
   width="435.276"
   xml:space="preserve"
   id="svg2"
   version="1.1"><metadata
     id="metadata8"><rdf:RDF><cc:Work
         rdf:about=""><dc:format>image/svg+xml</dc:format><dc:type
           rdf:resource="http://purl.org/dc/dcmitype/StillImage" /></cc:Work></rdf:RDF></metadata><defs
     id="defs6" /><g
     transform="matrix(1.3333333,0,0,-1.3333333,0,344.60267)"
     id="g10"><g
       transform="translate(258.117,166.812)"
       id="g12"><path
         id="path14"
         style="fill:none;stroke:#231f20;stroke-width:0.68000001;stroke-linecap:square;stroke-linejoin:miter;stroke-miterlimit:10;stroke-dasharray:none;stroke-opacity:1"
         d="M 0,0 H 13.6" /><g
         transform="translate(-125.857,-112.05)"
         id="g16"><path
           id="path18"
           style="fill:none;stroke:#231f20;stroke-width:0.68000001;stroke-linecap:square;stroke-linejoin:miter;stroke-miterlimit:10;stroke-dasharray:none;stroke-opacity:1"
           d="M 0,0 H 136" /><g
           transform="translate(-53.176,196.38)"
           id="g20"><path
             id="path22"
             style="fill:none;stroke:#231f20;stroke-width:0.68000001;stroke-linecap:square;stroke-linejoin:miter;stroke-miterlimit:10;stroke-dasharray:none;stroke-opacity:1"
             d="M 0,0 H 160.48" /><g
             transform="translate(170.533,-57.088)"
             id="g24"><path
               id="path26"
               style="fill:none;stroke:#231f20;stroke-width:0.68000001;stroke-linecap:square;stroke-linejoin:miter;stroke-miterlimit:10;stroke-dasharray:none;stroke-opacity:1"
               d="M 0,0 0.154,-13.472" /><g
               transform="translate(-72.478,-160.713)"
               id="g28"><path
                 id="path30"
                 style="fill:none;stroke:#231f20;stroke-width:0.68000001;stroke-linecap:square;stroke-linejoin:miter;stroke-miterlimit:10;stroke-dasharray:none;stroke-opacity:1"
                 d="M 0,0 H -44.88" /><g
                 transform="translate(0,-21.42)"
                 id="g32"><path
                   id="path34"
                   style="fill:none;stroke:#231f20;stroke-width:0.68000001;stroke-linecap:square;stroke-linejoin:miter;stroke-miterlimit:10;stroke-dasharray:none;stroke-opacity:1"
                   d="M 0,0 H -44.88" /><g
                   transform="translate(-28.696,217.801)"
                   id="g36"><path
                     id="path38"
                     style="fill:none;stroke:#231f20;stroke-width:0.68000001;stroke-linecap:square;stroke-linejoin:miter;stroke-miterlimit:10;stroke-dasharray:none;stroke-opacity:1"
                     d="M 0,0 H -69.36" /><g
                     transform="translate(-103.915,-13.77)"
                     id="g40"><path
                       id="path42"
                       style="fill:none;stroke:#231f20;stroke-width:0.68000001;stroke-linecap:square;stroke-linejoin:miter;stroke-miterlimit:10;stroke-dasharray:none;stroke-opacity:1"
                       d="M 0,0 V -20.261" /><g
                       transform="translate(163.844,-27.23)"
                       id="g44"><path
                         id="path46"
                         style="fill:none;stroke:#231f20;stroke-width:0.68000001;stroke-linecap:square;stroke-linejoin:miter;stroke-miterlimit:10;stroke-dasharray:none;stroke-opacity:1"
                         d="M 0,0 H -93.751" /></g></g></g></g></g></g></g></g></g><path
       id="path48"
       style="fill:none;stroke:#231f20;stroke-width:0.68000001;stroke-linecap:square;stroke-linejoin:miter;stroke-miterlimit:10;stroke-dasharray:3.4, 3.4;stroke-dashoffset:0;stroke-opacity:1"
       d="m 184.678,166.754 -70.056,0.548" /><g
       transform="translate(210.285,131.687)"
       id="g50"><path
         id="path52"
         style="fill:none;stroke:#231f20;stroke-width:0.68000001;stroke-linecap:square;stroke-linejoin:miter;stroke-miterlimit:10;stroke-dasharray:none;stroke-opacity:1"
         d="M 0,0 H -124.775" /><g
         transform="translate(-47.935,-21.42)"
         id="g54"><path
           id="path56"
           style="fill:none;stroke:#231f20;stroke-width:0.68000001;stroke-linecap:square;stroke-linejoin:miter;stroke-miterlimit:10;stroke-dasharray:none;stroke-opacity:1"
           d="M 0,0 H -76.84" /></g></g><g
       transform="translate(61.409,145.456)"
       id="g58"><path
         id="path60"
         style="fill:none;stroke:#231f20;stroke-width:2.03999996;stroke-linecap:square;stroke-linejoin:miter;stroke-miterlimit:10;stroke-dasharray:none;stroke-opacity:1"
         d="M 0,0 0.173,14.875" /></g><g
       transform="translate(208.373,188.722)"
       id="g62"><path
         id="path64"
         style="fill:none;stroke:#231f20;stroke-width:0.68000001;stroke-linecap:square;stroke-linejoin:miter;stroke-miterlimit:10;stroke-dasharray:none;stroke-opacity:1"
         d="M 0,0 V -8.14" /><g
         transform="translate(1.912,-57.035)"
         id="g66"><path
           id="path68"
           style="fill:none;stroke:#231f20;stroke-width:0.68000001;stroke-linecap:square;stroke-linejoin:miter;stroke-miterlimit:10;stroke-dasharray:none;stroke-opacity:1"
           d="M 0,0 V 12.855" /></g></g><path
       id="path70"
       style="fill:#ffffff;fill-opacity:1;fill-rule:nonzero;stroke:none"
       d="m 177.14,26.371 h 145.52 v 13.94 H 177.14 Z" /><g
       transform="translate(184.109,40.312)"
       id="g72"><path
         id="path74"
         style="fill:none;stroke:#231f20;stroke-width:0.68000001;stroke-linecap:square;stroke-linejoin:miter;stroke-miterlimit:10;stroke-dasharray:none;stroke-opacity:1"
         d="m 0,0 h 131.58 c 3.848,0 6.971,-3.123 6.971,-6.971 0,-3.846 -3.123,-6.969 -6.971,-6.969 L 0,-13.94 c -3.848,0 -6.97,3.123 -6.97,6.969 C -6.97,-3.123 -3.848,0 0,0 Z" /></g><text
       id="text78"
       style="font-variant:normal;font-weight:normal;font-stretch:normal;font-size:9px;font-family:Times;-inkscape-font-specification:Times-Roman;writing-mode:lr-tb;fill:#231f20;fill-opacity:1;fill-rule:nonzero;stroke:none"
       transform="matrix(1,0,0,-1,187.541,31.1792)"><tspan
         id="tspan76"
         y="0"
         x="0 4.5 9 11.25 13.5 18 22.5 24.75 27 29.997 36.494999 42.498001 47.501999 50.499001 56.997002 60.993 65.492996 72.495003 76.490997 78.992996 81.989998 84.491997 88.487999 92.987999 95.489998 99.989998 102.492 106.488 109.485 113.481 117.981 121.977 125.973">35, 20, (ABS)Geometric_tolerance</tspan></text>
<path
       id="path80"
       style="fill:#ffffff;fill-opacity:1;fill-rule:nonzero;stroke:none"
       d="m 177.14,4.952 h 145.52 v 13.94 H 177.14 Z" /><g
       transform="translate(184.109,18.892)"
       id="g82"><path
         id="path84"
         style="fill:none;stroke:#231f20;stroke-width:0.68000001;stroke-linecap:square;stroke-linejoin:miter;stroke-miterlimit:10;stroke-dasharray:none;stroke-opacity:1"
         d="m 0,0 h 131.58 c 3.848,0 6.971,-3.123 6.971,-6.971 0,-3.847 -3.123,-6.968 -6.971,-6.968 H 0 c -3.848,0 -6.97,3.121 -6.97,6.968 C -6.97,-3.123 -3.848,0 0,0 Z" /></g><text
       id="text88"
       style="font-variant:normal;font-weight:normal;font-stretch:normal;font-size:9px;font-family:Times;-inkscape-font-specification:Times-Roman;writing-mode:lr-tb;fill:#231f20;fill-opacity:1;fill-rule:nonzero;stroke:none"
       transform="matrix(1,0,0,-1,187.541,9.7587)"><tspan
         id="tspan86"
         y="0"
         x="0 4.5 9 11.25 13.5 18 22.5 24.75 27 29.997 36.494999 42.498001 47.501999 50.499001 56.997002 60.993 65.492996 72.495003 76.490997 78.992996 81.989998 84.491997 88.487999 92.987999 95.489998 99.989998 102.492 106.488 109.485 113.481 117.981 121.977 125.973">35, 20, (ABS)Geometric_tolerance</tspan></text>
<path
       id="path90"
       style="fill:#ffffff;fill-opacity:1;fill-rule:nonzero;stroke:none"
       d="m 148.444,222.752 h 145.519 v 13.94 H 148.444 Z" /><g
       transform="translate(155.414,236.692)"
       id="g92"><path
         id="path94"
         style="fill:none;stroke:#231f20;stroke-width:0.68000001;stroke-linecap:square;stroke-linejoin:miter;stroke-miterlimit:10;stroke-dasharray:none;stroke-opacity:1"
         d="m 0,0 h 131.581 c 3.847,0 6.968,-3.122 6.968,-6.97 0,-3.847 -3.121,-6.97 -6.968,-6.97 H 0 c -3.847,0 -6.97,3.123 -6.97,6.97 C -6.97,-3.122 -3.847,0 0,0 Z" /></g><text
       id="text98"
       style="font-variant:normal;font-weight:normal;font-stretch:normal;font-size:9px;font-family:Times;-inkscape-font-specification:Times-Roman;writing-mode:lr-tb;fill:#231f20;fill-opacity:1;fill-rule:nonzero;stroke:none"
       transform="matrix(1,0,0,-1,158.8457,227.56)"><tspan
         id="tspan96"
         y="0"
         x="0 4.5 9 11.25 13.5 18 22.5 24.75 27 29.997 36.494999 42.498001 47.501999 50.499001 56.997002 60.993 65.492996 72.495003 76.490997 78.992996 81.989998 84.491997 88.487999 92.987999 95.489998 99.989998 102.492 106.488 109.485 113.481 117.981 121.977 125.973">35, 20, (ABS)Geometric_tolerance</tspan></text>
<path
       id="path100"
       style="fill:#ffffff;fill-opacity:1;fill-rule:nonzero;stroke:none"
       d="m 162.35,103.296 h 100.64 v 13.94 H 162.35 Z" /><g
       transform="translate(169.32,117.237)"
       id="g102"><path
         id="path104"
         style="fill:none;stroke:#231f20;stroke-width:0.68000001;stroke-linecap:square;stroke-linejoin:miter;stroke-miterlimit:10;stroke-dasharray:none;stroke-opacity:1"
         d="m 0,0 h 86.7 c 3.847,0 6.97,-3.123 6.97,-6.97 0,-3.847 -3.123,-6.97 -6.97,-6.97 H 0 c -3.848,0 -6.97,3.123 -6.97,6.97 C -6.97,-3.123 -3.848,0 0,0 Z" /></g><text
       id="text108"
       style="font-variant:normal;font-weight:normal;font-stretch:normal;font-size:9px;font-family:Times;-inkscape-font-specification:Times-Roman;writing-mode:lr-tb;fill:#231f20;fill-opacity:1;fill-rule:nonzero;stroke:none"
       transform="matrix(1,0,0,-1,173.208,107.937)"><tspan
         id="tspan106"
         y="0"
         x="0 4.5 9 11.25 13.5 18 20.25 22.5 26.775 30.771 33.272999 37.772999 41.769001 46.269001 52.766998 55.269001 57.771 62.271 66.771004 71.271004 75.771004 78.273003 80.775002">45, 8, value_with_unit</tspan></text>
<path
       id="path110"
       style="fill:#ffffff;fill-opacity:1;fill-rule:nonzero;stroke:none"
       d="m 196.917,194.055 h 124.399 v 13.941 H 196.917 Z" /><g
       transform="translate(203.887,207.995)"
       id="g112"><path
         id="path114"
         style="fill:none;stroke:#231f20;stroke-width:0.68000001;stroke-linecap:square;stroke-linejoin:miter;stroke-miterlimit:10;stroke-dasharray:none;stroke-opacity:1"
         d="m 0,0 h 110.461 c 3.848,0 6.969,-3.123 6.969,-6.97 0,-3.848 -3.121,-6.971 -6.969,-6.971 L 0,-13.941 c -3.848,0 -6.97,3.123 -6.97,6.971 C -6.97,-3.123 -3.848,0 0,0 Z" /></g><text
       id="text120"
       style="font-variant:normal;font-weight:normal;font-stretch:normal;font-size:9px;font-family:Times;-inkscape-font-specification:Times-Roman;writing-mode:lr-tb;fill:#231f20;fill-opacity:1;fill-rule:nonzero;stroke:none"
       transform="matrix(1,0,0,-1,203.917,198.8789)"><tspan
         id="tspan116"
         y="0"
         x="0 4.2750001 8.5500002 10.575 12.6 16.875 21.15 23.174999 25.947001 30.222 34.497002 36.521999 38.547001 42.821999 47.097 49.122002 51.146999 55.422001 59.696999 61.722 63.747002 68.022003 72.296997 74.321999 76.347 80.622002 84.897003 86.921997 88.946999 93.222 97.497002 99.522003 101.547 105.822 110.097 112.869">37, 14 (34, 34, 34, 35, 36, 36, 39)</tspan><tspan
         id="tspan118"
         y="41.537701"
         x="-82.494904 -78.993896 -74.997902 -71.0019 -66.5019 -62.0019 -57.5019 -53.0019 -49.005901 -46.503899 -42.5079 -35.505901 -31.509899 -27.009899 -24.5079">second_element</tspan></text>
<path
       id="path122"
       style="fill:#ffffff;fill-opacity:1;fill-rule:nonzero;stroke:none"
       d="m 0.3398,4.952 h 131.92 v 56.78 H 0.3398 Z" /><g
       transform="translate(0.3398,61.732)"
       id="g124"><path
         id="path126"
         style="fill:none;stroke:#231f20;stroke-width:0.68000001;stroke-linecap:square;stroke-linejoin:miter;stroke-miterlimit:10;stroke-dasharray:none;stroke-opacity:1"
         d="M 131.92,0 H 0 v -56.78 h 131.92 z" /><g
         id="g128"><path
           id="path130"
           style="fill:none;stroke:#231f20;stroke-width:0.68000001;stroke-linecap:square;stroke-linejoin:miter;stroke-miterlimit:10;stroke-dasharray:none;stroke-opacity:1"
           d="M 0,0 Z" /></g></g><text
       id="text134"
       style="font-variant:normal;font-weight:normal;font-stretch:normal;font-size:9px;font-family:Times;-inkscape-font-specification:Times-Roman;writing-mode:lr-tb;fill:#231f20;fill-opacity:1;fill-rule:nonzero;stroke:none"
       transform="matrix(1,0,0,-1,5.3042,31.1792)"><tspan
         id="tspan132"
         y="0"
         x="0 6.4980001 10.494 14.994 21.996 25.992001 28.493999 31.490999 33.993 37.988998 42.488998 44.991001 49.491001 51.993 55.988998 58.986 62.981998 67.482002 71.477997 75.473999 79.973999 82.971001 86.967003 89.469002 93.464996 95.967003 98.469002 102.969 107.469 110.97 115.47 117.972 122.472">Geometric_tolerance_relationship</tspan></text>
<path
       id="path136"
       style="fill:#ffffff;fill-opacity:1;fill-rule:nonzero;stroke:none"
       d="m 9.7236,222.752 h 69.36 v 35.36 h -69.36 z" /><g
       transform="translate(9.7236,258.112)"
       id="g138"><path
         id="path140"
         style="fill:none;stroke:#231f20;stroke-width:0.68000001;stroke-linecap:square;stroke-linejoin:miter;stroke-miterlimit:10;stroke-dasharray:none;stroke-opacity:1"
         d="M 69.36,0 H 0 v -35.36 h 69.36 z" /><g
         id="g142"><path
           id="path144"
           style="fill:none;stroke:#231f20;stroke-width:0.68000001;stroke-linecap:square;stroke-linejoin:miter;stroke-miterlimit:10;stroke-dasharray:none;stroke-opacity:1"
           d="M 0,0 Z" /></g></g><text
       id="text148"
       style="font-variant:normal;font-weight:normal;font-stretch:normal;font-size:9px;font-family:Times;-inkscape-font-specification:Times-Roman;writing-mode:lr-tb;fill:#231f20;fill-opacity:1;fill-rule:nonzero;stroke:none"
       transform="matrix(1,0,0,-1,15.1504,238.0122)"><tspan
         id="tspan146"
         y="0"
         x="0 4.7789998 9.2790003 11.781 15.777 18.774 22.77 27.27 31.266001 35.262001 39.762001 43.757999 48.257999 52.757999 56.754002">Tolerance_zone</tspan></text>
<path
       id="path150"
       style="fill:#ffffff;fill-opacity:1;fill-rule:nonzero;stroke:none"
       d="m 8.542,160.331 h 106.08 v 35.36 H 8.542 Z" /><g
       transform="translate(8.542,195.691)"
       id="g152"><path
         id="path154"
         style="fill:none;stroke:#231f20;stroke-width:0.68000001;stroke-linecap:square;stroke-linejoin:miter;stroke-miterlimit:10;stroke-dasharray:none;stroke-opacity:1"
         d="M 106.08,0 H 0 v -35.36 h 106.08 z" /><g
         id="g156"><path
           id="path158"
           style="fill:none;stroke:#231f20;stroke-width:0.68000001;stroke-linecap:square;stroke-linejoin:miter;stroke-miterlimit:10;stroke-dasharray:none;stroke-opacity:1"
           d="M 0,0 Z" /></g></g><text
       id="text162"
       style="font-variant:normal;font-weight:normal;font-stretch:normal;font-size:9px;font-family:Times;-inkscape-font-specification:Times-Roman;writing-mode:lr-tb;fill:#231f20;fill-opacity:1;fill-rule:nonzero;stroke:none"
       transform="matrix(1,0,0,-1,13.7324,175.5512)"><tspan
         id="tspan160"
         y="0"
         x="0 4.7789998 9.2790003 11.781 15.777 18.774 22.77 27.27 31.266001 35.262001 39.762001 43.757999 48.257999 52.757999 56.754002 61.254002 65.753998 69.75 72.567001 75.069 79.569 82.070999 84.572998 87.074997 91.574997 96.074997">Tolerance_zone_definition</tspan></text>
<path
       id="path164"
       style="fill:#ffffff;fill-opacity:1;fill-rule:nonzero;stroke:none"
       d="m 37.229,103.296 h 48.28 v 35.36 h -48.28 z" /><g
       transform="translate(37.229,138.657)"
       id="g166"><path
         id="path168"
         style="fill:none;stroke:#231f20;stroke-width:0.68000001;stroke-linecap:square;stroke-linejoin:miter;stroke-miterlimit:10;stroke-dasharray:none;stroke-opacity:1"
         d="M 48.28,0 H 0 v -35.36 h 48.28 z" /><g
         id="g170"><path
           id="path172"
           style="fill:none;stroke:#231f20;stroke-width:0.68000001;stroke-linecap:square;stroke-linejoin:miter;stroke-miterlimit:10;stroke-dasharray:none;stroke-opacity:1"
           d="M 0,0 Z" /></g></g><text
       id="text176"
       style="font-variant:normal;font-weight:normal;font-stretch:normal;font-size:9px;font-family:Times;-inkscape-font-specification:Times-Roman;writing-mode:lr-tb;fill:#231f20;fill-opacity:1;fill-rule:nonzero;stroke:none"
       transform="matrix(1,0,0,-1,43.2305,118.9047)"><tspan
         id="tspan174"
         y="0"
         x="0 5.0040002 8.0010004 12.501 15.003 18.999001 22.995001 25.497 27.999001 32.499001 36.999001">Projection</tspan></text>
<g
       transform="translate(278.568,166.795)"
       id="g178"><path
         id="path180"
         style="fill:#ffffff;fill-opacity:1;fill-rule:nonzero;stroke:none"
         d="m 0,0 c 0,1.876 -1.523,3.399 -3.4,3.399 -1.877,0 -3.401,-1.523 -3.401,-3.399 0,-1.877 1.524,-3.4 3.401,-3.4 1.877,0 3.4,1.523 3.4,3.4" /></g><g
       transform="translate(278.568,166.795)"
       id="g182"><path
         id="path184"
         style="fill:none;stroke:#231f20;stroke-width:0.68000001;stroke-linecap:square;stroke-linejoin:miter;stroke-miterlimit:10;stroke-dasharray:none;stroke-opacity:1"
         d="m 0,0 c 0,1.876 -1.523,3.399 -3.4,3.399 -1.877,0 -3.401,-1.523 -3.401,-3.399 0,-1.877 1.524,-3.4 3.401,-3.4 1.877,0 3.4,1.523 3.4,3.4" /></g><g
       transform="translate(275.1,54.697)"
       id="g186"><path
         id="path188"
         style="fill:#ffffff;fill-opacity:1;fill-rule:nonzero;stroke:none"
         d="m 0,0 c 0,1.877 -1.523,3.4 -3.4,3.4 -1.875,0 -3.399,-1.523 -3.399,-3.4 0,-1.877 1.524,-3.399 3.399,-3.399 1.877,0 3.4,1.522 3.4,3.399" /></g><g
       transform="translate(275.1,54.697)"
       id="g190"><path
         id="path192"
         style="fill:none;stroke:#231f20;stroke-width:0.68000001;stroke-linecap:square;stroke-linejoin:miter;stroke-miterlimit:10;stroke-dasharray:none;stroke-opacity:1"
         d="m 0,0 c 0,1.877 -1.523,3.4 -3.4,3.4 -1.875,0 -3.399,-1.523 -3.399,-3.4 0,-1.877 1.524,-3.399 3.399,-3.399 1.877,0 3.4,1.522 3.4,3.399" /></g><g
       transform="translate(246.336,251.149)"
       id="g194"><path
         id="path196"
         style="fill:#ffffff;fill-opacity:1;fill-rule:nonzero;stroke:none"
         d="m 0,0 c 0,1.877 -1.523,3.4 -3.4,3.4 -1.877,0 -3.399,-1.523 -3.399,-3.4 0,-1.876 1.522,-3.4 3.399,-3.4 1.877,0 3.4,1.524 3.4,3.4" /></g><g
       transform="translate(246.336,251.149)"
       id="g198"><path
         id="path200"
         style="fill:none;stroke:#231f20;stroke-width:0.68000001;stroke-linecap:square;stroke-linejoin:miter;stroke-miterlimit:10;stroke-dasharray:none;stroke-opacity:1"
         d="m 0,0 c 0,1.877 -1.523,3.4 -3.4,3.4 -1.877,0 -3.399,-1.523 -3.399,-3.4 0,-1.876 1.522,-3.4 3.399,-3.4 1.877,0 3.4,1.524 3.4,3.4" /></g><g
       transform="translate(64.776,142.009)"
       id="g202"><path
         id="path204"
         style="fill:#ffffff;fill-opacity:1;fill-rule:nonzero;stroke:none"
         d="m 0,0 c 0,1.876 -1.523,3.399 -3.4,3.399 -1.877,0 -3.4,-1.523 -3.4,-3.399 0,-1.877 1.523,-3.4 3.4,-3.4 1.877,0 3.4,1.523 3.4,3.4" /></g><g
       transform="translate(64.776,142.009)"
       id="g206"><path
         id="path208"
         style="fill:none;stroke:#231f20;stroke-width:0.68000001;stroke-linecap:square;stroke-linejoin:miter;stroke-miterlimit:10;stroke-dasharray:none;stroke-opacity:1"
         d="m 0,0 c 0,1.876 -1.523,3.399 -3.4,3.399 -1.877,0 -3.4,-1.523 -3.4,-3.399 0,-1.877 1.523,-3.4 3.4,-3.4 1.877,0 3.4,1.523 3.4,3.4" /></g><g
       transform="translate(253.271,177.199)"
       id="g210"><path
         id="path212"
         style="fill:#ffffff;fill-opacity:1;fill-rule:nonzero;stroke:none"
         d="m 0,0 c 0,1.877 -1.522,3.4 -3.398,3.4 -1.877,0 -3.401,-1.523 -3.401,-3.4 0,-1.877 1.524,-3.4 3.401,-3.4 C -1.522,-3.4 0,-1.877 0,0" /></g><g
       transform="translate(253.271,177.199)"
       id="g214"><path
         id="path216"
         style="fill:none;stroke:#231f20;stroke-width:0.68000001;stroke-linecap:square;stroke-linejoin:miter;stroke-miterlimit:10;stroke-dasharray:none;stroke-opacity:1"
         d="m 0,0 c 0,1.877 -1.522,3.4 -3.398,3.4 -1.877,0 -3.401,-1.523 -3.401,-3.4 0,-1.877 1.524,-3.4 3.401,-3.4 C -1.522,-3.4 0,-1.877 0,0" /></g><text
       id="text236"
       style="font-variant:normal;font-weight:normal;font-stretch:normal;font-size:9px;font-family:Times;-inkscape-font-specification:Times-Roman;writing-mode:lr-tb;fill:#231f20;fill-opacity:1;fill-rule:nonzero;stroke:none"
       transform="matrix(1,0,0,-1,139.0596,44.8011)"><tspan
         id="tspan218"
         y="0"
         x="0 2.997 6.993 9.4949999 13.491 15.993 18.495001 22.995001 27.495001 31.995001 34.497002 38.997002 43.497002 47.493">relation_type</tspan><tspan
         id="tspan220"
         y="21.42"
         x="0 2.997 6.993 9.4949999 13.491 15.993 18.495001 22.995001 27.495001">relating</tspan><tspan
         id="tspan222"
         y="42.84"
         x="0 2.997 6.993 9.4949999 13.491 15.993 19.989 24.489">related</tspan><tspan
         id="tspan224"
         y="-196.24139"
         x="-53.175598 -50.1786 -45.6786 -42.681599 -35.6796 -31.1796 -28.677601 -24.177601 -19.677601 -15.6816">form_type</tspan><tspan
         id="tspan226"
         y="-174.6963"
         x="-53.175598 -49.1796 -44.6796 -40.1796 -36.183601 -31.683599 -28.6866 -24.1866 -21.1896 -18.9396 -13.9356 -10.9386 -6.4386001 -3.9366 0.0594 3.0564001">zone_for S[1:?]</tspan><tspan
         id="tspan228"
         y="-156.8475"
         x="-88.793098 -84.293098 -80.297096 -77.480103 -74.978104 -70.478104 -67.976097 -63.476101 -58.976101">defining</tspan><tspan
         id="tspan230"
         y="-133.821"
         x="-17.638201 -14.8212 -12.3192 -9.3221998 -5.8211999 -3.3192 1.1808 5.1767998 7.6788001 11.6748 18.6768 22.6728 27.1728 29.674801">first_element</tspan><tspan
         id="tspan232"
         y="-76.925697"
         x="-46.7505 -42.2505 -39.253502 -34.753502 -32.251499 -28.255501 -24.259501 -21.7575 -19.255501 -14.7555 -10.2555 -5.7554998 -1.7595 2.7405 7.2405">projection_end</tspan><tspan
         id="tspan234"
         y="-55.504799"
         x="-46.7505 -42.2505 -39.253502 -34.753502 -32.251499 -28.255501 -24.259501 -21.7575 -19.255501 -14.7555 -10.2555 -5.7554998 -3.2535 0.74250001 5.2424998 9.7425003 12.2445 16.744499">projection_length</tspan></text>
<path
       id="path238"
       style="fill:#ffffff;fill-opacity:1;fill-rule:nonzero;stroke:none"
       d="m 278.518,159.842 h 47.6 v 13.941 h -47.6 z" /><g
       transform="translate(278.518,173.783)"
       id="g240"><path
         id="path242"
         style="fill:none;stroke:#231f20;stroke-width:0.68000001;stroke-linecap:square;stroke-linejoin:miter;stroke-miterlimit:10;stroke-dasharray:none;stroke-opacity:1"
         d="M 47.6,0 H 0 v -13.941 h 47.6 z" /><g
         id="g244"><path
           id="path246"
           style="fill:none;stroke:#231f20;stroke-width:0.68000001;stroke-linecap:square;stroke-linejoin:miter;stroke-miterlimit:10;stroke-dasharray:none;stroke-opacity:1"
           d="M 0,0 Z" /></g></g><g
       transform="translate(319.316,159.842)"
       id="g248"><path
         id="path250"
         style="fill:none;stroke:#231f20;stroke-width:0.68000001;stroke-linecap:square;stroke-linejoin:miter;stroke-miterlimit:10;stroke-dasharray:none;stroke-opacity:1"
         d="M 0,0 V 13.941" /></g><text
       id="text254"
       style="font-variant:normal;font-weight:normal;font-stretch:normal;font-size:9px;font-family:Times;-inkscape-font-specification:Times-Roman;writing-mode:lr-tb;fill:#231f20;fill-opacity:1;fill-rule:nonzero;stroke:none"
       transform="matrix(1,0,0,-1,288.2598,164.7036)"><tspan
         id="tspan252"
         y="0"
         x="0 5.0040002 7.506 10.503 13.005 17.504999 22.004999">String</tspan></text>
<path
       id="path256"
       style="fill:#ffffff;fill-opacity:1;fill-rule:nonzero;stroke:none"
       d="m 275.059,47.791 h 47.601 v 13.94 h -47.601 z" /><g
       transform="translate(275.059,61.732)"
       id="g258"><path
         id="path260"
         style="fill:none;stroke:#231f20;stroke-width:0.68000001;stroke-linecap:square;stroke-linejoin:miter;stroke-miterlimit:10;stroke-dasharray:none;stroke-opacity:1"
         d="M 47.601,0 H 0 v -13.94 h 47.601 z" /><g
         id="g262"><path
           id="path264"
           style="fill:none;stroke:#231f20;stroke-width:0.68000001;stroke-linecap:square;stroke-linejoin:miter;stroke-miterlimit:10;stroke-dasharray:none;stroke-opacity:1"
           d="M 0,0 Z" /><g
           transform="translate(40.801,-13.94)"
           id="g266"><path
             id="path268"
             style="fill:none;stroke:#231f20;stroke-width:0.68000001;stroke-linecap:square;stroke-linejoin:miter;stroke-miterlimit:10;stroke-dasharray:none;stroke-opacity:1"
             d="M 0,0 V 13.94" /></g></g></g><text
       id="text272"
       style="font-variant:normal;font-weight:normal;font-stretch:normal;font-size:9px;font-family:Times;-inkscape-font-specification:Times-Roman;writing-mode:lr-tb;fill:#231f20;fill-opacity:1;fill-rule:nonzero;stroke:none"
       transform="matrix(1,0,0,-1,284.8027,52.6528)"><tspan
         id="tspan270"
         y="0"
         x="0 5.0040002 7.506 10.503 13.005 17.504999 22.004999">String</tspan></text>
<path
       id="path274"
       style="fill:#ffffff;fill-opacity:1;fill-rule:nonzero;stroke:none"
       d="m 246.363,244.172 h 47.6 v 13.94 h -47.6 z" /><g
       transform="translate(246.363,258.112)"
       id="g276"><path
         id="path278"
         style="fill:none;stroke:#231f20;stroke-width:0.68000001;stroke-linecap:square;stroke-linejoin:miter;stroke-miterlimit:10;stroke-dasharray:none;stroke-opacity:1"
         d="M 47.6,0 H 0 v -13.94 h 47.6 z" /><g
         id="g280"><path
           id="path282"
           style="fill:none;stroke:#231f20;stroke-width:0.68000001;stroke-linecap:square;stroke-linejoin:miter;stroke-miterlimit:10;stroke-dasharray:none;stroke-opacity:1"
           d="M 0,0 Z" /><g
           transform="translate(40.801,-13.94)"
           id="g284"><path
             id="path286"
             style="fill:none;stroke:#231f20;stroke-width:0.68000001;stroke-linecap:square;stroke-linejoin:miter;stroke-miterlimit:10;stroke-dasharray:none;stroke-opacity:1"
             d="M 0,0 V 13.94" /></g></g></g><text
       id="text290"
       style="font-variant:normal;font-weight:normal;font-stretch:normal;font-size:9px;font-family:Times;-inkscape-font-specification:Times-Roman;writing-mode:lr-tb;fill:#231f20;fill-opacity:1;fill-rule:nonzero;stroke:none"
       transform="matrix(1,0,0,-1,256.1074,249.0321)"><tspan
         id="tspan288"
         y="0"
         x="0 5.0040002 7.506 10.503 13.005 17.504999 22.004999">String</tspan></text>
<path
       id="path292"
       style="fill:#ffffff;fill-opacity:1;fill-rule:nonzero;stroke:none"
       d="m 191.478,151.342 h 66.64 v 22.441 h -66.64 z" /><path
       id="path294"
       style="fill:none;stroke:#231f20;stroke-width:0.68000001;stroke-linecap:square;stroke-linejoin:miter;stroke-miterlimit:10;stroke-dasharray:3.4, 3.4;stroke-dashoffset:0;stroke-opacity:1"
       d="m 191.478,173.783 v -22.441 h 66.639 v 22.441 z" /><text
       id="text298"
       style="font-variant:normal;font-weight:normal;font-stretch:normal;font-size:9px;font-family:Times;-inkscape-font-specification:Times-Roman;writing-mode:lr-tb;fill:#231f20;fill-opacity:1;fill-rule:nonzero;stroke:none"
       transform="matrix(1,0,0,-1,196.2207,160.3999)"><tspan
         id="tspan296"
         y="0"
         x="0 5.0040002 9.5039997 13.5 18 21.996 26.496 30.492001 32.993999 36.990002 43.992001 47.987999 52.487999 54.990002">Shape_element</tspan></text>
<g
       transform="translate(47.946,219.325)"
       id="g300"><path
         id="path302"
         style="fill:#ffffff;fill-opacity:1;fill-rule:nonzero;stroke:none"
         d="m 0,0 c 0,1.877 -1.523,3.4 -3.4,3.4 -1.877,0 -3.4,-1.523 -3.4,-3.4 0,-1.877 1.523,-3.4 3.4,-3.4 1.877,0 3.4,1.523 3.4,3.4" /></g><g
       transform="translate(47.946,219.325)"
       id="g304"><path
         id="path306"
         style="fill:none;stroke:#231f20;stroke-width:0.68000001;stroke-linecap:square;stroke-linejoin:miter;stroke-miterlimit:10;stroke-dasharray:none;stroke-opacity:1"
         d="m 0,0 c 0,1.877 -1.523,3.4 -3.4,3.4 -1.877,0 -3.4,-1.523 -3.4,-3.4 0,-1.877 1.523,-3.4 3.4,-3.4 1.877,0 3.4,1.523 3.4,3.4" /></g><g
       transform="translate(211.759,177.199)"
       id="g308"><path
         id="path310"
         style="fill:#ffffff;fill-opacity:1;fill-rule:nonzero;stroke:none"
         d="m 0,0 c 0,1.877 -1.523,3.4 -3.4,3.4 -1.876,0 -3.4,-1.523 -3.4,-3.4 0,-1.877 1.524,-3.4 3.4,-3.4 1.877,0 3.4,1.523 3.4,3.4" /></g><g
       transform="translate(211.759,177.199)"
       id="g312"><path
         id="path314"
         style="fill:none;stroke:#231f20;stroke-width:0.68000001;stroke-linecap:square;stroke-linejoin:miter;stroke-miterlimit:10;stroke-dasharray:none;stroke-opacity:1"
         d="m 0,0 c 0,1.877 -1.523,3.4 -3.4,3.4 -1.876,0 -3.4,-1.523 -3.4,-3.4 0,-1.877 1.524,-3.4 3.4,-3.4 1.877,0 3.4,1.523 3.4,3.4" /></g><g
       transform="translate(213.697,147.924)"
       id="g316"><path
         id="path318"
         style="fill:#ffffff;fill-opacity:1;fill-rule:nonzero;stroke:none"
         d="m 0,0 c 0,1.877 -1.524,3.4 -3.4,3.4 -1.877,0 -3.401,-1.523 -3.401,-3.4 0,-1.876 1.524,-3.399 3.401,-3.399 1.876,0 3.4,1.523 3.4,3.399" /></g><g
       transform="translate(213.697,147.924)"
       id="g320"><path
         id="path322"
         style="fill:none;stroke:#231f20;stroke-width:0.68000001;stroke-linecap:square;stroke-linejoin:miter;stroke-miterlimit:10;stroke-dasharray:none;stroke-opacity:1"
         d="m 0,0 c 0,1.877 -1.524,3.4 -3.4,3.4 -1.877,0 -3.401,-1.523 -3.401,-3.4 0,-1.876 1.524,-3.399 3.401,-3.399 1.876,0 3.4,1.523 3.4,3.399" /></g><g
       transform="translate(191.461,166.693)"
       id="g324"><path
         id="path326"
         style="fill:#ffffff;fill-opacity:1;fill-rule:nonzero;stroke:none"
         d="m 0,0 c 0,1.877 -1.523,3.4 -3.4,3.4 -1.877,0 -3.401,-1.523 -3.401,-3.4 0,-1.877 1.524,-3.4 3.401,-3.4 1.877,0 3.4,1.523 3.4,3.4" /></g><g
       transform="translate(191.461,166.693)"
       id="g328"><path
         id="path330"
         style="fill:none;stroke:#231f20;stroke-width:0.68000001;stroke-linecap:square;stroke-linejoin:miter;stroke-miterlimit:10;stroke-dasharray:none;stroke-opacity:1"
         d="m 0,0 c 0,1.877 -1.523,3.4 -3.4,3.4 -1.877,0 -3.401,-1.523 -3.401,-3.4 0,-1.877 1.524,-3.4 3.401,-3.4 1.877,0 3.4,1.523 3.4,3.4" /></g></g></svg>