<?xml version="1.0" encoding="UTF-8" standalone="no"?>
<svg
   xmlns:dc="http://purl.org/dc/elements/1.1/"
   xmlns:cc="http://creativecommons.org/ns#"
   xmlns:rdf="http://www.w3.org/1999/02/22-rdf-syntax-ns#"
   xmlns:svg="http://www.w3.org/2000/svg"
   xmlns="http://www.w3.org/2000/svg"
   viewBox="0 0 407.58133 449.452"
   height="449.452"
   width="407.58133"
   xml:space="preserve"
   id="svg2"
   version="1.1"><metadata
     id="metadata8"><rdf:RDF><cc:Work
         rdf:about=""><dc:format>image/svg+xml</dc:format><dc:type
           rdf:resource="http://purl.org/dc/dcmitype/StillImage" /></cc:Work></rdf:RDF></metadata><defs
     id="defs6" /><g
     transform="matrix(1.3333333,0,0,-1.3333333,0,449.452)"
     id="g10"><g
       transform="translate(14.663,240.192)"
       id="g12"><path
         id="path14"
         style="fill:none;stroke:#231f20;stroke-width:2.03999996;stroke-linecap:square;stroke-linejoin:miter;stroke-miterlimit:10;stroke-dasharray:none;stroke-opacity:1"
         d="M 0,0 V 35.527" /><g
         transform="translate(0,-159.587)"
         id="g16"><path
           id="path18"
           style="fill:none;stroke:#231f20;stroke-width:2.03999996;stroke-linecap:square;stroke-linejoin:miter;stroke-miterlimit:10;stroke-dasharray:none;stroke-opacity:1"
           d="M 0,0 V 195.114" /><g
           transform="translate(0,190.187)"
           id="g20"><path
             id="path22"
             style="fill:none;stroke:#231f20;stroke-width:2.03999996;stroke-linecap:square;stroke-linejoin:miter;stroke-miterlimit:10;stroke-dasharray:none;stroke-opacity:1"
             d="M 0,0 V 4.927" /><g
             transform="translate(29.733,-59.287)"
             id="g24"><path
               id="path26"
               style="fill:none;stroke:#231f20;stroke-width:2.03999996;stroke-linecap:square;stroke-linejoin:miter;stroke-miterlimit:10;stroke-dasharray:none;stroke-opacity:1"
               d="M 0,0 V 4.162" /><g
               transform="translate(0,-16.575)"
               id="g28"><path
                 id="path30"
                 style="fill:none;stroke:#231f20;stroke-width:2.03999996;stroke-linecap:square;stroke-linejoin:miter;stroke-miterlimit:10;stroke-dasharray:none;stroke-opacity:1"
                 d="M 0,0 V 20.737" /><g
                 transform="translate(0,-74.587)"
                 id="g32"><path
                   id="path34"
                   style="fill:none;stroke:#231f20;stroke-width:2.03999996;stroke-linecap:square;stroke-linejoin:miter;stroke-miterlimit:10;stroke-dasharray:none;stroke-opacity:1"
                   d="M 0,0 V 95.324" /><g
                   transform="translate(0,42.075)"
                   id="g36"><path
                     id="path38"
                     style="fill:none;stroke:#231f20;stroke-width:2.03999996;stroke-linecap:square;stroke-linejoin:miter;stroke-miterlimit:10;stroke-dasharray:none;stroke-opacity:1"
                     d="M 0,0 V 53.249" /><g
                     transform="translate(2.848,-118.15)"
                     id="g40"><path
                       id="path42"
                       style="fill:none;stroke:#231f20;stroke-width:2.03999996;stroke-linecap:square;stroke-linejoin:miter;stroke-miterlimit:10;stroke-dasharray:none;stroke-opacity:1"
                       d="M 0,0 V 14.361" /><g
                       transform="translate(0,-32.513)"
                       id="g44"><path
                         id="path46"
                         style="fill:none;stroke:#231f20;stroke-width:2.03999996;stroke-linecap:square;stroke-linejoin:miter;stroke-miterlimit:10;stroke-dasharray:none;stroke-opacity:1"
                         d="M 0,0 V 46.874" /></g></g></g></g></g></g></g></g></g><path
       id="path48"
       style="fill:none;stroke:#231f20;stroke-width:0.68000001;stroke-linecap:square;stroke-linejoin:miter;stroke-miterlimit:10;stroke-dasharray:3.4, 3.4;stroke-dashoffset:0;stroke-opacity:1"
       d="M 202.98,302.239 H 131.581" /><g
       transform="translate(165.054,193.185)"
       id="g50"><path
         id="path52"
         style="fill:none;stroke:#231f20;stroke-width:0.68000001;stroke-linecap:square;stroke-linejoin:miter;stroke-miterlimit:10;stroke-dasharray:none;stroke-opacity:1"
         d="M 0,0 -37.068,0.38" /><g
         transform="translate(13.387,-62.475)"
         id="g54"><path
           id="path56"
           style="fill:none;stroke:#231f20;stroke-width:0.68000001;stroke-linecap:square;stroke-linejoin:miter;stroke-miterlimit:10;stroke-dasharray:none;stroke-opacity:1"
           d="M 0,0 H -59.16" /><g
           transform="translate(-20.399,-21.421)"
           id="g58"><path
             id="path60"
             style="fill:none;stroke:#231f20;stroke-width:0.68000001;stroke-linecap:square;stroke-linejoin:miter;stroke-miterlimit:10;stroke-dasharray:none;stroke-opacity:1"
             d="M 0,0 H -38.76" /><g
             transform="translate(7.097,62.858)"
             id="g62"><path
               id="path64"
               style="fill:none;stroke:#231f20;stroke-width:0.68000001;stroke-linecap:square;stroke-linejoin:miter;stroke-miterlimit:10;stroke-dasharray:none;stroke-opacity:1"
               d="M 0,0 H -38.759" /><g
               transform="translate(20.4,-21.421)"
               id="g66"><path
                 id="path68"
                 style="fill:none;stroke:#231f20;stroke-width:0.68000001;stroke-linecap:square;stroke-linejoin:miter;stroke-miterlimit:10;stroke-dasharray:none;stroke-opacity:1"
                 d="M 0,0 H -59.16" /><g
                 transform="translate(-28.432,-97.367)"
                 id="g70"><path
                   id="path72"
                   style="fill:none;stroke:#231f20;stroke-width:0.68000001;stroke-linecap:square;stroke-linejoin:miter;stroke-miterlimit:10;stroke-dasharray:none;stroke-opacity:1"
                   d="M 0,0 H -21.08" /><g
                   transform="translate(41.479,-21.42)"
                   id="g74"><path
                     id="path76"
                     style="fill:none;stroke:#231f20;stroke-width:0.68000001;stroke-linecap:square;stroke-linejoin:miter;stroke-miterlimit:10;stroke-dasharray:none;stroke-opacity:1"
                     d="M 0,0 H -62.559" /><g
                     transform="translate(-18.954,-20.018)"
                     id="g78"><path
                       id="path80"
                       style="fill:none;stroke:#231f20;stroke-width:0.68000001;stroke-linecap:square;stroke-linejoin:miter;stroke-miterlimit:10;stroke-dasharray:none;stroke-opacity:1"
                       d="M 0,0 H -39.44" /><g
                       transform="translate(-57.171,258.314)"
                       id="g82"><path
                         id="path84"
                         style="fill:none;stroke:#231f20;stroke-width:0.68000001;stroke-linecap:square;stroke-linejoin:miter;stroke-miterlimit:10;stroke-dasharray:none;stroke-opacity:1"
                         d="M 0,0 H -34.68" /></g></g></g></g></g></g></g></g></g><g
       transform="translate(14.51,284.644)"
       id="g86"><path
         id="path88"
         style="fill:none;stroke:#231f20;stroke-width:2.03999996;stroke-linecap:square;stroke-linejoin:miter;stroke-miterlimit:10;stroke-dasharray:none;stroke-opacity:1"
         d="M 0,0 V 8.925" /><g
         transform="translate(29.325,-60.095)"
         id="g90"><path
           id="path92"
           style="fill:none;stroke:#231f20;stroke-width:2.03999996;stroke-linecap:square;stroke-linejoin:miter;stroke-miterlimit:10;stroke-dasharray:none;stroke-opacity:1"
           d="M 0,0 V 8.883" /><g
           transform="translate(3.825,-158.313)"
           id="g94"><path
             id="path96"
             style="fill:none;stroke:#231f20;stroke-width:2.03999996;stroke-linecap:square;stroke-linejoin:miter;stroke-miterlimit:10;stroke-dasharray:none;stroke-opacity:1"
             d="M 0,0 V 7.607" /></g></g></g><path
       id="path98"
       style="fill:none;stroke:#231f20;stroke-width:0.68000001;stroke-linecap:square;stroke-linejoin:miter;stroke-miterlimit:10;stroke-dasharray:3.4, 3.4;stroke-dashoffset:0;stroke-opacity:1"
       d="m 49.3,316.009 v 6.8" /><g
       transform="translate(157.106,53.359)"
       id="g100"><path
         id="path102"
         style="fill:none;stroke:#231f20;stroke-width:0.68000001;stroke-linecap:square;stroke-linejoin:miter;stroke-miterlimit:10;stroke-dasharray:none;stroke-opacity:1"
         d="M 0,0 H 21.079" /><g
         id="g104"><path
           id="path106"
           style="fill:none;stroke:#231f20;stroke-width:0.68000001;stroke-linecap:square;stroke-linejoin:miter;stroke-miterlimit:10;stroke-dasharray:none;stroke-opacity:1"
           d="M 0,0 V 0" /></g></g><g
       transform="translate(28.926,240.192)"
       id="g108"><path
         id="path110"
         style="fill:none;stroke:#231f20;stroke-width:2.03999996;stroke-linecap:square;stroke-linejoin:miter;stroke-miterlimit:10;stroke-dasharray:none;stroke-opacity:1"
         d="M 0,0 H -14.263" /><g
         transform="translate(2.678,-159.587)"
         id="g112"><path
           id="path114"
           style="fill:none;stroke:#231f20;stroke-width:2.03999996;stroke-linecap:square;stroke-linejoin:miter;stroke-miterlimit:10;stroke-dasharray:none;stroke-opacity:1"
           d="M 0,0 H -16.941" /><g
           transform="translate(-0.943,190.187)"
           id="g116"><path
             id="path118"
             style="fill:none;stroke:#231f20;stroke-width:2.03999996;stroke-linecap:square;stroke-linejoin:miter;stroke-miterlimit:10;stroke-dasharray:none;stroke-opacity:1"
             d="M 0,0 H -15.998" /><g
             transform="translate(-15.998,13.852)"
             id="g120"><path
               id="path122"
               style="fill:none;stroke:#231f20;stroke-width:2.03999996;stroke-linecap:square;stroke-linejoin:miter;stroke-miterlimit:10;stroke-dasharray:none;stroke-opacity:1"
               d="M 0,0 H -0.152" /><g
               transform="translate(0,-8.925)"
               id="g124"><path
                 id="path126"
                 style="fill:none;stroke:#231f20;stroke-width:2.03999996;stroke-linecap:square;stroke-linejoin:miter;stroke-miterlimit:10;stroke-dasharray:none;stroke-opacity:1"
                 d="M 0,0 V 8.925" /><g
                 transform="translate(40.868,-64.214)"
                 id="g128"><path
                   id="path130"
                   style="fill:none;stroke:#231f20;stroke-width:2.03999996;stroke-linecap:square;stroke-linejoin:miter;stroke-miterlimit:10;stroke-dasharray:none;stroke-opacity:1"
                   d="M 0,0 H -11.135" /><g
                   transform="translate(0.17,-16.575)"
                   id="g132"><path
                     id="path134"
                     style="fill:none;stroke:#231f20;stroke-width:2.03999996;stroke-linecap:square;stroke-linejoin:miter;stroke-miterlimit:10;stroke-dasharray:none;stroke-opacity:1"
                     d="M 0,0 H -11.305" /><g
                     transform="translate(0.34,-74.587)"
                     id="g136"><path
                       id="path138"
                       style="fill:none;stroke:#231f20;stroke-width:2.03999996;stroke-linecap:square;stroke-linejoin:miter;stroke-miterlimit:10;stroke-dasharray:none;stroke-opacity:1"
                       d="M 0,0 H -11.646" /><g
                       transform="translate(-0.383,42.075)"
                       id="g140"><path
                         id="path142"
                         style="fill:none;stroke:#231f20;stroke-width:2.03999996;stroke-linecap:square;stroke-linejoin:miter;stroke-miterlimit:10;stroke-dasharray:none;stroke-opacity:1"
                         d="M 0,0 H -11.263" /><g
                         transform="translate(-11.263,62.131)"
                         id="g144"><path
                           id="path146"
                           style="fill:none;stroke:#231f20;stroke-width:2.03999996;stroke-linecap:square;stroke-linejoin:miter;stroke-miterlimit:10;stroke-dasharray:none;stroke-opacity:1"
                           d="M 0,0 H -0.56" /><g
                           transform="translate(0,-8.882)"
                           id="g148"><path
                             id="path150"
                             style="fill:none;stroke:#231f20;stroke-width:2.03999996;stroke-linecap:square;stroke-linejoin:miter;stroke-miterlimit:10;stroke-dasharray:none;stroke-opacity:1"
                             d="M 0,0 V 8.882" /><g
                             transform="translate(10.711,-171.399)"
                             id="g152"><path
                               id="path154"
                               style="fill:none;stroke:#231f20;stroke-width:2.03999996;stroke-linecap:square;stroke-linejoin:miter;stroke-miterlimit:10;stroke-dasharray:none;stroke-opacity:1"
                               d="M 0,0 H -7.863" /><g
                               transform="translate(0.085,-32.513)"
                               id="g156"><path
                                 id="path158"
                                 style="fill:none;stroke:#231f20;stroke-width:2.03999996;stroke-linecap:square;stroke-linejoin:miter;stroke-miterlimit:10;stroke-dasharray:none;stroke-opacity:1"
                                 d="M 0,0 H -7.948" /><g
                                 transform="translate(-7.948,54.481)"
                                 id="g160"><path
                                   id="path162"
                                   style="fill:none;stroke:#231f20;stroke-width:2.03999996;stroke-linecap:square;stroke-linejoin:miter;stroke-miterlimit:10;stroke-dasharray:none;stroke-opacity:1"
                                   d="M 0,0 H 0.417" /><g
                                   transform="translate(0,-7.607)"
                                   id="g164"><path
                                   id="path166"
                                   style="fill:none;stroke:#231f20;stroke-width:2.03999996;stroke-linecap:square;stroke-linejoin:miter;stroke-miterlimit:10;stroke-dasharray:none;stroke-opacity:1"
                                   d="M 0,0 V 7.607" /></g></g></g></g></g></g></g></g></g></g></g></g></g></g></g><path
       id="path168"
       style="fill:#ffffff;fill-opacity:1;fill-rule:nonzero;stroke:none"
       d="m 202.98,295.269 h 84.999 v 13.94 H 202.98 Z" /><g
       transform="translate(209.95,309.209)"
       id="g170"><path
         id="path172"
         style="fill:none;stroke:#231f20;stroke-width:0.68000001;stroke-linecap:square;stroke-linejoin:miter;stroke-miterlimit:10;stroke-dasharray:none;stroke-opacity:1"
         d="m 0,0 h 71.061 c 3.845,0 6.968,-3.122 6.968,-6.97 0,-3.847 -3.123,-6.97 -6.968,-6.97 H 0 c -3.848,0 -6.97,3.123 -6.97,6.97 C -6.97,-3.122 -3.848,0 0,0 Z" /></g><text
       id="text176"
       style="font-variant:normal;font-weight:normal;font-stretch:normal;font-size:9px;font-family:Times;-inkscape-font-specification:Times-Roman;writing-mode:lr-tb;fill:#231f20;fill-opacity:1;fill-rule:nonzero;stroke:none"
       transform="matrix(1,0,0,-1,214.1826,299.9092)"><tspan
         id="tspan174"
         y="0"
         x="0 4.5 9 11.25 13.5 18 22.5 27 29.25 31.5 36 38.501999 41.499001 45.494999 49.491001 51.993 54.494999 58.994999 63.494999">47, 163, direction</tspan></text>
<path
       id="path178"
       style="fill:#ffffff;fill-opacity:1;fill-rule:nonzero;stroke:none"
       d="m 165.054,186.214 h 127.16 v 13.94 h -127.16 z" /><g
       transform="translate(172.022,200.154)"
       id="g180"><path
         id="path182"
         style="fill:none;stroke:#231f20;stroke-width:0.68000001;stroke-linecap:square;stroke-linejoin:miter;stroke-miterlimit:10;stroke-dasharray:none;stroke-opacity:1"
         d="m 0,0 h 113.221 c 3.847,0 6.97,-3.122 6.97,-6.97 0,-3.847 -3.123,-6.97 -6.97,-6.97 H 0 c -3.847,0 -6.969,3.123 -6.969,6.97 C -6.969,-3.122 -3.847,0 0,0 Z" /></g><text
       id="text186"
       style="font-variant:normal;font-weight:normal;font-stretch:normal;font-size:9px;font-family:Times;-inkscape-font-specification:Times-Roman;writing-mode:lr-tb;fill:#231f20;fill-opacity:1;fill-rule:nonzero;stroke:none"
       transform="matrix(1,0,0,-1,172.3867,191.1524)"><tspan
         id="tspan184"
         y="0"
         x="0 4.5 9 11.25 13.5 18 22.5 27 29.25 31.5 36 38.501999 42.498001 46.998001 50.993999 55.493999 59.490002 63.990002 68.489998 70.991997 74.987999 79.487999 86.489998 90.486 94.482002 97.983002 102.483 105.48 109.476">45, 140, plane_angle_measure</tspan></text>
<path
       id="path188"
       style="fill:#ffffff;fill-opacity:1;fill-rule:nonzero;stroke:none"
       d="M 178.44,123.739 H 285.2 v 13.939 H 178.44 Z" /><g
       transform="translate(185.411,137.679)"
       id="g190"><path
         id="path192"
         style="fill:none;stroke:#231f20;stroke-width:0.68000001;stroke-linecap:square;stroke-linejoin:miter;stroke-miterlimit:10;stroke-dasharray:none;stroke-opacity:1"
         d="m 0,0 h 92.82 c 3.846,0 6.969,-3.122 6.969,-6.969 0,-3.847 -3.123,-6.97 -6.969,-6.97 H 0 c -3.848,0 -6.971,3.123 -6.971,6.97 C -6.971,-3.122 -3.848,0 0,0 Z" /></g><text
       id="text196"
       style="font-variant:normal;font-weight:normal;font-stretch:normal;font-size:9px;font-family:Times;-inkscape-font-specification:Times-Roman;writing-mode:lr-tb;fill:#231f20;fill-opacity:1;fill-rule:nonzero;stroke:none"
       transform="matrix(1,0,0,-1,186.6885,128.6778)"><tspan
         id="tspan194"
         y="0"
         x="0 4.5 9 11.25 13.5 18 22.5 27 29.25 31.5 34.001999 37.998001 42.498001 46.998001 49.5 54 58.5 65.501999 69.498001 73.494003 76.995003 81.495003 84.491997 88.487999">45, 132, length_measure</tspan></text>
<path
       id="path198"
       style="fill:#ffffff;fill-opacity:1;fill-rule:nonzero;stroke:none"
       d="M 158.041,102.319 H 285.2 v 13.94 H 158.041 Z" /><g
       transform="translate(165.011,116.26)"
       id="g200"><path
         id="path202"
         style="fill:none;stroke:#231f20;stroke-width:0.68000001;stroke-linecap:square;stroke-linejoin:miter;stroke-miterlimit:10;stroke-dasharray:none;stroke-opacity:1"
         d="m 0,0 h 113.221 c 3.845,0 6.968,-3.123 6.968,-6.971 0,-3.846 -3.123,-6.969 -6.968,-6.969 L 0,-13.94 c -3.848,0 -6.97,3.123 -6.97,6.969 C -6.97,-3.123 -3.848,0 0,0 Z" /></g><text
       id="text206"
       style="font-variant:normal;font-weight:normal;font-stretch:normal;font-size:9px;font-family:Times;-inkscape-font-specification:Times-Roman;writing-mode:lr-tb;fill:#231f20;fill-opacity:1;fill-rule:nonzero;stroke:none"
       transform="matrix(1,0,0,-1,165.374,107.2569)"><tspan
         id="tspan204"
         y="0"
         x="0 4.5 9 11.25 13.5 18 22.5 27 29.25 31.5 36 38.501999 42.498001 46.998001 50.993999 55.493999 59.490002 63.990002 68.489998 70.991997 74.987999 79.487999 86.489998 90.486 94.482002 97.983002 102.483 105.48 109.476">45, 140, plane_angle_measure</tspan></text>
<path
       id="path208"
       style="fill:#ffffff;fill-opacity:1;fill-rule:nonzero;stroke:none"
       d="m 165.138,165.177 h 127.16 v 13.939 h -127.16 z" /><g
       transform="translate(172.108,179.116)"
       id="g210"><path
         id="path212"
         style="fill:none;stroke:#231f20;stroke-width:0.68000001;stroke-linecap:square;stroke-linejoin:miter;stroke-miterlimit:10;stroke-dasharray:none;stroke-opacity:1"
         d="m 0,0 h 113.219 c 3.847,0 6.971,-3.122 6.971,-6.969 0,-3.847 -3.124,-6.97 -6.971,-6.97 H 0 c -3.848,0 -6.971,3.123 -6.971,6.97 C -6.971,-3.122 -3.848,0 0,0 Z" /></g><text
       id="text216"
       style="font-variant:normal;font-weight:normal;font-stretch:normal;font-size:9px;font-family:Times;-inkscape-font-specification:Times-Roman;writing-mode:lr-tb;fill:#231f20;fill-opacity:1;fill-rule:nonzero;stroke:none"
       transform="matrix(1,0,0,-1,172.4717,170.1153)"><tspan
         id="tspan214"
         y="0"
         x="0 4.5 9 11.25 13.5 18 22.5 27 29.25 31.5 36 38.501999 42.498001 46.998001 50.993999 55.493999 59.490002 63.990002 68.489998 70.991997 74.987999 79.487999 86.489998 90.486 94.482002 97.983002 102.483 105.48 109.476">45, 140, plane_angle_measure</tspan></text>
<path
       id="path218"
       style="fill:#ffffff;fill-opacity:1;fill-rule:nonzero;stroke:none"
       d="m 185.538,143.757 h 106.76 v 13.94 h -106.76 z" /><g
       transform="translate(192.509,157.697)"
       id="g220"><path
         id="path222"
         style="fill:none;stroke:#231f20;stroke-width:0.68000001;stroke-linecap:square;stroke-linejoin:miter;stroke-miterlimit:10;stroke-dasharray:none;stroke-opacity:1"
         d="m 0,0 h 92.818 c 3.848,0 6.971,-3.123 6.971,-6.971 0,-3.846 -3.123,-6.969 -6.971,-6.969 L 0,-13.94 c -3.848,0 -6.971,3.123 -6.971,6.969 C -6.971,-3.123 -3.848,0 0,0 Z" /></g><text
       id="text226"
       style="font-variant:normal;font-weight:normal;font-stretch:normal;font-size:9px;font-family:Times;-inkscape-font-specification:Times-Roman;writing-mode:lr-tb;fill:#231f20;fill-opacity:1;fill-rule:nonzero;stroke:none"
       transform="matrix(1,0,0,-1,193.7852,148.6944)"><tspan
         id="tspan224"
         y="0"
         x="0 4.5 9 11.25 13.5 18 22.5 27 29.25 31.5 34.001999 37.998001 42.498001 46.998001 49.5 54 58.5 65.501999 69.498001 73.494003 76.995003 81.495003 84.491997 88.487999">45, 132, length_measure</tspan></text>
<path
       id="path228"
       style="fill:#ffffff;fill-opacity:1;fill-rule:nonzero;stroke:none"
       d="M 178.185,46.39 H 305.346 V 60.329 H 178.185 Z" /><g
       transform="translate(185.155,60.329)"
       id="g230"><path
         id="path232"
         style="fill:none;stroke:#231f20;stroke-width:0.68000001;stroke-linecap:square;stroke-linejoin:miter;stroke-miterlimit:10;stroke-dasharray:none;stroke-opacity:1"
         d="m 0,0 h 113.221 c 3.847,0 6.97,-3.122 6.97,-6.97 0,-3.847 -3.123,-6.969 -6.97,-6.969 H 0 c -3.848,0 -6.97,3.122 -6.97,6.969 C -6.97,-3.122 -3.848,0 0,0 Z" /></g><text
       id="text236"
       style="font-variant:normal;font-weight:normal;font-stretch:normal;font-size:9px;font-family:Times;-inkscape-font-specification:Times-Roman;writing-mode:lr-tb;fill:#231f20;fill-opacity:1;fill-rule:nonzero;stroke:none"
       transform="matrix(1,0,0,-1,185.5186,51.3272)"><tspan
         id="tspan234"
         y="0"
         x="0 4.5 9 11.25 13.5 18 22.5 27 29.25 31.5 36 38.501999 42.498001 46.998001 50.993999 55.493999 59.490002 63.990002 68.489998 70.991997 74.987999 79.487999 86.489998 90.486 94.482002 97.983002 102.483 105.48 109.476">45, 140, plane_angle_measure</tspan></text>
<path
       id="path238"
       style="fill:#ffffff;fill-opacity:1;fill-rule:nonzero;stroke:none"
       d="m 198.585,24.969 h 106.762 v 13.94 H 198.585 Z" /><g
       transform="translate(205.556,38.909)"
       id="g240"><path
         id="path242"
         style="fill:none;stroke:#231f20;stroke-width:0.68000001;stroke-linecap:square;stroke-linejoin:miter;stroke-miterlimit:10;stroke-dasharray:none;stroke-opacity:1"
         d="m 0,0 h 92.82 c 3.848,0 6.971,-3.122 6.971,-6.97 0,-3.847 -3.123,-6.97 -6.971,-6.97 H 0 c -3.848,0 -6.971,3.123 -6.971,6.97 C -6.971,-3.122 -3.848,0 0,0 Z" /></g><text
       id="text246"
       style="font-variant:normal;font-weight:normal;font-stretch:normal;font-size:9px;font-family:Times;-inkscape-font-specification:Times-Roman;writing-mode:lr-tb;fill:#231f20;fill-opacity:1;fill-rule:nonzero;stroke:none"
       transform="matrix(1,0,0,-1,206.833,29.9073)"><tspan
         id="tspan244"
         y="0"
         x="0 4.5 9 11.25 13.5 18 22.5 27 29.25 31.5 34.001999 37.998001 42.498001 46.998001 49.5 54 58.5 65.501999 69.498001 73.494003 76.995003 81.495003 84.491997 88.487999">45, 132, length_measure</tspan></text>
<path
       id="path248"
       style="fill:#ffffff;fill-opacity:1;fill-rule:nonzero;stroke:none"
       d="M 179.631,4.9522 H 286.39 v 13.939 H 179.631 Z" /><g
       transform="translate(186.601,18.892)"
       id="g250"><path
         id="path252"
         style="fill:none;stroke:#231f20;stroke-width:0.68000001;stroke-linecap:square;stroke-linejoin:miter;stroke-miterlimit:10;stroke-dasharray:none;stroke-opacity:1"
         d="m 0,0 h 92.82 c 3.848,0 6.969,-3.122 6.969,-6.97 0,-3.847 -3.121,-6.969 -6.969,-6.969 H 0 c -3.848,0 -6.97,3.122 -6.97,6.969 C -6.97,-3.122 -3.848,0 0,0 Z" /></g><text
       id="text256"
       style="font-variant:normal;font-weight:normal;font-stretch:normal;font-size:9px;font-family:Times;-inkscape-font-specification:Times-Roman;writing-mode:lr-tb;fill:#231f20;fill-opacity:1;fill-rule:nonzero;stroke:none"
       transform="matrix(1,0,0,-1,187.8779,9.8897)"><tspan
         id="tspan254"
         y="0"
         x="0 4.5 9 11.25 13.5 18 22.5 27 29.25 31.5 34.001999 37.998001 42.498001 46.998001 49.5 54 58.5 65.501999 69.498001 73.494003 76.995003 81.495003 84.491997 88.487999">45, 132, length_measure</tspan></text>
<path
       id="path258"
       style="fill:#ffffff;fill-opacity:1;fill-rule:nonzero;stroke:none"
       d="m 122.46,263.267 h 97.92 v 13.94 h -97.92 z" /><g
       transform="translate(129.43,277.207)"
       id="g260"><path
         id="path262"
         style="fill:none;stroke:#231f20;stroke-width:0.68000001;stroke-linecap:square;stroke-linejoin:miter;stroke-miterlimit:10;stroke-dasharray:none;stroke-opacity:1"
         d="m 0,0 h 83.98 c 3.847,0 6.97,-3.123 6.97,-6.97 0,-3.847 -3.123,-6.97 -6.97,-6.97 H 0 c -3.848,0 -6.97,3.123 -6.97,6.97 C -6.97,-3.123 -3.848,0 0,0 Z" /></g><text
       id="text266"
       style="font-variant:normal;font-weight:normal;font-stretch:normal;font-size:9px;font-family:Times;-inkscape-font-specification:Times-Roman;writing-mode:lr-tb;fill:#231f20;fill-opacity:1;fill-rule:nonzero;stroke:none"
       transform="matrix(1,0,0,-1,136.0386,268.1519)"><tspan
         id="tspan264"
         y="0"
         x="0 4.5 6.75 9 13.5 18 22.5 24.75 27 29.502001 34.001999 38.501999 41.004002 45.504002 49.5 52.001999 56.501999 61.001999 63.504002 66.005997 69.507004 72.009003">5, 196, toolpath_list</tspan></text>
<path
       id="path268"
       style="fill:#ffffff;fill-opacity:1;fill-rule:nonzero;stroke:none"
       d="m 0.3398,322.809 h 97.92 v 13.94 h -97.92 z" /><g
       transform="translate(7.3101,336.749)"
       id="g270"><path
         id="path272"
         style="fill:none;stroke:#231f20;stroke-width:0.68000001;stroke-linecap:square;stroke-linejoin:miter;stroke-miterlimit:10;stroke-dasharray:none;stroke-opacity:1"
         d="m 0,0 h 83.98 c 3.848,0 6.97,-3.123 6.97,-6.97 0,-3.847 -3.122,-6.97 -6.97,-6.97 H 0 c -3.8472,0 -6.9703,3.123 -6.9703,6.97 C -6.9703,-3.123 -3.8472,0 0,0 Z" /></g><text
       id="text284"
       style="font-variant:normal;font-weight:normal;font-stretch:normal;font-size:9px;font-family:Times;-inkscape-font-specification:Times-Roman;writing-mode:lr-tb;fill:#231f20;fill-opacity:1;fill-rule:nonzero;stroke:none"
       transform="matrix(1,0,0,-1,11.4214,327.6333)"><tspan
         id="tspan274"
         y="0"
         x="0 4.5 9 11.25 13.5 18 22.5 27 29.25 32.247002 36.747002 38.997002 41.247002 45.747002 47.997002 50.247002 54.747002 59.247002 61.497002 63.747002 68.247002 72.747002 75.744003">16, 195 (8, 8, 10, 10)</tspan><tspan
         id="tspan276"
         y="50.616001"
         x="9.8892002 14.3892">1</tspan><tspan
         id="tspan278"
         y="106.1181"
         x="34.3269 38.8269">1</tspan><tspan
         id="tspan280"
         y="265.06799"
         x="39.4263 43.9263">1</tspan><tspan
         id="tspan282"
         y="35.353802"
         x="126.9594 129.4614 133.9614 138.4614 140.96339 145.46339 149.96339 152.9604 155.4624 159.4584 163.9584 166.4604 170.45641 172.9584 175.4604 179.9604 184.4604">tool_orientation</tspan></text>
<path
       id="path286"
       style="fill:#ffffff;fill-opacity:1;fill-rule:nonzero;stroke:none"
       d="m 0.3398,293.569 h 131.241 v 15.64 H 0.3398 Z" /><g
       transform="translate(0.3398,309.209)"
       id="g288"><path
         id="path290"
         style="fill:none;stroke:#231f20;stroke-width:0.68000001;stroke-linecap:square;stroke-linejoin:miter;stroke-miterlimit:10;stroke-dasharray:none;stroke-opacity:1"
         d="M 131.241,0 H 0 v -15.64 h 131.241 z" /><g
         id="g292"><path
           id="path294"
           style="fill:none;stroke:#231f20;stroke-width:0.68000001;stroke-linecap:square;stroke-linejoin:miter;stroke-miterlimit:10;stroke-dasharray:none;stroke-opacity:1"
           d="M 0,0 Z" /></g></g><text
       id="text298"
       style="font-variant:normal;font-weight:normal;font-stretch:normal;font-size:9px;font-family:Times;-inkscape-font-specification:Times-Roman;writing-mode:lr-tb;fill:#231f20;fill-opacity:1;fill-rule:nonzero;stroke:none"
       transform="matrix(1,0,0,-1,7.3398,299.2798)"><tspan
         id="tspan296"
         y="0"
         x="0 2.997 9.4949999 15.498 20.502001 23.499001 27.495001 31.995001 36.494999 39.492001 43.992001 47.987999 51.984001 56.484001 60.984001 63.980999 67.976997 70.478996 73.475998 77.472 81.468002 83.970001 88.470001 91.971001 94.473 97.470001 101.466 103.968 107.829 112.329 116.829">(ABS)approach_retract_strategy</tspan></text>
<path
       id="path300"
       style="fill:#ffffff;fill-opacity:1;fill-rule:nonzero;stroke:none"
       d="m 35.726,233.432 h 92.479 v 13.94 H 35.726 Z" /><g
       transform="translate(35.726,247.372)"
       id="g302"><path
         id="path304"
         style="fill:none;stroke:#231f20;stroke-width:0.68000001;stroke-linecap:square;stroke-linejoin:miter;stroke-miterlimit:10;stroke-dasharray:none;stroke-opacity:1"
         d="M 92.479,0 H 0 v -13.94 h 92.479 z" /><g
         id="g306"><path
           id="path308"
           style="fill:none;stroke:#231f20;stroke-width:0.68000001;stroke-linecap:square;stroke-linejoin:miter;stroke-miterlimit:10;stroke-dasharray:none;stroke-opacity:1"
           d="M 0,0 Z" /></g></g><text
       id="text312"
       style="font-variant:normal;font-weight:normal;font-stretch:normal;font-size:9px;font-family:Times;-inkscape-font-specification:Times-Roman;writing-mode:lr-tb;fill:#231f20;fill-opacity:1;fill-rule:nonzero;stroke:none"
       transform="matrix(1,0,0,-1,42.0552,238.292)"><tspan
         id="tspan310"
         y="0"
         x="0 2.997 9.4949999 15.498 20.502001 23.499001 27.999001 30.500999 35.000999 39.500999 44.000999 47.997002 52.497002 55.998001 58.5 61.497002 65.492996 67.995003 71.856003 76.356003 80.856003">(ABS)plunge_strategy</tspan></text>
<path
       id="path314"
       style="fill:#ffffff;fill-opacity:1;fill-rule:nonzero;stroke:none"
       d="m 62.331,204.064 h 68 v 13.939 h -68 z" /><g
       transform="translate(62.331,218.004)"
       id="g316"><path
         id="path318"
         style="fill:none;stroke:#231f20;stroke-width:0.68000001;stroke-linecap:square;stroke-linejoin:miter;stroke-miterlimit:10;stroke-dasharray:none;stroke-opacity:1"
         d="M 68,0 H 0 v -13.939 h 68 z" /><g
         id="g320"><path
           id="path322"
           style="fill:none;stroke:#231f20;stroke-width:0.68000001;stroke-linecap:square;stroke-linejoin:miter;stroke-miterlimit:10;stroke-dasharray:none;stroke-opacity:1"
           d="M 0,0 Z" /></g></g><text
       id="text326"
       style="font-variant:normal;font-weight:normal;font-stretch:normal;font-size:9px;font-family:Times;-inkscape-font-specification:Times-Roman;writing-mode:lr-tb;fill:#231f20;fill-opacity:1;fill-rule:nonzero;stroke:none"
       transform="matrix(1,0,0,-1,67.9829,209.003)"><tspan
         id="tspan324"
         y="0"
         x="0 4.5 7.0019999 11.502 16.002001 20.502001 24.497999 28.997999 31.5 36 40.5 43.001999 46.998001 51.498001 54 57.500999">plunge_toolaxis</tspan></text>
<path
       id="path328"
       style="fill:#ffffff;fill-opacity:1;fill-rule:nonzero;stroke:none"
       d="m 62.501,185.367 h 65.484 v 14.787 H 62.501 Z" /><g
       transform="translate(62.501,200.154)"
       id="g330"><path
         id="path332"
         style="fill:none;stroke:#231f20;stroke-width:0.68000001;stroke-linecap:square;stroke-linejoin:miter;stroke-miterlimit:10;stroke-dasharray:none;stroke-opacity:1"
         d="M 65.484,0 H 0 v -14.787 h 65.484 z" /><g
         id="g334"><path
           id="path336"
           style="fill:none;stroke:#231f20;stroke-width:0.68000001;stroke-linecap:square;stroke-linejoin:miter;stroke-miterlimit:10;stroke-dasharray:none;stroke-opacity:1"
           d="M 0,0 Z" /></g></g><text
       id="text340"
       style="font-variant:normal;font-weight:normal;font-stretch:normal;font-size:9px;font-family:Times;-inkscape-font-specification:Times-Roman;writing-mode:lr-tb;fill:#231f20;fill-opacity:1;fill-rule:nonzero;stroke:none"
       transform="matrix(1,0,0,-1,71.4326,190.7295)"><tspan
         id="tspan338"
         y="0"
         x="0 4.5 7.0019999 11.502 16.002001 20.502001 24.497999 28.997999 31.995001 35.991001 42.993 47.493">plunge_ramp</tspan></text>
<path
       id="path342"
       style="fill:#ffffff;fill-opacity:1;fill-rule:nonzero;stroke:none"
       d="m 62.841,102.319 h 56.44 v 35.359 h -56.44 z" /><g
       transform="translate(62.841,137.679)"
       id="g344"><path
         id="path346"
         style="fill:none;stroke:#231f20;stroke-width:0.68000001;stroke-linecap:square;stroke-linejoin:miter;stroke-miterlimit:10;stroke-dasharray:none;stroke-opacity:1"
         d="M 56.44,0 H 0 v -35.359 h 56.44 z" /><g
         id="g348"><path
           id="path350"
           style="fill:none;stroke:#231f20;stroke-width:0.68000001;stroke-linecap:square;stroke-linejoin:miter;stroke-miterlimit:10;stroke-dasharray:none;stroke-opacity:1"
           d="M 0,0 Z" /></g></g><text
       id="text354"
       style="font-variant:normal;font-weight:normal;font-stretch:normal;font-size:9px;font-family:Times;-inkscape-font-specification:Times-Roman;writing-mode:lr-tb;fill:#231f20;fill-opacity:1;fill-rule:nonzero;stroke:none"
       transform="matrix(1,0,0,-1,68.1558,117.9668)"><tspan
         id="tspan352"
         y="0"
         x="0 4.5 7.0019999 11.502 16.002001 20.502001 24.497999 28.997999 33.498001 37.493999 39.995998 42.498001 46.998001">plunge_helix</tspan></text>
<path
       id="path356"
       style="fill:#ffffff;fill-opacity:1;fill-rule:nonzero;stroke:none"
       d="m 62.458,143.757 h 63.92 v 35.359 h -63.92 z" /><g
       transform="translate(62.458,179.116)"
       id="g358"><path
         id="path360"
         style="fill:none;stroke:#231f20;stroke-width:0.68000001;stroke-linecap:square;stroke-linejoin:miter;stroke-miterlimit:10;stroke-dasharray:none;stroke-opacity:1"
         d="M 63.92,0 H 0 v -35.359 h 63.92 z" /><g
         id="g362"><path
           id="path364"
           style="fill:none;stroke:#231f20;stroke-width:0.68000001;stroke-linecap:square;stroke-linejoin:miter;stroke-miterlimit:10;stroke-dasharray:none;stroke-opacity:1"
           d="M 0,0 Z" /></g></g><text
       id="text368"
       style="font-variant:normal;font-weight:normal;font-stretch:normal;font-size:9px;font-family:Times;-inkscape-font-specification:Times-Roman;writing-mode:lr-tb;fill:#231f20;fill-opacity:1;fill-rule:nonzero;stroke:none"
       transform="matrix(1,0,0,-1,68.1104,159.4043)"><tspan
         id="tspan366"
         y="0"
         x="0 4.5 7.0019999 11.502 16.002001 20.502001 24.497999 28.997999 32.993999 35.495998 39.995998 43.992001 47.987999 52.487999">plunge_zigzag</tspan></text>
<path
       id="path370"
       style="fill:#ffffff;fill-opacity:1;fill-rule:nonzero;stroke:none"
       d="m 38.403,73.844 h 78.2 v 13.94 h -78.2 z" /><g
       transform="translate(38.403,87.784)"
       id="g372"><path
         id="path374"
         style="fill:none;stroke:#231f20;stroke-width:0.68000001;stroke-linecap:square;stroke-linejoin:miter;stroke-miterlimit:10;stroke-dasharray:none;stroke-opacity:1"
         d="M 78.2,0 H 0 v -13.94 h 78.2 z" /><g
         id="g376"><path
           id="path378"
           style="fill:none;stroke:#231f20;stroke-width:0.68000001;stroke-linecap:square;stroke-linejoin:miter;stroke-miterlimit:10;stroke-dasharray:none;stroke-opacity:1"
           d="M 0,0 Z" /></g></g><text
       id="text382"
       style="font-variant:normal;font-weight:normal;font-stretch:normal;font-size:9px;font-family:Times;-inkscape-font-specification:Times-Roman;writing-mode:lr-tb;fill:#231f20;fill-opacity:1;fill-rule:nonzero;stroke:none"
       transform="matrix(1,0,0,-1,45.3081,78.7051)"><tspan
         id="tspan380"
         y="0"
         x="0 2.997 9.4949999 15.498 20.502001 23.499001 27.495001 29.997 32.993999 37.493999 40.994999 43.497002 46.493999 50.490002 52.992001 56.853001 61.353001 65.852997">(ABS)air_strategy</tspan></text>
<path
       id="path384"
       style="fill:#ffffff;fill-opacity:1;fill-rule:nonzero;stroke:none"
       d="m 61.906,24.969 h 74.12 v 35.36 h -74.12 z" /><g
       transform="translate(61.906,60.329)"
       id="g386"><path
         id="path388"
         style="fill:none;stroke:#231f20;stroke-width:0.68000001;stroke-linecap:square;stroke-linejoin:miter;stroke-miterlimit:10;stroke-dasharray:none;stroke-opacity:1"
         d="M 74.12,0 H 0 v -35.36 h 74.12 z" /><g
         id="g390"><path
           id="path392"
           style="fill:none;stroke:#231f20;stroke-width:0.68000001;stroke-linecap:square;stroke-linejoin:miter;stroke-miterlimit:10;stroke-dasharray:none;stroke-opacity:1"
           d="M 0,0 Z" /></g></g><text
       id="text396"
       style="font-variant:normal;font-weight:normal;font-stretch:normal;font-size:9px;font-family:Times;-inkscape-font-specification:Times-Roman;writing-mode:lr-tb;fill:#231f20;fill-opacity:1;fill-rule:nonzero;stroke:none"
       transform="matrix(1,0,0,-1,68.3496,40.6172)"><tspan
         id="tspan394"
         y="0"
         x="0 3.9960001 8.4960003 12.996 15.993 19.989 22.490999 25.488001 29.483999 33.48 35.981998 40.481998 44.478001 48.978001 53.478001 55.98 59.976002">ap_retract_angle</tspan></text>
<path
       id="path398"
       style="fill:#ffffff;fill-opacity:1;fill-rule:nonzero;stroke:none"
       d="m 61.991,3.252 h 78.2 v 15.64 h -78.2 z" /><g
       transform="translate(61.991,18.892)"
       id="g400"><path
         id="path402"
         style="fill:none;stroke:#231f20;stroke-width:0.68000001;stroke-linecap:square;stroke-linejoin:miter;stroke-miterlimit:10;stroke-dasharray:none;stroke-opacity:1"
         d="M 78.2,0 H 0 v -15.64 h 78.2 z" /><g
         id="g404"><path
           id="path406"
           style="fill:none;stroke:#231f20;stroke-width:0.68000001;stroke-linecap:square;stroke-linejoin:miter;stroke-miterlimit:10;stroke-dasharray:none;stroke-opacity:1"
           d="M 0,0 Z" /></g></g><text
       id="text410"
       style="font-variant:normal;font-weight:normal;font-stretch:normal;font-size:9px;font-family:Times;-inkscape-font-specification:Times-Roman;writing-mode:lr-tb;fill:#231f20;fill-opacity:1;fill-rule:nonzero;stroke:none"
       transform="matrix(1,0,0,-1,66.8433,9.2403)"><tspan
         id="tspan408"
         y="0"
         x="0 3.9960001 8.4960003 12.996 15.993 19.989 22.490999 25.488001 29.483999 33.48 35.981998 40.481998 42.984001 46.98 51.48 55.98 59.976002 64.475998 66.977997">ap_retract_tangent</tspan></text>
<path
       id="path412"
       style="fill:#ffffff;fill-opacity:1;fill-rule:nonzero;stroke:none"
       d="m 37.46,261.567 h 50.32 v 15.64 H 37.46 Z" /><g
       transform="translate(37.46,277.207)"
       id="g414"><path
         id="path416"
         style="fill:none;stroke:#231f20;stroke-width:0.68000001;stroke-linecap:square;stroke-linejoin:miter;stroke-miterlimit:10;stroke-dasharray:none;stroke-opacity:1"
         d="M 50.32,0 H 0 v -15.64 h 50.32 z" /><g
         id="g418"><path
           id="path420"
           style="fill:none;stroke:#231f20;stroke-width:0.68000001;stroke-linecap:square;stroke-linejoin:miter;stroke-miterlimit:10;stroke-dasharray:none;stroke-opacity:1"
           d="M 0,0 Z" /></g></g><text
       id="text424"
       style="font-variant:normal;font-weight:normal;font-stretch:normal;font-size:9px;font-family:Times;-inkscape-font-specification:Times-Roman;writing-mode:lr-tb;fill:#231f20;fill-opacity:1;fill-rule:nonzero;stroke:none"
       transform="matrix(1,0,0,-1,42.4321,267.355)"><tspan
         id="tspan422"
         y="0"
         x="0 3.9960001 6.4980001 10.998 15.498 19.997999 24.497999 28.997999 32.993999 35.495998 39.995998">along_path</tspan></text>
<g
       transform="translate(35.72,240.234)"
       id="g426"><path
         id="path428"
         style="fill:#ffffff;fill-opacity:1;fill-rule:nonzero;stroke:none"
         d="m 0,0 c 0,1.877 -1.523,3.4 -3.4,3.4 -1.877,0 -3.4,-1.523 -3.4,-3.4 0,-1.877 1.523,-3.4 3.4,-3.4 1.877,0 3.4,1.523 3.4,3.4" /></g><g
       transform="translate(35.72,240.234)"
       id="g430"><path
         id="path432"
         style="fill:none;stroke:#231f20;stroke-width:0.68000001;stroke-linecap:square;stroke-linejoin:miter;stroke-miterlimit:10;stroke-dasharray:none;stroke-opacity:1"
         d="m 0,0 c 0,1.877 -1.523,3.4 -3.4,3.4 -1.877,0 -3.4,-1.523 -3.4,-3.4 0,-1.877 1.523,-3.4 3.4,-3.4 1.877,0 3.4,1.523 3.4,3.4" /></g><g
       transform="translate(38.372,80.604)"
       id="g434"><path
         id="path436"
         style="fill:#ffffff;fill-opacity:1;fill-rule:nonzero;stroke:none"
         d="m 0,0 c 0,1.877 -1.523,3.399 -3.4,3.399 -1.877,0 -3.4,-1.522 -3.4,-3.399 0,-1.877 1.523,-3.4 3.4,-3.4 1.877,0 3.4,1.523 3.4,3.4" /></g><g
       transform="translate(38.372,80.604)"
       id="g438"><path
         id="path440"
         style="fill:none;stroke:#231f20;stroke-width:0.68000001;stroke-linecap:square;stroke-linejoin:miter;stroke-miterlimit:10;stroke-dasharray:none;stroke-opacity:1"
         d="m 0,0 c 0,1.877 -1.523,3.399 -3.4,3.399 -1.877,0 -3.4,-1.522 -3.4,-3.399 0,-1.877 1.523,-3.4 3.4,-3.4 1.877,0 3.4,1.523 3.4,3.4" /></g><g
       transform="translate(37.454,270.835)"
       id="g442"><path
         id="path444"
         style="fill:#ffffff;fill-opacity:1;fill-rule:nonzero;stroke:none"
         d="m 0,0 c 0,1.877 -1.523,3.4 -3.4,3.4 -1.877,0 -3.4,-1.523 -3.4,-3.4 0,-1.877 1.523,-3.4 3.4,-3.4 1.877,0 3.4,1.523 3.4,3.4" /></g><g
       transform="translate(37.454,270.835)"
       id="g446"><path
         id="path448"
         style="fill:none;stroke:#231f20;stroke-width:0.68000001;stroke-linecap:square;stroke-linejoin:miter;stroke-miterlimit:10;stroke-dasharray:none;stroke-opacity:1"
         d="m 0,0 c 0,1.877 -1.523,3.4 -3.4,3.4 -1.877,0 -3.4,-1.523 -3.4,-3.4 0,-1.877 1.523,-3.4 3.4,-3.4 1.877,0 3.4,1.523 3.4,3.4" /></g><g
       transform="translate(62.341,211.471)"
       id="g450"><path
         id="path452"
         style="fill:#ffffff;fill-opacity:1;fill-rule:nonzero;stroke:none"
         d="m 0,0 c 0,1.877 -1.523,3.4 -3.4,3.4 -1.876,0 -3.4,-1.523 -3.4,-3.4 0,-1.876 1.524,-3.4 3.4,-3.4 1.877,0 3.4,1.524 3.4,3.4" /></g><g
       transform="translate(62.341,211.471)"
       id="g454"><path
         id="path456"
         style="fill:none;stroke:#231f20;stroke-width:0.68000001;stroke-linecap:square;stroke-linejoin:miter;stroke-miterlimit:10;stroke-dasharray:none;stroke-opacity:1"
         d="m 0,0 c 0,1.877 -1.523,3.4 -3.4,3.4 -1.876,0 -3.4,-1.523 -3.4,-3.4 0,-1.876 1.524,-3.4 3.4,-3.4 1.877,0 3.4,1.524 3.4,3.4" /></g><g
       transform="translate(62.546,194.946)"
       id="g458"><path
         id="path460"
         style="fill:#ffffff;fill-opacity:1;fill-rule:nonzero;stroke:none"
         d="m 0,0 c 0,1.877 -1.523,3.4 -3.4,3.4 -1.877,0 -3.4,-1.523 -3.4,-3.4 0,-1.876 1.523,-3.399 3.4,-3.399 1.877,0 3.4,1.523 3.4,3.399" /></g><g
       transform="translate(62.546,194.946)"
       id="g462"><path
         id="path464"
         style="fill:none;stroke:#231f20;stroke-width:0.68000001;stroke-linecap:square;stroke-linejoin:miter;stroke-miterlimit:10;stroke-dasharray:none;stroke-opacity:1"
         d="m 0,0 c 0,1.877 -1.523,3.4 -3.4,3.4 -1.877,0 -3.4,-1.523 -3.4,-3.4 0,-1.876 1.523,-3.399 3.4,-3.399 1.877,0 3.4,1.523 3.4,3.399" /></g><g
       transform="translate(62.852,120.283)"
       id="g466"><path
         id="path468"
         style="fill:#ffffff;fill-opacity:1;fill-rule:nonzero;stroke:none"
         d="m 0,0 c 0,1.877 -1.523,3.399 -3.4,3.399 -1.877,0 -3.4,-1.522 -3.4,-3.399 0,-1.877 1.523,-3.4 3.4,-3.4 1.877,0 3.4,1.523 3.4,3.4" /></g><g
       transform="translate(62.852,120.283)"
       id="g470"><path
         id="path472"
         style="fill:none;stroke:#231f20;stroke-width:0.68000001;stroke-linecap:square;stroke-linejoin:miter;stroke-miterlimit:10;stroke-dasharray:none;stroke-opacity:1"
         d="m 0,0 c 0,1.877 -1.523,3.399 -3.4,3.399 -1.877,0 -3.4,-1.522 -3.4,-3.399 0,-1.877 1.523,-3.4 3.4,-3.4 1.877,0 3.4,1.523 3.4,3.4" /></g><g
       transform="translate(62.444,162.408)"
       id="g474"><path
         id="path476"
         style="fill:#ffffff;fill-opacity:1;fill-rule:nonzero;stroke:none"
         d="m 0,0 c 0,1.877 -1.523,3.4 -3.4,3.4 -1.877,0 -3.4,-1.523 -3.4,-3.4 0,-1.877 1.523,-3.399 3.4,-3.399 1.877,0 3.4,1.522 3.4,3.399" /></g><g
       transform="translate(62.444,162.408)"
       id="g478"><path
         id="path480"
         style="fill:none;stroke:#231f20;stroke-width:0.68000001;stroke-linecap:square;stroke-linejoin:miter;stroke-miterlimit:10;stroke-dasharray:none;stroke-opacity:1"
         d="m 0,0 c 0,1.877 -1.523,3.4 -3.4,3.4 -1.877,0 -3.4,-1.523 -3.4,-3.4 0,-1.877 1.523,-3.399 3.4,-3.399 1.877,0 3.4,1.522 3.4,3.399" /></g><g
       transform="translate(61.934,44.293)"
       id="g482"><path
         id="path484"
         style="fill:#ffffff;fill-opacity:1;fill-rule:nonzero;stroke:none"
         d="m 0,0 c 0,1.876 -1.523,3.399 -3.4,3.399 -1.877,0 -3.4,-1.523 -3.4,-3.399 0,-1.877 1.523,-3.4 3.4,-3.4 1.877,0 3.4,1.523 3.4,3.4" /></g><g
       transform="translate(61.934,44.293)"
       id="g486"><path
         id="path488"
         style="fill:none;stroke:#231f20;stroke-width:0.68000001;stroke-linecap:square;stroke-linejoin:miter;stroke-miterlimit:10;stroke-dasharray:none;stroke-opacity:1"
         d="m 0,0 c 0,1.876 -1.523,3.399 -3.4,3.399 -1.877,0 -3.4,-1.523 -3.4,-3.399 0,-1.877 1.523,-3.4 3.4,-3.4 1.877,0 3.4,1.523 3.4,3.4" /></g><g
       transform="translate(61.934,11.754)"
       id="g490"><path
         id="path492"
         style="fill:#ffffff;fill-opacity:1;fill-rule:nonzero;stroke:none"
         d="m 0,0 c 0,1.877 -1.523,3.4 -3.4,3.4 -1.877,0 -3.4,-1.523 -3.4,-3.4 0,-1.8759 1.523,-3.3994 3.4,-3.3994 1.877,0 3.4,1.5235 3.4,3.3994" /></g><g
       transform="translate(61.934,11.754)"
       id="g494"><path
         id="path496"
         style="fill:none;stroke:#231f20;stroke-width:0.68000001;stroke-linecap:square;stroke-linejoin:miter;stroke-miterlimit:10;stroke-dasharray:none;stroke-opacity:1"
         d="m 0,0 c 0,1.877 -1.523,3.4 -3.4,3.4 -1.877,0 -3.4,-1.523 -3.4,-3.4 0,-1.8759 1.523,-3.3994 3.4,-3.3994 1.877,0 3.4,1.5235 3.4,3.3994" /></g><g
       transform="translate(52.754,312.655)"
       id="g498"><path
         id="path500"
         style="fill:#ffffff;fill-opacity:1;fill-rule:nonzero;stroke:none"
         d="m 0,0 c 0,1.877 -1.523,3.4 -3.4,3.4 -1.877,0 -3.4,-1.523 -3.4,-3.4 0,-1.877 1.523,-3.4 3.4,-3.4 1.877,0 3.4,1.523 3.4,3.4" /></g><g
       transform="translate(52.754,312.655)"
       id="g502"><path
         id="path504"
         style="fill:none;stroke:#231f20;stroke-width:0.68000001;stroke-linecap:square;stroke-linejoin:miter;stroke-miterlimit:10;stroke-dasharray:none;stroke-opacity:1"
         d="m 0,0 c 0,1.877 -1.523,3.4 -3.4,3.4 -1.877,0 -3.4,-1.523 -3.4,-3.4 0,-1.877 1.523,-3.4 3.4,-3.4 1.877,0 3.4,1.523 3.4,3.4" /></g><text
       id="text524"
       style="font-variant:normal;font-weight:normal;font-stretch:normal;font-size:9px;font-family:Times;-inkscape-font-specification:Times-Roman;writing-mode:lr-tb;fill:#231f20;fill-opacity:1;fill-rule:nonzero;stroke:none"
       transform="matrix(1,0,0,-1,134.7852,183.6045)"><tspan
         id="tspan506"
         y="0"
         x="0 3.9960001 8.4960003 12.996 15.498 19.493999">angle</tspan><tspan
         id="tspan508"
         y="62.855099"
         x="-8.7047997 -5.7077999 -1.7118 2.7881999 5.2902002 9.7902002 13.2912">radius</tspan><tspan
         id="tspan510"
         y="84.275101"
         x="-8.7047997 -4.7087998 -0.2088 4.2912002 6.7932 10.7892">angle</tspan><tspan
         id="tspan512"
         y="21.417299"
         x="-1.6073999 2.3886001 6.8885999 11.3886 13.8906 17.8866">angle</tspan><tspan
         id="tspan514"
         y="42.837299"
         x="-1.6073999 4.8906002 7.3926001 11.8926 14.3946 18.8946">width</tspan><tspan
         id="tspan516"
         y="140.2047"
         x="8.0396996 12.0357 16.5357 21.0357 23.537701 27.533701">angle</tspan><tspan
         id="tspan518"
         y="161.62469"
         x="8.0396996 10.5417 13.5387 17.3547 21.7197 25.7157 28.217699 32.717701 35.2197 39.215698 43.715698 48.215698 50.717701 55.217701">travel_length</tspan><tspan
         id="tspan520"
         y="181.6425"
         x="12.2049 15.2019 19.197901 23.697901 26.1999 30.6999 34.200901">radius</tspan><tspan
         id="tspan522"
         y="-76.671898"
         x="-40.2066 -35.7066 -31.7106 -29.208599 -24.708599">path</tspan></text>
</g></svg>