<?xml version="1.0" encoding="UTF-8" standalone="no"?>
<svg
   xmlns:dc="http://purl.org/dc/elements/1.1/"
   xmlns:cc="http://creativecommons.org/ns#"
   xmlns:rdf="http://www.w3.org/1999/02/22-rdf-syntax-ns#"
   xmlns:svg="http://www.w3.org/2000/svg"
   xmlns="http://www.w3.org/2000/svg"
   viewBox="0 0 512.26666 392.87466"
   height="392.87466"
   width="512.26666"
   xml:space="preserve"
   id="svg2"
   version="1.1"><metadata
     id="metadata8"><rdf:RDF><cc:Work
         rdf:about=""><dc:format>image/svg+xml</dc:format><dc:type
           rdf:resource="http://purl.org/dc/dcmitype/StillImage" /></cc:Work></rdf:RDF></metadata><defs
     id="defs6" /><g
     transform="matrix(1.3333333,0,0,-1.3333333,0,392.87467)"
     id="g10"><g
       transform="translate(123.42,200.089)"
       id="g12"><path
         id="path14"
         style="fill:none;stroke:#231f20;stroke-width:0.68000001;stroke-linecap:square;stroke-linejoin:miter;stroke-miterlimit:10;stroke-dasharray:none;stroke-opacity:1"
         d="M 0,0 H 189.04" /><g
         transform="translate(0,-21.42)"
         id="g16"><path
           id="path18"
           style="fill:none;stroke:#231f20;stroke-width:0.68000001;stroke-linecap:square;stroke-linejoin:miter;stroke-miterlimit:10;stroke-dasharray:none;stroke-opacity:1"
           d="M 0,0 H 133.96" /><g
           transform="translate(0,-21.42)"
           id="g20"><path
             id="path22"
             style="fill:none;stroke:#231f20;stroke-width:0.68000001;stroke-linecap:square;stroke-linejoin:miter;stroke-miterlimit:10;stroke-dasharray:none;stroke-opacity:1"
             d="M 0,0 H 84.32" /><g
             transform="translate(0,-21.42)"
             id="g24"><path
               id="path26"
               style="fill:none;stroke:#231f20;stroke-width:0.68000001;stroke-linecap:square;stroke-linejoin:miter;stroke-miterlimit:10;stroke-dasharray:none;stroke-opacity:1"
               d="M 0,0 H 59.84" /><g
               transform="translate(0,-21.42)"
               id="g28"><path
                 id="path30"
                 style="fill:none;stroke:#231f20;stroke-width:0.68000001;stroke-linecap:square;stroke-linejoin:miter;stroke-miterlimit:10;stroke-dasharray:none;stroke-opacity:1"
                 d="M 0,0 H 92.48" /><g
                 transform="translate(0,-21.42)"
                 id="g32"><path
                   id="path34"
                   style="fill:none;stroke:#231f20;stroke-width:0.68000001;stroke-linecap:square;stroke-linejoin:miter;stroke-miterlimit:10;stroke-dasharray:none;stroke-opacity:1"
                   d="M 0,0 H 28.56" /><g
                   transform="translate(0,-21.42)"
                   id="g36"><path
                     id="path38"
                     style="fill:none;stroke:#231f20;stroke-width:0.68000001;stroke-linecap:square;stroke-linejoin:miter;stroke-miterlimit:10;stroke-dasharray:none;stroke-opacity:1"
                     d="M 0,0 H 20.4" /><g
                     transform="translate(0,-21.42)"
                     id="g40"><path
                       id="path42"
                       style="fill:none;stroke:#231f20;stroke-width:0.68000001;stroke-linecap:square;stroke-linejoin:miter;stroke-miterlimit:10;stroke-dasharray:none;stroke-opacity:1"
                       d="M 0,0 H 76.84" /><g
                       transform="translate(0,-21.42)"
                       id="g44"><path
                         id="path46"
                         style="fill:none;stroke:#231f20;stroke-width:0.68000001;stroke-linecap:square;stroke-linejoin:miter;stroke-miterlimit:10;stroke-dasharray:none;stroke-opacity:1"
                         d="M 0,0 H 59.84" /><g
                         transform="translate(0,-21.42)"
                         id="g48"><path
                           id="path50"
                           style="fill:none;stroke:#231f20;stroke-width:0.68000001;stroke-linecap:square;stroke-linejoin:miter;stroke-miterlimit:10;stroke-dasharray:none;stroke-opacity:1"
                           d="M 0,0 H 59.84" /></g></g></g></g></g></g></g></g></g></g><path
       id="path52"
       style="fill:none;stroke:#231f20;stroke-width:0.68000001;stroke-linecap:square;stroke-linejoin:miter;stroke-miterlimit:10;stroke-dasharray:3.4, 3.4;stroke-dashoffset:0;stroke-opacity:1"
       d="m 95.54,213.859 v 6.8" /><g
       transform="translate(104.048,257.258)"
       id="g54"><path
         id="path56"
         style="fill:none;stroke:#231f20;stroke-width:0.68000001;stroke-linecap:square;stroke-linejoin:miter;stroke-miterlimit:10;stroke-dasharray:none;stroke-opacity:1"
         d="M 0,0 27.827,0.018" /><g
         transform="translate(-73.738,-43.4)"
         id="g58"><path
           id="path60"
           style="fill:none;stroke:#231f20;stroke-width:0.68000001;stroke-linecap:square;stroke-linejoin:miter;stroke-miterlimit:10;stroke-dasharray:none;stroke-opacity:1"
           d="M 0,0 0.493,33.551" /></g></g><path
       id="path62"
       style="fill:none;stroke:#231f20;stroke-width:0.68000001;stroke-linecap:square;stroke-linejoin:miter;stroke-miterlimit:10;stroke-dasharray:3.4, 3.4;stroke-dashoffset:0;stroke-opacity:1"
       d="m 31.6,268.496 v 8.82" /><path
       id="path64"
       style="fill:#ffffff;fill-opacity:1;fill-rule:nonzero;stroke:none"
       d="m 67.66,220.659 h 55.76 v 17 H 67.66 Z" /><g
       transform="translate(76.16,237.659)"
       id="g66"><path
         id="path68"
         style="fill:none;stroke:#231f20;stroke-width:0.68000001;stroke-linecap:square;stroke-linejoin:miter;stroke-miterlimit:10;stroke-dasharray:none;stroke-opacity:1"
         d="m 0,0 h 38.76 c 4.692,0 8.5,-3.808 8.5,-8.5 0,-4.692 -3.808,-8.5 -8.5,-8.5 H 0 c -4.691,0 -8.5,3.808 -8.5,8.5 0,4.692 3.809,8.5 8.5,8.5 z" /></g><text
       id="text72"
       style="font-variant:normal;font-weight:normal;font-stretch:normal;font-size:9px;font-family:Times;-inkscape-font-specification:Times-Roman;writing-mode:lr-tb;fill:#231f20;fill-opacity:1;fill-rule:nonzero;stroke:none"
       transform="matrix(1,0,0,-1,73.541,227.0127)"><tspan
         id="tspan70"
         y="0"
         x="0 4.5 9 11.25 13.5 18 22.5 27 29.25 32.247002 36.747002 41.247002 44.243999">44, 227 (22)</tspan></text>
<path
       id="path74"
       style="fill:#ffffff;fill-opacity:1;fill-rule:nonzero;stroke:none"
       d="m 312.46,193.119 h 71.4 v 13.94 h -71.4 z" /><g
       transform="translate(319.431,207.059)"
       id="g76"><path
         id="path78"
         style="fill:none;stroke:#231f20;stroke-width:0.68000001;stroke-linecap:square;stroke-linejoin:miter;stroke-miterlimit:10;stroke-dasharray:none;stroke-opacity:1"
         d="m 0,0 h 57.459 c 3.848,0 6.971,-3.123 6.971,-6.97 0,-3.847 -3.123,-6.97 -6.971,-6.97 H 0 c -3.849,0 -6.971,3.123 -6.971,6.97 C -6.971,-3.123 -3.849,0 0,0 Z" /></g><text
       id="text82"
       style="font-variant:normal;font-weight:normal;font-stretch:normal;font-size:9px;font-family:Times;-inkscape-font-specification:Times-Roman;writing-mode:lr-tb;fill:#231f20;fill-opacity:1;fill-rule:nonzero;stroke:none"
       transform="matrix(1,0,0,-1,325.0264,197.7593)"><tspan
         id="tspan80"
         y="0"
         x="0 4.5 9 11.25 13.5 18 22.5 24.75 27 31.5 34.001999 38.501999 42.498001 46.998001">47, 50, block</tspan></text>
<path
       id="path84"
       style="fill:#ffffff;fill-opacity:1;fill-rule:nonzero;stroke:none"
       d="m 257.38,171.699 h 126.48 v 13.94 H 257.38 Z" /><g
       transform="translate(264.35,185.638)"
       id="g86"><path
         id="path88"
         style="fill:none;stroke:#231f20;stroke-width:0.68000001;stroke-linecap:square;stroke-linejoin:miter;stroke-miterlimit:10;stroke-dasharray:none;stroke-opacity:1"
         d="m 0,0 h 112.54 c 3.848,0 6.971,-3.122 6.971,-6.97 0,-3.846 -3.123,-6.97 -6.971,-6.97 H 0 c -3.848,0 -6.97,3.124 -6.97,6.97 C -6.97,-3.122 -3.848,0 0,0 Z" /></g><text
       id="text92"
       style="font-variant:normal;font-weight:normal;font-stretch:normal;font-size:9px;font-family:Times;-inkscape-font-specification:Times-Roman;writing-mode:lr-tb;fill:#231f20;fill-opacity:1;fill-rule:nonzero;stroke:none"
       transform="matrix(1,0,0,-1,267.335,176.6372)"><tspan
         id="tspan90"
         y="0"
         x="0 4.5 9 11.25 13.5 18 22.5 24.75 27 29.997 32.499001 36.999001 41.499001 44.000999 48.500999 52.497002 54.999001 57.995998 61.992001 66.491997 68.994003 72.989998 75.987 80.487 84.348 88.848 91.349998 93.851997 98.351997 102.852 106.848 109.845">47, 51, right_circular_cylinder</tspan></text>
<path
       id="path94"
       style="fill:#ffffff;fill-opacity:1;fill-rule:nonzero;stroke:none"
       d="M 207.74,150.279 H 383.86 V 164.22 H 207.74 Z" /><g
       transform="translate(214.71,164.219)"
       id="g96"><path
         id="path98"
         style="fill:none;stroke:#231f20;stroke-width:0.68000001;stroke-linecap:square;stroke-linejoin:miter;stroke-miterlimit:10;stroke-dasharray:none;stroke-opacity:1"
         d="m 0,0 h 162.18 c 3.847,0 6.97,-3.123 6.97,-6.971 0,-3.847 -3.123,-6.97 -6.97,-6.97 H 0 c -3.848,0 -6.97,3.123 -6.97,6.97 C -6.97,-3.123 -3.848,0 0,0 Z" /></g><text
       id="text102"
       style="font-variant:normal;font-weight:normal;font-stretch:normal;font-size:9px;font-family:Times;-inkscape-font-specification:Times-Roman;writing-mode:lr-tb;fill:#231f20;fill-opacity:1;fill-rule:nonzero;stroke:none"
       transform="matrix(1,0,0,-1,212.3359,155.1636)"><tspan
         id="tspan100"
         y="0"
         x="0 4.5 9 11.25 13.5 18 22.5 24.75 27 30.996 35.495998 39.771 43.766998 48.266998 52.263 56.258999 60.758999 65.259003 69.759003 72.755997 76.751999 81.251999 85.751999 89.252998 93.752998 97.749001 102.249 106.245 110.745 113.742 117.738 122.238 125.235 129.231 132.73199 136.728 141.228 143.73 147.726 150.228 152.73 157.23 161.73">48, 52, advanced_brep_shape_representation</tspan></text>
<path
       id="path104"
       style="fill:#ffffff;fill-opacity:1;fill-rule:nonzero;stroke:none"
       d="m 183.26,128.859 h 200.601 v 13.94 H 183.26 Z" /><g
       transform="translate(190.23,142.798)"
       id="g106"><path
         id="path108"
         style="fill:none;stroke:#231f20;stroke-width:0.68000001;stroke-linecap:square;stroke-linejoin:miter;stroke-miterlimit:10;stroke-dasharray:none;stroke-opacity:1"
         d="m 0,0 h 186.66 c 3.848,0 6.971,-3.122 6.971,-6.97 0,-3.847 -3.123,-6.97 -6.971,-6.97 H 0 c -3.848,0 -6.97,3.123 -6.97,6.97 C -6.97,-3.122 -3.848,0 0,0 Z" /></g><text
       id="text112"
       style="font-variant:normal;font-weight:normal;font-stretch:normal;font-size:9px;font-family:Times;-inkscape-font-specification:Times-Roman;writing-mode:lr-tb;fill:#231f20;fill-opacity:1;fill-rule:nonzero;stroke:none"
       transform="matrix(1,0,0,-1,185.5869,133.7564)"><tspan
         id="tspan110"
         y="0"
         x="0 4.5 9 11.25 13.5 18 22.5 24.75 27 30.996 35.495998 39.995998 43.992001 48.492001 52.992001 56.987999 60.488998 64.485001 68.985001 73.485001 79.983002 82.485001 85.482002 89.477997 92.474998 95.472 99.468002 106.47 110.466 114.966 118.467 122.967 126.963 131.463 135.459 139.959 142.95599 146.952 151.452 154.44901 158.44501 161.946 165.942 170.442 172.944 176.94 179.442 181.944 186.444 190.944">48, 53, edge_based_wireframe_shape_representation</tspan></text>
<path
       id="path114"
       style="fill:#ffffff;fill-opacity:1;fill-rule:nonzero;stroke:none"
       d="M 215.899,107.439 H 383.86 v 13.939 H 215.899 Z" /><g
       transform="translate(222.87,121.378)"
       id="g116"><path
         id="path118"
         style="fill:none;stroke:#231f20;stroke-width:0.68000001;stroke-linecap:square;stroke-linejoin:miter;stroke-miterlimit:10;stroke-dasharray:none;stroke-opacity:1"
         d="m 0,0 h 154.019 c 3.848,0 6.971,-3.123 6.971,-6.97 0,-3.847 -3.123,-6.969 -6.971,-6.969 H 0 c -3.848,0 -6.971,3.122 -6.971,6.969 C -6.971,-3.123 -3.848,0 0,0 Z" /></g><text
       id="text122"
       style="font-variant:normal;font-weight:normal;font-stretch:normal;font-size:9px;font-family:Times;-inkscape-font-specification:Times-Roman;writing-mode:lr-tb;fill:#231f20;fill-opacity:1;fill-rule:nonzero;stroke:none"
       transform="matrix(1,0,0,-1,220.7236,112.2837)"><tspan
         id="tspan120"
         y="0"
         x="0 4.5 9 11.25 13.5 18 22.5 24.75 27 29.907 33.903 37.898998 41.895 44.396999 48.393002 52.893002 57.393002 61.893002 64.889999 68.886002 73.386002 77.886002 81.387001 85.887001 89.883003 94.383003 98.378998 102.879 105.876 109.872 114.372 117.369 121.365 124.866 128.862 133.362 135.864 139.86 142.362 144.864 149.364 153.864">48, 54, faceted_brep_shape_representation</tspan></text>
<path
       id="path124"
       style="fill:#ffffff;fill-opacity:1;fill-rule:nonzero;stroke:none"
       d="M 151.98,86.019 H 383.86 V 99.958 H 151.98 Z" /><g
       transform="translate(158.95,99.959)"
       id="g126"><path
         id="path128"
         style="fill:none;stroke:#231f20;stroke-width:0.68000001;stroke-linecap:square;stroke-linejoin:miter;stroke-miterlimit:10;stroke-dasharray:none;stroke-opacity:1"
         d="m 0,0 h 217.939 c 3.848,0 6.971,-3.122 6.971,-6.97 0,-3.847 -3.123,-6.969 -6.971,-6.969 H 0 c -3.848,0 -6.97,3.122 -6.97,6.969 C -6.97,-3.122 -3.848,0 0,0 Z" /></g><text
       id="text132"
       style="font-variant:normal;font-weight:normal;font-stretch:normal;font-size:9px;font-family:Times;-inkscape-font-specification:Times-Roman;writing-mode:lr-tb;fill:#231f20;fill-opacity:1;fill-rule:nonzero;stroke:none"
       transform="matrix(1,0,0,-1,154.7534,90.9165)"><tspan
         id="tspan130"
         y="0"
         x="0 4.5 9 11.25 13.5 18 22.5 24.75 27 31.5 35.495998 39.995998 46.998001 50.993999 53.495998 56.493 58.994999 62.991001 66.987 69.488998 71.990997 76.490997 80.990997 85.490997 89.990997 94.490997 98.990997 103.491 107.487 111.987 116.487 119.988 124.488 127.485 130.392 134.388 138.384 142.38 146.88 150.381 154.881 158.877 163.377 167.373 171.873 174.87 178.866 183.366 186.36301 190.35899 193.86 197.856 202.356 204.858 208.854 211.356 213.858 218.358 222.858">48, 55, geometrically_bounded_surface_shape_representation</tspan></text>
<path
       id="path134"
       style="fill:#ffffff;fill-opacity:1;fill-rule:nonzero;stroke:none"
       d="M 143.82,64.599 H 383.86 V 78.54 H 143.82 Z" /><g
       transform="translate(150.79,78.54)"
       id="g136"><path
         id="path138"
         style="fill:none;stroke:#231f20;stroke-width:0.68000001;stroke-linecap:square;stroke-linejoin:miter;stroke-miterlimit:10;stroke-dasharray:none;stroke-opacity:1"
         d="m 0,0 h 226.1 c 3.847,0 6.97,-3.123 6.97,-6.971 0,-3.847 -3.123,-6.97 -6.97,-6.97 H 0 c -3.848,0 -6.97,3.123 -6.97,6.97 C -6.97,-3.123 -3.848,0 0,0 Z" /></g><text
       id="text142"
       style="font-variant:normal;font-weight:normal;font-stretch:normal;font-size:9px;font-family:Times;-inkscape-font-specification:Times-Roman;writing-mode:lr-tb;fill:#231f20;fill-opacity:1;fill-rule:nonzero;stroke:none"
       transform="matrix(1,0,0,-1,146.145,69.4966)"><tspan
         id="tspan140"
         y="0"
         x="0 4.5 9 11.25 13.5 18 22.5 24.75 27 31.5 35.495998 39.995998 46.998001 50.993999 53.495998 56.493 58.994999 62.991001 66.987 69.488998 71.990997 76.490997 80.990997 85.490997 89.990997 94.490997 98.990997 103.491 107.487 111.987 116.487 122.985 125.487 128.48399 132.48 135.47701 138.474 142.47 149.472 153.468 157.968 161.46899 165.96899 169.965 174.465 178.461 182.961 185.95799 189.95399 194.45399 197.451 201.44701 204.948 208.944 213.444 215.946 219.942 222.444 224.946 229.446 233.946">48, 56, geometrically_bounded_wireframe_shape_representation</tspan></text>
<path
       id="path144"
       style="fill:#ffffff;fill-opacity:1;fill-rule:nonzero;stroke:none"
       d="m 200.26,43.178 h 183.6 v 13.94 h -183.6 z" /><g
       transform="translate(207.23,57.119)"
       id="g146"><path
         id="path148"
         style="fill:none;stroke:#231f20;stroke-width:0.68000001;stroke-linecap:square;stroke-linejoin:miter;stroke-miterlimit:10;stroke-dasharray:none;stroke-opacity:1"
         d="m 0,0 h 169.66 c 3.848,0 6.971,-3.122 6.971,-6.97 0,-3.847 -3.123,-6.97 -6.971,-6.97 H 0 c -3.848,0 -6.97,3.123 -6.97,6.97 C -6.97,-3.122 -3.848,0 0,0 Z" /></g><text
       id="text152"
       style="font-variant:normal;font-weight:normal;font-stretch:normal;font-size:9px;font-family:Times;-inkscape-font-specification:Times-Roman;writing-mode:lr-tb;fill:#231f20;fill-opacity:1;fill-rule:nonzero;stroke:none"
       transform="matrix(1,0,0,-1,205.6533,48.023)"><tspan
         id="tspan150"
         y="0"
         x="0 4.5 9 11.25 13.5 18 22.5 24.75 27 34.001999 37.998001 42.498001 45 47.997002 52.497002 54.999001 59.499001 63.999001 67.5 72 74.997002 77.903999 81.900002 85.896004 89.891998 94.391998 97.892998 102.393 106.389 110.889 114.885 119.385 122.382 126.378 130.87801 133.875 137.871 141.37199 145.368 149.868 152.37 156.366 158.868 161.37 165.87 170.37">48, 57, manifold_surface_shape_representation</tspan></text>
<path
       id="path154"
       style="fill:#ffffff;fill-opacity:1;fill-rule:nonzero;stroke:none"
       d="M 183.26,21.758 H 383.861 V 35.699 H 183.26 Z" /><g
       transform="translate(190.23,35.699)"
       id="g156"><path
         id="path158"
         style="fill:none;stroke:#231f20;stroke-width:0.68000001;stroke-linecap:square;stroke-linejoin:miter;stroke-miterlimit:10;stroke-dasharray:none;stroke-opacity:1"
         d="m 0,0 h 186.66 c 3.848,0 6.971,-3.123 6.971,-6.971 0,-3.847 -3.123,-6.97 -6.971,-6.97 H 0 c -3.848,0 -6.97,3.123 -6.97,6.97 C -6.97,-3.123 -3.848,0 0,0 Z" /></g><text
       id="text162"
       style="font-variant:normal;font-weight:normal;font-stretch:normal;font-size:9px;font-family:Times;-inkscape-font-specification:Times-Roman;writing-mode:lr-tb;fill:#231f20;fill-opacity:1;fill-rule:nonzero;stroke:none"
       transform="matrix(1,0,0,-1,188.0801,26.6035)"><tspan
         id="tspan160"
         y="0"
         x="0 4.5 9 11.25 13.5 18 22.5 24.75 27 31.5 36 40.5 45 52.001999 55.998001 60.498001 63 65.997002 70.497002 72.999001 77.499001 81.999001 85.5 90 92.997002 95.903999 99.900002 103.896 107.892 112.392 115.893 120.393 124.389 128.88901 132.88499 137.38499 140.382 144.37801 148.87801 151.875 155.871 159.37199 163.368 167.868 170.37 174.366 176.868 179.37 183.87 188.37">48, 58, non_manifold_surface_shape_representation</tspan></text>
<path
       id="path164"
       style="fill:#ffffff;fill-opacity:1;fill-rule:nonzero;stroke:none"
       d="m 183.26,0.33987 h 200.601 v 13.939 H 183.26 Z" /><g
       transform="translate(190.23,14.279)"
       id="g166"><path
         id="path168"
         style="fill:none;stroke:#231f20;stroke-width:0.68000001;stroke-linecap:square;stroke-linejoin:miter;stroke-miterlimit:10;stroke-dasharray:none;stroke-opacity:1"
         d="m 0,0 h 186.66 c 3.848,0 6.971,-3.123 6.971,-6.9707 0,-3.8473 -3.123,-6.9683 -6.971,-6.9683 H 0 c -3.848,0 -6.97,3.121 -6.97,6.9683 C -6.97,-3.123 -3.848,0 0,0 Z" /></g><text
       id="text172"
       style="font-variant:normal;font-weight:normal;font-stretch:normal;font-size:9px;font-family:Times;-inkscape-font-specification:Times-Roman;writing-mode:lr-tb;fill:#231f20;fill-opacity:1;fill-rule:nonzero;stroke:none"
       transform="matrix(1,0,0,-1,186.2725,5.1836)"><tspan
         id="tspan170"
         y="0"
         x="0 4.5 9 11.25 13.5 18 22.5 24.75 27 30.500999 35.000999 38.997002 41.499001 44.000999 48.500999 53.000999 56.997002 60.498001 64.494003 68.994003 73.494003 79.991997 82.494003 85.490997 89.487 92.484001 95.481003 99.476997 106.479 110.475 114.975 118.476 122.976 126.972 131.472 135.468 139.968 142.965 146.961 151.461 154.45799 158.45399 161.955 165.951 170.451 172.953 176.94901 179.451 181.953 186.453 190.953">48, 59, shell_based_wireframe_shape_representation</tspan></text>
<path
       id="path174"
       style="fill:#ffffff;fill-opacity:1;fill-rule:nonzero;stroke:none"
       d="m 0.3398,0.33987 h 123.08 v 206.719 H 0.3398 Z" /><path
       id="path176"
       style="fill:none;stroke:#231f20;stroke-width:0.68000001;stroke-linecap:square;stroke-linejoin:miter;stroke-miterlimit:10;stroke-dasharray:3.4, 3.4;stroke-dashoffset:0;stroke-opacity:1"
       d="M 0.3398,207.059 V 0.33987 H 123.42 V 207.059 Z M 7.1401,0.33987 V 207.059" /><text
       id="text180"
       style="font-variant:normal;font-weight:normal;font-stretch:normal;font-size:9px;font-family:Times;-inkscape-font-specification:Times-Roman;writing-mode:lr-tb;fill:#231f20;fill-opacity:1;fill-rule:nonzero;stroke:none"
       transform="matrix(1,0,0,-1,16.2959,101.6665)"><tspan
         id="tspan178"
         y="0"
         x="0 4.5 9 13.5 18 22.5 25.002001 29.502001 34.001999 38.501999 43.001999 46.998001 51.498001 58.5 62.495998 64.998001 67.995003 72.495003 76.995003 80.496002 84.491997 86.994003 90.989998 94.986 97.487999">bounding_geometry_select</tspan></text>
<g
       transform="translate(98.889,210.445)"
       id="g182"><path
         id="path184"
         style="fill:#ffffff;fill-opacity:1;fill-rule:nonzero;stroke:none"
         d="m 0,0 c 0,1.877 -1.523,3.399 -3.4,3.399 -1.877,0 -3.4,-1.522 -3.4,-3.399 0,-1.877 1.523,-3.4 3.4,-3.4 1.877,0 3.4,1.523 3.4,3.4" /></g><g
       transform="translate(98.889,210.445)"
       id="g186"><path
         id="path188"
         style="fill:none;stroke:#231f20;stroke-width:0.68000001;stroke-linecap:square;stroke-linejoin:miter;stroke-miterlimit:10;stroke-dasharray:none;stroke-opacity:1"
         d="m 0,0 c 0,1.877 -1.523,3.399 -3.4,3.399 -1.877,0 -3.4,-1.522 -3.4,-3.399 0,-1.877 1.523,-3.4 3.4,-3.4 1.877,0 3.4,1.523 3.4,3.4" /></g><path
       id="path190"
       style="fill:#ffffff;fill-opacity:1;fill-rule:nonzero;stroke:none"
       d="m 6.7554,247.41 h 97.293 v 14.286 H 6.7554 Z" /><path
       id="path192"
       style="fill:none;stroke:#231f20;stroke-width:0.68000001;stroke-linecap:square;stroke-linejoin:miter;stroke-miterlimit:10;stroke-dasharray:3.4, 3.4;stroke-dashoffset:0;stroke-opacity:1"
       d="M 6.7554,261.695 V 247.41 h 97.2926 v 14.285 z M 13.555,247.41 v 14.285" /><text
       id="text196"
       style="font-variant:normal;font-weight:normal;font-stretch:normal;font-size:9px;font-family:Times;-inkscape-font-specification:Times-Roman;writing-mode:lr-tb;fill:#231f20;fill-opacity:1;fill-rule:nonzero;stroke:none"
       transform="matrix(1,0,0,-1,18.6675,252.1333)"><tspan
         id="tspan194"
         y="0"
         x="0 2.997 6.993 10.494 12.996 15.993 18.495001 22.490999 24.993 28.989 33.488998 37.988998 41.985001 44.981998 48.978001 52.973999 57.473999 60.974998 64.971001 67.473 71.469002 75.464996 77.967003">restricted_area_select</tspan></text>
<path
       id="path198"
       style="fill:#ffffff;fill-opacity:1;fill-rule:nonzero;stroke:none"
       d="m 131.875,250.306 h 110.161 v 13.94 H 131.875 Z" /><g
       transform="translate(138.845,264.246)"
       id="g200"><path
         id="path202"
         style="fill:none;stroke:#231f20;stroke-width:0.68000001;stroke-linecap:square;stroke-linejoin:miter;stroke-miterlimit:10;stroke-dasharray:none;stroke-opacity:1"
         d="m 0,0 h 96.22 c 3.848,0 6.971,-3.123 6.971,-6.97 0,-3.847 -3.123,-6.97 -6.971,-6.97 H 0 c -3.848,0 -6.97,3.123 -6.97,6.97 C -6.97,-3.123 -3.848,0 0,0 Z" /></g><text
       id="text206"
       style="font-variant:normal;font-weight:normal;font-stretch:normal;font-size:9px;font-family:Times;-inkscape-font-specification:Times-Roman;writing-mode:lr-tb;fill:#231f20;fill-opacity:1;fill-rule:nonzero;stroke:none"
       transform="matrix(1,0,0,-1,141.8183,254.9048)"><tspan
         id="tspan204"
         y="0"
         x="0 4.5 9 11.25 13.5 18 22.5 24.75 27 31.5 36 40.5 45 49.5 53.495998 57.995998 62.495998 65.997002 70.497002 73.494003 76.401001 80.397003 84.392998 88.389">47, 80, bounded_surface</tspan></text>
<g
       transform="translate(33.609,210.445)"
       id="g208"><path
         id="path210"
         style="fill:#ffffff;fill-opacity:1;fill-rule:nonzero;stroke:none"
         d="m 0,0 c 0,1.877 -1.523,3.399 -3.4,3.399 -1.876,0 -3.4,-1.522 -3.4,-3.399 0,-1.877 1.524,-3.4 3.4,-3.4 1.877,0 3.4,1.523 3.4,3.4" /></g><g
       transform="translate(33.609,210.445)"
       id="g212"><path
         id="path214"
         style="fill:none;stroke:#231f20;stroke-width:0.68000001;stroke-linecap:square;stroke-linejoin:miter;stroke-miterlimit:10;stroke-dasharray:none;stroke-opacity:1"
         d="m 0,0 c 0,1.877 -1.523,3.399 -3.4,3.399 -1.876,0 -3.4,-1.522 -3.4,-3.399 0,-1.877 1.524,-3.4 3.4,-3.4 1.877,0 3.4,1.523 3.4,3.4" /></g><path
       id="path216"
       style="fill:#ffffff;fill-opacity:1;fill-rule:nonzero;stroke:none"
       d="m 8.0122,277.316 h 47.6 v 17 h -47.6 z" /><g
       transform="translate(16.512,294.316)"
       id="g218"><path
         id="path220"
         style="fill:none;stroke:#231f20;stroke-width:0.68000001;stroke-linecap:square;stroke-linejoin:miter;stroke-miterlimit:10;stroke-dasharray:none;stroke-opacity:1"
         d="m 0,0 h 30.6 c 4.692,0 8.5,-3.808 8.5,-8.5 0,-4.692 -3.808,-8.5 -8.5,-8.5 H 0 c -4.692,0 -8.5,3.808 -8.5,8.5 0,4.692 3.808,8.5 8.5,8.5 z" /></g><text
       id="text224"
       style="font-variant:normal;font-weight:normal;font-stretch:normal;font-size:9px;font-family:Times;-inkscape-font-specification:Times-Roman;writing-mode:lr-tb;fill:#231f20;fill-opacity:1;fill-rule:nonzero;stroke:none"
       transform="matrix(1,0,0,-1,12.081,283.6704)"><tspan
         id="tspan222"
         y="0"
         x="0 4.5 9 11.25 13.5 18 22.5 27 29.25 32.247002 36.747002 39.743999">44, 237 (1)</tspan></text>
<g
       transform="translate(35.037,265.117)"
       id="g226"><path
         id="path228"
         style="fill:#ffffff;fill-opacity:1;fill-rule:nonzero;stroke:none"
         d="m 0,0 c 0,1.876 -1.523,3.4 -3.4,3.4 -1.877,0 -3.4,-1.524 -3.4,-3.4 0,-1.877 1.523,-3.4 3.4,-3.4 1.877,0 3.4,1.523 3.4,3.4" /></g><g
       transform="translate(35.037,265.117)"
       id="g230"><path
         id="path232"
         style="fill:none;stroke:#231f20;stroke-width:0.68000001;stroke-linecap:square;stroke-linejoin:miter;stroke-miterlimit:10;stroke-dasharray:none;stroke-opacity:1"
         d="m 0,0 c 0,1.876 -1.523,3.4 -3.4,3.4 -1.877,0 -3.4,-1.524 -3.4,-3.4 0,-1.877 1.523,-3.4 3.4,-3.4 1.877,0 3.4,1.523 3.4,3.4" /></g></g></svg>