<?xml version="1.0" encoding="UTF-8" standalone="no"?>
<svg
   xmlns:dc="http://purl.org/dc/elements/1.1/"
   xmlns:cc="http://creativecommons.org/ns#"
   xmlns:rdf="http://www.w3.org/1999/02/22-rdf-syntax-ns#"
   xmlns:svg="http://www.w3.org/2000/svg"
   xmlns="http://www.w3.org/2000/svg"
   viewBox="0 0 507.70532 662.09869"
   height="662.09869"
   width="507.70532"
   xml:space="preserve"
   id="svg2"
   version="1.1"><metadata
     id="metadata8"><rdf:RDF><cc:Work
         rdf:about=""><dc:format>image/svg+xml</dc:format><dc:type
           rdf:resource="http://purl.org/dc/dcmitype/StillImage" /></cc:Work></rdf:RDF></metadata><defs
     id="defs6"><clipPath
       id="clipPath166"
       clipPathUnits="userSpaceOnUse"><path
         id="path164"
         d="M 107.1,421.859 H 0.34 v -17 H 107.1 Z" /></clipPath><clipPath
       id="clipPath198"
       clipPathUnits="userSpaceOnUse"><path
         id="path196"
         d="m 380.439,443.279 h -70.04 v -17 h 70.04 z" /></clipPath><clipPath
       id="clipPath308"
       clipPathUnits="userSpaceOnUse"><path
         id="path306"
         d="m 334.593,153.192 h -68.679 v -17 h 68.679 z" /></clipPath><clipPath
       id="clipPath350"
       clipPathUnits="userSpaceOnUse"><path
         id="path348"
         d="M 334.593,85.871 H 223.754 v -17 h 110.839 z" /></clipPath></defs><g
     transform="matrix(1.3333333,0,0,-1.3333333,0,662.09867)"
     id="g10"><g
       transform="translate(187.125,474.553)"
       id="g12"><path
         id="path14"
         style="fill:none;stroke:#231f20;stroke-width:0.68000001;stroke-linecap:square;stroke-linejoin:miter;stroke-miterlimit:10;stroke-dasharray:none;stroke-opacity:1"
         d="M 0,0 -0.465,7.741" /></g><g
       transform="translate(69.935,367.307)"
       id="g16"><path
         id="path18"
         style="fill:none;stroke:#231f20;stroke-width:2.03999996;stroke-linecap:square;stroke-linejoin:miter;stroke-miterlimit:10;stroke-dasharray:none;stroke-opacity:1"
         d="M 0,0 -0.064,10.733" /></g><g
       transform="translate(157.42,460.788)"
       id="g20"><path
         id="path22"
         style="fill:none;stroke:#231f20;stroke-width:0.68000001;stroke-linecap:square;stroke-linejoin:miter;stroke-miterlimit:10;stroke-dasharray:none;stroke-opacity:1"
         d="M 0,0 H -76.16" /></g><path
       id="path24"
       style="fill:none;stroke:#231f20;stroke-width:0.68000001;stroke-linecap:square;stroke-linejoin:miter;stroke-miterlimit:10;stroke-dasharray:3.4, 3.4;stroke-dashoffset:0;stroke-opacity:1"
       d="M 157.42,437.839 H 90.78 m 66.64,-24.48 H 107.1" /><g
       transform="translate(217.239,459.259)"
       id="g26"><path
         id="path28"
         style="fill:none;stroke:#231f20;stroke-width:0.68000001;stroke-linecap:square;stroke-linejoin:miter;stroke-miterlimit:10;stroke-dasharray:none;stroke-opacity:1"
         d="M 0,0 H 86.359" /></g><path
       id="path30"
       style="fill:none;stroke:#231f20;stroke-width:0.68000001;stroke-linecap:square;stroke-linejoin:miter;stroke-miterlimit:10;stroke-dasharray:3.4, 3.4;stroke-dashoffset:0;stroke-opacity:1"
       d="m 217.239,434.779 h 93.16" /><g
       transform="translate(172.592,384.383)"
       id="g32"><path
         id="path34"
         style="fill:none;stroke:#231f20;stroke-width:0.68000001;stroke-linecap:square;stroke-linejoin:miter;stroke-miterlimit:10;stroke-dasharray:none;stroke-opacity:1"
         d="M 0,0 V 20.476" /><g
         id="g36"><path
           id="path38"
           style="fill:none;stroke:#231f20;stroke-width:0.68000001;stroke-linecap:square;stroke-linejoin:miter;stroke-miterlimit:10;stroke-dasharray:none;stroke-opacity:1"
           d="M 0,0 H -75.225" /><g
           transform="translate(-101.395,-224.391)"
           id="g40"><path
             id="path42"
             style="fill:none;stroke:#231f20;stroke-width:0.68000001;stroke-linecap:square;stroke-linejoin:miter;stroke-miterlimit:10;stroke-dasharray:none;stroke-opacity:1"
             d="M 0,0 0.27,22.991" /><g
             transform="translate(70.242,72.802)"
             id="g44"><path
               id="path46"
               style="fill:none;stroke:#231f20;stroke-width:0.68000001;stroke-linecap:square;stroke-linejoin:miter;stroke-miterlimit:10;stroke-dasharray:none;stroke-opacity:1"
               d="M 0,0 H -49.98" /><g
               transform="translate(49.98)"
               id="g48"><path
                 id="path50"
                 style="fill:none;stroke:#231f20;stroke-width:0.68000001;stroke-linecap:square;stroke-linejoin:miter;stroke-miterlimit:10;stroke-dasharray:none;stroke-opacity:1"
                 d="M 0,0 H -49.98 V 0" /><g
                 transform="translate(-99.961,-21.42)"
                 id="g52"><path
                   id="path54"
                   style="fill:none;stroke:#231f20;stroke-width:0.68000001;stroke-linecap:square;stroke-linejoin:miter;stroke-miterlimit:10;stroke-dasharray:none;stroke-opacity:1"
                   d="M 0,0 H 59.84" /></g></g></g></g></g></g><path
       id="path56"
       style="fill:none;stroke:#231f20;stroke-width:0.68000001;stroke-linecap:square;stroke-linejoin:miter;stroke-miterlimit:10;stroke-dasharray:3.4, 3.4;stroke-dashoffset:0;stroke-opacity:1"
       d="M 91.459,189.955 H 149.94" /><g
       transform="translate(76.427,47.111)"
       id="g58"><path
         id="path60"
         style="fill:none;stroke:#231f20;stroke-width:0.68000001;stroke-linecap:square;stroke-linejoin:miter;stroke-miterlimit:10;stroke-dasharray:none;stroke-opacity:1"
         d="M 0,0 V 21.76" /><g
         transform="translate(69.127,97.581)"
         id="g62"><path
           id="path64"
           style="fill:none;stroke:#231f20;stroke-width:0.68000001;stroke-linecap:square;stroke-linejoin:miter;stroke-miterlimit:10;stroke-dasharray:none;stroke-opacity:1"
           d="M 0,0 H 120.36" /></g></g><path
       id="path66"
       style="fill:none;stroke:#231f20;stroke-width:0.68000001;stroke-linecap:square;stroke-linejoin:miter;stroke-miterlimit:10;stroke-dasharray:3.4, 3.4;stroke-dashoffset:0;stroke-opacity:1"
       d="m 145.554,121.742 h 89.761" /><g
       transform="translate(145.554,100.321)"
       id="g68"><path
         id="path70"
         style="fill:none;stroke:#231f20;stroke-width:0.68000001;stroke-linecap:square;stroke-linejoin:miter;stroke-miterlimit:10;stroke-dasharray:none;stroke-opacity:1"
         d="M 0,0 H 66.64" /></g><path
       id="path72"
       style="fill:none;stroke:#231f20;stroke-width:0.68000001;stroke-linecap:square;stroke-linejoin:miter;stroke-miterlimit:10;stroke-dasharray:3.4, 3.4;stroke-dashoffset:0;stroke-opacity:1"
       d="m 223.754,77.371 h -78.2 M 135.277,33.342 h 98.6 m -98.6,-21.421 h 82.281 M 73.07,276.187 73.5,246.564" /><g
       transform="translate(97.367,384.383)"
       id="g74"><path
         id="path76"
         style="fill:none;stroke:#231f20;stroke-width:0.68000001;stroke-linecap:square;stroke-linejoin:miter;stroke-miterlimit:10;stroke-dasharray:none;stroke-opacity:1"
         d="M 0,0 V -17.076" /><g
         transform="translate(82.45,-32.376)"
         id="g78"><path
           id="path80"
           style="fill:none;stroke:#231f20;stroke-width:0.68000001;stroke-linecap:square;stroke-linejoin:miter;stroke-miterlimit:10;stroke-dasharray:none;stroke-opacity:1"
           d="M 0,0 H -74.12" /><g
           transform="translate(74.12)"
           id="g82"><path
             id="path84"
             style="fill:none;stroke:#231f20;stroke-width:0.68000001;stroke-linecap:square;stroke-linejoin:miter;stroke-miterlimit:10;stroke-dasharray:none;stroke-opacity:1"
             d="M 0,0 H -74.12 V 0" /></g></g></g><path
       id="path86"
       style="fill:none;stroke:#231f20;stroke-width:0.68000001;stroke-linecap:square;stroke-linejoin:miter;stroke-miterlimit:10;stroke-dasharray:3.4, 3.4;stroke-dashoffset:0;stroke-opacity:1"
       d="m 277.737,327.527 h -172.04 m 0,-22.951 h 112.2 m -112.2,-21.419 h 121.04" /><path
       id="path88"
       style="fill:#ffffff;fill-opacity:1;fill-rule:nonzero;stroke:none"
       d="m 151.3,482.294 h 70.72 v 13.94 H 151.3 Z" /><g
       transform="translate(158.269,496.234)"
       id="g90"><path
         id="path92"
         style="fill:none;stroke:#231f20;stroke-width:0.68000001;stroke-linecap:square;stroke-linejoin:miter;stroke-miterlimit:10;stroke-dasharray:none;stroke-opacity:1"
         d="m 0,0 h 56.781 c 3.846,0 6.97,-3.123 6.97,-6.97 0,-3.847 -3.124,-6.97 -6.97,-6.97 H 0 c -3.847,0 -6.97,3.123 -6.97,6.97 C -6.97,-3.123 -3.847,0 0,0 Z" /></g><text
       id="text96"
       style="font-variant:normal;font-weight:normal;font-stretch:normal;font-size:9px;font-family:Times;-inkscape-font-specification:Times-Roman;writing-mode:lr-tb;fill:#231f20;fill-opacity:1;fill-rule:nonzero;stroke:none"
       transform="matrix(1,0,0,-1,162.3925,487.1181)"><tspan
         id="tspan94"
         y="0"
         x="0 4.5 6.75 9 13.5 18 20.25 23.247 27.747 32.247002 34.497002 36.747002 41.247002 45.747002 48.743999">1, 97 (42, 42)</tspan></text>
<path
       id="path98"
       style="fill:#ffffff;fill-opacity:1;fill-rule:nonzero;stroke:none"
       d="m 46.071,378.041 h 47.6 v 17 h -47.6 z" /><g
       transform="translate(54.571,395.04)"
       id="g100"><path
         id="path102"
         style="fill:none;stroke:#231f20;stroke-width:0.68000001;stroke-linecap:square;stroke-linejoin:miter;stroke-miterlimit:10;stroke-dasharray:none;stroke-opacity:1"
         d="m 0,0 h 30.6 c 4.692,0 8.5,-3.807 8.5,-8.5 0,-4.691 -3.808,-8.5 -8.5,-8.5 H 0 c -4.692,0 -8.5,3.809 -8.5,8.5 0,4.693 3.808,8.5 8.5,8.5 z" /></g><text
       id="text106"
       style="font-variant:normal;font-weight:normal;font-stretch:normal;font-size:9px;font-family:Times;-inkscape-font-specification:Times-Roman;writing-mode:lr-tb;fill:#231f20;fill-opacity:1;fill-rule:nonzero;stroke:none"
       transform="matrix(1,0,0,-1,52.4086,384.395)"><tspan
         id="tspan104"
         y="0"
         x="0 4.5 6.75 9 13.5 18 22.5 24.75 27.747 32.247002 35.243999">1, 235 (2)</tspan></text>
<path
       id="path108"
       style="fill:#ffffff;fill-opacity:1;fill-rule:nonzero;stroke:none"
       d="m 157.42,404.859 h 59.819 v 62.9 H 157.42 Z" /><g
       transform="translate(157.42,467.759)"
       id="g110"><path
         id="path112"
         style="fill:none;stroke:#231f20;stroke-width:0.68000001;stroke-linecap:square;stroke-linejoin:miter;stroke-miterlimit:10;stroke-dasharray:none;stroke-opacity:1"
         d="M 59.819,0 H 0 v -62.9 h 59.819 z" /><g
         id="g114"><path
           id="path116"
           style="fill:none;stroke:#231f20;stroke-width:0.68000001;stroke-linecap:square;stroke-linejoin:miter;stroke-miterlimit:10;stroke-dasharray:none;stroke-opacity:1"
           d="M 0,0 Z" /></g></g><text
       id="text120"
       style="font-variant:normal;font-weight:normal;font-stretch:normal;font-size:9px;font-family:Times;-inkscape-font-specification:Times-Roman;writing-mode:lr-tb;fill:#231f20;fill-opacity:1;fill-rule:nonzero;stroke:none"
       transform="matrix(1,0,0,-1,175.0854,434.2363)"><tspan
         id="tspan118"
         y="0"
         x="0 4.5 7.4970002 11.997 14.499 18.495001 22.490999 24.993">project</tspan></text>
<g
       transform="translate(190.741,471.128)"
       id="g122"><path
         id="path124"
         style="fill:#ffffff;fill-opacity:1;fill-rule:nonzero;stroke:none"
         d="m 0,0 c 0,1.877 -1.521,3.4 -3.399,3.4 -1.877,0 -3.4,-1.523 -3.4,-3.4 0,-1.877 1.523,-3.4 3.4,-3.4 C -1.521,-3.4 0,-1.877 0,0" /></g><g
       transform="translate(190.741,471.128)"
       id="g126"><path
         id="path128"
         style="fill:none;stroke:#231f20;stroke-width:0.68000001;stroke-linecap:square;stroke-linejoin:miter;stroke-miterlimit:10;stroke-dasharray:none;stroke-opacity:1"
         d="m 0,0 c 0,1.877 -1.521,3.4 -3.399,3.4 -1.877,0 -3.4,-1.523 -3.4,-3.4 0,-1.877 1.523,-3.4 3.4,-3.4 C -1.521,-3.4 0,-1.877 0,0" /></g><path
       id="path130"
       style="fill:#ffffff;fill-opacity:1;fill-rule:nonzero;stroke:none"
       d="m 0.33978,453.819 h 80.92 v 13.94 h -80.92 z" /><g
       transform="translate(7.31,467.759)"
       id="g132"><path
         id="path134"
         style="fill:none;stroke:#231f20;stroke-width:0.68000001;stroke-linecap:square;stroke-linejoin:miter;stroke-miterlimit:10;stroke-dasharray:none;stroke-opacity:1"
         d="m 0,0 h 66.98 c 3.847,0 6.97,-3.123 6.97,-6.97 0,-3.847 -3.123,-6.97 -6.97,-6.97 H 0 c -3.8472,0 -6.9702,3.123 -6.9702,6.97 0,3.847 3.123,6.97 6.9702,6.97 z" /></g><text
       id="text138"
       style="font-variant:normal;font-weight:normal;font-stretch:normal;font-size:9px;font-family:Times;-inkscape-font-specification:Times-Roman;writing-mode:lr-tb;fill:#231f20;fill-opacity:1;fill-rule:nonzero;stroke:none"
       transform="matrix(1,0,0,-1,11.771,458.4189)"><tspan
         id="tspan136"
         y="0"
         x="0 4.5 9 11.25 13.5 18 22.5 24.75 27 29.502001 34.001999 37.998001 42.498001 45 47.501999 50.319 52.820999 56.817001 59.813999">46, 28, identifier</tspan></text>
<path
       id="path140"
       style="fill:#ffffff;fill-opacity:1;fill-rule:nonzero;stroke:none"
       d="m 0.33978,429.339 h 90.44 v 17 h -90.44 z" /><g
       transform="translate(8.8398,446.339)"
       id="g142"><path
         id="path144"
         style="fill:none;stroke:#231f20;stroke-width:0.68000001;stroke-linecap:square;stroke-linejoin:miter;stroke-miterlimit:10;stroke-dasharray:none;stroke-opacity:1"
         d="m 0,0 h 73.44 c 4.692,0 8.5,-3.808 8.5,-8.5 0,-4.692 -3.808,-8.5 -8.5,-8.5 H 0 c -4.6919,0 -8.5,3.808 -8.5,8.5 0,4.692 3.8081,8.5 8.5,8.5 z" /></g><text
       id="text148"
       style="font-variant:normal;font-weight:normal;font-stretch:normal;font-size:9px;font-family:Times;-inkscape-font-specification:Times-Roman;writing-mode:lr-tb;fill:#231f20;fill-opacity:1;fill-rule:nonzero;stroke:none"
       transform="matrix(1,0,0,-1,2.6914,435.5097)"><tspan
         id="tspan146"
         y="0"
         x="0 4.5 9 11.25 13.5 18 22.5 27 29.25 31.5 36 39.995998 42.498001 46.493999 50.993999 54.990002 59.490002 63.990002 68.489998 70.991997 73.494003 80.496002 84.491997">46, 232, date_and_time</tspan></text>
<path
       id="path150"
       style="fill:#ffffff;fill-opacity:1;fill-rule:nonzero;stroke:none"
       d="m 0.33978,404.859 h 106.76 v 17 h -106.76 z" /><g
       transform="translate(8.8398,421.859)"
       id="g152"><path
         id="path154"
         style="fill:none;stroke:#231f20;stroke-width:0.68000001;stroke-linecap:square;stroke-linejoin:miter;stroke-miterlimit:10;stroke-dasharray:none;stroke-opacity:1"
         d="m 0,0 h 89.76 c 4.692,0 8.5,-3.808 8.5,-8.5 0,-4.691 -3.808,-8.5 -8.5,-8.5 H 0 c -4.6919,0 -8.5,3.809 -8.5,8.5 0,4.692 3.8081,8.5 8.5,8.5 z" /></g><text
       id="text158"
       style="font-variant:normal;font-weight:normal;font-stretch:normal;font-size:9px;font-family:Times;-inkscape-font-specification:Times-Roman;writing-mode:lr-tb;fill:#231f20;fill-opacity:1;fill-rule:nonzero;stroke:none"
       transform="matrix(1,0,0,-1,0.3398,411.2744)"><tspan
         id="tspan156"
         y="0"
         x="0 4.5 9 11.25 13.5 18 22.5 27 29.25 31.5 36 39.995998 42.993 46.493999 50.993999 55.493999 59.993999 63.990002 68.489998 72.989998 77.489998 81.486 85.986 90.486 93.483002 97.478996 100.98">41, 233, person_and_address</tspan></text>
<g
       id="g160"><g
         clip-path="url(#clipPath166)"
         id="g162"><text
           id="text170"
           style="font-variant:normal;font-weight:normal;font-stretch:normal;font-size:9px;font-family:Times;-inkscape-font-specification:Times-Roman;writing-mode:lr-tb;fill:#231f20;fill-opacity:1;fill-rule:nonzero;stroke:none"
           transform="matrix(1,0,0,-1,104.8198,411.2744)"><tspan
             id="tspan168"
             y="0"
             x="0"></tspan></text>
</g></g><path
       id="path172"
       style="fill:#ffffff;fill-opacity:1;fill-rule:nonzero;stroke:none"
       d="m 303.598,450.759 h 76.841 v 17 h -76.841 z" /><g
       transform="translate(312.098,467.759)"
       id="g174"><path
         id="path176"
         style="fill:none;stroke:#231f20;stroke-width:0.68000001;stroke-linecap:square;stroke-linejoin:miter;stroke-miterlimit:10;stroke-dasharray:none;stroke-opacity:1"
         d="m 0,0 h 59.841 c 4.691,0 8.5,-3.808 8.5,-8.5 0,-4.691 -3.809,-8.5 -8.5,-8.5 H 0 c -4.691,0 -8.5,3.809 -8.5,8.5 0,4.692 3.809,8.5 8.5,8.5 z" /></g><text
       id="text180"
       style="font-variant:normal;font-weight:normal;font-stretch:normal;font-size:9px;font-family:Times;-inkscape-font-specification:Times-Roman;writing-mode:lr-tb;fill:#231f20;fill-opacity:1;fill-rule:nonzero;stroke:none"
       transform="matrix(1,0,0,-1,310.0434,457.1748)"><tspan
         id="tspan178"
         y="0"
         x="0 4.5 9 11.25 13.5 18 22.5 24.75 27 33.408001 37.908001 40.904999 45.404999 49.904999 52.407001 56.403 60.398998 64.394997">22, 64, workpiece</tspan></text>
<path
       id="path182"
       style="fill:#ffffff;fill-opacity:1;fill-rule:nonzero;stroke:none"
       d="m 310.399,426.279 h 70.04 v 17 h -70.04 z" /><g
       transform="translate(318.899,443.279)"
       id="g184"><path
         id="path186"
         style="fill:none;stroke:#231f20;stroke-width:0.68000001;stroke-linecap:square;stroke-linejoin:miter;stroke-miterlimit:10;stroke-dasharray:none;stroke-opacity:1"
         d="m 0,0 h 53.04 c 4.691,0 8.5,-3.809 8.5,-8.5 0,-4.692 -3.809,-8.5 -8.5,-8.5 H 0 c -4.692,0 -8.5,3.808 -8.5,8.5 0,4.691 3.808,8.5 8.5,8.5 z" /></g><text
       id="text190"
       style="font-variant:normal;font-weight:normal;font-stretch:normal;font-size:9px;font-family:Times;-inkscape-font-specification:Times-Roman;writing-mode:lr-tb;fill:#231f20;fill-opacity:1;fill-rule:nonzero;stroke:none"
       transform="matrix(1,0,0,-1,313.4399,432.6938)"><tspan
         id="tspan188"
         y="0"
         x="0 4.5 9 11.25 13.5 18 22.5 27 29.25 31.004999 37.502998 42.002998 46.502998 49.5 53.865002 58.139999 62.136002">42, 234, Approval</tspan></text>
<g
       id="g192"><g
         clip-path="url(#clipPath198)"
         id="g194"><text
           id="text202"
           style="font-variant:normal;font-weight:normal;font-stretch:normal;font-size:9px;font-family:Times;-inkscape-font-specification:Times-Roman;writing-mode:lr-tb;fill:#231f20;fill-opacity:1;fill-rule:nonzero;stroke:none"
           transform="matrix(1,0,0,-1,378.0766,432.6938)"><tspan
             id="tspan200"
             y="0"
             x="0"></tspan></text>
</g></g><text
       id="text214"
       style="font-variant:normal;font-weight:normal;font-stretch:normal;font-size:9px;font-family:Times;-inkscape-font-specification:Times-Roman;writing-mode:lr-tb;fill:#231f20;fill-opacity:1;fill-rule:nonzero;stroke:none"
       transform="matrix(1,0,0,-1,88.06,450.8286)"><tspan
         id="tspan204"
         y="0"
         x="0 2.5020001 5.0040002 8.5050001 13.005 15.507 20.007">its_id</tspan><tspan
         id="tspan206"
         y="22.950001"
         x="9.5201998 12.0222 14.5242 18.0252 22.5252 25.5222 29.5182 32.020199 36.016201 40.012199 43.513199 47.509201">its_release</tspan><tspan
         id="tspan208"
         y="47.4291"
         x="25.839899 28.3419 30.843901 34.344898 38.844898 43.1199 49.617901 54.117901 58.113899 61.110901">its_owner</tspan><tspan
         id="tspan210"
         y="1.7927999"
         x="135.9783 138.4803 140.9823 144.48331 148.98331 155.3913 159.8913 162.88831 167.38831 171.88831 174.3903 178.38631 182.38229 186.3783 189.8793 192.1293 197.1333 200.13029 204.63029 207.13229 211.1283 214.12531">its_workpieces S[0:?]</tspan><tspan
         id="tspan212"
         y="26.01"
         x="135.9783 138.4803 140.9823 144.48331 148.98331 152.4843 154.9863 158.9823 161.4843 165.9843 169.48531">its_status</tspan></text>
<path
       id="path216"
       style="fill:#ffffff;fill-opacity:1;fill-rule:nonzero;stroke:none"
       d="m 58.14,182.983 h 33.319 v 56.78 H 58.14 Z" /><g
       transform="translate(58.14,239.764)"
       id="g218"><path
         id="path220"
         style="fill:none;stroke:#231f20;stroke-width:0.68000001;stroke-linecap:square;stroke-linejoin:miter;stroke-miterlimit:10;stroke-dasharray:none;stroke-opacity:1"
         d="M 33.319,0 H 0 v -56.78 h 33.319 z" /><g
         id="g222"><path
           id="path224"
           style="fill:none;stroke:#231f20;stroke-width:0.68000001;stroke-linecap:square;stroke-linejoin:miter;stroke-miterlimit:10;stroke-dasharray:none;stroke-opacity:1"
           d="M 0,0 Z" /></g></g><text
       id="text228"
       style="font-variant:normal;font-weight:normal;font-stretch:normal;font-size:9px;font-family:Times;-inkscape-font-specification:Times-Roman;writing-mode:lr-tb;fill:#231f20;fill-opacity:1;fill-rule:nonzero;stroke:none"
       transform="matrix(1,0,0,-1,64.8198,209.4892)"><tspan
         id="tspan226"
         y="0"
         x="0 3.5009999 7.4970002 9.9989996 14.499 18.999001">setup</tspan></text>
<path
       id="path230"
       style="fill:#ffffff;fill-opacity:1;fill-rule:nonzero;stroke:none"
       d="m 191.42,225.824 h 80.919 v 13.94 H 191.42 Z" /><g
       transform="translate(198.389,239.764)"
       id="g232"><path
         id="path234"
         style="fill:none;stroke:#231f20;stroke-width:0.68000001;stroke-linecap:square;stroke-linejoin:miter;stroke-miterlimit:10;stroke-dasharray:none;stroke-opacity:1"
         d="m 0,0 h 66.982 c 3.845,0 6.968,-3.122 6.968,-6.969 0,-3.847 -3.123,-6.971 -6.968,-6.971 L 0,-13.94 c -3.847,0 -6.969,3.124 -6.969,6.971 C -6.969,-3.122 -3.847,0 0,0 Z" /></g><text
       id="text238"
       style="font-variant:normal;font-weight:normal;font-stretch:normal;font-size:9px;font-family:Times;-inkscape-font-specification:Times-Roman;writing-mode:lr-tb;fill:#231f20;fill-opacity:1;fill-rule:nonzero;stroke:none"
       transform="matrix(1,0,0,-1,202.8501,230.4238)"><tspan
         id="tspan236"
         y="0"
         x="0 4.5 9 11.25 13.5 18 22.5 24.75 27 29.502001 34.001999 37.998001 42.498001 45 47.501999 50.319 52.820999 56.817001 59.813999">46, 28, identifier</tspan></text>
<path
       id="path240"
       style="fill:#ffffff;fill-opacity:1;fill-rule:nonzero;stroke:none"
       d="m 151.3,204.404 h 121.04 v 13.94 H 151.3 Z" /><g
       transform="translate(158.269,218.345)"
       id="g242"><path
         id="path244"
         style="fill:none;stroke:#231f20;stroke-width:0.68000001;stroke-linecap:square;stroke-linejoin:miter;stroke-miterlimit:10;stroke-dasharray:none;stroke-opacity:1"
         d="m 0,0 h 107.101 c 3.846,0 6.969,-3.122 6.969,-6.971 0,-3.846 -3.123,-6.969 -6.969,-6.969 L 0,-13.94 c -3.847,0 -6.97,3.123 -6.97,6.969 C -6.97,-3.122 -3.847,0 0,0 Z" /></g><text
       id="text248"
       style="font-variant:normal;font-weight:normal;font-stretch:normal;font-size:9px;font-family:Times;-inkscape-font-specification:Times-Roman;writing-mode:lr-tb;fill:#231f20;fill-opacity:1;fill-rule:nonzero;stroke:none"
       transform="matrix(1,0,0,-1,162.3823,209.2773)"><tspan
         id="tspan246"
         y="0"
         x="0 4.5 9 11.25 13.5 18 22.5 24.75 27 30.996 33.498001 37.493999 44.495998 48.492001 52.992001 55.493999 59.490002 62.487 66.987 71.487 74.987999 79.487999 82.485001 85.391998 89.388 93.384003 97.379997">47, 43, elementary_surface</tspan></text>
<path
       id="path250"
       style="fill:#ffffff;fill-opacity:1;fill-rule:nonzero;stroke:none"
       d="m 149.94,182.983 h 122.399 v 13.94 H 149.94 Z" /><g
       transform="translate(156.91,196.924)"
       id="g252"><path
         id="path254"
         style="fill:none;stroke:#231f20;stroke-width:0.68000001;stroke-linecap:square;stroke-linejoin:miter;stroke-miterlimit:10;stroke-dasharray:none;stroke-opacity:1"
         d="m 0,0 h 108.461 c 3.846,0 6.969,-3.123 6.969,-6.969 0,-3.848 -3.123,-6.971 -6.969,-6.971 L 0,-13.94 c -3.847,0 -6.97,3.123 -6.97,6.971 C -6.97,-3.123 -3.847,0 0,0 Z" /></g><text
       id="text264"
       style="font-variant:normal;font-weight:normal;font-stretch:normal;font-size:9px;font-family:Times;-inkscape-font-specification:Times-Roman;writing-mode:lr-tb;fill:#231f20;fill-opacity:1;fill-rule:nonzero;stroke:none"
       transform="matrix(1,0,0,-1,160.1113,187.8691)"><tspan
         id="tspan256"
         y="0"
         x="0 4.5 9 11.25 13.5 18 22.5 24.75 27 30.996 35.495998 37.998001 41.499001 45.999001 50.499001 54.999001 57.500999 61.497002 65.492996 69.488998 76.490997 80.487 84.987 87.488998 91.988998 96.488998 100.989">47, 42, axis2_placement_3d</tspan><tspan
         id="tspan258"
         y="-34.965"
         x="-61.851601 -59.349602 -56.847599 -53.3466 -48.8466 -46.344601 -41.844601">its_id</tspan><tspan
         id="tspan260"
         y="-13.5459"
         x="-61.851601 -59.349602 -56.847599 -53.3466 -48.8466 -45.3456 -41.349602 -37.3536 -32.8536 -30.351601 -26.3556 -21.8556 -17.8596">its_secplane</tspan><tspan
         id="tspan262"
         y="7.875"
         x="-61.851601 -59.349602 -56.847599 -53.3466 -48.8466 -44.3466 -41.349602 -38.847599 -34.347599 -31.8456 -27.3456">its_origin</tspan></text>
<path
       id="path266"
       style="fill:#ffffff;fill-opacity:1;fill-rule:nonzero;stroke:none"
       d="m 57.162,68.871 h 88.392 v 84.321 H 57.162 Z" /><g
       transform="translate(57.162,153.192)"
       id="g268"><path
         id="path270"
         style="fill:none;stroke:#231f20;stroke-width:0.68000001;stroke-linecap:square;stroke-linejoin:miter;stroke-miterlimit:10;stroke-dasharray:none;stroke-opacity:1"
         d="M 88.392,0 H 0 v -84.321 h 88.392 z" /><g
         id="g272"><path
           id="path274"
           style="fill:none;stroke:#231f20;stroke-width:0.68000001;stroke-linecap:square;stroke-linejoin:miter;stroke-miterlimit:10;stroke-dasharray:none;stroke-opacity:1"
           d="M 0,0 Z" /></g></g><text
       id="text278"
       style="font-variant:normal;font-weight:normal;font-stretch:normal;font-size:9px;font-family:Times;-inkscape-font-specification:Times-Roman;writing-mode:lr-tb;fill:#231f20;fill-opacity:1;fill-rule:nonzero;stroke:none"
       transform="matrix(1,0,0,-1,70.746,108.9472)"><tspan
         id="tspan276"
         y="0"
         x="0 6.408 10.908 13.905 18.405001 22.905001 25.407 29.403 33.398998 37.395 41.895 45.396 49.391998 51.894001 56.394001 60.894001">workpiece_setup</tspan></text>
<g
       transform="translate(74.564,156.56)"
       id="g280"><path
         id="path282"
         style="fill:#ffffff;fill-opacity:1;fill-rule:nonzero;stroke:none"
         d="m 0,0 c 0,1.876 -1.523,3.4 -3.4,3.4 -1.877,0 -3.4,-1.524 -3.4,-3.4 0,-1.878 1.523,-3.4 3.4,-3.4 1.877,0 3.4,1.522 3.4,3.4" /></g><g
       transform="translate(74.564,156.56)"
       id="g284"><path
         id="path286"
         style="fill:none;stroke:#231f20;stroke-width:0.68000001;stroke-linecap:square;stroke-linejoin:miter;stroke-miterlimit:10;stroke-dasharray:none;stroke-opacity:1"
         d="m 0,0 c 0,1.876 -1.523,3.4 -3.4,3.4 -1.877,0 -3.4,-1.524 -3.4,-3.4 0,-1.878 1.523,-3.4 3.4,-3.4 1.877,0 3.4,1.522 3.4,3.4" /></g><text
       id="text290"
       style="font-variant:normal;font-weight:normal;font-stretch:normal;font-size:9px;font-family:Times;-inkscape-font-specification:Times-Roman;writing-mode:lr-tb;fill:#231f20;fill-opacity:1;fill-rule:nonzero;stroke:none"
       transform="matrix(1,0,0,-1,78.2675,166.0996)"><tspan
         id="tspan288"
         y="0"
         x="0 2.5020001 5.0040002 8.5050001 13.005 19.413 23.913 26.91 31.41 35.91 38.411999 42.408001 46.403999 50.400002 54.900002 58.401001 62.396999 64.899002 69.399002 73.899002 76.149002 81.648003 84.644997 89.144997 91.647003 95.642998 98.639999">its_workpiece_setup L[0:?]</tspan></text>
<path
       id="path292"
       style="fill:#ffffff;fill-opacity:1;fill-rule:nonzero;stroke:none"
       d="m 265.914,136.192 h 68.679 v 17 h -68.679 z" /><g
       transform="translate(274.414,153.192)"
       id="g294"><path
         id="path296"
         style="fill:none;stroke:#231f20;stroke-width:0.68000001;stroke-linecap:square;stroke-linejoin:miter;stroke-miterlimit:10;stroke-dasharray:none;stroke-opacity:1"
         d="m 0,0 h 51.679 c 4.693,0 8.5,-3.809 8.5,-8.5 0,-4.692 -3.807,-8.5 -8.5,-8.5 H 0 c -4.693,0 -8.5,3.808 -8.5,8.5 0,4.691 3.807,8.5 8.5,8.5 z" /></g><text
       id="text300"
       style="font-variant:normal;font-weight:normal;font-stretch:normal;font-size:9px;font-family:Times;-inkscape-font-specification:Times-Roman;writing-mode:lr-tb;fill:#231f20;fill-opacity:1;fill-rule:nonzero;stroke:none"
       transform="matrix(1,0,0,-1,268.2788,142.6074)"><tspan
         id="tspan298"
         y="0"
         x="0 4.5 9 11.25 13.5 18 22.5 24.75 27 33.408001 37.908001 40.904999 45.404999 49.904999 52.407001 56.403 60.398998">22, 48, workpiece</tspan></text>
<g
       id="g302"><g
         clip-path="url(#clipPath308)"
         id="g304"><text
           id="text312"
           style="font-variant:normal;font-weight:normal;font-stretch:normal;font-size:9px;font-family:Times;-inkscape-font-specification:Times-Roman;writing-mode:lr-tb;fill:#231f20;fill-opacity:1;fill-rule:nonzero;stroke:none"
           transform="matrix(1,0,0,-1,332.6697,142.6074)"><tspan
             id="tspan310"
             y="0"
             x="0"></tspan></text>
</g></g><path
       id="path314"
       style="fill:#ffffff;fill-opacity:1;fill-rule:nonzero;stroke:none"
       d="m 235.315,114.772 h 99.278 v 13.94 h -99.278 z" /><g
       transform="translate(242.284,128.712)"
       id="g316"><path
         id="path318"
         style="fill:none;stroke:#231f20;stroke-width:0.68000001;stroke-linecap:square;stroke-linejoin:miter;stroke-miterlimit:10;stroke-dasharray:none;stroke-opacity:1"
         d="m 0,0 h 85.341 c 3.847,0 6.969,-3.123 6.969,-6.97 0,-3.848 -3.122,-6.97 -6.969,-6.97 H 0 c -3.847,0 -6.969,3.122 -6.969,6.97 C -6.969,-3.123 -3.847,0 0,0 Z" /></g><text
       id="text322"
       style="font-variant:normal;font-weight:normal;font-stretch:normal;font-size:9px;font-family:Times;-inkscape-font-specification:Times-Roman;writing-mode:lr-tb;fill:#231f20;fill-opacity:1;fill-rule:nonzero;stroke:none"
       transform="matrix(1,0,0,-1,250.2544,119.3711)"><tspan
         id="tspan320"
         y="0"
         x="0 4.5 6.75 9 13.5 18 20.25 22.5 27 29.771999 32.769001 36.27 40.265999 42.768002 47.268002 51.632999 55.629002 59.625 62.126999 66.626999 69.624001">4, 79, offset_vector</tspan></text>
<path
       id="path324"
       style="fill:#ffffff;fill-opacity:1;fill-rule:nonzero;stroke:none"
       d="m 212.194,93.352 h 122.399 v 13.94 H 212.194 Z" /><g
       transform="translate(219.164,107.292)"
       id="g326"><path
         id="path328"
         style="fill:none;stroke:#231f20;stroke-width:0.68000001;stroke-linecap:square;stroke-linejoin:miter;stroke-miterlimit:10;stroke-dasharray:none;stroke-opacity:1"
         d="m 0,0 h 108.46 c 3.847,0 6.969,-3.123 6.969,-6.971 0,-3.846 -3.122,-6.969 -6.969,-6.969 L 0,-13.94 c -3.848,0 -6.971,3.123 -6.971,6.969 C -6.971,-3.123 -3.848,0 0,0 Z" /></g><text
       id="text332"
       style="font-variant:normal;font-weight:normal;font-stretch:normal;font-size:9px;font-family:Times;-inkscape-font-specification:Times-Roman;writing-mode:lr-tb;fill:#231f20;fill-opacity:1;fill-rule:nonzero;stroke:none"
       transform="matrix(1,0,0,-1,222.3657,98.2373)"><tspan
         id="tspan330"
         y="0"
         x="0 4.5 9 11.25 13.5 18 22.5 24.75 27 30.996 35.495998 37.998001 41.499001 45.999001 50.499001 54.999001 57.500999 61.497002 65.492996 69.488998 76.490997 80.487 84.987 87.488998 91.988998 96.488998 100.989">47, 65, axis2_placement_3d</tspan></text>
<path
       id="path334"
       style="fill:#ffffff;fill-opacity:1;fill-rule:nonzero;stroke:none"
       d="m 223.754,68.871 h 110.839 v 17 H 223.754 Z" /><g
       transform="translate(232.254,85.871)"
       id="g336"><path
         id="path338"
         style="fill:none;stroke:#231f20;stroke-width:0.68000001;stroke-linecap:square;stroke-linejoin:miter;stroke-miterlimit:10;stroke-dasharray:none;stroke-opacity:1"
         d="m 0,0 h 93.839 c 4.693,0 8.5,-3.807 8.5,-8.5 0,-4.691 -3.807,-8.5 -8.5,-8.5 H 0 c -4.692,0 -8.5,3.809 -8.5,8.5 0,4.693 3.808,8.5 8.5,8.5 z" /></g><text
       id="text342"
       style="font-variant:normal;font-weight:normal;font-stretch:normal;font-size:9px;font-family:Times;-inkscape-font-specification:Times-Roman;writing-mode:lr-tb;fill:#231f20;fill-opacity:1;fill-rule:nonzero;stroke:none"
       transform="matrix(1,0,0,-1,223.7544,75.042)"><tspan
         id="tspan340"
         y="0"
         x="0 4.5 9 11.25 13.5 18 22.5 27 29.25 31.5 34.497002 38.493 41.993999 44.495998 47.493 49.994999 53.991001 56.493 60.488998 64.988998 69.488998 73.485001 76.482002 80.477997 84.473999 88.973999 92.474998 96.471001 98.973 102.969 106.965">44, 237, restricted_area_select</tspan></text>
<g
       id="g344"><g
         clip-path="url(#clipPath350)"
         id="g346"><text
           id="text354"
           style="font-variant:normal;font-weight:normal;font-stretch:normal;font-size:9px;font-family:Times;-inkscape-font-specification:Times-Roman;writing-mode:lr-tb;fill:#231f20;fill-opacity:1;fill-rule:nonzero;stroke:none"
           transform="matrix(1,0,0,-1,333.2046,75.042)"><tspan
             id="tspan352"
             y="0"
             x="0"></tspan></text>
</g></g><text
       id="text364"
       style="font-variant:normal;font-weight:normal;font-stretch:normal;font-size:9px;font-family:Times;-inkscape-font-specification:Times-Roman;writing-mode:lr-tb;fill:#231f20;fill-opacity:1;fill-rule:nonzero;stroke:none"
       transform="matrix(1,0,0,-1,152.354,134.7314)"><tspan
         id="tspan356"
         y="0"
         x="0 2.5020001 5.0040002 8.5050001 13.005 19.413 23.913 26.91 31.41 35.91 38.411999 42.408001 46.403999 50.400002">its_workpiece</tspan><tspan
         id="tspan358"
         y="23.0877"
         x="0 2.5020001 5.0040002 8.5050001 13.005 17.504999 20.277 23.274 26.775 30.771 33.272999">its_offset</tspan><tspan
         id="tspan360"
         y="44.369099"
         x="0 2.5020001 5.0040002 8.5050001 13.005 17.504999 20.502001 23.004 27.504 30.006001 34.506001">its_origin</tspan><tspan
         id="tspan362"
         y="67.319099"
         x="0 2.5020001 5.0040002 8.5050001 13.005 16.002001 19.997999 23.499001 26.000999 28.997999 31.5 35.495998 37.998001 41.993999 46.493999 50.993999 54.990002 57.987 61.983002 65.978996">its_restricted_area</tspan></text>
<path
       id="path366"
       style="fill:#ffffff;fill-opacity:1;fill-rule:nonzero;stroke:none"
       d="m 59.797,4.9521 h 75.48 v 35.359 h -75.48 z" /><g
       transform="translate(59.797,40.312)"
       id="g368"><path
         id="path370"
         style="fill:none;stroke:#231f20;stroke-width:0.68000001;stroke-linecap:square;stroke-linejoin:miter;stroke-miterlimit:10;stroke-dasharray:none;stroke-opacity:1"
         d="M 75.48,0 H 0 v -35.359 h 75.48 z" /><g
         id="g372"><path
           id="path374"
           style="fill:none;stroke:#231f20;stroke-width:0.68000001;stroke-linecap:square;stroke-linejoin:miter;stroke-miterlimit:10;stroke-dasharray:none;stroke-opacity:1"
           d="M 0,0 Z" /></g></g><text
       id="text378"
       style="font-variant:normal;font-weight:normal;font-stretch:normal;font-size:9px;font-family:Times;-inkscape-font-specification:Times-Roman;writing-mode:lr-tb;fill:#231f20;fill-opacity:1;fill-rule:nonzero;stroke:none"
       transform="matrix(1,0,0,-1,66.6967,20.5468)"><tspan
         id="tspan376"
         y="0"
         x="0 3.5009999 7.4970002 9.9989996 14.499 18.999001 23.499001 26.000999 30.500999 34.001999 36.504002 39.500999 44.000999 47.997002 50.499001 53.000999 57.500999 62.000999">setup_instruction</tspan></text>
<g
       transform="translate(79.868,43.748)"
       id="g380"><path
         id="path382"
         style="fill:#ffffff;fill-opacity:1;fill-rule:nonzero;stroke:none"
         d="m 0,0 c 0,1.876 -1.523,3.4 -3.4,3.4 -1.877,0 -3.4,-1.524 -3.4,-3.4 0,-1.878 1.523,-3.4 3.4,-3.4 1.877,0 3.4,1.522 3.4,3.4" /></g><g
       transform="translate(79.868,43.748)"
       id="g384"><path
         id="path386"
         style="fill:none;stroke:#231f20;stroke-width:0.68000001;stroke-linecap:square;stroke-linejoin:miter;stroke-miterlimit:10;stroke-dasharray:none;stroke-opacity:1"
         d="m 0,0 c 0,1.876 -1.523,3.4 -3.4,3.4 -1.877,0 -3.4,-1.524 -3.4,-3.4 0,-1.878 1.523,-3.4 3.4,-3.4 1.877,0 3.4,1.522 3.4,3.4" /></g><text
       id="text390"
       style="font-variant:normal;font-weight:normal;font-stretch:normal;font-size:9px;font-family:Times;-inkscape-font-specification:Times-Roman;writing-mode:lr-tb;fill:#231f20;fill-opacity:1;fill-rule:nonzero;stroke:none"
       transform="matrix(1,0,0,-1,82.165,56.6836)"><tspan
         id="tspan388"
         y="0"
         x="0 2.5020001 5.0040002 8.5050001 13.005 15.507 20.007 23.507999 26.01 29.007 33.507 37.502998 40.005001 42.507 47.007 51.507 55.007999 57.257999 62.757 65.753998 70.253998 72.755997 76.751999 79.749001">its_instructions L[0:?]</tspan></text>
<path
       id="path392"
       style="fill:#ffffff;fill-opacity:1;fill-rule:nonzero;stroke:none"
       d="m 233.877,26.371 h 64.6 v 13.94 h -64.6 z" /><g
       transform="translate(240.848,40.312)"
       id="g394"><path
         id="path396"
         style="fill:none;stroke:#231f20;stroke-width:0.68000001;stroke-linecap:square;stroke-linejoin:miter;stroke-miterlimit:10;stroke-dasharray:none;stroke-opacity:1"
         d="m 0,0 h 50.659 c 3.847,0 6.97,-3.123 6.97,-6.97 0,-3.847 -3.123,-6.97 -6.97,-6.97 H 0 c -3.849,0 -6.971,3.123 -6.971,6.97 C -6.971,-3.123 -3.849,0 0,0 Z" /></g><text
       id="text400"
       style="font-variant:normal;font-weight:normal;font-stretch:normal;font-size:9px;font-family:Times;-inkscape-font-specification:Times-Roman;writing-mode:lr-tb;fill:#231f20;fill-opacity:1;fill-rule:nonzero;stroke:none"
       transform="matrix(1,0,0,-1,245.9897,31.0722)"><tspan
         id="tspan398"
         y="0"
         x="0 4.5 9 11.25 13.5 18 22.5 24.75 27 29.502001 33.362999 37.862999 40.365002">46, 83, text</tspan></text>
<path
       id="path402"
       style="fill:#ffffff;fill-opacity:1;fill-rule:nonzero;stroke:none"
       d="m 217.558,4.9521 h 80.919 v 13.94 h -80.919 z" /><g
       transform="translate(224.527,18.893)"
       id="g404"><path
         id="path406"
         style="fill:none;stroke:#231f20;stroke-width:0.68000001;stroke-linecap:square;stroke-linejoin:miter;stroke-miterlimit:10;stroke-dasharray:none;stroke-opacity:1"
         d="m 0,0 h 66.98 c 3.847,0 6.97,-3.123 6.97,-6.972 0,-3.846 -3.123,-6.968 -6.97,-6.968 H 0 c -3.848,0 -6.969,3.122 -6.969,6.968 C -6.969,-3.123 -3.848,0 0,0 Z" /></g><text
       id="text414"
       style="font-variant:normal;font-weight:normal;font-stretch:normal;font-size:9px;font-family:Times;-inkscape-font-specification:Times-Roman;writing-mode:lr-tb;fill:#231f20;fill-opacity:1;fill-rule:nonzero;stroke:none"
       transform="matrix(1,0,0,-1,228.9877,9.5517)"><tspan
         id="tspan408"
         y="0"
         x="0 4.5 9 11.25 13.5 18 22.5 24.75 27 29.502001 34.001999 37.998001 42.498001 45 47.501999 50.319 52.820999 56.817001 59.813999">46, 76, identifier</tspan><tspan
         id="tspan410"
         y="-13.8294"
         x="-86.910301 -82.410301 -78.414299 -74.9133 -70.917297 -67.920303 -65.418297 -60.918301 -58.416302 -55.914299 -51.414299 -46.914299">description</tspan><tspan
         id="tspan412"
         y="7.5897002"
         x="-86.910301 -83.049301 -78.549301 -76.047302 -72.0513 -69.054298 -64.554298 -60.5583 -58.056301 -53.556301 -49.056301 -44.556301 -40.560299 -36.060299 -29.0583 -25.0623 -20.5623 -18.060301">external_document</tspan></text>
<g
       transform="translate(77.012,243.158)"
       id="g416"><path
         id="path418"
         style="fill:#ffffff;fill-opacity:1;fill-rule:nonzero;stroke:none"
         d="m 0,0 c 0,1.876 -1.523,3.4 -3.4,3.4 -1.877,0 -3.4,-1.524 -3.4,-3.4 0,-1.877 1.523,-3.4 3.4,-3.4 1.877,0 3.4,1.523 3.4,3.4" /></g><g
       transform="translate(77.012,243.158)"
       id="g420"><path
         id="path422"
         style="fill:none;stroke:#231f20;stroke-width:0.68000001;stroke-linecap:square;stroke-linejoin:miter;stroke-miterlimit:10;stroke-dasharray:none;stroke-opacity:1"
         d="m 0,0 c 0,1.876 -1.523,3.4 -3.4,3.4 -1.877,0 -3.4,-1.524 -3.4,-3.4 0,-1.877 1.523,-3.4 3.4,-3.4 1.877,0 3.4,1.523 3.4,3.4" /></g><path
       id="path424"
       style="fill:#ffffff;fill-opacity:1;fill-rule:nonzero;stroke:none"
       d="m 58.267,276.187 h 47.43 v 84.32 h -47.43 z" /><g
       transform="translate(58.267,360.507)"
       id="g426"><path
         id="path428"
         style="fill:none;stroke:#231f20;stroke-width:0.68000001;stroke-linecap:square;stroke-linejoin:miter;stroke-miterlimit:10;stroke-dasharray:none;stroke-opacity:1"
         d="M 47.43,0 H 0 v -84.32 h 47.43 z" /><g
         id="g430"><path
           id="path432"
           style="fill:none;stroke:#231f20;stroke-width:0.68000001;stroke-linecap:square;stroke-linejoin:miter;stroke-miterlimit:10;stroke-dasharray:none;stroke-opacity:1"
           d="M 0,0 Z" /></g></g><text
       id="text438"
       style="font-variant:normal;font-weight:normal;font-stretch:normal;font-size:9px;font-family:Times;-inkscape-font-specification:Times-Roman;writing-mode:lr-tb;fill:#231f20;fill-opacity:1;fill-rule:nonzero;stroke:none"
       transform="matrix(1,0,0,-1,65.6582,316.2622)"><tspan
         id="tspan434"
         y="0"
         x="0 6.408 10.908 13.905 18.405001 22.905001 25.407 29.403 33.903">workplan</tspan><tspan
         id="tspan436"
         y="50.0355"
         x="14.2119 16.7139 19.2159 22.7169 27.2169 30.717899 34.713902 37.2159 41.7159 46.2159">its_setup</tspan></text>
<g
       transform="translate(100.778,363.926)"
       id="g440"><path
         id="path442"
         style="fill:#ffffff;fill-opacity:1;fill-rule:nonzero;stroke:none"
         d="m 0,0 c 0,1.877 -1.523,3.4 -3.4,3.4 -1.877,0 -3.4,-1.523 -3.4,-3.4 0,-1.877 1.523,-3.4 3.4,-3.4 1.877,0 3.4,1.523 3.4,3.4" /></g><g
       transform="translate(100.778,363.926)"
       id="g444"><path
         id="path446"
         style="fill:none;stroke:#231f20;stroke-width:0.68000001;stroke-linecap:square;stroke-linejoin:miter;stroke-miterlimit:10;stroke-dasharray:none;stroke-opacity:1"
         d="m 0,0 c 0,1.877 -1.523,3.4 -3.4,3.4 -1.877,0 -3.4,-1.523 -3.4,-3.4 0,-1.877 1.523,-3.4 3.4,-3.4 1.877,0 3.4,1.523 3.4,3.4" /></g><text
       id="text450"
       style="font-variant:normal;font-weight:normal;font-stretch:normal;font-size:9px;font-family:Times;-inkscape-font-specification:Times-Roman;writing-mode:lr-tb;fill:#231f20;fill-opacity:1;fill-rule:nonzero;stroke:none"
       transform="matrix(1,0,0,-1,175.7075,389.6635)"><tspan
         id="tspan448"
         y="0"
         x="0 7.0019999 10.998 13.5 18 22.5 28.908001 33.408001 36.404999 40.904999 45.404999 47.907001 51.903 56.403">main_workplan</tspan></text>
<g
       transform="translate(73.339,363.926)"
       id="g452"><path
         id="path454"
         style="fill:#ffffff;fill-opacity:1;fill-rule:nonzero;stroke:none"
         d="m 0,0 c 0,1.877 -1.523,3.4 -3.4,3.4 -1.877,0 -3.4,-1.523 -3.4,-3.4 0,-1.877 1.523,-3.4 3.4,-3.4 1.877,0 3.4,1.523 3.4,3.4" /></g><g
       transform="translate(73.339,363.926)"
       id="g456"><path
         id="path458"
         style="fill:none;stroke:#231f20;stroke-width:0.68000001;stroke-linecap:square;stroke-linejoin:miter;stroke-miterlimit:10;stroke-dasharray:none;stroke-opacity:1"
         d="m 0,0 c 0,1.877 -1.523,3.4 -3.4,3.4 -1.877,0 -3.4,-1.523 -3.4,-3.4 0,-1.877 1.523,-3.4 3.4,-3.4 1.877,0 3.4,1.523 3.4,3.4" /></g><path
       id="path460"
       style="fill:#ffffff;fill-opacity:1;fill-rule:nonzero;stroke:none"
       d="m 253.937,343.507 h 91.121 v 17 h -91.121 z" /><g
       transform="translate(262.437,360.507)"
       id="g462"><path
         id="path464"
         style="fill:none;stroke:#231f20;stroke-width:0.68000001;stroke-linecap:square;stroke-linejoin:miter;stroke-miterlimit:10;stroke-dasharray:none;stroke-opacity:1"
         d="m 0,0 h 74.121 c 4.692,0 8.5,-3.808 8.5,-8.5 0,-4.692 -3.808,-8.5 -8.5,-8.5 H 0 c -4.692,0 -8.5,3.808 -8.5,8.5 0,4.692 3.808,8.5 8.5,8.5 z" /></g><text
       id="text468"
       style="font-variant:normal;font-weight:normal;font-stretch:normal;font-size:9px;font-family:Times;-inkscape-font-specification:Times-Roman;writing-mode:lr-tb;fill:#231f20;fill-opacity:1;fill-rule:nonzero;stroke:none"
       transform="matrix(1,0,0,-1,257.5424,349.8447)"><tspan
         id="tspan466"
         y="0"
         x="0 4.5 6.75 9 13.5 18 20.25 22.5 25.497 31.995001 37.998001 43.001999 45.999001 49.860001 54.224998 58.221001 62.216999 66.717003 69.219002 73.214996 77.714996 80.217003 84.212997">2, 29, (ABS)executable</tspan></text>
<path
       id="path470"
       style="fill:#ffffff;fill-opacity:1;fill-rule:nonzero;stroke:none"
       d="m 277.737,319.027 h 67.321 v 17 h -67.321 z" /><g
       transform="translate(286.237,336.027)"
       id="g472"><path
         id="path474"
         style="fill:none;stroke:#231f20;stroke-width:0.68000001;stroke-linecap:square;stroke-linejoin:miter;stroke-miterlimit:10;stroke-dasharray:none;stroke-opacity:1"
         d="m 0,0 h 50.321 c 4.692,0 8.5,-3.809 8.5,-8.5 0,-4.692 -3.808,-8.5 -8.5,-8.5 H 0 c -4.691,0 -8.5,3.808 -8.5,8.5 0,4.691 3.809,8.5 8.5,8.5 z" /></g><text
       id="text478"
       style="font-variant:normal;font-weight:normal;font-stretch:normal;font-size:9px;font-family:Times;-inkscape-font-specification:Times-Roman;writing-mode:lr-tb;fill:#231f20;fill-opacity:1;fill-rule:nonzero;stroke:none"
       transform="matrix(1,0,0,-1,283.4995,325.1972)"><tspan
         id="tspan476"
         y="0"
         x="0 4.5 6.75 9 13.5 18 22.5 24.75 27 30.996 35.495998 39.492001 43.992001 48.492001 52.487999 54.990002">2, 236, channel</tspan></text>
<path
       id="path480"
       style="fill:#ffffff;fill-opacity:1;fill-rule:nonzero;stroke:none"
       d="m 217.897,297.607 h 127.161 v 13.939 H 217.897 Z" /><g
       transform="translate(224.868,311.546)"
       id="g482"><path
         id="path484"
         style="fill:none;stroke:#231f20;stroke-width:0.68000001;stroke-linecap:square;stroke-linejoin:miter;stroke-miterlimit:10;stroke-dasharray:none;stroke-opacity:1"
         d="m 0,0 h 113.219 c 3.848,0 6.971,-3.123 6.971,-6.97 0,-3.847 -3.123,-6.969 -6.971,-6.969 H 0 c -3.848,0 -6.971,3.122 -6.971,6.969 C -6.971,-3.123 -3.848,0 0,0 Z" /></g><text
       id="text488"
       style="font-variant:normal;font-weight:normal;font-stretch:normal;font-size:9px;font-family:Times;-inkscape-font-specification:Times-Roman;writing-mode:lr-tb;fill:#231f20;fill-opacity:1;fill-rule:nonzero;stroke:none"
       transform="matrix(1,0,0,-1,231.1342,302.5449)"><tspan
         id="tspan486"
         y="0"
         x="0 4.5 6.75 9 13.5 18 20.25 22.5 25.002001 29.502001 34.001999 38.501999 41.499001 45.999001 49.994999 53.991001 57.492001 60.993 65.492996 69.992996 73.988998 78.488998 85.490997 89.487 91.988998 94.986 99.486">3, 87, in_process_geometry</tspan></text>
<path
       id="path490"
       style="fill:#ffffff;fill-opacity:1;fill-rule:nonzero;stroke:none"
       d="m 226.737,276.187 h 118.321 v 13.939 H 226.737 Z" /><g
       transform="translate(233.707,290.126)"
       id="g492"><path
         id="path494"
         style="fill:none;stroke:#231f20;stroke-width:0.68000001;stroke-linecap:square;stroke-linejoin:miter;stroke-miterlimit:10;stroke-dasharray:none;stroke-opacity:1"
         d="m 0,0 h 104.379 c 3.849,0 6.972,-3.122 6.972,-6.969 0,-3.848 -3.123,-6.97 -6.972,-6.97 H 0 c -3.848,0 -6.971,3.122 -6.971,6.97 C -6.971,-3.122 -3.848,0 0,0 Z" /></g><text
       id="text506"
       style="font-variant:normal;font-weight:normal;font-stretch:normal;font-size:9px;font-family:Times;-inkscape-font-specification:Times-Roman;writing-mode:lr-tb;fill:#231f20;fill-opacity:1;fill-rule:nonzero;stroke:none"
       transform="matrix(1,0,0,-1,233.9663,281.0717)"><tspan
         id="tspan496"
         y="0"
         x="0 4.5 9 11.25 13.5 18 22.5 24.75 27 34.001999 37.998001 41.993999 46.493999 48.995998 53.495998 57.492001 61.992001 66.491997 70.487999 73.485001 77.481003 84.483002 88.478996 90.981003 94.976997 97.973999 101.475">43, 90, machine_parameters</tspan><tspan
         id="tspan498"
         y="-60.8508"
         x="-121.4694 -118.9674 -116.4654 -112.9644 -108.4644 -104.4684 -101.9664 -97.970398 -90.968399 -86.972397 -82.472397 -79.970398 -76.469398 -74.219398 -68.720398 -65.723396 -61.2234 -58.721401 -54.725399 -51.728401">its_elements L[0:?]</tspan><tspan
         id="tspan500"
         y="-36.494999"
         x="-121.4694 -118.9674 -116.4654 -112.9644 -108.4644 -104.4684 -99.968399 -95.972397 -91.472397 -86.972397 -82.976402 -80.474403">its_channel</tspan><tspan
         id="tspan502"
         y="-13.4055"
         x="-121.4694 -118.9674 -116.4654 -112.9644 -108.4644 -104.4684 -101.6964 -98.699402 -94.7034 -90.707397 -88.205399">its_effect</tspan><tspan
         id="tspan504"
         y="7.875"
         x="-121.4694 -118.9674 -116.4654 -112.9644 -108.4644 -101.4624 -98.960403 -94.460403 -91.958397 -84.956398 -80.456398 -73.454399 -68.954399 -61.9524 -57.956402 -53.9604 -49.4604 -46.958401 -42.458401 -38.462399 -33.962399 -29.4624 -25.4664 -22.4694 -18.4734 -11.4714 -7.9703999">its_minimum_machine_params</tspan></text>
</g></svg>