<?xml version="1.0" encoding="UTF-8" standalone="no"?>
<svg
   xmlns:dc="http://purl.org/dc/elements/1.1/"
   xmlns:cc="http://creativecommons.org/ns#"
   xmlns:rdf="http://www.w3.org/1999/02/22-rdf-syntax-ns#"
   xmlns:svg="http://www.w3.org/2000/svg"
   xmlns="http://www.w3.org/2000/svg"
   viewBox="0 0 526.54535 458.12134"
   height="458.12134"
   width="526.54535"
   xml:space="preserve"
   id="svg2"
   version="1.1"><metadata
     id="metadata8"><rdf:RDF><cc:Work
         rdf:about=""><dc:format>image/svg+xml</dc:format><dc:type
           rdf:resource="http://purl.org/dc/dcmitype/StillImage" /></cc:Work></rdf:RDF></metadata><defs
     id="defs6"><clipPath
       id="clipPath260"
       clipPathUnits="userSpaceOnUse"><path
         id="path258"
         d="M 124.949,88.251 H 54.909 V 52.892 h 70.04 z" /></clipPath></defs><g
     transform="matrix(1.3333333,0,0,-1.3333333,0,458.12133)"
     id="g10"><g
       transform="translate(43.859,322.851)"
       id="g12"><path
         id="path14"
         style="fill:none;stroke:#231f20;stroke-width:0.68000001;stroke-linecap:square;stroke-linejoin:miter;stroke-miterlimit:10;stroke-dasharray:none;stroke-opacity:1"
         d="M 0,0 V 6.46" /><g
         transform="translate(80.07,-159.12)"
         id="g16"><path
           id="path18"
           style="fill:none;stroke:#231f20;stroke-width:0.68000001;stroke-linecap:square;stroke-linejoin:miter;stroke-miterlimit:10;stroke-dasharray:none;stroke-opacity:1"
           d="M 0,0 H 181.12" /><g
           transform="translate(0,-21.42)"
           id="g20"><path
             id="path22"
             style="fill:none;stroke:#231f20;stroke-width:0.68000001;stroke-linecap:square;stroke-linejoin:miter;stroke-miterlimit:10;stroke-dasharray:none;stroke-opacity:1"
             d="M 0,0 H 134.879" /><g
             transform="translate(-1.7,-21.08)"
             id="g24"><path
               id="path26"
               style="fill:none;stroke:#231f20;stroke-width:0.68000001;stroke-linecap:square;stroke-linejoin:miter;stroke-miterlimit:10;stroke-dasharray:none;stroke-opacity:1"
               d="M 0,0 H 187.24" /><g
               transform="translate(0,-21.42)"
               id="g28"><path
                 id="path30"
                 style="fill:none;stroke:#231f20;stroke-width:0.68000001;stroke-linecap:square;stroke-linejoin:miter;stroke-miterlimit:10;stroke-dasharray:none;stroke-opacity:1"
                 d="M 0,0 H 139.201" /><g
                 transform="translate(2.72,-18.53)"
                 id="g32"><path
                   id="path34"
                   style="fill:none;stroke:#231f20;stroke-width:0.68000001;stroke-linecap:square;stroke-linejoin:miter;stroke-miterlimit:10;stroke-dasharray:none;stroke-opacity:1"
                   d="M 0,0 H 138.279" /><g
                   transform="translate(-14.45,109.65)"
                   id="g36"><path
                     id="path38"
                     style="fill:none;stroke:#231f20;stroke-width:0.68000001;stroke-linecap:square;stroke-linejoin:miter;stroke-miterlimit:10;stroke-dasharray:none;stroke-opacity:1"
                     d="M 0,0 H 149" /></g></g></g></g></g></g></g><g
       transform="translate(28.56,216.601)"
       id="g40"><path
         id="path42"
         style="fill:none;stroke:#231f20;stroke-width:2.03999996;stroke-linecap:square;stroke-linejoin:miter;stroke-miterlimit:10;stroke-dasharray:none;stroke-opacity:1"
         d="M 0,0 V -28.393" /><g
         transform="translate(18.02,-28.393)"
         id="g44"><path
           id="path46"
           style="fill:none;stroke:#231f20;stroke-width:2.03999996;stroke-linecap:square;stroke-linejoin:miter;stroke-miterlimit:10;stroke-dasharray:none;stroke-opacity:1"
           d="M 0,0 H -18.02" /><g
           transform="translate(1.53,-79.899)"
           id="g48"><path
             id="path50"
             style="fill:none;stroke:#231f20;stroke-width:2.03999996;stroke-linecap:square;stroke-linejoin:miter;stroke-miterlimit:10;stroke-dasharray:none;stroke-opacity:1"
             d="M 0,0 H -19.55" /><g
             transform="translate(-1.02,44.2)"
             id="g52"><path
               id="path54"
               style="fill:none;stroke:#231f20;stroke-width:2.03999996;stroke-linecap:square;stroke-linejoin:miter;stroke-miterlimit:10;stroke-dasharray:none;stroke-opacity:1"
               d="M 0,0 H -18.53" /><g
               transform="translate(1.02,-82.45)"
               id="g56"><path
                 id="path58"
                 style="fill:none;stroke:#231f20;stroke-width:2.03999996;stroke-linecap:square;stroke-linejoin:miter;stroke-miterlimit:10;stroke-dasharray:none;stroke-opacity:1"
                 d="M 0,0 H -19.55" /><g
                 transform="translate(-19.55,38.25)"
                 id="g60"><path
                   id="path62"
                   style="fill:none;stroke:#231f20;stroke-width:2.03999996;stroke-linecap:square;stroke-linejoin:miter;stroke-miterlimit:10;stroke-dasharray:none;stroke-opacity:1"
                   d="M 0,0 V 108.292" /><g
                   transform="translate(0,44.2)"
                   id="g64"><path
                     id="path66"
                     style="fill:none;stroke:#231f20;stroke-width:2.03999996;stroke-linecap:square;stroke-linejoin:miter;stroke-miterlimit:10;stroke-dasharray:none;stroke-opacity:1"
                     d="M 0,0 V 64.092" /><g
                     transform="translate(0,-82.45)"
                     id="g68"><path
                       id="path70"
                       style="fill:none;stroke:#231f20;stroke-width:2.03999996;stroke-linecap:square;stroke-linejoin:miter;stroke-miterlimit:10;stroke-dasharray:none;stroke-opacity:1"
                       d="M 0,0 V 146.542" /><g
                       transform="translate(0,157.167)"
                       id="g72"><path
                         id="path74"
                         style="fill:none;stroke:#231f20;stroke-width:2.03999996;stroke-linecap:square;stroke-linejoin:miter;stroke-miterlimit:10;stroke-dasharray:none;stroke-opacity:1"
                         d="M 0,0 H 15.3" /><g
                         transform="translate(0,-10.625)"
                         id="g76"><path
                           id="path78"
                           style="fill:none;stroke:#231f20;stroke-width:2.03999996;stroke-linecap:square;stroke-linejoin:miter;stroke-miterlimit:10;stroke-dasharray:none;stroke-opacity:1"
                           d="M 0,0 V 10.625" /></g></g></g></g></g></g></g></g></g></g><g
       transform="translate(191.93,33.341)"
       id="g80"><path
         id="path82"
         style="fill:none;stroke:#231f20;stroke-width:0.68000001;stroke-linecap:square;stroke-linejoin:miter;stroke-miterlimit:10;stroke-dasharray:none;stroke-opacity:1"
         d="M 0,0 H -93.84" /></g><path
       id="path84"
       style="fill:none;stroke:#231f20;stroke-width:0.68000001;stroke-linecap:square;stroke-linejoin:miter;stroke-miterlimit:10;stroke-dasharray:3.4, 3.4;stroke-dashoffset:0;stroke-opacity:1"
       d="M 191.93,11.921 H 135.49" /><g
       transform="translate(235.45,33.341)"
       id="g86"><path
         id="path88"
         style="fill:none;stroke:#231f20;stroke-width:0.68000001;stroke-linecap:square;stroke-linejoin:miter;stroke-miterlimit:10;stroke-dasharray:none;stroke-opacity:1"
         d="M 0,0 H 56.439" /></g><path
       id="path90"
       style="fill:none;stroke:#231f20;stroke-width:0.68000001;stroke-linecap:square;stroke-linejoin:miter;stroke-miterlimit:10;stroke-dasharray:3.4, 3.4;stroke-dashoffset:0;stroke-opacity:1"
       d="m 235.45,11.921 h 53.039" /><g
       transform="translate(213.69,47.112)"
       id="g92"><path
         id="path94"
         style="fill:none;stroke:#231f20;stroke-width:0.68000001;stroke-linecap:square;stroke-linejoin:miter;stroke-miterlimit:10;stroke-dasharray:none;stroke-opacity:1"
         d="M 0,0 V 12.75 H -88.74" /><g
         transform="translate(-52.531,177.479)"
         id="g96"><path
           id="path98"
           style="fill:none;stroke:#231f20;stroke-width:0.68000001;stroke-linecap:square;stroke-linejoin:miter;stroke-miterlimit:10;stroke-dasharray:none;stroke-opacity:1"
           d="M 0,0 H 20.4" /><g
           transform="translate(139.96)"
           id="g100"><path
             id="path102"
             style="fill:none;stroke:#231f20;stroke-width:0.68000001;stroke-linecap:square;stroke-linejoin:miter;stroke-miterlimit:10;stroke-dasharray:none;stroke-opacity:1"
             d="M 0,0 H -20.4" /></g></g></g><g
       transform="translate(43.859,227.226)"
       id="g104"><path
         id="path106"
         style="fill:none;stroke:#231f20;stroke-width:2.03999996;stroke-linecap:square;stroke-linejoin:miter;stroke-miterlimit:10;stroke-dasharray:none;stroke-opacity:1"
         d="M 0,0 V 32.045" /></g><g
       transform="translate(177.62,309.081)"
       id="g108"><path
         id="path110"
         style="fill:none;stroke:#231f20;stroke-width:0.68000001;stroke-linecap:square;stroke-linejoin:miter;stroke-miterlimit:10;stroke-dasharray:none;stroke-opacity:1"
         d="M 0,0 H -80.24" /><g
         transform="translate(80.24)"
         id="g112"><path
           id="path114"
           style="fill:none;stroke:#231f20;stroke-width:0.68000001;stroke-linecap:square;stroke-linejoin:miter;stroke-miterlimit:10;stroke-dasharray:none;stroke-opacity:1"
           d="M 0,0 H -80.24 V 0" /><g
           transform="translate(-61.201,-21.42)"
           id="g116"><path
             id="path118"
             style="fill:none;stroke:#231f20;stroke-width:0.68000001;stroke-linecap:square;stroke-linejoin:miter;stroke-miterlimit:10;stroke-dasharray:none;stroke-opacity:1"
             d="M 0,0 H -99.28" /><g
             transform="translate(-34,-21.42)"
             id="g120"><path
               id="path122"
               style="fill:none;stroke:#231f20;stroke-width:0.68000001;stroke-linecap:square;stroke-linejoin:miter;stroke-miterlimit:10;stroke-dasharray:none;stroke-opacity:1"
               d="M 0,0 H -65.28" /><g
               transform="translate(65.281)"
               id="g124"><path
                 id="path126"
                 style="fill:none;stroke:#231f20;stroke-width:0.68000001;stroke-linecap:square;stroke-linejoin:miter;stroke-miterlimit:10;stroke-dasharray:none;stroke-opacity:1"
                 d="M 0,0 H -65.281 V 0" /><g
                 transform="translate(-161.508,-19.125)"
                 id="g128"><path
                   id="path130"
                   style="fill:none;stroke:#231f20;stroke-width:0.68000001;stroke-linecap:square;stroke-linejoin:miter;stroke-miterlimit:10;stroke-dasharray:none;stroke-opacity:1"
                   d="M 0,0 V 12.155" /><g
                   transform="translate(161.707,-8.755)"
                   id="g132"><path
                     id="path134"
                     style="fill:none;stroke:#231f20;stroke-width:0.68000001;stroke-linecap:square;stroke-linejoin:miter;stroke-miterlimit:10;stroke-dasharray:none;stroke-opacity:1"
                     d="M 0,0 V 8.755 H -161.707" /></g></g></g></g></g></g></g><path
       id="path136"
       style="fill:#ffffff;fill-opacity:1;fill-rule:nonzero;stroke:none"
       d="m 12.24,329.311 h 63.24 v 13.941 H 12.24 Z" /><g
       transform="translate(19.209,343.252)"
       id="g138"><path
         id="path140"
         style="fill:none;stroke:#231f20;stroke-width:0.68000001;stroke-linecap:square;stroke-linejoin:miter;stroke-miterlimit:10;stroke-dasharray:none;stroke-opacity:1"
         d="m 0,0 h 49.3 c 3.847,0 6.97,-3.123 6.97,-6.97 0,-3.848 -3.123,-6.971 -6.97,-6.971 H 0 c -3.848,0 -6.97,3.123 -6.97,6.971 C -6.97,-3.123 -3.848,0 0,0 Z" /></g><text
       id="text144"
       style="font-variant:normal;font-weight:normal;font-stretch:normal;font-size:9px;font-family:Times;-inkscape-font-specification:Times-Roman;writing-mode:lr-tb;fill:#231f20;fill-opacity:1;fill-rule:nonzero;stroke:none"
       transform="matrix(1,0,0,-1,21.8603,334.1348)"><tspan
         id="tspan142"
         y="0"
         x="0 4.5 9 11.25 13.5 18 22.5 27 29.25 32.247002 36.747002 41.247002 44.243999">39, 102 (39)</tspan></text>
<path
       id="path146"
       style="fill:#ffffff;fill-opacity:1;fill-rule:nonzero;stroke:none"
       d="m 53.89,135.341 h 70.04 V 170.7 H 53.89 Z" /><g
       transform="translate(53.89,170.701)"
       id="g148"><path
         id="path150"
         style="fill:none;stroke:#231f20;stroke-width:0.68000001;stroke-linecap:square;stroke-linejoin:miter;stroke-miterlimit:10;stroke-dasharray:none;stroke-opacity:1"
         d="M 70.04,0 H 0 v -35.359 h 70.04 z" /><g
         id="g152"><path
           id="path154"
           style="fill:none;stroke:#231f20;stroke-width:0.68000001;stroke-linecap:square;stroke-linejoin:miter;stroke-miterlimit:10;stroke-dasharray:none;stroke-opacity:1"
           d="M 0,0 Z" /></g></g><text
       id="text158"
       style="font-variant:normal;font-weight:normal;font-stretch:normal;font-size:9px;font-family:Times;-inkscape-font-specification:Times-Roman;writing-mode:lr-tb;fill:#231f20;fill-opacity:1;fill-rule:nonzero;stroke:none"
       transform="matrix(1,0,0,-1,57.3916,151.1645)"><tspan
         id="tspan156"
         y="0"
         x="0 4.5 7.4970002 11.997 15.993 19.989 23.49 26.990999 31.490999 35.991001 38.987999 43.487999 47.987999 51.984001 54.980999 57.483002 61.983002">process_property</tspan></text>
<path
       id="path160"
       style="fill:#ffffff;fill-opacity:1;fill-rule:nonzero;stroke:none"
       d="m 305.049,156.761 h 68.68 v 13.94 h -68.68 z" /><g
       transform="translate(312.02,170.701)"
       id="g162"><path
         id="path164"
         style="fill:none;stroke:#231f20;stroke-width:0.68000001;stroke-linecap:square;stroke-linejoin:miter;stroke-miterlimit:10;stroke-dasharray:none;stroke-opacity:1"
         d="m 0,0 h 54.74 c 3.848,0 6.969,-3.122 6.969,-6.97 0,-3.847 -3.121,-6.97 -6.969,-6.97 H 0 c -3.848,0 -6.971,3.123 -6.971,6.97 C -6.971,-3.122 -3.848,0 0,0 Z" /></g><text
       id="text168"
       style="font-variant:normal;font-weight:normal;font-stretch:normal;font-size:9px;font-family:Times;-inkscape-font-specification:Times-Roman;writing-mode:lr-tb;fill:#231f20;fill-opacity:1;fill-rule:nonzero;stroke:none"
       transform="matrix(1,0,0,-1,317.1626,161.4018)"><tspan
         id="tspan166"
         y="0"
         x="0 4.5 9 11.25 13.5 18 22.5 24.75 27 29.502001 33.498001 37.998001 41.993999 44.495998">46, 44, label</tspan></text>
<path
       id="path170"
       style="fill:#ffffff;fill-opacity:1;fill-rule:nonzero;stroke:none"
       d="m 258.809,135.341 h 114.92 v 13.939 h -114.92 z" /><g
       transform="translate(265.78,149.281)"
       id="g172"><path
         id="path174"
         style="fill:none;stroke:#231f20;stroke-width:0.68000001;stroke-linecap:square;stroke-linejoin:miter;stroke-miterlimit:10;stroke-dasharray:none;stroke-opacity:1"
         d="m 0,0 h 100.981 c 3.847,0 6.968,-3.122 6.968,-6.97 0,-3.847 -3.121,-6.969 -6.968,-6.969 H 0 c -3.848,0 -6.971,3.122 -6.971,6.969 C -6.971,-3.122 -3.848,0 0,0 Z" /></g><text
       id="text182"
       style="font-variant:normal;font-weight:normal;font-stretch:normal;font-size:9px;font-family:Times;-inkscape-font-specification:Times-Roman;writing-mode:lr-tb;fill:#231f20;fill-opacity:1;fill-rule:nonzero;stroke:none"
       transform="matrix(1,0,0,-1,266.8325,140.3159)"><tspan
         id="tspan176"
         y="0"
         x="0 4.5 9 11.25 13.5 18 22.5 24.75 27 31.5 34.497002 38.997002 43.497002 47.493 50.490002 52.992001 57.492001 61.992001 66.491997 70.487999 73.485001 77.481003 84.483002 88.478996 90.981003 94.976997 97.973999">40, 45, property_parameter</tspan><tspan
         id="tspan178"
         y="-14.9526"
         x="-132.10291 -127.6029 -124.6059 -120.1059 -116.1099 -112.1139 -108.6129 -105.1119 -100.6119 -96.1119 -92.115898 -85.113899 -81.117897">process_name</tspan><tspan
         id="tspan180"
         y="8.2278004"
         x="-131.103 -126.603 -123.606 -119.106 -115.11 -111.114 -107.613 -104.112 -99.612 -95.615997 -91.115997 -87.120003 -84.123001 -80.126999 -76.130997 -73.628998 -69.633003 -66.636002 -64.134003 -60.632999 -58.131001 -55.629002 -51.632999 -48.132 -45.882 -40.877998 -37.881001 -33.381001 -30.879 -26.882999 -23.886">process_characteristics S[0:?]</tspan></text>
<path
       id="path184"
       style="fill:#ffffff;fill-opacity:1;fill-rule:nonzero;stroke:none"
       d="m 54.909,92.841 h 67.32 V 128.2 h -67.32 z" /><g
       transform="translate(54.909,128.201)"
       id="g186"><path
         id="path188"
         style="fill:none;stroke:#231f20;stroke-width:0.68000001;stroke-linecap:square;stroke-linejoin:miter;stroke-miterlimit:10;stroke-dasharray:none;stroke-opacity:1"
         d="M 67.32,0 H 0 v -35.359 h 67.32 z" /><g
         id="g190"><path
           id="path192"
           style="fill:none;stroke:#231f20;stroke-width:0.68000001;stroke-linecap:square;stroke-linejoin:miter;stroke-miterlimit:10;stroke-dasharray:none;stroke-opacity:1"
           d="M 0,0 Z" /></g></g><text
       id="text196"
       style="font-variant:normal;font-weight:normal;font-stretch:normal;font-size:9px;font-family:Times;-inkscape-font-specification:Times-Roman;writing-mode:lr-tb;fill:#231f20;fill-opacity:1;fill-rule:nonzero;stroke:none"
       transform="matrix(1,0,0,-1,57.9575,108.4243)"><tspan
         id="tspan194"
         y="0"
         x="0 3.5009999 8.0010004 10.998 13.905 17.900999 21.896999 25.893 30.393 34.893002 37.889999 42.389999 46.889999 50.886002 53.882999 56.384998 60.884998">surface_property</tspan></text>
<path
       id="path198"
       style="fill:#ffffff;fill-opacity:1;fill-rule:nonzero;stroke:none"
       d="m 316.27,114.261 h 55.08 v 13.94 h -55.08 z" /><g
       transform="translate(316.27,128.201)"
       id="g200"><path
         id="path202"
         style="fill:none;stroke:#231f20;stroke-width:0.68000001;stroke-linecap:square;stroke-linejoin:miter;stroke-miterlimit:10;stroke-dasharray:none;stroke-opacity:1"
         d="M 55.08,0 H 0 v -13.94 h 55.08 z" /><g
         id="g204"><path
           id="path206"
           style="fill:none;stroke:#231f20;stroke-width:0.68000001;stroke-linecap:square;stroke-linejoin:miter;stroke-miterlimit:10;stroke-dasharray:none;stroke-opacity:1"
           d="M 0,0 Z" /><g
           transform="translate(48.279,-13.94)"
           id="g208"><path
             id="path210"
             style="fill:none;stroke:#231f20;stroke-width:0.68000001;stroke-linecap:square;stroke-linejoin:miter;stroke-miterlimit:10;stroke-dasharray:none;stroke-opacity:1"
             d="M 0,0 V 13.94" /></g></g></g><text
       id="text214"
       style="font-variant:normal;font-weight:normal;font-stretch:normal;font-size:9px;font-family:Times;-inkscape-font-specification:Times-Roman;writing-mode:lr-tb;fill:#231f20;fill-opacity:1;fill-rule:nonzero;stroke:none"
       transform="matrix(1,0,0,-1,325.4399,118.3628)"><tspan
         id="tspan212"
         y="0"
         x="0 6.0029998 10.503 15.003 17.504999 21.500999 25.497 29.997">Boolean</tspan></text>
<path
       id="path216"
       style="fill:#ffffff;fill-opacity:1;fill-rule:nonzero;stroke:none"
       d="m 261.43,92.841 h 114.92 v 13.94 H 261.43 Z" /><g
       transform="translate(268.399,106.781)"
       id="g218"><path
         id="path220"
         style="fill:none;stroke:#231f20;stroke-width:0.68000001;stroke-linecap:square;stroke-linejoin:miter;stroke-miterlimit:10;stroke-dasharray:none;stroke-opacity:1"
         d="m 0,0 h 100.98 c 3.848,0 6.971,-3.122 6.971,-6.97 0,-3.847 -3.123,-6.97 -6.971,-6.97 H 0 c -3.848,0 -6.969,3.123 -6.969,6.97 C -6.969,-3.122 -3.848,0 0,0 Z" /></g><text
       id="text224"
       style="font-variant:normal;font-weight:normal;font-stretch:normal;font-size:9px;font-family:Times;-inkscape-font-specification:Times-Roman;writing-mode:lr-tb;fill:#231f20;fill-opacity:1;fill-rule:nonzero;stroke:none"
       transform="matrix(1,0,0,-1,269.4516,97.8159)"><tspan
         id="tspan222"
         y="0"
         x="0 4.5 9 11.25 13.5 18 22.5 24.75 27 31.5 34.497002 38.997002 43.497002 47.493 50.490002 52.992001 57.492001 61.992001 66.491997 70.487999 73.485001 77.481003 84.483002 88.478996 90.981003 94.976997 97.973999">40, 45, property_parameter</tspan></text>
<g
       transform="translate(316.297,121.263)"
       id="g226"><path
         id="path228"
         style="fill:#ffffff;fill-opacity:1;fill-rule:nonzero;stroke:none"
         d="m 0,0 c 0,1.877 -1.523,3.4 -3.4,3.4 -1.877,0 -3.401,-1.523 -3.401,-3.4 0,-1.877 1.524,-3.4 3.401,-3.4 1.877,0 3.4,1.523 3.4,3.4" /></g><g
       transform="translate(316.297,121.263)"
       id="g230"><path
         id="path232"
         style="fill:none;stroke:#231f20;stroke-width:0.68000001;stroke-linecap:square;stroke-linejoin:miter;stroke-miterlimit:10;stroke-dasharray:none;stroke-opacity:1"
         d="m 0,0 c 0,1.877 -1.523,3.4 -3.4,3.4 -1.877,0 -3.401,-1.523 -3.401,-3.4 0,-1.877 1.524,-3.4 3.401,-3.4 1.877,0 3.4,1.523 3.4,3.4" /></g><text
       id="text238"
       style="font-variant:normal;font-weight:normal;font-stretch:normal;font-size:9px;font-family:Times;-inkscape-font-specification:Times-Roman;writing-mode:lr-tb;fill:#231f20;fill-opacity:1;fill-rule:nonzero;stroke:none"
       transform="matrix(1,0,0,-1,137.0297,111.1323)"><tspan
         id="tspan234"
         y="0"
         x="0 2.5020001 6.0029998 10.503 14.004 18.504 21.500999 24.408001 28.403999 32.400002 36.396 40.896 43.713001 46.215 50.715 53.216999 56.717999 61.217999">is_surface_finish</tspan><tspan
         id="tspan236"
         y="21.545099"
         x="-2.9997001 0.50129998 5.0012999 7.9983001 10.9053 14.9013 18.897301 22.893299 27.393299 31.389299 35.889301 39.8853 42.882301 46.8783 50.874298 53.376301 57.372299 60.369301 62.8713 66.372299 68.874298 71.376297 75.372299 78.873299 81.123299 86.127296 89.124298 93.624298 96.126297 100.1223 103.1193">surface_characteristics S[0:?]</tspan></text>
<path
       id="path240"
       style="fill:#ffffff;fill-opacity:1;fill-rule:nonzero;stroke:none"
       d="m 54.909,52.892 h 70.04 v 35.359 h -70.04 z" /><g
       transform="translate(54.909,88.251)"
       id="g242"><path
         id="path244"
         style="fill:none;stroke:#231f20;stroke-width:0.68000001;stroke-linecap:square;stroke-linejoin:miter;stroke-miterlimit:10;stroke-dasharray:none;stroke-opacity:1"
         d="M 70.04,0 H 0 v -35.359 h 70.04 z" /><g
         id="g246"><path
           id="path248"
           style="fill:none;stroke:#231f20;stroke-width:0.68000001;stroke-linecap:square;stroke-linejoin:miter;stroke-miterlimit:10;stroke-dasharray:none;stroke-opacity:1"
           d="M 0,0 Z" /></g></g><text
       id="text252"
       style="font-variant:normal;font-weight:normal;font-stretch:normal;font-size:9px;font-family:Times;-inkscape-font-specification:Times-Roman;writing-mode:lr-tb;fill:#231f20;fill-opacity:1;fill-rule:nonzero;stroke:none"
       transform="matrix(1,0,0,-1,58.1875,68.5146)"><tspan
         id="tspan250"
         y="0"
         x="0 7.0019999 10.998 13.5 17.496 20.493 22.995001 26.990999 29.493 33.993 38.493 41.490002 45.990002 50.490002 54.486 57.483002 59.985001">material_property</tspan></text>
<g
       id="g254"><g
         clip-path="url(#clipPath260)"
         id="g256"><text
           id="text264"
           style="font-variant:normal;font-weight:normal;font-stretch:normal;font-size:9px;font-family:Times;-inkscape-font-specification:Times-Roman;writing-mode:lr-tb;fill:#231f20;fill-opacity:1;fill-rule:nonzero;stroke:none"
           transform="matrix(1,0,0,-1,122.6597,68.5146)"><tspan
             id="tspan262"
             y="0"
             x="0"></tspan></text>
</g></g><path
       id="path266"
       style="fill:#ffffff;fill-opacity:1;fill-rule:nonzero;stroke:none"
       d="m 263.229,74.312 h 114.92 v 13.939 h -114.92 z" /><g
       transform="translate(270.2,88.251)"
       id="g268"><path
         id="path270"
         style="fill:none;stroke:#231f20;stroke-width:0.68000001;stroke-linecap:square;stroke-linejoin:miter;stroke-miterlimit:10;stroke-dasharray:none;stroke-opacity:1"
         d="m 0,0 h 100.979 c 3.847,0 6.97,-3.121 6.97,-6.97 0,-3.848 -3.123,-6.969 -6.97,-6.969 H 0 c -3.848,0 -6.971,3.121 -6.971,6.969 C -6.971,-3.121 -3.848,0 0,0 Z" /></g><text
       id="text276"
       style="font-variant:normal;font-weight:normal;font-stretch:normal;font-size:9px;font-family:Times;-inkscape-font-specification:Times-Roman;writing-mode:lr-tb;fill:#231f20;fill-opacity:1;fill-rule:nonzero;stroke:none"
       transform="matrix(1,0,0,-1,271.2524,79.2861)"><tspan
         id="tspan272"
         y="0"
         x="0 4.5 9 11.25 13.5 18 22.5 24.75 27 31.5 34.497002 38.997002 43.497002 47.493 50.490002 52.992001 57.492001 61.992001 66.491997 70.487999 73.485001 77.481003 84.483002 88.478996 90.981003 94.976997 97.973999">40, 45, property_parameter</tspan><tspan
         id="tspan274"
         y="8.2286997"
         x="-137.5029 -130.5009 -126.5049 -124.0029 -120.0069 -117.0099 -114.5079 -110.5119 -108.0099 -103.5099 -99.513901 -95.013901 -91.017899 -88.020897 -84.024902 -80.0289 -77.526901 -73.530899 -70.533897 -68.031898 -64.530899 -62.0289 -59.526901 -55.530899 -52.0299 -49.7799 -44.775902 -41.7789 -37.2789 -34.776901 -30.780899 -27.783899">material_characteristics S[0:?]</tspan></text>
<path
       id="path278"
       style="fill:#ffffff;fill-opacity:1;fill-rule:nonzero;stroke:none"
       d="m 53.379,175.461 h 57.12 v 22.44 h -57.12 z" /><g
       transform="translate(53.379,197.901)"
       id="g280"><path
         id="path282"
         style="fill:none;stroke:#231f20;stroke-width:0.68000001;stroke-linecap:square;stroke-linejoin:miter;stroke-miterlimit:10;stroke-dasharray:none;stroke-opacity:1"
         d="M 57.12,0 H 0 v -22.44 h 57.12 z" /><g
         id="g284"><path
           id="path286"
           style="fill:none;stroke:#231f20;stroke-width:0.68000001;stroke-linecap:square;stroke-linejoin:miter;stroke-miterlimit:10;stroke-dasharray:none;stroke-opacity:1"
           d="M 0,0 Z" /></g></g><text
       id="text290"
       style="font-variant:normal;font-weight:normal;font-stretch:normal;font-size:9px;font-family:Times;-inkscape-font-specification:Times-Roman;writing-mode:lr-tb;fill:#231f20;fill-opacity:1;fill-rule:nonzero;stroke:none"
       transform="matrix(1,0,0,-1,57.6762,184.8247)"><tspan
         id="tspan288"
         y="0"
         x="0 4.5 8.4960003 11.493 13.995 18.495001 22.995001 25.992001 30.492001 34.992001 38.987999 41.985001 44.487 48.987">part_property</tspan></text>
<path
       id="path292"
       style="fill:#ffffff;fill-opacity:1;fill-rule:nonzero;stroke:none"
       d="m 259.5,183.961 h 114.921 v 13.94 H 259.5 Z" /><g
       transform="translate(266.469,197.901)"
       id="g294"><path
         id="path296"
         style="fill:none;stroke:#231f20;stroke-width:0.68000001;stroke-linecap:square;stroke-linejoin:miter;stroke-miterlimit:10;stroke-dasharray:none;stroke-opacity:1"
         d="m 0,0 h 100.98 c 3.848,0 6.971,-3.122 6.971,-6.97 0,-3.847 -3.123,-6.97 -6.971,-6.97 H 0 c -3.848,0 -6.97,3.123 -6.97,6.97 C -6.97,-3.122 -3.848,0 0,0 Z" /></g><text
       id="text302"
       style="font-variant:normal;font-weight:normal;font-stretch:normal;font-size:9px;font-family:Times;-inkscape-font-specification:Times-Roman;writing-mode:lr-tb;fill:#231f20;fill-opacity:1;fill-rule:nonzero;stroke:none"
       transform="matrix(1,0,0,-1,267.5219,188.936)"><tspan
         id="tspan298"
         y="0"
         x="0 4.5 9 11.25 13.5 18 22.5 24.75 27 31.5 34.497002 38.997002 43.497002 47.493 50.490002 52.992001 57.492001 61.992001 66.491997 70.487999 73.485001 77.481003 84.483002 88.478996 90.981003 94.976997 97.973999">40, 45, property_parameter</tspan><tspan
         id="tspan300"
         y="8.2286997"
         x="-147.222 -142.722 -138.726 -135.729 -133.22701 -128.72701 -124.731 -120.231 -116.235 -113.238 -109.242 -105.246 -102.744 -98.748001 -95.750999 -93.249001 -89.748001 -87.246002 -84.744003 -80.748001 -77.247002 -74.997002 -69.992996 -66.996002 -62.495998 -59.993999 -55.998001 -53.000999">part_characteristics S[0:?]</tspan></text>
<g
       transform="translate(53.374,188.175)"
       id="g304"><path
         id="path306"
         style="fill:#ffffff;fill-opacity:1;fill-rule:nonzero;stroke:none"
         d="m 0,0 c 0,1.876 -1.523,3.399 -3.4,3.399 -1.877,0 -3.4,-1.523 -3.4,-3.399 0,-1.877 1.523,-3.4 3.4,-3.4 1.877,0 3.4,1.523 3.4,3.4" /></g><g
       transform="translate(53.374,188.175)"
       id="g308"><path
         id="path310"
         style="fill:none;stroke:#231f20;stroke-width:0.68000001;stroke-linecap:square;stroke-linejoin:miter;stroke-miterlimit:10;stroke-dasharray:none;stroke-opacity:1"
         d="m 0,0 c 0,1.876 -1.523,3.399 -3.4,3.399 -1.877,0 -3.4,-1.523 -3.4,-3.399 0,-1.877 1.523,-3.4 3.4,-3.4 1.877,0 3.4,1.523 3.4,3.4" /></g><g
       transform="translate(54.903,108.309)"
       id="g312"><path
         id="path314"
         style="fill:#ffffff;fill-opacity:1;fill-rule:nonzero;stroke:none"
         d="m 0,0 c 0,1.877 -1.523,3.399 -3.4,3.399 -1.877,0 -3.4,-1.522 -3.4,-3.399 0,-1.877 1.523,-3.4 3.4,-3.4 1.877,0 3.4,1.523 3.4,3.4" /></g><g
       transform="translate(54.903,108.309)"
       id="g316"><path
         id="path318"
         style="fill:none;stroke:#231f20;stroke-width:0.68000001;stroke-linecap:square;stroke-linejoin:miter;stroke-miterlimit:10;stroke-dasharray:none;stroke-opacity:1"
         d="m 0,0 c 0,1.877 -1.523,3.399 -3.4,3.399 -1.877,0 -3.4,-1.522 -3.4,-3.399 0,-1.877 1.523,-3.4 3.4,-3.4 1.877,0 3.4,1.523 3.4,3.4" /></g><g
       transform="translate(53.883,152.475)"
       id="g320"><path
         id="path322"
         style="fill:#ffffff;fill-opacity:1;fill-rule:nonzero;stroke:none"
         d="m 0,0 c 0,1.877 -1.523,3.399 -3.4,3.399 -1.876,0 -3.4,-1.522 -3.4,-3.399 0,-1.877 1.524,-3.4 3.4,-3.4 1.877,0 3.4,1.523 3.4,3.4" /></g><g
       transform="translate(53.883,152.475)"
       id="g324"><path
         id="path326"
         style="fill:none;stroke:#231f20;stroke-width:0.68000001;stroke-linecap:square;stroke-linejoin:miter;stroke-miterlimit:10;stroke-dasharray:none;stroke-opacity:1"
         d="m 0,0 c 0,1.877 -1.523,3.399 -3.4,3.399 -1.876,0 -3.4,-1.522 -3.4,-3.399 0,-1.877 1.524,-3.4 3.4,-3.4 1.877,0 3.4,1.523 3.4,3.4" /></g><g
       transform="translate(54.903,70.06)"
       id="g328"><path
         id="path330"
         style="fill:#ffffff;fill-opacity:1;fill-rule:nonzero;stroke:none"
         d="m 0,0 c 0,1.877 -1.523,3.398 -3.4,3.398 -1.877,0 -3.4,-1.521 -3.4,-3.398 0,-1.877 1.523,-3.4 3.4,-3.4 1.877,0 3.4,1.523 3.4,3.4" /></g><g
       transform="translate(54.903,70.06)"
       id="g332"><path
         id="path334"
         style="fill:none;stroke:#231f20;stroke-width:0.68000001;stroke-linecap:square;stroke-linejoin:miter;stroke-miterlimit:10;stroke-dasharray:none;stroke-opacity:1"
         d="m 0,0 c 0,1.877 -1.523,3.398 -3.4,3.398 -1.877,0 -3.4,-1.521 -3.4,-3.398 0,-1.877 1.523,-3.4 3.4,-3.4 1.877,0 3.4,1.523 3.4,3.4" /></g><path
       id="path336"
       style="fill:#ffffff;fill-opacity:1;fill-rule:nonzero;stroke:none"
       d="m 191.93,4.9502 h 43.52 v 35.361 h -43.52 z" /><g
       transform="translate(191.93,40.311)"
       id="g338"><path
         id="path340"
         style="fill:none;stroke:#231f20;stroke-width:0.68000001;stroke-linecap:square;stroke-linejoin:miter;stroke-miterlimit:10;stroke-dasharray:none;stroke-opacity:1"
         d="M 43.52,0 H 0 v -35.361 h 43.52 z" /><g
         id="g342"><path
           id="path344"
           style="fill:none;stroke:#231f20;stroke-width:0.68000001;stroke-linecap:square;stroke-linejoin:miter;stroke-miterlimit:10;stroke-dasharray:none;stroke-opacity:1"
           d="M 0,0 Z" /></g></g><text
       id="text350"
       style="font-variant:normal;font-weight:normal;font-stretch:normal;font-size:9px;font-family:Times;-inkscape-font-specification:Times-Roman;writing-mode:lr-tb;fill:#231f20;fill-opacity:1;fill-rule:nonzero;stroke:none"
       transform="matrix(1,0,0,-1,196.9082,19.7627)"><tspan
         id="tspan346"
         y="0"
         x="0 4.5 8.4960003 11.493 15.993 20.493 24.489 27.99 31.490999">hardness</tspan><tspan
         id="tspan348"
         y="-29.874599"
         x="-65.159103 -58.157101 -54.161098 -51.6591 -47.663101 -44.6661 -42.164101 -38.168098 -35.6661 -31.1661 -26.6661 -22.670099 -19.6731 -15.1731 -10.6731 -6.6771002 -3.1761 0.3249 2.5748999 7.5788999 10.5759 15.0759 17.5779 21.5739 24.5709">material_hardness S[0:?]</tspan></text>
<path
       id="path352"
       style="fill:#ffffff;fill-opacity:1;fill-rule:nonzero;stroke:none"
       d="M 29.409,26.37 H 98.09 V 40.311 H 29.409 Z" /><g
       transform="translate(36.379,40.311)"
       id="g354"><path
         id="path356"
         style="fill:none;stroke:#231f20;stroke-width:0.68000001;stroke-linecap:square;stroke-linejoin:miter;stroke-miterlimit:10;stroke-dasharray:none;stroke-opacity:1"
         d="m 0,0 h 54.74 c 3.847,0 6.97,-3.123 6.97,-6.971 0,-3.847 -3.123,-6.97 -6.97,-6.97 H 0 c -3.847,0 -6.97,3.123 -6.97,6.97 C -6.97,-3.123 -3.847,0 0,0 Z" /></g><text
       id="text360"
       style="font-variant:normal;font-weight:normal;font-stretch:normal;font-size:9px;font-family:Times;-inkscape-font-specification:Times-Roman;writing-mode:lr-tb;fill:#231f20;fill-opacity:1;fill-rule:nonzero;stroke:none"
       transform="matrix(1,0,0,-1,41.5219,31.0107)"><tspan
         id="tspan358"
         y="0"
         x="0 4.5 9 11.25 13.5 18 22.5 24.75 27 29.502001 33.498001 37.998001 41.993999 44.495998">46, 44, label</tspan></text>
<path
       id="path362"
       style="fill:#ffffff;fill-opacity:1;fill-rule:nonzero;stroke:none"
       d="M 29.409,4.9502 H 135.49 v 13.941 H 29.409 Z" /><g
       transform="translate(36.379,18.892)"
       id="g364"><path
         id="path366"
         style="fill:none;stroke:#231f20;stroke-width:0.68000001;stroke-linecap:square;stroke-linejoin:miter;stroke-miterlimit:10;stroke-dasharray:none;stroke-opacity:1"
         d="m 0,0 h 92.14 c 3.847,0 6.97,-3.123 6.97,-6.971 0,-3.847 -3.123,-6.97 -6.97,-6.97 H 0 c -3.847,0 -6.97,3.123 -6.97,6.97 C -6.97,-3.123 -3.847,0 0,0 Z" /></g><text
       id="text370"
       style="font-variant:normal;font-weight:normal;font-stretch:normal;font-size:9px;font-family:Times;-inkscape-font-specification:Times-Roman;writing-mode:lr-tb;fill:#231f20;fill-opacity:1;fill-rule:nonzero;stroke:none"
       transform="matrix(1,0,0,-1,40.7197,9.5928)"><tspan
         id="tspan368"
         y="0"
         x="0 4.5 9 11.25 13.5 18 22.5 24.75 27 31.275 35.271 37.772999 42.272999 46.269001 50.769001 57.266998 59.769001 62.271 66.771004 71.271004 75.771004 80.271004 82.773003 85.275002">45, 19, value_with_unit</tspan></text>
<path
       id="path372"
       style="fill:#ffffff;fill-opacity:1;fill-rule:nonzero;stroke:none"
       d="m 291.889,26.37 h 102.68 v 13.941 h -102.68 z" /><g
       transform="translate(298.86,40.311)"
       id="g374"><path
         id="path376"
         style="fill:none;stroke:#231f20;stroke-width:0.68000001;stroke-linecap:square;stroke-linejoin:miter;stroke-miterlimit:10;stroke-dasharray:none;stroke-opacity:1"
         d="m 0,0 h 88.74 c 3.846,0 6.969,-3.123 6.969,-6.971 0,-3.847 -3.123,-6.97 -6.969,-6.97 H 0 c -3.848,0 -6.971,3.123 -6.971,6.97 C -6.971,-3.123 -3.848,0 0,0 Z" /></g><text
       id="text380"
       style="font-variant:normal;font-weight:normal;font-stretch:normal;font-size:9px;font-family:Times;-inkscape-font-specification:Times-Roman;writing-mode:lr-tb;fill:#231f20;fill-opacity:1;fill-rule:nonzero;stroke:none"
       transform="matrix(1,0,0,-1,303.768,31.0107)"><tspan
         id="tspan378"
         y="0"
         x="0 4.5 9 11.25 13.5 18 20.25 22.5 26.775 30.771 33.272999 37.772999 41.769001 46.269001 52.766998 55.269001 57.771 62.271 66.771004 71.271004 75.771004 78.273003 80.775002">45, 8, value_with_unit</tspan></text>
<path
       id="path382"
       style="fill:#ffffff;fill-opacity:1;fill-rule:nonzero;stroke:none"
       d="m 288.489,4.9502 h 106.08 v 13.941 h -106.08 z" /><g
       transform="translate(295.459,18.892)"
       id="g384"><path
         id="path386"
         style="fill:none;stroke:#231f20;stroke-width:0.68000001;stroke-linecap:square;stroke-linejoin:miter;stroke-miterlimit:10;stroke-dasharray:none;stroke-opacity:1"
         d="m 0,0 h 92.141 c 3.845,0 6.968,-3.123 6.968,-6.971 0,-3.847 -3.123,-6.97 -6.968,-6.97 H 0 c -3.848,0 -6.971,3.123 -6.971,6.97 C -6.971,-3.123 -3.848,0 0,0 Z" /></g><text
       id="text398"
       style="font-variant:normal;font-weight:normal;font-stretch:normal;font-size:9px;font-family:Times;-inkscape-font-specification:Times-Roman;writing-mode:lr-tb;fill:#231f20;fill-opacity:1;fill-rule:nonzero;stroke:none"
       transform="matrix(1,0,0,-1,299.7993,9.5928)"><tspan
         id="tspan388"
         y="0"
         x="0 4.5 9 11.25 13.5 18 22.5 24.75 27 31.275 35.271 37.772999 42.272999 46.269001 50.769001 57.266998 59.769001 62.271 66.771004 71.271004 75.771004 80.271004 82.773003 85.275002">45, 19, value_with_unit</tspan><tspan
         id="tspan390"
         y="-13.7889"
         x="-194.90939 -191.4084 -187.4124 -183.4164 -180.9144 -176.9184">scale</tspan><tspan
         id="tspan392"
         y="7.6311002"
         x="-157.5099 -153.0099 -150.5079 -146.0079 -141.5079 -137.0079 -132.73289 -128.73689 -126.2349 -121.7349 -117.7389">high_value</tspan><tspan
         id="tspan394"
         y="-13.7889"
         x="-57.549599 -53.049599 -48.549599 -41.5476 -39.045601 -34.545601 -30.549601 -28.0476">nominal</tspan><tspan
         id="tspan396"
         y="7.6311002"
         x="-57.549599 -55.0476 -50.772598 -44.274601 -39.774601 -35.499599 -31.503599 -29.0016 -24.5016 -20.5056">low_value</tspan></text>
<g
       transform="translate(217.083,43.743)"
       id="g400"><path
         id="path402"
         style="fill:#ffffff;fill-opacity:1;fill-rule:nonzero;stroke:none"
         d="m 0,0 c 0,1.877 -1.523,3.4 -3.399,3.4 -1.877,0 -3.4,-1.523 -3.4,-3.4 0,-1.877 1.523,-3.4 3.4,-3.4 C -1.523,-3.4 0,-1.877 0,0" /></g><g
       transform="translate(217.083,43.743)"
       id="g404"><path
         id="path406"
         style="fill:none;stroke:#231f20;stroke-width:0.68000001;stroke-linecap:square;stroke-linejoin:miter;stroke-miterlimit:10;stroke-dasharray:none;stroke-opacity:1"
         d="m 0,0 c 0,1.877 -1.523,3.4 -3.399,3.4 -1.877,0 -3.4,-1.523 -3.4,-3.4 0,-1.877 1.523,-3.4 3.4,-3.4 C -1.523,-3.4 0,-1.877 0,0" /></g><path
       id="path408"
       style="fill:#ffffff;fill-opacity:1;fill-rule:nonzero;stroke:none"
       d="m 181.56,217.621 h 99.16 v 13.94 h -99.16 z" /><path
       id="path410"
       style="fill:none;stroke:#231f20;stroke-width:0.68000001;stroke-linecap:square;stroke-linejoin:miter;stroke-miterlimit:10;stroke-dasharray:3.4, 3.4;stroke-dashoffset:0;stroke-opacity:1"
       d="m 181.56,231.561 v -13.94 h 99.159 v 13.94 z m 6.799,-13.94 v 13.94" /><text
       id="text414"
       style="font-variant:normal;font-weight:normal;font-stretch:normal;font-size:9px;font-family:Times;-inkscape-font-specification:Times-Roman;writing-mode:lr-tb;fill:#231f20;fill-opacity:1;fill-rule:nonzero;stroke:none"
       transform="matrix(1,0,0,-1,192.7236,222.5591)"><tspan
         id="tspan412"
         y="0"
         x="0 4.5 8.4960003 12.996 16.992001 19.989 23.985001 26.487 30.987 35.487 38.484001 42.984001 47.484001 51.48 54.477001 56.979 61.479 65.978996 68.481003 70.983002 74.978996 81.981003">general_property_item</tspan></text>
<path
       id="path416"
       style="fill:#ffffff;fill-opacity:1;fill-rule:nonzero;stroke:none"
       d="m 58.48,217.621 h 102.68 v 13.94 H 58.48 Z" /><g
       transform="translate(65.45,231.561)"
       id="g418"><path
         id="path420"
         style="fill:none;stroke:#231f20;stroke-width:0.68000001;stroke-linecap:square;stroke-linejoin:miter;stroke-miterlimit:10;stroke-dasharray:none;stroke-opacity:1"
         d="m 0,0 h 88.74 c 3.847,0 6.969,-3.122 6.969,-6.97 0,-3.847 -3.122,-6.97 -6.969,-6.97 H 0 c -3.848,0 -6.97,3.123 -6.97,6.97 C -6.97,-3.122 -3.848,0 0,0 Z" /></g><text
       id="text424"
       style="font-variant:normal;font-weight:normal;font-stretch:normal;font-size:9px;font-family:Times;-inkscape-font-specification:Times-Roman;writing-mode:lr-tb;fill:#231f20;fill-opacity:1;fill-rule:nonzero;stroke:none"
       transform="matrix(1,0,0,-1,67.6323,222.4292)"><tspan
         id="tspan422"
         y="0"
         x="0 4.5 9 11.25 13.5 18 22.5 24.75 27 32.004002 36.504002 40.5 45 48.995998 53.495998 57.492001 59.993999 63.990002 70.991997 74.987999 79.487999 81.989998">37, 14, Shape_element</tspan></text>
<path
       id="path426"
       style="fill:#ffffff;fill-opacity:1;fill-rule:nonzero;stroke:none"
       d="m 301.12,217.621 h 86.359 v 13.94 H 301.12 Z" /><g
       transform="translate(308.09,231.561)"
       id="g428"><path
         id="path430"
         style="fill:none;stroke:#231f20;stroke-width:0.68000001;stroke-linecap:square;stroke-linejoin:miter;stroke-miterlimit:10;stroke-dasharray:none;stroke-opacity:1"
         d="m 0,0 h 72.42 c 3.848,0 6.969,-3.122 6.969,-6.97 0,-3.847 -3.121,-6.97 -6.969,-6.97 H 0 c -3.848,0 -6.971,3.123 -6.971,6.97 C -6.971,-3.122 -3.848,0 0,0 Z" /></g><text
       id="text434"
       style="font-variant:normal;font-weight:normal;font-stretch:normal;font-size:9px;font-family:Times;-inkscape-font-specification:Times-Roman;writing-mode:lr-tb;fill:#231f20;fill-opacity:1;fill-rule:nonzero;stroke:none"
       transform="matrix(1,0,0,-1,312.3247,222.5063)"><tspan
         id="tspan432"
         y="0"
         x="0 4.5 9 11.25 13.5 18 22.5 24.75 27 33.408001 37.908001 40.904999 45.404999 49.904999 52.407001 56.403 60.398998 64.394997">22, 64, workpiece</tspan></text>
<path
       id="path436"
       style="fill:#ffffff;fill-opacity:1;fill-rule:nonzero;stroke:none"
       d="m 0.3398,259.271 h 97.04 v 56.78 h -97.04 z" /><g
       transform="translate(0.3398,316.051)"
       id="g438"><path
         id="path440"
         style="fill:none;stroke:#231f20;stroke-width:0.68000001;stroke-linecap:square;stroke-linejoin:miter;stroke-miterlimit:10;stroke-dasharray:none;stroke-opacity:1"
         d="M 97.04,0 H 0 v -56.78 h 97.04 z" /><g
         id="g442"><path
           id="path444"
           style="fill:none;stroke:#231f20;stroke-width:0.68000001;stroke-linecap:square;stroke-linejoin:miter;stroke-miterlimit:10;stroke-dasharray:none;stroke-opacity:1"
           d="M 0,0 Z" /></g></g><text
       id="text448"
       style="font-variant:normal;font-weight:normal;font-stretch:normal;font-size:9px;font-family:Times;-inkscape-font-specification:Times-Roman;writing-mode:lr-tb;fill:#231f20;fill-opacity:1;fill-rule:nonzero;stroke:none"
       transform="matrix(1,0,0,-1,5.1377,285.5518)"><tspan
         id="tspan446"
         y="0"
         x="0 2.997 9.4949999 15.498 20.502001 23.499001 27.999001 31.995001 36.494999 40.491001 43.487999 47.484001 49.986 54.486 58.986 61.983002 66.483002 70.983002 74.978996 77.975998 80.477997 84.977997">(ABS)general_property</tspan></text>
<g
       transform="translate(47.253,319.449)"
       id="g450"><path
         id="path452"
         style="fill:#ffffff;fill-opacity:1;fill-rule:nonzero;stroke:none"
         d="m 0,0 c 0,1.877 -1.523,3.4 -3.4,3.4 -1.877,0 -3.4,-1.523 -3.4,-3.4 0,-1.877 1.523,-3.4 3.4,-3.4 1.877,0 3.4,1.523 3.4,3.4" /></g><g
       transform="translate(47.253,319.449)"
       id="g454"><path
         id="path456"
         style="fill:none;stroke:#231f20;stroke-width:0.68000001;stroke-linecap:square;stroke-linejoin:miter;stroke-miterlimit:10;stroke-dasharray:none;stroke-opacity:1"
         d="m 0,0 c 0,1.877 -1.523,3.4 -3.4,3.4 -1.877,0 -3.4,-1.523 -3.4,-3.4 0,-1.877 1.523,-3.4 3.4,-3.4 1.877,0 3.4,1.523 3.4,3.4" /></g><text
       id="text460"
       style="font-variant:normal;font-weight:normal;font-stretch:normal;font-size:9px;font-family:Times;-inkscape-font-specification:Times-Roman;writing-mode:lr-tb;fill:#231f20;fill-opacity:1;fill-rule:nonzero;stroke:none"
       transform="matrix(1,0,0,-1,72.2319,238.8076)"><tspan
         id="tspan458"
         y="0"
         x="0 4.2750001 10.773 15.273 19.268999 22.266001">owner</tspan></text>
<path
       id="path462"
       style="fill:#ffffff;fill-opacity:1;fill-rule:nonzero;stroke:none"
       d="m 257.86,302.111 h 68.68 v 13.94 h -68.68 z" /><g
       transform="translate(264.829,316.051)"
       id="g464"><path
         id="path466"
         style="fill:none;stroke:#231f20;stroke-width:0.68000001;stroke-linecap:square;stroke-linejoin:miter;stroke-miterlimit:10;stroke-dasharray:none;stroke-opacity:1"
         d="m 0,0 h 54.74 v 0.001 c 3.848,0 6.971,-3.123 6.971,-6.971 0,-3.847 -3.123,-6.97 -6.971,-6.97 H 0 c -3.847,0 -6.969,3.123 -6.969,6.97 0,3.848 3.122,6.971 6.969,6.971 z" /></g><text
       id="text470"
       style="font-variant:normal;font-weight:normal;font-stretch:normal;font-size:9px;font-family:Times;-inkscape-font-specification:Times-Roman;writing-mode:lr-tb;fill:#231f20;fill-opacity:1;fill-rule:nonzero;stroke:none"
       transform="matrix(1,0,0,-1,269.9712,306.7515)"><tspan
         id="tspan468"
         y="0"
         x="0 4.5 9 11.25 13.5 18 22.5 24.75 27 29.502001 33.498001 37.998001 41.993999 44.495998">46, 44, label</tspan></text>
<path
       id="path472"
       style="fill:#ffffff;fill-opacity:1;fill-rule:nonzero;stroke:none"
       d="m 196.659,280.691 h 129.88 v 13.94 h -129.88 z" /><g
       transform="translate(203.629,294.631)"
       id="g474"><path
         id="path476"
         style="fill:none;stroke:#231f20;stroke-width:0.68000001;stroke-linecap:square;stroke-linejoin:miter;stroke-miterlimit:10;stroke-dasharray:none;stroke-opacity:1"
         d="m 0,0 h 115.939 c 3.848,0 6.971,-3.123 6.971,-6.97 0,-3.848 -3.123,-6.97 -6.971,-6.97 H 0 c -3.847,0 -6.97,3.122 -6.97,6.97 C -6.97,-3.123 -3.847,0 0,0 Z" /></g><text
       id="text480"
       style="font-variant:normal;font-weight:normal;font-stretch:normal;font-size:9px;font-family:Times;-inkscape-font-specification:Times-Roman;writing-mode:lr-tb;fill:#231f20;fill-opacity:1;fill-rule:nonzero;stroke:none"
       transform="matrix(1,0,0,-1,203.9985,285.5518)"><tspan
         id="tspan478"
         y="0"
         x="0 4.5 9 11.25 13.5 18 22.5 27 29.25 31.5 34.497002 40.994999 46.998001 52.001999 54.999001 59.499001 63.494999 67.995003 71.990997 74.987999 78.984001 81.486 85.986 90.486 93.483002 97.983002 102.483 106.479 109.476 111.978 116.478">39, 102, (ABS)general_property</tspan></text>
<path
       id="path482"
       style="fill:#ffffff;fill-opacity:1;fill-rule:nonzero;stroke:none"
       d="m 227.94,259.271 h 98.6 v 13.94 h -98.6 z" /><g
       transform="translate(234.909,273.211)"
       id="g484"><path
         id="path486"
         style="fill:none;stroke:#231f20;stroke-width:0.68000001;stroke-linecap:square;stroke-linejoin:miter;stroke-miterlimit:10;stroke-dasharray:none;stroke-opacity:1"
         d="m 0,0 h 84.66 c 3.848,0 6.971,-3.122 6.971,-6.97 0,-3.847 -3.123,-6.97 -6.971,-6.97 H 0 c -3.847,0 -6.969,3.123 -6.969,6.97 C -6.969,-3.122 -3.847,0 0,0 Z" /></g><text
       id="text496"
       style="font-variant:normal;font-weight:normal;font-stretch:normal;font-size:9px;font-family:Times;-inkscape-font-specification:Times-Roman;writing-mode:lr-tb;fill:#231f20;fill-opacity:1;fill-rule:nonzero;stroke:none"
       transform="matrix(1,0,0,-1,238.9126,264.1152)"><tspan
         id="tspan488"
         y="0"
         x="0 4.5 9 11.25 13.5 18 22.5 27 29.25 31.5 35.000999 39.500999 43.497002 47.493 49.994999 52.812 55.313999 59.310001 63.306 65.807999 68.309998 72.809998 77.309998">29, 105, specification</tspan><tspan
         id="tspan490"
         y="-35.005501"
         x="-134.7327 -130.2327 -126.2367 -122.7357 -118.7397 -115.7427 -113.2407 -108.7407 -106.2387 -103.7367 -99.236702 -94.736702">description</tspan><tspan
         id="tspan492"
         y="-13.3218"
         x="-134.7327 -131.7357 -127.7397 -125.2377 -121.2417 -118.7397 -114.7437 -110.2437 -105.7437 -101.2437 -98.246696 -93.746696 -89.246696 -85.250702 -82.2537 -79.751701 -77.249702 -73.2537 -69.752701 -67.502701 -62.498699 -59.501701 -55.001701 -52.499699 -48.5037 -45.506699">related_properties S[0:?]</tspan><tspan
         id="tspan494"
         y="8.0981998"
         x="-134.7327 -131.2317 -126.7317 -122.7357 -118.7397 -116.2377 -113.4207 -110.9187 -106.9227 -102.9267 -100.4247 -97.922699 -93.422699 -88.922699 -85.4217 -83.1717 -78.167702 -75.1707 -70.6707 -68.168701 -64.172699 -61.175701">specifications S[0:?]</tspan></text>
<g
       transform="translate(231.567,234.993)"
       id="g498"><path
         id="path500"
         style="fill:#ffffff;fill-opacity:1;fill-rule:nonzero;stroke:none"
         d="m 0,0 c 0,1.876 -1.523,3.4 -3.4,3.4 -1.877,0 -3.4,-1.524 -3.4,-3.4 0,-1.877 1.523,-3.4 3.4,-3.4 1.877,0 3.4,1.523 3.4,3.4" /></g><g
       transform="translate(231.567,234.993)"
       id="g502"><path
         id="path504"
         style="fill:none;stroke:#231f20;stroke-width:0.68000001;stroke-linecap:square;stroke-linejoin:miter;stroke-miterlimit:10;stroke-dasharray:none;stroke-opacity:1"
         d="m 0,0 c 0,1.876 -1.523,3.4 -3.4,3.4 -1.877,0 -3.4,-1.524 -3.4,-3.4 0,-1.877 1.523,-3.4 3.4,-3.4 1.877,0 3.4,1.523 3.4,3.4" /></g></g></svg>