<?xml version="1.0" encoding="UTF-8" standalone="no"?>
<svg
   xmlns:dc="http://purl.org/dc/elements/1.1/"
   xmlns:cc="http://creativecommons.org/ns#"
   xmlns:rdf="http://www.w3.org/1999/02/22-rdf-syntax-ns#"
   xmlns:svg="http://www.w3.org/2000/svg"
   xmlns="http://www.w3.org/2000/svg"
   viewBox="0 0 482.56 455.67334"
   height="455.67334"
   width="482.56"
   xml:space="preserve"
   id="svg2"
   version="1.1"><metadata
     id="metadata8"><rdf:RDF><cc:Work
         rdf:about=""><dc:format>image/svg+xml</dc:format><dc:type
           rdf:resource="http://purl.org/dc/dcmitype/StillImage" /></cc:Work></rdf:RDF></metadata><defs
     id="defs6" /><g
     transform="matrix(1.3333333,0,0,-1.3333333,0,455.67333)"
     id="g10"><path
       id="path12"
       style="fill:none;stroke:#231f20;stroke-width:0.68000001;stroke-linecap:square;stroke-linejoin:miter;stroke-miterlimit:10;stroke-dasharray:3.4, 3.4;stroke-dashoffset:0;stroke-opacity:1"
       d="m 61.31,323.024 v 4.451" /><g
       transform="translate(54.06,12.061)"
       id="g14"><path
         id="path16"
         style="fill:none;stroke:#231f20;stroke-width:0.68000001;stroke-linecap:square;stroke-linejoin:miter;stroke-miterlimit:10;stroke-dasharray:none;stroke-opacity:1"
         d="M 0,0 H 59.84" /><g
         transform="translate(204.839)"
         id="g18"><path
           id="path20"
           style="fill:none;stroke:#231f20;stroke-width:0.68000001;stroke-linecap:square;stroke-linejoin:miter;stroke-miterlimit:10;stroke-dasharray:none;stroke-opacity:1"
           d="M 0,0 H -66.8" /></g></g><path
       id="path22"
       style="fill:none;stroke:#231f20;stroke-width:0.68000001;stroke-linecap:square;stroke-linejoin:miter;stroke-miterlimit:10;stroke-dasharray:3.4, 3.4;stroke-dashoffset:0;stroke-opacity:1"
       d="m 100.75,309.253 h 89.76 m -51,-21.419 h -38.76 m 77.52,0 h -38.76 m 0,0 v 0 m -38.76,-21.421 h 86.36 m -86.36,-39.42 H 235.391 M 100.75,205.573 H 235.391 M 100.75,184.153 h 87.721 M 100.75,162.733 H 231.31 M 100.75,141.314 h 87.721 M 100.75,119.893 h 87.721 M 100.75,98.473 h 87.721 M 144.61,77.054 h -43.86 m 87.721,0 H 144.61 m 0,0 v 0 m -43.86,-21.42 h 87.721" /><g
       transform="translate(58.449,35.547)"
       id="g24"><path
         id="path26"
         style="fill:none;stroke:#231f20;stroke-width:0.68000001;stroke-linecap:square;stroke-linejoin:miter;stroke-miterlimit:10;stroke-dasharray:none;stroke-opacity:1"
         d="M 0,0 V 13.116" /><g
         transform="translate(94.551,-9.716)"
         id="g28"><path
           id="path30"
           style="fill:none;stroke:#231f20;stroke-width:0.68000001;stroke-linecap:square;stroke-linejoin:miter;stroke-miterlimit:10;stroke-dasharray:none;stroke-opacity:1"
           d="M 0,0 V 9.716 H -94.551" /></g></g><path
       id="path32"
       style="fill:#ffffff;fill-opacity:1;fill-rule:nonzero;stroke:none"
       d="m 31.39,327.475 h 59.84 v 13.94 H 31.39 Z" /><g
       transform="translate(38.36,341.415)"
       id="g34"><path
         id="path36"
         style="fill:none;stroke:#231f20;stroke-width:0.68000001;stroke-linecap:square;stroke-linejoin:miter;stroke-miterlimit:10;stroke-dasharray:none;stroke-opacity:1"
         d="m 0,0 h 45.9 c 3.847,0 6.97,-3.123 6.97,-6.97 0,-3.847 -3.123,-6.97 -6.97,-6.97 H 0 c -3.848,0 -6.97,3.123 -6.97,6.97 C -6.97,-3.123 -3.848,0 0,0 Z" /></g><text
       id="text40"
       style="font-variant:normal;font-weight:normal;font-stretch:normal;font-size:9px;font-family:Times;-inkscape-font-specification:Times-Roman;writing-mode:lr-tb;fill:#231f20;fill-opacity:1;fill-rule:nonzero;stroke:none"
       transform="matrix(1,0,0,-1,43.8476,332.2985)"><tspan
         id="tspan38"
         y="0"
         x="0 4.5 9 11.25 13.5 18 22.5 24.75 27.747 32.247002">43, 90 (1)</tspan></text>
<path
       id="path42"
       style="fill:#ffffff;fill-opacity:1;fill-rule:nonzero;stroke:none"
       d="m 113.9,5.0919 h 78.2 v 13.939 h -78.2 z" /><g
       transform="translate(113.9,19.031)"
       id="g44"><path
         id="path46"
         style="fill:none;stroke:#231f20;stroke-width:0.68000001;stroke-linecap:square;stroke-linejoin:miter;stroke-miterlimit:10;stroke-dasharray:none;stroke-opacity:1"
         d="M 78.2,0 H 0 v -13.939 h 78.2 z" /><g
         id="g48"><path
           id="path50"
           style="fill:none;stroke:#231f20;stroke-width:0.68000001;stroke-linecap:square;stroke-linejoin:miter;stroke-miterlimit:10;stroke-dasharray:none;stroke-opacity:1"
           d="M 0,0 Z" /></g></g><text
       id="text56"
       style="font-variant:normal;font-weight:normal;font-stretch:normal;font-size:9px;font-family:Times;-inkscape-font-specification:Times-Roman;writing-mode:lr-tb;fill:#231f20;fill-opacity:1;fill-rule:nonzero;stroke:none"
       transform="matrix(1,0,0,-1,115.8149,9.6416)"><tspan
         id="tspan52"
         y="0"
         x="0 7.0019999 10.998 14.994 19.493999 21.996 26.496 30.492001 34.992001 38.987999 43.487999 45.990002 49.491001 53.991001 56.493 59.490002 63.306 67.670998 71.667">machine_axis_travel</tspan><tspan
         id="tspan54"
         y="7.6796999"
         x="-60.555599 -56.559601 -52.059601 -49.557598 -46.056599 -41.556599 -39.0546 -34.5546 -30.558599 -26.058599 -23.556601 -21.0546 -18.2376 -15.7356 -11.7396">axis_identifier</tspan></text>
<g
       transform="translate(54.024,12.002)"
       id="g58"><path
         id="path60"
         style="fill:#ffffff;fill-opacity:1;fill-rule:nonzero;stroke:none"
         d="m 0,0 c 0,1.877 -1.523,3.4 -3.4,3.4 -1.877,0 -3.4,-1.523 -3.4,-3.4 0,-1.877 1.523,-3.4004 3.4,-3.4004 1.877,0 3.4,1.5234 3.4,3.4004" /></g><g
       transform="translate(54.024,12.002)"
       id="g62"><path
         id="path64"
         style="fill:none;stroke:#231f20;stroke-width:0.68000001;stroke-linecap:square;stroke-linejoin:miter;stroke-miterlimit:10;stroke-dasharray:none;stroke-opacity:1"
         d="m 0,0 c 0,1.877 -1.523,3.4 -3.4,3.4 -1.877,0 -3.4,-1.523 -3.4,-3.4 0,-1.877 1.523,-3.4004 3.4,-3.4004 1.877,0 3.4,1.5234 3.4,3.4004" /></g><path
       id="path66"
       style="fill:#ffffff;fill-opacity:1;fill-rule:nonzero;stroke:none"
       d="m 0.3398,5.0919 h 46.92 v 13.939 h -46.92 z" /><g
       transform="translate(0.3398,19.031)"
       id="g68"><path
         id="path70"
         style="fill:none;stroke:#231f20;stroke-width:0.68000001;stroke-linecap:square;stroke-linejoin:miter;stroke-miterlimit:10;stroke-dasharray:none;stroke-opacity:1"
         d="M 46.92,0 H 0 v -13.939 h 46.92 z" /><g
         id="g72"><path
           id="path74"
           style="fill:none;stroke:#231f20;stroke-width:0.68000001;stroke-linecap:square;stroke-linejoin:miter;stroke-miterlimit:10;stroke-dasharray:none;stroke-opacity:1"
           d="M 0,0 Z" /></g></g><g
       transform="translate(40.46,5.0919)"
       id="g76"><path
         id="path78"
         style="fill:none;stroke:#231f20;stroke-width:0.68000001;stroke-linecap:square;stroke-linejoin:miter;stroke-miterlimit:10;stroke-dasharray:none;stroke-opacity:1"
         d="M 0,0 V 13.939" /></g><text
       id="text84"
       style="font-variant:normal;font-weight:normal;font-stretch:normal;font-size:9px;font-family:Times;-inkscape-font-specification:Times-Roman;writing-mode:lr-tb;fill:#231f20;fill-opacity:1;fill-rule:nonzero;stroke:none"
       transform="matrix(1,0,0,-1,9.7426,9.9512)"><tspan
         id="tspan80"
         y="0"
         x="0 5.0040002 7.506 10.503 13.005 17.504999">String</tspan><tspan
         id="tspan82"
         y="7.8506999"
         x="189.5571 192.0591 195.05611 198.8721 203.23711 207.23309 209.73511 214.23511 218.73511 221.23711 224.7381 227.2401 231.2361 235.7361 239.7321">travel_distance</tspan></text>
<path
       id="path86"
       style="fill:#ffffff;fill-opacity:1;fill-rule:nonzero;stroke:none"
       d="M 258.899,5.0919 H 361.58 v 13.939 H 258.899 Z" /><g
       transform="translate(265.869,19.031)"
       id="g88"><path
         id="path90"
         style="fill:none;stroke:#231f20;stroke-width:0.68000001;stroke-linecap:square;stroke-linejoin:miter;stroke-miterlimit:10;stroke-dasharray:none;stroke-opacity:1"
         d="m 0,0 h 88.741 c 3.847,0 6.97,-3.123 6.97,-6.971 0,-3.846 -3.123,-6.968 -6.97,-6.968 H 0 c -3.847,0 -6.97,3.122 -6.97,6.968 C -6.97,-3.123 -3.847,0 0,0 Z" /></g><text
       id="text94"
       style="font-variant:normal;font-weight:normal;font-stretch:normal;font-size:9px;font-family:Times;-inkscape-font-specification:Times-Roman;writing-mode:lr-tb;fill:#231f20;fill-opacity:1;fill-rule:nonzero;stroke:none"
       transform="matrix(1,0,0,-1,270.7783,9.7315)"><tspan
         id="tspan92"
         y="0"
         x="0 4.5 9 11.25 13.5 18 20.25 22.5 26.775 30.771 33.272999 37.772999 41.769001 46.269001 52.766998 55.269001 57.771 62.271 66.771004 71.271004 75.771004 78.273003">45, 8, value_with_unit</tspan></text>
<path
       id="path96"
       style="fill:#ffffff;fill-opacity:1;fill-rule:nonzero;stroke:none"
       d="m 21.87,48.663 h 78.88 v 267.56 H 21.87 Z" /><g
       transform="translate(21.87,316.223)"
       id="g98"><path
         id="path100"
         style="fill:none;stroke:#231f20;stroke-width:0.68000001;stroke-linecap:square;stroke-linejoin:miter;stroke-miterlimit:10;stroke-dasharray:none;stroke-opacity:1"
         d="M 78.88,0 H 0 v -267.56 h 78.88 z" /><g
         id="g102"><path
           id="path104"
           style="fill:none;stroke:#231f20;stroke-width:0.68000001;stroke-linecap:square;stroke-linejoin:miter;stroke-miterlimit:10;stroke-dasharray:none;stroke-opacity:1"
           d="M 0,0 Z" /></g></g><text
       id="text110"
       style="font-variant:normal;font-weight:normal;font-stretch:normal;font-size:9px;font-family:Times;-inkscape-font-specification:Times-Roman;writing-mode:lr-tb;fill:#231f20;fill-opacity:1;fill-rule:nonzero;stroke:none"
       transform="matrix(1,0,0,-1,43.4949,181.3575)"><tspan
         id="tspan106"
         y="0"
         x="0 7.0019999 10.998 14.994 19.493999 21.996 26.496 30.492001 34.992001">machine_</tspan><tspan
         id="tspan108"
         y="10.9998"
         x="-2.2455001 2.2544999 6.2505002 9.2475004 13.2435 20.245501 24.241501 26.7435 30.7395 33.7365">parameters</tspan></text>
<g
       transform="translate(64.734,319.682)"
       id="g112"><path
         id="path114"
         style="fill:#ffffff;fill-opacity:1;fill-rule:nonzero;stroke:none"
         d="m 0,0 c 0,1.877 -1.523,3.4 -3.4,3.4 -1.877,0 -3.4,-1.523 -3.4,-3.4 0,-1.877 1.523,-3.4 3.4,-3.4 1.877,0 3.4,1.523 3.4,3.4" /></g><g
       transform="translate(64.734,319.682)"
       id="g116"><path
         id="path118"
         style="fill:none;stroke:#231f20;stroke-width:0.68000001;stroke-linecap:square;stroke-linejoin:miter;stroke-miterlimit:10;stroke-dasharray:none;stroke-opacity:1"
         d="m 0,0 c 0,1.877 -1.523,3.4 -3.4,3.4 -1.877,0 -3.4,-1.523 -3.4,-3.4 0,-1.877 1.523,-3.4 3.4,-3.4 1.877,0 3.4,1.523 3.4,3.4" /></g><text
       id="text122"
       style="font-variant:normal;font-weight:normal;font-stretch:normal;font-size:9px;font-family:Times;-inkscape-font-specification:Times-Roman;writing-mode:lr-tb;fill:#231f20;fill-opacity:1;fill-rule:nonzero;stroke:none"
       transform="matrix(1,0,0,-1,58.3877,27.5313)"><tspan
         id="tspan120"
         y="0"
         x="0 3.9960001 8.4960003 10.998 14.499 18.999001 21.500999 24.497999 28.313999 32.679001 36.674999 39.176998 41.426998 46.431 49.428001 53.928001 56.43 60.425999">axis_travel S[0:?]</tspan></text>
<path
       id="path124"
       style="fill:#ffffff;fill-opacity:1;fill-rule:nonzero;stroke:none"
       d="m 190.51,302.283 h 102.681 v 13.94 H 190.51 Z" /><g
       transform="translate(197.48,316.223)"
       id="g126"><path
         id="path128"
         style="fill:none;stroke:#231f20;stroke-width:0.68000001;stroke-linecap:square;stroke-linejoin:miter;stroke-miterlimit:10;stroke-dasharray:none;stroke-opacity:1"
         d="m 0,0 h 88.74 c 3.847,0 6.97,-3.123 6.97,-6.97 0,-3.847 -3.123,-6.97 -6.97,-6.97 H 0 c -3.848,0 -6.971,3.123 -6.971,6.97 C -6.971,-3.123 -3.848,0 0,0 Z" /></g><text
       id="text132"
       style="font-variant:normal;font-weight:normal;font-stretch:normal;font-size:9px;font-family:Times;-inkscape-font-specification:Times-Roman;writing-mode:lr-tb;fill:#231f20;fill-opacity:1;fill-rule:nonzero;stroke:none"
       transform="matrix(1,0,0,-1,198.9863,307.1685)"><tspan
         id="tspan130"
         y="0"
         x="0 4.5 9 11.25 13.5 18 22.5 24.75 27 30.500999 35.000999 38.997002 42.993 47.493 51.993 58.994999 62.991001 66.987 70.487999 74.987999 77.985001">45, 34, speed_measure</tspan></text>
<path
       id="path134"
       style="fill:#ffffff;fill-opacity:1;fill-rule:nonzero;stroke:none"
       d="m 178.27,280.863 h 114.92 v 13.94 H 178.27 Z" /><g
       transform="translate(185.24,294.803)"
       id="g136"><path
         id="path138"
         style="fill:none;stroke:#231f20;stroke-width:0.68000001;stroke-linecap:square;stroke-linejoin:miter;stroke-miterlimit:10;stroke-dasharray:none;stroke-opacity:1"
         d="m 0,0 h 100.981 c 3.846,0 6.969,-3.122 6.969,-6.97 0,-3.847 -3.123,-6.97 -6.969,-6.97 H 0 c -3.848,0 -6.97,3.123 -6.97,6.97 C -6.97,-3.122 -3.848,0 0,0 Z" /></g><text
       id="text142"
       style="font-variant:normal;font-weight:normal;font-stretch:normal;font-size:9px;font-family:Times;-inkscape-font-specification:Times-Roman;writing-mode:lr-tb;fill:#231f20;fill-opacity:1;fill-rule:nonzero;stroke:none"
       transform="matrix(1,0,0,-1,185.8359,285.7482)"><tspan
         id="tspan140"
         y="0"
         x="0 4.5 9 11.25 13.5 18 22.5 24.75 27 29.997 34.497002 36.999001 41.499001 45 49.5 53.495998 57.492001 61.992001 66.491997 73.494003 77.489998 81.486 84.987 89.487 92.484001">45, 88, rot_speed_measure</tspan></text>
<path
       id="path144"
       style="fill:#ffffff;fill-opacity:1;fill-rule:nonzero;stroke:none"
       d="m 187.11,259.443 h 106.08 v 13.94 H 187.11 Z" /><g
       transform="translate(194.08,273.383)"
       id="g146"><path
         id="path148"
         style="fill:none;stroke:#231f20;stroke-width:0.68000001;stroke-linecap:square;stroke-linejoin:miter;stroke-miterlimit:10;stroke-dasharray:none;stroke-opacity:1"
         d="m 0,0 h 92.141 c 3.846,0 6.969,-3.123 6.969,-6.97 0,-3.847 -3.123,-6.97 -6.969,-6.97 H 0 c -3.848,0 -6.97,3.123 -6.97,6.97 C -6.97,-3.123 -3.848,0 0,0 Z" /></g><text
       id="text152"
       style="font-variant:normal;font-weight:normal;font-stretch:normal;font-size:9px;font-family:Times;-inkscape-font-specification:Times-Roman;writing-mode:lr-tb;fill:#231f20;fill-opacity:1;fill-rule:nonzero;stroke:none"
       transform="matrix(1,0,0,-1,198.4199,264.0836)"><tspan
         id="tspan150"
         y="0"
         x="0 4.5 9 11.25 13.5 18 22.5 24.75 27 31.275 35.271 37.772999 42.272999 46.269001 50.769001 57.266998 59.769001 62.271 66.771004 71.271004 75.771004 80.271004 82.773003">45, 19, value_with_unit</tspan></text>
<path
       id="path154"
       style="fill:#ffffff;fill-opacity:1;fill-rule:nonzero;stroke:none"
       d="m 242.19,220.024 h 51 v 13.939 h -51 z" /><g
       transform="translate(242.19,233.963)"
       id="g156"><path
         id="path158"
         style="fill:none;stroke:#231f20;stroke-width:0.68000001;stroke-linecap:square;stroke-linejoin:miter;stroke-miterlimit:10;stroke-dasharray:none;stroke-opacity:1"
         d="M 51,0 H 0 v -13.939 h 51 z" /><g
         id="g160"><path
           id="path162"
           style="fill:none;stroke:#231f20;stroke-width:0.68000001;stroke-linecap:square;stroke-linejoin:miter;stroke-miterlimit:10;stroke-dasharray:none;stroke-opacity:1"
           d="M 0,0 Z" /><g
           transform="translate(44.2,-13.939)"
           id="g164"><path
             id="path166"
             style="fill:none;stroke:#231f20;stroke-width:0.68000001;stroke-linecap:square;stroke-linejoin:miter;stroke-miterlimit:10;stroke-dasharray:none;stroke-opacity:1"
             d="M 0,0 V 13.939" /></g></g></g><text
       id="text170"
       style="font-variant:normal;font-weight:normal;font-stretch:normal;font-size:9px;font-family:Times;-inkscape-font-specification:Times-Roman;writing-mode:lr-tb;fill:#231f20;fill-opacity:1;fill-rule:nonzero;stroke:none"
       transform="matrix(1,0,0,-1,251.5898,224.9614)"><tspan
         id="tspan168"
         y="0"
         x="0 2.997 7.4970002 9.9989996 13.86 18.360001 22.356001">Integer</tspan></text>
<path
       id="path172"
       style="fill:#ffffff;fill-opacity:1;fill-rule:nonzero;stroke:none"
       d="m 242.19,198.604 h 51 v 13.94 h -51 z" /><g
       transform="translate(242.19,212.543)"
       id="g174"><path
         id="path176"
         style="fill:none;stroke:#231f20;stroke-width:0.68000001;stroke-linecap:square;stroke-linejoin:miter;stroke-miterlimit:10;stroke-dasharray:none;stroke-opacity:1"
         d="M 51,0 H 0 v -13.94 h 51 z" /><g
         id="g178"><path
           id="path180"
           style="fill:none;stroke:#231f20;stroke-width:0.68000001;stroke-linecap:square;stroke-linejoin:miter;stroke-miterlimit:10;stroke-dasharray:none;stroke-opacity:1"
           d="M 0,0 Z" /><g
           transform="translate(44.2,-13.94)"
           id="g182"><path
             id="path184"
             style="fill:none;stroke:#231f20;stroke-width:0.68000001;stroke-linecap:square;stroke-linejoin:miter;stroke-miterlimit:10;stroke-dasharray:none;stroke-opacity:1"
             d="M 0,0 V 13.94" /></g></g></g><text
       id="text188"
       style="font-variant:normal;font-weight:normal;font-stretch:normal;font-size:9px;font-family:Times;-inkscape-font-specification:Times-Roman;writing-mode:lr-tb;fill:#231f20;fill-opacity:1;fill-rule:nonzero;stroke:none"
       transform="matrix(1,0,0,-1,251.5898,203.5421)"><tspan
         id="tspan186"
         y="0"
         x="0 2.997 7.4970002 9.9989996 13.86 18.360001 22.356001">Integer</tspan></text>
<path
       id="path190"
       style="fill:#ffffff;fill-opacity:1;fill-rule:nonzero;stroke:none"
       d="m 188.471,177.184 h 104.72 v 13.94 h -104.72 z" /><g
       transform="translate(195.439,191.123)"
       id="g192"><path
         id="path194"
         style="fill:none;stroke:#231f20;stroke-width:0.68000001;stroke-linecap:square;stroke-linejoin:miter;stroke-miterlimit:10;stroke-dasharray:none;stroke-opacity:1"
         d="m 0,0 h 90.781 c 3.847,0 6.97,-3.122 6.97,-6.97 0,-3.847 -3.123,-6.97 -6.97,-6.97 H 0 c -3.847,0 -6.969,3.123 -6.969,6.97 C -6.969,-3.122 -3.847,0 0,0 Z" /></g><text
       id="text198"
       style="font-variant:normal;font-weight:normal;font-stretch:normal;font-size:9px;font-family:Times;-inkscape-font-specification:Times-Roman;writing-mode:lr-tb;fill:#231f20;fill-opacity:1;fill-rule:nonzero;stroke:none"
       transform="matrix(1,0,0,-1,197.9658,182.1212)"><tspan
         id="tspan196"
         y="0"
         x="0 4.5 9 11.25 13.5 18 22.5 24.75 27 29.502001 33.498001 37.998001 42.498001 45 49.5 54 61.001999 64.998001 68.994003 72.495003 76.995003 79.991997">45, 47, length_measure</tspan></text>
<path
       id="path200"
       style="fill:#ffffff;fill-opacity:1;fill-rule:nonzero;stroke:none"
       d="m 238.109,155.763 h 55.081 v 13.94 h -55.081 z" /><g
       transform="translate(238.109,169.703)"
       id="g202"><path
         id="path204"
         style="fill:none;stroke:#231f20;stroke-width:0.68000001;stroke-linecap:square;stroke-linejoin:miter;stroke-miterlimit:10;stroke-dasharray:none;stroke-opacity:1"
         d="M 55.081,0 H 0 v -13.94 h 55.081 z" /><g
         id="g206"><path
           id="path208"
           style="fill:none;stroke:#231f20;stroke-width:0.68000001;stroke-linecap:square;stroke-linejoin:miter;stroke-miterlimit:10;stroke-dasharray:none;stroke-opacity:1"
           d="M 0,0 Z" /><g
           transform="translate(48.281,-13.94)"
           id="g210"><path
             id="path212"
             style="fill:none;stroke:#231f20;stroke-width:0.68000001;stroke-linecap:square;stroke-linejoin:miter;stroke-miterlimit:10;stroke-dasharray:none;stroke-opacity:1"
             d="M 0,0 V 13.94" /></g></g></g><text
       id="text216"
       style="font-variant:normal;font-weight:normal;font-stretch:normal;font-size:9px;font-family:Times;-inkscape-font-specification:Times-Roman;writing-mode:lr-tb;fill:#231f20;fill-opacity:1;fill-rule:nonzero;stroke:none"
       transform="matrix(1,0,0,-1,247.2802,159.8643)"><tspan
         id="tspan214"
         y="0"
         x="0 6.0029998 10.503 15.003 17.504999 21.500999 25.497">Boolean</tspan></text>
<path
       id="path218"
       style="fill:#ffffff;fill-opacity:1;fill-rule:nonzero;stroke:none"
       d="m 188.471,134.343 h 104.72 v 13.94 h -104.72 z" /><g
       transform="translate(195.439,148.283)"
       id="g220"><path
         id="path222"
         style="fill:none;stroke:#231f20;stroke-width:0.68000001;stroke-linecap:square;stroke-linejoin:miter;stroke-miterlimit:10;stroke-dasharray:none;stroke-opacity:1"
         d="m 0,0 h 90.781 c 3.847,0 6.97,-3.123 6.97,-6.97 0,-3.847 -3.123,-6.97 -6.97,-6.97 H 0 c -3.847,0 -6.969,3.123 -6.969,6.97 C -6.969,-3.123 -3.847,0 0,0 Z" /></g><text
       id="text226"
       style="font-variant:normal;font-weight:normal;font-stretch:normal;font-size:9px;font-family:Times;-inkscape-font-specification:Times-Roman;writing-mode:lr-tb;fill:#231f20;fill-opacity:1;fill-rule:nonzero;stroke:none"
       transform="matrix(1,0,0,-1,197.9658,139.2813)"><tspan
         id="tspan224"
         y="0"
         x="0 4.5 9 11.25 13.5 18 22.5 24.75 27 29.502001 33.498001 37.998001 42.498001 45 49.5 54 61.001999 64.998001 68.994003 72.495003 76.995003 79.991997">45, 47, length_measure</tspan></text>
<path
       id="path228"
       style="fill:#ffffff;fill-opacity:1;fill-rule:nonzero;stroke:none"
       d="m 188.471,112.923 h 104.72 v 13.94 h -104.72 z" /><g
       transform="translate(195.439,126.863)"
       id="g230"><path
         id="path232"
         style="fill:none;stroke:#231f20;stroke-width:0.68000001;stroke-linecap:square;stroke-linejoin:miter;stroke-miterlimit:10;stroke-dasharray:none;stroke-opacity:1"
         d="m 0,0 h 90.781 c 3.847,0 6.97,-3.123 6.97,-6.971 0,-3.846 -3.123,-6.969 -6.97,-6.969 L 0,-13.94 c -3.847,0 -6.969,3.123 -6.969,6.969 C -6.969,-3.123 -3.847,0 0,0 Z" /></g><text
       id="text236"
       style="font-variant:normal;font-weight:normal;font-stretch:normal;font-size:9px;font-family:Times;-inkscape-font-specification:Times-Roman;writing-mode:lr-tb;fill:#231f20;fill-opacity:1;fill-rule:nonzero;stroke:none"
       transform="matrix(1,0,0,-1,197.9658,117.8614)"><tspan
         id="tspan234"
         y="0"
         x="0 4.5 9 11.25 13.5 18 22.5 24.75 27 29.502001 33.498001 37.998001 42.498001 45 49.5 54 61.001999 64.998001 68.994003 72.495003 76.995003 79.991997">45, 47, length_measure</tspan></text>
<path
       id="path238"
       style="fill:#ffffff;fill-opacity:1;fill-rule:nonzero;stroke:none"
       d="m 188.471,91.504 h 104.72 v 13.94 h -104.72 z" /><g
       transform="translate(195.439,105.443)"
       id="g240"><path
         id="path242"
         style="fill:none;stroke:#231f20;stroke-width:0.68000001;stroke-linecap:square;stroke-linejoin:miter;stroke-miterlimit:10;stroke-dasharray:none;stroke-opacity:1"
         d="m 0,0 h 90.781 c 3.847,0 6.97,-3.123 6.97,-6.971 0,-3.847 -3.123,-6.969 -6.97,-6.969 L 0,-13.94 c -3.847,0 -6.969,3.122 -6.969,6.969 C -6.969,-3.123 -3.847,0 0,0 Z" /></g><text
       id="text246"
       style="font-variant:normal;font-weight:normal;font-stretch:normal;font-size:9px;font-family:Times;-inkscape-font-specification:Times-Roman;writing-mode:lr-tb;fill:#231f20;fill-opacity:1;fill-rule:nonzero;stroke:none"
       transform="matrix(1,0,0,-1,197.9658,96.4414)"><tspan
         id="tspan244"
         y="0"
         x="0 4.5 9 11.25 13.5 18 22.5 24.75 27 29.502001 33.498001 37.998001 42.498001 45 49.5 54 61.001999 64.998001 68.994003 72.495003 76.995003 79.991997">45, 47, length_measure</tspan></text>
<path
       id="path248"
       style="fill:#ffffff;fill-opacity:1;fill-rule:nonzero;stroke:none"
       d="m 188.471,70.083 h 104.72 v 13.94 h -104.72 z" /><g
       transform="translate(195.439,84.023)"
       id="g250"><path
         id="path252"
         style="fill:none;stroke:#231f20;stroke-width:0.68000001;stroke-linecap:square;stroke-linejoin:miter;stroke-miterlimit:10;stroke-dasharray:none;stroke-opacity:1"
         d="m 0,0 h 90.781 c 3.847,0 6.97,-3.121 6.97,-6.969 0,-3.847 -3.123,-6.971 -6.97,-6.971 L 0,-13.94 c -3.847,0 -6.969,3.124 -6.969,6.971 C -6.969,-3.121 -3.847,0 0,0 Z" /></g><text
       id="text256"
       style="font-variant:normal;font-weight:normal;font-stretch:normal;font-size:9px;font-family:Times;-inkscape-font-specification:Times-Roman;writing-mode:lr-tb;fill:#231f20;fill-opacity:1;fill-rule:nonzero;stroke:none"
       transform="matrix(1,0,0,-1,197.9658,75.0215)"><tspan
         id="tspan254"
         y="0"
         x="0 4.5 9 11.25 13.5 18 22.5 24.75 27 29.502001 33.498001 37.998001 42.498001 45 49.5 54 61.001999 64.998001 68.994003 72.495003 76.995003 79.991997">45, 47, length_measure</tspan></text>
<path
       id="path258"
       style="fill:#ffffff;fill-opacity:1;fill-rule:nonzero;stroke:none"
       d="m 188.471,48.663 h 104.72 v 13.94 h -104.72 z" /><g
       transform="translate(195.439,62.604)"
       id="g260"><path
         id="path262"
         style="fill:none;stroke:#231f20;stroke-width:0.68000001;stroke-linecap:square;stroke-linejoin:miter;stroke-miterlimit:10;stroke-dasharray:none;stroke-opacity:1"
         d="m 0,0 h 90.781 c 3.847,0 6.97,-3.123 6.97,-6.97 0,-3.847 -3.123,-6.97 -6.97,-6.97 H 0 c -3.847,0 -6.969,3.123 -6.969,6.97 C -6.969,-3.123 -3.847,0 0,0 Z" /></g><text
       id="text272"
       style="font-variant:normal;font-weight:normal;font-stretch:normal;font-size:9px;font-family:Times;-inkscape-font-specification:Times-Roman;writing-mode:lr-tb;fill:#231f20;fill-opacity:1;fill-rule:nonzero;stroke:none"
       transform="matrix(1,0,0,-1,197.9658,53.6017)"><tspan
         id="tspan264"
         y="0"
         x="0 4.5 9 11.25 13.5 18 22.5 24.75 27 29.502001 33.498001 37.998001 42.498001 45 49.5 54 61.001999 64.998001 68.994003 72.495003 76.995003 79.991997">45, 47, length_measure</tspan><tspan
         id="tspan266"
         y="-245.5524"
         x="-90.415802 -87.4188 -83.422798 -79.426804 -74.926804 -71.929802 -67.9338 -65.431801">feedrate</tspan><tspan
         id="tspan268"
         y="-224.271"
         x="-90.415802 -86.914803 -82.414803 -79.912804 -75.412804 -70.912804 -68.410797 -64.414803 -59.914799 -56.413799 -51.913799 -47.917801 -43.921799">spindle_speed</tspan><tspan
         id="tspan270"
         y="-202.851"
         x="-90.415802 -86.914803 -82.414803 -79.912804 -75.412804 -70.912804 -68.410797 -64.414803 -59.914799 -55.414799 -51.139801 -44.6418 -40.645802">spindle_power</tspan></text>
<g
       transform="translate(242.214,227.018)"
       id="g274"><path
         id="path276"
         style="fill:#ffffff;fill-opacity:1;fill-rule:nonzero;stroke:none"
         d="m 0,0 c 0,1.877 -1.523,3.4 -3.4,3.4 -1.877,0 -3.4,-1.523 -3.4,-3.4 0,-1.877 1.523,-3.4 3.4,-3.4 1.877,0 3.4,1.523 3.4,3.4" /></g><g
       transform="translate(242.214,227.018)"
       id="g278"><path
         id="path280"
         style="fill:none;stroke:#231f20;stroke-width:0.68000001;stroke-linecap:square;stroke-linejoin:miter;stroke-miterlimit:10;stroke-dasharray:none;stroke-opacity:1"
         d="m 0,0 c 0,1.877 -1.523,3.4 -3.4,3.4 -1.877,0 -3.4,-1.523 -3.4,-3.4 0,-1.877 1.523,-3.4 3.4,-3.4 1.877,0 3.4,1.523 3.4,3.4" /></g><text
       id="text284"
       style="font-variant:normal;font-weight:normal;font-stretch:normal;font-size:9px;font-family:Times;-inkscape-font-specification:Times-Roman;writing-mode:lr-tb;fill:#231f20;fill-opacity:1;fill-rule:nonzero;stroke:none"
       transform="matrix(1,0,0,-1,107.5503,216.8942)"><tspan
         id="tspan282"
         y="0"
         x="0 4.5 9 16.002001 20.502001 24.497999 27.495001 31.995001 36.494999 39.492001 43.992001 47.987999 52.487999 56.987999 59.490002 62.487 66.987 69.488998 73.988998 77.985001 82.485001 84.987">number_of_control_axis</tspan></text>
<g
       transform="translate(242.214,205.598)"
       id="g286"><path
         id="path288"
         style="fill:#ffffff;fill-opacity:1;fill-rule:nonzero;stroke:none"
         d="m 0,0 c 0,1.877 -1.523,3.4 -3.4,3.4 -1.877,0 -3.4,-1.523 -3.4,-3.4 0,-1.877 1.523,-3.4 3.4,-3.4 1.877,0 3.4,1.523 3.4,3.4" /></g><g
       transform="translate(242.214,205.598)"
       id="g290"><path
         id="path292"
         style="fill:none;stroke:#231f20;stroke-width:0.68000001;stroke-linecap:square;stroke-linejoin:miter;stroke-miterlimit:10;stroke-dasharray:none;stroke-opacity:1"
         d="m 0,0 c 0,1.877 -1.523,3.4 -3.4,3.4 -1.877,0 -3.4,-1.523 -3.4,-3.4 0,-1.877 1.523,-3.4 3.4,-3.4 1.877,0 3.4,1.523 3.4,3.4" /></g><text
       id="text298"
       style="font-variant:normal;font-weight:normal;font-stretch:normal;font-size:9px;font-family:Times;-inkscape-font-specification:Times-Roman;writing-mode:lr-tb;fill:#231f20;fill-opacity:1;fill-rule:nonzero;stroke:none"
       transform="matrix(1,0,0,-1,107.5503,195.4736)"><tspan
         id="tspan294"
         y="0"
         x="0 4.5 9 16.002001 20.502001 24.497999 27.495001 31.995001 36.494999 39.492001 43.992001 47.493 49.994999 56.997002 61.497002 63.999001 66.500999 70.497002 74.997002 78.992996 83.492996 87.992996 91.494003 95.994003 99.989998 104.49 106.992">number_of_simultaneous_axis</tspan><tspan
         id="tspan296"
         y="21.2805"
         x="0 4.5 9 12.501 15.003 17.504999 20.007 24.507 29.007 31.509001 36.008999 40.508999 45.008999 49.005001 53.000999 56.997002 61.497002 64.494003 68.489998 72.350998">positioning_accuracy</tspan></text>
<g
       transform="translate(238.134,162.758)"
       id="g300"><path
         id="path302"
         style="fill:#ffffff;fill-opacity:1;fill-rule:nonzero;stroke:none"
         d="m 0,0 c 0,1.876 -1.524,3.399 -3.4,3.399 -1.876,0 -3.4,-1.523 -3.4,-3.399 0,-1.877 1.524,-3.4 3.4,-3.4 1.876,0 3.4,1.523 3.4,3.4" /></g><g
       transform="translate(238.134,162.758)"
       id="g304"><path
         id="path306"
         style="fill:none;stroke:#231f20;stroke-width:0.68000001;stroke-linecap:square;stroke-linejoin:miter;stroke-miterlimit:10;stroke-dasharray:none;stroke-opacity:1"
         d="m 0,0 c 0,1.876 -1.524,3.399 -3.4,3.399 -1.876,0 -3.4,-1.523 -3.4,-3.399 0,-1.877 1.524,-3.4 3.4,-3.4 1.876,0 3.4,1.523 3.4,3.4" /></g><text
       id="text320"
       style="font-variant:normal;font-weight:normal;font-stretch:normal;font-size:9px;font-family:Times;-inkscape-font-specification:Times-Roman;writing-mode:lr-tb;fill:#231f20;fill-opacity:1;fill-rule:nonzero;stroke:none"
       transform="matrix(1,0,0,-1,107.5503,152.7736)"><tspan
         id="tspan308"
         y="0"
         x="0 2.5020001 6.4980001 10.998 13.5 17.496 21.996 24.497999 28.997999 33.498001 37.359001 41.859001 44.361 48.861">table_indexing</tspan><tspan
         id="tspan310"
         y="21.42"
         x="0 2.5020001 6.4980001 10.998 13.5 17.496 21.996 24.497999 28.493999 32.993999 37.493999 39.995998">table_length</tspan><tspan
         id="tspan312"
         y="42.84"
         x="0 2.5020001 6.4980001 10.998 13.5 17.496 21.996 28.493999 30.996 35.495998 37.998001">table_width</tspan><tspan
         id="tspan314"
         y="64.260002"
         x="0 6.408 10.908 13.905 18.405001 22.905001 27.225 31.725 34.227001 38.727001 45.729 49.724998 54.224998 56.727001 60.723 65.223 69.723 72.224998">work_volume_length</tspan><tspan
         id="tspan316"
         y="85.6791"
         x="0 6.408 10.908 13.905 18.405001 22.905001 27.225 31.725 34.227001 38.727001 45.729 49.724998 54.224998 60.723 63.224998 67.724998 70.226997">work_volume_width</tspan><tspan
         id="tspan318"
         y="107.1"
         x="0 6.408 10.908 13.905 18.405001 22.905001 27.225 31.725 34.227001 38.727001 45.729 49.724998 54.224998 58.724998 62.721001 65.223 69.723 74.223">work_volume_height</tspan></text>
<g
       transform="translate(156.432,22.405)"
       id="g322"><path
         id="path324"
         style="fill:#ffffff;fill-opacity:1;fill-rule:nonzero;stroke:none"
         d="m 0,0 c 0,1.877 -1.523,3.4 -3.4,3.4 -1.877,0 -3.4,-1.523 -3.4,-3.4 0,-1.877 1.523,-3.4 3.4,-3.4 1.877,0 3.4,1.523 3.4,3.4" /></g><g
       transform="translate(156.432,22.405)"
       id="g326"><path
         id="path328"
         style="fill:none;stroke:#231f20;stroke-width:0.68000001;stroke-linecap:square;stroke-linejoin:miter;stroke-miterlimit:10;stroke-dasharray:none;stroke-opacity:1"
         d="m 0,0 c 0,1.877 -1.523,3.4 -3.4,3.4 -1.877,0 -3.4,-1.523 -3.4,-3.4 0,-1.877 1.523,-3.4 3.4,-3.4 1.877,0 3.4,1.523 3.4,3.4" /></g><path
       id="path330"
       style="fill:none;stroke:#231f20;stroke-width:0.68000001;stroke-linecap:square;stroke-linejoin:miter;stroke-miterlimit:10;stroke-dasharray:3.4, 3.4;stroke-dashoffset:0;stroke-opacity:1"
       d="m 101.145,246.544 h 86.36" /><path
       id="path332"
       style="fill:#ffffff;fill-opacity:1;fill-rule:nonzero;stroke:none"
       d="m 187.505,239.573 h 106.08 v 13.94 h -106.08 z" /><g
       transform="translate(194.475,253.514)"
       id="g334"><path
         id="path336"
         style="fill:none;stroke:#231f20;stroke-width:0.68000001;stroke-linecap:square;stroke-linejoin:miter;stroke-miterlimit:10;stroke-dasharray:none;stroke-opacity:1"
         d="m 0,0 h 92.141 c 3.846,0 6.969,-3.122 6.969,-6.97 0,-3.847 -3.123,-6.97 -6.969,-6.97 H 0 c -3.848,0 -6.97,3.123 -6.97,6.97 C -6.97,-3.122 -3.848,0 0,0 Z" /></g><text
       id="text342"
       style="font-variant:normal;font-weight:normal;font-stretch:normal;font-size:9px;font-family:Times;-inkscape-font-specification:Times-Roman;writing-mode:lr-tb;fill:#231f20;fill-opacity:1;fill-rule:nonzero;stroke:none"
       transform="matrix(1,0,0,-1,198.8149,244.2139)"><tspan
         id="tspan338"
         y="0"
         x="0 4.5 9 11.25 13.5 18 22.5 24.75 27 31.275 35.271 37.772999 42.272999 46.269001 50.769001 57.266998 59.769001 62.271 66.771004 71.271004 75.771004 80.271004 82.773003">45, 19, value_with_unit</tspan><tspan
         id="tspan340"
         y="7.6301999"
         x="-90.8694 -87.368401 -82.868401 -80.366402 -75.866402 -71.366402 -68.864403 -64.868401 -60.368401 -57.866402 -53.366402 -50.3694 -45.8694 -41.3694">spindle_torque</tspan></text>
</g></svg>