<?xml version="1.0" encoding="UTF-8" standalone="no"?>
<svg
   xmlns:dc="http://purl.org/dc/elements/1.1/"
   xmlns:cc="http://creativecommons.org/ns#"
   xmlns:rdf="http://www.w3.org/1999/02/22-rdf-syntax-ns#"
   xmlns:svg="http://www.w3.org/2000/svg"
   xmlns="http://www.w3.org/2000/svg"
   viewBox="0 0 511.20801 499.79468"
   height="499.79468"
   width="511.20801"
   xml:space="preserve"
   id="svg2"
   version="1.1"><metadata
     id="metadata8"><rdf:RDF><cc:Work
         rdf:about=""><dc:format>image/svg+xml</dc:format><dc:type
           rdf:resource="http://purl.org/dc/dcmitype/StillImage" /></cc:Work></rdf:RDF></metadata><defs
     id="defs6" /><g
     transform="matrix(1.3333333,0,0,-1.3333333,0,499.79467)"
     id="g10"><path
       id="path12"
       style="fill:none;stroke:#231f20;stroke-width:0.68000001;stroke-linecap:square;stroke-linejoin:miter;stroke-miterlimit:10;stroke-dasharray:3.4, 3.4;stroke-dashoffset:0;stroke-opacity:1"
       d="m 195.386,148.39 h -47.6 m 47.6,-21.419 h -47.6 m 47.6,-21.421 h -47.6" /><g
       transform="translate(149.61,334.951)"
       id="g14"><path
         id="path16"
         style="fill:none;stroke:#231f20;stroke-width:0.68000001;stroke-linecap:square;stroke-linejoin:miter;stroke-miterlimit:10;stroke-dasharray:none;stroke-opacity:1"
         d="M 0,0 H -72.59" /><g
         transform="translate(60.54,-300.588)"
         id="g18"><path
           id="path20"
           style="fill:none;stroke:#231f20;stroke-width:0.68000001;stroke-linecap:square;stroke-linejoin:miter;stroke-miterlimit:10;stroke-dasharray:none;stroke-opacity:1"
           d="M 0,0 H -82.28" /><g
           transform="translate(-20.399,-22.44)"
           id="g22"><path
             id="path24"
             style="fill:none;stroke:#231f20;stroke-width:0.68000001;stroke-linecap:square;stroke-linejoin:miter;stroke-miterlimit:10;stroke-dasharray:none;stroke-opacity:1"
             d="M 0,0 H -61.88" /></g></g></g><path
       id="path26"
       style="fill:none;stroke:#231f20;stroke-width:0.68000001;stroke-linecap:square;stroke-linejoin:miter;stroke-miterlimit:10;stroke-dasharray:3.4, 3.4;stroke-dashoffset:0;stroke-opacity:1"
       d="M 84.794,91.78 V 63.773" /><g
       transform="translate(19.769,319.269)"
       id="g28"><path
         id="path30"
         style="fill:none;stroke:#231f20;stroke-width:2.03999996;stroke-linecap:square;stroke-linejoin:miter;stroke-miterlimit:10;stroke-dasharray:none;stroke-opacity:1"
         d="M 0,0 V 7.012" /></g><path
       id="path32"
       style="fill:none;stroke:#231f20;stroke-width:0.68000001;stroke-linecap:square;stroke-linejoin:miter;stroke-miterlimit:10;stroke-dasharray:3.4, 3.4;stroke-dashoffset:0;stroke-opacity:1"
       d="m 135.794,172.848 h 26.059 M 83.519,193.682 V 162.16 m 52.275,0 v 10.688" /><g
       transform="translate(29.855,348.72)"
       id="g34"><path
         id="path36"
         style="fill:none;stroke:#231f20;stroke-width:2.03999996;stroke-linecap:square;stroke-linejoin:miter;stroke-miterlimit:10;stroke-dasharray:none;stroke-opacity:1"
         d="M 0,0 -0.294,8.785" /><g
         transform="translate(10.775,-63.783)"
         id="g38"><path
           id="path40"
           style="fill:none;stroke:#231f20;stroke-width:2.03999996;stroke-linecap:square;stroke-linejoin:miter;stroke-miterlimit:10;stroke-dasharray:none;stroke-opacity:1"
           d="M 0,0 H -20.032" /><g
           transform="translate(-0.935,19.762)"
           id="g42"><path
             id="path44"
             style="fill:none;stroke:#231f20;stroke-width:2.03999996;stroke-linecap:square;stroke-linejoin:miter;stroke-miterlimit:10;stroke-dasharray:none;stroke-opacity:1"
             d="M 0,0 H -19.097" /><g
             transform="translate(-19.926,14.57)"
             id="g46"><path
               id="path48"
               style="fill:none;stroke:#231f20;stroke-width:2.03999996;stroke-linecap:square;stroke-linejoin:miter;stroke-miterlimit:10;stroke-dasharray:none;stroke-opacity:1"
               d="M 0,0 H 0.829" /></g></g></g></g><g
       transform="translate(223.115,264.912)"
       id="g50"><path
         id="path52"
         style="fill:none;stroke:#231f20;stroke-width:0.68000001;stroke-linecap:square;stroke-linejoin:miter;stroke-miterlimit:10;stroke-dasharray:none;stroke-opacity:1"
         d="M 0,0 H -85.001" /><g
         transform="translate(-85.001,-21.42)"
         id="g54"><path
           id="path56"
           style="fill:none;stroke:#231f20;stroke-width:0.68000001;stroke-linecap:square;stroke-linejoin:miter;stroke-miterlimit:10;stroke-dasharray:none;stroke-opacity:1"
           d="M 0,0 H 97.919" /></g></g><path
       id="path58"
       style="fill:none;stroke:#231f20;stroke-width:0.68000001;stroke-linecap:square;stroke-linejoin:miter;stroke-miterlimit:10;stroke-dasharray:3.4, 3.4;stroke-dashoffset:0;stroke-opacity:1"
       d="m 180.615,222.071 h -42.5 m 85,0 h -42.5 m 0,0 v 0 m -42.5,-21.42 h 124.441" /><g
       transform="translate(37.229,55.273)"
       id="g60"><path
         id="path62"
         style="fill:none;stroke:#231f20;stroke-width:2.03999996;stroke-linecap:square;stroke-linejoin:miter;stroke-miterlimit:10;stroke-dasharray:none;stroke-opacity:1"
         d="M 0,0 H -29.573 V 271.007" /><g
         transform="translate(-16.631,256.982)"
         id="g64"><path
           id="path66"
           style="fill:none;stroke:#231f20;stroke-width:2.03999996;stroke-linecap:square;stroke-linejoin:miter;stroke-miterlimit:10;stroke-dasharray:none;stroke-opacity:1"
           d="M 0,0 V -48.555" /><g
           transform="translate(0,7.013)"
           id="g68"><path
             id="path70"
             style="fill:none;stroke:#231f20;stroke-width:2.03999996;stroke-linecap:square;stroke-linejoin:miter;stroke-miterlimit:10;stroke-dasharray:none;stroke-opacity:1"
             d="M 0,0 V -7.013" /><g
             transform="translate(0,-34.332)"
             id="g72"><path
               id="path74"
               style="fill:none;stroke:#231f20;stroke-width:2.03999996;stroke-linecap:square;stroke-linejoin:miter;stroke-miterlimit:10;stroke-dasharray:none;stroke-opacity:1"
               d="M 0,0 V 27.319" /><g
               transform="translate(0,19.762)"
               id="g76"><path
                 id="path78"
                 style="fill:none;stroke:#231f20;stroke-width:2.03999996;stroke-linecap:square;stroke-linejoin:miter;stroke-miterlimit:10;stroke-dasharray:none;stroke-opacity:1"
                 d="M 0,0 V 7.557" /><g
                 transform="translate(0,-40.998)"
                 id="g80"><path
                   id="path82"
                   style="fill:none;stroke:#231f20;stroke-width:2.03999996;stroke-linecap:square;stroke-linejoin:miter;stroke-miterlimit:10;stroke-dasharray:none;stroke-opacity:1"
                   d="M 0,0 H 13.317" /></g></g></g></g></g></g><path
       id="path84"
       style="fill:#ffffff;fill-opacity:1;fill-rule:nonzero;stroke:none"
       d="m 40.63,277.066 h 104.039 v 13.939 H 40.63 Z" /><g
       transform="translate(47.6,291.006)"
       id="g86"><path
         id="path88"
         style="fill:none;stroke:#231f20;stroke-width:0.68000001;stroke-linecap:square;stroke-linejoin:miter;stroke-miterlimit:10;stroke-dasharray:none;stroke-opacity:1"
         d="m 0,0 h 90.1 c 3.847,0 6.969,-3.122 6.969,-6.969 0,-3.848 -3.122,-6.97 -6.969,-6.97 H 0 c -3.848,0 -6.97,3.122 -6.97,6.97 C -6.97,-3.122 -3.848,0 0,0 Z" /></g><text
       id="text92"
       style="font-variant:normal;font-weight:normal;font-stretch:normal;font-size:9px;font-family:Times;-inkscape-font-specification:Times-Roman;writing-mode:lr-tb;fill:#231f20;fill-opacity:1;fill-rule:nonzero;stroke:none"
       transform="matrix(1,0,0,-1,53.1919,281.9511)"><tspan
         id="tspan90"
         y="0"
         x="0 4.5 6.75 9 13.5 15.75 18 20.997 24.993 29.493 31.995001 36.494999 40.994999 47.997002 52.362 56.727001 60.723 67.724998 71.721001 76.221001 78.723">5, 2, rapid_movement</tspan></text>
<path
       id="path94"
       style="fill:#ffffff;fill-opacity:1;fill-rule:nonzero;stroke:none"
       d="m 39.695,296.191 h 118.32 V 310.13 H 39.695 Z" /><g
       transform="translate(46.665,310.131)"
       id="g96"><path
         id="path98"
         style="fill:none;stroke:#231f20;stroke-width:0.68000001;stroke-linecap:square;stroke-linejoin:miter;stroke-miterlimit:10;stroke-dasharray:none;stroke-opacity:1"
         d="m 0,0 h 104.379 c 3.848,0 6.971,-3.122 6.971,-6.969 0,-3.848 -3.123,-6.97 -6.971,-6.97 H 0 c -3.848,0 -6.97,3.122 -6.97,6.97 C -6.97,-3.122 -3.848,0 0,0 Z" /></g><text
       id="text102"
       style="font-variant:normal;font-weight:normal;font-stretch:normal;font-size:9px;font-family:Times;-inkscape-font-specification:Times-Roman;writing-mode:lr-tb;fill:#231f20;fill-opacity:1;fill-rule:nonzero;stroke:none"
       transform="matrix(1,0,0,-1,53.0449,301.0512)"><tspan
         id="tspan100"
         y="0"
         x="0 4.5 6.75 9 13.5 15.75 18 20.997 27.495001 33.498001 38.501999 41.499001 44.000999 48.500999 53.000999 56.997002 61.497002 65.997002 70.497002 73.494003 77.994003 82.494003 84.996002 89.496002 93.996002">4, 3, (ABS)touch_probing</tspan></text>
<path
       id="path104"
       style="fill:#ffffff;fill-opacity:1;fill-rule:nonzero;stroke:none"
       d="m 195.386,141.42 h 187.681 v 13.94 H 195.386 Z" /><g
       transform="translate(202.355,155.36)"
       id="g106"><path
         id="path108"
         style="fill:none;stroke:#231f20;stroke-width:0.68000001;stroke-linecap:square;stroke-linejoin:miter;stroke-miterlimit:10;stroke-dasharray:none;stroke-opacity:1"
         d="m 0,0 h 173.739 c 3.849,0 6.972,-3.123 6.972,-6.97 0,-3.847 -3.123,-6.97 -6.972,-6.97 H 0 c -3.847,0 -6.97,3.123 -6.97,6.97 C -6.97,-3.123 -3.847,0 0,0 Z" /></g><text
       id="text112"
       style="font-variant:normal;font-weight:normal;font-stretch:normal;font-size:9px;font-family:Times;-inkscape-font-specification:Times-Roman;writing-mode:lr-tb;fill:#231f20;fill-opacity:1;fill-rule:nonzero;stroke:none"
       transform="matrix(1,0,0,-1,236.1533,146.3051)"><tspan
         id="tspan110"
         y="0"
         x="0 4.5 9 11.25 13.5 18 22.5 24.75 27 30.500999 35.000999 38.997002 43.497002 47.493 51.993 54.990002 58.986 63.486 66.483002 70.478996 73.980003 77.975998 82.475998 84.977997 88.973999 91.475998 93.977997 98.477997 102.978">48, 49, shape_representation</tspan></text>
<path
       id="path114"
       style="fill:#ffffff;fill-opacity:1;fill-rule:nonzero;stroke:none"
       d="m 195.386,119.999 h 187.681 v 13.94 H 195.386 Z" /><g
       transform="translate(202.355,133.939)"
       id="g116"><path
         id="path118"
         style="fill:none;stroke:#231f20;stroke-width:0.68000001;stroke-linecap:square;stroke-linejoin:miter;stroke-miterlimit:10;stroke-dasharray:none;stroke-opacity:1"
         d="m 0,0 h 173.739 c 3.849,0 6.972,-3.122 6.972,-6.969 0,-3.848 -3.123,-6.971 -6.972,-6.971 L 0,-13.94 c -3.847,0 -6.97,3.123 -6.97,6.971 C -6.97,-3.122 -3.847,0 0,0 Z" /></g><text
       id="text122"
       style="font-variant:normal;font-weight:normal;font-stretch:normal;font-size:9px;font-family:Times;-inkscape-font-specification:Times-Roman;writing-mode:lr-tb;fill:#231f20;fill-opacity:1;fill-rule:nonzero;stroke:none"
       transform="matrix(1,0,0,-1,236.1533,124.8857)"><tspan
         id="tspan120"
         y="0"
         x="0 4.5 9 11.25 13.5 18 22.5 24.75 27 30.500999 35.000999 38.997002 43.497002 47.493 51.993 54.990002 58.986 63.486 66.483002 70.478996 73.980003 77.975998 82.475998 84.977997 88.973999 91.475998 93.977997 98.477997 102.978">48, 49, shape_representation</tspan></text>
<path
       id="path124"
       style="fill:#ffffff;fill-opacity:1;fill-rule:nonzero;stroke:none"
       d="m 195.386,98.58 h 187.681 v 13.94 H 195.386 Z" /><g
       transform="translate(202.355,112.521)"
       id="g126"><path
         id="path128"
         style="fill:none;stroke:#231f20;stroke-width:0.68000001;stroke-linecap:square;stroke-linejoin:miter;stroke-miterlimit:10;stroke-dasharray:none;stroke-opacity:1"
         d="m 0,0 h 173.739 c 3.849,0 6.972,-3.123 6.972,-6.971 0,-3.846 -3.123,-6.969 -6.972,-6.969 L 0,-13.94 c -3.847,0 -6.97,3.123 -6.97,6.969 C -6.97,-3.123 -3.847,0 0,0 Z" /></g><text
       id="text132"
       style="font-variant:normal;font-weight:normal;font-stretch:normal;font-size:9px;font-family:Times;-inkscape-font-specification:Times-Roman;writing-mode:lr-tb;fill:#231f20;fill-opacity:1;fill-rule:nonzero;stroke:none"
       transform="matrix(1,0,0,-1,236.1533,103.4658)"><tspan
         id="tspan130"
         y="0"
         x="0 4.5 9 11.25 13.5 18 22.5 24.75 27 30.500999 35.000999 38.997002 43.497002 47.493 51.993 54.990002 58.986 63.486 66.483002 70.478996 73.980003 77.975998 82.475998 84.977997 88.973999 91.475998 93.977997 98.477997 102.978">48, 49, shape_representation</tspan></text>
<path
       id="path134"
       style="fill:#ffffff;fill-opacity:1;fill-rule:nonzero;stroke:none"
       d="m 149.61,327.981 h 121.04 v 13.94 H 149.61 Z" /><g
       transform="translate(156.58,341.921)"
       id="g136"><path
         id="path138"
         style="fill:none;stroke:#231f20;stroke-width:0.68000001;stroke-linecap:square;stroke-linejoin:miter;stroke-miterlimit:10;stroke-dasharray:none;stroke-opacity:1"
         d="m 0,0 h 107.101 c 3.847,0 6.969,-3.123 6.969,-6.97 0,-3.848 -3.122,-6.97 -6.969,-6.97 H 0 c -3.847,0 -6.97,3.122 -6.97,6.97 C -6.97,-3.123 -3.847,0 0,0 Z" /></g><text
       id="text142"
       style="font-variant:normal;font-weight:normal;font-stretch:normal;font-size:9px;font-family:Times;-inkscape-font-specification:Times-Roman;writing-mode:lr-tb;fill:#231f20;fill-opacity:1;fill-rule:nonzero;stroke:none"
       transform="matrix(1,0,0,-1,160.6928,332.8544)"><tspan
         id="tspan140"
         y="0"
         x="0 4.5 9 11.25 13.5 18 22.5 24.75 27 30.996 33.498001 37.493999 44.495998 48.492001 52.992001 55.493999 59.490002 62.487 66.987 71.487 74.987999 79.487999 82.485001 85.391998 89.388 93.384003 97.379997">47, 43, elementary_surface</tspan></text>
<path
       id="path144"
       style="fill:#ffffff;fill-opacity:1;fill-rule:nonzero;stroke:none"
       d="M 210.149,27.393 H 367.23 V 41.334 H 210.149 Z" /><g
       transform="translate(217.119,41.333)"
       id="g146"><path
         id="path148"
         style="fill:none;stroke:#231f20;stroke-width:0.68000001;stroke-linecap:square;stroke-linejoin:miter;stroke-miterlimit:10;stroke-dasharray:none;stroke-opacity:1"
         d="m 0,0 h 143.141 c 3.847,0 6.97,-3.123 6.97,-6.97 0,-3.847 -3.123,-6.971 -6.97,-6.971 L 0,-13.941 c -3.847,0 -6.97,3.124 -6.97,6.971 C -6.97,-3.123 -3.847,0 0,0 Z" /></g><text
       id="text152"
       style="font-variant:normal;font-weight:normal;font-stretch:normal;font-size:9px;font-family:Times;-inkscape-font-specification:Times-Roman;writing-mode:lr-tb;fill:#231f20;fill-opacity:1;fill-rule:nonzero;stroke:none"
       transform="matrix(1,0,0,-1,221.1084,32.2539)"><tspan
         id="tspan150"
         y="0"
         x="0 4.5 9 11.25 13.5 18 22.5 27 29.25 31.5 34.497002 40.994999 46.998001 52.001999 54.999001 62.000999 65.997002 70.497002 74.997002 77.903999 81.900002 85.896004 88.398003 92.898003 95.894997 98.397003 102.897 107.397 111.897 114.894 118.89 122.886 125.388 129.888 132.88499 136.881">23, 173, (ABS)manufacturing_feature</tspan></text>
<path
       id="path154"
       style="fill:#ffffff;fill-opacity:1;fill-rule:nonzero;stroke:none"
       d="m 189.75,4.9541 h 177.48 v 13.938 H 189.75 Z" /><g
       transform="translate(196.72,18.893)"
       id="g156"><path
         id="path158"
         style="fill:none;stroke:#231f20;stroke-width:0.68000001;stroke-linecap:square;stroke-linejoin:miter;stroke-miterlimit:10;stroke-dasharray:none;stroke-opacity:1"
         d="m 0,0 h 163.54 c 3.848,0 6.971,-3.123 6.971,-6.97 0,-3.847 -3.123,-6.968 -6.971,-6.968 H 0 c -3.848,0 -6.97,3.121 -6.97,6.968 C -6.97,-3.123 -3.848,0 0,0 Z" /></g><text
       id="text162"
       style="font-variant:normal;font-weight:normal;font-stretch:normal;font-size:9px;font-family:Times;-inkscape-font-specification:Times-Roman;writing-mode:lr-tb;fill:#231f20;fill-opacity:1;fill-rule:nonzero;stroke:none"
       transform="matrix(1,0,0,-1,199.1181,9.8134)"><tspan
         id="tspan160"
         y="0"
         x="0 4.5 9 11.25 13.5 18 22.5 27 29.25 31.5 34.497002 40.994999 46.998001 52.001999 54.999001 57.500999 62.000999 64.998001 69.498001 72 76.5 81 85.5 92.501999 96.498001 100.494 104.994 107.496 111.996 114.498 118.998 123.498 127.998 132.498 136.998 140.994 143.991 147.987 150.489 152.991 157.491 161.991">10, 217, (ABS)turning_machining_operation</tspan></text>
<path
       id="path164"
       style="fill:#ffffff;fill-opacity:1;fill-rule:nonzero;stroke:none"
       d="m 161.853,165.433 h 82.28 v 13.94 h -82.28 z" /><g
       transform="translate(168.823,179.373)"
       id="g166"><path
         id="path168"
         style="fill:none;stroke:#231f20;stroke-width:0.68000001;stroke-linecap:square;stroke-linejoin:miter;stroke-miterlimit:10;stroke-dasharray:none;stroke-opacity:1"
         d="m 0,0 h 68.34 c 3.848,0 6.97,-3.123 6.97,-6.97 0,-3.848 -3.122,-6.97 -6.97,-6.97 H 0 c -3.847,0 -6.97,3.122 -6.97,6.97 C -6.97,-3.123 -3.847,0 0,0 Z" /></g><text
       id="text180"
       style="font-variant:normal;font-weight:normal;font-stretch:normal;font-size:9px;font-family:Times;-inkscape-font-specification:Times-Roman;writing-mode:lr-tb;fill:#231f20;fill-opacity:1;fill-rule:nonzero;stroke:none"
       transform="matrix(1,0,0,-1,187.7993,170.2558)"><tspan
         id="tspan170"
         y="0"
         x="0 4.5 6.75 9 13.5 18 20.25 23.247 27.747 30.743999">3, 87 (1)</tspan><tspan
         id="tspan172"
         y="31.8249"
         x="-29.8134 -25.8174 -22.316401 -17.816401 -15.3144 -11.8134">as_is</tspan><tspan
         id="tspan174"
         y="53.2458"
         x="-29.8134 -27.311399 -22.811399 -18.311399 -13.8114 -9.8154001">to_be</tspan><tspan
         id="tspan176"
         y="74.665802"
         x="-29.8134 -26.816401 -22.8204 -15.8184 -11.4534 -7.1784 -3.1824 -0.68040001">removal</tspan><tspan
         id="tspan178"
         y="104.8005"
         x="-95.992203 -93.490196 -90.988197 -87.487198 -82.987198 -78.991203 -76.2192 -73.222198 -69.226196 -65.230202 -62.728199">its_effect</tspan></text>
<path
       id="path182"
       style="fill:#ffffff;fill-opacity:1;fill-rule:nonzero;stroke:none"
       d="m 58.026,98.58 h 89.76 v 56.78 h -89.76 z" /><g
       transform="translate(58.026,155.36)"
       id="g184"><path
         id="path186"
         style="fill:none;stroke:#231f20;stroke-width:0.68000001;stroke-linecap:square;stroke-linejoin:miter;stroke-miterlimit:10;stroke-dasharray:none;stroke-opacity:1"
         d="M 89.76,0 H 0 v -56.78 h 89.76 z" /><g
         id="g188"><path
           id="path190"
           style="fill:none;stroke:#231f20;stroke-width:0.68000001;stroke-linecap:square;stroke-linejoin:miter;stroke-miterlimit:10;stroke-dasharray:none;stroke-opacity:1"
           d="M 0,0 Z" /></g></g><text
       id="text194"
       style="font-variant:normal;font-weight:normal;font-stretch:normal;font-size:9px;font-family:Times;-inkscape-font-specification:Times-Roman;writing-mode:lr-tb;fill:#231f20;fill-opacity:1;fill-rule:nonzero;stroke:none"
       transform="matrix(1,0,0,-1,63.9053,124.9384)"><tspan
         id="tspan192"
         y="0"
         x="0 2.5020001 7.0019999 11.502 16.002001 18.999001 23.499001 27.495001 31.490999 34.992001 38.493 42.993 47.493 51.488998 55.988998 62.991001 66.987 69.488998 72.486 76.986">in_process_geometry</tspan></text>
<path
       id="path196"
       style="fill:#ffffff;fill-opacity:1;fill-rule:nonzero;stroke:none"
       d="m 0.33978,326.281 h 76.68 v 15.641 h -76.68 z" /><g
       transform="translate(0.33978,341.921)"
       id="g198"><path
         id="path200"
         style="fill:none;stroke:#231f20;stroke-width:0.68000001;stroke-linecap:square;stroke-linejoin:miter;stroke-miterlimit:10;stroke-dasharray:none;stroke-opacity:1"
         d="M 76.68,0 H 0 v -15.641 h 76.68 z" /><g
         id="g202"><path
           id="path204"
           style="fill:none;stroke:#231f20;stroke-width:0.68000001;stroke-linecap:square;stroke-linejoin:miter;stroke-miterlimit:10;stroke-dasharray:none;stroke-opacity:1"
           d="M 0,0 Z" /></g></g><text
       id="text208"
       style="font-variant:normal;font-weight:normal;font-stretch:normal;font-size:9px;font-family:Times;-inkscape-font-specification:Times-Roman;writing-mode:lr-tb;fill:#231f20;fill-opacity:1;fill-rule:nonzero;stroke:none"
       transform="matrix(1,0,0,-1,4.0317,331.9918)"><tspan
         id="tspan206"
         y="0"
         x="0 2.997 9.4949999 15.498 20.502001 23.499001 29.907 34.407001 37.403999 41.903999 44.405998 48.905998 53.405998 56.907001 59.409 63.404999 67.904999">(ABS)workingstep</tspan></text>
<path
       id="path210"
       style="fill:#ffffff;fill-opacity:1;fill-rule:nonzero;stroke:none"
       d="m 44.03,4.9541 h 83.84 v 58.819 H 44.03 Z" /><g
       transform="translate(44.03,63.773)"
       id="g212"><path
         id="path214"
         style="fill:none;stroke:#231f20;stroke-width:0.68000001;stroke-linecap:square;stroke-linejoin:miter;stroke-miterlimit:10;stroke-dasharray:none;stroke-opacity:1"
         d="M 83.84,0 H 0 v -58.819 h 83.84 z" /><g
         id="g216"><path
           id="path218"
           style="fill:none;stroke:#231f20;stroke-width:0.68000001;stroke-linecap:square;stroke-linejoin:miter;stroke-miterlimit:10;stroke-dasharray:none;stroke-opacity:1"
           d="M 0,0 Z" /></g></g><text
       id="text222"
       style="font-variant:normal;font-weight:normal;font-stretch:normal;font-size:9px;font-family:Times;-inkscape-font-specification:Times-Roman;writing-mode:lr-tb;fill:#231f20;fill-opacity:1;fill-rule:nonzero;stroke:none"
       transform="matrix(1,0,0,-1,48.9424,32.332)"><tspan
         id="tspan220"
         y="0"
         x="0 2.5020001 7.0019999 9.9989996 14.499 17.000999 21.500999 26.000999 30.500999 36.909 41.409 44.405998 48.905998 51.408001 55.908001 60.408001 63.909 66.411003 70.406998 74.906998">turning_workingstep</tspan></text>
<g
       transform="translate(139.182,158.79)"
       id="g224"><path
         id="path226"
         style="fill:#ffffff;fill-opacity:1;fill-rule:nonzero;stroke:none"
         d="m 0,0 c 0,1.877 -1.523,3.4 -3.4,3.4 -1.877,0 -3.4,-1.523 -3.4,-3.4 0,-1.876 1.523,-3.4 3.4,-3.4 1.877,0 3.4,1.524 3.4,3.4" /></g><g
       transform="translate(139.182,158.79)"
       id="g228"><path
         id="path230"
         style="fill:none;stroke:#231f20;stroke-width:0.68000001;stroke-linecap:square;stroke-linejoin:miter;stroke-miterlimit:10;stroke-dasharray:none;stroke-opacity:1"
         d="m 0,0 c 0,1.877 -1.523,3.4 -3.4,3.4 -1.877,0 -3.4,-1.523 -3.4,-3.4 0,-1.876 1.523,-3.4 3.4,-3.4 1.877,0 3.4,1.524 3.4,3.4" /></g><text
       id="text238"
       style="font-variant:normal;font-weight:normal;font-stretch:normal;font-size:9px;font-family:Times;-inkscape-font-specification:Times-Roman;writing-mode:lr-tb;fill:#231f20;fill-opacity:1;fill-rule:nonzero;stroke:none"
       transform="matrix(1,0,0,-1,83.8198,324.9907)"><tspan
         id="tspan232"
         y="0"
         x="0 2.5020001 5.0040002 8.5050001 13.005 16.506001 20.502001 24.497999 28.997999 31.5 35.495998 39.995998 43.992001">its_secplane</tspan><tspan
         id="tspan234"
         y="300.72601"
         x="50.849998 53.352001 55.854 59.355 63.855 66.851997 70.848 74.844002 77.346001 81.846001 84.843002 88.838997 92.339996 94.589996 100.089 103.086 107.586 110.088 114.084 117.081">its_features L[2:?]</tspan><tspan
         id="tspan236"
         y="323.0289"
         x="50.849998 53.352001 55.854 59.355 63.855">its_o</tspan></text>
<text
       id="text242"
       style="font-variant:normal;font-weight:normal;font-stretch:normal;font-size:9px;font-family:Times;-inkscape-font-specification:Times-Roman;writing-mode:lr-tb;fill:#231f20;fill-opacity:1;fill-rule:nonzero;stroke:none"
       transform="matrix(1,0,0,-1,152.1728,1.9619)"><tspan
         id="tspan240"
         y="0"
         x="0">p</tspan></text>
<text
       id="text246"
       style="font-variant:normal;font-weight:normal;font-stretch:normal;font-size:9px;font-family:Times;-inkscape-font-specification:Times-Roman;writing-mode:lr-tb;fill:#231f20;fill-opacity:1;fill-rule:nonzero;stroke:none"
       transform="matrix(1,0,0,-1,156.6728,1.9619)"><tspan
         id="tspan244"
         y="0"
         x="0 3.9960001 6.993 10.989 13.491 15.993 20.493 24.993">eration</tspan></text>
<g
       transform="translate(86.958,158.79)"
       id="g248"><path
         id="path250"
         style="fill:#ffffff;fill-opacity:1;fill-rule:nonzero;stroke:none"
         d="m 0,0 c 0,1.877 -1.523,3.4 -3.4,3.4 -1.877,0 -3.4,-1.523 -3.4,-3.4 0,-1.876 1.523,-3.4 3.4,-3.4 1.877,0 3.4,1.524 3.4,3.4" /></g><g
       transform="translate(86.958,158.79)"
       id="g252"><path
         id="path254"
         style="fill:none;stroke:#231f20;stroke-width:0.68000001;stroke-linecap:square;stroke-linejoin:miter;stroke-miterlimit:10;stroke-dasharray:none;stroke-opacity:1"
         d="m 0,0 c 0,1.877 -1.523,3.4 -3.4,3.4 -1.877,0 -3.4,-1.523 -3.4,-3.4 0,-1.876 1.523,-3.4 3.4,-3.4 1.877,0 3.4,1.524 3.4,3.4" /></g><g
       transform="translate(88.182,95.142)"
       id="g256"><path
         id="path258"
         style="fill:#ffffff;fill-opacity:1;fill-rule:nonzero;stroke:none"
         d="m 0,0 c 0,1.878 -1.523,3.4 -3.4,3.4 -1.877,0 -3.4,-1.522 -3.4,-3.4 0,-1.876 1.523,-3.399 3.4,-3.399 1.877,0 3.4,1.523 3.4,3.399" /></g><g
       transform="translate(88.182,95.142)"
       id="g260"><path
         id="path262"
         style="fill:none;stroke:#231f20;stroke-width:0.68000001;stroke-linecap:square;stroke-linejoin:miter;stroke-miterlimit:10;stroke-dasharray:none;stroke-opacity:1"
         d="m 0,0 c 0,1.878 -1.523,3.4 -3.4,3.4 -1.877,0 -3.4,-1.522 -3.4,-3.4 0,-1.876 1.523,-3.399 3.4,-3.399 1.877,0 3.4,1.523 3.4,3.399" /></g><path
       id="path264"
       style="fill:#ffffff;fill-opacity:1;fill-rule:nonzero;stroke:none"
       d="m 5.7612,357.506 h 47.6 v 17 h -47.6 z" /><g
       transform="translate(14.261,374.506)"
       id="g266"><path
         id="path268"
         style="fill:none;stroke:#231f20;stroke-width:0.68000001;stroke-linecap:square;stroke-linejoin:miter;stroke-miterlimit:10;stroke-dasharray:none;stroke-opacity:1"
         d="m 0,0 h 30.6 c 4.692,0 8.5,-3.808 8.5,-8.5 0,-4.692 -3.808,-8.501 -8.5,-8.501 H 0 c -4.6919,0 -8.5,3.809 -8.5,8.501 0,4.692 3.8081,8.5 8.5,8.5 z" /></g><text
       id="text272"
       style="font-variant:normal;font-weight:normal;font-stretch:normal;font-size:9px;font-family:Times;-inkscape-font-specification:Times-Roman;writing-mode:lr-tb;fill:#231f20;fill-opacity:1;fill-rule:nonzero;stroke:none"
       transform="matrix(1,0,0,-1,16.6362,363.8593)"><tspan
         id="tspan270"
         y="0"
         x="0 4.5 6.75 9 13.5 15.75 18.747 23.247 26.243999">3, 0 (2)</tspan></text>
<g
       transform="translate(33.306,345.348)"
       id="g274"><path
         id="path276"
         style="fill:#ffffff;fill-opacity:1;fill-rule:nonzero;stroke:none"
         d="m 0,0 c 0,1.877 -1.523,3.4 -3.4,3.4 -1.877,0 -3.4,-1.523 -3.4,-3.4 0,-1.877 1.523,-3.4 3.4,-3.4 1.877,0 3.4,1.523 3.4,3.4" /></g><g
       transform="translate(33.306,345.348)"
       id="g278"><path
         id="path280"
         style="fill:none;stroke:#231f20;stroke-width:0.68000001;stroke-linecap:square;stroke-linejoin:miter;stroke-miterlimit:10;stroke-dasharray:none;stroke-opacity:1"
         d="m 0,0 c 0,1.877 -1.523,3.4 -3.4,3.4 -1.877,0 -3.4,-1.523 -3.4,-3.4 0,-1.877 1.523,-3.4 3.4,-3.4 1.877,0 3.4,1.523 3.4,3.4" /></g><path
       id="path282"
       style="fill:#ffffff;fill-opacity:1;fill-rule:nonzero;stroke:none"
       d="m 40.715,193.682 h 97.4 v 78.199 h -97.4 z" /><g
       transform="translate(40.715,271.881)"
       id="g284"><path
         id="path286"
         style="fill:none;stroke:#231f20;stroke-width:0.68000001;stroke-linecap:square;stroke-linejoin:miter;stroke-miterlimit:10;stroke-dasharray:none;stroke-opacity:1"
         d="M 97.4,0 H 0 v -78.199 h 97.4 z" /><g
         id="g288"><path
           id="path290"
           style="fill:none;stroke:#231f20;stroke-width:0.68000001;stroke-linecap:square;stroke-linejoin:miter;stroke-miterlimit:10;stroke-dasharray:none;stroke-opacity:1"
           d="M 0,0 Z" /></g></g><text
       id="text298"
       style="font-variant:normal;font-weight:normal;font-stretch:normal;font-size:9px;font-family:Times;-inkscape-font-specification:Times-Roman;writing-mode:lr-tb;fill:#231f20;fill-opacity:1;fill-rule:nonzero;stroke:none"
       transform="matrix(1,0,0,-1,45.2876,230.7495)"><tspan
         id="tspan292"
         y="0"
         x="0 7.0019999 10.998 14.994 19.493999 21.996 26.496 28.997999 33.498001 37.998001 42.498001 48.905998 53.405998 56.403 60.903 63.404999 67.904999 72.404999 75.905998 78.407997 82.403999 86.903999">machining_workingstep</tspan><tspan
         id="tspan294"
         y="-78.9795"
         x="-18.719101 -14.2191">1</tspan><tspan
         id="tspan296"
         y="51.919201"
         x="45.2439 47.745899 50.247898 53.748901 58.248901 62.2449 65.016899 68.013901 72.009903 76.005898 78.507896">its_effect</tspan></text>
<path
       id="path300"
       style="fill:#ffffff;fill-opacity:1;fill-rule:nonzero;stroke:none"
       d="M 223.115,257.941 H 380.194 V 271.88 H 223.115 Z" /><g
       transform="translate(230.085,271.881)"
       id="g302"><path
         id="path304"
         style="fill:none;stroke:#231f20;stroke-width:0.68000001;stroke-linecap:square;stroke-linejoin:miter;stroke-miterlimit:10;stroke-dasharray:none;stroke-opacity:1"
         d="m 0,0 h 143.14 c 3.846,0 6.969,-3.122 6.969,-6.969 0,-3.848 -3.123,-6.97 -6.969,-6.97 H 0 c -3.848,0 -6.97,3.122 -6.97,6.97 C -6.97,-3.122 -3.848,0 0,0 Z" /></g><text
       id="text308"
       style="font-variant:normal;font-weight:normal;font-stretch:normal;font-size:9px;font-family:Times;-inkscape-font-specification:Times-Roman;writing-mode:lr-tb;fill:#231f20;fill-opacity:1;fill-rule:nonzero;stroke:none"
       transform="matrix(1,0,0,-1,234.0742,262.8012)"><tspan
         id="tspan306"
         y="0"
         x="0 4.5 9 11.25 13.5 18 22.5 27 29.25 31.5 34.497002 40.994999 46.998001 52.001999 54.999001 62.000999 65.997002 70.497002 74.997002 77.903999 81.900002 85.896004 88.398003 92.898003 95.894997 98.397003 102.897 107.397 111.897 114.894 118.89 122.886 125.388 129.888 132.88499 136.881">23, 173, (ABS)manufacturing_feature</tspan></text>
<path
       id="path310"
       style="fill:#ffffff;fill-opacity:1;fill-rule:nonzero;stroke:none"
       d="m 236.034,236.521 h 144.16 v 13.94 h -144.16 z" /><g
       transform="translate(243.005,250.461)"
       id="g312"><path
         id="path314"
         style="fill:none;stroke:#231f20;stroke-width:0.68000001;stroke-linecap:square;stroke-linejoin:miter;stroke-miterlimit:10;stroke-dasharray:none;stroke-opacity:1"
         d="m 0,0 h 130.22 c 3.846,0 6.969,-3.122 6.969,-6.97 0,-3.847 -3.123,-6.97 -6.969,-6.97 H 0 c -3.848,0 -6.971,3.123 -6.971,6.97 C -6.971,-3.122 -3.848,0 0,0 Z" /></g><text
       id="text318"
       style="font-variant:normal;font-weight:normal;font-stretch:normal;font-size:9px;font-family:Times;-inkscape-font-specification:Times-Roman;writing-mode:lr-tb;fill:#231f20;fill-opacity:1;fill-rule:nonzero;stroke:none"
       transform="matrix(1,0,0,-1,245.7519,241.3823)"><tspan
         id="tspan316"
         y="0"
         x="0 4.5 6.75 9 13.5 18 22.5 24.75 27 29.997 36.494999 42.498001 47.501999 50.499001 57.500999 61.497002 65.492996 69.992996 72.495003 76.995003 79.497002 83.997002 88.497002 92.997002 97.497002 101.997 105.993 108.99 112.986 115.488 117.99 122.49 126.99">5, 120, (ABS)machining_operation</tspan></text>
<path
       id="path320"
       style="fill:#ffffff;fill-opacity:1;fill-rule:nonzero;stroke:none"
       d="m 223.115,215.101 h 157.079 v 13.94 H 223.115 Z" /><g
       transform="translate(230.085,229.042)"
       id="g322"><path
         id="path324"
         style="fill:none;stroke:#231f20;stroke-width:0.68000001;stroke-linecap:square;stroke-linejoin:miter;stroke-miterlimit:10;stroke-dasharray:none;stroke-opacity:1"
         d="m 0,0 h 143.14 c 3.846,0 6.969,-3.123 6.969,-6.97 0,-3.848 -3.123,-6.97 -6.969,-6.97 H 0 c -3.848,0 -6.97,3.122 -6.97,6.97 C -6.97,-3.123 -3.848,0 0,0 Z" /></g><text
       id="text328"
       style="font-variant:normal;font-weight:normal;font-stretch:normal;font-size:9px;font-family:Times;-inkscape-font-specification:Times-Roman;writing-mode:lr-tb;fill:#231f20;fill-opacity:1;fill-rule:nonzero;stroke:none"
       transform="matrix(1,0,0,-1,234.0742,219.9619)"><tspan
         id="tspan326"
         y="0"
         x="0 4.5 9 11.25 13.5 18 22.5 27 29.25 31.5 34.497002 40.994999 46.998001 52.001999 54.999001 62.000999 65.997002 70.497002 74.997002 77.903999 81.900002 85.896004 88.398003 92.898003 95.894997 98.397003 102.897 107.397 111.897 114.894 118.89 122.886 125.388 129.888 132.88499 136.881">23, 174, (ABS)manufacturing_feature</tspan></text>
<path
       id="path330"
       style="fill:#ffffff;fill-opacity:1;fill-rule:nonzero;stroke:none"
       d="m 262.556,193.682 h 117.639 v 13.939 H 262.556 Z" /><g
       transform="translate(269.524,207.621)"
       id="g332"><path
         id="path334"
         style="fill:none;stroke:#231f20;stroke-width:0.68000001;stroke-linecap:square;stroke-linejoin:miter;stroke-miterlimit:10;stroke-dasharray:none;stroke-opacity:1"
         d="m 0,0 h 103.7 c 3.847,0 6.97,-3.122 6.97,-6.97 0,-3.847 -3.123,-6.969 -6.97,-6.969 H 0 c -3.848,0 -6.969,3.122 -6.969,6.969 C -6.969,-3.122 -3.848,0 0,0 Z" /></g><text
       id="text346"
       style="font-variant:normal;font-weight:normal;font-stretch:normal;font-size:9px;font-family:Times;-inkscape-font-specification:Times-Roman;writing-mode:lr-tb;fill:#231f20;fill-opacity:1;fill-rule:nonzero;stroke:none"
       transform="matrix(1,0,0,-1,270.3467,198.5668)"><tspan
         id="tspan336"
         y="0"
         x="0 4.5 9 11.25 13.5 18 22.5 24.75 27 30.996 35.495998 37.998001 41.499001 45.999001 50.499001 54.999001 57.500999 61.497002 65.492996 69.488998 76.490997 80.487 84.987 87.488998 91.988998 96.488998 100.989">47, 42, axis2_placement_3d</tspan><tspan
         id="tspan338"
         y="-56.245499"
         x="-125.4321 -122.9301 -120.4281 -116.9271 -112.4271 -109.4301 -105.4341 -101.4381 -98.936096 -94.436096 -91.439102 -87.4431">its_feature</tspan><tspan
         id="tspan340"
         y="-34.965"
         x="-125.4321 -122.9301 -120.4281 -116.9271 -112.4271 -107.9271 -103.4271 -99.431099 -96.434097 -92.438103 -89.936096 -87.434097 -82.934097 -78.434097">its_operation</tspan><tspan
         id="tspan342"
         y="-13.2822"
         x="-125.4321 -122.6151 -120.1131 -115.6131 -111.6171 -109.1151 -104.6151 -101.6181 -97.622101 -93.626099 -91.1241 -86.6241 -83.627098 -79.631104 -76.130096 -73.880096 -68.876099 -65.879097 -61.379101 -58.877102 -54.8811 -51.884102">final_features S[0:?]</tspan><tspan
         id="tspan344"
         y="7.875"
         x="-125.4321 -122.9301 -118.4301 -113.9301 -111.4281 -106.9281 -102.9321 -100.4301 -95.930099 -91.430099 -86.930099 -83.933098 -81.431099 -77.435097 -72.935097 -70.433098 -66.437103 -63.935101 -61.433102 -56.933102 -52.433102">toolpath_orientation</tspan></text>
<g
       transform="translate(44.016,55.26)"
       id="g348"><path
         id="path350"
         style="fill:#ffffff;fill-opacity:1;fill-rule:nonzero;stroke:none"
         d="m 0,0 c 0,1.878 -1.523,3.4 -3.4,3.4 -1.877,0 -3.4,-1.522 -3.4,-3.4 0,-1.876 1.523,-3.399 3.4,-3.399 1.877,0 3.4,1.523 3.4,3.399" /></g><g
       transform="translate(44.016,55.26)"
       id="g352"><path
         id="path354"
         style="fill:none;stroke:#231f20;stroke-width:0.68000001;stroke-linecap:square;stroke-linejoin:miter;stroke-miterlimit:10;stroke-dasharray:none;stroke-opacity:1"
         d="m 0,0 c 0,1.878 -1.523,3.4 -3.4,3.4 -1.877,0 -3.4,-1.522 -3.4,-3.4 0,-1.876 1.523,-3.399 3.4,-3.399 1.877,0 3.4,1.523 3.4,3.399" /></g><g
       transform="translate(40.65,263.646)"
       id="g356"><path
         id="path358"
         style="fill:#ffffff;fill-opacity:1;fill-rule:nonzero;stroke:none"
         d="m 0,0 c 0,1.877 -1.523,3.4 -3.4,3.4 -1.877,0 -3.4,-1.523 -3.4,-3.4 0,-1.877 1.523,-3.4 3.4,-3.4 1.877,0 3.4,1.523 3.4,3.4" /></g><g
       transform="translate(40.65,263.646)"
       id="g360"><path
         id="path362"
         style="fill:none;stroke:#231f20;stroke-width:0.68000001;stroke-linecap:square;stroke-linejoin:miter;stroke-miterlimit:10;stroke-dasharray:none;stroke-opacity:1"
         d="m 0,0 c 0,1.877 -1.523,3.4 -3.4,3.4 -1.877,0 -3.4,-1.523 -3.4,-3.4 0,-1.877 1.523,-3.4 3.4,-3.4 1.877,0 3.4,1.523 3.4,3.4" /></g></g></svg>