<?xml version="1.0" encoding="UTF-8" standalone="no"?>
<svg
   xmlns:dc="http://purl.org/dc/elements/1.1/"
   xmlns:cc="http://creativecommons.org/ns#"
   xmlns:rdf="http://www.w3.org/1999/02/22-rdf-syntax-ns#"
   xmlns:svg="http://www.w3.org/2000/svg"
   xmlns="http://www.w3.org/2000/svg"
   viewBox="0 0 507.70532 662.09869"
   height="662.09869"
   width="507.70532"
   xml:space="preserve"
   id="svg2"
   version="1.1"><metadata
     id="metadata8"><rdf:RDF><cc:Work
         rdf:about=""><dc:format>image/svg+xml</dc:format><dc:type
           rdf:resource="http://purl.org/dc/dcmitype/StillImage" /></cc:Work></rdf:RDF></metadata><defs
     id="defs6" /><g
     transform="matrix(1.3333333,0,0,-1.3333333,0,662.09867)"
     id="g10"><path
       id="path12"
       style="fill:none;stroke:#231f20;stroke-width:0.68000001;stroke-linecap:square;stroke-linejoin:miter;stroke-miterlimit:10;stroke-dasharray:3.4, 3.4;stroke-dashoffset:0;stroke-opacity:1"
       d="M 105.016,286.707 H 226.055" /><g
       transform="translate(187.125,474.553)"
       id="g14"><path
         id="path16"
         style="fill:none;stroke:#231f20;stroke-width:0.68000001;stroke-linecap:square;stroke-linejoin:miter;stroke-miterlimit:10;stroke-dasharray:none;stroke-opacity:1"
         d="M 0,0 -0.465,7.741" /></g><g
       transform="translate(69.935,367.307)"
       id="g18"><path
         id="path20"
         style="fill:none;stroke:#231f20;stroke-width:2.03999996;stroke-linecap:square;stroke-linejoin:miter;stroke-miterlimit:10;stroke-dasharray:none;stroke-opacity:1"
         d="M 0,0 -0.064,10.733" /></g><g
       transform="translate(157.42,460.788)"
       id="g22"><path
         id="path24"
         style="fill:none;stroke:#231f20;stroke-width:0.68000001;stroke-linecap:square;stroke-linejoin:miter;stroke-miterlimit:10;stroke-dasharray:none;stroke-opacity:1"
         d="M 0,0 H -76.16" /></g><path
       id="path26"
       style="fill:none;stroke:#231f20;stroke-width:0.68000001;stroke-linecap:square;stroke-linejoin:miter;stroke-miterlimit:10;stroke-dasharray:3.4, 3.4;stroke-dashoffset:0;stroke-opacity:1"
       d="M 157.42,437.839 H 90.78 m 66.64,-24.48 H 107.1" /><g
       transform="translate(217.239,459.259)"
       id="g28"><path
         id="path30"
         style="fill:none;stroke:#231f20;stroke-width:0.68000001;stroke-linecap:square;stroke-linejoin:miter;stroke-miterlimit:10;stroke-dasharray:none;stroke-opacity:1"
         d="M 0,0 H 86.359" /></g><path
       id="path32"
       style="fill:none;stroke:#231f20;stroke-width:0.68000001;stroke-linecap:square;stroke-linejoin:miter;stroke-miterlimit:10;stroke-dasharray:3.4, 3.4;stroke-dashoffset:0;stroke-opacity:1"
       d="m 217.239,434.779 h 93.16" /><g
       transform="translate(172.592,384.383)"
       id="g34"><path
         id="path36"
         style="fill:none;stroke:#231f20;stroke-width:0.68000001;stroke-linecap:square;stroke-linejoin:miter;stroke-miterlimit:10;stroke-dasharray:none;stroke-opacity:1"
         d="M 0,0 V 20.476" /><g
         id="g38"><path
           id="path40"
           style="fill:none;stroke:#231f20;stroke-width:0.68000001;stroke-linecap:square;stroke-linejoin:miter;stroke-miterlimit:10;stroke-dasharray:none;stroke-opacity:1"
           d="M 0,0 H -75.225" /><g
           transform="translate(-101.395,-224.391)"
           id="g42"><path
             id="path44"
             style="fill:none;stroke:#231f20;stroke-width:0.68000001;stroke-linecap:square;stroke-linejoin:miter;stroke-miterlimit:10;stroke-dasharray:none;stroke-opacity:1"
             d="M 0,0 0.27,22.991" /><g
             transform="translate(70.242,72.802)"
             id="g46"><path
               id="path48"
               style="fill:none;stroke:#231f20;stroke-width:0.68000001;stroke-linecap:square;stroke-linejoin:miter;stroke-miterlimit:10;stroke-dasharray:none;stroke-opacity:1"
               d="M 0,0 H -49.98" /><g
               transform="translate(49.98)"
               id="g50"><path
                 id="path52"
                 style="fill:none;stroke:#231f20;stroke-width:0.68000001;stroke-linecap:square;stroke-linejoin:miter;stroke-miterlimit:10;stroke-dasharray:none;stroke-opacity:1"
                 d="M 0,0 H -49.98 V 0" /><g
                 transform="translate(-99.961,-21.42)"
                 id="g54"><path
                   id="path56"
                   style="fill:none;stroke:#231f20;stroke-width:0.68000001;stroke-linecap:square;stroke-linejoin:miter;stroke-miterlimit:10;stroke-dasharray:none;stroke-opacity:1"
                   d="M 0,0 H 59.84" /></g></g></g></g></g></g><path
       id="path58"
       style="fill:none;stroke:#231f20;stroke-width:0.68000001;stroke-linecap:square;stroke-linejoin:miter;stroke-miterlimit:10;stroke-dasharray:3.4, 3.4;stroke-dashoffset:0;stroke-opacity:1"
       d="M 91.459,189.955 H 149.94" /><g
       transform="translate(76.427,47.111)"
       id="g60"><path
         id="path62"
         style="fill:none;stroke:#231f20;stroke-width:0.68000001;stroke-linecap:square;stroke-linejoin:miter;stroke-miterlimit:10;stroke-dasharray:none;stroke-opacity:1"
         d="M 0,0 V 21.76" /><g
         transform="translate(69.127,97.581)"
         id="g64"><path
           id="path66"
           style="fill:none;stroke:#231f20;stroke-width:0.68000001;stroke-linecap:square;stroke-linejoin:miter;stroke-miterlimit:10;stroke-dasharray:none;stroke-opacity:1"
           d="M 0,0 H 120.36" /></g></g><path
       id="path68"
       style="fill:none;stroke:#231f20;stroke-width:0.68000001;stroke-linecap:square;stroke-linejoin:miter;stroke-miterlimit:10;stroke-dasharray:3.4, 3.4;stroke-dashoffset:0;stroke-opacity:1"
       d="m 145.554,121.742 h 89.761" /><g
       transform="translate(145.554,100.321)"
       id="g70"><path
         id="path72"
         style="fill:none;stroke:#231f20;stroke-width:0.68000001;stroke-linecap:square;stroke-linejoin:miter;stroke-miterlimit:10;stroke-dasharray:none;stroke-opacity:1"
         d="M 0,0 H 66.64" /></g><path
       id="path74"
       style="fill:none;stroke:#231f20;stroke-width:0.68000001;stroke-linecap:square;stroke-linejoin:miter;stroke-miterlimit:10;stroke-dasharray:3.4, 3.4;stroke-dashoffset:0;stroke-opacity:1"
       d="m 223.754,77.371 h -78.2 M 135.277,33.342 h 98.6 m -98.6,-21.421 h 82.281 M 73.07,276.187 73.5,246.564" /><g
       transform="translate(97.367,384.383)"
       id="g76"><path
         id="path78"
         style="fill:none;stroke:#231f20;stroke-width:0.68000001;stroke-linecap:square;stroke-linejoin:miter;stroke-miterlimit:10;stroke-dasharray:none;stroke-opacity:1"
         d="M 0,0 V -17.076" /><g
         transform="translate(82.45,-32.376)"
         id="g80"><path
           id="path82"
           style="fill:none;stroke:#231f20;stroke-width:0.68000001;stroke-linecap:square;stroke-linejoin:miter;stroke-miterlimit:10;stroke-dasharray:none;stroke-opacity:1"
           d="M 0,0 H -74.12" /><g
           transform="translate(74.12)"
           id="g84"><path
             id="path86"
             style="fill:none;stroke:#231f20;stroke-width:0.68000001;stroke-linecap:square;stroke-linejoin:miter;stroke-miterlimit:10;stroke-dasharray:none;stroke-opacity:1"
             d="M 0,0 H -74.12 V 0" /></g></g></g><path
       id="path88"
       style="fill:none;stroke:#231f20;stroke-width:0.68000001;stroke-linecap:square;stroke-linejoin:miter;stroke-miterlimit:10;stroke-dasharray:3.4, 3.4;stroke-dashoffset:0;stroke-opacity:1"
       d="m 277.737,329.527 h -172.04 m 0,-21.37 h 121.04" /><path
       id="path90"
       style="fill:#ffffff;fill-opacity:1;fill-rule:nonzero;stroke:none"
       d="m 151.3,482.294 h 70.72 v 13.94 H 151.3 Z" /><g
       transform="translate(158.269,496.234)"
       id="g92"><path
         id="path94"
         style="fill:none;stroke:#231f20;stroke-width:0.68000001;stroke-linecap:square;stroke-linejoin:miter;stroke-miterlimit:10;stroke-dasharray:none;stroke-opacity:1"
         d="m 0,0 h 56.781 c 3.846,0 6.97,-3.123 6.97,-6.97 0,-3.847 -3.124,-6.97 -6.97,-6.97 H 0 c -3.847,0 -6.97,3.123 -6.97,6.97 C -6.97,-3.123 -3.847,0 0,0 Z" /></g><text
       id="text98"
       style="font-variant:normal;font-weight:normal;font-stretch:normal;font-size:9px;font-family:Times;-inkscape-font-specification:Times-Roman;writing-mode:lr-tb;fill:#231f20;fill-opacity:1;fill-rule:nonzero;stroke:none"
       transform="matrix(1,0,0,-1,162.3925,487.1181)"><tspan
         id="tspan96"
         y="0"
         x="0 4.5 6.75 9 13.5 18 20.25 23.247 27.747 32.247002 34.497002 36.747002 41.247002 45.747002">1, 97 (42, 42)</tspan></text>
<path
       id="path100"
       style="fill:#ffffff;fill-opacity:1;fill-rule:nonzero;stroke:none"
       d="m 46.071,378.041 h 47.6 v 17 h -47.6 z" /><g
       transform="translate(54.571,395.04)"
       id="g102"><path
         id="path104"
         style="fill:none;stroke:#231f20;stroke-width:0.68000001;stroke-linecap:square;stroke-linejoin:miter;stroke-miterlimit:10;stroke-dasharray:none;stroke-opacity:1"
         d="m 0,0 h 30.6 c 4.692,0 8.5,-3.807 8.5,-8.5 0,-4.691 -3.808,-8.5 -8.5,-8.5 H 0 c -4.692,0 -8.5,3.809 -8.5,8.5 0,4.693 3.808,8.5 8.5,8.5 z" /></g><text
       id="text108"
       style="font-variant:normal;font-weight:normal;font-stretch:normal;font-size:9px;font-family:Times;-inkscape-font-specification:Times-Roman;writing-mode:lr-tb;fill:#231f20;fill-opacity:1;fill-rule:nonzero;stroke:none"
       transform="matrix(1,0,0,-1,52.4086,384.395)"><tspan
         id="tspan106"
         y="0"
         x="0 4.5 6.75 9 13.5 18 22.5 24.75 27.747 32.247002">1, 235 (2)</tspan></text>
<path
       id="path110"
       style="fill:#ffffff;fill-opacity:1;fill-rule:nonzero;stroke:none"
       d="m 157.42,404.859 h 59.819 v 62.9 H 157.42 Z" /><g
       transform="translate(157.42,467.759)"
       id="g112"><path
         id="path114"
         style="fill:none;stroke:#231f20;stroke-width:0.68000001;stroke-linecap:square;stroke-linejoin:miter;stroke-miterlimit:10;stroke-dasharray:none;stroke-opacity:1"
         d="M 59.819,0 H 0 v -62.9 h 59.819 z" /><g
         id="g116"><path
           id="path118"
           style="fill:none;stroke:#231f20;stroke-width:0.68000001;stroke-linecap:square;stroke-linejoin:miter;stroke-miterlimit:10;stroke-dasharray:none;stroke-opacity:1"
           d="M 0,0 Z" /></g></g><text
       id="text122"
       style="font-variant:normal;font-weight:normal;font-stretch:normal;font-size:9px;font-family:Times;-inkscape-font-specification:Times-Roman;writing-mode:lr-tb;fill:#231f20;fill-opacity:1;fill-rule:nonzero;stroke:none"
       transform="matrix(1,0,0,-1,175.0854,434.2363)"><tspan
         id="tspan120"
         y="0"
         x="0 4.5 7.4970002 11.997 14.499 18.495001 22.490999">project</tspan></text>
<g
       transform="translate(190.741,471.128)"
       id="g124"><path
         id="path126"
         style="fill:#ffffff;fill-opacity:1;fill-rule:nonzero;stroke:none"
         d="m 0,0 c 0,1.877 -1.521,3.4 -3.399,3.4 -1.877,0 -3.4,-1.523 -3.4,-3.4 0,-1.877 1.523,-3.4 3.4,-3.4 C -1.521,-3.4 0,-1.877 0,0" /></g><g
       transform="translate(190.741,471.128)"
       id="g128"><path
         id="path130"
         style="fill:none;stroke:#231f20;stroke-width:0.68000001;stroke-linecap:square;stroke-linejoin:miter;stroke-miterlimit:10;stroke-dasharray:none;stroke-opacity:1"
         d="m 0,0 c 0,1.877 -1.521,3.4 -3.399,3.4 -1.877,0 -3.4,-1.523 -3.4,-3.4 0,-1.877 1.523,-3.4 3.4,-3.4 C -1.521,-3.4 0,-1.877 0,0" /></g><path
       id="path132"
       style="fill:#ffffff;fill-opacity:1;fill-rule:nonzero;stroke:none"
       d="m 0.33978,453.819 h 80.92 v 13.94 h -80.92 z" /><g
       transform="translate(7.31,467.759)"
       id="g134"><path
         id="path136"
         style="fill:none;stroke:#231f20;stroke-width:0.68000001;stroke-linecap:square;stroke-linejoin:miter;stroke-miterlimit:10;stroke-dasharray:none;stroke-opacity:1"
         d="m 0,0 h 66.98 c 3.847,0 6.97,-3.123 6.97,-6.97 0,-3.847 -3.123,-6.97 -6.97,-6.97 H 0 c -3.8472,0 -6.9702,3.123 -6.9702,6.97 0,3.847 3.123,6.97 6.9702,6.97 z" /></g><text
       id="text140"
       style="font-variant:normal;font-weight:normal;font-stretch:normal;font-size:9px;font-family:Times;-inkscape-font-specification:Times-Roman;writing-mode:lr-tb;fill:#231f20;fill-opacity:1;fill-rule:nonzero;stroke:none"
       transform="matrix(1,0,0,-1,11.771,458.4189)"><tspan
         id="tspan138"
         y="0"
         x="0 4.5 9 11.25 13.5 18 22.5 24.75 27 29.502001 34.001999 37.998001 42.498001 45 47.501999 50.319 52.820999 56.817001">46, 28, identifier</tspan></text>
<path
       id="path142"
       style="fill:#ffffff;fill-opacity:1;fill-rule:nonzero;stroke:none"
       d="m 0.33978,429.339 h 90.44 v 17 h -90.44 z" /><g
       transform="translate(8.8398,446.339)"
       id="g144"><path
         id="path146"
         style="fill:none;stroke:#231f20;stroke-width:0.68000001;stroke-linecap:square;stroke-linejoin:miter;stroke-miterlimit:10;stroke-dasharray:none;stroke-opacity:1"
         d="m 0,0 h 73.44 c 4.692,0 8.5,-3.808 8.5,-8.5 0,-4.692 -3.808,-8.5 -8.5,-8.5 H 0 c -4.6919,0 -8.5,3.808 -8.5,8.5 0,4.692 3.8081,8.5 8.5,8.5 z" /></g><text
       id="text150"
       style="font-variant:normal;font-weight:normal;font-stretch:normal;font-size:9px;font-family:Times;-inkscape-font-specification:Times-Roman;writing-mode:lr-tb;fill:#231f20;fill-opacity:1;fill-rule:nonzero;stroke:none"
       transform="matrix(1,0,0,-1,2.6914,435.5097)"><tspan
         id="tspan148"
         y="0"
         x="0 4.5 9 11.25 13.5 18 22.5 27 29.25 31.5 36 39.995998 42.498001 46.493999 50.993999 54.990002 59.490002 63.990002 68.489998 70.991997 73.494003 80.496002">46, 232, date_and_time</tspan></text>
<path
       id="path152"
       style="fill:#ffffff;fill-opacity:1;fill-rule:nonzero;stroke:none"
       d="m 0.33978,404.859 h 106.76 v 17 h -106.76 z" /><g
       transform="translate(8.8398,421.859)"
       id="g154"><path
         id="path156"
         style="fill:none;stroke:#231f20;stroke-width:0.68000001;stroke-linecap:square;stroke-linejoin:miter;stroke-miterlimit:10;stroke-dasharray:none;stroke-opacity:1"
         d="m 0,0 h 89.76 c 4.692,0 8.5,-3.808 8.5,-8.5 0,-4.691 -3.808,-8.5 -8.5,-8.5 H 0 c -4.6919,0 -8.5,3.809 -8.5,8.5 0,4.692 3.8081,8.5 8.5,8.5 z" /></g><text
       id="text160"
       style="font-variant:normal;font-weight:normal;font-stretch:normal;font-size:9px;font-family:Times;-inkscape-font-specification:Times-Roman;writing-mode:lr-tb;fill:#231f20;fill-opacity:1;fill-rule:nonzero;stroke:none"
       transform="matrix(1,0,0,-1,0.3398,411.2744)"><tspan
         id="tspan158"
         y="0"
         x="0 4.5 9 11.25 13.5 18 22.5 27 29.25 31.5 36 39.995998 42.993 46.493999 50.993999 55.493999 59.993999 63.990002 68.489998 72.989998 77.489998 81.486 85.986 90.486 93.483002 97.478996 100.98">41, 233, person_and_address</tspan></text>
<path
       id="path162"
       style="fill:#ffffff;fill-opacity:1;fill-rule:nonzero;stroke:none"
       d="m 303.598,450.759 h 76.841 v 17 h -76.841 z" /><g
       transform="translate(312.098,467.759)"
       id="g164"><path
         id="path166"
         style="fill:none;stroke:#231f20;stroke-width:0.68000001;stroke-linecap:square;stroke-linejoin:miter;stroke-miterlimit:10;stroke-dasharray:none;stroke-opacity:1"
         d="m 0,0 h 59.841 c 4.691,0 8.5,-3.808 8.5,-8.5 0,-4.691 -3.809,-8.5 -8.5,-8.5 H 0 c -4.691,0 -8.5,3.809 -8.5,8.5 0,4.692 3.809,8.5 8.5,8.5 z" /></g><text
       id="text170"
       style="font-variant:normal;font-weight:normal;font-stretch:normal;font-size:9px;font-family:Times;-inkscape-font-specification:Times-Roman;writing-mode:lr-tb;fill:#231f20;fill-opacity:1;fill-rule:nonzero;stroke:none"
       transform="matrix(1,0,0,-1,310.0434,457.1748)"><tspan
         id="tspan168"
         y="0"
         x="0 4.5 9 11.25 13.5 18 22.5 24.75 27 33.408001 37.908001 40.904999 45.404999 49.904999 52.407001 56.403 60.398998">22, 64, workpiece</tspan></text>
<path
       id="path172"
       style="fill:#ffffff;fill-opacity:1;fill-rule:nonzero;stroke:none"
       d="m 310.399,426.279 h 70.04 v 17 h -70.04 z" /><g
       transform="translate(318.899,443.279)"
       id="g174"><path
         id="path176"
         style="fill:none;stroke:#231f20;stroke-width:0.68000001;stroke-linecap:square;stroke-linejoin:miter;stroke-miterlimit:10;stroke-dasharray:none;stroke-opacity:1"
         d="m 0,0 h 53.04 c 4.691,0 8.5,-3.809 8.5,-8.5 0,-4.692 -3.809,-8.5 -8.5,-8.5 H 0 c -4.692,0 -8.5,3.808 -8.5,8.5 0,4.691 3.808,8.5 8.5,8.5 z" /></g><text
       id="text190"
       style="font-variant:normal;font-weight:normal;font-stretch:normal;font-size:9px;font-family:Times;-inkscape-font-specification:Times-Roman;writing-mode:lr-tb;fill:#231f20;fill-opacity:1;fill-rule:nonzero;stroke:none"
       transform="matrix(1,0,0,-1,313.4399,432.6938)"><tspan
         id="tspan178"
         y="0"
         x="0 4.5 9 11.25 13.5 18 22.5 27 29.25 31.004999 37.502998 42.002998 46.502998 49.5 53.865002 58.139999 62.136002">42, 234, Approval</tspan><tspan
         id="tspan180"
         y="-18.135"
         x="-225.37981 -222.87781 -220.37579 -216.8748 -212.3748 -209.8728">its_id</tspan><tspan
         id="tspan182"
         y="4.8150001"
         x="-215.8596 -213.3576 -210.85561 -207.3546 -202.8546 -199.8576 -195.8616 -193.3596 -189.3636 -185.3676 -181.86659">its_release</tspan><tspan
         id="tspan184"
         y="29.2941"
         x="-199.5399 -197.0379 -194.5359 -191.0349 -186.5349 -182.2599 -175.7619 -171.2619 -167.2659">its_owner</tspan><tspan
         id="tspan186"
         y="-16.342199"
         x="-89.401497 -86.899498 -84.397499 -80.8965 -76.3965 -69.988503 -65.488503 -62.491501 -57.991501 -53.491501 -50.989498 -46.9935 -42.997501 -39.001499 -35.5005 -33.2505 -28.2465 -25.2495 -20.7495 -18.247499 -14.2515">its_workpieces S[0:?]</tspan><tspan
         id="tspan188"
         y="7.875"
         x="-89.401497 -86.899498 -84.397499 -80.8965 -76.3965 -72.8955 -70.393501 -66.397499 -63.8955 -59.3955">its_status</tspan></text>
<path
       id="path192"
       style="fill:#ffffff;fill-opacity:1;fill-rule:nonzero;stroke:none"
       d="m 58.14,182.983 h 33.319 v 56.78 H 58.14 Z" /><g
       transform="translate(58.14,239.764)"
       id="g194"><path
         id="path196"
         style="fill:none;stroke:#231f20;stroke-width:0.68000001;stroke-linecap:square;stroke-linejoin:miter;stroke-miterlimit:10;stroke-dasharray:none;stroke-opacity:1"
         d="M 33.319,0 H 0 v -56.78 h 33.319 z" /><g
         id="g198"><path
           id="path200"
           style="fill:none;stroke:#231f20;stroke-width:0.68000001;stroke-linecap:square;stroke-linejoin:miter;stroke-miterlimit:10;stroke-dasharray:none;stroke-opacity:1"
           d="M 0,0 Z" /></g></g><text
       id="text204"
       style="font-variant:normal;font-weight:normal;font-stretch:normal;font-size:9px;font-family:Times;-inkscape-font-specification:Times-Roman;writing-mode:lr-tb;fill:#231f20;fill-opacity:1;fill-rule:nonzero;stroke:none"
       transform="matrix(1,0,0,-1,64.8198,209.4892)"><tspan
         id="tspan202"
         y="0"
         x="0 3.5009999 7.4970002 9.9989996 14.499">setup</tspan></text>
<path
       id="path206"
       style="fill:#ffffff;fill-opacity:1;fill-rule:nonzero;stroke:none"
       d="m 191.42,225.824 h 80.919 v 13.94 H 191.42 Z" /><g
       transform="translate(198.389,239.764)"
       id="g208"><path
         id="path210"
         style="fill:none;stroke:#231f20;stroke-width:0.68000001;stroke-linecap:square;stroke-linejoin:miter;stroke-miterlimit:10;stroke-dasharray:none;stroke-opacity:1"
         d="m 0,0 h 66.982 c 3.845,0 6.968,-3.122 6.968,-6.969 0,-3.847 -3.123,-6.971 -6.968,-6.971 L 0,-13.94 c -3.847,0 -6.969,3.124 -6.969,6.971 C -6.969,-3.122 -3.847,0 0,0 Z" /></g><text
       id="text214"
       style="font-variant:normal;font-weight:normal;font-stretch:normal;font-size:9px;font-family:Times;-inkscape-font-specification:Times-Roman;writing-mode:lr-tb;fill:#231f20;fill-opacity:1;fill-rule:nonzero;stroke:none"
       transform="matrix(1,0,0,-1,202.8501,230.4238)"><tspan
         id="tspan212"
         y="0"
         x="0 4.5 9 11.25 13.5 18 22.5 24.75 27 29.502001 34.001999 37.998001 42.498001 45 47.501999 50.319 52.820999 56.817001">46, 28, identifier</tspan></text>
<path
       id="path216"
       style="fill:#ffffff;fill-opacity:1;fill-rule:nonzero;stroke:none"
       d="m 151.3,204.404 h 121.04 v 13.94 H 151.3 Z" /><g
       transform="translate(158.269,218.345)"
       id="g218"><path
         id="path220"
         style="fill:none;stroke:#231f20;stroke-width:0.68000001;stroke-linecap:square;stroke-linejoin:miter;stroke-miterlimit:10;stroke-dasharray:none;stroke-opacity:1"
         d="m 0,0 h 107.101 c 3.846,0 6.969,-3.122 6.969,-6.971 0,-3.846 -3.123,-6.969 -6.969,-6.969 L 0,-13.94 c -3.847,0 -6.97,3.123 -6.97,6.969 C -6.97,-3.122 -3.847,0 0,0 Z" /></g><text
       id="text224"
       style="font-variant:normal;font-weight:normal;font-stretch:normal;font-size:9px;font-family:Times;-inkscape-font-specification:Times-Roman;writing-mode:lr-tb;fill:#231f20;fill-opacity:1;fill-rule:nonzero;stroke:none"
       transform="matrix(1,0,0,-1,162.3823,209.2773)"><tspan
         id="tspan222"
         y="0"
         x="0 4.5 9 11.25 13.5 18 22.5 24.75 27 30.996 33.498001 37.493999 44.495998 48.492001 52.992001 55.493999 59.490002 62.487 66.987 71.487 74.987999 79.487999 82.485001 85.391998 89.388 93.384003">47, 43, elementary_surface</tspan></text>
<path
       id="path226"
       style="fill:#ffffff;fill-opacity:1;fill-rule:nonzero;stroke:none"
       d="m 149.94,182.983 h 122.399 v 13.94 H 149.94 Z" /><g
       transform="translate(156.91,196.924)"
       id="g228"><path
         id="path230"
         style="fill:none;stroke:#231f20;stroke-width:0.68000001;stroke-linecap:square;stroke-linejoin:miter;stroke-miterlimit:10;stroke-dasharray:none;stroke-opacity:1"
         d="m 0,0 h 108.461 c 3.846,0 6.969,-3.123 6.969,-6.969 0,-3.848 -3.123,-6.971 -6.969,-6.971 L 0,-13.94 c -3.847,0 -6.97,3.123 -6.97,6.971 C -6.97,-3.123 -3.847,0 0,0 Z" /></g><text
       id="text240"
       style="font-variant:normal;font-weight:normal;font-stretch:normal;font-size:9px;font-family:Times;-inkscape-font-specification:Times-Roman;writing-mode:lr-tb;fill:#231f20;fill-opacity:1;fill-rule:nonzero;stroke:none"
       transform="matrix(1,0,0,-1,160.1113,187.8691)"><tspan
         id="tspan232"
         y="0"
         x="0 4.5 9 11.25 13.5 18 22.5 24.75 27 30.996 35.495998 37.998001 41.499001 45.999001 50.499001 54.999001 57.500999 61.497002 65.492996 69.488998 76.490997 80.487 84.987 87.488998 91.988998 96.488998">47, 42, axis2_placement_3d</tspan><tspan
         id="tspan234"
         y="-34.965"
         x="-61.851601 -59.349602 -56.847599 -53.3466 -48.8466 -46.344601">its_id</tspan><tspan
         id="tspan236"
         y="-13.5459"
         x="-61.851601 -59.349602 -56.847599 -53.3466 -48.8466 -45.3456 -41.349602 -37.3536 -32.8536 -30.351601 -26.3556 -21.8556">its_secplane</tspan><tspan
         id="tspan238"
         y="7.875"
         x="-61.851601 -59.349602 -56.847599 -53.3466 -48.8466 -44.3466 -41.349602 -38.847599 -34.347599 -31.8456">its_origin</tspan></text>
<path
       id="path242"
       style="fill:#ffffff;fill-opacity:1;fill-rule:nonzero;stroke:none"
       d="m 57.162,68.871 h 88.392 v 84.321 H 57.162 Z" /><g
       transform="translate(57.162,153.192)"
       id="g244"><path
         id="path246"
         style="fill:none;stroke:#231f20;stroke-width:0.68000001;stroke-linecap:square;stroke-linejoin:miter;stroke-miterlimit:10;stroke-dasharray:none;stroke-opacity:1"
         d="M 88.392,0 H 0 v -84.321 h 88.392 z" /><g
         id="g248"><path
           id="path250"
           style="fill:none;stroke:#231f20;stroke-width:0.68000001;stroke-linecap:square;stroke-linejoin:miter;stroke-miterlimit:10;stroke-dasharray:none;stroke-opacity:1"
           d="M 0,0 Z" /></g></g><text
       id="text254"
       style="font-variant:normal;font-weight:normal;font-stretch:normal;font-size:9px;font-family:Times;-inkscape-font-specification:Times-Roman;writing-mode:lr-tb;fill:#231f20;fill-opacity:1;fill-rule:nonzero;stroke:none"
       transform="matrix(1,0,0,-1,70.746,108.9472)"><tspan
         id="tspan252"
         y="0"
         x="0 6.408 10.908 13.905 18.405001 22.905001 25.407 29.403 33.398998 37.395 41.895 45.396 49.391998 51.894001 56.394001">workpiece_setup</tspan></text>
<g
       transform="translate(74.564,156.56)"
       id="g256"><path
         id="path258"
         style="fill:#ffffff;fill-opacity:1;fill-rule:nonzero;stroke:none"
         d="m 0,0 c 0,1.876 -1.523,3.4 -3.4,3.4 -1.877,0 -3.4,-1.524 -3.4,-3.4 0,-1.878 1.523,-3.4 3.4,-3.4 1.877,0 3.4,1.522 3.4,3.4" /></g><g
       transform="translate(74.564,156.56)"
       id="g260"><path
         id="path262"
         style="fill:none;stroke:#231f20;stroke-width:0.68000001;stroke-linecap:square;stroke-linejoin:miter;stroke-miterlimit:10;stroke-dasharray:none;stroke-opacity:1"
         d="m 0,0 c 0,1.876 -1.523,3.4 -3.4,3.4 -1.877,0 -3.4,-1.524 -3.4,-3.4 0,-1.878 1.523,-3.4 3.4,-3.4 1.877,0 3.4,1.522 3.4,3.4" /></g><text
       id="text266"
       style="font-variant:normal;font-weight:normal;font-stretch:normal;font-size:9px;font-family:Times;-inkscape-font-specification:Times-Roman;writing-mode:lr-tb;fill:#231f20;fill-opacity:1;fill-rule:nonzero;stroke:none"
       transform="matrix(1,0,0,-1,78.2675,166.0996)"><tspan
         id="tspan264"
         y="0"
         x="0 2.5020001 5.0040002 8.5050001 13.005 19.413 23.913 26.91 31.41 35.91 38.411999 42.408001 46.403999 50.400002 54.900002 58.401001 62.396999 64.899002 69.399002 73.899002 76.149002 81.648003 84.644997 89.144997 91.647003 95.642998">its_workpiece_setup L[0:?]</tspan></text>
<path
       id="path268"
       style="fill:#ffffff;fill-opacity:1;fill-rule:nonzero;stroke:none"
       d="m 265.914,136.192 h 68.679 v 17 h -68.679 z" /><g
       transform="translate(274.414,153.192)"
       id="g270"><path
         id="path272"
         style="fill:none;stroke:#231f20;stroke-width:0.68000001;stroke-linecap:square;stroke-linejoin:miter;stroke-miterlimit:10;stroke-dasharray:none;stroke-opacity:1"
         d="m 0,0 h 51.679 c 4.693,0 8.5,-3.809 8.5,-8.5 0,-4.692 -3.807,-8.5 -8.5,-8.5 H 0 c -4.693,0 -8.5,3.808 -8.5,8.5 0,4.691 3.807,8.5 8.5,8.5 z" /></g><text
       id="text276"
       style="font-variant:normal;font-weight:normal;font-stretch:normal;font-size:9px;font-family:Times;-inkscape-font-specification:Times-Roman;writing-mode:lr-tb;fill:#231f20;fill-opacity:1;fill-rule:nonzero;stroke:none"
       transform="matrix(1,0,0,-1,268.2788,142.6074)"><tspan
         id="tspan274"
         y="0"
         x="0 4.5 9 11.25 13.5 18 22.5 24.75 27 33.408001 37.908001 40.904999 45.404999 49.904999 52.407001 56.403 60.398998">22, 48, workpiece</tspan></text>
<path
       id="path278"
       style="fill:#ffffff;fill-opacity:1;fill-rule:nonzero;stroke:none"
       d="m 235.315,114.772 h 99.278 v 13.94 h -99.278 z" /><g
       transform="translate(242.284,128.712)"
       id="g280"><path
         id="path282"
         style="fill:none;stroke:#231f20;stroke-width:0.68000001;stroke-linecap:square;stroke-linejoin:miter;stroke-miterlimit:10;stroke-dasharray:none;stroke-opacity:1"
         d="m 0,0 h 85.341 c 3.847,0 6.969,-3.123 6.969,-6.97 0,-3.848 -3.122,-6.97 -6.969,-6.97 H 0 c -3.847,0 -6.969,3.122 -6.969,6.97 C -6.969,-3.123 -3.847,0 0,0 Z" /></g><text
       id="text286"
       style="font-variant:normal;font-weight:normal;font-stretch:normal;font-size:9px;font-family:Times;-inkscape-font-specification:Times-Roman;writing-mode:lr-tb;fill:#231f20;fill-opacity:1;fill-rule:nonzero;stroke:none"
       transform="matrix(1,0,0,-1,250.2544,119.3711)"><tspan
         id="tspan284"
         y="0"
         x="0 4.5 6.75 9 13.5 18 20.25 22.5 27 29.771999 32.769001 36.27 40.265999 42.768002 47.268002 51.632999 55.629002 59.625 62.126999 66.626999">4, 79, offset_vector</tspan></text>
<path
       id="path288"
       style="fill:#ffffff;fill-opacity:1;fill-rule:nonzero;stroke:none"
       d="m 212.194,93.352 h 122.399 v 13.94 H 212.194 Z" /><g
       transform="translate(219.164,107.292)"
       id="g290"><path
         id="path292"
         style="fill:none;stroke:#231f20;stroke-width:0.68000001;stroke-linecap:square;stroke-linejoin:miter;stroke-miterlimit:10;stroke-dasharray:none;stroke-opacity:1"
         d="m 0,0 h 108.46 c 3.847,0 6.969,-3.123 6.969,-6.971 0,-3.846 -3.122,-6.969 -6.969,-6.969 L 0,-13.94 c -3.848,0 -6.971,3.123 -6.971,6.969 C -6.971,-3.123 -3.848,0 0,0 Z" /></g><text
       id="text296"
       style="font-variant:normal;font-weight:normal;font-stretch:normal;font-size:9px;font-family:Times;-inkscape-font-specification:Times-Roman;writing-mode:lr-tb;fill:#231f20;fill-opacity:1;fill-rule:nonzero;stroke:none"
       transform="matrix(1,0,0,-1,222.3657,98.2373)"><tspan
         id="tspan294"
         y="0"
         x="0 4.5 9 11.25 13.5 18 22.5 24.75 27 30.996 35.495998 37.998001 41.499001 45.999001 50.499001 54.999001 57.500999 61.497002 65.492996 69.488998 76.490997 80.487 84.987 87.488998 91.988998 96.488998">47, 65, axis2_placement_3d</tspan></text>
<path
       id="path298"
       style="fill:#ffffff;fill-opacity:1;fill-rule:nonzero;stroke:none"
       d="m 223.754,68.871 h 110.839 v 17 H 223.754 Z" /><g
       transform="translate(232.254,85.871)"
       id="g300"><path
         id="path302"
         style="fill:none;stroke:#231f20;stroke-width:0.68000001;stroke-linecap:square;stroke-linejoin:miter;stroke-miterlimit:10;stroke-dasharray:none;stroke-opacity:1"
         d="m 0,0 h 93.839 c 4.693,0 8.5,-3.807 8.5,-8.5 0,-4.691 -3.807,-8.5 -8.5,-8.5 H 0 c -4.692,0 -8.5,3.809 -8.5,8.5 0,4.693 3.808,8.5 8.5,8.5 z" /></g><text
       id="text314"
       style="font-variant:normal;font-weight:normal;font-stretch:normal;font-size:9px;font-family:Times;-inkscape-font-specification:Times-Roman;writing-mode:lr-tb;fill:#231f20;fill-opacity:1;fill-rule:nonzero;stroke:none"
       transform="matrix(1,0,0,-1,223.7544,75.042)"><tspan
         id="tspan304"
         y="0"
         x="0 4.5 9 11.25 13.5 18 22.5 27 29.25 31.5 34.497002 38.493 41.993999 44.495998 47.493 49.994999 53.991001 56.493 60.488998 64.988998 69.488998 73.485001 76.482002 80.477997 84.473999 88.973999 92.474998 96.471001 98.973 102.969 106.965">44, 237, restricted_area_select</tspan><tspan
         id="tspan306"
         y="-59.6898"
         x="-71.400597 -68.898598 -66.396599 -62.895599 -58.395599 -51.987598 -47.487598 -44.490601 -39.990601 -35.490601 -32.988602 -28.992599 -24.996599">its_workpiece</tspan><tspan
         id="tspan308"
         y="-36.6021"
         x="-71.400597 -68.898598 -66.396599 -62.895599 -58.395599 -53.895599 -51.1236 -48.126598 -44.625599 -40.629601">its_offset</tspan><tspan
         id="tspan310"
         y="-15.3207"
         x="-71.400597 -68.898598 -66.396599 -62.895599 -58.395599 -53.895599 -50.898602 -48.396599 -43.896599 -41.3946">its_origin</tspan><tspan
         id="tspan312"
         y="7.6293001"
         x="-71.400597 -68.898598 -66.396599 -62.895599 -58.395599 -55.398602 -51.402599 -47.9016 -45.399601 -42.402599 -39.9006 -35.904598 -33.402599 -29.406601 -24.906601 -20.406601 -16.410601 -13.4136 -9.4175997">its_restricted_area</tspan></text>
<path
       id="path316"
       style="fill:#ffffff;fill-opacity:1;fill-rule:nonzero;stroke:none"
       d="m 59.797,4.9521 h 75.48 v 35.359 h -75.48 z" /><g
       transform="translate(59.797,40.312)"
       id="g318"><path
         id="path320"
         style="fill:none;stroke:#231f20;stroke-width:0.68000001;stroke-linecap:square;stroke-linejoin:miter;stroke-miterlimit:10;stroke-dasharray:none;stroke-opacity:1"
         d="M 75.48,0 H 0 v -35.359 h 75.48 z" /><g
         id="g322"><path
           id="path324"
           style="fill:none;stroke:#231f20;stroke-width:0.68000001;stroke-linecap:square;stroke-linejoin:miter;stroke-miterlimit:10;stroke-dasharray:none;stroke-opacity:1"
           d="M 0,0 Z" /></g></g><text
       id="text328"
       style="font-variant:normal;font-weight:normal;font-stretch:normal;font-size:9px;font-family:Times;-inkscape-font-specification:Times-Roman;writing-mode:lr-tb;fill:#231f20;fill-opacity:1;fill-rule:nonzero;stroke:none"
       transform="matrix(1,0,0,-1,66.6967,20.5468)"><tspan
         id="tspan326"
         y="0"
         x="0 3.5009999 7.4970002 9.9989996 14.499 18.999001 23.499001 26.000999 30.500999 34.001999 36.504002 39.500999 44.000999 47.997002 50.499001 53.000999 57.500999">setup_instruction</tspan></text>
<g
       transform="translate(79.868,43.748)"
       id="g330"><path
         id="path332"
         style="fill:#ffffff;fill-opacity:1;fill-rule:nonzero;stroke:none"
         d="m 0,0 c 0,1.876 -1.523,3.4 -3.4,3.4 -1.877,0 -3.4,-1.524 -3.4,-3.4 0,-1.878 1.523,-3.4 3.4,-3.4 1.877,0 3.4,1.522 3.4,3.4" /></g><g
       transform="translate(79.868,43.748)"
       id="g334"><path
         id="path336"
         style="fill:none;stroke:#231f20;stroke-width:0.68000001;stroke-linecap:square;stroke-linejoin:miter;stroke-miterlimit:10;stroke-dasharray:none;stroke-opacity:1"
         d="m 0,0 c 0,1.876 -1.523,3.4 -3.4,3.4 -1.877,0 -3.4,-1.524 -3.4,-3.4 0,-1.878 1.523,-3.4 3.4,-3.4 1.877,0 3.4,1.522 3.4,3.4" /></g><text
       id="text340"
       style="font-variant:normal;font-weight:normal;font-stretch:normal;font-size:9px;font-family:Times;-inkscape-font-specification:Times-Roman;writing-mode:lr-tb;fill:#231f20;fill-opacity:1;fill-rule:nonzero;stroke:none"
       transform="matrix(1,0,0,-1,82.165,56.6836)"><tspan
         id="tspan338"
         y="0"
         x="0 2.5020001 5.0040002 8.5050001 13.005 15.507 20.007 23.507999 26.01 29.007 33.507 37.502998 40.005001 42.507 47.007 51.507 55.007999 57.257999 62.757 65.753998 70.253998 72.755997 76.751999">its_instructions L[0:?]</tspan></text>
<path
       id="path342"
       style="fill:#ffffff;fill-opacity:1;fill-rule:nonzero;stroke:none"
       d="m 233.877,26.371 h 64.6 v 13.94 h -64.6 z" /><g
       transform="translate(240.848,40.312)"
       id="g344"><path
         id="path346"
         style="fill:none;stroke:#231f20;stroke-width:0.68000001;stroke-linecap:square;stroke-linejoin:miter;stroke-miterlimit:10;stroke-dasharray:none;stroke-opacity:1"
         d="m 0,0 h 50.659 c 3.847,0 6.97,-3.123 6.97,-6.97 0,-3.847 -3.123,-6.97 -6.97,-6.97 H 0 c -3.849,0 -6.971,3.123 -6.971,6.97 C -6.971,-3.123 -3.849,0 0,0 Z" /></g><text
       id="text350"
       style="font-variant:normal;font-weight:normal;font-stretch:normal;font-size:9px;font-family:Times;-inkscape-font-specification:Times-Roman;writing-mode:lr-tb;fill:#231f20;fill-opacity:1;fill-rule:nonzero;stroke:none"
       transform="matrix(1,0,0,-1,245.9897,31.0722)"><tspan
         id="tspan348"
         y="0"
         x="0 4.5 9 11.25 13.5 18 22.5 24.75 27 29.502001 33.362999 37.862999">46, 83, text</tspan></text>
<path
       id="path352"
       style="fill:#ffffff;fill-opacity:1;fill-rule:nonzero;stroke:none"
       d="m 217.558,4.9521 h 80.919 v 13.94 h -80.919 z" /><g
       transform="translate(224.527,18.893)"
       id="g354"><path
         id="path356"
         style="fill:none;stroke:#231f20;stroke-width:0.68000001;stroke-linecap:square;stroke-linejoin:miter;stroke-miterlimit:10;stroke-dasharray:none;stroke-opacity:1"
         d="m 0,0 h 66.98 c 3.847,0 6.97,-3.123 6.97,-6.972 0,-3.846 -3.123,-6.968 -6.97,-6.968 H 0 c -3.848,0 -6.969,3.122 -6.969,6.968 C -6.969,-3.123 -3.848,0 0,0 Z" /></g><text
       id="text364"
       style="font-variant:normal;font-weight:normal;font-stretch:normal;font-size:9px;font-family:Times;-inkscape-font-specification:Times-Roman;writing-mode:lr-tb;fill:#231f20;fill-opacity:1;fill-rule:nonzero;stroke:none"
       transform="matrix(1,0,0,-1,228.9877,9.5517)"><tspan
         id="tspan358"
         y="0"
         x="0 4.5 9 11.25 13.5 18 22.5 24.75 27 29.502001 34.001999 37.998001 42.498001 45 47.501999 50.319 52.820999 56.817001">46, 76, identifier</tspan><tspan
         id="tspan360"
         y="-13.8294"
         x="-86.910301 -82.410301 -78.414299 -74.9133 -70.917297 -67.920303 -65.418297 -60.918301 -58.416302 -55.914299 -51.414299">description</tspan><tspan
         id="tspan362"
         y="7.5897002"
         x="-86.910301 -83.049301 -78.549301 -76.047302 -72.0513 -69.054298 -64.554298 -60.5583 -58.056301 -53.556301 -49.056301 -44.556301 -40.560299 -36.060299 -29.0583 -25.0623 -20.5623">external_document</tspan></text>
<g
       transform="translate(77.012,243.158)"
       id="g366"><path
         id="path368"
         style="fill:#ffffff;fill-opacity:1;fill-rule:nonzero;stroke:none"
         d="m 0,0 c 0,1.876 -1.523,3.4 -3.4,3.4 -1.877,0 -3.4,-1.524 -3.4,-3.4 0,-1.877 1.523,-3.4 3.4,-3.4 1.877,0 3.4,1.523 3.4,3.4" /></g><g
       transform="translate(77.012,243.158)"
       id="g370"><path
         id="path372"
         style="fill:none;stroke:#231f20;stroke-width:0.68000001;stroke-linecap:square;stroke-linejoin:miter;stroke-miterlimit:10;stroke-dasharray:none;stroke-opacity:1"
         d="m 0,0 c 0,1.876 -1.523,3.4 -3.4,3.4 -1.877,0 -3.4,-1.524 -3.4,-3.4 0,-1.877 1.523,-3.4 3.4,-3.4 1.877,0 3.4,1.523 3.4,3.4" /></g><path
       id="path374"
       style="fill:#ffffff;fill-opacity:1;fill-rule:nonzero;stroke:none"
       d="m 58.267,276.187 h 47.43 v 84.32 h -47.43 z" /><g
       transform="translate(58.267,360.507)"
       id="g376"><path
         id="path378"
         style="fill:none;stroke:#231f20;stroke-width:0.68000001;stroke-linecap:square;stroke-linejoin:miter;stroke-miterlimit:10;stroke-dasharray:none;stroke-opacity:1"
         d="M 47.43,0 H 0 v -84.32 h 47.43 z" /><g
         id="g380"><path
           id="path382"
           style="fill:none;stroke:#231f20;stroke-width:0.68000001;stroke-linecap:square;stroke-linejoin:miter;stroke-miterlimit:10;stroke-dasharray:none;stroke-opacity:1"
           d="M 0,0 Z" /></g></g><text
       id="text388"
       style="font-variant:normal;font-weight:normal;font-stretch:normal;font-size:9px;font-family:Times;-inkscape-font-specification:Times-Roman;writing-mode:lr-tb;fill:#231f20;fill-opacity:1;fill-rule:nonzero;stroke:none"
       transform="matrix(1,0,0,-1,65.6582,316.2622)"><tspan
         id="tspan384"
         y="0"
         x="0 6.408 10.908 13.905 18.405001 22.905001 25.407 29.403">workplan</tspan><tspan
         id="tspan386"
         y="49.035599"
         x="14.2119 16.7139 19.2159 22.7169 27.2169 30.717899 34.713902 37.2159 41.7159">its_setup</tspan></text>
<g
       transform="translate(100.778,363.926)"
       id="g390"><path
         id="path392"
         style="fill:#ffffff;fill-opacity:1;fill-rule:nonzero;stroke:none"
         d="m 0,0 c 0,1.877 -1.523,3.4 -3.4,3.4 -1.877,0 -3.4,-1.523 -3.4,-3.4 0,-1.877 1.523,-3.4 3.4,-3.4 1.877,0 3.4,1.523 3.4,3.4" /></g><g
       transform="translate(100.778,363.926)"
       id="g394"><path
         id="path396"
         style="fill:none;stroke:#231f20;stroke-width:0.68000001;stroke-linecap:square;stroke-linejoin:miter;stroke-miterlimit:10;stroke-dasharray:none;stroke-opacity:1"
         d="m 0,0 c 0,1.877 -1.523,3.4 -3.4,3.4 -1.877,0 -3.4,-1.523 -3.4,-3.4 0,-1.877 1.523,-3.4 3.4,-3.4 1.877,0 3.4,1.523 3.4,3.4" /></g><text
       id="text400"
       style="font-variant:normal;font-weight:normal;font-stretch:normal;font-size:9px;font-family:Times;-inkscape-font-specification:Times-Roman;writing-mode:lr-tb;fill:#231f20;fill-opacity:1;fill-rule:nonzero;stroke:none"
       transform="matrix(1,0,0,-1,175.7075,389.6635)"><tspan
         id="tspan398"
         y="0"
         x="0 7.0019999 10.998 13.5 18 22.5 28.908001 33.408001 36.404999 40.904999 45.404999 47.907001 51.903">main_workplan</tspan></text>
<g
       transform="translate(73.339,363.926)"
       id="g402"><path
         id="path404"
         style="fill:#ffffff;fill-opacity:1;fill-rule:nonzero;stroke:none"
         d="m 0,0 c 0,1.877 -1.523,3.4 -3.4,3.4 -1.877,0 -3.4,-1.523 -3.4,-3.4 0,-1.877 1.523,-3.4 3.4,-3.4 1.877,0 3.4,1.523 3.4,3.4" /></g><g
       transform="translate(73.339,363.926)"
       id="g406"><path
         id="path408"
         style="fill:none;stroke:#231f20;stroke-width:0.68000001;stroke-linecap:square;stroke-linejoin:miter;stroke-miterlimit:10;stroke-dasharray:none;stroke-opacity:1"
         d="m 0,0 c 0,1.877 -1.523,3.4 -3.4,3.4 -1.877,0 -3.4,-1.523 -3.4,-3.4 0,-1.877 1.523,-3.4 3.4,-3.4 1.877,0 3.4,1.523 3.4,3.4" /></g><path
       id="path410"
       style="fill:#ffffff;fill-opacity:1;fill-rule:nonzero;stroke:none"
       d="m 253.937,343.507 h 91.121 v 17 h -91.121 z" /><g
       transform="translate(262.437,360.507)"
       id="g412"><path
         id="path414"
         style="fill:none;stroke:#231f20;stroke-width:0.68000001;stroke-linecap:square;stroke-linejoin:miter;stroke-miterlimit:10;stroke-dasharray:none;stroke-opacity:1"
         d="m 0,0 h 74.121 c 4.692,0 8.5,-3.808 8.5,-8.5 0,-4.692 -3.808,-8.5 -8.5,-8.5 H 0 c -4.692,0 -8.5,3.808 -8.5,8.5 0,4.692 3.808,8.5 8.5,8.5 z" /></g><text
       id="text418"
       style="font-variant:normal;font-weight:normal;font-stretch:normal;font-size:9px;font-family:Times;-inkscape-font-specification:Times-Roman;writing-mode:lr-tb;fill:#231f20;fill-opacity:1;fill-rule:nonzero;stroke:none"
       transform="matrix(1,0,0,-1,257.5424,349.8447)"><tspan
         id="tspan416"
         y="0"
         x="0 4.5 6.75 9 13.5 18 20.25 22.5 25.497 31.995001 37.998001 43.001999 45.999001 49.860001 54.224998 58.221001 62.216999 66.717003 69.219002 73.214996 77.714996 80.217003">2, 29, (ABS)executable</tspan></text>
<path
       id="path420"
       style="fill:#ffffff;fill-opacity:1;fill-rule:nonzero;stroke:none"
       d="m 277.737,321.027 h 67.321 v 17 h -67.321 z" /><g
       transform="translate(286.237,338.027)"
       id="g422"><path
         id="path424"
         style="fill:none;stroke:#231f20;stroke-width:0.68000001;stroke-linecap:square;stroke-linejoin:miter;stroke-miterlimit:10;stroke-dasharray:none;stroke-opacity:1"
         d="m 0,0 h 50.321 c 4.692,0 8.5,-3.809 8.5,-8.5 0,-4.692 -3.808,-8.5 -8.5,-8.5 H 0 c -4.691,0 -8.5,3.808 -8.5,8.5 0,4.691 3.809,8.5 8.5,8.5 z" /></g><text
       id="text428"
       style="font-variant:normal;font-weight:normal;font-stretch:normal;font-size:9px;font-family:Times;-inkscape-font-specification:Times-Roman;writing-mode:lr-tb;fill:#231f20;fill-opacity:1;fill-rule:nonzero;stroke:none"
       transform="matrix(1,0,0,-1,283.4995,327.1972)"><tspan
         id="tspan426"
         y="0"
         x="0 4.5 6.75 9 13.5 18 22.5 24.75 27 30.996 35.495998 39.492001 43.992001 48.492001 52.487999">2, 236, channel</tspan></text>
<path
       id="path430"
       style="fill:#ffffff;fill-opacity:1;fill-rule:nonzero;stroke:none"
       d="m 226.737,301.187 h 118.321 v 13.939 H 226.737 Z" /><g
       transform="translate(233.707,315.126)"
       id="g432"><path
         id="path434"
         style="fill:none;stroke:#231f20;stroke-width:0.68000001;stroke-linecap:square;stroke-linejoin:miter;stroke-miterlimit:10;stroke-dasharray:none;stroke-opacity:1"
         d="m 0,0 h 104.379 c 3.849,0 6.972,-3.122 6.972,-6.969 0,-3.848 -3.123,-6.97 -6.972,-6.97 H 0 c -3.848,0 -6.971,3.122 -6.971,6.97 C -6.971,-3.122 -3.848,0 0,0 Z" /></g><text
       id="text444"
       style="font-variant:normal;font-weight:normal;font-stretch:normal;font-size:9px;font-family:Times;-inkscape-font-specification:Times-Roman;writing-mode:lr-tb;fill:#231f20;fill-opacity:1;fill-rule:nonzero;stroke:none"
       transform="matrix(1,0,0,-1,233.9663,306.0717)"><tspan
         id="tspan436"
         y="0"
         x="0 4.5 9 11.25 13.5 18 22.5 24.75 27 34.001999 37.998001 41.993999 46.493999 48.995998 53.495998 57.492001 61.992001 66.491997 70.487999 73.485001 77.481003 84.483002 88.478996 90.981003 94.976997 97.973999">43, 90, machine_parameters</tspan><tspan
         id="tspan438"
         y="-35.850601"
         x="-121.4694 -118.9674 -116.4654 -112.9644 -108.4644 -104.4684 -101.9664 -97.970398 -90.968399 -86.972397 -82.472397 -79.970398 -76.469398 -74.219398 -68.720398 -65.723396 -61.2234 -58.721401 -54.725399">its_elements L[0:?]</tspan><tspan
         id="tspan440"
         y="-13.4955"
         x="-121.4694 -118.9674 -116.4654 -112.9644 -108.4644 -104.4684 -99.968399 -95.972397 -91.472397 -86.972397 -82.976402">its_channel</tspan><tspan
         id="tspan442"
         y="7.875"
         x="-121.4694 -118.9674 -116.4654 -112.9644 -108.4644 -101.4624 -98.960403 -94.460403 -91.958397 -84.956398 -80.456398 -73.454399 -68.954399 -61.9524 -57.956402 -53.9604 -49.4604 -46.958401 -42.458401 -38.462399 -33.962399 -29.4624 -25.4664 -22.4694 -18.4734 -11.4714">its_minimum_machine_params</tspan></text>
<path
       id="path446"
       style="fill:#ffffff;fill-opacity:1;fill-rule:nonzero;stroke:none"
       d="m 223.156,280.199 h 122.399 v 13.94 H 223.156 Z" /><g
       transform="translate(230.126,294.139)"
       id="g448"><path
         id="path450"
         style="fill:none;stroke:#231f20;stroke-width:0.68000001;stroke-linecap:square;stroke-linejoin:miter;stroke-miterlimit:10;stroke-dasharray:none;stroke-opacity:1"
         d="m 0,0 h 108.46 c 3.847,0 6.969,-3.123 6.969,-6.971 0,-3.846 -3.122,-6.969 -6.969,-6.969 L 0,-13.94 c -3.848,0 -6.971,3.123 -6.971,6.969 C -6.971,-3.123 -3.848,0 0,0 Z" /></g><text
       id="text456"
       style="font-variant:normal;font-weight:normal;font-stretch:normal;font-size:9px;font-family:Times;-inkscape-font-specification:Times-Roman;writing-mode:lr-tb;fill:#231f20;fill-opacity:1;fill-rule:nonzero;stroke:none"
       transform="matrix(1,0,0,-1,233.3276,285.0844)"><tspan
         id="tspan452"
         y="0"
         x="0 4.5 9 11.25 13.5 18 22.5 24.75 27 30.996 35.495998 37.998001 41.499001 45.999001 50.499001 54.999001 57.500999 61.497002 65.492996 69.488998 76.490997 80.487 84.987 87.488998 91.988998 96.488998">47, 65, axis2_placement_3d</tspan><tspan
         id="tspan454"
         y="7.875"
         x="-122.0121 -119.5101 -115.0101 -110.5101 -108.0081 -103.5081 -99.5121 -97.010101 -92.510101 -88.010101 -83.510101 -80.5131 -78.011101 -74.015099 -69.515099 -67.0131 -63.017101 -60.515099 -58.0131 -53.5131">toolpath_orientation</tspan></text>
</g></svg>