<?xml version="1.0" encoding="UTF-8" standalone="no"?>
<svg
   xmlns:dc="http://purl.org/dc/elements/1.1/"
   xmlns:cc="http://creativecommons.org/ns#"
   xmlns:rdf="http://www.w3.org/1999/02/22-rdf-syntax-ns#"
   xmlns:svg="http://www.w3.org/2000/svg"
   xmlns="http://www.w3.org/2000/svg"
   viewBox="0 0 250.976 148.82533"
   height="148.82533"
   width="250.976"
   xml:space="preserve"
   id="svg2"
   version="1.1"><metadata
     id="metadata8"><rdf:RDF><cc:Work
         rdf:about=""><dc:format>image/svg+xml</dc:format><dc:type
           rdf:resource="http://purl.org/dc/dcmitype/StillImage" /></cc:Work></rdf:RDF></metadata><defs
     id="defs6" /><g
     transform="matrix(1.3333333,0,0,-1.3333333,0,148.82533)"
     id="g10"><g
       transform="translate(187.783,37.354)"
       id="g12"><path
         id="path14"
         style="fill:none;stroke:#000000;stroke-width:0.89999998;stroke-linecap:butt;stroke-linejoin:miter;stroke-miterlimit:4;stroke-dasharray:none;stroke-opacity:1"
         d="m 0,0 c 0,-19.33 -41.936,-35 -93.666,-35 -51.731,0 -93.667,15.67 -93.667,35 0,19.33 41.936,35 93.667,35 C -41.936,35 0,19.33 0,0 Z" /></g><g
       transform="translate(94.14,109.687)"
       id="g16"><path
         id="path18"
         style="fill:none;stroke:#000000;stroke-width:0.89999998;stroke-linecap:butt;stroke-linejoin:miter;stroke-miterlimit:4;stroke-dasharray:none;stroke-opacity:1"
         d="m 0,0 v -72.333 h 58.976 c 13.991,0 25.334,5.223 25.334,11.667 0,6.443 -11.343,11.666 -25.334,11.666 -3.804,0 -7.412,-0.386 -10.649,-1.077 l -30.184,-5.756 v 51.666" /></g><g
       transform="translate(111.36,107.646)"
       id="g20"><path
         id="path22"
         style="fill:#000000;fill-opacity:1;fill-rule:nonzero;stroke:none"
         d="m 0,0 c -0.45,-1.488 -0.864,-2.455 -1.343,-3.648 h 4.54 C 2.995,-3.222 2.304,-1.488 1.855,0 1.374,1.593 1.044,3.037 0.927,3.973 0.81,3.037 0.481,1.593 0,0" /></g><g
       transform="translate(96.288,3.1973)"
       id="g24"><path
         id="path26"
         style="fill:#000000;fill-opacity:1;fill-rule:nonzero;stroke:none"
         d="m 0,0 c -1.488,0.4492 -2.455,0.8632 -3.648,1.3427 v -4.54 c 0.426,0.2021 2.16,0.8926 3.648,1.3418 1.593,0.4814 3.036,0.8105 3.973,0.9277 C 3.036,-0.8106 1.593,-0.4815 0,0" /></g><g
       transform="translate(81.945,70.927)"
       id="g28"><path
         id="path30"
         style="fill:#000000;fill-opacity:1;fill-rule:nonzero;stroke:none"
         d="m 0,0 c 1.488,-0.45 2.455,-0.864 3.648,-1.343 v 4.54 C 3.222,2.994 1.488,2.304 0,1.854 -1.593,1.373 -3.036,1.044 -3.973,0.927 -3.036,0.81 -1.593,0.48 0,0" /></g><g
       transform="translate(95.044,97.016)"
       id="g32"><path
         id="path34"
         style="fill:#000000;fill-opacity:1;fill-rule:nonzero;stroke:none"
         d="m 0,0 c 0.45,1.488 0.864,2.455 1.343,3.648 h -4.54 C -2.994,3.222 -2.304,1.488 -1.854,0 -1.373,-1.593 -1.044,-3.036 -0.927,-3.973 -0.81,-3.036 -0.48,-1.593 0,0" /></g></g></svg>