<?xml version="1.0" encoding="UTF-8" standalone="no"?>
<svg
   xmlns:dc="http://purl.org/dc/elements/1.1/"
   xmlns:cc="http://creativecommons.org/ns#"
   xmlns:rdf="http://www.w3.org/1999/02/22-rdf-syntax-ns#"
   xmlns:svg="http://www.w3.org/2000/svg"
   xmlns="http://www.w3.org/2000/svg"
   viewBox="0 0 587.38666 153.57333"
   height="153.57333"
   width="587.38666"
   xml:space="preserve"
   id="svg2"
   version="1.1"><metadata
     id="metadata8"><rdf:RDF><cc:Work
         rdf:about=""><dc:format>image/svg+xml</dc:format><dc:type
           rdf:resource="http://purl.org/dc/dcmitype/StillImage" /></cc:Work></rdf:RDF></metadata><defs
     id="defs6"><clipPath
       id="clipPath220"
       clipPathUnits="userSpaceOnUse"><path
         id="path218"
         d="m 272.231,55.681 9,6 10.333,3.333 7.334,-3.666 6.333,-2.334 -1,-8 3.333,-6.666 -4.666,-7.334 -7,-5.666 -23.667,24.333" /></clipPath></defs><g
     transform="matrix(1.3333333,0,0,-1.3333333,0,153.57333)"
     id="g10"><g
       transform="translate(37.589,20.682)"
       id="g12"><path
         id="path14"
         style="fill:#231f20;fill-opacity:1;fill-rule:nonzero;stroke:#231f20;stroke-width:0.296;stroke-linecap:butt;stroke-linejoin:miter;stroke-miterlimit:4;stroke-dasharray:none;stroke-opacity:1"
         d="M 0,0 V 7" /></g><g
       transform="translate(37.285,28.381)"
       id="g16"><path
         id="path18"
         style="fill:#231f20;fill-opacity:1;fill-rule:nonzero;stroke:none"
         d="M 0,0 C -0.148,-0.49 -0.284,-0.808 -0.441,-1.201 H 1.053 C 0.985,-1.061 0.759,-0.49 0.61,0 0.452,0.524 0.344,0.999 0.306,1.307 0.267,0.999 0.158,0.524 0,0" /></g><g
       transform="translate(37.892,19.982)"
       id="g20"><path
         id="path22"
         style="fill:#231f20;fill-opacity:1;fill-rule:nonzero;stroke:none"
         d="M 0,0 C 0.148,0.49 0.284,0.808 0.441,1.201 H -1.052 C -0.985,1.06 -0.758,0.49 -0.61,0 -0.452,-0.524 -0.344,-0.999 -0.305,-1.307 -0.267,-0.999 -0.158,-0.524 0,0" /></g><g
       transform="translate(43.255,14.182)"
       id="g24"><path
         id="path26"
         style="fill:#231f20;fill-opacity:1;fill-rule:nonzero;stroke:#231f20;stroke-width:0.331;stroke-linecap:butt;stroke-linejoin:miter;stroke-miterlimit:4;stroke-dasharray:none;stroke-opacity:1"
         d="M 0,0 H 6.5" /></g><g
       transform="translate(50.536,14.521)"
       id="g28"><path
         id="path30"
         style="fill:#231f20;fill-opacity:1;fill-rule:nonzero;stroke:none"
         d="m 0,0 c -0.546,0.165 -0.902,0.317 -1.34,0.493 v -1.667 c 0.157,0.074 0.794,0.328 1.34,0.493 0.584,0.177 1.115,0.297 1.459,0.34 C 1.115,-0.297 0.584,-0.177 0,0" /></g><g
       transform="translate(42.474,13.843)"
       id="g32"><path
         id="path34"
         style="fill:#231f20;fill-opacity:1;fill-rule:nonzero;stroke:none"
         d="M 0,0 C 0.546,-0.165 0.902,-0.317 1.34,-0.493 V 1.174 C 1.183,1.1 0.546,0.846 0,0.681 -0.584,0.504 -1.115,0.384 -1.459,0.341 -1.115,0.297 -0.584,0.177 0,0" /></g><text
       id="text38"
       style="font-variant:normal;font-weight:normal;font-stretch:normal;font-size:10px;font-family:Helvetica;-inkscape-font-specification:Helvetica;writing-mode:lr-tb;fill:#231f20;fill-opacity:1;fill-rule:nonzero;stroke:none"
       transform="matrix(1,0,0,-1,3.979,45.3179)"><tspan
         id="tspan36"
         y="0"
         x="0 6.6700001">AD</tspan></text>
<text
       id="text42"
       style="font-variant:normal;font-weight:normal;font-stretch:normal;font-size:8px;font-family:Helvetica;-inkscape-font-specification:Helvetica;writing-mode:lr-tb;fill:#231f20;fill-opacity:1;fill-rule:nonzero;stroke:none"
       transform="matrix(1,0,0,-1,17.8706,45.3179)"><tspan
         id="tspan40"
         y="0"
         x="0 6.664 11.112">max</tspan></text>
<text
       id="text46"
       style="font-variant:normal;font-weight:normal;font-stretch:normal;font-size:10px;font-family:Helvetica;-inkscape-font-specification:Helvetica;writing-mode:lr-tb;fill:#231f20;fill-opacity:1;fill-rule:nonzero;stroke:none"
       transform="matrix(1,0,0,-1,17.5041,3.1509)"><tspan
         id="tspan44"
         y="0"
         x="0">X</tspan></text>
<text
       id="text50"
       style="font-variant:normal;font-weight:normal;font-stretch:normal;font-size:8px;font-family:Helvetica;-inkscape-font-specification:Helvetica;writing-mode:lr-tb;fill:#231f20;fill-opacity:1;fill-rule:nonzero;stroke:none"
       transform="matrix(1,0,0,-1,24.174,3.1509)"><tspan
         id="tspan48"
         y="0"
         x="0 6.664 11.112 15.112 19.559999 21.784">maxofs</tspan></text>
<text
       id="text54"
       style="font-variant:normal;font-weight:normal;font-stretch:normal;font-size:10px;font-family:Helvetica;-inkscape-font-specification:Helvetica;writing-mode:lr-tb;fill:#231f20;fill-opacity:1;fill-rule:nonzero;stroke:none"
       transform="matrix(1,0,0,-1,0,21.9844)"><tspan
         id="tspan52"
         y="0"
         x="0">Y</tspan></text>
<text
       id="text58"
       style="font-variant:normal;font-weight:normal;font-stretch:normal;font-size:8px;font-family:Helvetica;-inkscape-font-specification:Helvetica;writing-mode:lr-tb;fill:#231f20;fill-opacity:1;fill-rule:nonzero;stroke:none"
       transform="matrix(1,0,0,-1,6.6699,21.9844)"><tspan
         id="tspan56"
         y="0"
         x="0 6.664 11.112 15.112 19.559999 21.784">maxofs</tspan></text>
<text
       id="text64"
       style="font-variant:normal;font-weight:normal;font-stretch:normal;font-size:9px;font-family:Helvetica;-inkscape-font-specification:Helvetica;writing-mode:lr-tb;fill:#231f20;fill-opacity:1;fill-rule:nonzero;stroke:none"
       transform="matrix(1,0,0,-1,128.2829,10.876)"><tspan
         id="tspan60"
         y="0"
         x="0">x</tspan><tspan
         id="tspan62"
         y="-61.615799"
         x="-93.204002">y</tspan></text>
<g
       transform="translate(41.804,17.856)"
       id="g66"><path
         id="path68"
         style="fill:none;stroke:#231f20;stroke-width:0.5;stroke-linecap:butt;stroke-linejoin:miter;stroke-miterlimit:4;stroke-dasharray:none;stroke-opacity:1"
         d="M 0,0 V 59.783" /></g><g
       transform="translate(41.419,78.526)"
       id="g70"><path
         id="path72"
         style="fill:#231f20;fill-opacity:1;fill-rule:nonzero;stroke:none"
         d="M 0,0 C -0.187,-0.621 -0.359,-1.023 -0.56,-1.521 H 1.332 C 1.248,-1.344 0.96,-0.621 0.773,0 0.572,0.662 0.436,1.266 0.387,1.654 0.338,1.266 0.2,0.662 0,0" /></g><g
       transform="translate(41.835,18.07)"
       id="g74"><path
         id="path76"
         style="fill:none;stroke:#231f20;stroke-width:0.5;stroke-linecap:butt;stroke-linejoin:miter;stroke-miterlimit:4;stroke-dasharray:none;stroke-opacity:1"
         d="M 0,0 H 92.783" /></g><g
       transform="translate(135.505,18.455)"
       id="g78"><path
         id="path80"
         style="fill:#231f20;fill-opacity:1;fill-rule:nonzero;stroke:none"
         d="m 0,0 c -0.621,0.188 -1.023,0.359 -1.521,0.56 v -1.892 c 0.177,0.084 0.9,0.372 1.521,0.559 0.662,0.201 1.266,0.338 1.654,0.386 C 1.266,-0.338 0.662,-0.2 0,0" /></g><text
       id="text86"
       style="font-variant:normal;font-weight:normal;font-stretch:normal;font-size:10px;font-family:Helvetica;-inkscape-font-specification:Helvetica;writing-mode:lr-tb;fill:#231f20;fill-opacity:1;fill-rule:nonzero;stroke:none"
       transform="matrix(1,0,0,-1,143.1193,34.2495)"><tspan
         id="tspan82"
         y="0"
         x="0 8.3299999 13.89 18.889999 21.07 23.85 27.08 32.639999 38.200001 40.419998 45.98 48.200001 50.98 56.540001 62.099998 67.660004 70.440002">Max. radial and </tspan><tspan
         id="tspan84"
         y="12"
         x="8.54 14.1 19.1 21.32 26.879999 29.1 31.879999 37.439999 43 48.560001 51.34 56.900002">axial depths</tspan></text>
<g
       transform="translate(90.576,44.725)"
       id="g88"><path
         id="path90"
         style="fill:#e6e6e6;fill-opacity:1;fill-rule:nonzero;stroke:#000000;stroke-width:0.47099999;stroke-linecap:butt;stroke-linejoin:miter;stroke-miterlimit:4;stroke-dasharray:none;stroke-opacity:1"
         d="m 0,0 v 70.219 h 126.825 c 0,0 8.956,-12.897 0,-21.137 -8.957,-8.24 0,-23.287 0,-23.287 H 65.204 C 60.546,17.555 64.487,14.331 57.322,5.732 50.157,-2.866 0,0 0,0 Z" /></g><g
       transform="translate(138.251,66.19)"
       id="g92"><path
         id="path94"
         style="fill:#ffffff;fill-opacity:1;fill-rule:nonzero;stroke:#000000;stroke-width:0.60600001;stroke-linecap:butt;stroke-linejoin:miter;stroke-miterlimit:4;stroke-dasharray:none;stroke-opacity:1"
         d="M 0,0 -48.389,-47.237 -95.627,1.152 -47.237,48.39 Z" /></g><g
       transform="translate(54.172,55.682)"
       id="g96"><path
         id="path98"
         style="fill:#d1d3d4;fill-opacity:1;fill-rule:nonzero;stroke:#231f20;stroke-width:0.5;stroke-linecap:butt;stroke-linejoin:miter;stroke-miterlimit:4;stroke-dasharray:none;stroke-opacity:1"
         d="M 0,0 9,6 19.333,9.333 26.666,5.667 33,3.333 l -1,-8 3.333,-6.666 -4.667,-7.334 -7,-5.666 z" /></g><path
       id="path100"
       style="fill:#231f20;fill-opacity:1;fill-rule:nonzero;stroke:#231f20;stroke-width:0.38499999;stroke-linecap:butt;stroke-linejoin:miter;stroke-miterlimit:4;stroke-dasharray:4;stroke-dashoffset:0;stroke-opacity:1"
       d="M 90.505,66.015 90.339,25.848" /><path
       id="path102"
       style="fill:#231f20;fill-opacity:1;fill-rule:nonzero;stroke:#231f20;stroke-width:0.57499999;stroke-linecap:butt;stroke-linejoin:miter;stroke-miterlimit:4;stroke-dasharray:4;stroke-dashoffset:0;stroke-opacity:1"
       d="M 50.172,66.015 H 90.505" /><g
       transform="translate(37.589,33.348)"
       id="g104"><path
         id="path106"
         style="fill:#231f20;fill-opacity:1;fill-rule:nonzero;stroke:#231f20;stroke-width:0.296;stroke-linecap:butt;stroke-linejoin:miter;stroke-miterlimit:4;stroke-dasharray:none;stroke-opacity:1"
         d="M 0,0 V 30" /></g><g
       transform="translate(37.285,64.048)"
       id="g108"><path
         id="path110"
         style="fill:#231f20;fill-opacity:1;fill-rule:nonzero;stroke:none"
         d="M 0,0 C -0.148,-0.49 -0.284,-0.808 -0.441,-1.201 H 1.052 C 0.985,-1.061 0.758,-0.49 0.61,0 0.452,0.524 0.344,0.999 0.305,1.307 0.267,0.999 0.158,0.524 0,0" /></g><g
       transform="translate(37.893,32.648)"
       id="g112"><path
         id="path114"
         style="fill:#231f20;fill-opacity:1;fill-rule:nonzero;stroke:none"
         d="M 0,0 C 0.147,0.49 0.284,0.808 0.441,1.201 H -1.053 C -0.985,1.061 -0.759,0.49 -0.61,0 -0.452,-0.524 -0.344,-0.999 -0.306,-1.307 -0.267,-0.999 -0.158,-0.524 0,0" /></g><g
       transform="translate(56.589,14.348)"
       id="g116"><path
         id="path118"
         style="fill:#231f20;fill-opacity:1;fill-rule:nonzero;stroke:#231f20;stroke-width:0.331;stroke-linecap:butt;stroke-linejoin:miter;stroke-miterlimit:4;stroke-dasharray:none;stroke-opacity:1"
         d="M 0,0 H 30.5" /></g><g
       transform="translate(87.869,14.687)"
       id="g120"><path
         id="path122"
         style="fill:#231f20;fill-opacity:1;fill-rule:nonzero;stroke:none"
         d="m 0,0 c -0.546,0.165 -0.901,0.317 -1.34,0.493 v -1.667 c 0.157,0.074 0.794,0.328 1.34,0.493 0.585,0.177 1.115,0.297 1.459,0.34 C 1.115,-0.297 0.585,-0.177 0,0" /></g><g
       transform="translate(55.808,14.009)"
       id="g124"><path
         id="path126"
         style="fill:#231f20;fill-opacity:1;fill-rule:nonzero;stroke:none"
         d="M 0,0 C 0.547,-0.165 0.902,-0.317 1.341,-0.493 V 1.174 C 1.184,1.1 0.547,0.846 0,0.681 -0.584,0.504 -1.114,0.384 -1.459,0.341 -1.114,0.297 -0.584,0.177 0,0" /></g><text
       id="text130"
       style="font-variant:normal;font-weight:normal;font-stretch:normal;font-size:10px;font-family:Helvetica;-inkscape-font-specification:Helvetica;writing-mode:lr-tb;fill:#231f20;fill-opacity:1;fill-rule:nonzero;stroke:none"
       transform="matrix(1,0,0,-1,58.6174,3.1509)"><tspan
         id="tspan128"
         y="0"
         x="0 7.2199998">RD</tspan></text>
<text
       id="text134"
       style="font-variant:normal;font-weight:normal;font-stretch:normal;font-size:8px;font-family:Helvetica;-inkscape-font-specification:Helvetica;writing-mode:lr-tb;fill:#231f20;fill-opacity:1;fill-rule:nonzero;stroke:none"
       transform="matrix(1,0,0,-1,73.0608,3.1509)"><tspan
         id="tspan132"
         y="0"
         x="0 6.664 11.112">max</tspan></text>
<path
       id="path136"
       style="fill:#231f20;fill-opacity:1;fill-rule:nonzero;stroke:#231f20;stroke-width:0.66900003;stroke-linecap:butt;stroke-linejoin:miter;stroke-miterlimit:4;stroke-dasharray:4;stroke-dashoffset:0;stroke-opacity:1"
       d="M 36.297,30.598 H 90.88" /><path
       id="path138"
       style="fill:#231f20;fill-opacity:1;fill-rule:nonzero;stroke:#231f20;stroke-width:0.44800001;stroke-linecap:butt;stroke-linejoin:miter;stroke-miterlimit:4;stroke-dasharray:4;stroke-dashoffset:0;stroke-opacity:1"
       d="M 53.297,64.431 53.131,10.016" /><text
       id="text144"
       style="font-variant:normal;font-weight:normal;font-stretch:normal;font-size:10px;font-family:Helvetica;-inkscape-font-specification:Helvetica;writing-mode:lr-tb;fill:#231f20;fill-opacity:1;fill-rule:nonzero;stroke:none"
       transform="matrix(1,0,0,-1,140.2633,94.4844)"><tspan
         id="tspan140"
         y="0"
         x="0 2.78 8.3400002 13.9 16.120001 18.9 23.9 29.459999 35.02 37.799999 43.360001 48.360001 51.139999">tool contact</tspan><tspan
         id="tspan142"
         y="12"
         x="-3.8800001 1.12 4.4499998 10.01 15.01 20.01 23.34 28.34 33.900002 38.900002 41.68 43.900002 49.459999">cross-section</tspan></text>
<g
       transform="translate(96.839,60.348)"
       id="g146"><path
         id="path148"
         style="fill:none;stroke:#231f20;stroke-width:0.93599999;stroke-linecap:butt;stroke-linejoin:miter;stroke-miterlimit:4;stroke-dasharray:none;stroke-opacity:1"
         d="M 0,0 C 5.333,6.667 12.333,13 22,11.333 39.589,8.301 36.563,13.015 46.666,18" /></g><g
       transform="translate(96.207,58.023)"
       id="g150"><path
         id="path152"
         style="fill:#231f20;fill-opacity:1;fill-rule:nonzero;stroke:none"
         d="M 0,0 C 1.332,0.916 2.295,1.433 3.459,2.09 L -0.226,5.039 C -0.338,4.56 -0.904,2.705 -1.505,1.205 -2.149,-0.4 -2.82,-1.786 -3.333,-2.623 -2.629,-1.939 -1.424,-0.98 0,0" /></g><text
       id="text158"
       style="font-variant:normal;font-weight:normal;font-stretch:normal;font-size:9px;font-family:Helvetica;-inkscape-font-specification:Helvetica;writing-mode:lr-tb;fill:#231f20;fill-opacity:1;fill-rule:nonzero;stroke:none"
       transform="matrix(1,0,0,-1,346.342,10.876)"><tspan
         id="tspan154"
         y="0"
         x="0">x</tspan><tspan
         id="tspan156"
         y="-61.614899"
         x="-93.204002">y</tspan></text>
<g
       transform="translate(259.863,17.856)"
       id="g160"><path
         id="path162"
         style="fill:none;stroke:#231f20;stroke-width:0.5;stroke-linecap:butt;stroke-linejoin:miter;stroke-miterlimit:4;stroke-dasharray:none;stroke-opacity:1"
         d="M 0,0 V 59.783" /></g><g
       transform="translate(259.478,78.525)"
       id="g164"><path
         id="path166"
         style="fill:#231f20;fill-opacity:1;fill-rule:nonzero;stroke:none"
         d="M 0,0 C -0.187,-0.621 -0.359,-1.023 -0.559,-1.522 H 1.332 C 1.248,-1.344 0.96,-0.621 0.773,0 0.572,0.662 0.436,1.266 0.387,1.654 0.338,1.266 0.2,0.662 0,0" /></g><g
       transform="translate(259.894,18.07)"
       id="g168"><path
         id="path170"
         style="fill:none;stroke:#231f20;stroke-width:0.5;stroke-linecap:butt;stroke-linejoin:miter;stroke-miterlimit:4;stroke-dasharray:none;stroke-opacity:1"
         d="M 0,0 H 92.783" /></g><g
       transform="translate(353.564,18.455)"
       id="g172"><path
         id="path174"
         style="fill:#231f20;fill-opacity:1;fill-rule:nonzero;stroke:none"
         d="m 0,0 c -0.621,0.188 -1.023,0.359 -1.521,0.56 v -1.892 c 0.177,0.084 0.9,0.372 1.521,0.559 0.662,0.201 1.266,0.338 1.654,0.386 C 1.266,-0.338 0.662,-0.2 0,0" /></g><g
       transform="translate(308.636,44.725)"
       id="g176"><path
         id="path178"
         style="fill:#e6e6e6;fill-opacity:1;fill-rule:nonzero;stroke:none"
         d="m 0,0 v 70.219 h 126.825 c 0,0 8.956,-12.898 0,-21.137 -8.957,-8.24 0,-23.287 0,-23.287 H 65.204 C 60.546,17.555 64.487,14.33 57.322,5.731 50.157,-2.866 0,0 0,0" /></g><g
       transform="translate(308.636,44.725)"
       id="g180"><path
         id="path182"
         style="fill:none;stroke:#000000;stroke-width:0.47099999;stroke-linecap:butt;stroke-linejoin:miter;stroke-miterlimit:4;stroke-dasharray:none;stroke-opacity:1"
         d="m 0,0 v 70.219 h 126.825 c 0,0 8.956,-12.898 0,-21.137 -8.957,-8.24 0,-23.287 0,-23.287 H 65.204 C 60.546,17.555 64.487,14.33 57.322,5.731 50.157,-2.866 0,0 0,0 Z" /></g><g
       transform="translate(356.31,66.19)"
       id="g184"><path
         id="path186"
         style="fill:#ffffff;fill-opacity:1;fill-rule:nonzero;stroke:#000000;stroke-width:0.60600001;stroke-linecap:butt;stroke-linejoin:miter;stroke-miterlimit:4;stroke-dasharray:none;stroke-opacity:1"
         d="M 0,0 -48.389,-47.237 -95.628,1.152 -47.237,48.39 Z" /></g><g
       transform="translate(262.648,13.848)"
       id="g188"><path
         id="path190"
         style="fill:#231f20;fill-opacity:1;fill-rule:nonzero;stroke:#231f20;stroke-width:0.331;stroke-linecap:butt;stroke-linejoin:miter;stroke-miterlimit:4;stroke-dasharray:none;stroke-opacity:1"
         d="M 0,0 H 24.5" /></g><g
       transform="translate(287.928,14.187)"
       id="g192"><path
         id="path194"
         style="fill:#231f20;fill-opacity:1;fill-rule:nonzero;stroke:none"
         d="m 0,0 c -0.546,0.165 -0.901,0.317 -1.34,0.493 v -1.667 c 0.157,0.074 0.794,0.328 1.34,0.493 0.585,0.177 1.115,0.297 1.459,0.34 C 1.115,-0.297 0.585,-0.177 0,0" /></g><g
       transform="translate(261.867,13.509)"
       id="g196"><path
         id="path198"
         style="fill:#231f20;fill-opacity:1;fill-rule:nonzero;stroke:none"
         d="M 0,0 C 0.547,-0.165 0.902,-0.316 1.341,-0.492 V 1.175 C 1.184,1.1 0.547,0.847 0,0.682 -0.584,0.505 -1.114,0.384 -1.459,0.341 -1.114,0.298 -0.584,0.177 0,0" /></g><text
       id="text204"
       style="font-variant:normal;font-weight:normal;font-stretch:normal;font-size:10px;font-family:Arial;-inkscape-font-specification:ArialMT;writing-mode:lr-tb;fill:#231f20;fill-opacity:1;fill-rule:nonzero;stroke:none"
       transform="matrix(1,0,0,-1,234.6614,104.8618)"><tspan
         id="tspan200"
         y="0"
         x="0 6.1100001 11.67 17.23 22.790001 25.57 27.790001">Feed in</tspan><tspan
         id="tspan202"
         y="12"
         x="-3.5250001 3.145 9.6350002 12.415 17.975 20.195 25.754999 31.315001">XY plane</tspan></text>
<text
       id="text208"
       style="font-variant:normal;font-weight:normal;font-stretch:normal;font-size:10px;font-family:Helvetica;-inkscape-font-specification:Helvetica;writing-mode:lr-tb;fill:#231f20;fill-opacity:1;fill-rule:nonzero;stroke:none"
       transform="matrix(1,0,0,-1,260.5154,2.2498)"><tspan
         id="tspan206"
         y="0"
         x="0">X</tspan></text>
<text
       id="text212"
       style="font-variant:normal;font-weight:normal;font-stretch:normal;font-size:8px;font-family:Helvetica;-inkscape-font-specification:Helvetica;writing-mode:lr-tb;fill:#231f20;fill-opacity:1;fill-rule:nonzero;stroke:none"
       transform="matrix(1,0,0,-1,267.1853,2.25)"><tspan
         id="tspan210"
         y="0"
         x="0 5.776 12 16.448 18.672001">CGofs</tspan></text>
<g
       id="g214"><g
         clip-path="url(#clipPath220)"
         id="g216"><path
           id="path222"
           style="fill:#d1d3d4;fill-opacity:1;fill-rule:nonzero;stroke:none"
           d="m 272.231,31.348 h 35.333 v 33.666 h -35.333 z" /><g
           transform="translate(278.039,33.927)"
           id="g224"><path
             id="path226"
             style="fill:none;stroke:#000000;stroke-width:0.176;stroke-linecap:butt;stroke-linejoin:miter;stroke-miterlimit:4;stroke-dasharray:none;stroke-opacity:1"
             d="M 0,0 -11.401,-6.377" /><g
             transform="translate(8)"
             id="g228"><path
               id="path230"
               style="fill:none;stroke:#000000;stroke-width:0.176;stroke-linecap:butt;stroke-linejoin:miter;stroke-miterlimit:4;stroke-dasharray:none;stroke-opacity:1"
               d="M 0,0 -11.401,-6.377" /><g
               transform="translate(8)"
               id="g232"><path
                 id="path234"
                 style="fill:none;stroke:#000000;stroke-width:0.176;stroke-linecap:butt;stroke-linejoin:miter;stroke-miterlimit:4;stroke-dasharray:none;stroke-opacity:1"
                 d="M 0,0 -11.401,-6.377" /><g
                 transform="translate(8)"
                 id="g236"><path
                   id="path238"
                   style="fill:none;stroke:#000000;stroke-width:0.176;stroke-linecap:butt;stroke-linejoin:miter;stroke-miterlimit:4;stroke-dasharray:none;stroke-opacity:1"
                   d="M 0,0 -11.401,-6.377" /><g
                   transform="translate(8)"
                   id="g240"><path
                     id="path242"
                     style="fill:none;stroke:#000000;stroke-width:0.176;stroke-linecap:butt;stroke-linejoin:miter;stroke-miterlimit:4;stroke-dasharray:none;stroke-opacity:1"
                     d="M 0,0 -11.401,-6.377" /><g
                     transform="translate(8)"
                     id="g244"><path
                       id="path246"
                       style="fill:none;stroke:#000000;stroke-width:0.176;stroke-linecap:butt;stroke-linejoin:miter;stroke-miterlimit:4;stroke-dasharray:none;stroke-opacity:1"
                       d="M 0,0 -11.401,-6.377" /><g
                       transform="translate(-40,8)"
                       id="g248"><path
                         id="path250"
                         style="fill:none;stroke:#000000;stroke-width:0.176;stroke-linecap:butt;stroke-linejoin:miter;stroke-miterlimit:4;stroke-dasharray:none;stroke-opacity:1"
                         d="M 0,0 -11.401,-6.377" /><g
                         transform="translate(8)"
                         id="g252"><path
                           id="path254"
                           style="fill:none;stroke:#000000;stroke-width:0.176;stroke-linecap:butt;stroke-linejoin:miter;stroke-miterlimit:4;stroke-dasharray:none;stroke-opacity:1"
                           d="M 0,0 -11.401,-6.377" /><g
                           transform="translate(8)"
                           id="g256"><path
                             id="path258"
                             style="fill:none;stroke:#000000;stroke-width:0.176;stroke-linecap:butt;stroke-linejoin:miter;stroke-miterlimit:4;stroke-dasharray:none;stroke-opacity:1"
                             d="M 0,0 -11.401,-6.377" /><g
                             transform="translate(8)"
                             id="g260"><path
                               id="path262"
                               style="fill:none;stroke:#000000;stroke-width:0.176;stroke-linecap:butt;stroke-linejoin:miter;stroke-miterlimit:4;stroke-dasharray:none;stroke-opacity:1"
                               d="M 0,0 -11.401,-6.377" /><g
                               transform="translate(8)"
                               id="g264"><path
                                 id="path266"
                                 style="fill:none;stroke:#000000;stroke-width:0.176;stroke-linecap:butt;stroke-linejoin:miter;stroke-miterlimit:4;stroke-dasharray:none;stroke-opacity:1"
                                 d="M 0,0 -11.401,-6.377" /><g
                                 transform="translate(8)"
                                 id="g268"><path
                                   id="path270"
                                   style="fill:none;stroke:#000000;stroke-width:0.176;stroke-linecap:butt;stroke-linejoin:miter;stroke-miterlimit:4;stroke-dasharray:none;stroke-opacity:1"
                                   d="M 0,0 -11.401,-6.377" /><g
                                   transform="translate(-40,8)"
                                   id="g272"><path
                                   id="path274"
                                   style="fill:none;stroke:#000000;stroke-width:0.176;stroke-linecap:butt;stroke-linejoin:miter;stroke-miterlimit:4;stroke-dasharray:none;stroke-opacity:1"
                                   d="M 0,0 -11.401,-6.377" /><g
                                   transform="translate(8)"
                                   id="g276"><path
                                   id="path278"
                                   style="fill:none;stroke:#000000;stroke-width:0.176;stroke-linecap:butt;stroke-linejoin:miter;stroke-miterlimit:4;stroke-dasharray:none;stroke-opacity:1"
                                   d="M 0,0 -11.401,-6.377" /><g
                                   transform="translate(8)"
                                   id="g280"><path
                                   id="path282"
                                   style="fill:none;stroke:#000000;stroke-width:0.176;stroke-linecap:butt;stroke-linejoin:miter;stroke-miterlimit:4;stroke-dasharray:none;stroke-opacity:1"
                                   d="M 0,0 -11.401,-6.377" /><g
                                   transform="translate(8)"
                                   id="g284"><path
                                   id="path286"
                                   style="fill:none;stroke:#000000;stroke-width:0.176;stroke-linecap:butt;stroke-linejoin:miter;stroke-miterlimit:4;stroke-dasharray:none;stroke-opacity:1"
                                   d="M 0,0 -11.401,-6.377" /><g
                                   transform="translate(8)"
                                   id="g288"><path
                                   id="path290"
                                   style="fill:none;stroke:#000000;stroke-width:0.176;stroke-linecap:butt;stroke-linejoin:miter;stroke-miterlimit:4;stroke-dasharray:none;stroke-opacity:1"
                                   d="M 0,0 -11.401,-6.377" /><g
                                   transform="translate(8)"
                                   id="g292"><path
                                   id="path294"
                                   style="fill:none;stroke:#000000;stroke-width:0.176;stroke-linecap:butt;stroke-linejoin:miter;stroke-miterlimit:4;stroke-dasharray:none;stroke-opacity:1"
                                   d="M 0,0 -11.401,-6.377" /><g
                                   transform="translate(-40,8)"
                                   id="g296"><path
                                   id="path298"
                                   style="fill:none;stroke:#000000;stroke-width:0.176;stroke-linecap:butt;stroke-linejoin:miter;stroke-miterlimit:4;stroke-dasharray:none;stroke-opacity:1"
                                   d="M 0,0 -11.401,-6.377" /><g
                                   transform="translate(8)"
                                   id="g300"><path
                                   id="path302"
                                   style="fill:none;stroke:#000000;stroke-width:0.176;stroke-linecap:butt;stroke-linejoin:miter;stroke-miterlimit:4;stroke-dasharray:none;stroke-opacity:1"
                                   d="M 0,0 -11.401,-6.377" /><g
                                   transform="translate(8)"
                                   id="g304"><path
                                   id="path306"
                                   style="fill:none;stroke:#000000;stroke-width:0.176;stroke-linecap:butt;stroke-linejoin:miter;stroke-miterlimit:4;stroke-dasharray:none;stroke-opacity:1"
                                   d="M 0,0 -11.401,-6.377" /><g
                                   transform="translate(8)"
                                   id="g308"><path
                                   id="path310"
                                   style="fill:none;stroke:#000000;stroke-width:0.176;stroke-linecap:butt;stroke-linejoin:miter;stroke-miterlimit:4;stroke-dasharray:none;stroke-opacity:1"
                                   d="M 0,0 -11.401,-6.377" /><g
                                   transform="translate(8)"
                                   id="g312"><path
                                   id="path314"
                                   style="fill:none;stroke:#000000;stroke-width:0.176;stroke-linecap:butt;stroke-linejoin:miter;stroke-miterlimit:4;stroke-dasharray:none;stroke-opacity:1"
                                   d="M 0,0 -11.401,-6.377" /><g
                                   transform="translate(8)"
                                   id="g316"><path
                                   id="path318"
                                   style="fill:none;stroke:#000000;stroke-width:0.176;stroke-linecap:butt;stroke-linejoin:miter;stroke-miterlimit:4;stroke-dasharray:none;stroke-opacity:1"
                                   d="M 0,0 -11.401,-6.377" /><g
                                   transform="translate(-40,8)"
                                   id="g320"><path
                                   id="path322"
                                   style="fill:none;stroke:#000000;stroke-width:0.176;stroke-linecap:butt;stroke-linejoin:miter;stroke-miterlimit:4;stroke-dasharray:none;stroke-opacity:1"
                                   d="M 0,0 -11.401,-6.377" /><g
                                   transform="translate(8)"
                                   id="g324"><path
                                   id="path326"
                                   style="fill:none;stroke:#000000;stroke-width:0.176;stroke-linecap:butt;stroke-linejoin:miter;stroke-miterlimit:4;stroke-dasharray:none;stroke-opacity:1"
                                   d="M 0,0 -11.401,-6.377" /><g
                                   transform="translate(8)"
                                   id="g328"><path
                                   id="path330"
                                   style="fill:none;stroke:#000000;stroke-width:0.176;stroke-linecap:butt;stroke-linejoin:miter;stroke-miterlimit:4;stroke-dasharray:none;stroke-opacity:1"
                                   d="M 0,0 -11.401,-6.377" /><g
                                   transform="translate(8)"
                                   id="g332"><path
                                   id="path334"
                                   style="fill:none;stroke:#000000;stroke-width:0.176;stroke-linecap:butt;stroke-linejoin:miter;stroke-miterlimit:4;stroke-dasharray:none;stroke-opacity:1"
                                   d="M 0,0 -11.401,-6.377" /><g
                                   transform="translate(8)"
                                   id="g336"><path
                                   id="path338"
                                   style="fill:none;stroke:#000000;stroke-width:0.176;stroke-linecap:butt;stroke-linejoin:miter;stroke-miterlimit:4;stroke-dasharray:none;stroke-opacity:1"
                                   d="M 0,0 -11.401,-6.377" /><g
                                   transform="translate(8)"
                                   id="g340"><path
                                   id="path342"
                                   style="fill:none;stroke:#000000;stroke-width:0.176;stroke-linecap:butt;stroke-linejoin:miter;stroke-miterlimit:4;stroke-dasharray:none;stroke-opacity:1"
                                   d="M 0,0 -11.401,-6.377" /></g></g></g></g></g></g></g></g></g></g></g></g></g></g></g></g></g></g></g></g></g></g></g></g></g></g></g></g></g></g></g></g><text
       id="text346"
       style="font-variant:normal;font-weight:normal;font-stretch:normal;font-size:10px;font-family:Helvetica;-inkscape-font-specification:Helvetica;writing-mode:lr-tb;fill:#231f20;fill-opacity:1;fill-rule:nonzero;stroke:none"
       transform="matrix(1,0,0,-1,383.3357,36.3057)"><tspan
         id="tspan344"
         y="0"
         x="0 7.2199998 13.89">CSA</tspan></text>
<path
       id="path348"
       style="fill:#231f20;fill-opacity:1;fill-rule:nonzero;stroke:none"
       d="m 289.767,49.405 h 2.0313 v 2 h -2.0313 z" /><text
       id="text356"
       style="font-variant:normal;font-weight:normal;font-stretch:normal;font-size:10px;font-family:Helvetica;-inkscape-font-specification:Helvetica;writing-mode:lr-tb;fill:#231f20;fill-opacity:1;fill-rule:nonzero;stroke:none"
       transform="matrix(1,0,0,-1,287.6614,85.5415)"><tspan
         id="tspan350"
         y="0"
         x="0 5 10.56 16.120001 18.9 24.459999 27.790001 30.57 36.130001 38.91">center of</tspan><tspan
         id="tspan352"
         y="12"
         x="4.9299998 10.39 13.62 18.98 23.98 26.200001 28.98">gravity</tspan><tspan
         id="tspan354"
         y="58.666"
         x="64.528999 67.859001 72.859001 76.189003 81.749001 86.749001 91.749001 95.079002 100.079 105.639 110.639 113.419 115.639 121.199 126.759 129.539 135.099 138.429 143.989 149.549">(cross-section area)</tspan></text>
<g
       transform="translate(290.658,21.113)"
       id="g358"><path
         id="path360"
         style="fill:#231f20;fill-opacity:1;fill-rule:nonzero;stroke:#231f20;stroke-width:0.296;stroke-linecap:butt;stroke-linejoin:miter;stroke-miterlimit:4;stroke-dasharray:none;stroke-opacity:1"
         d="M 0,0 V 25" /></g><g
       transform="translate(290.354,46.814)"
       id="g362"><path
         id="path364"
         style="fill:#231f20;fill-opacity:1;fill-rule:nonzero;stroke:none"
         d="M 0,0 C -0.147,-0.49 -0.284,-0.809 -0.441,-1.201 H 1.053 C 0.985,-1.061 0.759,-0.49 0.61,0 0.452,0.523 0.344,0.999 0.306,1.307 0.267,0.999 0.158,0.523 0,0" /></g><g
       transform="translate(290.962,20.414)"
       id="g366"><path
         id="path368"
         style="fill:#231f20;fill-opacity:1;fill-rule:nonzero;stroke:none"
         d="M 0,0 C 0.149,0.489 0.284,0.808 0.442,1.2 H -1.052 C -0.985,1.06 -0.758,0.489 -0.61,0 -0.452,-0.524 -0.344,-0.999 -0.305,-1.308 -0.267,-0.999 -0.158,-0.524 0,0" /></g><path
       id="path370"
       style="fill:#ffffff;fill-opacity:1;fill-rule:nonzero;stroke:none"
       d="m 292.505,33.238 h 18.333 v 8.6665 h -18.333 z" /><text
       id="text374"
       style="font-variant:normal;font-weight:normal;font-stretch:normal;font-size:10px;font-family:Helvetica;-inkscape-font-specification:Helvetica;writing-mode:lr-tb;fill:#231f20;fill-opacity:1;fill-rule:nonzero;stroke:none"
       transform="matrix(1,0,0,-1,292.1535,33.917)"><tspan
         id="tspan372"
         y="0"
         x="0">Y</tspan></text>
<text
       id="text378"
       style="font-variant:normal;font-weight:normal;font-stretch:normal;font-size:8px;font-family:Helvetica;-inkscape-font-specification:Helvetica;writing-mode:lr-tb;fill:#231f20;fill-opacity:1;fill-rule:nonzero;stroke:none"
       transform="matrix(1,0,0,-1,298.8235,33.917)"><tspan
         id="tspan376"
         y="0"
         x="0 5.776 12 16.448 18.672001">CGofs</tspan></text>
<g
       transform="translate(310.839,54.238)"
       id="g380"><path
         id="path382"
         style="fill:none;stroke:#231f20;stroke-width:1;stroke-linecap:butt;stroke-linejoin:miter;stroke-miterlimit:4;stroke-dasharray:none;stroke-opacity:1"
         d="M 0,0 C 0,0 9.668,7.32 18.333,7.667 26.667,8 29,9.334 37,4 50.141,-4.761 68.333,-14.666 68.333,-14.666" /></g><g
       transform="translate(309.673,51.943)"
       id="g384"><path
         id="path386"
         style="fill:#231f20;fill-opacity:1;fill-rule:nonzero;stroke:none"
         d="M 0,0 C 1.592,0.669 2.713,1 4.074,1.436 L 0.858,5.322 C 0.636,4.846 -0.358,3.026 -1.314,1.588 -2.336,0.048 -3.339,-1.257 -4.058,-2.02 -3.173,-1.457 -1.704,-0.716 0,0" /></g><g
       transform="translate(288.172,81.572)"
       id="g388"><path
         id="path390"
         style="fill:none;stroke:#231f20;stroke-width:1;stroke-linecap:butt;stroke-linejoin:miter;stroke-miterlimit:4;stroke-dasharray:none;stroke-opacity:1"
         d="m 0,0 c 0,0 -10.001,3 -13.667,-6.334 -3.667,-9.333 9,-18.333 9,-18.333" /></g><g
       transform="translate(286.024,56.372)"
       id="g392"><path
         id="path394"
         style="fill:#231f20;fill-opacity:1;fill-rule:nonzero;stroke:none"
         d="M 0,0 C -1.058,1.365 -1.668,2.362 -2.441,3.564 L -5.363,-0.548 C -4.845,-0.639 -2.83,-1.129 -1.194,-1.68 0.558,-2.269 2.078,-2.9 3.002,-3.397 2.229,-2.688 1.133,-1.46 0,0" /></g><text
       id="text398"
       style="font-variant:normal;font-weight:normal;font-stretch:normal;font-size:10px;font-family:Helvetica;-inkscape-font-specification:Helvetica;writing-mode:lr-tb;fill:#231f20;fill-opacity:1;fill-rule:nonzero;stroke:none"
       transform="matrix(1,0,0,-1,177.695,2.9727)"><tspan
         id="tspan396"
         y="0"
         x="0 5.5599999 8.8900003 14.45 17.23 19.450001 21.67 27.23 30.01 35.57 39.049999 41.27 46.830002 49.049999">profile origin</tspan></text>
<g
       transform="translate(223.839,15.238)"
       id="g400"><path
         id="path402"
         style="fill:none;stroke:#231f20;stroke-width:1;stroke-linecap:butt;stroke-linejoin:miter;stroke-miterlimit:4;stroke-dasharray:none;stroke-opacity:1"
         d="M 0,0 C 0,0 -6,7 5.5,7.5 17,8 26,5.5 26,5.5" /></g><g
       transform="translate(252.388,21.094)"
       id="g404"><path
         id="path406"
         style="fill:#231f20;fill-opacity:1;fill-rule:nonzero;stroke:none"
         d="m 0,0 c -1.459,0.924 -2.372,1.654 -3.507,2.522 l -1.35,-4.86 c 0.518,0.09 2.579,0.314 4.306,0.352 C 1.297,-1.944 2.94,-2.021 3.978,-2.174 3.01,-1.77 1.562,-0.988 0,0" /></g></g></svg>