<?xml version="1.0" encoding="UTF-8" standalone="no"?>
<svg
   xmlns:dc="http://purl.org/dc/elements/1.1/"
   xmlns:cc="http://creativecommons.org/ns#"
   xmlns:rdf="http://www.w3.org/1999/02/22-rdf-syntax-ns#"
   xmlns:svg="http://www.w3.org/2000/svg"
   xmlns="http://www.w3.org/2000/svg"
   xmlns:sodipodi="http://sodipodi.sourceforge.net/DTD/sodipodi-0.dtd"
   xmlns:inkscape="http://www.inkscape.org/namespaces/inkscape"
   inkscape:version="1.0beta2 (f3d5b5a, 2020-03-13)"
   sodipodi:docname="cross_section_turn.svg"
   version="1.1"
   id="svg2"
   xml:space="preserve"
   width="587.38666"
   height="153.57333"
   viewBox="0 0 587.38666 153.57333"><sodipodi:namedview
     showguides="true"
     inkscape:current-layer="g10"
     inkscape:cy="76.786667"
     inkscape:cx="45.420377"
     inkscape:zoom="3.9667227"
     showgrid="false"
     id="namedview3726"
     inkscape:window-height="480"
     inkscape:window-width="640"
     inkscape:pageshadow="2"
     inkscape:pageopacity="0"
     guidetolerance="10"
     gridtolerance="10"
     objecttolerance="10"
     borderopacity="1"
     bordercolor="#666666"
     pagecolor="#ffffff"><inkscape:grid
       id="grid5176"
       type="xygrid" /></sodipodi:namedview><metadata
     id="metadata8"><rdf:RDF><cc:Work
         rdf:about=""><dc:format>image/svg+xml</dc:format><dc:type
           rdf:resource="http://purl.org/dc/dcmitype/StillImage" /></cc:Work></rdf:RDF></metadata><defs
     id="defs6"><marker
       inkscape:isstock="true"
       style="overflow:visible;"
       id="marker5126"
       refX="0.0"
       refY="0.0"
       orient="auto"
       inkscape:stockid="Arrow1Mend"><path
         transform="scale(0.4) rotate(180) translate(10,0)"
         style="fill-rule:evenodd;stroke:#000000;stroke-width:1pt;stroke-opacity:1;fill:#000000;fill-opacity:1"
         d="M 0.0,0.0 L 5.0,-5.0 L -12.5,0.0 L 5.0,5.0 L 0.0,0.0 z "
         id="path5124" /></marker><marker
       inkscape:stockid="Arrow1Mend"
       orient="auto"
       refY="0.0"
       refX="0.0"
       id="marker5036"
       style="overflow:visible;"
       inkscape:isstock="true"><path
         id="path5034"
         d="M 0.0,0.0 L 5.0,-5.0 L -12.5,0.0 L 5.0,5.0 L 0.0,0.0 z "
         style="fill-rule:evenodd;stroke:#000000;stroke-width:1pt;stroke-opacity:1;fill:#000000;fill-opacity:1"
         transform="scale(0.4) rotate(180) translate(10,0)" /></marker><marker
       inkscape:collect="always"
       inkscape:stockid="Arrow1Mend"
       orient="auto"
       refY="0.0"
       refX="0.0"
       id="marker5026"
       style="overflow:visible;"
       inkscape:isstock="true"><path
         id="path5024"
         d="M 0.0,0.0 L 5.0,-5.0 L -12.5,0.0 L 5.0,5.0 L 0.0,0.0 z "
         style="fill-rule:evenodd;stroke:#000000;stroke-width:1pt;stroke-opacity:1;fill:#000000;fill-opacity:1"
         transform="scale(0.4) rotate(180) translate(10,0)" /></marker><marker
       inkscape:isstock="true"
       style="overflow:visible;"
       id="Arrow1Mend"
       refX="0.0"
       refY="0.0"
       orient="auto"
       inkscape:stockid="Arrow1Mend"><path
         transform="scale(0.4) rotate(180) translate(10,0)"
         style="fill-rule:evenodd;stroke:#000000;stroke-width:1pt;stroke-opacity:1;fill:#000000;fill-opacity:1"
         d="M 0.0,0.0 L 5.0,-5.0 L -12.5,0.0 L 5.0,5.0 L 0.0,0.0 z "
         id="path919" /></marker><marker
       inkscape:isstock="true"
       style="overflow:visible"
       id="Arrow1Mstart"
       refX="0.0"
       refY="0.0"
       orient="auto"
       inkscape:stockid="Arrow1Mstart"><path
         transform="scale(0.4) translate(10,0)"
         style="fill-rule:evenodd;stroke:#000000;stroke-width:1pt;stroke-opacity:1;fill:#000000;fill-opacity:1"
         d="M 0.0,0.0 L 5.0,-5.0 L -12.5,0.0 L 5.0,5.0 L 0.0,0.0 z "
         id="path916" /></marker><clipPath
       clipPathUnits="userSpaceOnUse"
       id="clipPath220"><path
         d="m 272.231,55.681 9,6 10.333,3.333 7.334,-3.666 6.333,-2.334 -1,-8 3.333,-6.666 -4.666,-7.334 -7,-5.666 -23.667,24.333"
         id="path218" /></clipPath><marker
       inkscape:stockid="Arrow1Mstart"
       orient="auto"
       refY="0"
       refX="0"
       id="Arrow1Mstart-7"
       style="overflow:visible"
       inkscape:isstock="true"><path
         inkscape:connector-curvature="0"
         id="path916-9"
         d="M 0,0 5,-5 -12.5,0 5,5 Z"
         style="fill:#000000;fill-opacity:1;fill-rule:evenodd;stroke:#000000;stroke-width:1pt;stroke-opacity:1"
         transform="matrix(0.4,0,0,0.4,4,0)" /></marker></defs><g
     id="g10"
     transform="matrix(1.3333333,0,0,-1.3333333,0,153.57333)"><g
   id="g12"
   transform="translate(37.589,20.682)"><path
     d="M 0,0 V 7"
     style="fill:#231f20;fill-opacity:1;fill-rule:nonzero;stroke:#231f20;stroke-width:0.296;stroke-linecap:butt;stroke-linejoin:miter;stroke-miterlimit:4;stroke-dasharray:none;stroke-opacity:1"
     id="path14" /></g><g
   id="g16"
   transform="translate(37.285,28.381)"><path
     d="M 0,0 C -0.148,-0.49 -0.284,-0.808 -0.441,-1.201 H 1.053 C 0.985,-1.061 0.759,-0.49 0.61,0 0.452,0.524 0.344,0.999 0.306,1.307 0.267,0.999 0.158,0.524 0,0"
     style="fill:#231f20;fill-opacity:1;fill-rule:nonzero;stroke:none"
     id="path18" /></g><g
   id="g20"
   transform="translate(37.892,19.982)"><path
     d="M 0,0 C 0.148,0.49 0.284,0.808 0.441,1.201 H -1.052 C -0.985,1.06 -0.758,0.49 -0.61,0 -0.452,-0.524 -0.344,-0.999 -0.305,-1.307 -0.267,-0.999 -0.158,-0.524 0,0"
     style="fill:#231f20;fill-opacity:1;fill-rule:nonzero;stroke:none"
     id="path22" /></g><g
   id="g24"
   transform="translate(43.255,14.182)"><path
     d="M 0,0 H 6.5"
     style="fill:#231f20;fill-opacity:1;fill-rule:nonzero;stroke:#231f20;stroke-width:0.331;stroke-linecap:butt;stroke-linejoin:miter;stroke-miterlimit:4;stroke-dasharray:none;stroke-opacity:1"
     id="path26" /></g><g
   id="g28"
   transform="translate(50.536,14.521)"><path
     d="m 0,0 c -0.546,0.165 -0.902,0.317 -1.34,0.493 v -1.667 c 0.157,0.074 0.794,0.328 1.34,0.493 0.584,0.177 1.115,0.297 1.459,0.34 C 1.115,-0.297 0.584,-0.177 0,0"
     style="fill:#231f20;fill-opacity:1;fill-rule:nonzero;stroke:none"
     id="path30" /></g><g
   id="g32"
   transform="translate(42.474,13.843)"><path
     d="M 0,0 C 0.546,-0.165 0.902,-0.317 1.34,-0.493 V 1.174 C 1.183,1.1 0.546,0.846 0,0.681 -0.584,0.504 -1.115,0.384 -1.459,0.341 -1.115,0.297 -0.584,0.177 0,0"
     style="fill:#231f20;fill-opacity:1;fill-rule:nonzero;stroke:none"
     id="path34" /></g><text
   y="-60.821884"
   x="-0.93689704"
   transform="scale(1,-1)"
   style="font-variant:normal;font-weight:normal;font-stretch:normal;font-size:10px;font-family:Helvetica;-inkscape-font-specification:Helvetica;writing-mode:lr-tb;fill:#231f20;fill-opacity:1;fill-rule:nonzero;stroke:none"
   id="text38"><tspan
     x="5.7331028"
     id="tspan36">1</tspan></text>

<text
   transform="matrix(1,0,0,-1,17.5041,3.1509)"
   style="font-variant:normal;font-weight:normal;font-stretch:normal;font-size:10px;font-family:Helvetica;-inkscape-font-specification:Helvetica;writing-mode:lr-tb;fill:#231f20;fill-opacity:1;fill-rule:nonzero;stroke:none"
   id="text46"><tspan
     x="0"
     y="0"
     id="tspan44">4</tspan></text>

<text
   y="-33.328777"
   x="5.6721888"
   transform="scale(1,-1)"
   style="font-variant:normal;font-weight:normal;font-stretch:normal;font-size:10px;font-family:Helvetica;-inkscape-font-specification:Helvetica;writing-mode:lr-tb;fill:#231f20;fill-opacity:1;fill-rule:nonzero;stroke:none"
   id="text54"><tspan
     x="5.6721888"
     y="-33.328777"
     id="tspan52">3</tspan></text>

<text
   transform="matrix(1,0,0,-1,128.2829,10.876)"
   style="font-variant:normal;font-weight:normal;font-stretch:normal;font-size:9px;font-family:Helvetica;-inkscape-font-specification:Helvetica;writing-mode:lr-tb;fill:#231f20;fill-opacity:1;fill-rule:nonzero;stroke:none"
   id="text64"><tspan
     x="0"
     y="0"
     id="tspan60">x</tspan><tspan
     x="-93.204002"
     y="-61.615799"
     id="tspan62">y</tspan></text>
<g
   id="g66"
   transform="translate(41.804,17.856)"><path
     d="M 0,0 V 59.783"
     style="fill:none;stroke:#231f20;stroke-width:0.5;stroke-linecap:butt;stroke-linejoin:miter;stroke-miterlimit:4;stroke-dasharray:none;stroke-opacity:1"
     id="path68" /></g><g
   id="g70"
   transform="translate(41.419,78.526)"><path
     d="M 0,0 C -0.187,-0.621 -0.359,-1.023 -0.56,-1.521 H 1.332 C 1.248,-1.344 0.96,-0.621 0.773,0 0.572,0.662 0.436,1.266 0.387,1.654 0.338,1.266 0.2,0.662 0,0"
     style="fill:#231f20;fill-opacity:1;fill-rule:nonzero;stroke:none"
     id="path72" /></g><g
   id="g74"
   transform="translate(41.835,18.07)"><path
     d="M 0,0 H 92.783"
     style="fill:none;stroke:#231f20;stroke-width:0.5;stroke-linecap:butt;stroke-linejoin:miter;stroke-miterlimit:4;stroke-dasharray:none;stroke-opacity:1"
     id="path76" /></g><g
   id="g78"
   transform="translate(135.505,18.455)"><path
     d="m 0,0 c -0.621,0.188 -1.023,0.359 -1.521,0.56 v -1.892 c 0.177,0.084 0.9,0.372 1.521,0.559 0.662,0.201 1.266,0.338 1.654,0.386 C 1.266,-0.338 0.662,-0.2 0,0"
     style="fill:#231f20;fill-opacity:1;fill-rule:nonzero;stroke:none"
     id="path80" /></g>
<g
   id="g88"
   transform="translate(90.576,44.725)"><path
     d="m 0,0 v 70.219 h 126.825 c 0,0 8.956,-12.897 0,-21.137 -8.957,-8.24 0,-23.287 0,-23.287 H 65.204 C 60.546,17.555 64.487,14.331 57.322,5.732 50.157,-2.866 0,0 0,0 Z"
     style="fill:#e6e6e6;fill-opacity:1;fill-rule:nonzero;stroke:#000000;stroke-width:0.47099999;stroke-linecap:butt;stroke-linejoin:miter;stroke-miterlimit:4;stroke-dasharray:none;stroke-opacity:1"
     id="path90" /></g><g
   id="g92"
   transform="translate(138.251,66.19)"><path
     d="M 0,0 -48.389,-47.237 -95.627,1.152 -47.237,48.39 Z"
     style="fill:#ffffff;fill-opacity:1;fill-rule:nonzero;stroke:#000000;stroke-width:0.60600001;stroke-linecap:butt;stroke-linejoin:miter;stroke-miterlimit:4;stroke-dasharray:none;stroke-opacity:1"
     id="path94" /></g><g
   id="g96"
   transform="translate(54.172,55.682)"><path
     d="M 0,0 9,6 19.333,9.333 26.666,5.667 33,3.333 l -1,-8 3.333,-6.666 -4.667,-7.334 -7,-5.666 z"
     style="fill:#d1d3d4;fill-opacity:1;fill-rule:nonzero;stroke:#231f20;stroke-width:0.5;stroke-linecap:butt;stroke-linejoin:miter;stroke-miterlimit:4;stroke-dasharray:none;stroke-opacity:1"
     id="path98" /></g><path
   d="M 90.505,66.015 90.339,25.848"
   style="fill:#231f20;fill-opacity:1;fill-rule:nonzero;stroke:#231f20;stroke-width:0.38499999;stroke-linecap:butt;stroke-linejoin:miter;stroke-miterlimit:4;stroke-dasharray:4;stroke-dashoffset:0;stroke-opacity:1"
   id="path100" /><path
   d="M 50.172,66.015 H 90.505"
   style="fill:#231f20;fill-opacity:1;fill-rule:nonzero;stroke:#231f20;stroke-width:0.57499999;stroke-linecap:butt;stroke-linejoin:miter;stroke-miterlimit:4;stroke-dasharray:4;stroke-dashoffset:0;stroke-opacity:1"
   id="path102" /><g
   id="g104"
   transform="translate(37.589,33.348)"><path
     d="M 0,0 V 30"
     style="fill:#231f20;fill-opacity:1;fill-rule:nonzero;stroke:#231f20;stroke-width:0.296;stroke-linecap:butt;stroke-linejoin:miter;stroke-miterlimit:4;stroke-dasharray:none;stroke-opacity:1"
     id="path106" /></g><g
   id="g108"
   transform="translate(37.285,64.048)"><path
     d="M 0,0 C -0.148,-0.49 -0.284,-0.808 -0.441,-1.201 H 1.052 C 0.985,-1.061 0.758,-0.49 0.61,0 0.452,0.524 0.344,0.999 0.305,1.307 0.267,0.999 0.158,0.524 0,0"
     style="fill:#231f20;fill-opacity:1;fill-rule:nonzero;stroke:none"
     id="path110" /></g><g
   id="g112"
   transform="translate(37.893,32.648)"><path
     d="M 0,0 C 0.147,0.49 0.284,0.808 0.441,1.201 H -1.053 C -0.985,1.061 -0.759,0.49 -0.61,0 -0.452,-0.524 -0.344,-0.999 -0.306,-1.307 -0.267,-0.999 -0.158,-0.524 0,0"
     style="fill:#231f20;fill-opacity:1;fill-rule:nonzero;stroke:none"
     id="path114" /></g><g
   id="g116"
   transform="translate(56.589,14.348)"><path
     d="M 0,0 H 30.5"
     style="fill:#231f20;fill-opacity:1;fill-rule:nonzero;stroke:#231f20;stroke-width:0.331;stroke-linecap:butt;stroke-linejoin:miter;stroke-miterlimit:4;stroke-dasharray:none;stroke-opacity:1"
     id="path118" /></g><g
   id="g120"
   transform="translate(87.869,14.687)"><path
     d="m 0,0 c -0.546,0.165 -0.901,0.317 -1.34,0.493 v -1.667 c 0.157,0.074 0.794,0.328 1.34,0.493 0.585,0.177 1.115,0.297 1.459,0.34 C 1.115,-0.297 0.585,-0.177 0,0"
     style="fill:#231f20;fill-opacity:1;fill-rule:nonzero;stroke:none"
     id="path122" /></g><g
   id="g124"
   transform="translate(55.808,14.009)"><path
     d="M 0,0 C 0.547,-0.165 0.902,-0.317 1.341,-0.493 V 1.174 C 1.184,1.1 0.547,0.846 0,0.681 -0.584,0.504 -1.114,0.384 -1.459,0.341 -1.114,0.297 -0.584,0.177 0,0"
     style="fill:#231f20;fill-opacity:1;fill-rule:nonzero;stroke:none"
     id="path126" /></g><text
   y="-4.2853379"
   x="104.75121"
   transform="scale(1,-1)"
   style="font-variant:normal;font-weight:normal;font-stretch:normal;font-size:10px;font-family:Helvetica;-inkscape-font-specification:Helvetica;writing-mode:lr-tb;fill:#231f20;fill-opacity:1;fill-rule:nonzero;stroke:none"
   id="text130"><tspan
     x="104.75121"
     y="-4.2853379"
     id="tspan128">2</tspan></text>

<path
   d="M 36.297,30.598 H 90.88"
   style="fill:#231f20;fill-opacity:1;fill-rule:nonzero;stroke:#231f20;stroke-width:0.66900003;stroke-linecap:butt;stroke-linejoin:miter;stroke-miterlimit:4;stroke-dasharray:4;stroke-dashoffset:0;stroke-opacity:1"
   id="path136" /><path
   d="M 53.297,64.431 53.131,10.016"
   style="fill:#231f20;fill-opacity:1;fill-rule:nonzero;stroke:#231f20;stroke-width:0.44800001;stroke-linecap:butt;stroke-linejoin:miter;stroke-miterlimit:4;stroke-dasharray:4;stroke-dashoffset:0;stroke-opacity:1"
   id="path138" /><text
   transform="matrix(1,0,0,-1,140.2633,94.4844)"
   style="font-variant:normal;font-weight:normal;font-stretch:normal;font-size:10px;font-family:Helvetica;-inkscape-font-specification:Helvetica;writing-mode:lr-tb;fill:#231f20;fill-opacity:1;fill-rule:nonzero;stroke:none"
   id="text144" />
<g
   id="g146"
   transform="translate(96.839,60.348)"><path
     d="M 0,0 C 5.333,6.667 12.333,13 22,11.333 39.589,8.301 36.563,13.015 46.666,18"
     style="fill:none;stroke:#231f20;stroke-width:0.93599999;stroke-linecap:butt;stroke-linejoin:miter;stroke-miterlimit:4;stroke-dasharray:none;stroke-opacity:1"
     id="path148" /></g><g
   id="g150"
   transform="translate(96.207,58.023)"><path
     d="M 0,0 C 1.332,0.916 2.295,1.433 3.459,2.09 L -0.226,5.039 C -0.338,4.56 -0.904,2.705 -1.505,1.205 -2.149,-0.4 -2.82,-1.786 -3.333,-2.623 -2.629,-1.939 -1.424,-0.98 0,0"
     style="fill:#231f20;fill-opacity:1;fill-rule:nonzero;stroke:none"
     id="path152" /></g><text
   transform="matrix(1,0,0,-1,346.342,10.876)"
   style="font-variant:normal;font-weight:normal;font-stretch:normal;font-size:9px;font-family:Helvetica;-inkscape-font-specification:Helvetica;writing-mode:lr-tb;fill:#231f20;fill-opacity:1;fill-rule:nonzero;stroke:none"
   id="text158"><tspan
     x="0"
     y="0"
     id="tspan154">x</tspan><tspan
     x="-93.204002"
     y="-61.614899"
     id="tspan156">y</tspan></text>
<g
   id="g160"
   transform="translate(259.863,17.856)"><path
     d="M 0,0 V 59.783"
     style="fill:none;stroke:#231f20;stroke-width:0.5;stroke-linecap:butt;stroke-linejoin:miter;stroke-miterlimit:4;stroke-dasharray:none;stroke-opacity:1"
     id="path162" /></g><g
   id="g164"
   transform="translate(259.478,78.525)"><path
     d="M 0,0 C -0.187,-0.621 -0.359,-1.023 -0.559,-1.522 H 1.332 C 1.248,-1.344 0.96,-0.621 0.773,0 0.572,0.662 0.436,1.266 0.387,1.654 0.338,1.266 0.2,0.662 0,0"
     style="fill:#231f20;fill-opacity:1;fill-rule:nonzero;stroke:none"
     id="path166" /></g><g
   id="g168"
   transform="translate(259.894,18.07)"><path
     d="M 0,0 H 92.783"
     style="fill:none;stroke:#231f20;stroke-width:0.5;stroke-linecap:butt;stroke-linejoin:miter;stroke-miterlimit:4;stroke-dasharray:none;stroke-opacity:1"
     id="path170" /></g><g
   id="g172"
   transform="translate(353.564,18.455)"><path
     d="m 0,0 c -0.621,0.188 -1.023,0.359 -1.521,0.56 v -1.892 c 0.177,0.084 0.9,0.372 1.521,0.559 0.662,0.201 1.266,0.338 1.654,0.386 C 1.266,-0.338 0.662,-0.2 0,0"
     style="fill:#231f20;fill-opacity:1;fill-rule:nonzero;stroke:none"
     id="path174" /></g><g
   id="g176"
   transform="translate(308.636,44.725)"><path
     d="m 0,0 v 70.219 h 126.825 c 0,0 8.956,-12.898 0,-21.137 -8.957,-8.24 0,-23.287 0,-23.287 H 65.204 C 60.546,17.555 64.487,14.33 57.322,5.731 50.157,-2.866 0,0 0,0"
     style="fill:#e6e6e6;fill-opacity:1;fill-rule:nonzero;stroke:none"
     id="path178" /></g><g
   id="g180"
   transform="translate(308.636,44.725)"><path
     d="m 0,0 v 70.219 h 126.825 c 0,0 8.956,-12.898 0,-21.137 -8.957,-8.24 0,-23.287 0,-23.287 H 65.204 C 60.546,17.555 64.487,14.33 57.322,5.731 50.157,-2.866 0,0 0,0 Z"
     style="fill:none;stroke:#000000;stroke-width:0.47099999;stroke-linecap:butt;stroke-linejoin:miter;stroke-miterlimit:4;stroke-dasharray:none;stroke-opacity:1"
     id="path182" /></g><g
   id="g184"
   transform="translate(356.31,66.19)"><path
     d="M 0,0 -48.389,-47.237 -95.628,1.152 -47.237,48.39 Z"
     style="fill:#ffffff;fill-opacity:1;fill-rule:nonzero;stroke:#000000;stroke-width:0.60600001;stroke-linecap:butt;stroke-linejoin:miter;stroke-miterlimit:4;stroke-dasharray:none;stroke-opacity:1"
     id="path186" /></g><g
   id="g188"
   transform="translate(262.648,13.848)"><path
     d="M 0,0 H 24.5"
     style="fill:#231f20;fill-opacity:1;fill-rule:nonzero;stroke:#231f20;stroke-width:0.331;stroke-linecap:butt;stroke-linejoin:miter;stroke-miterlimit:4;stroke-dasharray:none;stroke-opacity:1"
     id="path190" /></g><g
   id="g192"
   transform="translate(287.928,14.187)"><path
     d="m 0,0 c -0.546,0.165 -0.901,0.317 -1.34,0.493 v -1.667 c 0.157,0.074 0.794,0.328 1.34,0.493 0.585,0.177 1.115,0.297 1.459,0.34 C 1.115,-0.297 0.585,-0.177 0,0"
     style="fill:#231f20;fill-opacity:1;fill-rule:nonzero;stroke:none"
     id="path194" /></g><g
   id="g196"
   transform="translate(261.867,13.509)"><path
     d="M 0,0 C 0.547,-0.165 0.902,-0.316 1.341,-0.492 V 1.175 C 1.184,1.1 0.547,0.847 0,0.682 -0.584,0.505 -1.114,0.384 -1.459,0.341 -1.114,0.298 -0.584,0.177 0,0"
     style="fill:#231f20;fill-opacity:1;fill-rule:nonzero;stroke:none"
     id="path198" /></g>
<text
   y="-3.3842375"
   x="309.2962"
   transform="scale(1,-1)"
   style="font-style:normal;font-variant:normal;font-weight:normal;font-stretch:normal;font-size:10px;font-family:Helvetica;-inkscape-font-specification:'Helvetica Normal';font-variant-ligatures:normal;font-variant-caps:normal;font-variant-numeric:normal;font-variant-east-asian:normal;writing-mode:lr-tb;fill:#231f20;fill-opacity:1;fill-rule:nonzero;stroke:none"
   id="text208"><tspan
     y="-3.3842375"
     x="309.2962"
     id="tspan4849"
     sodipodi:role="line">9</tspan></text>

<g
   id="g214"><g
     id="g216"
     clip-path="url(#clipPath220)"><path
       d="m 272.231,31.348 h 35.333 v 33.666 h -35.333 z"
       style="fill:#d1d3d4;fill-opacity:1;fill-rule:nonzero;stroke:none"
       id="path222" /><g
       id="g224"
       transform="translate(278.039,33.927)"><path
         d="M 0,0 -11.401,-6.377"
         style="fill:none;stroke:#000000;stroke-width:0.176;stroke-linecap:butt;stroke-linejoin:miter;stroke-miterlimit:4;stroke-dasharray:none;stroke-opacity:1"
         id="path226" /><g
         id="g228"
         transform="translate(8)"><path
           d="M 0,0 -11.401,-6.377"
           style="fill:none;stroke:#000000;stroke-width:0.176;stroke-linecap:butt;stroke-linejoin:miter;stroke-miterlimit:4;stroke-dasharray:none;stroke-opacity:1"
           id="path230" /><g
           id="g232"
           transform="translate(8)"><path
             d="M 0,0 -11.401,-6.377"
             style="fill:none;stroke:#000000;stroke-width:0.176;stroke-linecap:butt;stroke-linejoin:miter;stroke-miterlimit:4;stroke-dasharray:none;stroke-opacity:1"
             id="path234" /><g
             id="g236"
             transform="translate(8)"><path
               d="M 0,0 -11.401,-6.377"
               style="fill:none;stroke:#000000;stroke-width:0.176;stroke-linecap:butt;stroke-linejoin:miter;stroke-miterlimit:4;stroke-dasharray:none;stroke-opacity:1"
               id="path238" /><g
               id="g240"
               transform="translate(8)"><path
                 d="M 0,0 -11.401,-6.377"
                 style="fill:none;stroke:#000000;stroke-width:0.176;stroke-linecap:butt;stroke-linejoin:miter;stroke-miterlimit:4;stroke-dasharray:none;stroke-opacity:1"
                 id="path242" /><g
                 id="g244"
                 transform="translate(8)"><path
                   d="M 0,0 -11.401,-6.377"
                   style="fill:none;stroke:#000000;stroke-width:0.176;stroke-linecap:butt;stroke-linejoin:miter;stroke-miterlimit:4;stroke-dasharray:none;stroke-opacity:1"
                   id="path246" /><g
                   id="g248"
                   transform="translate(-40,8)"><path
                     d="M 0,0 -11.401,-6.377"
                     style="fill:none;stroke:#000000;stroke-width:0.176;stroke-linecap:butt;stroke-linejoin:miter;stroke-miterlimit:4;stroke-dasharray:none;stroke-opacity:1"
                     id="path250" /><g
                     id="g252"
                     transform="translate(8)"><path
                       d="M 0,0 -11.401,-6.377"
                       style="fill:none;stroke:#000000;stroke-width:0.176;stroke-linecap:butt;stroke-linejoin:miter;stroke-miterlimit:4;stroke-dasharray:none;stroke-opacity:1"
                       id="path254" /><g
                       id="g256"
                       transform="translate(8)"><path
                         d="M 0,0 -11.401,-6.377"
                         style="fill:none;stroke:#000000;stroke-width:0.176;stroke-linecap:butt;stroke-linejoin:miter;stroke-miterlimit:4;stroke-dasharray:none;stroke-opacity:1"
                         id="path258" /><g
                         id="g260"
                         transform="translate(8)"><path
                           d="M 0,0 -11.401,-6.377"
                           style="fill:none;stroke:#000000;stroke-width:0.176;stroke-linecap:butt;stroke-linejoin:miter;stroke-miterlimit:4;stroke-dasharray:none;stroke-opacity:1"
                           id="path262" /><g
                           id="g264"
                           transform="translate(8)"><path
                             d="M 0,0 -11.401,-6.377"
                             style="fill:none;stroke:#000000;stroke-width:0.176;stroke-linecap:butt;stroke-linejoin:miter;stroke-miterlimit:4;stroke-dasharray:none;stroke-opacity:1"
                             id="path266" /><g
                             id="g268"
                             transform="translate(8)"><path
                               d="M 0,0 -11.401,-6.377"
                               style="fill:none;stroke:#000000;stroke-width:0.176;stroke-linecap:butt;stroke-linejoin:miter;stroke-miterlimit:4;stroke-dasharray:none;stroke-opacity:1"
                               id="path270" /><g
                               id="g272"
                               transform="translate(-40,8)"><path
                                 d="M 0,0 -11.401,-6.377"
                                 style="fill:none;stroke:#000000;stroke-width:0.176;stroke-linecap:butt;stroke-linejoin:miter;stroke-miterlimit:4;stroke-dasharray:none;stroke-opacity:1"
                                 id="path274" /><g
                                 id="g276"
                                 transform="translate(8)"><path
                                   d="M 0,0 -11.401,-6.377"
                                   style="fill:none;stroke:#000000;stroke-width:0.176;stroke-linecap:butt;stroke-linejoin:miter;stroke-miterlimit:4;stroke-dasharray:none;stroke-opacity:1"
                                   id="path278" /><g
                                   id="g280"
                                   transform="translate(8)"><path
                                   d="M 0,0 -11.401,-6.377"
                                   style="fill:none;stroke:#000000;stroke-width:0.176;stroke-linecap:butt;stroke-linejoin:miter;stroke-miterlimit:4;stroke-dasharray:none;stroke-opacity:1"
                                   id="path282" /><g
                                   id="g284"
                                   transform="translate(8)"><path
                                   d="M 0,0 -11.401,-6.377"
                                   style="fill:none;stroke:#000000;stroke-width:0.176;stroke-linecap:butt;stroke-linejoin:miter;stroke-miterlimit:4;stroke-dasharray:none;stroke-opacity:1"
                                   id="path286" /><g
                                   id="g288"
                                   transform="translate(8)"><path
                                   d="M 0,0 -11.401,-6.377"
                                   style="fill:none;stroke:#000000;stroke-width:0.176;stroke-linecap:butt;stroke-linejoin:miter;stroke-miterlimit:4;stroke-dasharray:none;stroke-opacity:1"
                                   id="path290" /><g
                                   id="g292"
                                   transform="translate(8)"><path
                                   d="M 0,0 -11.401,-6.377"
                                   style="fill:none;stroke:#000000;stroke-width:0.176;stroke-linecap:butt;stroke-linejoin:miter;stroke-miterlimit:4;stroke-dasharray:none;stroke-opacity:1"
                                   id="path294" /><g
                                   id="g296"
                                   transform="translate(-40,8)"><path
                                   d="M 0,0 -11.401,-6.377"
                                   style="fill:none;stroke:#000000;stroke-width:0.176;stroke-linecap:butt;stroke-linejoin:miter;stroke-miterlimit:4;stroke-dasharray:none;stroke-opacity:1"
                                   id="path298" /><g
                                   id="g300"
                                   transform="translate(8)"><path
                                   d="M 0,0 -11.401,-6.377"
                                   style="fill:none;stroke:#000000;stroke-width:0.176;stroke-linecap:butt;stroke-linejoin:miter;stroke-miterlimit:4;stroke-dasharray:none;stroke-opacity:1"
                                   id="path302" /><g
                                   id="g304"
                                   transform="translate(8)"><path
                                   d="M 0,0 -11.401,-6.377"
                                   style="fill:none;stroke:#000000;stroke-width:0.176;stroke-linecap:butt;stroke-linejoin:miter;stroke-miterlimit:4;stroke-dasharray:none;stroke-opacity:1"
                                   id="path306" /><g
                                   id="g308"
                                   transform="translate(8)"><path
                                   d="M 0,0 -11.401,-6.377"
                                   style="fill:none;stroke:#000000;stroke-width:0.176;stroke-linecap:butt;stroke-linejoin:miter;stroke-miterlimit:4;stroke-dasharray:none;stroke-opacity:1"
                                   id="path310" /><g
                                   id="g312"
                                   transform="translate(8)"><path
                                   d="M 0,0 -11.401,-6.377"
                                   style="fill:none;stroke:#000000;stroke-width:0.176;stroke-linecap:butt;stroke-linejoin:miter;stroke-miterlimit:4;stroke-dasharray:none;stroke-opacity:1"
                                   id="path314" /><g
                                   id="g316"
                                   transform="translate(8)"><path
                                   d="M 0,0 -11.401,-6.377"
                                   style="fill:none;stroke:#000000;stroke-width:0.176;stroke-linecap:butt;stroke-linejoin:miter;stroke-miterlimit:4;stroke-dasharray:none;stroke-opacity:1"
                                   id="path318" /><g
                                   id="g320"
                                   transform="translate(-40,8)"><path
                                   d="M 0,0 -11.401,-6.377"
                                   style="fill:none;stroke:#000000;stroke-width:0.176;stroke-linecap:butt;stroke-linejoin:miter;stroke-miterlimit:4;stroke-dasharray:none;stroke-opacity:1"
                                   id="path322" /><g
                                   id="g324"
                                   transform="translate(8)"><path
                                   d="M 0,0 -11.401,-6.377"
                                   style="fill:none;stroke:#000000;stroke-width:0.176;stroke-linecap:butt;stroke-linejoin:miter;stroke-miterlimit:4;stroke-dasharray:none;stroke-opacity:1"
                                   id="path326" /><g
                                   id="g328"
                                   transform="translate(8)"><path
                                   d="M 0,0 -11.401,-6.377"
                                   style="fill:none;stroke:#000000;stroke-width:0.176;stroke-linecap:butt;stroke-linejoin:miter;stroke-miterlimit:4;stroke-dasharray:none;stroke-opacity:1"
                                   id="path330" /><g
                                   id="g332"
                                   transform="translate(8)"><path
                                   d="M 0,0 -11.401,-6.377"
                                   style="fill:none;stroke:#000000;stroke-width:0.176;stroke-linecap:butt;stroke-linejoin:miter;stroke-miterlimit:4;stroke-dasharray:none;stroke-opacity:1"
                                   id="path334" /><g
                                   id="g336"
                                   transform="translate(8)"><path
                                   d="M 0,0 -11.401,-6.377"
                                   style="fill:none;stroke:#000000;stroke-width:0.176;stroke-linecap:butt;stroke-linejoin:miter;stroke-miterlimit:4;stroke-dasharray:none;stroke-opacity:1"
                                   id="path338" /><g
                                   id="g340"
                                   transform="translate(8)"><path
                                   d="M 0,0 -11.401,-6.377"
                                   style="fill:none;stroke:#000000;stroke-width:0.176;stroke-linecap:butt;stroke-linejoin:miter;stroke-miterlimit:4;stroke-dasharray:none;stroke-opacity:1"
                                   id="path342" /></g></g></g></g></g></g></g></g></g></g></g></g></g></g></g></g></g></g></g></g></g></g></g></g></g></g></g></g></g></g></g></g><text
   transform="matrix(1,0,0,-1,383.3357,36.3057)"
   style="font-variant:normal;font-weight:normal;font-stretch:normal;font-size:10px;font-family:Helvetica;-inkscape-font-specification:Helvetica;writing-mode:lr-tb;fill:#231f20;fill-opacity:1;fill-rule:nonzero;stroke:none"
   id="text346"><tspan
     id="tspan344">7</tspan></text>
<path
   d="m 289.767,49.405 h 2.0313 v 2 h -2.0313 z"
   style="fill:#231f20;fill-opacity:1;fill-rule:nonzero;stroke:none"
   id="path348" />
<g
   id="g358"
   transform="translate(290.658,21.113)"><path
     d="M 0,0 V 25"
     style="fill:#231f20;fill-opacity:1;fill-rule:nonzero;stroke:#231f20;stroke-width:0.296;stroke-linecap:butt;stroke-linejoin:miter;stroke-miterlimit:4;stroke-dasharray:none;stroke-opacity:1"
     id="path360" /></g><g
   id="g362"
   transform="translate(290.354,46.814)"><path
     d="M 0,0 C -0.147,-0.49 -0.284,-0.809 -0.441,-1.201 H 1.053 C 0.985,-1.061 0.759,-0.49 0.61,0 0.452,0.523 0.344,0.999 0.306,1.307 0.267,0.999 0.158,0.523 0,0"
     style="fill:#231f20;fill-opacity:1;fill-rule:nonzero;stroke:none"
     id="path364" /></g><g
   id="g366"
   transform="translate(290.962,20.414)"><path
     d="M 0,0 C 0.149,0.489 0.284,0.808 0.442,1.2 H -1.052 C -0.985,1.06 -0.758,0.489 -0.61,0 -0.452,-0.524 -0.344,-0.999 -0.305,-1.308 -0.267,-0.999 -0.158,-0.524 0,0"
     style="fill:#231f20;fill-opacity:1;fill-rule:nonzero;stroke:none"
     id="path368" /></g><text
   y="-33.917"
   x="266.06143"
   transform="scale(1,-1)"
   style="font-style:normal;font-variant:normal;font-weight:normal;font-stretch:normal;font-size:10px;font-family:Helvetica;-inkscape-font-specification:'Helvetica Normal';font-variant-ligatures:normal;font-variant-caps:normal;font-variant-numeric:normal;font-variant-east-asian:normal;writing-mode:lr-tb;fill:#231f20;fill-opacity:1;fill-rule:nonzero;stroke:none"
   id="text374"><tspan
     y="-33.917"
     x="266.06143"
     id="tspan4847"
     sodipodi:role="line">8</tspan></text>

<g
   id="g380"
   transform="translate(310.839,54.238)"><path
     d="M 0,0 C 0,0 9.668,7.32 18.333,7.667 26.667,8 29,9.334 37,4 50.141,-4.761 68.333,-14.666 68.333,-14.666"
     style="fill:none;stroke:#231f20;stroke-width:1;stroke-linecap:butt;stroke-linejoin:miter;stroke-miterlimit:4;stroke-dasharray:none;stroke-opacity:1"
     id="path382" /></g><g
   id="g384"
   transform="translate(309.673,51.943)"><path
     d="M 0,0 C 1.592,0.669 2.713,1 4.074,1.436 L 0.858,5.322 C 0.636,4.846 -0.358,3.026 -1.314,1.588 -2.336,0.048 -3.339,-1.257 -4.058,-2.02 -3.173,-1.457 -1.704,-0.716 0,0"
     style="fill:#231f20;fill-opacity:1;fill-rule:nonzero;stroke:none"
     id="path386" /></g><g
   id="g388"
   transform="translate(288.172,81.572)"><path
     d="m 0,0 c 0,0 -10.001,3 -13.667,-6.334 -3.667,-9.333 9,-18.333 9,-18.333"
     style="fill:none;stroke:#231f20;stroke-width:1;stroke-linecap:butt;stroke-linejoin:miter;stroke-miterlimit:4;stroke-dasharray:none;stroke-opacity:1"
     id="path390" /></g><g
   id="g392"
   transform="translate(286.024,56.372)"><path
     d="M 0,0 C -1.058,1.365 -1.668,2.362 -2.441,3.564 L -5.363,-0.548 C -4.845,-0.639 -2.83,-1.129 -1.194,-1.68 0.558,-2.269 2.078,-2.9 3.002,-3.397 2.229,-2.688 1.133,-1.46 0,0"
     style="fill:#231f20;fill-opacity:1;fill-rule:nonzero;stroke:none"
     id="path394" /></g><text
   y="-5.9978676"
   x="223.07251"
   transform="scale(1,-1)"
   style="font-variant:normal;font-weight:normal;font-stretch:normal;font-size:10px;font-family:Helvetica;-inkscape-font-specification:Helvetica;writing-mode:lr-tb;fill:#231f20;fill-opacity:1;fill-rule:nonzero;stroke:none"
   id="text398"><tspan
     id="tspan396">5</tspan></text>
<g
   id="g400"
   transform="translate(223.839,15.238)"><path
     d="M 0,0 C 0,0 -6,7 5.5,7.5 17,8 26,5.5 26,5.5"
     style="fill:none;stroke:#231f20;stroke-width:1;stroke-linecap:butt;stroke-linejoin:miter;stroke-miterlimit:4;stroke-dasharray:none;stroke-opacity:1"
     id="path402" /></g><g
   id="g404"
   transform="translate(252.388,21.094)"><path
     d="m 0,0 c -1.459,0.924 -2.372,1.654 -3.507,2.522 l -1.35,-4.86 c 0.518,0.09 2.579,0.314 4.306,0.352 C 1.297,-1.944 2.94,-2.021 3.978,-2.174 3.01,-1.77 1.562,-0.988 0,0"
     style="fill:#231f20;fill-opacity:1;fill-rule:nonzero;stroke:none"
     id="path406" /></g><text
   transform="scale(1,-1)"
   id="text398-3"
   style="font-variant:normal;font-weight:normal;font-stretch:normal;font-size:9.99998px;font-family:Helvetica;-inkscape-font-specification:'Helvetica Normal';writing-mode:lr-tb;fill:#231f20;fill-opacity:1;fill-rule:nonzero;stroke:none;stroke-width:0.999998;font-style:normal;font-variant-ligatures:normal;font-variant-caps:normal;font-variant-numeric:normal;font-variant-east-asian:normal;"
   x="147.714"
   y="-77.677635"><tspan
     id="tspan4825"
     sodipodi:role="line">6</tspan></text><text
   transform="scale(1,-1)"
   id="text398-2"
   style="font-variant:normal;font-weight:normal;font-stretch:normal;font-size:9.99998px;font-family:Helvetica;-inkscape-font-specification:'Helvetica Normal';writing-mode:lr-tb;fill:#231f20;fill-opacity:1;fill-rule:nonzero;stroke:none;stroke-width:0.999998;font-style:normal;font-variant-ligatures:normal;font-variant-caps:normal;font-variant-numeric:normal;font-variant-east-asian:normal;"
   x="292.16574"
   y="-78.433929"><tspan
     id="tspan4845"
     sodipodi:role="line">10</tspan></text><path
   sodipodi:nodetypes="csc"
   inkscape:connector-curvature="0"
   id="path4851"
   d="m 273.77766,10.811726 c 0,0 8.31921,-6.8066275 20.04173,-7.56292 11.72253,-0.7562926 13.23511,1.8907268 13.23511,1.8907268"
   style="fill:none;stroke:#000000;stroke-width:0.75px;stroke-linecap:butt;stroke-linejoin:miter;stroke-opacity:1;marker-start:url(#Arrow1Mstart)" /><path
   style="fill:none;stroke:#000000;stroke-width:0.75px;stroke-linecap:butt;stroke-linejoin:miter;stroke-opacity:1;marker-start:url(#Arrow1Mstart-7)"
   d="m 70.744305,12.868253 c -1.182904,-3.5487118 -5.094388,-9.0755043 3.025163,-9.0755043 9.759567,0 28.360942,2.6470119 28.360942,2.6470119"
   id="path4851-7"
   inkscape:connector-curvature="0"
   sodipodi:nodetypes="csc" /><path
   inkscape:connector-curvature="0"
   id="path4952"
   d="m 273.138,37.05 16,-8.000002"
   style="fill:none;stroke:#000000;stroke-width:0.75px;stroke-linecap:butt;stroke-linejoin:miter;stroke-opacity:1;marker-end:url(#Arrow1Mend)" /><path
   inkscape:connector-curvature="0"
   id="path4992"
   d="M 12.856962,62.23957 34.789425,44.844858"
   style="fill:none;stroke:#000000;stroke-width:0.75px;stroke-linecap:butt;stroke-linejoin:miter;stroke-opacity:1;marker-end:url(#marker5036)" /><path
   sodipodi:nodetypes="cc"
   inkscape:connector-curvature="0"
   id="path4994"
   d="M 13.235107,33.878625 33.814833,23.830021"
   style="fill:none;stroke:#000000;stroke-width:0.75px;stroke-linecap:butt;stroke-linejoin:miter;stroke-opacity:1;marker-end:url(#marker5026)" /><path
   sodipodi:nodetypes="cc"
   inkscape:connector-curvature="0"
   id="path5092"
   d="m 24.957631,6.2739746 c 0,0 5.432189,-11.4531255 20.936172,5.5634414"
   style="fill:none;stroke:#000000;stroke-width:0.75px;stroke-linecap:butt;stroke-linejoin:miter;stroke-opacity:1;marker-end:url(#marker5126)" /></g></svg>
