<?xml version="1.0" encoding="UTF-8" standalone="no"?>
<svg
   xmlns:dc="http://purl.org/dc/elements/1.1/"
   xmlns:cc="http://creativecommons.org/ns#"
   xmlns:rdf="http://www.w3.org/1999/02/22-rdf-syntax-ns#"
   xmlns:svg="http://www.w3.org/2000/svg"
   xmlns="http://www.w3.org/2000/svg"
   viewBox="0 0 576 213.332"
   height="213.332"
   width="576"
   xml:space="preserve"
   id="svg2"
   version="1.1"><metadata
     id="metadata8"><rdf:RDF><cc:Work
         rdf:about=""><dc:format>image/svg+xml</dc:format><dc:type
           rdf:resource="http://purl.org/dc/dcmitype/StillImage" /></cc:Work></rdf:RDF></metadata><defs
     id="defs6" /><g
     transform="matrix(1.3333333,0,0,-1.3333333,0,213.332)"
     id="g10"><g
       transform="translate(357.077,47.896)"
       id="g12"><path
         id="path14"
         style="fill:#899096;fill-opacity:1;fill-rule:nonzero;stroke:none"
         d="m 0,0 h -116.731 l 26.333,31.109 H 26.333 L 0,0" /></g><g
       transform="translate(352.895,51.496)"
       id="g16"><path
         id="path18"
         style="fill:#ffffff;fill-opacity:1;fill-rule:nonzero;stroke:#231f20;stroke-width:1;stroke-linecap:butt;stroke-linejoin:miter;stroke-miterlimit:4;stroke-dasharray:none;stroke-opacity:1"
         d="m 0,0 h -116.731 l 26.333,31.109 H 26.333 Z" /></g><g
       transform="translate(354.806,67.044)"
       id="g20"><path
         id="path22"
         style="fill:none;stroke:#231f20;stroke-width:1;stroke-linecap:butt;stroke-linejoin:miter;stroke-miterlimit:4;stroke-dasharray:none;stroke-opacity:1"
         d="m 0,0 c 0,-6.019 -19.803,-10.897 -44.23,-10.897 -24.428,0 -44.231,4.878 -44.231,10.897 0,6.019 19.803,10.897 44.231,10.897 C -19.803,10.897 0,6.019 0,0 Z" /><g
         transform="translate(0,55.006)"
         id="g24"><path
           id="path26"
           style="fill:none;stroke:#231f20;stroke-width:1;stroke-linecap:butt;stroke-linejoin:miter;stroke-miterlimit:4;stroke-dasharray:none;stroke-opacity:1"
           d="m 0,0 c 0,-6.019 -19.803,-10.898 -44.23,-10.898 -24.428,0 -44.231,4.879 -44.231,10.898 0,6.018 19.803,10.897 44.231,10.897 C -19.803,10.897 0,6.018 0,0 Z" /><g
           transform="translate(-88.461)"
           id="g28"><path
             id="path30"
             style="fill:none;stroke:#231f20;stroke-width:1;stroke-linecap:butt;stroke-linejoin:miter;stroke-miterlimit:4;stroke-dasharray:none;stroke-opacity:1"
             d="M 0,0 V -55.006" /><g
             transform="translate(88.461)"
             id="g32"><path
               id="path34"
               style="fill:none;stroke:#231f20;stroke-width:1;stroke-linecap:butt;stroke-linejoin:miter;stroke-miterlimit:4;stroke-dasharray:none;stroke-opacity:1"
               d="M 0,0 V -55.006" /><g
               transform="translate(-203.333,-56.502)"
               id="g36"><path
                 id="path38"
                 style="fill:none;stroke:#231f20;stroke-width:1;stroke-linecap:butt;stroke-linejoin:miter;stroke-miterlimit:4;stroke-dasharray:none;stroke-opacity:1"
                 d="m 0,0 c 0,-6.019 -19.803,-10.898 -44.231,-10.898 -24.427,0 -44.23,4.879 -44.23,10.898 0,6.018 19.803,10.897 44.23,10.897 C -19.803,10.897 0,6.018 0,0 Z" /><g
                 transform="translate(-44.231,-0.406)"
                 id="g40"><path
                   id="path42"
                   style="fill:none;stroke:#231f20;stroke-width:1;stroke-linecap:butt;stroke-linejoin:miter;stroke-miterlimit:4;stroke-dasharray:none;stroke-opacity:1"
                   d="M 0,0 V 50.852" /></g></g></g></g></g></g><g
       transform="translate(110.112,114.251)"
       id="g44"><path
         id="path46"
         style="fill:#231f20;fill-opacity:1;fill-rule:nonzero;stroke:none"
         d="M 0,0 -2.904,9.539 -5.809,0 H 0" /></g><g
       transform="translate(151.473,120.554)"
       id="g48"><path
         id="path50"
         style="fill:none;stroke:#231f20;stroke-width:1;stroke-linecap:butt;stroke-linejoin:miter;stroke-miterlimit:4;stroke-dasharray:none;stroke-opacity:1"
         d="m 0,0 c 0,-6.02 -19.803,-10.898 -44.231,-10.898 -24.427,0 -44.23,4.878 -44.23,10.898 0,6.018 19.803,10.896 44.23,10.896 C -19.803,10.896 0,6.018 0,0 Z" /><g
         transform="translate(-88.461)"
         id="g52"><path
           id="path54"
           style="fill:none;stroke:#231f20;stroke-width:1;stroke-linecap:butt;stroke-linejoin:miter;stroke-miterlimit:4;stroke-dasharray:none;stroke-opacity:1"
           d="M 0,0 V -55.006" /><g
           transform="translate(88.461)"
           id="g56"><path
             id="path58"
             style="fill:none;stroke:#231f20;stroke-width:1;stroke-linecap:butt;stroke-linejoin:miter;stroke-miterlimit:4;stroke-dasharray:none;stroke-opacity:1"
             d="M 0,0 V -55.006" /></g></g></g><text
       id="text76"
       style="font-variant:normal;font-weight:normal;font-stretch:normal;font-size:10px;font-family:Helvetica;-inkscape-font-specification:Helvetica;writing-mode:lr-tb;fill:#231f20;fill-opacity:1;fill-rule:nonzero;stroke:none"
       transform="matrix(1,0,0,-1,82.0032,23.1846)"><tspan
         id="tspan60"
         y="0"
         x="0 2.78 9.4499998 17.23 20.01 25.57 31.129999 36.689999 42.25 47.810001">ISO 10303</tspan><tspan
         id="tspan62"
         y="12"
         x="-8.0550003 -4.7249999 0.83499998 6.395 9.7250004 15.285 20.285 25.844999 31.405001 34.185001 39.744999 42.525002 44.744999 50.305">representation</tspan><tspan
         id="tspan64"
         y="-0.66799998"
         x="201.33299 204.11301 210.783 218.563 221.343 226.903 232.463 238.02299 243.58299 249.14301">ISO 14649</tspan><tspan
         id="tspan66"
         y="11.332"
         x="193.278 196.608 202.168 207.728 211.058 216.618 221.618 227.17799 232.73801 235.51801 241.078 243.858 246.078 251.638">representation</tspan><tspan
         id="tspan68"
         y="-82.500999"
         x="292.229 297.789 303.349 308.909 311.689 317.24899">depth</tspan><tspan
         id="tspan70"
         y="-70.500999"
         x="288.49399 293.49399 299.05399 302.384 304.86401 310.42401 315.42401">surface</tspan><tspan
         id="tspan72"
         y="-74.001999"
         x="84.702003 87.181999 92.741997 98.302002 101.082 106.642 109.972 115.532 118.312 123.872 126.092 131.65199 136.65199 142.21201 150.54201 156.10201 161.662 164.442">feature placement</tspan><tspan
         id="tspan74"
         y="-62.001999"
         x="91.372002 94.702003 100.262 102.742 108.302 111.632 117.192 122.752 127.752 133.312 136.092 141.65199 147.21201 149.43201 154.992">reference point</tspan></text>
<g
       transform="translate(114.573,64.717)"
       id="g78"><path
         id="path80"
         style="fill:none;stroke:#231f20;stroke-width:1;stroke-linecap:butt;stroke-linejoin:miter;stroke-miterlimit:4;stroke-dasharray:none;stroke-opacity:1"
         d="M 0,0 C 8.53,0.893 17.031,-2.186 25.451,-2.667 32.626,-3.077 40.247,-3.901 47.077,-3.998 58.83,-4.164 86.256,1.026 88.038,16" /></g><g
       transform="translate(112.892,63.768)"
       id="g82"><path
         id="path84"
         style="fill:#231f20;fill-opacity:1;fill-rule:nonzero;stroke:none"
         d="M 0,0 C 1.273,-0.243 2.11,-0.502 3.141,-0.796 L 2.747,2.967 C 2.41,2.762 1.033,2.039 -0.161,1.537 -1.439,1 -2.607,0.602 -3.373,0.424 -2.587,0.408 -1.362,0.261 0,0" /></g><g
       transform="translate(306.917,122.717)"
       id="g86"><path
         id="path88"
         style="fill:none;stroke:#231f20;stroke-width:1;stroke-linecap:butt;stroke-linejoin:miter;stroke-miterlimit:4;stroke-dasharray:none;stroke-opacity:1"
         d="m 0,0 c -7.548,2.503 -16.331,3.378 -24.056,6.799 -11.816,5.233 -23.401,8.709 -36.372,8.45 -3.774,-0.075 -7.549,-0.512 -11.223,-1.428 -7.725,-1.924 -17.275,-4.825 -22.275,-11.761 -2.783,-3.863 -4.549,-9.704 -4.77,-14.53 0,2.185 0.497,1.09 0,0.47" /></g><g
       transform="translate(308.839,122.889)"
       id="g90"><path
         id="path92"
         style="fill:#231f20;fill-opacity:1;fill-rule:nonzero;stroke:none"
         d="m 0,0 c -1.059,0.746 -1.715,1.327 -2.533,2.019 l -1.192,-3.591 c 0.392,0.049 1.944,0.14 3.239,0.105 C 0.899,-1.504 2.128,-1.622 2.899,-1.775 2.189,-1.437 1.134,-0.798 0,0" /></g><g
       transform="translate(375.243,61.717)"
       id="g94"><path
         id="path96"
         style="fill:none;stroke:#231f20;stroke-width:1;stroke-linecap:butt;stroke-linejoin:miter;stroke-miterlimit:4;stroke-dasharray:none;stroke-opacity:1"
         d="m 0,0 c 4.507,-0.36 9.29,-2.821 13.746,-0.863 3.85,1.691 6.09,6.119 6.231,10.181 C 20.161,14.628 15.357,18.651 16,24" /></g><g
       transform="translate(373.416,61.092)"
       id="g98"><path
         id="path100"
         style="fill:#231f20;fill-opacity:1;fill-rule:nonzero;stroke:none"
         d="M 0,0 C 1.206,-0.473 1.982,-0.881 2.942,-1.357 L 3.243,2.414 C 2.875,2.273 1.39,1.815 0.123,1.541 -1.231,1.247 -2.453,1.069 -3.238,1.034 -2.469,0.874 -1.291,0.505 0,0" /></g><text
       id="text106"
       style="font-variant:normal;font-weight:normal;font-stretch:normal;font-size:10px;font-family:Helvetica;-inkscape-font-specification:Helvetica;writing-mode:lr-tb;fill:#231f20;fill-opacity:1;fill-rule:nonzero;stroke:none"
       transform="matrix(1,0,0,-1,85.0127,96.0195)"><tspan
         id="tspan102"
         y="0"
         x="0 5.5599999 11.12 13.9">path</tspan><tspan
         id="tspan104"
         y="47"
         x="-41.384998 -35.825001 -32.494999 -26.934999 -24.155001 -21.934999 -19.715">profile</tspan></text>
</g></svg>