<?xml version="1.0" encoding="UTF-8" standalone="no"?>
<svg
   xmlns:dc="http://purl.org/dc/elements/1.1/"
   xmlns:cc="http://creativecommons.org/ns#"
   xmlns:rdf="http://www.w3.org/1999/02/22-rdf-syntax-ns#"
   xmlns:svg="http://www.w3.org/2000/svg"
   xmlns="http://www.w3.org/2000/svg"
   xmlns:sodipodi="http://sodipodi.sourceforge.net/DTD/sodipodi-0.dtd"
   xmlns:inkscape="http://www.inkscape.org/namespaces/inkscape"
   inkscape:version="1.0beta2 (f3d5b5a, 2020-03-13)"
   sodipodi:docname="depth_diffs.svg"
   version="1.1"
   id="svg2"
   xml:space="preserve"
   width="576"
   height="213.332"
   viewBox="0 0 576 213.332"><sodipodi:namedview
     inkscape:current-layer="svg2"
     inkscape:cy="106.666"
     inkscape:cx="288"
     inkscape:zoom="2.0225694"
     showgrid="false"
     id="namedview5839"
     inkscape:window-height="480"
     inkscape:window-width="640"
     inkscape:pageshadow="2"
     inkscape:pageopacity="0"
     guidetolerance="10"
     gridtolerance="10"
     objecttolerance="10"
     borderopacity="1"
     bordercolor="#666666"
     pagecolor="#ffffff" /><metadata
     id="metadata8"><rdf:RDF><cc:Work
         rdf:about=""><dc:format>image/svg+xml</dc:format><dc:type
           rdf:resource="http://purl.org/dc/dcmitype/StillImage" /></cc:Work></rdf:RDF></metadata><defs
     id="defs6"><marker
   inkscape:isstock="true"
   style="overflow:visible"
   id="marker6124"
   refX="0"
   refY="0"
   orient="auto"
   inkscape:stockid="Arrow1Mend"><path
     transform="matrix(-0.4,0,0,-0.4,-4,0)"
     style="fill:#000000;fill-opacity:1;fill-rule:evenodd;stroke:#000000;stroke-width:1pt;stroke-opacity:1"
     d="M 0,0 5,-5 -12.5,0 5,5 Z"
     id="path6122"
     inkscape:connector-curvature="0" /></marker><marker
   inkscape:isstock="true"
   style="overflow:visible;"
   id="Arrow1Mend"
   refX="0.0"
   refY="0.0"
   orient="auto"
   inkscape:stockid="Arrow1Mend"><path
     transform="scale(0.4) rotate(180) translate(10,0)"
     style="fill-rule:evenodd;stroke:#000000;stroke-width:1pt;stroke-opacity:1;fill:#000000;fill-opacity:1"
     d="M 0.0,0.0 L 5.0,-5.0 L -12.5,0.0 L 5.0,5.0 L 0.0,0.0 z "
     id="path919" /></marker>

<marker
   inkscape:collect="always"
   inkscape:stockid="Arrow1Mend"
   orient="auto"
   refY="0"
   refX="0"
   id="Arrow1Mend-2"
   style="overflow:visible"
   inkscape:isstock="true"><path
     inkscape:connector-curvature="0"
     id="path919-0"
     d="M 0,0 5,-5 -12.5,0 5,5 Z"
     style="fill:#000000;fill-opacity:1;fill-rule:evenodd;stroke:#000000;stroke-width:1pt;stroke-opacity:1"
     transform="matrix(-0.4,0,0,-0.4,-4,0)" /></marker></defs><path
     inkscape:connector-curvature="0"
     d="M 476.10265,149.47067 H 320.46132 L 355.57199,107.992 h 155.64133 l -35.11067,41.47867"
     style="fill:#899096;fill-opacity:1;fill-rule:nonzero;stroke:none;stroke-width:1.33333"
     id="path14" /><path
     inkscape:connector-curvature="0"
     d="M 470.52665,144.67067 H 314.88532 L 349.99599,103.192 h 155.64133 z"
     style="fill:#ffffff;fill-opacity:1;fill-rule:nonzero;stroke:#231f20;stroke-width:1.33333;stroke-linecap:butt;stroke-linejoin:miter;stroke-miterlimit:4;stroke-dasharray:none;stroke-opacity:1"
     id="path18" /><path
     inkscape:connector-curvature="0"
     d="m 473.07465,123.94 c 0,8.02533 -26.404,14.52933 -58.97333,14.52933 -32.57067,0 -58.97467,-6.504 -58.97467,-14.52933 0,-8.02533 26.404,-14.52933 58.97467,-14.52933 32.56933,0 58.97333,6.504 58.97333,14.52933 z"
     style="fill:none;stroke:#231f20;stroke-width:1.33333;stroke-linecap:butt;stroke-linejoin:miter;stroke-miterlimit:4;stroke-dasharray:none;stroke-opacity:1"
     id="path22" /><path
     id="path26"
     style="fill:none;stroke:#231f20;stroke-width:1.33333;stroke-linecap:butt;stroke-linejoin:miter;stroke-miterlimit:4;stroke-dasharray:none;stroke-opacity:1"
     d="m 473.07465,50.598669 c 0,8.025333 -26.404,14.530666 -58.97333,14.530666 -32.57067,0 -58.97467,-6.505333 -58.97467,-14.530666 0,-8.024 26.404,-14.529333 58.97467,-14.529333 32.56933,0 58.97333,6.505333 58.97333,14.529333 z"
     inkscape:connector-curvature="0" /><path
     inkscape:connector-curvature="0"
     d="M 355.12665,50.598669 V 123.94"
     style="fill:none;stroke:#231f20;stroke-width:1.33333;stroke-linecap:butt;stroke-linejoin:miter;stroke-miterlimit:4;stroke-dasharray:none;stroke-opacity:1"
     id="path30" /><path
     id="path34"
     style="fill:none;stroke:#231f20;stroke-width:1.33333;stroke-linecap:butt;stroke-linejoin:miter;stroke-miterlimit:4;stroke-dasharray:none;stroke-opacity:1"
     d="M 473.07465,50.598669 V 123.94"
     inkscape:connector-curvature="0" /><g
     transform="matrix(1.3333333,0,0,-1.3333333,201.96399,125.93467)"
     id="g36"><path
       id="path38"
       style="fill:none;stroke:#231f20;stroke-width:1;stroke-linecap:butt;stroke-linejoin:miter;stroke-miterlimit:4;stroke-dasharray:none;stroke-opacity:1"
       d="m 0,0 c 0,-6.019 -19.803,-10.898 -44.231,-10.898 -24.427,0 -44.23,4.879 -44.23,10.898 0,6.018 19.803,10.897 44.23,10.897 C -19.803,10.897 0,6.018 0,0 Z"
       inkscape:connector-curvature="0" /><g
       transform="translate(-44.231,-0.406)"
       id="g40"><path
         id="path42"
         style="fill:none;stroke:#231f20;stroke-width:1;stroke-linecap:butt;stroke-linejoin:miter;stroke-miterlimit:4;stroke-dasharray:none;stroke-opacity:1"
         d="M 0,0 V 50.852"
         inkscape:connector-curvature="0" /></g></g><path
     inkscape:connector-curvature="0"
     d="m 146.816,60.997337 -3.872,-12.718666 -3.87333,12.718666 h 7.74533"
     style="fill:#231f20;fill-opacity:1;fill-rule:nonzero;stroke:none;stroke-width:1.33333"
     id="path46" /><path
     inkscape:connector-curvature="0"
     d="m 201.96399,52.593337 c 0,8.026666 -26.404,14.530666 -58.97467,14.530666 -32.56933,0 -58.973327,-6.504 -58.973327,-14.530666 0,-8.024 26.403997,-14.528 58.973327,-14.528 32.57067,0 58.97467,6.504 58.97467,14.528 z"
     style="fill:none;stroke:#231f20;stroke-width:1.33333;stroke-linecap:butt;stroke-linejoin:miter;stroke-miterlimit:4;stroke-dasharray:none;stroke-opacity:1"
     id="path50" /><path
     id="path54"
     style="fill:none;stroke:#231f20;stroke-width:1.33333;stroke-linecap:butt;stroke-linejoin:miter;stroke-miterlimit:4;stroke-dasharray:none;stroke-opacity:1"
     d="M 84.015993,52.593337 V 125.93467"
     inkscape:connector-curvature="0" /><path
     inkscape:connector-curvature="0"
     d="M 201.96399,52.593337 V 125.93467"
     style="fill:none;stroke:#231f20;stroke-width:1.33333;stroke-linecap:butt;stroke-linejoin:miter;stroke-miterlimit:4;stroke-dasharray:none;stroke-opacity:1"
     id="path58" /><path
     sodipodi:nodetypes="cccc"
     inkscape:connector-curvature="0"
     d="m 152.764,127.04267 c 11.37333,-1.19067 22.708,2.91467 33.93467,3.556 9.56666,0.54667 19.728,1.64533 28.83466,1.77467 15.67067,0.22133 55.69961,-17.57592 58.07561,-37.541253"
     style="fill:none;stroke:#231f20;stroke-width:1.33333;stroke-linecap:butt;stroke-linejoin:miter;stroke-miterlimit:4;stroke-dasharray:none;stroke-opacity:1"
     id="path80" /><path
     inkscape:connector-curvature="0"
     d="m 150.52266,128.308 c 1.69733,0.324 2.81333,0.66933 4.188,1.06133 l -0.52533,-5.01733 c -0.44934,0.27333 -2.28534,1.23733 -3.87734,1.90667 -1.704,0.716 -3.26133,1.24666 -4.28266,1.484 1.048,0.0213 2.68133,0.21733 4.49733,0.56533"
     style="fill:#231f20;fill-opacity:1;fill-rule:nonzero;stroke:none;stroke-width:1.33333"
     id="path84" /><path
     sodipodi:nodetypes="ccccccc"
     inkscape:connector-curvature="0"
     d="m 409.22266,49.709337 c -10.064,-3.337333 -21.77467,-4.504 -32.07467,-9.065333 -15.75466,-6.977333 -31.20133,-11.612 -48.49599,-11.266666 -5.032,0.1 -10.06534,0.682666 -14.964,1.903999 -10.3,2.565334 -23.03334,6.433334 -29.7,15.681333 -3.71067,5.150667 -6.06534,12.938667 -6.36,19.373333 0,-2.913333 0.66266,-0.826667 0,0"
     style="fill:none;stroke:#231f20;stroke-width:1.33333;stroke-linecap:butt;stroke-linejoin:miter;stroke-miterlimit:4;stroke-dasharray:none;stroke-opacity:1"
     id="path88" /><path
     inkscape:connector-curvature="0"
     d="m 411.78532,49.480004 c -1.412,-0.994667 -2.28667,-1.769333 -3.37733,-2.692 l -1.58934,4.788 c 0.52267,-0.06533 2.592,-0.186667 4.31867,-0.14 1.84667,0.04933 3.48533,0.206667 4.51333,0.410667 -0.94666,-0.450667 -2.35333,-1.302667 -3.86533,-2.366667"
     style="fill:#231f20;fill-opacity:1;fill-rule:nonzero;stroke:none;stroke-width:1.33333"
     id="path92" /><path
     inkscape:connector-curvature="0"
     d="m 500.32399,131.04267 c 6.00933,0.48 12.38667,3.76133 18.328,1.15067 5.13333,-2.25467 8.12,-8.15867 8.308,-13.57467 0.24533,-7.08 -6.16,-12.444 -5.30267,-19.575999"
     style="fill:none;stroke:#231f20;stroke-width:1.33333;stroke-linecap:butt;stroke-linejoin:miter;stroke-miterlimit:4;stroke-dasharray:none;stroke-opacity:1"
     id="path96" /><path
     inkscape:connector-curvature="0"
     d="m 497.88799,131.876 c 1.608,0.63067 2.64267,1.17467 3.92267,1.80933 l 0.40133,-5.028 c -0.49067,0.188 -2.47067,0.79867 -4.16,1.164 -1.80533,0.392 -3.43467,0.62934 -4.48133,0.676 1.02533,0.21334 2.596,0.70534 4.31733,1.37867"
     style="fill:#231f20;fill-opacity:1;fill-rule:nonzero;stroke:none;stroke-width:1.33333"
     id="path100" /><text
     id="text5941"
     y="196.84634"
     x="136.95451"
     style="font-size:13.3333px;line-height:1;font-family:Helvetica;-inkscape-font-specification:'Helvetica Normal';letter-spacing:0px;word-spacing:0px"
     xml:space="preserve"><tspan
       y="196.84634"
       x="136.95451"
       id="tspan5939"
       sodipodi:role="line">1</tspan></text><text
     id="text5945"
     y="196.84634"
     x="405.91931"
     style="font-size:13.3333px;line-height:1;font-family:Helvetica;-inkscape-font-specification:'Helvetica Normal';letter-spacing:0px;word-spacing:0px"
     xml:space="preserve"><tspan
       y="196.84634"
       x="405.91931"
       id="tspan5943"
       sodipodi:role="line">2</tspan></text><text
     id="text5949"
     y="83.557083"
     x="100.36739"
     style="font-size:13.3333px;line-height:1;font-family:Helvetica;-inkscape-font-specification:'Helvetica Normal';letter-spacing:0px;word-spacing:0px"
     xml:space="preserve"><tspan
       y="83.557083"
       x="100.36739"
       id="tspan5947"
       sodipodi:role="line">3</tspan></text><text
     id="text5953"
     y="154.25923"
     x="44.992275"
     style="font-size:13.3333px;line-height:1;font-family:Helvetica;-inkscape-font-specification:'Helvetica Normal';letter-spacing:0px;word-spacing:0px"
     xml:space="preserve"><tspan
       y="154.25923"
       x="44.992275"
       id="tspan5951"
       sodipodi:role="line">4</tspan></text><text
     id="text5957"
     y="84.523605"
     x="272.44806"
     style="font-size:13.3333px;line-height:1;font-family:Helvetica;-inkscape-font-specification:'Helvetica Normal';letter-spacing:0px;word-spacing:0px"
     xml:space="preserve"><tspan
       y="84.523605"
       x="272.44806"
       id="tspan5955"
       sodipodi:role="line">5</tspan></text><text
     id="text5961"
     y="91.534767"
     x="518.15277"
     style="font-size:13.3333px;line-height:1;font-family:Helvetica;-inkscape-font-specification:'Helvetica Normal';letter-spacing:0px;word-spacing:0px"
     xml:space="preserve"><tspan
       y="91.534767"
       x="518.15277"
       id="tspan5959"
       sodipodi:role="line">6</tspan></text><path
     inkscape:connector-curvature="0"
     id="path5963"
     d="M 140.41545,181.64117 V 163.34761"
     style="fill:none;stroke:#000000;stroke-width:1px;stroke-linecap:butt;stroke-linejoin:miter;stroke-opacity:1;marker-end:url(#Arrow1Mend)" /><path
     style="fill:none;stroke:#000000;stroke-width:1px;stroke-linecap:butt;stroke-linejoin:miter;stroke-opacity:1;marker-end:url(#Arrow1Mend-2)"
     d="M 409.38025,181.64117 V 163.34761"
     id="path5963-4"
     inkscape:connector-curvature="0" /><path
     inkscape:connector-curvature="0"
     id="path6070"
     d="m 56.363948,149.80944 c 0,0 6.427468,2.96653 16.810301,-0.49442 10.382833,-3.46094 22.248927,-10.87725 22.248927,-10.87725"
     style="fill:none;stroke:#000000;stroke-width:1px;stroke-linecap:butt;stroke-linejoin:miter;stroke-opacity:1;marker-end:url(#Arrow1Mend-2)" /><path
     inkscape:connector-curvature="0"
     id="path6120"
     d="m 110.25579,79.601717 c 0,0 0.98885,-1.977683 9.88842,4.449785 8.89957,6.427468 20.27124,15.327039 20.27124,15.327039"
     style="fill:none;stroke:#000000;stroke-width:1px;stroke-linecap:butt;stroke-linejoin:miter;stroke-opacity:1;marker-end:url(#marker6124)" /></svg>
