<?xml version="1.0" encoding="UTF-8" standalone="no"?>
<svg
   xmlns:dc="http://purl.org/dc/elements/1.1/"
   xmlns:cc="http://creativecommons.org/ns#"
   xmlns:rdf="http://www.w3.org/1999/02/22-rdf-syntax-ns#"
   xmlns:svg="http://www.w3.org/2000/svg"
   xmlns="http://www.w3.org/2000/svg"
   viewBox="0 0 381.12668 213.00133"
   height="213.00133"
   width="381.12668"
   xml:space="preserve"
   id="svg2"
   version="1.1"><metadata
     id="metadata8"><rdf:RDF><cc:Work
         rdf:about=""><dc:format>image/svg+xml</dc:format><dc:type
           rdf:resource="http://purl.org/dc/dcmitype/StillImage" /></cc:Work></rdf:RDF></metadata><defs
     id="defs6" /><g
     transform="matrix(1.3333333,0,0,-1.3333333,0,213.00133)"
     id="g10"><text
       id="text14"
       style="font-variant:normal;font-weight:normal;font-stretch:normal;font-size:10px;font-family:Helvetica;-inkscape-font-specification:Helvetica;writing-mode:lr-tb;fill:#231f20;fill-opacity:1;fill-rule:nonzero;stroke:none"
       transform="matrix(1,0,0,-1,0,92.8911)"><tspan
         id="tspan12"
         y="0"
         x="0 5.5599999 7.7800002 16.110001 21.67 27.23 32.23 34.450001 40.009998 45.57 51.130001 55.880001 61.439999 63.66 69.220001">dimension_value</tspan></text>
<g
       transform="translate(108.542,11.728)"
       id="g16"><path
         id="path18"
         style="fill:none;stroke:#231f20;stroke-width:4;stroke-linecap:butt;stroke-linejoin:miter;stroke-miterlimit:4;stroke-dasharray:none;stroke-opacity:1"
         d="M 0,0 C 0,62.132 50.368,112.5 112.5,112.5" /></g><g
       transform="translate(88.213,16.728)"
       id="g20"><path
         id="path22"
         style="fill:none;stroke:#231f20;stroke-width:0.75;stroke-linecap:butt;stroke-linejoin:miter;stroke-miterlimit:4;stroke-dasharray:none;stroke-opacity:1"
         d="M 0,0 C 0,70.044 56.783,126.827 126.827,126.827" /></g><g
       transform="translate(216.812,144.323)"
       id="g24"><path
         id="path26"
         style="fill:#231f20;fill-opacity:1;fill-rule:nonzero;stroke:none"
         d="m 0,0 c -1.24,0.374 -2.046,0.72 -3.041,1.119 v -3.784 c 0.356,0.17 1.801,0.745 3.041,1.119 1.327,0.401 2.53,0.675 3.31,0.773 C 2.53,-0.675 1.327,-0.4 0,0" /></g><g
       transform="translate(88.982,14.956)"
       id="g28"><path
         id="path30"
         style="fill:#231f20;fill-opacity:1;fill-rule:nonzero;stroke:none"
         d="M 0,0 C 0.375,1.24 0.72,2.046 1.119,3.04 H -2.665 C -2.495,2.685 -1.92,1.24 -1.546,0 -1.145,-1.327 -0.87,-2.53 -0.773,-3.311 -0.675,-2.53 -0.4,-1.327 0,0" /></g><g
       transform="translate(70.064,11)"
       id="g32"><path
         id="path34"
         style="fill:none;stroke:#231f20;stroke-width:0.75;stroke-linecap:butt;stroke-linejoin:miter;stroke-miterlimit:4;stroke-dasharray:none;stroke-opacity:1"
         d="M 0,0 H 24" /></g><g
       transform="translate(220.565,139.084)"
       id="g36"><path
         id="path38"
         style="fill:none;stroke:#231f20;stroke-width:0.75;stroke-linecap:butt;stroke-linejoin:miter;stroke-miterlimit:4;stroke-dasharray:none;stroke-opacity:1"
         d="M 0,0 V 20.667" /></g><text
       id="text42"
       style="font-variant:normal;font-weight:normal;font-stretch:normal;font-size:10px;font-family:Helvetica;-inkscape-font-specification:Helvetica;writing-mode:lr-tb;fill:#231f20;fill-opacity:1;fill-rule:nonzero;stroke:none"
       transform="matrix(1,0,0,-1,86.1651,116.2202)"><tspan
         id="tspan40"
         y="0"
         x="0 5.5599999 11.12 16.68 19.459999 25.02">456.00</tspan></text>
<text
       id="text46"
       style="font-variant:normal;font-weight:normal;font-stretch:normal;font-size:8px;font-family:Helvetica;-inkscape-font-specification:Helvetica;writing-mode:lr-tb;fill:#231f20;fill-opacity:1;fill-rule:nonzero;stroke:none"
       transform="matrix(1,0,0,-1,115.2745,125.7202)"><tspan
         id="tspan44"
         y="0"
         x="0 4.6719999 6.8959999 11.344 15.792">±.001</tspan></text>
<g
       transform="translate(44.879,104.447)"
       id="g48"><path
         id="path50"
         style="fill:none;stroke:#231f20;stroke-width:1;stroke-linecap:butt;stroke-linejoin:miter;stroke-miterlimit:4;stroke-dasharray:none;stroke-opacity:1"
         d="M 0,0 C 14.142,14.142 24.993,13.679 32.292,13.928" /></g><g
       transform="translate(78.967,117.669)"
       id="g52"><path
         id="path54"
         style="fill:#231f20;fill-opacity:1;fill-rule:nonzero;stroke:none"
         d="M 0,0 C -1.226,-0.417 -2.02,-0.79 -3.001,-1.222 L -3.13,2.558 C -2.769,2.401 -1.305,1.877 -0.053,1.544 1.287,1.189 2.499,0.956 3.283,0.885 2.506,0.76 1.313,0.445 0,0" /></g><text
       id="text58"
       style="font-variant:normal;font-weight:normal;font-stretch:normal;font-size:10px;font-family:Helvetica;-inkscape-font-specification:Helvetica;writing-mode:lr-tb;fill:#231f20;fill-opacity:1;fill-rule:nonzero;stroke:none"
       transform="matrix(1,0,0,-1,213.1749,42.3037)"><tspan
         id="tspan56"
         y="0"
         x="0 5.5599999 10.56 16.120001 21.68 27.24 32.799999 38.360001 41.139999">used_path</tspan></text>
<g
       transform="translate(208.898,45.667)"
       id="g60"><path
         id="path62"
         style="fill:none;stroke:#231f20;stroke-width:0.75;stroke-linecap:butt;stroke-linejoin:miter;stroke-miterlimit:4;stroke-dasharray:none;stroke-opacity:1"
         d="m 0,0 c -28.667,4 -17.817,16.815 -26.834,26.833 -7.894,8.771 -16.5,-8.5 -36.499,8" /></g><g
       transform="translate(143.709,81.035)"
       id="g64"><path
         id="path66"
         style="fill:#231f20;fill-opacity:1;fill-rule:nonzero;stroke:none"
         d="M 0,0 C 0.718,-1.078 1.12,-1.857 1.633,-2.798 L 4.041,0.121 C 3.659,0.216 2.178,0.692 0.983,1.192 -0.295,1.727 -1.398,2.282 -2.062,2.703 -1.522,2.131 -0.769,1.154 0,0" /></g><text
       id="text72"
       style="font-variant:normal;font-weight:normal;font-stretch:normal;font-size:10px;font-family:Helvetica;-inkscape-font-specification:Helvetica;writing-mode:lr-tb;fill:#231f20;fill-opacity:1;fill-rule:nonzero;stroke:none"
       transform="matrix(1,0,0,-1,179.7378,17.6055)"><tspan
         id="tspan68"
         y="0"
         x="0 5.5599999 9.04 11.26 16.82 19.040001 24.6 27.379999 32.380001 37.939999 43.5 49.060001">origin shape</tspan><tspan
         id="tspan70"
         y="-53.863998"
         x="50.516998 53.297001 58.856998 62.187 67.747002 73.306999 76.086998 78.866997 83.866997 89.427002 94.987 100.547">target shape</tspan></text>
<g
       transform="translate(119.898,11.333)"
       id="g74"><path
         id="path76"
         style="fill:#231f20;fill-opacity:1;fill-rule:nonzero;stroke:none"
         d="m 0,0 c 0,-6.2593 -5.074,-11.333 -11.334,-11.333 -6.259,0 -11.333,5.0737 -11.333,11.333 0,6.259 5.074,11.333 11.333,11.333 C -5.074,11.333 0,6.259 0,0" /></g><g
       transform="translate(231.232,125)"
       id="g78"><path
         id="path80"
         style="fill:#231f20;fill-opacity:1;fill-rule:nonzero;stroke:none"
         d="m 0,0 c 0,-6.259 -5.074,-11.333 -11.333,-11.333 -6.26,0 -11.334,5.074 -11.334,11.333 0,6.259 5.074,11.333 11.334,11.333 C -5.074,11.333 0,6.259 0,0" /></g><g
       transform="translate(177.231,24)"
       id="g82"><path
         id="path84"
         style="fill:none;stroke:#231f20;stroke-width:0.75;stroke-linecap:butt;stroke-linejoin:miter;stroke-miterlimit:4;stroke-dasharray:none;stroke-opacity:1"
         d="M 0,0 C 0,0 -15.333,18.667 -28.666,7.333 -42,-4 -50.667,-6.667 -50.667,-6.667" /></g><g
       transform="translate(125.098,16.079)"
       id="g86"><path
         id="path88"
         style="fill:#231f20;fill-opacity:1;fill-rule:nonzero;stroke:none"
         d="M 0,0 C 1.295,0.006 2.167,-0.086 3.235,-0.175 L 2.123,3.44 C 1.832,3.174 0.62,2.2 -0.455,1.477 -1.605,0.704 -2.675,0.087 -3.392,-0.235 -2.617,-0.099 -1.387,-0.008 0,0" /></g><g
       transform="translate(225.564,74.667)"
       id="g90"><path
         id="path92"
         style="fill:none;stroke:#231f20;stroke-width:0.75;stroke-linecap:butt;stroke-linejoin:miter;stroke-miterlimit:4;stroke-dasharray:none;stroke-opacity:1"
         d="m 0,0 c 0,0 -36.617,-3.301 -26,14.667 8.667,14.667 11.334,18 11.334,18" /></g><g
       transform="translate(211.404,109.197)"
       id="g94"><path
         id="path96"
         style="fill:#231f20;fill-opacity:1;fill-rule:nonzero;stroke:none"
         d="m 0,0 c -1.067,-0.734 -1.84,-1.148 -2.773,-1.675 l 2.954,-2.364 c 0.09,0.384 0.544,1.872 1.026,3.074 C 1.723,0.321 2.261,1.432 2.672,2.103 2.108,1.554 1.142,0.786 0,0" /></g></g></svg>