<?xml version="1.0" encoding="UTF-8" standalone="no"?>
<svg
   xmlns:dc="http://purl.org/dc/elements/1.1/"
   xmlns:cc="http://creativecommons.org/ns#"
   xmlns:rdf="http://www.w3.org/1999/02/22-rdf-syntax-ns#"
   xmlns:svg="http://www.w3.org/2000/svg"
   xmlns="http://www.w3.org/2000/svg"
   viewBox="0 0 414.14001 154.44267"
   height="154.44267"
   width="414.14001"
   xml:space="preserve"
   id="svg2"
   version="1.1"><metadata
     id="metadata8"><rdf:RDF><cc:Work
         rdf:about=""><dc:format>image/svg+xml</dc:format><dc:type
           rdf:resource="http://purl.org/dc/dcmitype/StillImage" /></cc:Work></rdf:RDF></metadata><defs
     id="defs6" /><g
     transform="matrix(1.3333333,0,0,-1.3333333,0,154.44267)"
     id="g10"><text
       id="text14"
       style="font-variant:normal;font-weight:normal;font-stretch:normal;font-size:10px;font-family:Helvetica;-inkscape-font-specification:Helvetica;writing-mode:lr-tb;fill:#231f20;fill-opacity:1;fill-rule:nonzero;stroke:none"
       transform="matrix(1,0,0,-1,235.8256,24.4951)"><tspan
         id="tspan12"
         y="0"
         x="0 5.5599999 7.7800002 16.110001 21.67 27.23 32.23 34.450001 40.009998 45.57 51.130001 55.880001 61.439999 63.66 69.220001">dimension_value</tspan></text>
<g
       transform="translate(104.367,1.3316)"
       id="g16"><path
         id="path18"
         style="fill:none;stroke:#231f20;stroke-width:4;stroke-linecap:butt;stroke-linejoin:miter;stroke-miterlimit:4;stroke-dasharray:none;stroke-opacity:1"
         d="M 0,0 C 0,62.132 50.368,112.5 112.5,112.5" /></g><text
       id="text22"
       style="font-variant:normal;font-weight:normal;font-stretch:normal;font-size:10px;font-family:Helvetica;-inkscape-font-specification:Helvetica;writing-mode:lr-tb;fill:#231f20;fill-opacity:1;fill-rule:nonzero;stroke:none"
       transform="matrix(1,0,0,-1,176.3237,47.1577)"><tspan
         id="tspan20"
         y="0"
         x="0 5.5599999 11.12 13.9 19.459999">10.00</tspan></text>
<text
       id="text26"
       style="font-variant:normal;font-weight:normal;font-stretch:normal;font-size:8px;font-family:Helvetica;-inkscape-font-specification:Helvetica;writing-mode:lr-tb;fill:#231f20;fill-opacity:1;fill-rule:nonzero;stroke:none"
       transform="matrix(1,0,0,-1,202.4331,56.6577)"><tspan
         id="tspan24"
         y="0"
         x="0 4.6719999 6.8959999 11.344 15.792">±.001</tspan></text>
<g
       transform="translate(264.743,36.717)"
       id="g28"><path
         id="path30"
         style="fill:none;stroke:#231f20;stroke-width:1;stroke-linecap:butt;stroke-linejoin:miter;stroke-miterlimit:4;stroke-dasharray:none;stroke-opacity:1"
         d="M 0,0 C -14.142,14.142 -24.993,13.679 -32.293,13.928" /></g><g
       transform="translate(230.654,49.939)"
       id="g32"><path
         id="path34"
         style="fill:#231f20;fill-opacity:1;fill-rule:nonzero;stroke:none"
         d="M 0,0 C 1.226,-0.417 2.02,-0.79 3.001,-1.222 L 3.13,2.558 C 2.769,2.401 1.305,1.877 0.053,1.544 -1.287,1.189 -2.499,0.956 -3.283,0.885 -2.506,0.76 -1.313,0.445 0,0" /></g><text
       id="text38"
       style="font-variant:normal;font-weight:normal;font-stretch:normal;font-size:10px;font-family:Helvetica;-inkscape-font-specification:Helvetica;writing-mode:lr-tb;fill:#231f20;fill-opacity:1;fill-rule:nonzero;stroke:none"
       transform="matrix(1,0,0,-1,0,30.9077)"><tspan
         id="tspan36"
         y="0"
         x="0 5.5599999 11.12 16.68 18.9 21.120001 26.68 32.240002 37.799999 40.580002 46.139999 48.919998 53.919998 59.48 65.040001 70.599998">applied_to shape</tspan></text>
<g
       transform="translate(44.751,43.92)"
       id="g40"><path
         id="path42"
         style="fill:none;stroke:#231f20;stroke-width:0.75;stroke-linecap:butt;stroke-linejoin:miter;stroke-miterlimit:4;stroke-dasharray:none;stroke-opacity:1"
         d="M 0,0 C 0,0 10.199,22.411 23.421,24.894 35.019,27.071 31.373,8.123 57.283,9.093" /></g><g
       transform="translate(103.832,52.311)"
       id="g44"><path
         id="path46"
         style="fill:#231f20;fill-opacity:1;fill-rule:nonzero;stroke:none"
         d="M 0,0 C -1.225,-0.421 -2.017,-0.796 -2.996,-1.232 L -3.138,2.549 C -2.776,2.393 -1.311,1.872 -0.058,1.545 1.284,1.193 2.497,0.965 3.28,0.896 2.504,0.769 1.312,0.45 0,0" /></g><g
       transform="translate(216.39,0.271)"
       id="g48"><path
         id="path50"
         style="fill:none;stroke:#231f20;stroke-width:0.75;stroke-linecap:butt;stroke-linejoin:miter;stroke-miterlimit:4;stroke-dasharray:none;stroke-opacity:1"
         d="M 0,0 -76,72.667" /></g><g
       transform="translate(138.579,73.606)"
       id="g52"><path
         id="path54"
         style="fill:#231f20;fill-opacity:1;fill-rule:nonzero;stroke:none"
         d="m 0,0 c 0.637,-1.127 0.981,-1.934 1.424,-2.91 l 2.615,2.735 C 3.665,-0.052 2.223,0.531 1.068,1.117 -0.168,1.745 -1.228,2.378 -1.859,2.847 -1.363,2.237 -0.683,1.207 0,0" /></g></g></svg>