<?xml version="1.0" encoding="UTF-8" standalone="no"?>
<svg
   xmlns:dc="http://purl.org/dc/elements/1.1/"
   xmlns:cc="http://creativecommons.org/ns#"
   xmlns:rdf="http://www.w3.org/1999/02/22-rdf-syntax-ns#"
   xmlns:svg="http://www.w3.org/2000/svg"
   xmlns="http://www.w3.org/2000/svg"
   viewBox="0 0 342.68268 149.44"
   height="149.44"
   width="342.68268"
   xml:space="preserve"
   id="svg2"
   version="1.1"><metadata
     id="metadata8"><rdf:RDF><cc:Work
         rdf:about=""><dc:format>image/svg+xml</dc:format><dc:type
           rdf:resource="http://purl.org/dc/dcmitype/StillImage" /></cc:Work></rdf:RDF></metadata><defs
     id="defs6" /><g
     transform="matrix(1.3333333,0,0,-1.3333333,0,149.44)"
     id="g10"><text
       id="text14"
       style="font-variant:normal;font-weight:normal;font-stretch:normal;font-size:10px;font-family:Helvetica;-inkscape-font-specification:Helvetica;writing-mode:lr-tb;fill:#231f20;fill-opacity:1;fill-rule:nonzero;stroke:none"
       transform="matrix(1,0,0,-1,0,102.77)"><tspan
         id="tspan12"
         y="0"
         x="0 5.5599999 7.7800002 16.110001 21.67 27.23 32.23 34.450001 40.009998 45.57 51.130001 55.880001 61.439999 63.66 69.220001">dimension_value</tspan></text>
<g
       transform="translate(228.231,56.879)"
       id="g16"><path
         id="path18"
         style="fill:none;stroke:#231f20;stroke-width:0.75;stroke-linecap:butt;stroke-linejoin:miter;stroke-miterlimit:4;stroke-dasharray:none;stroke-opacity:1"
         d="M 0,0 V 20.667" /></g><text
       id="text22"
       style="font-variant:normal;font-weight:normal;font-stretch:normal;font-size:10px;font-family:Helvetica;-inkscape-font-specification:Helvetica;writing-mode:lr-tb;fill:#231f20;fill-opacity:1;fill-rule:nonzero;stroke:none"
       transform="matrix(1,0,0,-1,118.6651,84.5991)"><tspan
         id="tspan20"
         y="0"
         x="0 5.5599999 11.12 16.68 19.459999 25.02">123.00</tspan></text>
<text
       id="text26"
       style="font-variant:normal;font-weight:normal;font-stretch:normal;font-size:8px;font-family:Helvetica;-inkscape-font-specification:Helvetica;writing-mode:lr-tb;fill:#231f20;fill-opacity:1;fill-rule:nonzero;stroke:none"
       transform="matrix(1,0,0,-1,147.7745,94.0991)"><tspan
         id="tspan24"
         y="0"
         x="0 4.6719999 6.8959999 11.344 15.792">±.001</tspan></text>
<g
       transform="translate(78.376,105.79)"
       id="g28"><path
         id="path30"
         style="fill:none;stroke:#231f20;stroke-width:1;stroke-linecap:butt;stroke-linejoin:miter;stroke-miterlimit:4;stroke-dasharray:none;stroke-opacity:1"
         d="M 0,0 C 19.969,1.115 27.749,-6.463 33.356,-11.143" /></g><g
       transform="translate(112.6,92.923)"
       id="g32"><path
         id="path34"
         style="fill:#231f20;fill-opacity:1;fill-rule:nonzero;stroke:none"
         d="m 0,0 c -1.192,0.506 -2.032,0.758 -3.052,1.089 l 2.424,2.904 C -0.463,3.636 0.279,2.269 0.99,1.187 1.752,0.028 2.5,-0.953 3.038,-1.529 2.375,-1.104 1.275,-0.543 0,0" /></g><text
       id="text38"
       style="font-variant:normal;font-weight:normal;font-stretch:normal;font-size:10px;font-family:Helvetica;-inkscape-font-specification:Helvetica;writing-mode:lr-tb;fill:#231f20;fill-opacity:1;fill-rule:nonzero;stroke:none"
       transform="matrix(1,0,0,-1,18.2378,2.25)"><tspan
         id="tspan36"
         y="0"
         x="0 5.5599999 9.04">ori</tspan></text>
<text
       id="text42"
       style="font-variant:normal;font-weight:normal;font-stretch:normal;font-size:10px;font-family:Helvetica;-inkscape-font-specification:Helvetica;writing-mode:lr-tb;fill:#231f20;fill-opacity:1;fill-rule:nonzero;stroke:none"
       transform="matrix(1,0,0,-1,29.5011,2.25)"><tspan
         id="tspan40"
         y="0"
         x="0">g</tspan></text>
<text
       id="text46"
       style="font-variant:normal;font-weight:normal;font-stretch:normal;font-size:10px;font-family:Helvetica;-inkscape-font-specification:Helvetica;writing-mode:lr-tb;fill:#231f20;fill-opacity:1;fill-rule:nonzero;stroke:none"
       transform="matrix(1,0,0,-1,35.0626,2.25)"><tspan
         id="tspan44"
         y="0"
         x="0 2.22 7.7800002 10.56 15.56 21.120001 26.68 32.240002 37.799999 166.355 169.13499 174.69501">in shapetar</tspan></text>
<text
       id="text50"
       style="font-variant:normal;font-weight:normal;font-stretch:normal;font-size:10px;font-family:Helvetica;-inkscape-font-specification:Helvetica;writing-mode:lr-tb;fill:#231f20;fill-opacity:1;fill-rule:nonzero;stroke:none"
       transform="matrix(1,0,0,-1,213.0918,2.25)"><tspan
         id="tspan48"
         y="0"
         x="0">g</tspan></text>
<text
       id="text54"
       style="font-variant:normal;font-weight:normal;font-stretch:normal;font-size:10px;font-family:Helvetica;-inkscape-font-specification:Helvetica;writing-mode:lr-tb;fill:#231f20;fill-opacity:1;fill-rule:nonzero;stroke:none"
       transform="matrix(1,0,0,-1,218.6533,2.25)"><tspan
         id="tspan52"
         y="0"
         x="0 5.5599999 8.3400002 11.12 16.120001 21.68 27.24 32.799999">et shape</tspan></text>
<text
       id="text58"
       style="font-variant:normal;font-weight:normal;font-stretch:normal;font-size:10px;font-family:Helvetica;-inkscape-font-specification:Helvetica;writing-mode:lr-tb;fill:#231f20;fill-opacity:1;fill-rule:nonzero;stroke:none"
       transform="matrix(1,0,0,-1,257.0176,2.25)"><tspan
         id="tspan56"
         y="0"
         x="0"></tspan></text>
<g
       transform="translate(58.981,42.546)"
       id="g60"><path
         id="path62"
         style="fill:#231f20;fill-opacity:1;fill-rule:nonzero;stroke:none"
         d="m 0,0 c 0,-6.259 -5.074,-11.333 -11.333,-11.333 -6.26,0 -11.334,5.074 -11.334,11.333 0,6.259 5.074,11.333 11.334,11.333 C -5.074,11.333 0,6.259 0,0" /></g><g
       transform="translate(239.564,42.546)"
       id="g64"><path
         id="path66"
         style="fill:#231f20;fill-opacity:1;fill-rule:nonzero;stroke:none"
         d="m 0,0 c 0,-6.259 -5.074,-11.333 -11.333,-11.333 -6.26,0 -11.334,5.074 -11.334,11.333 0,6.259 5.074,11.333 11.334,11.333 C -5.074,11.333 0,6.259 0,0" /></g><g
       transform="translate(196.731,7.5855)"
       id="g68"><path
         id="path70"
         style="fill:none;stroke:#231f20;stroke-width:0.75;stroke-linecap:butt;stroke-linejoin:miter;stroke-miterlimit:4;stroke-dasharray:none;stroke-opacity:1"
         d="m 0,0 c 0,0 -38.702,21.774 -6,29 16.634,3.675 15.784,3.245 15.784,3.245" /></g><g
       transform="translate(208.192,40.788)"
       id="g72"><path
         id="path74"
         style="fill:#231f20;fill-opacity:1;fill-rule:nonzero;stroke:none"
         d="m 0,0 c -1.273,0.237 -2.112,0.492 -3.145,0.78 l 0.413,-3.76 c 0.336,0.207 1.709,0.936 2.9,1.444 1.276,0.543 2.442,0.947 3.207,1.129 C 2.589,-0.396 1.363,-0.253 0,0" /></g><g
       transform="translate(78.726,7.5855)"
       id="g76"><path
         id="path78"
         style="fill:none;stroke:#231f20;stroke-width:0.75;stroke-linecap:butt;stroke-linejoin:miter;stroke-miterlimit:4;stroke-dasharray:none;stroke-opacity:1"
         d="m 0,0 c 0,0 38.702,21.774 6,29 -16.635,3.676 -15.784,3.245 -15.784,3.245" /></g><g
       transform="translate(67.265,40.788)"
       id="g80"><path
         id="path82"
         style="fill:#231f20;fill-opacity:1;fill-rule:nonzero;stroke:none"
         d="M 0,0 C 1.272,0.237 2.112,0.492 3.144,0.78 L 2.731,-2.979 c -0.334,0.206 -1.708,0.936 -2.9,1.443 -1.275,0.543 -2.441,0.947 -3.207,1.129 C -2.589,-0.396 -1.363,-0.253 0,0" /></g><g
       transform="translate(47.648,56.879)"
       id="g84"><path
         id="path86"
         style="fill:none;stroke:#231f20;stroke-width:0.75;stroke-linecap:butt;stroke-linejoin:miter;stroke-miterlimit:4;stroke-dasharray:none;stroke-opacity:1"
         d="M 0,0 V 20.667" /><g
         transform="translate(6.916,9.5)"
         id="g88"><path
           id="path90"
           style="fill:none;stroke:#231f20;stroke-width:0.75;stroke-linecap:butt;stroke-linejoin:miter;stroke-miterlimit:4;stroke-dasharray:none;stroke-opacity:1"
           d="M 0,0 H 166.5" /></g></g><g
       transform="translate(222.836,67.148)"
       id="g92"><path
         id="path94"
         style="fill:#231f20;fill-opacity:1;fill-rule:nonzero;stroke:none"
         d="M 0,0 C -1.24,0.375 -2.046,0.72 -3.041,1.119 V -2.665 C -2.685,-2.495 -1.24,-1.92 0,-1.546 1.327,-1.145 2.53,-0.87 3.31,-0.772 2.53,-0.675 1.327,-0.4 0,0" /></g><g
       transform="translate(52.793,65.611)"
       id="g96"><path
         id="path98"
         style="fill:#231f20;fill-opacity:1;fill-rule:nonzero;stroke:none"
         d="M 0,0 C 1.24,-0.375 2.046,-0.72 3.041,-1.119 V 2.665 C 2.685,2.495 1.24,1.92 0,1.546 -1.327,1.145 -2.53,0.87 -3.311,0.772 -2.53,0.675 -1.327,0.4 0,0" /></g></g></svg>