<?xml version="1.0" encoding="UTF-8" standalone="no"?>
<svg
   xmlns:dc="http://purl.org/dc/elements/1.1/"
   xmlns:cc="http://creativecommons.org/ns#"
   xmlns:rdf="http://www.w3.org/1999/02/22-rdf-syntax-ns#"
   xmlns:svg="http://www.w3.org/2000/svg"
   xmlns="http://www.w3.org/2000/svg"
   viewBox="0 0 494.77734 181.144"
   height="181.144"
   width="494.77734"
   xml:space="preserve"
   id="svg2"
   version="1.1"><metadata
     id="metadata8"><rdf:RDF><cc:Work
         rdf:about=""><dc:format>image/svg+xml</dc:format><dc:type
           rdf:resource="http://purl.org/dc/dcmitype/StillImage" /></cc:Work></rdf:RDF></metadata><defs
     id="defs6" /><g
     transform="matrix(1.3333333,0,0,-1.3333333,0,181.144)"
     id="g10"><text
       id="text16"
       style="font-variant:normal;font-weight:normal;font-stretch:normal;font-size:10px;font-family:Helvetica;-inkscape-font-specification:Helvetica;writing-mode:lr-tb;fill:#231f20;fill-opacity:1;fill-rule:nonzero;stroke:none"
       transform="matrix(1,0,0,-1,47.0337,115.4028)"><tspan
         id="tspan12"
         y="0"
         x="0 2.78 8.3400002 10.56 12.78 15.56 21.4 24.18 26.959999 30.440001 36 41.560001">full = true</tspan><tspan
         id="tspan14"
         y="12"
         x="-45.68 -37.349998 -31.790001 -29.57 -24.01 -20.68 -15.12 -9.5600004 -4 1.5599999 3.78 9.3400002 12.12 17.959999 20.74 23.219999 28.780001 31 36 41.560001">major_angle = false</tspan></text>
<g
       transform="translate(111.442,0.43172)"
       id="g18"><path
         id="path20"
         style="fill:none;stroke:#231f20;stroke-width:0.75;stroke-linecap:butt;stroke-linejoin:miter;stroke-miterlimit:4;stroke-dasharray:none;stroke-opacity:1"
         d="m 0,0 c 0,26.321 7.487,50.938 20.514,71.702 l 56.977,-14.51 -14.904,56.85 c 20.915,13.307 45.976,21.009 72.601,21.009 L 135.179,-0.05672 Z" /></g><path
       id="path22"
       style="fill:none;stroke:#231f20;stroke-width:0.5;stroke-linecap:butt;stroke-linejoin:miter;stroke-miterlimit:4;stroke-dasharray:12, 4;stroke-dashoffset:0;stroke-opacity:1"
       d="M 246.447,0.5952 134.639,111.765" /><g
       transform="translate(113.182,78.086)"
       id="g24"><path
         id="path26"
         style="fill:none;stroke:#231f20;stroke-width:0.5;stroke-linecap:butt;stroke-linejoin:miter;stroke-miterlimit:4;stroke-dasharray:none;stroke-opacity:1"
         d="M 0,0 14.09,-3.588" /><g
         transform="translate(58.18,39.508)"
         id="g28"><path
           id="path30"
           style="fill:none;stroke:#231f20;stroke-width:0.5;stroke-linecap:butt;stroke-linejoin:miter;stroke-miterlimit:4;stroke-dasharray:none;stroke-opacity:1"
           d="M 0,0 -3.766,14.365" /></g></g><g
       transform="translate(168.297,106.347)"
       id="g32"><path
         id="path34"
         style="fill:none;stroke:#231f20;stroke-width:0.75;stroke-linecap:butt;stroke-linejoin:miter;stroke-miterlimit:4;stroke-dasharray:none;stroke-opacity:1"
         d="M 0,0 C -11.272,-4.885 -22.183,-13.987 -28.451,-28.451" /></g><g
       transform="translate(139.848,75.965)"
       id="g36"><path
         id="path38"
         style="fill:#231f20;fill-opacity:1;fill-rule:nonzero;stroke:none"
         d="M 0,0 C 0.836,0.989 1.474,1.591 2.235,2.345 L -1.236,3.85 C -1.223,3.456 -1.269,1.901 -1.419,0.615 -1.578,-0.762 -1.805,-1.976 -2.026,-2.73 -1.625,-2.053 -0.896,-1.058 0,0" /></g><g
       transform="translate(169.617,107.756)"
       id="g40"><path
         id="path42"
         style="fill:#231f20;fill-opacity:1;fill-rule:nonzero;stroke:none"
         d="m 0,0 c -1.287,-0.15 -2.164,-0.153 -3.235,-0.183 l 1.505,-3.471 c 0.259,0.297 1.356,1.399 2.345,2.235 1.058,0.896 2.053,1.626 2.73,2.026 C 2.59,0.387 1.377,0.16 0,0" /></g><text
       id="text48"
       style="font-variant:normal;font-weight:normal;font-stretch:normal;font-size:10px;font-family:Helvetica;-inkscape-font-specification:Helvetica;writing-mode:lr-tb;fill:#231f20;fill-opacity:1;fill-rule:nonzero;stroke:none"
       transform="matrix(1,0,0,-1,42.2398,64.6948)"><tspan
         id="tspan44"
         y="0"
         x="0 2.78 8.3400002 10.56 12.78 15.56 21.4 24.18 26.66 32.220001 34.439999 39.439999 45">full = false</tspan><tspan
         id="tspan46"
         y="12"
         x="-42.240002 -33.91 -28.35 -26.129999 -20.57 -17.24 -11.68 -6.1199999 -0.56 5 7.2199998 12.78 15.56 21.4 24.18 26.66 32.220001 34.439999 39.439999 45">major_angle = false</tspan></text>
<g
       transform="translate(135.884,99.559)"
       id="g50"><path
         id="path52"
         style="fill:none;stroke:#231f20;stroke-width:0.75;stroke-linecap:butt;stroke-linejoin:miter;stroke-miterlimit:4;stroke-dasharray:none;stroke-opacity:1"
         d="M 0,0 C -7.25,-7 -7.25,-8.25 -10.775,-15.758" /></g><g
       transform="translate(125.052,81.871)"
       id="g54"><path
         id="path56"
         style="fill:#231f20;fill-opacity:1;fill-rule:nonzero;stroke:none"
         d="M 0,0 C 0.866,0.963 1.521,1.546 2.305,2.277 L -1.12,3.885 C -1.118,3.491 -1.211,1.939 -1.399,0.657 -1.6,-0.715 -1.864,-1.92 -2.107,-2.668 -1.687,-2.003 -0.927,-1.031 0,0" /></g><g
       transform="translate(136.624,101.342)"
       id="g58"><path
         id="path60"
         style="fill:#231f20;fill-opacity:1;fill-rule:nonzero;stroke:none"
         d="m 0,0 c -1.152,-0.592 -1.972,-0.903 -2.964,-1.307 l 2.628,-2.722 c 0.138,0.369 0.778,1.786 1.41,2.917 C 1.75,0.098 2.425,1.131 2.919,1.744 2.29,1.272 1.233,0.633 0,0" /></g><g
       transform="translate(93.634,114.559)"
       id="g62"><path
         id="path64"
         style="fill:none;stroke:#231f20;stroke-width:0.5;stroke-linecap:butt;stroke-linejoin:miter;stroke-miterlimit:4;stroke-dasharray:none;stroke-opacity:1"
         d="m 0,0 c 0,0 15.409,0.666 20.5,3 6.024,2.762 36.5,14.5 36,6 -0.769,-13.064 5,-15.5 5,-15.5" /></g><g
       transform="translate(156.309,107.532)"
       id="g66"><path
         id="path68"
         style="fill:#231f20;fill-opacity:1;fill-rule:nonzero;stroke:none"
         d="m 0,0 c -0.373,0.778 -0.565,1.331 -0.816,1.999 l -1.863,-1.7 C -2.436,0.2 -1.503,-0.253 -0.761,-0.695 0.033,-1.168 0.708,-1.638 1.108,-1.978 0.805,-1.549 0.399,-0.834 0,0" /></g><g
       transform="translate(79.634,75.059)"
       id="g70"><path
         id="path72"
         style="fill:none;stroke:#231f20;stroke-width:0.5;stroke-linecap:butt;stroke-linejoin:miter;stroke-miterlimit:4;stroke-dasharray:none;stroke-opacity:1"
         d="m 0,0 c 0,0 21.923,28.577 28.5,22 5,-5 11,-6 11,-6" /></g><g
       transform="translate(120.411,91.227)"
       id="g74"><path
         id="path76"
         style="fill:#231f20;fill-opacity:1;fill-rule:nonzero;stroke:none"
         d="m 0,0 c -0.727,0.467 -1.18,0.836 -1.744,1.274 l -0.693,-2.425 c 0.259,0.043 1.291,0.147 2.154,0.16 C 0.641,-0.977 1.462,-1.022 1.98,-1.102 1.498,-0.896 0.777,-0.501 0,0" /></g><g
       transform="translate(190.634,74.559)"
       id="g78"><path
         id="path80"
         style="fill:none;stroke:#231f20;stroke-width:0.75;stroke-linecap:butt;stroke-linejoin:miter;stroke-miterlimit:4;stroke-dasharray:none;stroke-opacity:1"
         d="m 0,0 c 9.941,0 18,-8.059 18,-18 0,-9.941 -8.059,-18 -18,-18 -9.941,0 -18,8.059 -18,18" /></g><g
       transform="translate(171.866,58.33)"
       id="g82"><path
         id="path84"
         style="fill:#231f20;fill-opacity:1;fill-rule:nonzero;stroke:none"
         d="M 0,0 C -0.375,-1.24 -0.72,-2.046 -1.119,-3.041 H 2.665 C 2.496,-2.685 1.92,-1.24 1.546,0 1.145,1.327 0.871,2.53 0.773,3.311 0.675,2.53 0.401,1.327 0,0" /></g><g
       transform="translate(188.863,73.79)"
       id="g86"><path
         id="path88"
         style="fill:#231f20;fill-opacity:1;fill-rule:nonzero;stroke:none"
         d="M 0,0 C 1.24,-0.375 2.046,-0.72 3.04,-1.119 V 2.665 C 2.685,2.496 1.24,1.92 0,1.546 -1.327,1.145 -2.53,0.871 -3.311,0.773 -2.53,0.675 -1.327,0.401 0,0" /></g><g
       transform="translate(205.756,31.107)"
       id="g90"><path
         id="path92"
         style="fill:none;stroke:#231f20;stroke-width:0.75;stroke-linecap:butt;stroke-linejoin:miter;stroke-miterlimit:4;stroke-dasharray:none;stroke-opacity:1"
         d="m 0,0 c -4.426,-2.634 -9.597,-4.147 -15.122,-4.147 -16.349,0 -29.606,13.252 -29.606,29.599" /></g><g
       transform="translate(160.26,58.33)"
       id="g94"><path
         id="path96"
         style="fill:#231f20;fill-opacity:1;fill-rule:nonzero;stroke:none"
         d="M 0,0 C -0.374,-1.24 -0.72,-2.046 -1.119,-3.041 H 2.665 C 2.496,-2.685 1.92,-1.24 1.546,0 1.145,1.327 0.871,2.53 0.773,3.311 0.675,2.53 0.401,1.327 0,0" /></g><g
       transform="translate(206.885,32.673)"
       id="g98"><path
         id="path100"
         style="fill:#231f20;fill-opacity:1;fill-rule:nonzero;stroke:none"
         d="m 0,0 c -1.257,-0.312 -2.126,-0.428 -3.185,-0.594 l 1.934,-3.251 c 0.22,0.327 1.167,1.561 2.041,2.516 0.936,1.024 1.83,1.875 2.45,2.358 C 2.52,0.714 1.345,0.334 0,0" /></g><text
       id="text106"
       style="font-variant:normal;font-weight:normal;font-stretch:normal;font-size:10px;font-family:Helvetica;-inkscape-font-specification:Helvetica;writing-mode:lr-tb;fill:#231f20;fill-opacity:1;fill-rule:nonzero;stroke:none"
       transform="matrix(1,0,0,-1,287.0039,64.6948)"><tspan
         id="tspan102"
         y="0"
         x="0 2.78 8.3400002 10.56 12.78 15.56 21.4 24.18 26.66 32.220001 34.439999 39.439999 45">full = false</tspan><tspan
         id="tspan104"
         y="12"
         x="0 8.3299999 13.89 16.110001 21.67 25 30.559999 36.119999 41.68 47.240002 49.459999 55.02 57.799999 63.639999 66.419998 69.199997 72.68 78.239998">major_angle = true</tspan></text>
<text
       id="text110"
       style="font-variant:normal;font-weight:normal;font-stretch:normal;font-size:10px;font-family:Helvetica;-inkscape-font-specification:Helvetica;writing-mode:lr-tb;fill:#231f20;fill-opacity:1;fill-rule:nonzero;stroke:none"
       transform="matrix(1,0,0,-1,370.816,52.6948)"><tspan
         id="tspan108"
         y="0"
         x="0"></tspan></text>
<text
       id="text116"
       style="font-variant:normal;font-weight:normal;font-stretch:normal;font-size:10px;font-family:Helvetica;-inkscape-font-specification:Helvetica;writing-mode:lr-tb;fill:#231f20;fill-opacity:1;fill-rule:nonzero;stroke:none"
       transform="matrix(1,0,0,-1,287.2837,115.4028)"><tspan
         id="tspan112"
         y="0"
         x="0 2.78 8.3400002 10.56 12.78 15.56 21.4 24.18 26.959999 30.440001 36 41.560001">full = true</tspan><tspan
         id="tspan114"
         y="12"
         x="0 8.3299999 13.89 16.110001 21.67 25 30.559999 36.119999 41.68 47.240002 49.459999 55.02 57.799999 63.639999 66.419998 69.199997 72.68 78.239998">major_angle = true</tspan></text>
<g
       transform="translate(280.634,112.559)"
       id="g118"><path
         id="path120"
         style="fill:none;stroke:#231f20;stroke-width:0.5;stroke-linecap:butt;stroke-linejoin:miter;stroke-miterlimit:4;stroke-dasharray:none;stroke-opacity:1"
         d="m 0,0 c 0,0 -96.468,11.968 -79,-5.5 5.334,-5.334 10.5,-3.5 6,-14 -4.5,-10.5 -6,-14.666 -6,-14.666" /></g><g
       transform="translate(201.716,77.107)"
       id="g122"><path
         id="path124"
         style="fill:#231f20;fill-opacity:1;fill-rule:nonzero;stroke:none"
         d="M 0,0 C 0.515,0.693 0.914,1.121 1.388,1.655 L -0.984,2.509 C -0.959,2.248 -0.924,1.212 -0.97,0.349 -1.018,-0.574 -1.118,-1.391 -1.232,-1.902 -0.995,-1.435 -0.551,-0.742 0,0" /></g><g
       transform="translate(281.634,59.725)"
       id="g126"><path
         id="path128"
         style="fill:none;stroke:#231f20;stroke-width:0.5;stroke-linecap:butt;stroke-linejoin:miter;stroke-miterlimit:4;stroke-dasharray:none;stroke-opacity:1"
         d="m 0,0 c 0,0 -62.556,-5.574 -54.666,-16.333 11,-15 -15,-33 -34.334,-32.333 -8.388,0.289 -5.666,10.666 -5.666,10.666" /></g><g
       transform="translate(186.771,22.998)"
       id="g130"><path
         id="path132"
         style="fill:#231f20;fill-opacity:1;fill-rule:nonzero;stroke:none"
         d="m 0,0 c -0.451,-0.736 -0.81,-1.198 -1.235,-1.772 l 2.439,-0.64 C 1.156,-2.153 1.029,-1.125 0.997,-0.262 0.963,0.662 0.99,1.484 1.059,2.004 0.863,1.518 0.483,0.788 0,0" /></g></g></svg>