<?xml version="1.0" encoding="UTF-8" standalone="no"?>
<svg
   xmlns:dc="http://purl.org/dc/elements/1.1/"
   xmlns:cc="http://creativecommons.org/ns#"
   xmlns:rdf="http://www.w3.org/1999/02/22-rdf-syntax-ns#"
   xmlns:svg="http://www.w3.org/2000/svg"
   xmlns="http://www.w3.org/2000/svg"
   viewBox="0 0 443.47198 248.11333"
   height="248.11333"
   width="443.47198"
   xml:space="preserve"
   id="svg2"
   version="1.1"><metadata
     id="metadata8"><rdf:RDF><cc:Work
         rdf:about=""><dc:format>image/svg+xml</dc:format><dc:type
           rdf:resource="http://purl.org/dc/dcmitype/StillImage" /></cc:Work></rdf:RDF></metadata><defs
     id="defs6" /><g
     transform="matrix(1.3333333,0,0,-1.3333333,0,248.11333)"
     id="g10"><text
       id="text16"
       style="font-variant:normal;font-weight:normal;font-stretch:normal;font-size:10px;font-family:Helvetica;-inkscape-font-specification:Helvetica;writing-mode:lr-tb;fill:#231f20;fill-opacity:1;fill-rule:nonzero;stroke:none"
       transform="matrix(1,0,0,-1,257.8252,146.4741)"><tspan
         id="tspan12"
         y="0"
         x="0 5.5599999 7.7800002 16.110001 21.67 27.23 32.23 34.450001 40.009998 45.57 51.130001 55.880001 61.439999 63.66 69.220001">dimension_value</tspan><tspan
         id="tspan14"
         y="-22.663"
         x="-59.501999 -53.942001 -48.382 -45.602001 -40.042">10.00</tspan></text>
<text
       id="text20"
       style="font-variant:normal;font-weight:normal;font-stretch:normal;font-size:8px;font-family:Helvetica;-inkscape-font-specification:Helvetica;writing-mode:lr-tb;fill:#231f20;fill-opacity:1;fill-rule:nonzero;stroke:none"
       transform="matrix(1,0,0,-1,224.4326,178.6367)"><tspan
         id="tspan18"
         y="0"
         x="0 4.6719999 6.8959999 11.344 15.792">±.001</tspan></text>
<g
       transform="translate(286.743,158.696)"
       id="g22"><path
         id="path24"
         style="fill:none;stroke:#231f20;stroke-width:1;stroke-linecap:butt;stroke-linejoin:miter;stroke-miterlimit:4;stroke-dasharray:none;stroke-opacity:1"
         d="M 0,0 C -14.142,14.142 -24.993,13.679 -32.292,13.928" /></g><g
       transform="translate(252.654,171.917)"
       id="g26"><path
         id="path28"
         style="fill:#231f20;fill-opacity:1;fill-rule:nonzero;stroke:none"
         d="M 0,0 C 1.226,-0.417 2.019,-0.79 3.001,-1.222 L 3.13,2.558 C 2.769,2.401 1.305,1.877 0.053,1.544 -1.287,1.189 -2.499,0.956 -3.283,0.885 -2.506,0.76 -1.313,0.445 0,0" /></g><text
       id="text32"
       style="font-variant:normal;font-weight:normal;font-stretch:normal;font-size:10px;font-family:Helvetica;-inkscape-font-specification:Helvetica;writing-mode:lr-tb;fill:#231f20;fill-opacity:1;fill-rule:nonzero;stroke:none"
       transform="matrix(1,0,0,-1,0,34.8867)"><tspan
         id="tspan30"
         y="0"
         x="0 5.5599999 11.12 16.68 18.9 21.120001 26.68 32.240002 37.799999 40.580002 46.139999 48.919998 53.919998 59.48 65.040001 70.599998">applied_to shape</tspan></text>
<g
       transform="translate(44.75,47.899)"
       id="g34"><path
         id="path36"
         style="fill:none;stroke:#231f20;stroke-width:0.75;stroke-linecap:butt;stroke-linejoin:miter;stroke-miterlimit:4;stroke-dasharray:none;stroke-opacity:1"
         d="M 0,0 C 0,0 10.199,22.411 23.421,24.894 35.019,27.071 31.374,8.123 57.283,9.093" /></g><g
       transform="translate(103.832,56.29)"
       id="g38"><path
         id="path40"
         style="fill:#231f20;fill-opacity:1;fill-rule:nonzero;stroke:none"
         d="M 0,0 C -1.225,-0.421 -2.017,-0.796 -2.996,-1.232 L -3.138,2.549 C -2.776,2.393 -1.311,1.872 -0.058,1.544 1.284,1.193 2.497,0.965 3.28,0.895 2.504,0.769 1.311,0.45 0,0" /></g><g
       transform="translate(247.223,86.875)"
       id="g42"><path
         id="path44"
         style="fill:none;stroke:#231f20;stroke-width:4;stroke-linecap:butt;stroke-linejoin:miter;stroke-miterlimit:4;stroke-dasharray:none;stroke-opacity:1"
         d="m 0,0 c 0,-38.66 -31.34,-70 -70,-70 -38.66,0 -70,31.34 -70,70 0,38.66 31.34,70 70,70 C -31.34,70 0,38.66 0,0 Z" /></g><path
       id="path46"
       style="fill:none;stroke:#231f20;stroke-width:0.75;stroke-linecap:butt;stroke-linejoin:miter;stroke-miterlimit:4;stroke-dasharray:12, 4;stroke-dashoffset:0;stroke-opacity:1"
       d="M 177.223,173 V 0 m -102.5,86.875 h 201" /><g
       transform="translate(132.444,41.972)"
       id="g48"><path
         id="path50"
         style="fill:none;stroke:#231f20;stroke-width:0.75;stroke-linecap:butt;stroke-linejoin:miter;stroke-miterlimit:4;stroke-dasharray:none;stroke-opacity:1"
         d="M 0,0 89.224,89.224" /></g><g
       transform="translate(222.377,132.991)"
       id="g52"><path
         id="path54"
         style="fill:#231f20;fill-opacity:1;fill-rule:nonzero;stroke:none"
         d="m 0,0 c -1.142,-0.612 -1.956,-0.937 -2.941,-1.359 l 2.675,-2.675 c 0.132,0.371 0.747,1.8 1.359,2.941 C 1.748,0.129 2.405,1.174 2.888,1.795 2.267,1.313 1.222,0.655 0,0" /></g><g
       transform="translate(131.735,40.176)"
       id="g56"><path
         id="path58"
         style="fill:#231f20;fill-opacity:1;fill-rule:nonzero;stroke:none"
         d="M 0,0 C 1.142,0.612 1.956,0.938 2.941,1.359 L 0.266,4.034 C 0.134,3.663 -0.481,2.234 -1.093,1.093 -1.748,-0.129 -2.405,-1.174 -2.888,-1.795 -2.267,-1.312 -1.222,-0.655 0,0" /></g><g
       transform="translate(207.723,164.25)"
       id="g60"><path
         id="path62"
         style="fill:none;stroke:#231f20;stroke-width:0.5;stroke-linecap:butt;stroke-linejoin:miter;stroke-miterlimit:4;stroke-dasharray:none;stroke-opacity:1"
         d="M 0,0 V -46.666" /></g></g></svg>