<?xml version="1.0" encoding="UTF-8" standalone="no"?>
<svg
   xmlns:dc="http://purl.org/dc/elements/1.1/"
   xmlns:cc="http://creativecommons.org/ns#"
   xmlns:rdf="http://www.w3.org/1999/02/22-rdf-syntax-ns#"
   xmlns:svg="http://www.w3.org/2000/svg"
   xmlns="http://www.w3.org/2000/svg"
   viewBox="0 0 432.24533 311.556"
   height="311.556"
   width="432.24533"
   xml:space="preserve"
   id="svg2"
   version="1.1"><metadata
     id="metadata8"><rdf:RDF><cc:Work
         rdf:about=""><dc:format>image/svg+xml</dc:format><dc:type
           rdf:resource="http://purl.org/dc/dcmitype/StillImage" /></cc:Work></rdf:RDF></metadata><defs
     id="defs6" /><g
     transform="matrix(1.3333333,0,0,-1.3333333,0,311.556)"
     id="g10"><text
       id="text16"
       style="font-variant:normal;font-weight:normal;font-stretch:normal;font-size:10px;font-family:Helvetica;-inkscape-font-specification:Helvetica;writing-mode:lr-tb;fill:#231f20;fill-opacity:1;fill-rule:nonzero;stroke:none"
       transform="matrix(1,0,0,-1,2e-4,164.899)"><tspan
         id="tspan12"
         y="0"
         x="0 5.5599999 11.12 16.68 22.24 24.459999 30.02 33.349998 36.130001 41.130001 43.349998 48.200001 53.759998 56.540001 62.099998 64.32 72.650002 78.209999 83.769997 88.769997 90.989998 96.550003">angular size dimension</tspan><tspan
         id="tspan14"
         y="-55.932999"
         x="21.726999 27.287001 32.847 38.407001 43.966999 46.187 51.747002 55.077 57.856998 60.077 65.637001 70.637001 76.196999 78.976997 81.196999 86.757004 92.317001 95.097 100.657 102.877 111.207 116.767 122.327 127.327 129.547 135.10699">angular location dimension</tspan></text>
<path
       id="path18"
       style="fill:none;stroke:#231f20;stroke-width:0.5;stroke-linecap:butt;stroke-linejoin:miter;stroke-miterlimit:4;stroke-dasharray:12, 4;stroke-dashoffset:0;stroke-opacity:1"
       d="M 54.018,104.923 H 324.184" /><path
       id="path20"
       style="fill:none;stroke:#231f20;stroke-width:0.5;stroke-linecap:butt;stroke-linejoin:miter;stroke-miterlimit:4;stroke-dasharray:12, 4;stroke-dashoffset:0;stroke-opacity:1"
       d="M 188.458,0 V 233.666" /><g
       transform="translate(278.458,104.923)"
       id="g22"><path
         id="path24"
         style="fill:none;stroke:#231f20;stroke-width:0.75;stroke-linecap:butt;stroke-linejoin:miter;stroke-miterlimit:4;stroke-dasharray:none;stroke-opacity:1"
         d="m 0,0 c 0,-49.706 -40.294,-90 -90,-90 -49.706,0 -90,40.294 -90,90 0,17.547 5.022,33.921 13.706,47.764 l 37.985,-9.674 -9.937,37.9 C -124.302,84.861 -107.751,90 -90,90 -40.294,90 0,49.706 0,0 Z" /><g
         transform="translate(-72)"
         id="g26"><path
           id="path28"
           style="fill:none;stroke:#231f20;stroke-width:0.75;stroke-linecap:butt;stroke-linejoin:miter;stroke-miterlimit:4;stroke-dasharray:none;stroke-opacity:1"
           d="m 0,0 c 0,-9.941 -8.059,-18 -18,-18 -9.94,0 -18,8.059 -18,18 0,9.94 8.06,18 18,18 C -8.059,18 0,9.94 0,0 Z" /><g
           transform="translate(0,54.09)"
           id="g30"><path
             id="path32"
             style="fill:none;stroke:#231f20;stroke-width:0.75;stroke-linecap:butt;stroke-linejoin:miter;stroke-miterlimit:4;stroke-dasharray:none;stroke-opacity:1"
             d="m 0,0 c 0,-9.941 -8.059,-18 -18,-18 -9.94,0 -18,8.059 -18,18 0,9.94 8.06,18 18,18 C -8.059,18 0,9.94 0,0 Z" /><g
             transform="translate(0,-108)"
             id="g34"><path
               id="path36"
               style="fill:none;stroke:#231f20;stroke-width:0.75;stroke-linecap:butt;stroke-linejoin:miter;stroke-miterlimit:4;stroke-dasharray:none;stroke-opacity:1"
               d="m 0,0 c 0,-9.941 -8.059,-18 -18,-18 -9.94,0 -18,8.059 -18,18 0,9.94 8.06,18 18,18 C -8.059,18 0,9.94 0,0 Z" /><g
               transform="translate(53.691,53.91)"
               id="g38"><path
                 id="path40"
                 style="fill:none;stroke:#231f20;stroke-width:0.75;stroke-linecap:butt;stroke-linejoin:miter;stroke-miterlimit:4;stroke-dasharray:none;stroke-opacity:1"
                 d="m 0,0 c 0,-9.941 -8.059,-18 -18,-18 -9.94,0 -18,8.059 -18,18 0,9.94 8.06,18 18,18 C -8.059,18 0,9.94 0,0 Z" /><g
                 transform="translate(-108)"
                 id="g42"><path
                   id="path44"
                   style="fill:none;stroke:#231f20;stroke-width:0.75;stroke-linecap:butt;stroke-linejoin:miter;stroke-miterlimit:4;stroke-dasharray:none;stroke-opacity:1"
                   d="m 0,0 c 0,-9.941 -8.059,-18 -18,-18 -9.94,0 -18,8.059 -18,18 0,9.94 8.06,18 18,18 C -8.059,18 0,9.94 0,0 Z" /></g></g></g></g></g></g><path
       id="path46"
       style="fill:none;stroke:#231f20;stroke-width:0.5;stroke-linecap:butt;stroke-linejoin:miter;stroke-miterlimit:4;stroke-dasharray:12, 4;stroke-dashoffset:0;stroke-opacity:1"
       d="m 242.458,104.923 c 0,-29.823 -24.176,-54 -54,-54 -29.823,0 -54,24.177 -54,54 0,29.824 24.177,54 54,54 29.824,0 54,-24.176 54,-54 z m -54.256,0.259 -94.112,93.573" /><g
       transform="translate(107.649,195.514)"
       id="g48"><path
         id="path50"
         style="fill:none;stroke:#231f20;stroke-width:0.75;stroke-linecap:butt;stroke-linejoin:miter;stroke-miterlimit:4;stroke-dasharray:none;stroke-opacity:1"
         d="M 0,0 C 18,19.5 44,31 73.5,31" /></g><g
       transform="translate(182.921,227.282)"
       id="g52"><path
         id="path54"
         style="fill:#231f20;fill-opacity:1;fill-rule:nonzero;stroke:none"
         d="M 0,0 C -1.24,0.375 -2.046,0.72 -3.041,1.119 V -2.665 C -2.685,-2.495 -1.24,-1.92 0,-1.546 1.327,-1.145 2.53,-0.87 3.311,-0.772 2.53,-0.675 1.327,-0.4 0,0" /></g><g
       transform="translate(107.013,193.69)"
       id="g56"><path
         id="path58"
         style="fill:#231f20;fill-opacity:1;fill-rule:nonzero;stroke:none"
         d="M 0,0 C 1.116,0.657 1.916,1.016 2.885,1.475 L 0.104,4.042 C -0.013,3.665 -0.57,2.214 -1.136,1.049 -1.741,-0.198 -2.356,-1.269 -2.813,-1.909 -2.212,-1.401 -1.194,-0.703 0,0" /></g><g
       transform="translate(94.697,157.041)"
       id="g60"><path
         id="path62"
         style="fill:none;stroke:#231f20;stroke-width:0.5;stroke-linecap:butt;stroke-linejoin:miter;stroke-miterlimit:4;stroke-dasharray:none;stroke-opacity:1"
         d="M 0,0 14.09,-3.588" /><g
         transform="translate(45.18,27.508)"
         id="g64"><path
           id="path66"
           style="fill:none;stroke:#231f20;stroke-width:0.5;stroke-linecap:butt;stroke-linejoin:miter;stroke-miterlimit:4;stroke-dasharray:none;stroke-opacity:1"
           d="M 0,0 -3.766,14.365" /></g></g><g
       transform="translate(132.813,188.302)"
       id="g68"><path
         id="path70"
         style="fill:none;stroke:#231f20;stroke-width:0.75;stroke-linecap:butt;stroke-linejoin:miter;stroke-miterlimit:4;stroke-dasharray:none;stroke-opacity:1"
         d="M 0,0 C -11.271,-4.885 -21.183,-12.987 -27.451,-27.451" /></g><g
       transform="translate(105.363,159.194)"
       id="g72"><path
         id="path74"
         style="fill:#231f20;fill-opacity:1;fill-rule:nonzero;stroke:none"
         d="M 0,0 C 0.718,0.848 1.264,1.365 1.917,2.012 L -1.06,3.303 C -1.048,2.964 -1.088,1.631 -1.217,0.527 -1.354,-0.654 -1.548,-1.695 -1.737,-2.342 -1.395,-1.761 -0.768,-0.908 0,0" /></g><g
       transform="translate(133.945,189.511)"
       id="g76"><path
         id="path78"
         style="fill:#231f20;fill-opacity:1;fill-rule:nonzero;stroke:none"
         d="m 0,0 c -1.104,-0.128 -1.856,-0.131 -2.775,-0.156 l 1.291,-2.978 c 0.222,0.255 1.163,1.2 2.011,1.917 C 1.435,-0.448 2.289,0.178 2.87,0.521 2.222,0.332 1.181,0.138 0,0" /></g></g></svg>