<?xml version="1.0" encoding="UTF-8" standalone="no"?>
<svg
   xmlns:dc="http://purl.org/dc/elements/1.1/"
   xmlns:cc="http://creativecommons.org/ns#"
   xmlns:rdf="http://www.w3.org/1999/02/22-rdf-syntax-ns#"
   xmlns:svg="http://www.w3.org/2000/svg"
   xmlns="http://www.w3.org/2000/svg"
   viewBox="0 0 247.40933 150.81467"
   height="150.81467"
   width="247.40933"
   xml:space="preserve"
   id="svg2"
   version="1.1"><metadata
     id="metadata8"><rdf:RDF><cc:Work
         rdf:about=""><dc:format>image/svg+xml</dc:format><dc:type
           rdf:resource="http://purl.org/dc/dcmitype/StillImage" /></cc:Work></rdf:RDF></metadata><defs
     id="defs6" /><g
     transform="matrix(1.3333333,0,0,-1.3333333,0,150.81467)"
     id="g10"><g
       transform="translate(132.179,28.619)"
       id="g12"><path
         id="path14"
         style="fill:none;stroke:#231f20;stroke-width:1;stroke-linecap:butt;stroke-linejoin:miter;stroke-miterlimit:4;stroke-dasharray:none;stroke-opacity:1"
         d="M 0,0 H 38.167" /></g><g
       transform="translate(172.117,29.388)"
       id="g16"><path
         id="path18"
         style="fill:#231f20;fill-opacity:1;fill-rule:nonzero;stroke:none"
         d="M 0,0 C -1.24,0.375 -2.046,0.72 -3.041,1.119 V -2.665 C -2.685,-2.495 -1.24,-1.92 0,-1.546 1.327,-1.145 2.53,-0.87 3.31,-0.772 2.53,-0.675 1.327,-0.4 0,0" /></g><text
       id="text24"
       style="font-variant:normal;font-weight:normal;font-stretch:normal;font-size:10px;font-family:Helvetica;-inkscape-font-specification:Helvetica;writing-mode:lr-tb;fill:#231f20;fill-opacity:1;fill-rule:nonzero;stroke:none"
       transform="matrix(1,0,0,-1,159.9873,76.9878)"><tspan
         id="tspan20"
         y="0"
         x="0 2.78 8.3400002 11.67 17.23 22.790001">target</tspan><tspan
         id="tspan22"
         y="23.000999"
         x="-97.707001 -92.147003 -89.927002 -81.597 -76.037003 -70.476997 -65.476997 -63.257 -57.696999 -52.137001 -46.577 -41.827 -36.266998 -34.047001 -28.487">dimension_value</tspan></text>
<g
       transform="translate(53.386,53.531)"
       id="g26"><path
         id="path28"
         style="fill:none;stroke:#231f20;stroke-width:1;stroke-linecap:butt;stroke-linejoin:miter;stroke-miterlimit:4;stroke-dasharray:none;stroke-opacity:1"
         d="M 0,0 C 8.772,-5.186 8.722,-14.915 7.438,-17.506" /></g><g
       transform="translate(60.726,34.095)"
       id="g30"><path
         id="path32"
         style="fill:#231f20;fill-opacity:1;fill-rule:nonzero;stroke:none"
         d="m 0,0 c 0.887,0.945 1.553,1.514 2.353,2.229 l -3.39,1.679 C -1.044,3.514 -1.17,1.965 -1.385,0.686 -1.615,-0.68 -1.904,-1.881 -2.162,-2.623 -1.729,-1.967 -0.948,-1.01 0,0" /></g><g
       transform="translate(51.47,53.77)"
       id="g34"><path
         id="path36"
         style="fill:#231f20;fill-opacity:1;fill-rule:nonzero;stroke:none"
         d="M 0,0 C 0.877,-0.954 1.395,-1.661 2.049,-2.511 L 3.974,0.746 C 3.581,0.782 2.045,1.021 0.787,1.331 -0.56,1.661 -1.735,2.037 -2.457,2.35 -1.834,1.869 -0.938,1.021 0,0" /></g><text
       id="text40"
       style="font-variant:normal;font-weight:normal;font-stretch:normal;font-size:10px;font-family:Helvetica;-inkscape-font-specification:Helvetica;writing-mode:lr-tb;fill:#231f20;fill-opacity:1;fill-rule:nonzero;stroke:none"
       transform="matrix(1,0,0,-1,160.4726,45.748)"><tspan
         id="tspan38"
         y="0"
         x="0 5.5599999 9.04 11.26 16.82 19.040001">origin</tspan></text>
<text
       id="text44"
       style="font-variant:normal;font-weight:normal;font-stretch:normal;font-size:10px;font-family:Helvetica;-inkscape-font-specification:Helvetica;writing-mode:lr-tb;fill:#231f20;fill-opacity:1;fill-rule:nonzero;stroke:none"
       transform="matrix(1,0,0,-1,185.0806,45.748)"><tspan
         id="tspan42"
         y="0"
         x="0"></tspan></text>
<g
       transform="translate(157.179,48.429)"
       id="g46"><path
         id="path48"
         style="fill:none;stroke:#231f20;stroke-width:1;stroke-linecap:butt;stroke-linejoin:miter;stroke-miterlimit:4;stroke-dasharray:none;stroke-opacity:1"
         d="M 0,0 C -20,0 -27.345,-8 -32.683,-12.985" /></g><g
       transform="translate(123.726,33.673)"
       id="g50"><path
         id="path52"
         style="fill:#231f20;fill-opacity:1;fill-rule:nonzero;stroke:none"
         d="M 0,0 C 1.162,0.573 1.986,0.871 2.986,1.258 L 0.404,4.023 C 0.259,3.656 -0.404,2.25 -1.055,1.13 -1.751,-0.069 -2.443,-1.091 -2.947,-1.695 -2.31,-1.234 -1.243,-0.613 0,0" /></g><text
       id="text58"
       style="font-variant:normal;font-weight:normal;font-stretch:normal;font-size:9px;font-family:Helvetica;-inkscape-font-specification:Helvetica;writing-mode:lr-tb;fill:#231f20;fill-opacity:1;fill-rule:nonzero;stroke:none"
       transform="matrix(1,0,0,-1,161.6562,19.6035)"><tspan
         id="tspan54"
         y="0"
         x="0">x</tspan><tspan
         id="tspan56"
         y="-81.147598"
         x="-161.6562">y</tspan></text>
<text
       id="text62"
       style="font-variant:normal;font-weight:normal;font-stretch:normal;font-size:10px;font-family:Helvetica;-inkscape-font-specification:Helvetica;writing-mode:lr-tb;fill:#231f20;fill-opacity:1;fill-rule:nonzero;stroke:none"
       transform="matrix(1,0,0,-1,30.1206,2.25)"><tspan
         id="tspan60"
         y="0"
         x="0 5.5599999 9.04 11.26 16.82 22.379999 25.16 30.719999 33.5 35.720001 41.279999 46.84 49.619999 52.950001 58.509998 63.509998 65.730003 70.730003 73.510002 79.07 81.290001 86.849998 91.849998 97.410004 105.74 111.3 116.86 119.64">orientation (axis placement)</tspan></text>
<g
       transform="translate(11.544,18.37)"
       id="g64"><path
         id="path66"
         style="fill:none;stroke:#231f20;stroke-width:1;stroke-linecap:butt;stroke-linejoin:miter;stroke-miterlimit:4;stroke-dasharray:none;stroke-opacity:1"
         d="M 0,0 C 0.809,-3.784 -5.7461,-7.828 -1.9131,-11.815 0.819,-14.658 9.384,-13.377 14.5,-13.814" /></g><g
       transform="translate(10.422,19.941)"
       id="g68"><path
         id="path70"
         style="fill:#231f20;fill-opacity:1;fill-rule:nonzero;stroke:none"
         d="m 0,0 c -0.107,-1.291 -0.276,-2.151 -0.4584,-3.207 l 3.6994,0.79 C 3.002,-2.104 2.137,-0.811 1.512,0.323 0.842,1.537 0.323,2.656 0.064,3.399 0.131,2.616 0.115,1.382 0,0" /></g><g
       transform="translate(10.842,34.762)"
       id="g72"><path
         id="path74"
         style="fill:none;stroke:#231f20;stroke-width:1;stroke-linecap:butt;stroke-linejoin:miter;stroke-miterlimit:4;stroke-dasharray:none;stroke-opacity:1"
         d="M 0,0 V 73.267" /></g><g
       transform="translate(10.073,109.8)"
       id="g76"><path
         id="path78"
         style="fill:#231f20;fill-opacity:1;fill-rule:nonzero;stroke:none"
         d="M 0,0 C -0.375,-1.24 -0.7197,-2.046 -1.1191,-3.041 H 2.665 C 2.495,-2.685 1.92,-1.24 1.546,0 1.145,1.327 0.87,2.53 0.773,3.311 0.675,2.53 0.4,1.327 0,0" /></g><g
       transform="translate(127.179,28.723)"
       id="g80"><path
         id="path82"
         style="fill:none;stroke:#231f20;stroke-width:4;stroke-linecap:butt;stroke-linejoin:miter;stroke-miterlimit:4;stroke-dasharray:none;stroke-opacity:1"
         d="m 0,0 h -114 l 80,75.333" /></g><g
       transform="translate(155.179,79.762)"
       id="g84"><path
         id="path86"
         style="fill:none;stroke:#231f20;stroke-width:1;stroke-linecap:butt;stroke-linejoin:miter;stroke-miterlimit:4;stroke-dasharray:none;stroke-opacity:1"
         d="M 0,0 C -46.667,-2.667 -57.478,6.441 -62.816,11.425" /></g><g
       transform="translate(91.593,92.959)"
       id="g88"><path
         id="path90"
         style="fill:#231f20;fill-opacity:1;fill-rule:nonzero;stroke:none"
         d="M 0,0 C 1.162,-0.573 1.986,-0.871 2.986,-1.258 L 0.404,-4.024 C 0.259,-3.656 -0.404,-2.25 -1.055,-1.13 -1.752,0.068 -2.443,1.091 -2.947,1.694 -2.31,1.233 -1.243,0.612 0,0" /></g></g></svg>