<?xml version="1.0" encoding="UTF-8" standalone="no"?>
<svg
   xmlns:dc="http://purl.org/dc/elements/1.1/"
   xmlns:cc="http://creativecommons.org/ns#"
   xmlns:rdf="http://www.w3.org/1999/02/22-rdf-syntax-ns#"
   xmlns:svg="http://www.w3.org/2000/svg"
   xmlns="http://www.w3.org/2000/svg"
   viewBox="0 0 323.11334 197.5"
   height="197.5"
   width="323.11334"
   xml:space="preserve"
   id="svg2"
   version="1.1"><metadata
     id="metadata8"><rdf:RDF><cc:Work
         rdf:about=""><dc:format>image/svg+xml</dc:format><dc:type
           rdf:resource="http://purl.org/dc/dcmitype/StillImage" /></cc:Work></rdf:RDF></metadata><defs
     id="defs6" /><g
     transform="matrix(1.3333333,0,0,-1.3333333,0,197.5)"
     id="g10"><text
       id="text14"
       style="font-variant:normal;font-weight:normal;font-stretch:normal;font-size:10px;font-family:Helvetica;-inkscape-font-specification:Helvetica;writing-mode:lr-tb;fill:#231f20;fill-opacity:1;fill-rule:nonzero;stroke:none"
       transform="matrix(1,0,0,-1,0,82.2656)"><tspan
         id="tspan12"
         y="0"
         x="0 5.5599999 7.7800002 16.110001 21.67 27.23 32.23 34.450001 40.009998 45.57 51.130001 55.880001 61.439999 63.66 69.220001">dimension_value</tspan></text>
<g
       transform="translate(108.542,1.1021)"
       id="g16"><path
         id="path18"
         style="fill:none;stroke:#231f20;stroke-width:4;stroke-linecap:butt;stroke-linejoin:miter;stroke-miterlimit:4;stroke-dasharray:none;stroke-opacity:1"
         d="M 0,0 C 0,62.132 50.368,112.5 112.5,112.5" /></g><g
       transform="translate(88.213,6.1021)"
       id="g20"><path
         id="path22"
         style="fill:none;stroke:#231f20;stroke-width:0.75;stroke-linecap:butt;stroke-linejoin:miter;stroke-miterlimit:4;stroke-dasharray:none;stroke-opacity:1"
         d="M 0,0 C 0,70.044 56.783,126.827 126.827,126.827" /></g><g
       transform="translate(216.812,133.698)"
       id="g24"><path
         id="path26"
         style="fill:#231f20;fill-opacity:1;fill-rule:nonzero;stroke:none"
         d="m 0,0 c -1.24,0.374 -2.046,0.72 -3.041,1.119 v -3.784 c 0.356,0.17 1.801,0.745 3.041,1.119 1.327,0.401 2.53,0.675 3.31,0.773 C 2.53,-0.675 1.327,-0.4 0,0" /></g><g
       transform="translate(88.982,4.3306)"
       id="g28"><path
         id="path30"
         style="fill:#231f20;fill-opacity:1;fill-rule:nonzero;stroke:none"
         d="M 0,0 C 0.375,1.2402 0.72,2.0464 1.119,3.0405 H -2.665 C -2.495,2.685 -1.92,1.2402 -1.546,0 -1.144,-1.3272 -0.87,-2.5303 -0.772,-3.3111 -0.675,-2.5303 -0.4,-1.3272 0,0" /></g><g
       transform="translate(70.065,0.37498)"
       id="g32"><path
         id="path34"
         style="fill:none;stroke:#231f20;stroke-width:0.75;stroke-linecap:butt;stroke-linejoin:miter;stroke-miterlimit:4;stroke-dasharray:none;stroke-opacity:1"
         d="M 0,0 H 51" /></g><g
       transform="translate(220.565,102.125)"
       id="g36"><path
         id="path38"
         style="fill:none;stroke:#231f20;stroke-width:0.75;stroke-linecap:butt;stroke-linejoin:miter;stroke-miterlimit:4;stroke-dasharray:none;stroke-opacity:1"
         d="M 0,0 V 46" /></g><text
       id="text42"
       style="font-variant:normal;font-weight:normal;font-stretch:normal;font-size:10px;font-family:Helvetica;-inkscape-font-specification:Helvetica;writing-mode:lr-tb;fill:#231f20;fill-opacity:1;fill-rule:nonzero;stroke:none"
       transform="matrix(1,0,0,-1,86.1651,105.5947)"><tspan
         id="tspan40"
         y="0"
         x="0 5.5599999 11.12 16.68 19.459999 25.02">123.00</tspan></text>
<text
       id="text46"
       style="font-variant:normal;font-weight:normal;font-stretch:normal;font-size:8px;font-family:Helvetica;-inkscape-font-specification:Helvetica;writing-mode:lr-tb;fill:#231f20;fill-opacity:1;fill-rule:nonzero;stroke:none"
       transform="matrix(1,0,0,-1,115.2745,115.0947)"><tspan
         id="tspan44"
         y="0"
         x="0 4.6719999 6.8959999 11.344 15.792">±.001</tspan></text>
<g
       transform="translate(44.879,93.822)"
       id="g48"><path
         id="path50"
         style="fill:none;stroke:#231f20;stroke-width:1;stroke-linecap:butt;stroke-linejoin:miter;stroke-miterlimit:4;stroke-dasharray:none;stroke-opacity:1"
         d="M 0,0 C 14.142,14.142 24.993,13.679 32.292,13.928" /></g><g
       transform="translate(78.967,107.043)"
       id="g52"><path
         id="path54"
         style="fill:#231f20;fill-opacity:1;fill-rule:nonzero;stroke:none"
         d="M 0,0 C -1.226,-0.417 -2.02,-0.79 -3.001,-1.222 L -3.13,2.558 C -2.769,2.401 -1.305,1.877 -0.053,1.544 1.287,1.189 2.499,0.956 3.283,0.885 2.506,0.76 1.313,0.445 0,0" /></g><text
       id="text58"
       style="font-variant:normal;font-weight:normal;font-stretch:normal;font-size:10px;font-family:Helvetica;-inkscape-font-specification:Helvetica;writing-mode:lr-tb;fill:#231f20;fill-opacity:1;fill-rule:nonzero;stroke:none"
       transform="matrix(1,0,0,-1,166.1749,25.3447)"><tspan
         id="tspan56"
         y="0"
         x="0 5.5599999 11.12 16.68 18.9 21.120001 26.68 32.240002 37.799999 40.580002 46.139999 48.919998 53.919998 59.48 65.040001 70.599998">applied_to shape</tspan></text>
<g
       transform="translate(194.565,34.875)"
       id="g60"><path
         id="path62"
         style="fill:none;stroke:#231f20;stroke-width:0.75;stroke-linecap:butt;stroke-linejoin:miter;stroke-miterlimit:4;stroke-dasharray:none;stroke-opacity:1"
         d="M 0,0 C 0,0 5.5,24 -3.5,34 -11.394,42.771 -20,25.5 -40,42" /></g><g
       transform="translate(152.709,77.409)"
       id="g64"><path
         id="path66"
         style="fill:#231f20;fill-opacity:1;fill-rule:nonzero;stroke:none"
         d="M 0,0 C 0.718,-1.078 1.12,-1.857 1.633,-2.798 L 4.041,0.121 C 3.659,0.216 2.178,0.692 0.983,1.192 -0.295,1.727 -1.398,2.282 -2.062,2.703 -1.522,2.131 -0.769,1.154 0,0" /></g></g></svg>