<?xml version="1.0" encoding="UTF-8" standalone="no"?>
<svg
   xmlns:dc="http://purl.org/dc/elements/1.1/"
   xmlns:cc="http://creativecommons.org/ns#"
   xmlns:rdf="http://www.w3.org/1999/02/22-rdf-syntax-ns#"
   xmlns:svg="http://www.w3.org/2000/svg"
   xmlns="http://www.w3.org/2000/svg"
   viewBox="0 0 576 213.33333"
   height="213.33333"
   width="576"
   xml:space="preserve"
   id="svg2"
   version="1.1"><metadata
     id="metadata8"><rdf:RDF><cc:Work
         rdf:about=""><dc:format>image/svg+xml</dc:format><dc:type
           rdf:resource="http://purl.org/dc/dcmitype/StillImage" /></cc:Work></rdf:RDF></metadata><defs
     id="defs6" /><g
     transform="matrix(1.3333333,0,0,-1.3333333,0,213.33333)"
     id="g10"><g
       transform="translate(122.808,77.403)"
       id="g12"><path
         id="path14"
         style="fill:none;stroke:#231f20;stroke-width:1;stroke-linecap:butt;stroke-linejoin:miter;stroke-miterlimit:4;stroke-dasharray:none;stroke-opacity:1"
         d="m 0,0 c 0,-6.019 -19.803,-10.897 -44.23,-10.897 -24.429,0 -44.231,4.878 -44.231,10.897 0,6.019 19.802,10.897 44.231,10.897 C -19.803,10.897 0,6.019 0,0 Z" /><g
         transform="translate(-44.23,-0.406)"
         id="g16"><path
           id="path18"
           style="fill:none;stroke:#231f20;stroke-width:1;stroke-linecap:butt;stroke-linejoin:miter;stroke-miterlimit:4;stroke-dasharray:none;stroke-opacity:1"
           d="M 0,0 V 50.852" /></g></g><g
       transform="translate(81.446,126.105)"
       id="g20"><path
         id="path22"
         style="fill:#231f20;fill-opacity:1;fill-rule:nonzero;stroke:none"
         d="M 0,0 -2.904,9.54 -5.809,0 H 0" /></g><g
       transform="translate(257.983,67.972)"
       id="g24"><path
         id="path26"
         style="fill:none;stroke:#231f20;stroke-width:1;stroke-linecap:butt;stroke-linejoin:miter;stroke-miterlimit:4;stroke-dasharray:none;stroke-opacity:1"
         d="m 0,0 h -120.19 l 29.807,29.808 H 29.809 Z" /><g
         transform="translate(-45.191,15.769)"
         id="g28"><path
           id="path30"
           style="fill:none;stroke:#231f20;stroke-width:1;stroke-linecap:butt;stroke-linejoin:miter;stroke-miterlimit:4;stroke-dasharray:none;stroke-opacity:1"
           d="M 0,0 V 48.842" /></g></g><g
       transform="translate(215.662,130.603)"
       id="g32"><path
         id="path34"
         style="fill:#231f20;fill-opacity:1;fill-rule:nonzero;stroke:none"
         d="M 0,0 -2.904,10.841 -5.81,0 H 0" /></g><g
       transform="translate(317.826,106.174)"
       id="g36"><path
         id="path38"
         style="fill:none;stroke:#231f20;stroke-width:1;stroke-linecap:butt;stroke-linejoin:miter;stroke-miterlimit:4;stroke-dasharray:none;stroke-opacity:1"
         d="M 0,0 V -40.667 H 44.666" /><g
         transform="translate(52.009,10.199)"
         id="g40"><path
           id="path42"
           style="fill:none;stroke:#231f20;stroke-width:1;stroke-linecap:butt;stroke-linejoin:miter;stroke-miterlimit:4;stroke-dasharray:none;stroke-opacity:1"
           d="M 0,0 -47.913,-47.921" /></g></g><g
       transform="translate(370.348,113.572)"
       id="g44"><path
         id="path46"
         style="fill:#231f20;fill-opacity:1;fill-rule:nonzero;stroke:none"
         d="M 0,0 4.583,7.939 -3.355,3.355 0,0" /></g><text
       id="text66"
       style="font-variant:normal;font-weight:normal;font-stretch:normal;font-size:10px;font-family:Helvetica;-inkscape-font-specification:Helvetica;writing-mode:lr-tb;fill:#231f20;fill-opacity:1;fill-rule:nonzero;stroke:none"
       transform="matrix(1,0,0,-1,49.8077,48.3443)"><tspan
         id="tspan48"
         y="0"
         x="0 7.2199998 12.78 18.34 23.9 29.459999 32.240002 39.459999 45.02 47.240002 52.799999">Round Hole</tspan><tspan
         id="tspan50"
         y="12"
         x="-20.355 -15.355 -13.135 -9.8050003 -4.8049998 0.755 2.9749999 8.5349998 11.865 14.645 20.205 23.535 29.094999 31.875 34.095001 36.314999 41.875 44.654999 49.355 56.474998 62.035 67.595001 70.375 73.154999">circular profile swept </tspan><tspan
         id="tspan52"
         y="24"
         x="-14.735 -9.1750002 -6.9549999 -1.395 4.165 9.7250004 12.505 18.065001 20.844999 23.065001 25.285 30.844999 36.404999 41.965 45.294998 48.075001 53.634998 59.195 61.974998">along a linear path</tspan><tspan
         id="tspan54"
         y="0"
         x="148.60001 154.77 160.33 165.13 169.92999 175.49001 178.27">Pocket</tspan><tspan
         id="tspan56"
         y="12"
         x="119.73 124.73 126.95 132.50999 137.50999 143.07001 148.63 151.41 156.97 160.3 165.86 168.64 170.86 173.08 178.64 181.42 186.12 193.24001 198.8 204.36 207.14">closed profile swept</tspan><tspan
         id="tspan58"
         y="24"
         x="122.3 127.86 130.08 135.64 141.2 146.75999 149.53999 155.10001 157.88 160.10001 162.32001 167.88 173.44 179 182.33 185.11 190.67 196.23 199.00999">along a linear path</tspan><tspan
         id="tspan60"
         y="0"
         x="282.48499 289.155 291.935 297.495 303.05499">Step</tspan><tspan
         id="tspan62"
         y="12"
         x="255.58 260.32999 265.89001 271.45001 274.23001 279.79001 283.12 288.67999 291.45999 293.67999 295.89999 301.45999 304.23999 308.94 316.06 321.62 327.17999 329.95999">vee profile swept</tspan><tspan
         id="tspan64"
         y="24"
         x="251.63499 257.19501 259.41501 264.97501 270.535 276.095 278.875 284.435 287.215 289.435 291.655 297.215 302.77499 308.33499 311.66501 314.44501 320.005 325.565 328.345">along a linear path</tspan></text>
</g></svg>