<?xml version="1.0" encoding="UTF-8" standalone="no"?>
<svg
   xmlns:dc="http://purl.org/dc/elements/1.1/"
   xmlns:cc="http://creativecommons.org/ns#"
   xmlns:rdf="http://www.w3.org/1999/02/22-rdf-syntax-ns#"
   xmlns:svg="http://www.w3.org/2000/svg"
   xmlns="http://www.w3.org/2000/svg"
   viewBox="0 0 481.16266 180.52"
   height="180.52"
   width="481.16266"
   xml:space="preserve"
   id="svg2"
   version="1.1"><metadata
     id="metadata8"><rdf:RDF><cc:Work
         rdf:about=""><dc:format>image/svg+xml</dc:format><dc:type
           rdf:resource="http://purl.org/dc/dcmitype/StillImage" /></cc:Work></rdf:RDF></metadata><defs
     id="defs6" /><g
     transform="matrix(1.3333333,0,0,-1.3333333,0,180.52)"
     id="g10"><g
       transform="translate(46.054,54.95)"
       id="g12"><path
         id="path14"
         style="fill:#737b80;fill-opacity:1;fill-rule:nonzero;stroke:none"
         d="m 0,0 -32.164,-32.588 v -21.978 h 138.381 l 32.165,32.587 V 0 H 0" /></g><g
       transform="translate(46.054,54.95)"
       id="g16"><path
         id="path18"
         style="fill:none;stroke:#737b80;stroke-width:0.76800001;stroke-linecap:butt;stroke-linejoin:miter;stroke-miterlimit:1;stroke-dasharray:none;stroke-opacity:1"
         d="m 0,0 -32.164,-32.588 v -21.978 h 138.381 l 32.165,32.587 V 0 Z" /></g><g
       transform="translate(13.889,22.362)"
       id="g20"><path
         id="path22"
         style="fill:none;stroke:#737b80;stroke-width:0.76800001;stroke-linecap:butt;stroke-linejoin:miter;stroke-miterlimit:1;stroke-dasharray:none;stroke-opacity:1"
         d="m 0,0 h 138.382 l 32.164,32.588" /><g
         transform="translate(138.382)"
         id="g24"><path
           id="path26"
           style="fill:none;stroke:#737b80;stroke-width:0.76800001;stroke-linecap:butt;stroke-linejoin:miter;stroke-miterlimit:1;stroke-dasharray:none;stroke-opacity:1"
           d="M 0,0 V -21.978" /></g></g><g
       transform="translate(43.062,57.981)"
       id="g28"><path
         id="path30"
         style="fill:#ffffff;fill-opacity:1;fill-rule:nonzero;stroke:none"
         d="m 0,0 -32.164,-32.588 v -21.978 h 138.381 l 32.165,32.588 V 0 H 0" /></g><g
       transform="translate(10.898,25.393)"
       id="g32"><path
         id="path34"
         style="fill:#ffffff;fill-opacity:1;fill-rule:nonzero;stroke:none"
         d="m 0,0 h 138.381 l 32.165,32.588 H 32.164 L 0,0" /></g><g
       transform="translate(149.279,25.393)"
       id="g36"><path
         id="path38"
         style="fill:#caced4;fill-opacity:1;fill-rule:nonzero;stroke:none"
         d="M 0,0 32.165,32.588 V 10.61 L 0,-21.978 V 0" /></g><g
       transform="translate(43.062,57.981)"
       id="g40"><path
         id="path42"
         style="fill:none;stroke:#231f20;stroke-width:0.76800001;stroke-linecap:butt;stroke-linejoin:miter;stroke-miterlimit:1;stroke-dasharray:none;stroke-opacity:1"
         d="m 0,0 -32.164,-32.588 v -21.978 h 138.381 l 32.165,32.588 V 0 Z" /><g
         transform="translate(-32.164,-32.588)"
         id="g44"><path
           id="path46"
           style="fill:none;stroke:#231f20;stroke-width:0.76800001;stroke-linecap:butt;stroke-linejoin:miter;stroke-miterlimit:1;stroke-dasharray:none;stroke-opacity:1"
           d="m 0,0 h 138.381 l 32.165,32.588" /><g
           transform="translate(138.381)"
           id="g48"><path
             id="path50"
             style="fill:none;stroke:#231f20;stroke-width:0.76800001;stroke-linecap:butt;stroke-linejoin:miter;stroke-miterlimit:1;stroke-dasharray:none;stroke-opacity:1"
             d="M 0,0 V -21.978" /></g></g></g><g
       transform="translate(105.895,45.856)"
       id="g52"><path
         id="path54"
         style="fill:#a2a8b0;fill-opacity:1;fill-rule:nonzero;stroke:none"
         d="m 0,0 h -2.618 l -2.244,-0.758 -1.87,-1.136 -1.496,-1.137 -0.374,-1.137 0.748,-1.137 1.496,-0.758 h 52.361 l 2.618,0.758 1.87,1.137 1.121,1.137 0.374,1.137 -0.374,1.136 L 50.117,0 H 0" /></g><g
       transform="translate(105.895,45.856)"
       id="g56"><path
         id="path58"
         style="fill:none;stroke:#5d6467;stroke-width:0.25600001;stroke-linecap:butt;stroke-linejoin:miter;stroke-miterlimit:1;stroke-dasharray:none;stroke-opacity:1"
         d="M 0,0 H -2.618" /></g><g
       transform="translate(103.276,45.856)"
       id="g60"><path
         id="path62"
         style="fill:none;stroke:#666e71;stroke-width:0.25600001;stroke-linecap:butt;stroke-linejoin:miter;stroke-miterlimit:1;stroke-dasharray:none;stroke-opacity:1"
         d="M 0,0 -2.244,-0.758" /></g><g
       transform="translate(101.032,45.098)"
       id="g64"><path
         id="path66"
         style="fill:none;stroke:#6d7478;stroke-width:0.25600001;stroke-linecap:butt;stroke-linejoin:miter;stroke-miterlimit:1;stroke-dasharray:none;stroke-opacity:1"
         d="M 0,0 -1.87,-1.137" /></g><g
       transform="translate(99.163,43.961)"
       id="g68"><path
         id="path70"
         style="fill:none;stroke:#72797e;stroke-width:0.25600001;stroke-linecap:butt;stroke-linejoin:miter;stroke-miterlimit:1;stroke-dasharray:none;stroke-opacity:1"
         d="M 0,0 -1.496,-1.137" /></g><g
       transform="translate(97.667,42.824)"
       id="g72"><path
         id="path74"
         style="fill:none;stroke:#737b80;stroke-width:0.25600001;stroke-linecap:butt;stroke-linejoin:miter;stroke-miterlimit:1;stroke-dasharray:none;stroke-opacity:1"
         d="M 0,0 -0.374,-1.137" /></g><g
       transform="translate(97.293,41.688)"
       id="g76"><path
         id="path78"
         style="fill:none;stroke:#72797e;stroke-width:0.25600001;stroke-linecap:butt;stroke-linejoin:miter;stroke-miterlimit:1;stroke-dasharray:none;stroke-opacity:1"
         d="M 0,0 0.748,-1.137" /></g><g
       transform="translate(98.04,40.551)"
       id="g80"><path
         id="path82"
         style="fill:none;stroke:#6d7478;stroke-width:0.25600001;stroke-linecap:butt;stroke-linejoin:miter;stroke-miterlimit:1;stroke-dasharray:none;stroke-opacity:1"
         d="M 0,0 1.496,-0.758" /></g><g
       transform="translate(99.537,39.792)"
       id="g84"><path
         id="path86"
         style="fill:none;stroke:#676f72;stroke-width:0.25600001;stroke-linecap:butt;stroke-linejoin:miter;stroke-miterlimit:1;stroke-dasharray:none;stroke-opacity:1"
         d="M 0,0 H 2.244" /></g><g
       transform="translate(101.78,39.792)"
       id="g88"><path
         id="path90"
         style="fill:none;stroke:#6c7378;stroke-width:0.25600001;stroke-linecap:butt;stroke-linejoin:miter;stroke-miterlimit:1;stroke-dasharray:none;stroke-opacity:1"
         d="M 0,0 H 47.873" /></g><g
       transform="translate(149.653,39.792)"
       id="g92"><path
         id="path94"
         style="fill:none;stroke:#72797e;stroke-width:0.25600001;stroke-linecap:butt;stroke-linejoin:miter;stroke-miterlimit:1;stroke-dasharray:none;stroke-opacity:1"
         d="M 0,0 H 2.244" /></g><g
       transform="translate(151.897,39.792)"
       id="g96"><path
         id="path98"
         style="fill:none;stroke:#e0e2e6;stroke-width:0.25600001;stroke-linecap:butt;stroke-linejoin:miter;stroke-miterlimit:1;stroke-dasharray:none;stroke-opacity:1"
         d="M 0,0 2.618,0.758" /></g><g
       transform="translate(154.515,40.551)"
       id="g100"><path
         id="path102"
         style="fill:none;stroke:#989fa6;stroke-width:0.25600001;stroke-linecap:butt;stroke-linejoin:miter;stroke-miterlimit:1;stroke-dasharray:none;stroke-opacity:1"
         d="M 0,0 1.87,1.137" /></g><g
       transform="translate(156.385,41.688)"
       id="g104"><path
         id="path106"
         style="fill:none;stroke:#777f83;stroke-width:0.25600001;stroke-linecap:butt;stroke-linejoin:miter;stroke-miterlimit:1;stroke-dasharray:none;stroke-opacity:1"
         d="M 0,0 1.121,1.137" /></g><g
       transform="translate(157.507,42.824)"
       id="g108"><path
         id="path110"
         style="fill:none;stroke:#72797e;stroke-width:0.25600001;stroke-linecap:butt;stroke-linejoin:miter;stroke-miterlimit:1;stroke-dasharray:none;stroke-opacity:1"
         d="M 0,0 0.374,1.137" /></g><g
       transform="translate(157.881,43.961)"
       id="g112"><path
         id="path114"
         style="fill:none;stroke:#697175;stroke-width:0.25600001;stroke-linecap:butt;stroke-linejoin:miter;stroke-miterlimit:1;stroke-dasharray:none;stroke-opacity:1"
         d="M 0,0 -0.374,1.137" /></g><g
       transform="translate(157.507,45.098)"
       id="g116"><path
         id="path118"
         style="fill:none;stroke:#60676a;stroke-width:0.25600001;stroke-linecap:butt;stroke-linejoin:miter;stroke-miterlimit:1;stroke-dasharray:none;stroke-opacity:1"
         d="M 0,0 -1.496,0.758" /></g><g
       transform="translate(156.011,45.856)"
       id="g120"><path
         id="path122"
         style="fill:none;stroke:#555d5f;stroke-width:0.25600001;stroke-linecap:butt;stroke-linejoin:miter;stroke-miterlimit:1;stroke-dasharray:none;stroke-opacity:1"
         d="M 0,0 H -2.244" /></g><g
       transform="translate(153.767,45.856)"
       id="g124"><path
         id="path126"
         style="fill:none;stroke:#575f61;stroke-width:0.25600001;stroke-linecap:butt;stroke-linejoin:miter;stroke-miterlimit:1;stroke-dasharray:none;stroke-opacity:1"
         d="M 0,0 H -47.873" /></g><g
       transform="translate(118.237,25.014)"
       id="g128"><path
         id="path130"
         style="fill:#231f20;fill-opacity:1;fill-rule:nonzero;stroke:none"
         d="M 0,0 0.748,-0.758 3.74,2.274 2.992,3.032 0,0" /></g><g
       transform="translate(123.847,30.698)"
       id="g132"><path
         id="path134"
         style="fill:#231f20;fill-opacity:1;fill-rule:nonzero;stroke:none"
         d="M 0,0 0.748,-0.758 3.74,2.273 2.992,3.032 0,0" /></g><g
       transform="translate(129.457,36.382)"
       id="g136"><path
         id="path138"
         style="fill:#231f20;fill-opacity:1;fill-rule:nonzero;stroke:none"
         d="M 0,0 0.748,-0.758 3.74,2.273 2.992,3.031 0,0" /></g><g
       transform="translate(135.067,42.066)"
       id="g140"><path
         id="path142"
         style="fill:#231f20;fill-opacity:1;fill-rule:nonzero;stroke:none"
         d="M 0,0 0.748,-0.758 3.74,2.274 2.992,3.031 0,0" /></g><g
       transform="translate(140.303,47.372)"
       id="g144"><path
         id="path146"
         style="fill:#231f20;fill-opacity:1;fill-rule:nonzero;stroke:none"
         d="M 0,0 0.748,-0.758 4.114,2.652 3.366,3.41 0,0" /></g><g
       transform="translate(145.913,53.055)"
       id="g148"><path
         id="path150"
         style="fill:#231f20;fill-opacity:1;fill-rule:nonzero;stroke:none"
         d="M 0,0 0.748,-0.758 4.114,2.653 3.366,3.411 0,0" /></g><path
       id="path152"
       style="fill:#c2c7cd;fill-opacity:1;fill-rule:nonzero;stroke:none"
       d="m 118.611,15.92 h 29.92 v 9.0942 h -29.92 z" /><g
       transform="translate(118.611,25.014)"
       id="g154"><path
         id="path156"
         style="fill:none;stroke:#d2d5db;stroke-width:0.25600001;stroke-linecap:butt;stroke-linejoin:miter;stroke-miterlimit:1;stroke-dasharray:none;stroke-opacity:1"
         d="M 0,0 V -9.094" /></g><g
       transform="translate(118.611,15.92)"
       id="g158"><path
         id="path160"
         style="fill:none;stroke:#b7bcc3;stroke-width:0.25600001;stroke-linecap:butt;stroke-linejoin:miter;stroke-miterlimit:1;stroke-dasharray:none;stroke-opacity:1"
         d="M 0,0 H 29.92" /></g><g
       transform="translate(148.531,15.92)"
       id="g162"><path
         id="path164"
         style="fill:none;stroke:#e7e8eb;stroke-width:0.25600001;stroke-linecap:butt;stroke-linejoin:miter;stroke-miterlimit:1;stroke-dasharray:none;stroke-opacity:1"
         d="M 0,0 V 9.094" /></g><g
       transform="translate(148.531,25.014)"
       id="g166"><path
         id="path168"
         style="fill:none;stroke:#b7bcc3;stroke-width:0.25600001;stroke-linecap:butt;stroke-linejoin:miter;stroke-miterlimit:1;stroke-dasharray:none;stroke-opacity:1"
         d="M 0,0 H -29.92" /></g><g
       transform="translate(149.279,15.92)"
       id="g170"><path
         id="path172"
         style="fill:#231f20;fill-opacity:1;fill-rule:nonzero;stroke:none"
         d="M 0,0 0.748,-0.758 3.74,2.273 2.992,3.032 0,0" /></g><g
       transform="translate(154.889,21.604)"
       id="g174"><path
         id="path176"
         style="fill:#231f20;fill-opacity:1;fill-rule:nonzero;stroke:none"
         d="M 0,0 0.748,-0.758 3.74,2.273 2.992,3.031 0,0" /></g><g
       transform="translate(160.499,27.288)"
       id="g178"><path
         id="path180"
         style="fill:#231f20;fill-opacity:1;fill-rule:nonzero;stroke:none"
         d="M 0,0 0.748,-0.758 3.74,2.273 2.992,3.031 0,0" /></g><g
       transform="translate(166.109,32.972)"
       id="g182"><path
         id="path184"
         style="fill:#231f20;fill-opacity:1;fill-rule:nonzero;stroke:none"
         d="M 0,0 0.747,-0.758 3.74,2.274 2.992,3.032 0,0" /></g><g
       transform="translate(171.345,38.277)"
       id="g186"><path
         id="path188"
         style="fill:#231f20;fill-opacity:1;fill-rule:nonzero;stroke:none"
         d="M 0,0 0.748,-0.758 4.114,2.653 3.366,3.411 0,0" /></g><g
       transform="translate(176.955,43.961)"
       id="g190"><path
         id="path192"
         style="fill:#231f20;fill-opacity:1;fill-rule:nonzero;stroke:none"
         d="M 0,0 0.748,-0.758 4.114,2.652 3.366,3.411 0,0" /></g><g
       transform="translate(97.293,93.222)"
       id="g194"><path
         id="path196"
         style="fill:#697175;fill-opacity:1;fill-rule:nonzero;stroke:none"
         d="M 0,0 0.748,-1.137 1.496,-10.61 0.748,-9.474 0,0" /></g><g
       transform="translate(98.04,92.086)"
       id="g198"><path
         id="path200"
         style="fill:#656d70;fill-opacity:1;fill-rule:nonzero;stroke:none"
         d="M 0,0 1.496,-0.758 2.244,-9.852 0.748,-9.474 0,0" /></g><g
       transform="translate(98.04,92.086)"
       id="g202"><path
         id="path204"
         style="fill:#656d70;fill-opacity:1;fill-rule:nonzero;stroke:none"
         d="M 0,0 0.748,-0.379 1.496,-9.474 H 0.748 L 0,0" /></g><g
       transform="translate(98.789,91.707)"
       id="g206"><path
         id="path208"
         style="fill:#61696c;fill-opacity:1;fill-rule:nonzero;stroke:none"
         d="M 0,0 0.748,-0.379 1.496,-9.474 0.748,-9.095 0,0" /></g><g
       transform="translate(99.537,91.327)"
       id="g210"><path
         id="path212"
         style="fill:#5e6568;fill-opacity:1;fill-rule:nonzero;stroke:none"
         d="M 0,0 H 2.244 L 2.618,-9.473 0.748,-9.094 0,0" /></g><g
       transform="translate(101.78,91.327)"
       id="g214"><path
         id="path216"
         style="fill:#5e6568;fill-opacity:1;fill-rule:nonzero;stroke:none"
         d="m 0,0 h 47.873 l 0.374,-9.473 H 0.374 L 0,0" /></g><g
       transform="translate(149.653,91.327)"
       id="g218"><path
         id="path220"
         style="fill:#5e6568;fill-opacity:1;fill-rule:nonzero;stroke:none"
         d="M 0,0 H 2.244 L 2.992,-9.094 0.374,-9.473 0,0" /></g><g
       transform="translate(149.653,91.327)"
       id="g222"><path
         id="path224"
         style="fill:#5e6568;fill-opacity:1;fill-rule:nonzero;stroke:none"
         d="M 0,0 H 0.374 L 1.122,-9.473 H 0.374 L 0,0" /></g><g
       transform="translate(150.027,91.327)"
       id="g226"><path
         id="path228"
         style="fill:#676f72;fill-opacity:1;fill-rule:nonzero;stroke:none"
         d="M 0,0 H 0.748 L 1.496,-9.473 H 0.748 L 0,0" /></g><g
       transform="translate(150.775,91.327)"
       id="g230"><path
         id="path232"
         style="fill:#70787c;fill-opacity:1;fill-rule:nonzero;stroke:none"
         d="M 0,0 H 0.748 L 1.122,-9.094 0.748,-9.473 0,0" /></g><g
       transform="translate(151.523,91.327)"
       id="g234"><path
         id="path236"
         style="fill:#798085;fill-opacity:1;fill-rule:nonzero;stroke:none"
         d="M 0,0 H 0.374 L 1.122,-9.094 H 0.374 L 0,0" /></g><g
       transform="translate(151.897,91.327)"
       id="g238"><path
         id="path240"
         style="fill:#82898f;fill-opacity:1;fill-rule:nonzero;stroke:none"
         d="M 0,0 2.618,0.758 2.992,-8.715 0.748,-9.094 0,0" /></g><g
       transform="translate(151.897,91.327)"
       id="g242"><path
         id="path244"
         style="fill:#82898f;fill-opacity:1;fill-rule:nonzero;stroke:none"
         d="M 0,0 0.748,0.379 1.496,-9.094 H 0.748 L 0,0" /></g><g
       transform="translate(152.645,91.707)"
       id="g246"><path
         id="path248"
         style="fill:#959ca2;fill-opacity:1;fill-rule:nonzero;stroke:none"
         d="M 0,0 H 0.748 L 1.122,-9.095 0.748,-9.474 0,0" /></g><g
       transform="translate(153.393,91.707)"
       id="g250"><path
         id="path252"
         style="fill:#a8aeb5;fill-opacity:1;fill-rule:nonzero;stroke:none"
         d="M 0,0 0.374,0.379 1.122,-9.095 H 0.374 L 0,0" /></g><g
       transform="translate(153.767,92.086)"
       id="g254"><path
         id="path256"
         style="fill:#bcc0c7;fill-opacity:1;fill-rule:nonzero;stroke:none"
         d="M 0,0 H 0.748 L 1.122,-9.474 H 0.748 L 0,0" /></g><g
       transform="translate(154.515,92.086)"
       id="g258"><path
         id="path260"
         style="fill:#d1d5da;fill-opacity:1;fill-rule:nonzero;stroke:none"
         d="M 0,0 1.87,1.137 2.618,-8.337 0.374,-9.474 0,0" /></g><g
       transform="translate(154.515,92.086)"
       id="g262"><path
         id="path264"
         style="fill:#d1d5da;fill-opacity:1;fill-rule:nonzero;stroke:none"
         d="M 0,0 0.374,0.379 1.122,-9.095 0.374,-9.474 0,0" /></g><g
       transform="translate(154.889,92.464)"
       id="g266"><path
         id="path268"
         style="fill:#aeb4bb;fill-opacity:1;fill-rule:nonzero;stroke:none"
         d="M 0,0 0.748,0.379 1.496,-9.095 0.748,-9.474 0,0" /></g><g
       transform="translate(155.637,92.843)"
       id="g270"><path
         id="path272"
         style="fill:#8f969d;fill-opacity:1;fill-rule:nonzero;stroke:none"
         d="M 0,0 0.748,0.379 1.496,-9.095 0.748,-9.474 0,0" /></g><g
       transform="translate(156.385,93.222)"
       id="g274"><path
         id="path276"
         style="fill:#6f777b;fill-opacity:1;fill-rule:nonzero;stroke:none"
         d="M 0,0 1.121,1.137 1.87,-8.336 0.747,-9.474 0,0" /></g><g
       transform="translate(156.385,93.222)"
       id="g278"><path
         id="path280"
         style="fill:#6f777b;fill-opacity:1;fill-rule:nonzero;stroke:none"
         d="M 0,0 0.747,0.379 1.121,-8.715 0.747,-9.474 0,0" /></g><g
       transform="translate(157.133,93.601)"
       id="g282"><path
         id="path284"
         style="fill:#6c7378;fill-opacity:1;fill-rule:nonzero;stroke:none"
         d="M 0,0 0.374,0.758 1.122,-8.715 0.374,-9.094 0,0" /></g><g
       transform="translate(157.507,94.359)"
       id="g286"><path
         id="path288"
         style="fill:#697074;fill-opacity:1;fill-rule:nonzero;stroke:none"
         d="M 0,0 0.374,1.137 1.122,-7.958 0.748,-9.473 0,0" /></g><g
       transform="translate(105.895,97.39)"
       id="g290"><path
         id="path292"
         style="fill:#a2a8b0;fill-opacity:1;fill-rule:nonzero;stroke:none"
         d="m 0,0 h -2.618 l -2.244,-0.758 -1.87,-1.137 -1.496,-1.136 -0.374,-1.137 0.748,-1.137 1.496,-0.758 h 52.361 l 2.618,0.758 1.87,1.137 1.121,1.137 0.374,1.136 -0.374,1.137 L 50.117,0 H 0" /></g><g
       transform="translate(105.895,97.39)"
       id="g294"><path
         id="path296"
         style="fill:none;stroke:#777f84;stroke-width:0.25600001;stroke-linecap:butt;stroke-linejoin:miter;stroke-miterlimit:1;stroke-dasharray:none;stroke-opacity:1"
         d="M 0,0 H -2.618" /></g><g
       transform="translate(103.276,97.39)"
       id="g298"><path
         id="path300"
         style="fill:none;stroke:#838b91;stroke-width:0.25600001;stroke-linecap:butt;stroke-linejoin:miter;stroke-miterlimit:1;stroke-dasharray:none;stroke-opacity:1"
         d="M 0,0 -2.244,-0.758" /></g><g
       transform="translate(101.032,96.632)"
       id="g302"><path
         id="path304"
         style="fill:none;stroke:#8d959b;stroke-width:0.25600001;stroke-linecap:butt;stroke-linejoin:miter;stroke-miterlimit:1;stroke-dasharray:none;stroke-opacity:1"
         d="M 0,0 -1.87,-1.137" /></g><g
       transform="translate(99.163,95.496)"
       id="g306"><path
         id="path308"
         style="fill:none;stroke:#949ba2;stroke-width:0.25600001;stroke-linecap:butt;stroke-linejoin:miter;stroke-miterlimit:1;stroke-dasharray:none;stroke-opacity:1"
         d="M 0,0 -1.496,-1.137" /></g><g
       transform="translate(97.667,94.359)"
       id="g310"><path
         id="path312"
         style="fill:none;stroke:#979ea4;stroke-width:0.25600001;stroke-linecap:butt;stroke-linejoin:miter;stroke-miterlimit:1;stroke-dasharray:none;stroke-opacity:1"
         d="M 0,0 -0.374,-1.137" /></g><g
       transform="translate(97.293,93.222)"
       id="g314"><path
         id="path316"
         style="fill:none;stroke:#949ba2;stroke-width:0.25600001;stroke-linecap:butt;stroke-linejoin:miter;stroke-miterlimit:1;stroke-dasharray:none;stroke-opacity:1"
         d="M 0,0 0.748,-1.137" /></g><g
       transform="translate(98.04,92.086)"
       id="g318"><path
         id="path320"
         style="fill:none;stroke:#8d959b;stroke-width:0.25600001;stroke-linecap:butt;stroke-linejoin:miter;stroke-miterlimit:1;stroke-dasharray:none;stroke-opacity:1"
         d="M 0,0 1.496,-0.758" /></g><g
       transform="translate(99.537,91.327)"
       id="g322"><path
         id="path324"
         style="fill:none;stroke:#868d93;stroke-width:0.25600001;stroke-linecap:butt;stroke-linejoin:miter;stroke-miterlimit:1;stroke-dasharray:none;stroke-opacity:1"
         d="M 0,0 H 2.244" /></g><g
       transform="translate(101.78,91.327)"
       id="g326"><path
         id="path328"
         style="fill:none;stroke:#8c939a;stroke-width:0.25600001;stroke-linecap:butt;stroke-linejoin:miter;stroke-miterlimit:1;stroke-dasharray:none;stroke-opacity:1"
         d="M 0,0 H 47.873" /></g><g
       transform="translate(149.653,91.327)"
       id="g330"><path
         id="path332"
         style="fill:none;stroke:#949aa1;stroke-width:0.25600001;stroke-linecap:butt;stroke-linejoin:miter;stroke-miterlimit:1;stroke-dasharray:none;stroke-opacity:1"
         d="M 0,0 H 2.244" /></g><g
       transform="translate(151.897,91.327)"
       id="g334"><path
         id="path336"
         style="fill:none;stroke:#ffffff;stroke-width:0.25600001;stroke-linecap:butt;stroke-linejoin:miter;stroke-miterlimit:1;stroke-dasharray:none;stroke-opacity:1"
         d="M 0,0 2.618,0.758" /></g><g
       transform="translate(154.515,92.086)"
       id="g338"><path
         id="path340"
         style="fill:none;stroke:#bec3c9;stroke-width:0.25600001;stroke-linecap:butt;stroke-linejoin:miter;stroke-miterlimit:1;stroke-dasharray:none;stroke-opacity:1"
         d="M 0,0 1.87,1.137" /></g><g
       transform="translate(156.385,93.222)"
       id="g342"><path
         id="path344"
         style="fill:none;stroke:#9aa1a8;stroke-width:0.25600001;stroke-linecap:butt;stroke-linejoin:miter;stroke-miterlimit:1;stroke-dasharray:none;stroke-opacity:1"
         d="M 0,0 1.121,1.137" /></g><g
       transform="translate(157.507,94.359)"
       id="g346"><path
         id="path348"
         style="fill:none;stroke:#949aa1;stroke-width:0.25600001;stroke-linecap:butt;stroke-linejoin:miter;stroke-miterlimit:1;stroke-dasharray:none;stroke-opacity:1"
         d="M 0,0 0.374,1.137" /></g><g
       transform="translate(157.881,95.496)"
       id="g350"><path
         id="path352"
         style="fill:none;stroke:#899096;stroke-width:0.25600001;stroke-linecap:butt;stroke-linejoin:miter;stroke-miterlimit:1;stroke-dasharray:none;stroke-opacity:1"
         d="M 0,0 -0.374,1.137" /></g><g
       transform="translate(157.507,96.632)"
       id="g354"><path
         id="path356"
         style="fill:none;stroke:#7c8489;stroke-width:0.25600001;stroke-linecap:butt;stroke-linejoin:miter;stroke-miterlimit:1;stroke-dasharray:none;stroke-opacity:1"
         d="M 0,0 -1.496,0.758" /></g><g
       transform="translate(156.011,97.39)"
       id="g358"><path
         id="path360"
         style="fill:none;stroke:#6e7679;stroke-width:0.25600001;stroke-linecap:butt;stroke-linejoin:miter;stroke-miterlimit:1;stroke-dasharray:none;stroke-opacity:1"
         d="M 0,0 H -2.244" /></g><g
       transform="translate(153.767,97.39)"
       id="g362"><path
         id="path364"
         style="fill:none;stroke:#72797e;stroke-width:0.25600001;stroke-linecap:butt;stroke-linejoin:miter;stroke-miterlimit:1;stroke-dasharray:none;stroke-opacity:1"
         d="M 0,0 H -47.873" /></g><g
       transform="translate(134.693,124.295)"
       id="g366"><path
         id="path368"
         style="fill:#697074;fill-opacity:1;fill-rule:nonzero;stroke:none"
         d="M 0,0 4.114,6.442 4.862,-2.652 0.748,-9.094 0,0" /></g><g
       transform="translate(97.293,125.81)"
       id="g370"><path
         id="path372"
         style="fill:#697175;fill-opacity:1;fill-rule:nonzero;stroke:none"
         d="M 0,0 0.374,-0.379 0.748,-9.852 0.374,-9.094 0,0" /></g><g
       transform="translate(97.667,125.431)"
       id="g374"><path
         id="path376"
         style="fill:#646c6f;fill-opacity:1;fill-rule:nonzero;stroke:none"
         d="M 0,0 0.748,-0.379 1.496,-9.852 0.374,-9.473 0,0" /></g><g
       transform="translate(98.415,125.052)"
       id="g378"><path
         id="path380"
         style="fill:#60676a;fill-opacity:1;fill-rule:nonzero;stroke:none"
         d="M 0,0 1.122,-0.379 1.87,-9.852 0.748,-9.473 0,0" /></g><g
       transform="translate(98.415,125.052)"
       id="g382"><path
         id="path384"
         style="fill:#60676a;fill-opacity:1;fill-rule:nonzero;stroke:none"
         d="M 0,0 0.748,-0.379 1.122,-9.473 H 0.748 L 0,0" /></g><g
       transform="translate(99.163,124.673)"
       id="g386"><path
         id="path388"
         style="fill:#5e6568;fill-opacity:1;fill-rule:nonzero;stroke:none"
         d="M 0,0 H 0.374 L 1.122,-9.473 0.374,-9.094 0,0" /></g><g
       transform="translate(99.537,124.673)"
       id="g390"><path
         id="path392"
         style="fill:#5c6466;fill-opacity:1;fill-rule:nonzero;stroke:none"
         d="M 0,0 2.244,-0.379 2.618,-9.473 H 0.748 L 0,0" /></g><g
       transform="translate(99.537,124.673)"
       id="g394"><path
         id="path396"
         style="fill:#5c6466;fill-opacity:1;fill-rule:nonzero;stroke:none"
         d="M 0,0 H 0.748 L 1.496,-9.473 H 0.748 L 0,0" /></g><g
       transform="translate(100.284,124.673)"
       id="g398"><path
         id="path400"
         style="fill:#5b6265;fill-opacity:1;fill-rule:nonzero;stroke:none"
         d="M 0,0 0.748,-0.379 1.496,-9.473 H 0.748 L 0,0" /></g><g
       transform="translate(101.032,124.295)"
       id="g402"><path
         id="path404"
         style="fill:#5a6164;fill-opacity:1;fill-rule:nonzero;stroke:none"
         d="M 0,0 H 0.748 L 1.122,-9.094 H 0.748 L 0,0" /></g><g
       transform="translate(101.78,124.295)"
       id="g406"><path
         id="path408"
         style="fill:#5f6769;fill-opacity:1;fill-rule:nonzero;stroke:none"
         d="m 0,0 h 32.913 l 0.748,-9.094 H 0.374 L 0,0" /></g><g
       transform="translate(134.693,124.295)"
       id="g410"><path
         id="path412"
         style="fill:#a2a8b0;fill-opacity:1;fill-rule:nonzero;stroke:none"
         d="M 0,0 4.114,6.442 H -31.042 L -32.913,6.063 -35.156,5.305 -37.026,3.411 -37.4,2.653 V 1.516 l 0.374,-0.379 0.748,-0.379 1.122,-0.379 L -32.913,0 H 0" /></g><g
       transform="translate(134.693,124.295)"
       id="g414"><path
         id="path416"
         style="fill:none;stroke:#979ea5;stroke-width:0.25600001;stroke-linecap:butt;stroke-linejoin:miter;stroke-miterlimit:1;stroke-dasharray:none;stroke-opacity:1"
         d="M 0,0 4.114,6.442" /></g><g
       transform="translate(138.807,130.736)"
       id="g418"><path
         id="path420"
         style="fill:none;stroke:#72797e;stroke-width:0.25600001;stroke-linecap:butt;stroke-linejoin:miter;stroke-miterlimit:1;stroke-dasharray:none;stroke-opacity:1"
         d="M 0,0 H -32.913" /></g><g
       transform="translate(105.895,130.736)"
       id="g422"><path
         id="path424"
         style="fill:none;stroke:#777f84;stroke-width:0.25600001;stroke-linecap:butt;stroke-linejoin:miter;stroke-miterlimit:1;stroke-dasharray:none;stroke-opacity:1"
         d="M 0,0 H -2.244" /></g><g
       transform="translate(103.65,130.736)"
       id="g426"><path
         id="path428"
         style="fill:none;stroke:#7d848a;stroke-width:0.25600001;stroke-linecap:butt;stroke-linejoin:miter;stroke-miterlimit:1;stroke-dasharray:none;stroke-opacity:1"
         d="M 0,0 -1.87,-0.379" /></g><g
       transform="translate(101.78,130.358)"
       id="g430"><path
         id="path432"
         style="fill:none;stroke:#838a90;stroke-width:0.25600001;stroke-linecap:butt;stroke-linejoin:miter;stroke-miterlimit:1;stroke-dasharray:none;stroke-opacity:1"
         d="M 0,0 -1.122,-0.379" /></g><g
       transform="translate(100.658,129.979)"
       id="g434"><path
         id="path436"
         style="fill:none;stroke:#8a9298;stroke-width:0.25600001;stroke-linecap:butt;stroke-linejoin:miter;stroke-miterlimit:1;stroke-dasharray:none;stroke-opacity:1"
         d="M 0,0 -1.122,-0.379" /></g><g
       transform="translate(99.537,129.6)"
       id="g438"><path
         id="path440"
         style="fill:none;stroke:#9199a0;stroke-width:0.25600001;stroke-linecap:butt;stroke-linejoin:miter;stroke-miterlimit:1;stroke-dasharray:none;stroke-opacity:1"
         d="M 0,0 -1.122,-1.137" /></g><g
       transform="translate(98.415,128.463)"
       id="g442"><path
         id="path444"
         style="fill:none;stroke:#969da4;stroke-width:0.25600001;stroke-linecap:butt;stroke-linejoin:miter;stroke-miterlimit:1;stroke-dasharray:none;stroke-opacity:1"
         d="M 0,0 -0.748,-0.758 -1.122,-1.516 V -2.653" /></g><g
       transform="translate(97.293,125.81)"
       id="g446"><path
         id="path448"
         style="fill:none;stroke:#9299a0;stroke-width:0.25600001;stroke-linecap:butt;stroke-linejoin:miter;stroke-miterlimit:1;stroke-dasharray:none;stroke-opacity:1"
         d="M 0,0 0.374,-0.379" /></g><g
       transform="translate(97.667,125.431)"
       id="g450"><path
         id="path452"
         style="fill:none;stroke:#8e969c;stroke-width:0.25600001;stroke-linecap:butt;stroke-linejoin:miter;stroke-miterlimit:1;stroke-dasharray:none;stroke-opacity:1"
         d="M 0,0 0.748,-0.379" /></g><g
       transform="translate(98.415,125.052)"
       id="g454"><path
         id="path456"
         style="fill:none;stroke:#899096;stroke-width:0.25600001;stroke-linecap:butt;stroke-linejoin:miter;stroke-miterlimit:1;stroke-dasharray:none;stroke-opacity:1"
         d="M 0,0 1.122,-0.379" /></g><g
       transform="translate(99.537,124.673)"
       id="g458"><path
         id="path460"
         style="fill:none;stroke:#858c92;stroke-width:0.25600001;stroke-linecap:butt;stroke-linejoin:miter;stroke-miterlimit:1;stroke-dasharray:none;stroke-opacity:1"
         d="M 0,0 2.244,-0.379" /></g><g
       transform="translate(101.78,124.295)"
       id="g462"><path
         id="path464"
         style="fill:none;stroke:#8c939a;stroke-width:0.25600001;stroke-linecap:butt;stroke-linejoin:miter;stroke-miterlimit:1;stroke-dasharray:none;stroke-opacity:1"
         d="M 0,0 H 32.913" /></g><g
       transform="translate(229.316,18.572)"
       id="g466"><path
         id="path468"
         style="fill:#dee0e4;fill-opacity:1;fill-rule:nonzero;stroke:none"
         d="m 0,0 v 9.095 l 28.424,28.42 V 28.42 L 0,0" /></g><g
       transform="translate(229.316,27.667)"
       id="g470"><path
         id="path472"
         style="fill:#9ca3aa;fill-opacity:1;fill-rule:nonzero;stroke:none"
         d="m 0,0 h -29.92 l 28.424,28.42 h 29.92 L 0,0" /></g><path
       id="path474"
       style="fill:#c2c7cd;fill-opacity:1;fill-rule:nonzero;stroke:none"
       d="m 199.396,18.572 h 29.92 v 9.0947 h -29.92 z" /><g
       transform="translate(199.396,27.667)"
       id="g476"><path
         id="path478"
         style="fill:none;stroke:#d2d5db;stroke-width:0.25600001;stroke-linecap:butt;stroke-linejoin:miter;stroke-miterlimit:1;stroke-dasharray:none;stroke-opacity:1"
         d="M 0,0 V -9.095" /></g><g
       transform="translate(199.396,18.572)"
       id="g480"><path
         id="path482"
         style="fill:none;stroke:#b7bcc3;stroke-width:0.25600001;stroke-linecap:butt;stroke-linejoin:miter;stroke-miterlimit:1;stroke-dasharray:none;stroke-opacity:1"
         d="M 0,0 H 29.92" /></g><g
       transform="translate(229.316,18.572)"
       id="g484"><path
         id="path486"
         style="fill:none;stroke:#e7e8eb;stroke-width:0.25600001;stroke-linecap:butt;stroke-linejoin:miter;stroke-miterlimit:1;stroke-dasharray:none;stroke-opacity:1"
         d="M 0,0 V 9.095" /></g><g
       transform="translate(229.316,27.667)"
       id="g488"><path
         id="path490"
         style="fill:none;stroke:#b7bcc3;stroke-width:0.25600001;stroke-linecap:butt;stroke-linejoin:miter;stroke-miterlimit:1;stroke-dasharray:none;stroke-opacity:1"
         d="M 0,0 H -29.92" /></g><text
       id="text512"
       style="font-variant:normal;font-weight:normal;font-stretch:normal;font-size:10px;font-family:Helvetica;-inkscape-font-specification:Helvetica;writing-mode:lr-tb;fill:#231f20;fill-opacity:1;fill-rule:nonzero;stroke:none"
       transform="matrix(1,0,0,-1,18.4345,126.0801)"><tspan
         id="tspan492"
         y="0"
         x="0 7.7800002 13.34 18.9 24.459999 27.24 33.91 36.130001 41.689999 44.470001">Open Slot</tspan><tspan
         id="tspan494"
         y="12"
         x="-18.434999 -15.105 -12.325 -10.105 -4.5450001 1.015 3.2349999 6.0149999 8.4949999 14.055 17.635 25.965 28.745001 31.225 36.785 42.345001 45.125 50.685001 54.014999 59.575001">(final form feature)</tspan><tspan
         id="tspan496"
         y="35.999001"
         x="-2.1949999 5.0250001 7.2449999 12.805 17.805 23.365 28.924999 31.705 38.375 40.595001 46.154999 48.935001">Closed Slot</tspan><tspan
         id="tspan498"
         y="47.999001"
         x="-14.27 -10.94 -5.3800001 -2.05 3.51 8.5100002 14.07 19.07 24.07 26.85 29.33 34.889999 40.450001 43.23 48.790001 52.119999 57.68">(process feature)</tspan><tspan
         id="tspan500"
         y="13.636"
         x="199.37601 208.51601 214.076 217.556 222.556 224.776 230.336 235.896 240.896 243.67599 249.23599 254.79601 257.57599 263.13599 268.69601">Workingstep #1</tspan><tspan
         id="tspan502"
         y="25.636"
         x="189.86099 193.19099 199.86099 205.42101 208.201 210.981 216.541 224.871 227.651 234.321 237.101 243.771 245.991 251.55099 257.11099 259.89099 268.22101 270.44101 272.66101 274.88101">(Bottom &amp; Side Mill)</tspan><tspan
         id="tspan504"
         y="48.333"
         x="260.70901 269.849 275.409 278.88901 283.88901 286.10901 291.66901 297.229 302.229 305.009 310.569 316.129 318.909 324.46899 330.02899">Workingstep #2</tspan><tspan
         id="tspan506"
         y="60.333"
         x="251.194 254.524 261.194 266.754 269.534 272.314 277.87399 286.20401 288.98401 295.65399 298.43399 305.104 307.32401 312.884 318.444 321.224 329.55399 331.77399 333.99399 336.21399">(Bottom &amp; Side Mill)</tspan><tspan
         id="tspan508"
         y="89"
         x="250.347 257.017 259.797 265.35699 270.91699 273.69699 277.02701 282.58701 288.147 290.927 296.487 299.267 304.827 308.15701 313.71701 318.71701 324.27701 329.27701 334.27701 337.05701">Step (both process </tspan><tspan
         id="tspan510"
         y="101"
         x="244.967 250.52699 256.08701 261.647 264.427 267.207 269.427 274.987 280.547 282.767 285.547 288.02701 293.58701 297.16699 305.49701 308.27701 310.75699 316.31699 321.87701 324.65701 330.21701 333.547 339.10699">and final form feature)</tspan></text>
<path
       id="path514"
       style="fill:none;stroke:#231f20;stroke-width:1;stroke-linecap:butt;stroke-linejoin:miter;stroke-miterlimit:1;stroke-dasharray:5;stroke-dashoffset:0;stroke-opacity:1"
       d="m 148.471,124.443 c 8.637,1.519 17.992,1.798 27.097,1.5 11.009,-0.359 25.531,-6.207 36.403,-8" /><g
       transform="translate(146.859,123.38)"
       id="g516"><path
         id="path518"
         style="fill:#231f20;fill-opacity:1;fill-rule:nonzero;stroke:none"
         d="M 0,0 C 1.286,-0.154 2.14,-0.355 3.188,-0.576 L 2.533,3.15 C 2.212,2.922 0.889,2.105 -0.268,1.523 -1.505,0.898 -2.643,0.419 -3.395,0.188 -2.609,0.227 -1.377,0.165 0,0" /></g><g
       transform="translate(165.971,89.443)"
       id="g520"><path
         id="path522"
         style="fill:none;stroke:#231f20;stroke-width:1;stroke-linecap:butt;stroke-linejoin:miter;stroke-miterlimit:1;stroke-dasharray:none;stroke-opacity:1"
         d="M 0,0 C 13.5,1 25.175,0.489 35.5,7" /></g><g
       transform="translate(164.261,88.546)"
       id="g524"><path
         id="path526"
         style="fill:#231f20;fill-opacity:1;fill-rule:nonzero;stroke:none"
         d="M 0,0 C 1.265,-0.282 2.094,-0.566 3.115,-0.891 L 2.836,2.882 C 2.493,2.687 1.095,2.006 -0.114,1.542 -1.408,1.043 -2.588,0.681 -3.359,0.526 -2.573,0.486 -1.353,0.302 0,0" /></g><g
       transform="translate(243.471,62.943)"
       id="g528"><path
         id="path530"
         style="fill:none;stroke:#231f20;stroke-width:1;stroke-linecap:butt;stroke-linejoin:miter;stroke-miterlimit:1;stroke-dasharray:none;stroke-opacity:1"
         d="M 0,0 C -1.44,12.77 17.103,13.504 26,13.5" /></g><g
       transform="translate(244.433,61.27)"
       id="g532"><path
         id="path534"
         style="fill:#231f20;fill-opacity:1;fill-rule:nonzero;stroke:none"
         d="m 0,0 c 0.233,1.274 0.486,2.114 0.771,3.146 l -3.76,-0.423 c 0.208,-0.335 0.942,-1.706 1.453,-2.896 0.547,-1.274 0.954,-2.439 1.139,-3.204 C -0.387,-2.59 -0.249,-1.364 0,0" /></g></g></svg>