<?xml version="1.0" encoding="UTF-8" standalone="no"?>
<svg
   xmlns:dc="http://purl.org/dc/elements/1.1/"
   xmlns:cc="http://creativecommons.org/ns#"
   xmlns:rdf="http://www.w3.org/1999/02/22-rdf-syntax-ns#"
   xmlns:svg="http://www.w3.org/2000/svg"
   xmlns="http://www.w3.org/2000/svg"
   viewBox="0 0 359.52667 162.62666"
   height="162.62666"
   width="359.52667"
   xml:space="preserve"
   id="svg2"
   version="1.1"><metadata
     id="metadata8"><rdf:RDF><cc:Work
         rdf:about=""><dc:format>image/svg+xml</dc:format><dc:type
           rdf:resource="http://purl.org/dc/dcmitype/StillImage" /></cc:Work></rdf:RDF></metadata><defs
     id="defs6" /><g
     transform="matrix(1.3333333,0,0,-1.3333333,0,162.62667)"
     id="g10"><g
       transform="translate(25.825,91.416)"
       id="g12"><path
         id="path14"
         style="fill:#737b80;fill-opacity:1;fill-rule:nonzero;stroke:none"
         d="m 0,0 -22.462,-22.762 v -68.285 h 76.371 l 22.462,22.761 V 0 H 0" /></g><g
       transform="translate(25.825,91.416)"
       id="g16"><path
         id="path18"
         style="fill:none;stroke:#737b80;stroke-width:0.73699999;stroke-linecap:butt;stroke-linejoin:miter;stroke-miterlimit:1;stroke-dasharray:none;stroke-opacity:1"
         d="m 0,0 -22.462,-22.762 v -68.285 h 76.371 l 22.462,22.761 V 0 Z" /></g><g
       transform="translate(3.3633,68.654)"
       id="g20"><path
         id="path22"
         style="fill:none;stroke:#737b80;stroke-width:0.73699999;stroke-linecap:butt;stroke-linejoin:miter;stroke-miterlimit:1;stroke-dasharray:none;stroke-opacity:1"
         d="M 0,0 H 76.371 L 98.833,22.762" /><g
         transform="translate(76.371)"
         id="g24"><path
           id="path26"
           style="fill:none;stroke:#737b80;stroke-width:0.73699999;stroke-linecap:butt;stroke-linejoin:miter;stroke-miterlimit:1;stroke-dasharray:none;stroke-opacity:1"
           d="M 0,0 V -68.286" /></g></g><g
       transform="translate(22.83,94.451)"
       id="g28"><path
         id="path30"
         style="fill:#ffffff;fill-opacity:1;fill-rule:nonzero;stroke:none"
         d="m 0,0 -22.462,-22.762 v -68.285 h 76.371 l 22.463,22.761 0,68.286 H 0" /></g><g
       transform="translate(0.36809,71.688)"
       id="g32"><path
         id="path34"
         style="fill:#ffffff;fill-opacity:1;fill-rule:nonzero;stroke:none"
         d="M 0,0 H 76.371 L 98.834,22.762 H 22.462 L 0,0" /></g><g
       transform="translate(76.739,71.688)"
       id="g36"><path
         id="path38"
         style="fill:#caced4;fill-opacity:1;fill-rule:nonzero;stroke:none"
         d="M 0,0 22.463,22.762 V -45.523 L 0,-68.285 V 0" /></g><g
       transform="translate(22.83,94.451)"
       id="g40"><path
         id="path42"
         style="fill:none;stroke:#231f20;stroke-width:0.73699999;stroke-linecap:butt;stroke-linejoin:miter;stroke-miterlimit:1;stroke-dasharray:none;stroke-opacity:1"
         d="m 0,0 -22.462,-22.762 v -68.285 h 76.371 l 22.463,22.761 0,68.286 z" /></g><g
       transform="translate(0.36809,71.688)"
       id="g44"><path
         id="path46"
         style="fill:none;stroke:#231f20;stroke-width:0.73699999;stroke-linecap:butt;stroke-linejoin:miter;stroke-miterlimit:1;stroke-dasharray:none;stroke-opacity:1"
         d="M 0,0 H 76.371 L 98.834,22.762" /><g
         transform="translate(76.371)"
         id="g48"><path
           id="path50"
           style="fill:none;stroke:#231f20;stroke-width:0.73699999;stroke-linecap:butt;stroke-linejoin:miter;stroke-miterlimit:1;stroke-dasharray:none;stroke-opacity:1"
           d="M 0,0 V -68.285" /></g></g><path
       id="path52"
       style="fill:#231f20;fill-opacity:1;fill-rule:nonzero;stroke:none"
       d="m 18.712,67.516 h 1.1235 v 4.5522 H 18.712 Z" /><path
       id="path54"
       style="fill:#231f20;fill-opacity:1;fill-rule:nonzero;stroke:none"
       d="m 18.712,59.549 h 1.1235 v 4.5518 H 18.712 Z" /><g
       transform="translate(19.835,56.135)"
       id="g56"><path
         id="path58"
         style="fill:#231f20;fill-opacity:1;fill-rule:nonzero;stroke:none"
         d="m 0,0 h -1.124 v -2.276 l 0.375,-0.38 v -0.379 h 2.247 v 1.138 h -2.247 l 0.374,-0.379 -0.374,0.379 V -2.276 H 0 L 0,0" /></g><path
       id="path60"
       style="fill:#231f20;fill-opacity:1;fill-rule:nonzero;stroke:none"
       d="m 24.702,53.1 h 4.4922 v 1.1377 H 24.702 Z" /><path
       id="path62"
       style="fill:#231f20;fill-opacity:1;fill-rule:nonzero;stroke:none"
       d="m 32.564,53.1 h 4.4927 v 1.1377 H 32.564 Z" /><path
       id="path64"
       style="fill:#231f20;fill-opacity:1;fill-rule:nonzero;stroke:none"
       d="m 36.682,45.892 h 1.1235 v 4.5523 H 36.682 Z" /><g
       transform="translate(37.805,42.478)"
       id="g66"><path
         id="path68"
         style="fill:#231f20;fill-opacity:1;fill-rule:nonzero;stroke:none"
         d="m 0,0 h -1.124 v -3.794 l 0.375,-0.379 V -4.552 H 0 v 1.138 h -0.749 l 0.375,-0.38 -0.375,0.38 v -0.38 H 0 L 0,0" /></g><path
       id="path70"
       style="fill:#231f20;fill-opacity:1;fill-rule:nonzero;stroke:none"
       d="m 41.174,37.925 h 4.4927 v 1.1382 H 41.174 Z" /><path
       id="path72"
       style="fill:#231f20;fill-opacity:1;fill-rule:nonzero;stroke:none"
       d="m 49.036,37.925 h 4.4922 v 1.1382 H 49.036 Z" /><path
       id="path74"
       style="fill:#231f20;fill-opacity:1;fill-rule:nonzero;stroke:none"
       d="m 54.652,32.235 h 1.1231 v 4.5522 H 54.652 Z" /><path
       id="path76"
       style="fill:#231f20;fill-opacity:1;fill-rule:nonzero;stroke:none"
       d="m 54.652,24.268 h 1.1231 v 4.5522 H 54.652 Z" /><path
       id="path78"
       style="fill:#231f20;fill-opacity:1;fill-rule:nonzero;stroke:none"
       d="m 57.646,22.75 h 4.4926 v 1.1382 H 57.646 Z" /><path
       id="path80"
       style="fill:#231f20;fill-opacity:1;fill-rule:nonzero;stroke:none"
       d="m 65.509,22.75 h 4.4921 v 1.1382 H 65.509 Z" /><path
       id="path82"
       style="fill:#231f20;fill-opacity:1;fill-rule:nonzero;stroke:none"
       d="m 73.37,22.75 h 2.6211 v 1.1382 H 73.37 Z" /><g
       transform="translate(19.461,70.93)"
       id="g84"><path
         id="path86"
         style="fill:none;stroke:#231f20;stroke-width:0.73699999;stroke-linecap:butt;stroke-linejoin:miter;stroke-miterlimit:1;stroke-dasharray:none;stroke-opacity:1"
         d="M 0,0 22.837,23.141" /><g
         transform="translate(57.278,-45.903)"
         id="g88"><path
           id="path90"
           style="fill:none;stroke:#231f20;stroke-width:0.73699999;stroke-linecap:butt;stroke-linejoin:miter;stroke-miterlimit:1;stroke-dasharray:none;stroke-opacity:1"
           d="M 0,0 22.837,23.141" /></g></g><g
       transform="translate(39.303,54.997)"
       id="g92"><path
         id="path94"
         style="fill:#697074;fill-opacity:1;fill-rule:nonzero;stroke:none"
         d="M 0,0 V 15.175 L 23.585,39.074 V 23.9 L 0,0" /></g><g
       transform="translate(39.303,70.171)"
       id="g96"><path
         id="path98"
         style="fill:#4e5557;fill-opacity:1;fill-rule:nonzero;stroke:none"
         d="M 0,0 H -19.467 L 4.118,23.899 H 23.585 L 0,0" /></g><path
       id="path100"
       style="fill:#c2c7cd;fill-opacity:1;fill-rule:nonzero;stroke:none"
       d="M 19.835,54.997 H 39.302 V 70.172 H 19.835 Z" /><g
       transform="translate(19.835,70.171)"
       id="g102"><path
         id="path104"
         style="fill:none;stroke:#9aa1a8;stroke-width:0.24600001;stroke-linecap:butt;stroke-linejoin:miter;stroke-miterlimit:1;stroke-dasharray:none;stroke-opacity:1"
         d="M 0,0 V -15.175" /></g><g
       transform="translate(19.835,54.997)"
       id="g106"><path
         id="path108"
         style="fill:none;stroke:#899096;stroke-width:0.24600001;stroke-linecap:butt;stroke-linejoin:miter;stroke-miterlimit:1;stroke-dasharray:none;stroke-opacity:1"
         d="M 0,0 H 19.467" /></g><g
       transform="translate(39.303,54.997)"
       id="g110"><path
         id="path112"
         style="fill:none;stroke:#a6acb4;stroke-width:0.24600001;stroke-linecap:butt;stroke-linejoin:miter;stroke-miterlimit:1;stroke-dasharray:none;stroke-opacity:1"
         d="M 0,0 V 15.175" /></g><g
       transform="translate(39.303,70.171)"
       id="g114"><path
         id="path116"
         style="fill:none;stroke:#899096;stroke-width:0.24600001;stroke-linecap:butt;stroke-linejoin:miter;stroke-miterlimit:1;stroke-dasharray:none;stroke-opacity:1"
         d="M 0,0 H -19.467" /></g><g
       transform="translate(58.396,39.822)"
       id="g118"><path
         id="path120"
         style="fill:#9aa1a8;fill-opacity:1;fill-rule:nonzero;stroke:none"
         d="M 0,0 V 30.349 L 23.585,54.248 V 23.9 L 0,0" /></g><g
       transform="translate(58.396,70.171)"
       id="g122"><path
         id="path124"
         style="fill:#72797e;fill-opacity:1;fill-rule:nonzero;stroke:none"
         d="M 0,0 H -19.093 L 4.118,23.899 H 23.585 L 0,0" /></g><path
       id="path126"
       style="fill:#8a9298;fill-opacity:1;fill-rule:nonzero;stroke:none"
       d="M 39.303,39.822 H 58.396 V 70.171 H 39.303 Z" /><g
       transform="translate(39.303,70.171)"
       id="g128"><path
         id="path130"
         style="fill:none;stroke:#777f84;stroke-width:0.24600001;stroke-linecap:butt;stroke-linejoin:miter;stroke-miterlimit:1;stroke-dasharray:none;stroke-opacity:1"
         d="M 0,0 V -30.349" /></g><g
       transform="translate(39.303,39.822)"
       id="g132"><path
         id="path134"
         style="fill:none;stroke:#565e60;stroke-width:0.24600001;stroke-linecap:butt;stroke-linejoin:miter;stroke-miterlimit:1;stroke-dasharray:none;stroke-opacity:1"
         d="M 0,0 H 19.093" /></g><g
       transform="translate(58.396,39.822)"
       id="g136"><path
         id="path138"
         style="fill:none;stroke:#ffffff;stroke-width:0.24600001;stroke-linecap:butt;stroke-linejoin:miter;stroke-miterlimit:1;stroke-dasharray:none;stroke-opacity:1"
         d="M 0,0 V 30.349" /></g><g
       transform="translate(58.396,70.171)"
       id="g140"><path
         id="path142"
         style="fill:none;stroke:#565e60;stroke-width:0.24600001;stroke-linecap:butt;stroke-linejoin:miter;stroke-miterlimit:1;stroke-dasharray:none;stroke-opacity:1"
         d="M 0,0 H -19.093" /></g><g
       transform="translate(75.242,24.647)"
       id="g144"><path
         id="path146"
         style="fill:#dee0e4;fill-opacity:1;fill-rule:nonzero;stroke:none"
         d="M 0,0 V 45.524 L 23.585,69.423 V 23.9 L 0,0" /></g><g
       transform="translate(75.242,70.171)"
       id="g148"><path
         id="path150"
         style="fill:#9ca3aa;fill-opacity:1;fill-rule:nonzero;stroke:none"
         d="M 0,0 H -19.467 L 4.118,23.899 H 23.585 L 0,0" /></g><path
       id="path152"
       style="fill:#c2c7cd;fill-opacity:1;fill-rule:nonzero;stroke:none"
       d="M 55.775,24.647 H 75.242 V 70.171 H 55.775 Z" /><g
       transform="translate(55.775,70.171)"
       id="g154"><path
         id="path156"
         style="fill:none;stroke:#d2d5db;stroke-width:0.24600001;stroke-linecap:butt;stroke-linejoin:miter;stroke-miterlimit:1;stroke-dasharray:none;stroke-opacity:1"
         d="M 0,0 V -45.524" /></g><g
       transform="translate(55.775,24.647)"
       id="g158"><path
         id="path160"
         style="fill:none;stroke:#b7bcc3;stroke-width:0.24600001;stroke-linecap:butt;stroke-linejoin:miter;stroke-miterlimit:1;stroke-dasharray:none;stroke-opacity:1"
         d="M 0,0 H 19.467" /></g><g
       transform="translate(75.242,24.647)"
       id="g162"><path
         id="path164"
         style="fill:none;stroke:#e7e8eb;stroke-width:0.24600001;stroke-linecap:butt;stroke-linejoin:miter;stroke-miterlimit:1;stroke-dasharray:none;stroke-opacity:1"
         d="M 0,0 V 45.524" /></g><g
       transform="translate(75.242,70.171)"
       id="g166"><path
         id="path168"
         style="fill:none;stroke:#b7bcc3;stroke-width:0.24600001;stroke-linecap:butt;stroke-linejoin:miter;stroke-miterlimit:1;stroke-dasharray:none;stroke-opacity:1"
         d="M 0,0 H -19.467" /></g><g
       transform="translate(157.604,94.451)"
       id="g170"><path
         id="path172"
         style="fill:#737b80;fill-opacity:1;fill-rule:nonzero;stroke:none"
         d="m 0,0 -22.462,-22.762 v -68.285 h 76.371 l 22.463,22.761 0,68.286 H 0" /></g><g
       transform="translate(157.604,94.451)"
       id="g174"><path
         id="path176"
         style="fill:none;stroke:#737b80;stroke-width:0.73699999;stroke-linecap:butt;stroke-linejoin:miter;stroke-miterlimit:1;stroke-dasharray:none;stroke-opacity:1"
         d="m 0,0 -22.462,-22.762 v -68.285 h 76.371 l 22.463,22.761 0,68.286 z" /><g
         transform="translate(-22.462,-22.762)"
         id="g178"><path
           id="path180"
           style="fill:none;stroke:#737b80;stroke-width:0.73699999;stroke-linecap:butt;stroke-linejoin:miter;stroke-miterlimit:1;stroke-dasharray:none;stroke-opacity:1"
           d="M 0,0 H 76.372 L 98.834,22.762" /><g
           transform="translate(76.372)"
           id="g182"><path
             id="path184"
             style="fill:none;stroke:#737b80;stroke-width:0.73699999;stroke-linecap:butt;stroke-linejoin:miter;stroke-miterlimit:1;stroke-dasharray:none;stroke-opacity:1"
             d="M 0,0 V -68.285" /></g></g></g><g
       transform="translate(154.608,97.485)"
       id="g186"><path
         id="path188"
         style="fill:#ffffff;fill-opacity:1;fill-rule:nonzero;stroke:none"
         d="M 0,0 -22.462,-22.762 V -91.047 H 53.91 l 22.462,22.761 V 0 H 0" /></g><g
       transform="translate(132.146,74.724)"
       id="g190"><path
         id="path192"
         style="fill:#ffffff;fill-opacity:1;fill-rule:nonzero;stroke:none"
         d="M 0,0 H 76.372 L 98.833,22.762 H 22.462 L 0,0" /></g><g
       transform="translate(208.518,74.724)"
       id="g194"><path
         id="path196"
         style="fill:#caced4;fill-opacity:1;fill-rule:nonzero;stroke:none"
         d="M 0,0 22.462,22.762 V -45.524 L 0,-68.286 V 0" /></g><g
       transform="translate(154.608,97.485)"
       id="g198"><path
         id="path200"
         style="fill:none;stroke:#231f20;stroke-width:0.73699999;stroke-linecap:butt;stroke-linejoin:miter;stroke-miterlimit:1;stroke-dasharray:none;stroke-opacity:1"
         d="M 0,0 -22.462,-22.762 V -91.047 H 53.91 l 22.462,22.761 V 0 Z" /><g
         transform="translate(-22.462,-22.762)"
         id="g202"><path
           id="path204"
           style="fill:none;stroke:#231f20;stroke-width:0.73699999;stroke-linecap:butt;stroke-linejoin:miter;stroke-miterlimit:1;stroke-dasharray:none;stroke-opacity:1"
           d="M 0,0 H 76.372 L 98.833,22.762" /><g
           transform="translate(76.372)"
           id="g206"><path
             id="path208"
             style="fill:none;stroke:#231f20;stroke-width:0.73699999;stroke-linecap:butt;stroke-linejoin:miter;stroke-miterlimit:1;stroke-dasharray:none;stroke-opacity:1"
             d="M 0,0 V -68.286" /></g></g></g><path
       id="path210"
       style="fill:#231f20;fill-opacity:1;fill-rule:nonzero;stroke:none"
       d="m 152.362,67.895 h 1.123 v 4.5523 h -1.123 z" /><path
       id="path212"
       style="fill:#231f20;fill-opacity:1;fill-rule:nonzero;stroke:none"
       d="m 152.362,59.928 h 1.123 v 4.5527 h -1.123 z" /><g
       transform="translate(153.485,56.514)"
       id="g214"><path
         id="path216"
         style="fill:#231f20;fill-opacity:1;fill-rule:nonzero;stroke:none"
         d="m 0,0 h -1.123 v -2.276 l 0.374,-0.38 v -0.379 h 2.247 v 1.138 h -2.247 l 0.375,-0.379 -0.375,0.379 V -2.276 H 0 L 0,0" /></g><path
       id="path218"
       style="fill:#231f20;fill-opacity:1;fill-rule:nonzero;stroke:none"
       d="m 158.352,53.479 h 4.4922 v 1.1382 h -4.4922 z" /><g
       transform="translate(166.214,54.617)"
       id="g220"><path
         id="path222"
         style="fill:#231f20;fill-opacity:1;fill-rule:nonzero;stroke:none"
         d="m 0,0 v -1.138 l 1.498,-0.379 v 0.758 H 1.124 l 0.374,-0.379 -0.374,0.379 v -3.034 h 1.123 v 3.034 H 1.872 L 1.498,-0.379 0,0" /></g><path
       id="path224"
       style="fill:#231f20;fill-opacity:1;fill-rule:nonzero;stroke:none"
       d="m 167.337,42.857 h 1.123 v 4.5522 h -1.123 z" /><g
       transform="translate(168.46,39.443)"
       id="g226"><path
         id="path228"
         style="fill:#231f20;fill-opacity:1;fill-rule:nonzero;stroke:none"
         d="m 0,0 h -1.123 v -0.759 l 0.374,-0.379 v -0.38 h 3.744 v 1.139 h -3.744 l 0.375,-0.38 -0.375,0.38 v -0.38 H 0 L 0,0" /></g><path
       id="path230"
       style="fill:#231f20;fill-opacity:1;fill-rule:nonzero;stroke:none"
       d="m 174.825,37.925 h 4.4922 v 1.1382 h -4.4922 z" /><g
       transform="translate(182.686,39.063)"
       id="g232"><path
         id="path234"
         style="fill:#231f20;fill-opacity:1;fill-rule:nonzero;stroke:none"
         d="m 0,0 v -1.138 h 2.246 v 0.759 H 1.872 l 0.374,-0.38 -0.374,0.38 -0.374,-2.277 h 1.123 l 0.374,2.277 H 2.621 L 2.246,0 H 0" /></g><path
       id="path236"
       style="fill:#231f20;fill-opacity:1;fill-rule:nonzero;stroke:none"
       d="m 184.184,28.441 h 1.123 v 4.5528 h -1.123 z" /><path
       id="path238"
       style="fill:#231f20;fill-opacity:1;fill-rule:nonzero;stroke:none"
       d="m 184.933,24.647 h 4.4922 v 1.1382 h -4.4922 z" /><path
       id="path240"
       style="fill:#231f20;fill-opacity:1;fill-rule:nonzero;stroke:none"
       d="m 192.794,24.647 h 4.4922 v 1.1382 h -4.4922 z" /><path
       id="path242"
       style="fill:#231f20;fill-opacity:1;fill-rule:nonzero;stroke:none"
       d="m 200.656,24.647 h 4.4922 v 1.1382 h -4.4922 z" /><g
       transform="translate(153.485,73.965)"
       id="g244"><path
         id="path246"
         style="fill:none;stroke:#231f20;stroke-width:0.73699999;stroke-linecap:butt;stroke-linejoin:miter;stroke-miterlimit:1;stroke-dasharray:none;stroke-opacity:1"
         d="M 0,0 22.462,23.141" /><g
         transform="translate(55.033,-45.903)"
         id="g248"><path
           id="path250"
           style="fill:none;stroke:#231f20;stroke-width:0.73699999;stroke-linecap:butt;stroke-linejoin:miter;stroke-miterlimit:1;stroke-dasharray:none;stroke-opacity:1"
           d="M 0,0 22.836,23.141" /></g></g><g
       transform="translate(207.02,39.443)"
       id="g252"><path
         id="path254"
         style="fill:#4e5557;fill-opacity:1;fill-rule:nonzero;stroke:none"
         d="M 0,0 H -20.59 L 2.995,23.899 h 20.59 L 0,0" /></g><g
       transform="translate(207.02,26.924)"
       id="g256"><path
         id="path258"
         style="fill:#697074;fill-opacity:1;fill-rule:nonzero;stroke:none"
         d="M 0,0 V 12.519 L 23.585,36.418 V 23.521 L 0,0" /></g><path
       id="path260"
       style="fill:#c2c7cd;fill-opacity:1;fill-rule:nonzero;stroke:none"
       d="m 186.43,26.924 h 20.59 v 12.519 h -20.59 z" /><g
       transform="translate(207.02,39.443)"
       id="g262"><path
         id="path264"
         style="fill:none;stroke:#899096;stroke-width:0.24600001;stroke-linecap:butt;stroke-linejoin:miter;stroke-miterlimit:1;stroke-dasharray:none;stroke-opacity:1"
         d="M 0,0 H -20.59" /></g><g
       transform="translate(186.43,39.443)"
       id="g266"><path
         id="path268"
         style="fill:none;stroke:#9aa1a8;stroke-width:0.24600001;stroke-linecap:butt;stroke-linejoin:miter;stroke-miterlimit:1;stroke-dasharray:none;stroke-opacity:1"
         d="M 0,0 V -12.519" /></g><g
       transform="translate(186.43,26.924)"
       id="g270"><path
         id="path272"
         style="fill:none;stroke:#899096;stroke-width:0.24600001;stroke-linecap:butt;stroke-linejoin:miter;stroke-miterlimit:1;stroke-dasharray:none;stroke-opacity:1"
         d="M 0,0 H 20.59" /></g><g
       transform="translate(207.02,26.924)"
       id="g274"><path
         id="path276"
         style="fill:none;stroke:#a6acb4;stroke-width:0.24600001;stroke-linecap:butt;stroke-linejoin:miter;stroke-miterlimit:1;stroke-dasharray:none;stroke-opacity:1"
         d="M 0,0 V 12.519" /></g><g
       transform="translate(207.02,54.997)"
       id="g278"><path
         id="path280"
         style="fill:#72797e;fill-opacity:1;fill-rule:nonzero;stroke:none"
         d="m 0,0 h -38.56 l 23.585,23.9 h 38.56 L 0,0" /></g><g
       transform="translate(207.02,39.822)"
       id="g282"><path
         id="path284"
         style="fill:#9aa1a8;fill-opacity:1;fill-rule:nonzero;stroke:none"
         d="m 0,0 v 15.174 l 23.585,23.9 V 23.9 L 0,0" /></g><path
       id="path286"
       style="fill:#8a9298;fill-opacity:1;fill-rule:nonzero;stroke:none"
       d="m 168.46,39.822 h 38.56 v 15.174 h -38.56 z" /><g
       transform="translate(207.02,54.997)"
       id="g288"><path
         id="path290"
         style="fill:none;stroke:#565e60;stroke-width:0.24600001;stroke-linecap:butt;stroke-linejoin:miter;stroke-miterlimit:1;stroke-dasharray:none;stroke-opacity:1"
         d="M 0,0 H -38.56" /></g><g
       transform="translate(168.46,54.997)"
       id="g292"><path
         id="path294"
         style="fill:none;stroke:#777f84;stroke-width:0.24600001;stroke-linecap:butt;stroke-linejoin:miter;stroke-miterlimit:1;stroke-dasharray:none;stroke-opacity:1"
         d="M 0,0 V -15.174" /></g><g
       transform="translate(168.46,39.822)"
       id="g296"><path
         id="path298"
         style="fill:none;stroke:#565e60;stroke-width:0.24600001;stroke-linecap:butt;stroke-linejoin:miter;stroke-miterlimit:1;stroke-dasharray:none;stroke-opacity:1"
         d="M 0,0 H 38.56" /></g><g
       transform="translate(207.02,39.822)"
       id="g300"><path
         id="path302"
         style="fill:none;stroke:#ffffff;stroke-width:0.24600001;stroke-linecap:butt;stroke-linejoin:miter;stroke-miterlimit:1;stroke-dasharray:none;stroke-opacity:1"
         d="M 0,0 V 15.174" /></g><g
       transform="translate(207.02,73.206)"
       id="g304"><path
         id="path306"
         style="fill:#9ca3aa;fill-opacity:1;fill-rule:nonzero;stroke:none"
         d="M 0,0 H -53.535 L -29.95,23.9 H 23.585 L 0,0" /></g><g
       transform="translate(207.02,54.997)"
       id="g308"><path
         id="path310"
         style="fill:#dee0e4;fill-opacity:1;fill-rule:nonzero;stroke:none"
         d="M 0,0 V 18.21 L 23.585,42.109 V 23.9 L 0,0" /></g><path
       id="path312"
       style="fill:#c2c7cd;fill-opacity:1;fill-rule:nonzero;stroke:none"
       d="m 153.485,54.997 h 53.535 v 18.21 h -53.535 z" /><g
       transform="translate(207.02,73.206)"
       id="g314"><path
         id="path316"
         style="fill:none;stroke:#b7bcc3;stroke-width:0.24600001;stroke-linecap:butt;stroke-linejoin:miter;stroke-miterlimit:1;stroke-dasharray:none;stroke-opacity:1"
         d="M 0,0 H -53.535" /></g><g
       transform="translate(153.485,73.206)"
       id="g318"><path
         id="path320"
         style="fill:none;stroke:#d2d5db;stroke-width:0.24600001;stroke-linecap:butt;stroke-linejoin:miter;stroke-miterlimit:1;stroke-dasharray:none;stroke-opacity:1"
         d="M 0,0 V -18.21" /></g><g
       transform="translate(153.485,54.997)"
       id="g322"><path
         id="path324"
         style="fill:none;stroke:#b7bcc3;stroke-width:0.24600001;stroke-linecap:butt;stroke-linejoin:miter;stroke-miterlimit:1;stroke-dasharray:none;stroke-opacity:1"
         d="M 0,0 H 53.535" /></g><g
       transform="translate(207.02,54.997)"
       id="g326"><path
         id="path328"
         style="fill:none;stroke:#e7e8eb;stroke-width:0.24600001;stroke-linecap:butt;stroke-linejoin:miter;stroke-miterlimit:1;stroke-dasharray:none;stroke-opacity:1"
         d="M 0,0 V 18.21" /></g><text
       id="text344"
       style="font-variant:normal;font-weight:normal;font-stretch:normal;font-size:10px;font-family:Helvetica;-inkscape-font-specification:Helvetica;writing-mode:lr-tb;fill:#231f20;fill-opacity:1;fill-rule:nonzero;stroke:none"
       transform="matrix(0.98684,0,0,-1,77.4012,112.6597)"><tspan
         id="tspan330"
         y="0"
         x="0 9.4399996 16.110001">WS</tspan><tspan
         id="tspan332"
         y="12"
         x="2.4949999 8.0550003">#1</tspan><tspan
         id="tspan334"
         y="0"
         x="-20.231001 -10.791 -4.1209998">WS</tspan><tspan
         id="tspan336"
         y="12"
         x="-17.736 -12.176">#2</tspan><tspan
         id="tspan338"
         y="0"
         x="-39.834 -30.393999 -23.724001">WS</tspan><tspan
         id="tspan340"
         y="12"
         x="-37.339001 -31.778999">#3</tspan><tspan
         id="tspan342"
         y="26.934999"
         x="164.797 174.237 180.907 183.687 189.24699">WS #1</tspan></text>
<text
       id="text348"
       style="font-variant:normal;font-weight:normal;font-stretch:normal;font-size:10px;font-family:Helvetica;-inkscape-font-specification:Helvetica;writing-mode:lr-tb;fill:#231f20;fill-opacity:1;fill-rule:nonzero;stroke:none"
       transform="matrix(0.98684,0,0,-1,269.6442,85.7251)"><tspan
         id="tspan346"
         y="0"
         x="0"></tspan></text>
<text
       id="text352"
       style="font-variant:normal;font-weight:normal;font-stretch:normal;font-size:10px;font-family:Helvetica;-inkscape-font-specification:Helvetica;writing-mode:lr-tb;fill:#231f20;fill-opacity:1;fill-rule:nonzero;stroke:none"
       transform="matrix(0.98684,0,0,-1,240.0295,69.0327)"><tspan
         id="tspan350"
         y="0"
         x="0 9.4399996 16.110001 18.889999 24.450001">WS #2</tspan></text>
<text
       id="text356"
       style="font-variant:normal;font-weight:normal;font-stretch:normal;font-size:10px;font-family:Helvetica;-inkscape-font-specification:Helvetica;writing-mode:lr-tb;fill:#231f20;fill-opacity:1;fill-rule:nonzero;stroke:none"
       transform="matrix(0.98684,0,0,-1,269.6442,69.0327)"><tspan
         id="tspan354"
         y="0"
         x="0"></tspan></text>
<text
       id="text360"
       style="font-variant:normal;font-weight:normal;font-stretch:normal;font-size:10px;font-family:Helvetica;-inkscape-font-specification:Helvetica;writing-mode:lr-tb;fill:#231f20;fill-opacity:1;fill-rule:nonzero;stroke:none"
       transform="matrix(0.98684,0,0,-1,240.0295,52.3409)"><tspan
         id="tspan358"
         y="0"
         x="0 9.4399996 16.110001 18.889999 24.450001">WS #3</tspan></text>
<text
       id="text364"
       style="font-variant:normal;font-weight:normal;font-stretch:normal;font-size:10px;font-family:Helvetica;-inkscape-font-specification:Helvetica;writing-mode:lr-tb;fill:#231f20;fill-opacity:1;fill-rule:nonzero;stroke:none"
       transform="matrix(0.98684,0,0,-1,269.6442,52.3409)"><tspan
         id="tspan362"
         y="0"
         x="0"></tspan></text>
</g></svg>