<?xml version="1.0" encoding="UTF-8" standalone="no"?>
<svg
   xmlns:dc="http://purl.org/dc/elements/1.1/"
   xmlns:cc="http://creativecommons.org/ns#"
   xmlns:rdf="http://www.w3.org/1999/02/22-rdf-syntax-ns#"
   xmlns:svg="http://www.w3.org/2000/svg"
   xmlns="http://www.w3.org/2000/svg"
   xmlns:sodipodi="http://sodipodi.sourceforge.net/DTD/sodipodi-0.dtd"
   xmlns:inkscape="http://www.inkscape.org/namespaces/inkscape"
   inkscape:version="1.0beta2 (f3d5b5a, 2020-03-13)"
   sodipodi:docname="inprocess_final.svg"
   version="1.1"
   id="svg2"
   xml:space="preserve"
   width="481.16266"
   height="180.52"
   viewBox="0 0 481.16266 180.52"><sodipodi:namedview
     inkscape:current-layer="svg2"
     inkscape:cy="90.260002"
     inkscape:cx="240.58133"
     inkscape:zoom="2.4212186"
     showgrid="false"
     id="namedview6666"
     inkscape:window-height="480"
     inkscape:window-width="640"
     inkscape:pageshadow="2"
     inkscape:pageopacity="0"
     guidetolerance="10"
     gridtolerance="10"
     objecttolerance="10"
     borderopacity="1"
     bordercolor="#666666"
     pagecolor="#ffffff" /><metadata
     id="metadata8"><rdf:RDF><cc:Work
         rdf:about=""><dc:format>image/svg+xml</dc:format><dc:type
           rdf:resource="http://purl.org/dc/dcmitype/StillImage" /></cc:Work></rdf:RDF></metadata><defs
     id="defs6"><marker
   inkscape:isstock="true"
   style="overflow:visible"
   id="marker7196"
   refX="0"
   refY="0"
   orient="auto"
   inkscape:stockid="Arrow1Mend"><path
     transform="matrix(-0.4,0,0,-0.4,-4,0)"
     style="fill:#000000;fill-opacity:1;fill-rule:evenodd;stroke:#000000;stroke-width:1pt;stroke-opacity:1"
     d="M 0,0 5,-5 -12.5,0 5,5 Z"
     id="path7194"
     inkscape:connector-curvature="0" /></marker><marker
   inkscape:isstock="true"
   style="overflow:visible;"
   id="Arrow1Mend"
   refX="0.0"
   refY="0.0"
   orient="auto"
   inkscape:stockid="Arrow1Mend"><path
     transform="scale(0.4) rotate(180) translate(10,0)"
     style="fill-rule:evenodd;stroke:#000000;stroke-width:1pt;stroke-opacity:1;fill:#000000;fill-opacity:1"
     d="M 0.0,0.0 L 5.0,-5.0 L -12.5,0.0 L 5.0,5.0 L 0.0,0.0 z "
     id="path919" /></marker>
<marker
   inkscape:collect="always"
   inkscape:stockid="Arrow1Mend"
   orient="auto"
   refY="0"
   refX="0"
   id="Arrow1Mend-2"
   style="overflow:visible"
   inkscape:isstock="true"><path
     inkscape:connector-curvature="0"
     id="path919-3"
     d="M 0,0 5,-5 -12.5,0 5,5 Z"
     style="fill:#000000;fill-opacity:1;fill-rule:evenodd;stroke:#000000;stroke-width:1pt;stroke-opacity:1"
     transform="matrix(-0.4,0,0,-0.4,-4,0)" /></marker></defs><path
     inkscape:connector-curvature="0"
     d="M 61.405332,107.25334 18.52,150.70401 V 180.008 h 184.508 l 42.88666,-43.44933 V 107.25334 H 61.405332"
     style="fill:#737b80;fill-opacity:1;fill-rule:nonzero;stroke:none;stroke-width:1.33333"
     id="path14" /><path
     inkscape:connector-curvature="0"
     d="M 61.405332,107.25334 18.52,150.70401 V 180.008 h 184.508 l 42.88666,-43.44933 v -29.30533 z"
     style="fill:none;stroke:#737b80;stroke-width:1.024;stroke-linecap:butt;stroke-linejoin:miter;stroke-miterlimit:1;stroke-dasharray:none;stroke-opacity:1"
     id="path18" /><path
     inkscape:connector-curvature="0"
     d="M 18.518666,150.704 H 203.02799 l 42.88534,-43.45067"
     style="fill:none;stroke:#737b80;stroke-width:1.024;stroke-linecap:butt;stroke-linejoin:miter;stroke-miterlimit:1;stroke-dasharray:none;stroke-opacity:1"
     id="path22" /><g
     id="g24"
     transform="matrix(1.3333333,0,0,-1.3333333,203.02799,150.704)"><path
       inkscape:connector-curvature="0"
       d="M 0,0 V -21.978"
       style="fill:none;stroke:#737b80;stroke-width:0.768;stroke-linecap:butt;stroke-linejoin:miter;stroke-miterlimit:1;stroke-dasharray:none;stroke-opacity:1"
       id="path26" /></g><path
     inkscape:connector-curvature="0"
     d="m 57.415999,103.212 -42.885332,43.45067 v 29.30399 H 199.03866 L 241.92533,132.516 V 103.212 H 57.415999"
     style="fill:#ffffff;fill-opacity:1;fill-rule:nonzero;stroke:none;stroke-width:1.33333"
     id="path30" /><path
     inkscape:connector-curvature="0"
     d="M 14.530666,146.66267 H 199.03866 L 241.92533,103.212 H 57.415998 l -42.885332,43.45067"
     style="fill:#ffffff;fill-opacity:1;fill-rule:nonzero;stroke:none;stroke-width:1.33333"
     id="path34" /><path
     inkscape:connector-curvature="0"
     d="M 199.03866,146.66267 241.92533,103.212 v 29.304 l -42.88667,43.45067 v -29.304"
     style="fill:#caced4;fill-opacity:1;fill-rule:nonzero;stroke:none;stroke-width:1.33333"
     id="path38" /><path
     inkscape:connector-curvature="0"
     d="m 57.415999,103.212 -42.885332,43.45067 v 29.30399 H 199.03866 L 241.92533,132.516 v -29.304 z"
     style="fill:none;stroke:#231f20;stroke-width:1.024;stroke-linecap:butt;stroke-linejoin:miter;stroke-miterlimit:1;stroke-dasharray:none;stroke-opacity:1"
     id="path42" /><g
     id="g44"
     transform="matrix(1.3333333,0,0,-1.3333333,14.530667,146.66267)"><path
       inkscape:connector-curvature="0"
       d="m 0,0 h 138.381 l 32.165,32.588"
       style="fill:none;stroke:#231f20;stroke-width:0.768;stroke-linecap:butt;stroke-linejoin:miter;stroke-miterlimit:1;stroke-dasharray:none;stroke-opacity:1"
       id="path46" /><g
       id="g48"
       transform="translate(138.381)"><path
         inkscape:connector-curvature="0"
         d="M 0,0 V -21.978"
         style="fill:none;stroke:#231f20;stroke-width:0.768;stroke-linecap:butt;stroke-linejoin:miter;stroke-miterlimit:1;stroke-dasharray:none;stroke-opacity:1"
         id="path50" /></g></g><path
     inkscape:connector-curvature="0"
     d="m 141.19333,119.37867 h -3.49067 l -2.992,1.01067 -2.49333,1.51466 -1.99467,1.516 -0.49866,1.516 0.99733,1.516 1.99467,1.01067 h 69.81466 l 3.49067,-1.01067 2.49333,-1.516 1.49467,-1.516 0.49866,-1.516 -0.49866,-1.51466 -1.99334,-1.01067 h -66.82266"
     style="fill:#a2a8b0;fill-opacity:1;fill-rule:nonzero;stroke:none;stroke-width:1.33333"
     id="path54" /><path
     inkscape:connector-curvature="0"
     d="m 141.19333,119.37867 h -3.49067"
     style="fill:none;stroke:#5d6467;stroke-width:0.341333;stroke-linecap:butt;stroke-linejoin:miter;stroke-miterlimit:1;stroke-dasharray:none;stroke-opacity:1"
     id="path58" /><path
     inkscape:connector-curvature="0"
     d="m 137.70133,119.37867 -2.992,1.01067"
     style="fill:none;stroke:#666e71;stroke-width:0.341333;stroke-linecap:butt;stroke-linejoin:miter;stroke-miterlimit:1;stroke-dasharray:none;stroke-opacity:1"
     id="path62" /><path
     inkscape:connector-curvature="0"
     d="m 134.70933,120.38933 -2.49333,1.516"
     style="fill:none;stroke:#6d7478;stroke-width:0.341333;stroke-linecap:butt;stroke-linejoin:miter;stroke-miterlimit:1;stroke-dasharray:none;stroke-opacity:1"
     id="path66" /><path
     inkscape:connector-curvature="0"
     d="m 132.21733,121.90533 -1.99467,1.516"
     style="fill:none;stroke:#72797e;stroke-width:0.341333;stroke-linecap:butt;stroke-linejoin:miter;stroke-miterlimit:1;stroke-dasharray:none;stroke-opacity:1"
     id="path70" /><path
     inkscape:connector-curvature="0"
     d="m 130.22266,123.42133 -0.49867,1.516"
     style="fill:none;stroke:#737b80;stroke-width:0.341333;stroke-linecap:butt;stroke-linejoin:miter;stroke-miterlimit:1;stroke-dasharray:none;stroke-opacity:1"
     id="path74" /><path
     inkscape:connector-curvature="0"
     d="m 129.724,124.936 0.99733,1.516"
     style="fill:none;stroke:#72797e;stroke-width:0.341333;stroke-linecap:butt;stroke-linejoin:miter;stroke-miterlimit:1;stroke-dasharray:none;stroke-opacity:1"
     id="path78" /><path
     inkscape:connector-curvature="0"
     d="m 130.72,126.452 1.99467,1.01067"
     style="fill:none;stroke:#6d7478;stroke-width:0.341333;stroke-linecap:butt;stroke-linejoin:miter;stroke-miterlimit:1;stroke-dasharray:none;stroke-opacity:1"
     id="path82" /><path
     inkscape:connector-curvature="0"
     d="m 132.716,127.464 h 2.992"
     style="fill:none;stroke:#676f72;stroke-width:0.341333;stroke-linecap:butt;stroke-linejoin:miter;stroke-miterlimit:1;stroke-dasharray:none;stroke-opacity:1"
     id="path86" /><path
     inkscape:connector-curvature="0"
     d="m 135.70666,127.464 h 63.83067"
     style="fill:none;stroke:#6c7378;stroke-width:0.341333;stroke-linecap:butt;stroke-linejoin:miter;stroke-miterlimit:1;stroke-dasharray:none;stroke-opacity:1"
     id="path90" /><path
     inkscape:connector-curvature="0"
     d="m 199.53733,127.464 h 2.992"
     style="fill:none;stroke:#72797e;stroke-width:0.341333;stroke-linecap:butt;stroke-linejoin:miter;stroke-miterlimit:1;stroke-dasharray:none;stroke-opacity:1"
     id="path94" /><path
     inkscape:connector-curvature="0"
     d="M 202.52933,127.464 206.02,126.45333"
     style="fill:none;stroke:#e0e2e6;stroke-width:0.341333;stroke-linecap:butt;stroke-linejoin:miter;stroke-miterlimit:1;stroke-dasharray:none;stroke-opacity:1"
     id="path98" /><path
     inkscape:connector-curvature="0"
     d="m 206.01999,126.452 2.49333,-1.516"
     style="fill:none;stroke:#989fa6;stroke-width:0.341333;stroke-linecap:butt;stroke-linejoin:miter;stroke-miterlimit:1;stroke-dasharray:none;stroke-opacity:1"
     id="path102" /><path
     inkscape:connector-curvature="0"
     d="M 208.51333,124.936 210.008,123.42"
     style="fill:none;stroke:#777f83;stroke-width:0.341333;stroke-linecap:butt;stroke-linejoin:miter;stroke-miterlimit:1;stroke-dasharray:none;stroke-opacity:1"
     id="path106" /><path
     inkscape:connector-curvature="0"
     d="m 210.00933,123.42133 0.49867,-1.516"
     style="fill:none;stroke:#72797e;stroke-width:0.341333;stroke-linecap:butt;stroke-linejoin:miter;stroke-miterlimit:1;stroke-dasharray:none;stroke-opacity:1"
     id="path110" /><path
     inkscape:connector-curvature="0"
     d="m 210.50799,121.90533 -0.49867,-1.516"
     style="fill:none;stroke:#697175;stroke-width:0.341333;stroke-linecap:butt;stroke-linejoin:miter;stroke-miterlimit:1;stroke-dasharray:none;stroke-opacity:1"
     id="path114" /><path
     inkscape:connector-curvature="0"
     d="m 210.00933,120.38933 -1.99467,-1.01067"
     style="fill:none;stroke:#60676a;stroke-width:0.341333;stroke-linecap:butt;stroke-linejoin:miter;stroke-miterlimit:1;stroke-dasharray:none;stroke-opacity:1"
     id="path118" /><path
     inkscape:connector-curvature="0"
     d="m 208.01466,119.37867 h -2.992"
     style="fill:none;stroke:#555d5f;stroke-width:0.341333;stroke-linecap:butt;stroke-linejoin:miter;stroke-miterlimit:1;stroke-dasharray:none;stroke-opacity:1"
     id="path122" /><path
     inkscape:connector-curvature="0"
     d="M 205.02266,119.37867 H 141.19199"
     style="fill:none;stroke:#575f61;stroke-width:0.341333;stroke-linecap:butt;stroke-linejoin:miter;stroke-miterlimit:1;stroke-dasharray:none;stroke-opacity:1"
     id="path126" /><path
     inkscape:connector-curvature="0"
     d="m 157.64933,147.168 0.99733,1.01067 3.98934,-4.04267 -0.99734,-1.01067 -3.98933,4.04267"
     style="fill:#231f20;fill-opacity:1;fill-rule:nonzero;stroke:none;stroke-width:1.33333"
     id="path130" /><path
     inkscape:connector-curvature="0"
     d="m 165.12933,139.58933 0.99733,1.01067 3.98934,-4.04134 -0.99734,-1.012 -3.98933,4.04267"
     style="fill:#231f20;fill-opacity:1;fill-rule:nonzero;stroke:none;stroke-width:1.33333"
     id="path134" /><path
     inkscape:connector-curvature="0"
     d="m 172.60933,132.01067 0.99733,1.01067 3.98934,-4.04134 -0.99734,-1.01066 -3.98933,4.04133"
     style="fill:#231f20;fill-opacity:1;fill-rule:nonzero;stroke:none;stroke-width:1.33333"
     id="path138" /><path
     inkscape:connector-curvature="0"
     d="m 180.08933,124.432 0.99733,1.01067 3.98934,-4.04267 -0.99734,-1.00933 -3.98933,4.04133"
     style="fill:#231f20;fill-opacity:1;fill-rule:nonzero;stroke:none;stroke-width:1.33333"
     id="path142" /><path
     inkscape:connector-curvature="0"
     d="m 187.07066,117.35733 0.99733,1.01067 4.488,-4.54667 -0.99733,-1.01067 -4.488,4.54667"
     style="fill:#231f20;fill-opacity:1;fill-rule:nonzero;stroke:none;stroke-width:1.33333"
     id="path146" /><path
     inkscape:connector-curvature="0"
     d="m 194.55066,109.78 0.99733,1.01067 4.488,-4.548 -0.99733,-1.01067 -4.488,4.548"
     style="fill:#231f20;fill-opacity:1;fill-rule:nonzero;stroke:none;stroke-width:1.33333"
     id="path150" /><path
     id="path152"
     style="fill:#c2c7cd;fill-opacity:1;fill-rule:nonzero;stroke:none;stroke-width:1.33333"
     d="m 158.148,159.29333 h 39.89333 v -12.1256 H 158.148 Z"
     inkscape:connector-curvature="0" /><path
     inkscape:connector-curvature="0"
     d="m 158.148,147.168 v 12.12533"
     style="fill:none;stroke:#d2d5db;stroke-width:0.341333;stroke-linecap:butt;stroke-linejoin:miter;stroke-miterlimit:1;stroke-dasharray:none;stroke-opacity:1"
     id="path156" /><path
     inkscape:connector-curvature="0"
     d="m 158.148,159.29333 h 39.89333"
     style="fill:none;stroke:#b7bcc3;stroke-width:0.341333;stroke-linecap:butt;stroke-linejoin:miter;stroke-miterlimit:1;stroke-dasharray:none;stroke-opacity:1"
     id="path160" /><path
     inkscape:connector-curvature="0"
     d="M 198.04133,159.29333 V 147.168"
     style="fill:none;stroke:#e7e8eb;stroke-width:0.341333;stroke-linecap:butt;stroke-linejoin:miter;stroke-miterlimit:1;stroke-dasharray:none;stroke-opacity:1"
     id="path164" /><path
     inkscape:connector-curvature="0"
     d="M 198.04133,147.168 H 158.148"
     style="fill:none;stroke:#b7bcc3;stroke-width:0.341333;stroke-linecap:butt;stroke-linejoin:miter;stroke-miterlimit:1;stroke-dasharray:none;stroke-opacity:1"
     id="path168" /><path
     inkscape:connector-curvature="0"
     d="m 199.03866,159.29333 0.99733,1.01067 3.98934,-4.04134 -0.99734,-1.012 -3.98933,4.04267"
     style="fill:#231f20;fill-opacity:1;fill-rule:nonzero;stroke:none;stroke-width:1.33333"
     id="path172" /><path
     inkscape:connector-curvature="0"
     d="m 206.51866,151.71467 0.99733,1.01067 3.98934,-4.04134 -0.99734,-1.01066 -3.98933,4.04133"
     style="fill:#231f20;fill-opacity:1;fill-rule:nonzero;stroke:none;stroke-width:1.33333"
     id="path176" /><path
     inkscape:connector-curvature="0"
     d="m 213.99866,144.136 0.99733,1.01067 3.98934,-4.04134 -0.99734,-1.01066 -3.98933,4.04133"
     style="fill:#231f20;fill-opacity:1;fill-rule:nonzero;stroke:none;stroke-width:1.33333"
     id="path180" /><path
     inkscape:connector-curvature="0"
     d="m 221.47866,136.55733 0.996,1.01067 3.99067,-4.04267 -0.99734,-1.01067 -3.98933,4.04267"
     style="fill:#231f20;fill-opacity:1;fill-rule:nonzero;stroke:none;stroke-width:1.33333"
     id="path184" /><path
     inkscape:connector-curvature="0"
     d="m 228.45999,129.484 0.99733,1.01067 4.488,-4.548 -0.99733,-1.01067 -4.488,4.548"
     style="fill:#231f20;fill-opacity:1;fill-rule:nonzero;stroke:none;stroke-width:1.33333"
     id="path188" /><path
     inkscape:connector-curvature="0"
     d="m 235.93999,121.90533 0.99733,1.01067 4.488,-4.54667 -0.99733,-1.012 -4.488,4.548"
     style="fill:#231f20;fill-opacity:1;fill-rule:nonzero;stroke:none;stroke-width:1.33333"
     id="path192" /><path
     inkscape:connector-curvature="0"
     d="m 129.724,56.224003 0.99733,1.516 0.99734,12.630666 -0.99734,-1.514666 -0.99733,-12.632"
     style="fill:#697175;fill-opacity:1;fill-rule:nonzero;stroke:none;stroke-width:1.33333"
     id="path196" /><path
     inkscape:connector-curvature="0"
     d="m 130.72,57.73867 1.99467,1.010667 0.99733,12.125333 -1.99467,-0.504 -0.99733,-12.632"
     style="fill:#656d70;fill-opacity:1;fill-rule:nonzero;stroke:none;stroke-width:1.33333"
     id="path200" /><path
     inkscape:connector-curvature="0"
     d="m 130.72,57.73867 0.99733,0.505333 0.99734,12.126667 h -0.99734 L 130.72,57.73867"
     style="fill:#656d70;fill-opacity:1;fill-rule:nonzero;stroke:none;stroke-width:1.33333"
     id="path204" /><path
     inkscape:connector-curvature="0"
     d="m 131.71866,58.244003 0.99733,0.505333 0.99734,12.126667 -0.99734,-0.505334 -0.99733,-12.126666"
     style="fill:#61696c;fill-opacity:1;fill-rule:nonzero;stroke:none;stroke-width:1.33333"
     id="path208" /><path
     inkscape:connector-curvature="0"
     d="m 132.716,58.75067 h 2.992 l 0.49867,12.630666 -2.49334,-0.505333 L 132.716,58.75067"
     style="fill:#5e6568;fill-opacity:1;fill-rule:nonzero;stroke:none;stroke-width:1.33333"
     id="path212" /><path
     inkscape:connector-curvature="0"
     d="m 135.70666,58.75067 h 63.83067 l 0.49866,12.630666 H 136.20533 L 135.70666,58.75067"
     style="fill:#5e6568;fill-opacity:1;fill-rule:nonzero;stroke:none;stroke-width:1.33333"
     id="path216" /><path
     inkscape:connector-curvature="0"
     d="m 199.53733,58.75067 h 2.992 l 0.99733,12.125333 -3.49066,0.505333 -0.49867,-12.630666"
     style="fill:#5e6568;fill-opacity:1;fill-rule:nonzero;stroke:none;stroke-width:1.33333"
     id="path220" /><path
     inkscape:connector-curvature="0"
     d="m 199.53733,58.75067 h 0.49867 l 0.99733,12.630666 H 200.036 L 199.53733,58.75067"
     style="fill:#5e6568;fill-opacity:1;fill-rule:nonzero;stroke:none;stroke-width:1.33333"
     id="path224" /><path
     inkscape:connector-curvature="0"
     d="m 200.03599,58.75067 h 0.99733 l 0.99734,12.630666 h -0.99734 L 200.03599,58.75067"
     style="fill:#676f72;fill-opacity:1;fill-rule:nonzero;stroke:none;stroke-width:1.33333"
     id="path228" /><path
     inkscape:connector-curvature="0"
     d="m 201.03333,58.75067 h 0.99733 l 0.49867,12.125333 -0.49867,0.505333 -0.99733,-12.630666"
     style="fill:#70787c;fill-opacity:1;fill-rule:nonzero;stroke:none;stroke-width:1.33333"
     id="path232" /><path
     inkscape:connector-curvature="0"
     d="m 202.03066,58.75067 h 0.49867 l 0.99733,12.125333 h -0.99733 L 202.03066,58.75067"
     style="fill:#798085;fill-opacity:1;fill-rule:nonzero;stroke:none;stroke-width:1.33333"
     id="path236" /><path
     inkscape:connector-curvature="0"
     d="m 202.52933,58.75067 3.49067,-1.010667 0.49866,12.630667 -2.992,0.505333 -0.99733,-12.125333"
     style="fill:#82898f;fill-opacity:1;fill-rule:nonzero;stroke:none;stroke-width:1.33333"
     id="path240" /><path
     inkscape:connector-curvature="0"
     d="m 202.52933,58.75067 0.99733,-0.505333 0.99734,12.630666 h -0.99734 L 202.52933,58.75067"
     style="fill:#82898f;fill-opacity:1;fill-rule:nonzero;stroke:none;stroke-width:1.33333"
     id="path244" /><path
     inkscape:connector-curvature="0"
     d="m 203.52666,58.244003 h 0.99733 l 0.49867,12.126666 -0.49867,0.505334 -0.99733,-12.632"
     style="fill:#959ca2;fill-opacity:1;fill-rule:nonzero;stroke:none;stroke-width:1.33333"
     id="path248" /><path
     inkscape:connector-curvature="0"
     d="m 204.52399,58.244003 0.49867,-0.505333 0.99733,12.631999 h -0.99733 l -0.49867,-12.126666"
     style="fill:#a8aeb5;fill-opacity:1;fill-rule:nonzero;stroke:none;stroke-width:1.33333"
     id="path252" /><path
     inkscape:connector-curvature="0"
     d="m 205.02266,57.73867 h 0.99733 l 0.49867,12.632 h -0.49867 l -0.99733,-12.632"
     style="fill:#bcc0c7;fill-opacity:1;fill-rule:nonzero;stroke:none;stroke-width:1.33333"
     id="path256" /><path
     inkscape:connector-curvature="0"
     d="m 206.01999,57.73867 2.49333,-1.516 0.99734,12.632 -2.992,1.516 -0.49867,-12.632"
     style="fill:#d1d5da;fill-opacity:1;fill-rule:nonzero;stroke:none;stroke-width:1.33333"
     id="path260" /><path
     inkscape:connector-curvature="0"
     d="m 206.01999,57.73867 0.49867,-0.505333 0.99733,12.631999 -0.99733,0.505334 -0.49867,-12.632"
     style="fill:#d1d5da;fill-opacity:1;fill-rule:nonzero;stroke:none;stroke-width:1.33333"
     id="path264" /><path
     inkscape:connector-curvature="0"
     d="m 206.51866,57.23467 0.99733,-0.505333 0.99734,12.631999 -0.99734,0.505334 -0.99733,-12.632"
     style="fill:#aeb4bb;fill-opacity:1;fill-rule:nonzero;stroke:none;stroke-width:1.33333"
     id="path268" /><path
     inkscape:connector-curvature="0"
     d="m 207.51599,56.729336 0.99733,-0.505333 0.99734,12.631999 -0.99734,0.505334 -0.99733,-12.632"
     style="fill:#8f969d;fill-opacity:1;fill-rule:nonzero;stroke:none;stroke-width:1.33333"
     id="path272" /><path
     inkscape:connector-curvature="0"
     d="m 208.51333,56.224003 1.49467,-1.516 0.99866,12.630666 -1.49733,1.517334 -0.996,-12.632"
     style="fill:#6f777b;fill-opacity:1;fill-rule:nonzero;stroke:none;stroke-width:1.33333"
     id="path276" /><path
     inkscape:connector-curvature="0"
     d="m 208.51333,56.224003 0.996,-0.505333 0.49867,12.125333 -0.49867,1.012 -0.996,-12.632"
     style="fill:#6f777b;fill-opacity:1;fill-rule:nonzero;stroke:none;stroke-width:1.33333"
     id="path280" /><path
     inkscape:connector-curvature="0"
     d="m 209.51066,55.71867 0.49867,-1.010667 0.99733,12.630667 -0.99733,0.505333 -0.49867,-12.125333"
     style="fill:#6c7378;fill-opacity:1;fill-rule:nonzero;stroke:none;stroke-width:1.33333"
     id="path284" /><path
     inkscape:connector-curvature="0"
     d="m 210.00933,54.708003 0.49867,-1.516 0.99733,12.126666 -0.49867,2.02 -0.99733,-12.630666"
     style="fill:#697074;fill-opacity:1;fill-rule:nonzero;stroke:none;stroke-width:1.33333"
     id="path288" /><path
     inkscape:connector-curvature="0"
     d="m 141.19333,50.66667 h -3.49067 l -2.992,1.010667 -2.49333,1.516 -1.99467,1.514666 -0.49866,1.516 0.99733,1.516 1.99467,1.010667 h 69.81466 l 3.49067,-1.010667 2.49333,-1.516 1.49467,-1.516 0.49866,-1.514666 -0.49866,-1.516 -1.99334,-1.010667 h -66.82266"
     style="fill:#a2a8b0;fill-opacity:1;fill-rule:nonzero;stroke:none;stroke-width:1.33333"
     id="path292" /><path
     inkscape:connector-curvature="0"
     d="m 141.19333,50.66667 h -3.49067"
     style="fill:none;stroke:#777f84;stroke-width:0.341333;stroke-linecap:butt;stroke-linejoin:miter;stroke-miterlimit:1;stroke-dasharray:none;stroke-opacity:1"
     id="path296" /><path
     inkscape:connector-curvature="0"
     d="m 137.70133,50.66667 -2.992,1.010667"
     style="fill:none;stroke:#838b91;stroke-width:0.341333;stroke-linecap:butt;stroke-linejoin:miter;stroke-miterlimit:1;stroke-dasharray:none;stroke-opacity:1"
     id="path300" /><path
     inkscape:connector-curvature="0"
     d="m 134.70933,51.677337 -2.49333,1.516"
     style="fill:none;stroke:#8d959b;stroke-width:0.341333;stroke-linecap:butt;stroke-linejoin:miter;stroke-miterlimit:1;stroke-dasharray:none;stroke-opacity:1"
     id="path304" /><path
     inkscape:connector-curvature="0"
     d="m 132.21733,53.192003 -1.99467,1.516"
     style="fill:none;stroke:#949ba2;stroke-width:0.341333;stroke-linecap:butt;stroke-linejoin:miter;stroke-miterlimit:1;stroke-dasharray:none;stroke-opacity:1"
     id="path308" /><path
     inkscape:connector-curvature="0"
     d="m 130.22266,54.708003 -0.49867,1.516"
     style="fill:none;stroke:#979ea4;stroke-width:0.341333;stroke-linecap:butt;stroke-linejoin:miter;stroke-miterlimit:1;stroke-dasharray:none;stroke-opacity:1"
     id="path312" /><path
     inkscape:connector-curvature="0"
     d="m 129.724,56.224003 0.99733,1.516"
     style="fill:none;stroke:#949ba2;stroke-width:0.341333;stroke-linecap:butt;stroke-linejoin:miter;stroke-miterlimit:1;stroke-dasharray:none;stroke-opacity:1"
     id="path316" /><path
     inkscape:connector-curvature="0"
     d="m 130.72,57.73867 1.99467,1.010667"
     style="fill:none;stroke:#8d959b;stroke-width:0.341333;stroke-linecap:butt;stroke-linejoin:miter;stroke-miterlimit:1;stroke-dasharray:none;stroke-opacity:1"
     id="path320" /><path
     inkscape:connector-curvature="0"
     d="m 132.716,58.75067 h 2.992"
     style="fill:none;stroke:#868d93;stroke-width:0.341333;stroke-linecap:butt;stroke-linejoin:miter;stroke-miterlimit:1;stroke-dasharray:none;stroke-opacity:1"
     id="path324" /><path
     inkscape:connector-curvature="0"
     d="m 135.70666,58.75067 h 63.83067"
     style="fill:none;stroke:#8c939a;stroke-width:0.341333;stroke-linecap:butt;stroke-linejoin:miter;stroke-miterlimit:1;stroke-dasharray:none;stroke-opacity:1"
     id="path328" /><path
     inkscape:connector-curvature="0"
     d="m 199.53733,58.75067 h 2.992"
     style="fill:none;stroke:#949aa1;stroke-width:0.341333;stroke-linecap:butt;stroke-linejoin:miter;stroke-miterlimit:1;stroke-dasharray:none;stroke-opacity:1"
     id="path332" /><path
     inkscape:connector-curvature="0"
     d="M 202.52933,58.75067 206.02,57.740003"
     style="fill:none;stroke:#ffffff;stroke-width:0.341333;stroke-linecap:butt;stroke-linejoin:miter;stroke-miterlimit:1;stroke-dasharray:none;stroke-opacity:1"
     id="path336" /><path
     inkscape:connector-curvature="0"
     d="m 206.01999,57.73867 2.49333,-1.516"
     style="fill:none;stroke:#bec3c9;stroke-width:0.341333;stroke-linecap:butt;stroke-linejoin:miter;stroke-miterlimit:1;stroke-dasharray:none;stroke-opacity:1"
     id="path340" /><path
     inkscape:connector-curvature="0"
     d="m 208.51333,56.224003 1.49467,-1.516"
     style="fill:none;stroke:#9aa1a8;stroke-width:0.341333;stroke-linecap:butt;stroke-linejoin:miter;stroke-miterlimit:1;stroke-dasharray:none;stroke-opacity:1"
     id="path344" /><path
     inkscape:connector-curvature="0"
     d="m 210.00933,54.708003 0.49867,-1.516"
     style="fill:none;stroke:#949aa1;stroke-width:0.341333;stroke-linecap:butt;stroke-linejoin:miter;stroke-miterlimit:1;stroke-dasharray:none;stroke-opacity:1"
     id="path348" /><path
     inkscape:connector-curvature="0"
     d="m 210.50799,53.192003 -0.49867,-1.516"
     style="fill:none;stroke:#899096;stroke-width:0.341333;stroke-linecap:butt;stroke-linejoin:miter;stroke-miterlimit:1;stroke-dasharray:none;stroke-opacity:1"
     id="path352" /><path
     inkscape:connector-curvature="0"
     d="M 210.00933,51.677337 208.01466,50.66667"
     style="fill:none;stroke:#7c8489;stroke-width:0.341333;stroke-linecap:butt;stroke-linejoin:miter;stroke-miterlimit:1;stroke-dasharray:none;stroke-opacity:1"
     id="path356" /><path
     inkscape:connector-curvature="0"
     d="m 208.01466,50.66667 h -2.992"
     style="fill:none;stroke:#6e7679;stroke-width:0.341333;stroke-linecap:butt;stroke-linejoin:miter;stroke-miterlimit:1;stroke-dasharray:none;stroke-opacity:1"
     id="path360" /><path
     inkscape:connector-curvature="0"
     d="M 205.02266,50.66667 H 141.19199"
     style="fill:none;stroke:#72797e;stroke-width:0.341333;stroke-linecap:butt;stroke-linejoin:miter;stroke-miterlimit:1;stroke-dasharray:none;stroke-opacity:1"
     id="path364" /><path
     inkscape:connector-curvature="0"
     d="m 179.59066,14.793337 5.48533,-8.5893331 0.99734,12.1253331 -5.48534,8.589333 -0.99733,-12.125333"
     style="fill:#697074;fill-opacity:1;fill-rule:nonzero;stroke:none;stroke-width:1.33333"
     id="path368" /><path
     inkscape:connector-curvature="0"
     d="m 129.724,12.773338 0.49867,0.505333 0.49866,12.630667 -0.49866,-1.010667 -0.49867,-12.125333"
     style="fill:#697175;fill-opacity:1;fill-rule:nonzero;stroke:none;stroke-width:1.33333"
     id="path372" /><path
     inkscape:connector-curvature="0"
     d="m 130.22266,13.278671 0.99733,0.505333 0.99734,12.630667 -1.496,-0.505334 -0.49867,-12.630666"
     style="fill:#646c6f;fill-opacity:1;fill-rule:nonzero;stroke:none;stroke-width:1.33333"
     id="path376" /><path
     inkscape:connector-curvature="0"
     d="m 131.22,13.784004 1.496,0.505333 0.99733,12.630667 -1.496,-0.505334 L 131.22,13.784004"
     style="fill:#60676a;fill-opacity:1;fill-rule:nonzero;stroke:none;stroke-width:1.33333"
     id="path380" /><path
     inkscape:connector-curvature="0"
     d="m 131.22,13.784004 0.99733,0.505333 0.49867,12.125333 h -0.49867 L 131.22,13.784004"
     style="fill:#60676a;fill-opacity:1;fill-rule:nonzero;stroke:none;stroke-width:1.33333"
     id="path384" /><path
     inkscape:connector-curvature="0"
     d="M 132.21733,14.289337 H 132.716 L 133.71333,26.920003 132.716,26.41467 132.21733,14.289337"
     style="fill:#5e6568;fill-opacity:1;fill-rule:nonzero;stroke:none;stroke-width:1.33333"
     id="path388" /><path
     inkscape:connector-curvature="0"
     d="m 132.716,14.289337 2.992,0.505333 0.49867,12.125333 h -2.49334 L 132.716,14.289337"
     style="fill:#5c6466;fill-opacity:1;fill-rule:nonzero;stroke:none;stroke-width:1.33333"
     id="path392" /><path
     inkscape:connector-curvature="0"
     d="m 132.716,14.289337 h 0.99733 l 0.99734,12.630666 h -0.99734 L 132.716,14.289337"
     style="fill:#5c6466;fill-opacity:1;fill-rule:nonzero;stroke:none;stroke-width:1.33333"
     id="path396" /><path
     inkscape:connector-curvature="0"
     d="m 133.712,14.289337 0.99733,0.505333 0.99734,12.125333 h -0.99734 L 133.712,14.289337"
     style="fill:#5b6265;fill-opacity:1;fill-rule:nonzero;stroke:none;stroke-width:1.33333"
     id="path400" /><path
     inkscape:connector-curvature="0"
     d="m 134.70933,14.793337 h 0.99733 l 0.49867,12.125333 h -0.49867 l -0.99733,-12.125333"
     style="fill:#5a6164;fill-opacity:1;fill-rule:nonzero;stroke:none;stroke-width:1.33333"
     id="path404" /><path
     inkscape:connector-curvature="0"
     d="m 135.70666,14.793337 h 43.884 l 0.99733,12.125333 h -44.38266 l -0.49867,-12.125333"
     style="fill:#5f6769;fill-opacity:1;fill-rule:nonzero;stroke:none;stroke-width:1.33333"
     id="path408" /><path
     inkscape:connector-curvature="0"
     d="m 179.59066,14.793337 5.48533,-8.5893331 h -46.87466 l -2.49467,0.5053333 -2.99067,1.0106666 -2.49333,2.5253332 -0.49867,1.010667 v 1.516 l 0.49867,0.505333 0.99733,0.505333 1.496,0.505334 2.99067,0.505333 h 43.884"
     style="fill:#a2a8b0;fill-opacity:1;fill-rule:nonzero;stroke:none;stroke-width:1.33333"
     id="path412" /><path
     inkscape:connector-curvature="0"
     d="m 179.59066,14.793337 5.48533,-8.5893331"
     style="fill:none;stroke:#979ea5;stroke-width:0.341333;stroke-linecap:butt;stroke-linejoin:miter;stroke-miterlimit:1;stroke-dasharray:none;stroke-opacity:1"
     id="path416" /><path
     inkscape:connector-curvature="0"
     d="M 185.076,6.2053377 H 141.192"
     style="fill:none;stroke:#72797e;stroke-width:0.341333;stroke-linecap:butt;stroke-linejoin:miter;stroke-miterlimit:1;stroke-dasharray:none;stroke-opacity:1"
     id="path420" /><path
     inkscape:connector-curvature="0"
     d="m 141.19333,6.2053377 h -2.992"
     style="fill:none;stroke:#777f84;stroke-width:0.341333;stroke-linecap:butt;stroke-linejoin:miter;stroke-miterlimit:1;stroke-dasharray:none;stroke-opacity:1"
     id="path424" /><path
     inkscape:connector-curvature="0"
     d="M 138.2,6.2053377 135.70667,6.710671"
     style="fill:none;stroke:#7d848a;stroke-width:0.341333;stroke-linecap:butt;stroke-linejoin:miter;stroke-miterlimit:1;stroke-dasharray:none;stroke-opacity:1"
     id="path428" /><path
     inkscape:connector-curvature="0"
     d="m 135.70666,6.7093377 -1.496,0.5053333"
     style="fill:none;stroke:#838a90;stroke-width:0.341333;stroke-linecap:butt;stroke-linejoin:miter;stroke-miterlimit:1;stroke-dasharray:none;stroke-opacity:1"
     id="path432" /><path
     inkscape:connector-curvature="0"
     d="m 134.21066,7.214671 -1.496,0.5053333"
     style="fill:none;stroke:#8a9298;stroke-width:0.341333;stroke-linecap:butt;stroke-linejoin:miter;stroke-miterlimit:1;stroke-dasharray:none;stroke-opacity:1"
     id="path436" /><path
     inkscape:connector-curvature="0"
     d="m 132.716,7.7200043 -1.496,1.516"
     style="fill:none;stroke:#9199a0;stroke-width:0.341333;stroke-linecap:butt;stroke-linejoin:miter;stroke-miterlimit:1;stroke-dasharray:none;stroke-opacity:1"
     id="path440" /><path
     inkscape:connector-curvature="0"
     d="m 131.22,9.2360043 -0.99733,1.0106667 -0.49867,1.010667 v 1.516"
     style="fill:none;stroke:#969da4;stroke-width:0.341333;stroke-linecap:butt;stroke-linejoin:miter;stroke-miterlimit:1;stroke-dasharray:none;stroke-opacity:1"
     id="path444" /><path
     inkscape:connector-curvature="0"
     d="m 129.724,12.773338 0.49867,0.505333"
     style="fill:none;stroke:#9299a0;stroke-width:0.341333;stroke-linecap:butt;stroke-linejoin:miter;stroke-miterlimit:1;stroke-dasharray:none;stroke-opacity:1"
     id="path448" /><path
     inkscape:connector-curvature="0"
     d="m 130.22266,13.278671 0.99733,0.505333"
     style="fill:none;stroke:#8e969c;stroke-width:0.341333;stroke-linecap:butt;stroke-linejoin:miter;stroke-miterlimit:1;stroke-dasharray:none;stroke-opacity:1"
     id="path452" /><path
     inkscape:connector-curvature="0"
     d="m 131.22,13.784004 1.496,0.505333"
     style="fill:none;stroke:#899096;stroke-width:0.341333;stroke-linecap:butt;stroke-linejoin:miter;stroke-miterlimit:1;stroke-dasharray:none;stroke-opacity:1"
     id="path456" /><path
     inkscape:connector-curvature="0"
     d="m 132.716,14.289337 2.992,0.505333"
     style="fill:none;stroke:#858c92;stroke-width:0.341333;stroke-linecap:butt;stroke-linejoin:miter;stroke-miterlimit:1;stroke-dasharray:none;stroke-opacity:1"
     id="path460" /><path
     inkscape:connector-curvature="0"
     d="m 135.70666,14.793337 h 43.884"
     style="fill:none;stroke:#8c939a;stroke-width:0.341333;stroke-linecap:butt;stroke-linejoin:miter;stroke-miterlimit:1;stroke-dasharray:none;stroke-opacity:1"
     id="path464" /><path
     inkscape:connector-curvature="0"
     d="m 305.75466,155.75733 v -12.12667 l 37.89867,-37.89333 V 117.864 l -37.89867,37.89333"
     style="fill:#dee0e4;fill-opacity:1;fill-rule:nonzero;stroke:none;stroke-width:1.33333"
     id="path468" /><path
     inkscape:connector-curvature="0"
     d="m 305.75466,143.63067 h -39.89333 l 37.89866,-37.89333 h 39.89334 l -37.89867,37.89333"
     style="fill:#9ca3aa;fill-opacity:1;fill-rule:nonzero;stroke:none;stroke-width:1.33333"
     id="path472" /><path
     id="path474"
     style="fill:#c2c7cd;fill-opacity:1;fill-rule:nonzero;stroke:none;stroke-width:1.33333"
     d="m 265.86133,155.75733 h 39.89333 v -12.12626 h -39.89333 z"
     inkscape:connector-curvature="0" /><path
     inkscape:connector-curvature="0"
     d="m 265.86133,143.63067 v 12.12667"
     style="fill:none;stroke:#d2d5db;stroke-width:0.341333;stroke-linecap:butt;stroke-linejoin:miter;stroke-miterlimit:1;stroke-dasharray:none;stroke-opacity:1"
     id="path478" /><path
     inkscape:connector-curvature="0"
     d="m 265.86133,155.75733 h 39.89333"
     style="fill:none;stroke:#b7bcc3;stroke-width:0.341333;stroke-linecap:butt;stroke-linejoin:miter;stroke-miterlimit:1;stroke-dasharray:none;stroke-opacity:1"
     id="path482" /><path
     inkscape:connector-curvature="0"
     d="M 305.75466,155.75733 V 143.63066"
     style="fill:none;stroke:#e7e8eb;stroke-width:0.341333;stroke-linecap:butt;stroke-linejoin:miter;stroke-miterlimit:1;stroke-dasharray:none;stroke-opacity:1"
     id="path486" /><path
     inkscape:connector-curvature="0"
     d="M 305.75466,143.63067 H 265.86133"
     style="fill:none;stroke:#b7bcc3;stroke-width:0.341333;stroke-linecap:butt;stroke-linejoin:miter;stroke-miterlimit:1;stroke-dasharray:none;stroke-opacity:1"
     id="path490" /><path
     sodipodi:nodetypes="ccc"
     id="path514"
     style="fill:none;stroke:#231f20;stroke-width:1.33333;stroke-linecap:butt;stroke-linejoin:miter;stroke-miterlimit:1;stroke-dasharray:6.66667;stroke-dashoffset:0;stroke-opacity:1"
     d="m 197.96133,14.596004 c 11.516,-2.025333 23.98933,-2.397333 36.12933,-2 14.67867,0.478667 40.64957,10.754091 53.0805,17.687925"
     inkscape:connector-curvature="0" /><path
     inkscape:connector-curvature="0"
     d="m 195.812,16.013337 c 1.71467,0.205333 2.85333,0.473333 4.25067,0.768 l -0.87334,-4.968 c -0.428,0.304 -2.192,1.393333 -3.73466,2.169333 -1.64934,0.833334 -3.16667,1.472 -4.16934,1.78 1.048,-0.052 2.69067,0.03067 4.52667,0.250667"
     style="fill:#231f20;fill-opacity:1;fill-rule:nonzero;stroke:none;stroke-width:1.33333"
     id="path518" /><path
     sodipodi:nodetypes="cc"
     inkscape:connector-curvature="0"
     d="m 221.29466,61.26267 c 18,-1.333333 54.63044,-6.847227 68.3971,-15.52856"
     style="fill:none;stroke:#231f20;stroke-width:1.33333;stroke-linecap:butt;stroke-linejoin:miter;stroke-miterlimit:1;stroke-dasharray:none;stroke-opacity:1"
     id="path522" /><path
     inkscape:connector-curvature="0"
     d="m 219.01466,62.45867 c 1.68667,0.376 2.792,0.754667 4.15333,1.188 l -0.372,-5.030667 c -0.45733,0.26 -2.32133,1.168 -3.93333,1.786667 -1.72533,0.665333 -3.29867,1.148 -4.32667,1.354667 1.048,0.05333 2.67467,0.298666 4.47867,0.701333"
     style="fill:#231f20;fill-opacity:1;fill-rule:nonzero;stroke:none;stroke-width:1.33333"
     id="path526" /><path
     inkscape:connector-curvature="0"
     d="m 324.62799,96.596002 c -1.92,-17.026666 22.804,-18.005333 34.66667,-18"
     style="fill:none;stroke:#231f20;stroke-width:1.33333;stroke-linecap:butt;stroke-linejoin:miter;stroke-miterlimit:1;stroke-dasharray:none;stroke-opacity:1"
     id="path530" /><path
     inkscape:connector-curvature="0"
     d="m 325.91066,98.826669 c 0.31067,-1.698667 0.648,-2.818667 1.028,-4.194667 l -5.01333,0.564 c 0.27733,0.446667 1.256,2.274667 1.93733,3.861334 0.72933,1.698664 1.272,3.252004 1.51867,4.272004 0.0133,-1.04934 0.19733,-2.684 0.52933,-4.502671"
     style="fill:#231f20;fill-opacity:1;fill-rule:nonzero;stroke:none;stroke-width:1.33333"
     id="path534" /><text
     id="text7059"
     y="22.792374"
     x="58.235138"
     style="font-size:13.3333px;line-height:1;font-family:Helvetica;-inkscape-font-specification:'Helvetica Normal';letter-spacing:0px;word-spacing:0px"
     xml:space="preserve"><tspan
       y="22.792374"
       x="58.235138"
       id="tspan7057"
       sodipodi:role="line">1</tspan></text><text
     id="text7067"
     y="40.475487"
     x="295.71884"
     style="font-size:13.3333px;line-height:1;font-family:Helvetica;-inkscape-font-specification:'Helvetica Normal';letter-spacing:0px;word-spacing:0px"
     xml:space="preserve"><tspan
       y="40.475487"
       x="295.71884"
       id="tspan7065"
       sodipodi:role="line">3</tspan></text><text
     id="text7071"
     y="82.537956"
     x="365.43079"
     style="font-size:13.3333px;line-height:1;font-family:Helvetica;-inkscape-font-specification:'Helvetica Normal';letter-spacing:0px;word-spacing:0px"
     xml:space="preserve"><tspan
       y="82.537956"
       x="365.43079"
       id="tspan7069"
       sodipodi:role="line">4</tspan></text><text
     id="text7075"
     y="139.59914"
     x="398.55963"
     style="font-size:13.3333px;line-height:1;font-family:Helvetica;-inkscape-font-specification:'Helvetica Normal';letter-spacing:0px;word-spacing:0px"
     xml:space="preserve"><tspan
       y="139.59914"
       x="398.55963"
       id="tspan7073"
       sodipodi:role="line">5</tspan></text><path
     inkscape:connector-curvature="0"
     id="path7077"
     d="M 71.864637,18.000719 H 119.36138"
     style="fill:none;stroke:#000000;stroke-width:1px;stroke-linecap:butt;stroke-linejoin:miter;stroke-opacity:1;marker-end:url(#Arrow1Mend)" /><text
     xml:space="preserve"
     style="font-size:13.3333px;line-height:1;font-family:Helvetica;-inkscape-font-specification:'Helvetica Normal';letter-spacing:0px;word-spacing:0px;font-weight:normal;font-style:normal;font-stretch:normal;font-variant:normal;font-variant-ligatures:normal;font-variant-caps:normal;font-variant-numeric:normal;font-variant-east-asian:normal;"
     x="56.523884"
     y="65.091866"
     id="text7059-7"><tspan
       id="tspan7190"
       sodipodi:role="line">2</tspan></text><path
     style="fill:none;stroke:#000000;stroke-width:1px;stroke-linecap:butt;stroke-linejoin:miter;stroke-opacity:1;marker-end:url(#Arrow1Mend-2)"
     d="M 70.153391,60.300213 H 117.65013"
     id="path7077-4"
     inkscape:connector-curvature="0" /><path
     inkscape:connector-curvature="0"
     id="path7192"
     d="M 392.3644,135.46897 H 337.43338"
     style="fill:none;stroke:#000000;stroke-width:1px;stroke-linecap:butt;stroke-linejoin:miter;stroke-opacity:1;marker-end:url(#marker7196)" /></svg>
