<?xml version="1.0" encoding="UTF-8" standalone="no"?>
<svg
   xmlns:dc="http://purl.org/dc/elements/1.1/"
   xmlns:cc="http://creativecommons.org/ns#"
   xmlns:rdf="http://www.w3.org/1999/02/22-rdf-syntax-ns#"
   xmlns:svg="http://www.w3.org/2000/svg"
   xmlns="http://www.w3.org/2000/svg"
   viewBox="0 0 397.99734 156.716"
   height="156.716"
   width="397.99734"
   xml:space="preserve"
   id="svg2"
   version="1.1"><metadata
     id="metadata8"><rdf:RDF><cc:Work
         rdf:about=""><dc:format>image/svg+xml</dc:format><dc:type
           rdf:resource="http://purl.org/dc/dcmitype/StillImage" /></cc:Work></rdf:RDF></metadata><defs
     id="defs6" /><g
     transform="matrix(1.3333333,0,0,-1.3333333,0,156.716)"
     id="g10"><text
       id="text16"
       style="font-variant:normal;font-weight:normal;font-stretch:normal;font-size:10px;font-family:Helvetica;-inkscape-font-specification:Helvetica;writing-mode:lr-tb;fill:#231f20;fill-opacity:1;fill-rule:nonzero;stroke:none"
       transform="matrix(1,0,0,-1,50.0575,2.25)"><tspan
         id="tspan12"
         y="0"
         x="0 5.5599999 8.8900003 14.45 17.23 19.450001 21.67">profile</tspan><tspan
         id="tspan14"
         y="-33.895"
         x="228.98 234.53999 240.10001 242.88">path</tspan></text>
<g
       transform="translate(84.545,32.412)"
       id="g18"><path
         id="path20"
         style="fill:none;stroke:#231f20;stroke-width:2;stroke-linecap:butt;stroke-linejoin:miter;stroke-miterlimit:4;stroke-dasharray:none;stroke-opacity:1"
         d="M 0,0 -52.354,-30.226" /><g
         transform="translate(180.063,6.173)"
         id="g22"><path
           id="path24"
           style="fill:none;stroke:#231f20;stroke-width:2;stroke-linecap:butt;stroke-linejoin:miter;stroke-miterlimit:4;stroke-dasharray:none;stroke-opacity:1"
           d="M 0,0 -156.116,-0.015" /></g></g><g
       transform="translate(268.151,40.123)"
       id="g26"><path
         id="path28"
         style="fill:#231f20;fill-opacity:1;fill-rule:nonzero;stroke:none"
         d="M 0,0 C -2.48,0.749 -4.093,1.438 -6.082,2.236 L -6.081,-5.33 C -5.369,-4.991 -2.48,-3.841 0,-3.092 2.654,-2.29 5.061,-1.741 6.621,-1.545 5.061,-1.35 2.654,-0.802 0,0" /></g><text
       id="text34"
       style="font-variant:normal;font-weight:normal;font-stretch:normal;font-size:10px;font-family:Helvetica;-inkscape-font-specification:Helvetica;writing-mode:lr-tb;fill:#231f20;fill-opacity:1;fill-rule:nonzero;stroke:none"
       transform="matrix(1,0,0,-1,9.7364,36.1777)"><tspan
         id="tspan30"
         y="0"
         x="0 2.48 8.04 13.6 16.379999 21.940001 25.27 30.83 33.610001 39.169998 42.650002 44.869999 50.43 52.650002">feature origin</tspan><tspan
         id="tspan32"
         y="-38.271999"
         x="96.793999 100.124 105.684 114.014 119.424 124.174 129.73399 131.95399 137.51401 143.07401 148.634 154.194 156.974">removal_depth</tspan></text>
<path
       id="path36"
       style="fill:none;stroke:#231f20;stroke-width:1;stroke-linecap:butt;stroke-linejoin:miter;stroke-miterlimit:4;stroke-dasharray:4;stroke-dashoffset:0;stroke-opacity:1"
       d="m 94.727,54.619 v 46.883" /><text
       id="text40"
       style="font-variant:normal;font-weight:normal;font-stretch:normal;font-size:10px;font-family:Helvetica;-inkscape-font-specification:Helvetica;writing-mode:lr-tb;fill:#231f20;fill-opacity:1;fill-rule:nonzero;stroke:none"
       transform="matrix(1,0,0,-1,0,97.4805)"><tspan
         id="tspan38"
         y="0"
         x="0 2.78 9.4499998 17.23 20.01 25.57 31.129999 36.689999 42.25 47.810001 50.59 56.150002 59.630001 61.849998 67.410004 69.629997">ISO 14649 origin</tspan></text>
<g
       transform="translate(94.962,38.415)"
       id="g42"><path
         id="path44"
         style="fill:none;stroke:#231f20;stroke-width:0.5;stroke-linecap:butt;stroke-linejoin:miter;stroke-miterlimit:4;stroke-dasharray:none;stroke-opacity:1"
         d="M 0,0 V 8.635" /></g><g
       transform="translate(94.578,47.937)"
       id="g46"><path
         id="path48"
         style="fill:#231f20;fill-opacity:1;fill-rule:nonzero;stroke:none"
         d="M 0,0 C -0.187,-0.621 -0.359,-1.023 -0.56,-1.522 H 1.332 C 1.248,-1.344 0.96,-0.621 0.773,0 0.572,0.662 0.436,1.266 0.387,1.654 0.338,1.266 0.2,0.662 0,0" /></g><g
       transform="translate(94.962,38.417)"
       id="g50"><path
         id="path52"
         style="fill:none;stroke:#231f20;stroke-width:0.5;stroke-linecap:butt;stroke-linejoin:miter;stroke-miterlimit:4;stroke-dasharray:none;stroke-opacity:1"
         d="M 0,0 H 8.636" /></g><g
       transform="translate(104.483,38.802)"
       id="g54"><path
         id="path56"
         style="fill:#231f20;fill-opacity:1;fill-rule:nonzero;stroke:none"
         d="m 0,0 c -0.619,0.188 -1.023,0.359 -1.52,0.559 v -1.891 c 0.178,0.084 0.901,0.371 1.52,0.559 0.664,0.201 1.266,0.337 1.656,0.386 C 1.266,-0.338 0.664,-0.201 0,0" /></g><g
       transform="translate(94.962,38.415)"
       id="g58"><path
         id="path60"
         style="fill:none;stroke:#231f20;stroke-width:0.5;stroke-linecap:butt;stroke-linejoin:miter;stroke-miterlimit:4;stroke-dasharray:none;stroke-opacity:1"
         d="M 0,0 -6.471,-4.316" /></g><g
       transform="translate(87.918,33.321)"
       id="g62"><path
         id="path64"
         style="fill:#231f20;fill-opacity:1;fill-rule:nonzero;stroke:none"
         d="M 0,0 C 0.631,0.148 1.066,0.201 1.596,0.275 L 0.65,1.914 C 0.539,1.752 0.057,1.143 -0.387,0.67 -0.861,0.164 -1.314,-0.256 -1.627,-0.492 -1.266,-0.34 -0.675,-0.158 0,0" /></g><text
       id="text72"
       style="font-variant:normal;font-weight:normal;font-stretch:normal;font-size:9px;font-family:Helvetica;-inkscape-font-specification:Helvetica;writing-mode:lr-tb;fill:#231f20;fill-opacity:1;fill-rule:nonzero;stroke:none"
       transform="matrix(1,0,0,-1,98.3765,45.9834)"><tspan
         id="tspan66"
         y="0"
         x="0">z</tspan><tspan
         id="tspan68"
         y="9.2556"
         x="-14.6034">x</tspan><tspan
         id="tspan70"
         y="14.9355"
         x="3.753">y</tspan></text>
<g
       transform="translate(94.796,101.59)"
       id="g74"><path
         id="path76"
         style="fill:none;stroke:#231f20;stroke-width:0.5;stroke-linecap:butt;stroke-linejoin:miter;stroke-miterlimit:4;stroke-dasharray:none;stroke-opacity:1"
         d="M 0,0 V 8.635" /></g><g
       transform="translate(94.411,111.111)"
       id="g78"><path
         id="path80"
         style="fill:#231f20;fill-opacity:1;fill-rule:nonzero;stroke:none"
         d="M 0,0 C -0.187,-0.621 -0.359,-1.023 -0.56,-1.521 H 1.332 C 1.248,-1.344 0.96,-0.621 0.773,0 0.572,0.662 0.435,1.266 0.387,1.654 0.338,1.266 0.2,0.662 0,0" /></g><g
       transform="translate(94.796,101.592)"
       id="g82"><path
         id="path84"
         style="fill:none;stroke:#231f20;stroke-width:0.5;stroke-linecap:butt;stroke-linejoin:miter;stroke-miterlimit:4;stroke-dasharray:none;stroke-opacity:1"
         d="M 0,0 H 8.636" /></g><g
       transform="translate(104.316,101.977)"
       id="g86"><path
         id="path88"
         style="fill:#231f20;fill-opacity:1;fill-rule:nonzero;stroke:none"
         d="m 0,0 c -0.619,0.188 -1.023,0.359 -1.52,0.559 v -1.891 c 0.178,0.084 0.901,0.371 1.52,0.559 0.664,0.201 1.266,0.337 1.656,0.386 C 1.266,-0.338 0.664,-0.201 0,0" /></g><g
       transform="translate(94.796,101.59)"
       id="g90"><path
         id="path92"
         style="fill:none;stroke:#231f20;stroke-width:0.5;stroke-linecap:butt;stroke-linejoin:miter;stroke-miterlimit:4;stroke-dasharray:none;stroke-opacity:1"
         d="M 0,0 -6.471,-4.317" /></g><g
       transform="translate(87.751,96.496)"
       id="g94"><path
         id="path96"
         style="fill:#231f20;fill-opacity:1;fill-rule:nonzero;stroke:none"
         d="M 0,0 C 0.631,0.148 1.066,0.201 1.596,0.275 L 0.65,1.914 C 0.539,1.752 0.057,1.143 -0.387,0.67 -0.861,0.164 -1.314,-0.256 -1.627,-0.492 -1.266,-0.34 -0.675,-0.158 0,0" /></g><text
       id="text104"
       style="font-variant:normal;font-weight:normal;font-stretch:normal;font-size:9px;font-family:Helvetica;-inkscape-font-specification:Helvetica;writing-mode:lr-tb;fill:#231f20;fill-opacity:1;fill-rule:nonzero;stroke:none"
       transform="matrix(1,0,0,-1,98.21,109.1582)"><tspan
         id="tspan98"
         y="0"
         x="0">z</tspan><tspan
         id="tspan100"
         y="9.2556"
         x="-14.6034">x</tspan><tspan
         id="tspan102"
         y="14.9355"
         x="3.753">y</tspan></text>
</g></svg>