<?xml version="1.0" encoding="UTF-8" standalone="no"?>
<svg
   xmlns:dc="http://purl.org/dc/elements/1.1/"
   xmlns:cc="http://creativecommons.org/ns#"
   xmlns:rdf="http://www.w3.org/1999/02/22-rdf-syntax-ns#"
   xmlns:svg="http://www.w3.org/2000/svg"
   xmlns="http://www.w3.org/2000/svg"
   xmlns:sodipodi="http://sodipodi.sourceforge.net/DTD/sodipodi-0.dtd"
   xmlns:inkscape="http://www.inkscape.org/namespaces/inkscape"
   inkscape:version="1.0beta2 (f3d5b5a, 2020-03-13)"
   sodipodi:docname="planar_face_origin.svg"
   version="1.1"
   id="svg2"
   xml:space="preserve"
   width="397.99734"
   height="156.716"
   viewBox="0 0 397.99734 156.716"><sodipodi:namedview
     inkscape:current-layer="svg2"
     inkscape:cy="78.358002"
     inkscape:cx="198.99867"
     inkscape:zoom="2.9271552"
     showgrid="false"
     id="namedview7287"
     inkscape:window-height="480"
     inkscape:window-width="640"
     inkscape:pageshadow="2"
     inkscape:pageopacity="0"
     guidetolerance="10"
     gridtolerance="10"
     objecttolerance="10"
     borderopacity="1"
     bordercolor="#666666"
     pagecolor="#ffffff" /><metadata
     id="metadata8"><rdf:RDF><cc:Work
         rdf:about=""><dc:format>image/svg+xml</dc:format><dc:type
           rdf:resource="http://purl.org/dc/dcmitype/StillImage" /></cc:Work></rdf:RDF></metadata><defs
     id="defs6"><marker
   inkscape:isstock="true"
   style="overflow:visible;"
   id="marker7652"
   refX="0.0"
   refY="0.0"
   orient="auto"
   inkscape:stockid="Arrow1Mend"><path
     transform="scale(0.4) rotate(180) translate(10,0)"
     style="fill-rule:evenodd;stroke:#000000;stroke-width:1pt;stroke-opacity:1;fill:#000000;fill-opacity:1"
     d="M 0.0,0.0 L 5.0,-5.0 L -12.5,0.0 L 5.0,5.0 L 0.0,0.0 z "
     id="path7650" /></marker><marker
   inkscape:isstock="true"
   style="overflow:visible;"
   id="marker7598"
   refX="0.0"
   refY="0.0"
   orient="auto"
   inkscape:stockid="Arrow1Mend"><path
     transform="scale(0.4) rotate(180) translate(10,0)"
     style="fill-rule:evenodd;stroke:#000000;stroke-width:1pt;stroke-opacity:1;fill:#000000;fill-opacity:1"
     d="M 0.0,0.0 L 5.0,-5.0 L -12.5,0.0 L 5.0,5.0 L 0.0,0.0 z "
     id="path7596" /></marker><marker
   inkscape:isstock="true"
   style="overflow:visible;"
   id="marker7550"
   refX="0.0"
   refY="0.0"
   orient="auto"
   inkscape:stockid="Arrow1Mend"><path
     transform="scale(0.4) rotate(180) translate(10,0)"
     style="fill-rule:evenodd;stroke:#000000;stroke-width:1pt;stroke-opacity:1;fill:#000000;fill-opacity:1"
     d="M 0.0,0.0 L 5.0,-5.0 L -12.5,0.0 L 5.0,5.0 L 0.0,0.0 z "
     id="path7548" /></marker><marker
   inkscape:collect="always"
   inkscape:stockid="Arrow1Mend"
   orient="auto"
   refY="0.0"
   refX="0.0"
   id="marker7448"
   style="overflow:visible;"
   inkscape:isstock="true"><path
     id="path7446"
     d="M 0.0,0.0 L 5.0,-5.0 L -12.5,0.0 L 5.0,5.0 L 0.0,0.0 z "
     style="fill-rule:evenodd;stroke:#000000;stroke-width:1pt;stroke-opacity:1;fill:#000000;fill-opacity:1"
     transform="scale(0.4) rotate(180) translate(10,0)" /></marker><marker
   inkscape:collect="always"
   inkscape:stockid="Arrow1Mend"
   orient="auto"
   refY="0.0"
   refX="0.0"
   id="marker7438"
   style="overflow:visible;"
   inkscape:isstock="true"><path
     id="path7436"
     d="M 0.0,0.0 L 5.0,-5.0 L -12.5,0.0 L 5.0,5.0 L 0.0,0.0 z "
     style="fill-rule:evenodd;stroke:#000000;stroke-width:1pt;stroke-opacity:1;fill:#000000;fill-opacity:1"
     transform="scale(0.4) rotate(180) translate(10,0)" /></marker><marker
   inkscape:stockid="Arrow1Lend"
   orient="auto"
   refY="0.0"
   refX="0.0"
   id="marker7396"
   style="overflow:visible;"
   inkscape:isstock="true"><path
     id="path7394"
     d="M 0.0,0.0 L 5.0,-5.0 L -12.5,0.0 L 5.0,5.0 L 0.0,0.0 z "
     style="fill-rule:evenodd;stroke:#000000;stroke-width:1pt;stroke-opacity:1;fill:#000000;fill-opacity:1"
     transform="scale(0.8) rotate(180) translate(12.5,0)" /></marker><marker
   inkscape:stockid="Arrow1Lend"
   orient="auto"
   refY="0.0"
   refX="0.0"
   id="marker7386"
   style="overflow:visible;"
   inkscape:isstock="true"><path
     id="path7384"
     d="M 0.0,0.0 L 5.0,-5.0 L -12.5,0.0 L 5.0,5.0 L 0.0,0.0 z "
     style="fill-rule:evenodd;stroke:#000000;stroke-width:1pt;stroke-opacity:1;fill:#000000;fill-opacity:1"
     transform="scale(0.8) rotate(180) translate(12.5,0)" /></marker>




</defs><path
     inkscape:connector-curvature="0"
     d="M 112.72666,113.5 42.921328,153.80133"
     style="fill:none;stroke:#231f20;stroke-width:2.66667;stroke-linecap:butt;stroke-linejoin:miter;stroke-miterlimit:4;stroke-dasharray:none;stroke-opacity:1"
     id="path20" /><g
     id="g22"
     transform="matrix(1.3333333,0,0,-1.3333333,352.81065,105.26933)"><path
       inkscape:connector-curvature="0"
       d="M 0,0 -156.116,-0.015"
       style="fill:none;stroke:#231f20;stroke-width:2;stroke-linecap:butt;stroke-linejoin:miter;stroke-miterlimit:4;stroke-dasharray:none;stroke-opacity:1"
       id="path24" /></g><path
     inkscape:connector-curvature="0"
     d="m 357.53466,103.21867 c -3.30667,-0.99867 -5.45733,-1.91733 -8.10933,-2.98133 l 0.001,10.088 c 0.94933,-0.452 4.80133,-1.98534 8.108,-2.984 3.53867,-1.06934 6.748,-1.80134 8.828,-2.06267 -2.08,-0.26 -5.28933,-0.99067 -8.828,-2.06"
     style="fill:#231f20;fill-opacity:1;fill-rule:nonzero;stroke:none;stroke-width:1.33333"
     id="path28" /><path
     id="path36"
     style="fill:none;stroke:#231f20;stroke-width:1.33333;stroke-linecap:butt;stroke-linejoin:miter;stroke-miterlimit:4;stroke-dasharray:5.33333;stroke-dashoffset:0;stroke-opacity:1"
     d="M 126.30266,83.890668 V 21.380003"
     inkscape:connector-curvature="0" /><text
     x="28.355175"
     y="51.389038"
     id="text40"
     style="font-style:normal;font-variant:normal;font-weight:normal;font-stretch:normal;font-size:13.3333px;font-family:Helvetica;-inkscape-font-specification:'Helvetica Normal';font-variant-ligatures:normal;font-variant-caps:normal;font-variant-numeric:normal;font-variant-east-asian:normal;writing-mode:lr-tb;fill:#231f20;fill-opacity:1;fill-rule:nonzero;stroke:none;stroke-width:1.33333"><tspan
       y="51.389038"
       x="28.355175"
       id="tspan7352"
       sodipodi:role="line">1</tspan></text><path
     inkscape:connector-curvature="0"
     d="M 126.616,105.496 V 93.982667"
     style="fill:none;stroke:#231f20;stroke-width:0.666667;stroke-linecap:butt;stroke-linejoin:miter;stroke-miterlimit:4;stroke-dasharray:none;stroke-opacity:1"
     id="path44" /><path
     inkscape:connector-curvature="0"
     d="m 126.104,92.800002 c -0.24933,0.828 -0.47867,1.364 -0.74667,2.029333 H 127.88 c -0.112,-0.237333 -0.496,-1.201333 -0.74533,-2.029333 -0.268,-0.882667 -0.44934,-1.688 -0.51467,-2.205333 -0.0653,0.517333 -0.24933,1.322666 -0.516,2.205333"
     style="fill:#231f20;fill-opacity:1;fill-rule:nonzero;stroke:none;stroke-width:1.33333"
     id="path48" /><path
     inkscape:connector-curvature="0"
     d="m 126.616,105.49333 h 11.51467"
     style="fill:none;stroke:#231f20;stroke-width:0.666667;stroke-linecap:butt;stroke-linejoin:miter;stroke-miterlimit:4;stroke-dasharray:none;stroke-opacity:1"
     id="path52" /><path
     inkscape:connector-curvature="0"
     d="m 139.31066,104.98 c -0.82533,-0.25067 -1.364,-0.47867 -2.02667,-0.74533 v 2.52133 c 0.23734,-0.112 1.20134,-0.49467 2.02667,-0.74533 0.88533,-0.268 1.688,-0.44934 2.208,-0.51467 -0.52,-0.0653 -1.32267,-0.248 -2.208,-0.516"
     style="fill:#231f20;fill-opacity:1;fill-rule:nonzero;stroke:none;stroke-width:1.33333"
     id="path56" /><path
     inkscape:connector-curvature="0"
     d="m 126.616,105.496 -8.628,5.75467"
     style="fill:none;stroke:#231f20;stroke-width:0.666667;stroke-linecap:butt;stroke-linejoin:miter;stroke-miterlimit:4;stroke-dasharray:none;stroke-opacity:1"
     id="path60" /><path
     inkscape:connector-curvature="0"
     d="m 117.224,112.288 c 0.84133,-0.19733 1.42133,-0.268 2.128,-0.36667 l -1.26133,-2.18533 c -0.148,0.216 -0.79067,1.028 -1.38267,1.65867 -0.632,0.67466 -1.236,1.23466 -1.65333,1.54933 0.48133,-0.20267 1.26933,-0.44533 2.16933,-0.656"
     style="fill:#231f20;fill-opacity:1;fill-rule:nonzero;stroke:none;stroke-width:1.33333"
     id="path64" /><text
     y="95.4048"
     x="131.16866"
     id="text72"
     style="font-variant:normal;font-weight:normal;font-stretch:normal;font-size:12px;font-family:Helvetica;-inkscape-font-specification:Helvetica;writing-mode:lr-tb;fill:#231f20;fill-opacity:1;fill-rule:nonzero;stroke:none;stroke-width:1.33333"><tspan
       style="stroke-width:1.33333"
       id="tspan66"
       y="95.4048"
       x="131.16866">z</tspan><tspan
       style="stroke-width:1.33333"
       id="tspan68"
       y="107.74561"
       x="111.69746">x</tspan><tspan
       style="stroke-width:1.33333"
       id="tspan70"
       y="115.3188"
       x="136.17265">y</tspan></text><path
     inkscape:connector-curvature="0"
     d="M 126.39466,21.26267 V 9.749337"
     style="fill:none;stroke:#231f20;stroke-width:0.666667;stroke-linecap:butt;stroke-linejoin:miter;stroke-miterlimit:4;stroke-dasharray:none;stroke-opacity:1"
     id="path76" /><path
     inkscape:connector-curvature="0"
     d="m 125.88133,8.5680037 c -0.24933,0.828 -0.47867,1.364 -0.74667,2.0280003 h 2.52267 c -0.112,-0.236 -0.496,-1.2000003 -0.74533,-2.0280003 -0.268,-0.8826666 -0.45067,-1.688 -0.51467,-2.2053333 -0.0653,0.5173333 -0.24933,1.3226667 -0.516,2.2053333"
     style="fill:#231f20;fill-opacity:1;fill-rule:nonzero;stroke:none;stroke-width:1.33333"
     id="path80" /><path
     inkscape:connector-curvature="0"
     d="m 126.39466,21.260003 h 11.51467"
     style="fill:none;stroke:#231f20;stroke-width:0.666667;stroke-linecap:butt;stroke-linejoin:miter;stroke-miterlimit:4;stroke-dasharray:none;stroke-opacity:1"
     id="path84" /><path
     inkscape:connector-curvature="0"
     d="m 139.088,20.74667 c -0.82533,-0.250667 -1.364,-0.478667 -2.02667,-0.745333 v 2.521333 c 0.23734,-0.112 1.20134,-0.494667 2.02667,-0.745333 0.88533,-0.268 1.688,-0.449334 2.208,-0.514667 -0.52,-0.06533 -1.32267,-0.248 -2.208,-0.516"
     style="fill:#231f20;fill-opacity:1;fill-rule:nonzero;stroke:none;stroke-width:1.33333"
     id="path88" /><path
     inkscape:connector-curvature="0"
     d="m 126.39466,21.26267 -8.628,5.756"
     style="fill:none;stroke:#231f20;stroke-width:0.666667;stroke-linecap:butt;stroke-linejoin:miter;stroke-miterlimit:4;stroke-dasharray:none;stroke-opacity:1"
     id="path92" /><path
     inkscape:connector-curvature="0"
     d="m 117.00133,28.05467 c 0.84133,-0.197333 1.42133,-0.268 2.128,-0.366667 L 117.868,25.50267 c -0.148,0.216 -0.79067,1.028 -1.38267,1.658667 -0.632,0.674666 -1.236,1.234666 -1.65333,1.549333 0.48133,-0.202667 1.26933,-0.445333 2.16933,-0.656"
     style="fill:#231f20;fill-opacity:1;fill-rule:nonzero;stroke:none;stroke-width:1.33333"
     id="path96" /><text
     y="11.171737"
     x="130.94666"
     id="text104"
     style="font-variant:normal;font-weight:normal;font-stretch:normal;font-size:12px;font-family:Helvetica;-inkscape-font-specification:Helvetica;writing-mode:lr-tb;fill:#231f20;fill-opacity:1;fill-rule:nonzero;stroke:none;stroke-width:1.33333"><tspan
       style="stroke-width:1.33333"
       id="tspan98"
       y="11.171737"
       x="130.94666">z</tspan><tspan
       style="stroke-width:1.33333"
       id="tspan100"
       y="23.512537"
       x="111.47546">x</tspan><tspan
       style="stroke-width:1.33333"
       id="tspan102"
       y="31.085737"
       x="135.95065">y</tspan></text><text
     id="text7356"
     y="75.599472"
     x="29.038433"
     style="font-size:13.3333px;line-height:1;font-family:Helvetica;-inkscape-font-specification:'Helvetica Normal';letter-spacing:0px;word-spacing:0px"
     xml:space="preserve"><tspan
       y="75.599472"
       x="29.038433"
       id="tspan7354"
       sodipodi:role="line">2</tspan></text><text
     id="text7360"
     y="142.11751"
     x="153.39125"
     style="font-size:13.3333px;line-height:1;font-family:Helvetica;-inkscape-font-specification:'Helvetica Normal';letter-spacing:0px;word-spacing:0px"
     xml:space="preserve"><tspan
       y="142.11751"
       x="153.39125"
       id="tspan7358"
       sodipodi:role="line">3</tspan></text><text
     id="text7364"
     y="141.77588"
     x="224.10838"
     style="font-size:13.3333px;line-height:1;font-family:Helvetica;-inkscape-font-specification:'Helvetica Normal';letter-spacing:0px;word-spacing:0px"
     xml:space="preserve"><tspan
       y="141.77588"
       x="224.10838"
       id="tspan7362"
       sodipodi:role="line">4</tspan></text><text
     id="text7368"
     y="52.26918"
     x="195.41158"
     style="font-size:13.3333px;line-height:1;font-family:Helvetica;-inkscape-font-specification:'Helvetica Normal';letter-spacing:0px;word-spacing:0px"
     xml:space="preserve"><tspan
       y="52.26918"
       x="195.41158"
       id="tspan7366"
       sodipodi:role="line">5</tspan></text><path
     inkscape:connector-curvature="0"
     id="path7372"
     d="m 38.945663,48.852893 c 0,0 22.889118,4.441172 41.678692,-5.466058 18.789574,-9.90723 30.063315,-15.714917 30.063315,-15.714917"
     style="fill:none;stroke:#000000;stroke-width:1px;stroke-linecap:butt;stroke-linejoin:miter;stroke-opacity:1;marker-end:url(#marker7448)" /><path
     inkscape:connector-curvature="0"
     id="path7374"
     d="m 40.995435,71.158297 c 0,0 22.20586,-2.3914 32.454719,2.733029 10.248858,5.124429 38.945666,19.81446 38.945666,19.81446"
     style="fill:none;stroke:#000000;stroke-width:1px;stroke-linecap:butt;stroke-linejoin:miter;stroke-opacity:1;marker-end:url(#marker7438)" /><path
     inkscape:connector-curvature="0"
     id="path7546"
     d="M 146.21705,138.35959 95.656014,129.47725"
     style="fill:none;stroke:#000000;stroke-width:1px;stroke-linecap:butt;stroke-linejoin:miter;stroke-opacity:1;marker-end:url(#marker7550)" /><path
     inkscape:connector-curvature="0"
     id="path7594"
     d="M 236.06538,136.99308 280.4771,112.05419"
     style="fill:none;stroke:#000000;stroke-width:1px;stroke-linecap:butt;stroke-linejoin:miter;stroke-opacity:1;marker-end:url(#marker7598)" /><path
     inkscape:connector-curvature="0"
     id="path7648"
     d="m 190.62877,47.828007 -58.07686,2.3914"
     style="fill:none;stroke:#000000;stroke-width:1px;stroke-linecap:butt;stroke-linejoin:miter;stroke-opacity:1;marker-end:url(#marker7652)" /></svg>
