<?xml version="1.0" encoding="UTF-8" standalone="no"?>
<svg
   xmlns:dc="http://purl.org/dc/elements/1.1/"
   xmlns:cc="http://creativecommons.org/ns#"
   xmlns:rdf="http://www.w3.org/1999/02/22-rdf-syntax-ns#"
   xmlns:svg="http://www.w3.org/2000/svg"
   xmlns="http://www.w3.org/2000/svg"
   viewBox="0 0 532.52002 174.55867"
   height="174.55867"
   width="532.52002"
   xml:space="preserve"
   id="svg2"
   version="1.1"><metadata
     id="metadata8"><rdf:RDF><cc:Work
         rdf:about=""><dc:format>image/svg+xml</dc:format><dc:type
           rdf:resource="http://purl.org/dc/dcmitype/StillImage" /></cc:Work></rdf:RDF></metadata><defs
     id="defs6" /><g
     transform="matrix(1.3333333,0,0,-1.3333333,0,174.55867)"
     id="g10"><text
       id="text18"
       style="font-variant:normal;font-weight:normal;font-stretch:normal;font-size:10px;font-family:Helvetica;-inkscape-font-specification:Helvetica;writing-mode:lr-tb;fill:#231f20;fill-opacity:1;fill-rule:nonzero;stroke:none"
       transform="matrix(1,0,0,-1,62.14,42.5762)"><tspan
         id="tspan12"
         y="0"
         x="0 5.5599999 8.8900003 14.45 17.23 19.450001 21.67 27.23">profile</tspan><tspan
         id="tspan14"
         y="12"
         x="-62.139999 -58.810001 -55.48 -49.919998 -41.59 -36.18 -31.43 -25.870001 -23.65 -18.09 -12.53 -6.9699998 -1.41 4.1500001 9.71 15.27 18.9 23.9">(removal_boundary)</tspan><tspan
         id="tspan16"
         y="-24.393999"
         x="234.98 240.53999 246.10001 248.88 254.44 257.22 260.54999 265.54999 271.10999 276.67001 280 285 290.56 296.12 301.67999 304.45999 310.01999 312.79999 316.03 321.39001 326.14001 331.70001 333.92001">path (course_of_travel)</tspan></text>
<path
       id="path20"
       style="fill:none;stroke:#231f20;stroke-width:1;stroke-linecap:butt;stroke-linejoin:miter;stroke-miterlimit:4;stroke-dasharray:2;stroke-dashoffset:0;stroke-opacity:1"
       d="m 289.581,2.3643 h -216 L 158.43,51.352 h 216 z" /><g
       transform="translate(324.722,59.41)"
       id="g22"><path
         id="path24"
         style="fill:none;stroke:#231f20;stroke-width:2;stroke-linecap:butt;stroke-linejoin:miter;stroke-miterlimit:4;stroke-dasharray:none;stroke-opacity:1"
         d="M 0,0 -170.225,-0.015 -271.601,-58.544" /></g><g
       transform="translate(328.265,60.948)"
       id="g26"><path
         id="path28"
         style="fill:#231f20;fill-opacity:1;fill-rule:nonzero;stroke:none"
         d="m 0,0 c -2.481,0.749 -4.093,1.438 -6.082,2.236 l 10e-4,-7.566 c 0.712,0.339 3.6,1.489 6.081,2.238 2.654,0.802 5.06,1.351 6.621,1.547 C 5.06,-1.35 2.654,-0.802 0,0" /></g><text
       id="text32"
       style="font-variant:normal;font-weight:normal;font-stretch:normal;font-size:10px;font-family:Helvetica;-inkscape-font-specification:Helvetica;writing-mode:lr-tb;fill:#231f20;fill-opacity:1;fill-rule:nonzero;stroke:none"
       transform="matrix(1,0,0,-1,321.291,4.6543)"><tspan
         id="tspan30"
         y="0"
         x="0 2.48 8.04 13.04 18.6 24.16 29.719999 35.279999 40.84 46.400002 51.959999 57.52 61.150002">face_boundary</tspan></text>
<g
       transform="translate(154.362,64.851)"
       id="g34"><path
         id="path36"
         style="fill:none;stroke:#231f20;stroke-width:1;stroke-linecap:butt;stroke-linejoin:miter;stroke-miterlimit:4;stroke-dasharray:none;stroke-opacity:1"
         d="M 0,0 0.016,37.177" /></g><g
       transform="translate(153.609,103.799)"
       id="g38"><path
         id="path40"
         style="fill:#231f20;fill-opacity:1;fill-rule:nonzero;stroke:none"
         d="M 0,0 C -0.375,-1.24 -0.72,-2.046 -1.12,-3.04 L 2.664,-3.041 C 2.495,-2.686 1.919,-1.24 1.546,0 1.145,1.327 0.871,2.53 0.773,3.311 0.675,2.53 0.401,1.327 0,0" /></g><text
       id="text46"
       style="font-variant:normal;font-weight:normal;font-stretch:normal;font-size:10px;font-family:Helvetica;-inkscape-font-specification:Helvetica;writing-mode:lr-tb;fill:#231f20;fill-opacity:1;fill-rule:nonzero;stroke:none"
       transform="matrix(1,0,0,-1,160.2324,87.6543)"><tspan
         id="tspan42"
         y="0"
         x="0 3.3299999 8.8900003 17.219999 22.629999 27.379999 32.939999 35.16 40.720001 46.279999 48.5 51.830002 57.389999 62.389999 65.169998 67.389999 72.949997">removal_direction</tspan><tspan
         id="tspan44"
         y="-33.953999"
         x="-23.007 -19.677 -14.117 -5.7870002 -0.377 4.3730001 9.9329996 12.153 17.712999 23.273001 28.833 34.393002 37.173">removal_depth</tspan></text>
<path
       id="path48"
       style="fill:none;stroke:#231f20;stroke-width:1;stroke-linecap:butt;stroke-linejoin:miter;stroke-miterlimit:4;stroke-dasharray:4;stroke-dashoffset:0;stroke-opacity:1"
       d="m 128.237,62.494 0.015,61.333" /><g
       transform="translate(123.911,125.082)"
       id="g50"><path
         id="path52"
         style="fill:none;stroke:#231f20;stroke-width:1;stroke-linecap:butt;stroke-linejoin:miter;stroke-miterlimit:4;stroke-dasharray:none;stroke-opacity:1"
         d="M 0,0 H 8.666" /><g
         transform="translate(-0.008,-65.23)"
         id="g54"><path
           id="path56"
           style="fill:none;stroke:#231f20;stroke-width:1;stroke-linecap:butt;stroke-linejoin:miter;stroke-miterlimit:4;stroke-dasharray:none;stroke-opacity:1"
           d="M 0,0 H 8.667" /></g></g><g
       transform="translate(159.153,64.093)"
       id="g58"><path
         id="path60"
         style="fill:none;stroke:#231f20;stroke-width:0.5;stroke-linecap:butt;stroke-linejoin:miter;stroke-miterlimit:4;stroke-dasharray:none;stroke-opacity:1"
         d="M 0,0 H 8.635" /></g><g
       transform="translate(168.672,64.478)"
       id="g62"><path
         id="path64"
         style="fill:#231f20;fill-opacity:1;fill-rule:nonzero;stroke:none"
         d="m 0,0 c -0.619,0.188 -1.024,0.359 -1.52,0.558 v -1.89 c 0.178,0.084 0.901,0.371 1.52,0.558 0.664,0.202 1.266,0.338 1.656,0.387 C 1.266,-0.338 0.664,-0.201 0,0" /></g><g
       transform="translate(149.075,61.067)"
       id="g66"><path
         id="path68"
         style="fill:none;stroke:#231f20;stroke-width:0.5;stroke-linecap:butt;stroke-linejoin:miter;stroke-miterlimit:4;stroke-dasharray:none;stroke-opacity:1"
         d="M 0,0 -6.471,-4.316" /></g><g
       transform="translate(142.03,55.974)"
       id="g70"><path
         id="path72"
         style="fill:#231f20;fill-opacity:1;fill-rule:nonzero;stroke:none"
         d="M 0,0 C 0.631,0.149 1.066,0.201 1.596,0.275 L 0.65,1.914 C 0.539,1.752 0.057,1.143 -0.387,0.67 -0.861,0.164 -1.314,-0.256 -1.627,-0.492 -1.266,-0.34 -0.675,-0.158 0,0" /></g><text
       id="text80"
       style="font-variant:normal;font-weight:normal;font-stretch:normal;font-size:9px;font-family:Helvetica;-inkscape-font-specification:Helvetica;writing-mode:lr-tb;fill:#231f20;fill-opacity:1;fill-rule:nonzero;stroke:none"
       transform="matrix(1,0,0,-1,157.5278,72.667)"><tspan
         id="tspan74"
         y="0"
         x="0">z</tspan><tspan
         id="tspan76"
         y="19.333799"
         x="-22.6656">x</tspan><tspan
         id="tspan78"
         y="8.8884001"
         x="14.8392">y</tspan></text>
<text
       id="text84"
       style="font-variant:normal;font-weight:normal;font-stretch:normal;font-size:10px;font-family:Helvetica;-inkscape-font-specification:Helvetica;writing-mode:lr-tb;fill:#231f20;fill-opacity:1;fill-rule:nonzero;stroke:none"
       transform="matrix(1,0,0,-1,174.375,24.5625)"><tspan
         id="tspan82"
         y="0"
         x="0 2.48 8.04 13.6 16.379999 21.940001 25.27 30.83 33.610001 39.169998 42.650002 44.869999 50.43 52.650002">feature origin</tspan></text>
<path
       id="path86"
       style="fill:#ffffff;fill-opacity:1;fill-rule:nonzero;stroke:#ffffff;stroke-width:1;stroke-linecap:butt;stroke-linejoin:miter;stroke-miterlimit:4;stroke-dasharray:none;stroke-opacity:1"
       d="m 158.45,53.351 h -7 v -8 h 7 z" /><g
       transform="translate(155.45,53.335)"
       id="g88"><path
         id="path90"
         style="fill:none;stroke:#231f20;stroke-width:1;stroke-linecap:butt;stroke-linejoin:miter;stroke-miterlimit:4;stroke-dasharray:none;stroke-opacity:1"
         d="M 0,0 C 0.809,-7.533 -5.746,-15.585 -1.913,-23.523 0.82,-29.182 9.384,-26.632 14.5,-27.5" /></g><g
       transform="translate(154.497,55.014)"
       id="g92"><path
         id="path94"
         style="fill:#231f20;fill-opacity:1;fill-rule:nonzero;stroke:none"
         d="m 0,0 c -0.24,-1.273 -0.498,-2.111 -0.788,-3.143 l 3.762,0.404 C 2.768,-2.403 2.041,-1.028 1.537,0.165 0.997,1.442 0.595,2.609 0.414,3.375 0.401,2.588 0.256,1.362 0,0" /></g></g></svg>