<?xml version="1.0" encoding="UTF-8" standalone="no"?>
<svg
   xmlns:dc="http://purl.org/dc/elements/1.1/"
   xmlns:cc="http://creativecommons.org/ns#"
   xmlns:rdf="http://www.w3.org/1999/02/22-rdf-syntax-ns#"
   xmlns:svg="http://www.w3.org/2000/svg"
   xmlns="http://www.w3.org/2000/svg"
   xmlns:sodipodi="http://sodipodi.sourceforge.net/DTD/sodipodi-0.dtd"
   xmlns:inkscape="http://www.inkscape.org/namespaces/inkscape"
   inkscape:version="1.0beta2 (f3d5b5a, 2020-03-13)"
   sodipodi:docname="pocket_origin.svg"
   version="1.1"
   id="svg2"
   xml:space="preserve"
   width="574.50665"
   height="231.04401"
   viewBox="0 0 574.50665 231.04401"><sodipodi:namedview
     inkscape:current-layer="svg2"
     inkscape:cy="115.522"
     inkscape:cx="287.25333"
     inkscape:zoom="2.0278268"
     showgrid="false"
     id="namedview8716"
     inkscape:window-height="480"
     inkscape:window-width="640"
     inkscape:pageshadow="2"
     inkscape:pageopacity="0"
     guidetolerance="10"
     gridtolerance="10"
     objecttolerance="10"
     borderopacity="1"
     bordercolor="#666666"
     pagecolor="#ffffff" /><metadata
     id="metadata8"><rdf:RDF><cc:Work
         rdf:about=""><dc:format>image/svg+xml</dc:format><dc:type
           rdf:resource="http://purl.org/dc/dcmitype/StillImage" /></cc:Work></rdf:RDF></metadata><defs
     id="defs6">







<marker
   inkscape:stockid="Arrow1Mend"
   orient="auto"
   refY="0"
   refX="0"
   id="Arrow1Mend"
   style="overflow:visible"
   inkscape:isstock="true"><path
     inkscape:connector-curvature="0"
     id="path919"
     d="M 0,0 5,-5 -12.5,0 5,5 Z"
     style="fill:#000000;fill-opacity:1;fill-rule:evenodd;stroke:#000000;stroke-width:1pt;stroke-opacity:1"
     transform="matrix(-0.4,0,0,-0.4,-4,0)" /></marker><marker
   inkscape:isstock="true"
   style="overflow:visible"
   id="Arrow1Mend-4"
   refX="0"
   refY="0"
   orient="auto"
   inkscape:stockid="Arrow1Mend"><path
     transform="matrix(-0.4,0,0,-0.4,-4,0)"
     style="fill:#000000;fill-opacity:1;fill-rule:evenodd;stroke:#000000;stroke-width:1pt;stroke-opacity:1"
     d="M 0,0 5,-5 -12.5,0 5,5 Z"
     id="path919-6"
     inkscape:connector-curvature="0" /></marker><marker
   inkscape:isstock="true"
   style="overflow:visible"
   id="Arrow1Mend-9"
   refX="0"
   refY="0"
   orient="auto"
   inkscape:stockid="Arrow1Mend"
   inkscape:collect="always"><path
     transform="matrix(-0.4,0,0,-0.4,-4,0)"
     style="fill:#000000;fill-opacity:1;fill-rule:evenodd;stroke:#000000;stroke-width:1pt;stroke-opacity:1"
     d="M 0,0 5,-5 -12.5,0 5,5 Z"
     id="path919-7"
     inkscape:connector-curvature="0" /></marker><marker
   inkscape:stockid="Arrow1Mend"
   orient="auto"
   refY="0"
   refX="0"
   id="marker8147"
   style="overflow:visible"
   inkscape:isstock="true"
   inkscape:collect="always"><path
     inkscape:connector-curvature="0"
     id="path8145"
     d="M 0,0 5,-5 -12.5,0 5,5 Z"
     style="fill:#000000;fill-opacity:1;fill-rule:evenodd;stroke:#000000;stroke-width:1pt;stroke-opacity:1"
     transform="matrix(-0.4,0,0,-0.4,-4,0)" /></marker><marker
   inkscape:stockid="Arrow1Mend"
   orient="auto"
   refY="0"
   refX="0"
   id="marker8157"
   style="overflow:visible"
   inkscape:isstock="true"><path
     inkscape:connector-curvature="0"
     id="path8155"
     d="M 0,0 5,-5 -12.5,0 5,5 Z"
     style="fill:#000000;fill-opacity:1;fill-rule:evenodd;stroke:#000000;stroke-width:1pt;stroke-opacity:1"
     transform="matrix(-0.4,0,0,-0.4,-4,0)" /></marker><marker
   inkscape:stockid="Arrow1Mend"
   orient="auto"
   refY="0"
   refX="0"
   id="marker8301"
   style="overflow:visible"
   inkscape:isstock="true"><path
     inkscape:connector-curvature="0"
     id="path8299"
     d="M 0,0 5,-5 -12.5,0 5,5 Z"
     style="fill:#000000;fill-opacity:1;fill-rule:evenodd;stroke:#000000;stroke-width:1pt;stroke-opacity:1"
     transform="matrix(-0.4,0,0,-0.4,-4,0)" /></marker><marker
   inkscape:stockid="Arrow1Mstart"
   orient="auto"
   refY="0"
   refX="0"
   id="Arrow1Mstart"
   style="overflow:visible"
   inkscape:isstock="true"
   inkscape:collect="always"><path
     inkscape:connector-curvature="0"
     id="path916"
     d="M 0,0 5,-5 -12.5,0 5,5 Z"
     style="fill:#000000;fill-opacity:1;fill-rule:evenodd;stroke:#000000;stroke-width:1pt;stroke-opacity:1"
     transform="matrix(0.4,0,0,0.4,4,0)" /></marker><marker
   inkscape:stockid="Arrow1Mend"
   orient="auto"
   refY="0"
   refX="0"
   id="marker8463"
   style="overflow:visible"
   inkscape:isstock="true"><path
     inkscape:connector-curvature="0"
     id="path8461"
     d="M 0,0 5,-5 -12.5,0 5,5 Z"
     style="fill:#000000;fill-opacity:1;fill-rule:evenodd;stroke:#000000;stroke-width:1pt;stroke-opacity:1"
     transform="matrix(-0.4,0,0,-0.4,-4,0)" /></marker></defs><path
     inkscape:connector-curvature="0"
     d="m 86.369331,69.758671 -0.01733,97.135999"
     style="fill:none;stroke:#231f20;stroke-width:2.66667;stroke-linecap:butt;stroke-linejoin:miter;stroke-miterlimit:4;stroke-dasharray:none;stroke-opacity:1"
     id="path18" /><path
     inkscape:connector-curvature="0"
     d="m 84.301331,171.61733 c -0.998667,-3.30667 -1.917333,-5.456 -2.981333,-8.108 l 10.087999,0.001 c -0.451999,0.94934 -1.985333,4.80134 -2.983999,8.108 -1.070667,3.53867 -1.802667,6.748 -2.064,8.82934 -0.26,-2.08134 -0.990667,-5.29067 -2.058667,-8.83067"
     style="fill:#231f20;fill-opacity:1;fill-rule:nonzero;stroke:none;stroke-width:1.33333"
     id="path22" /><path
     inkscape:connector-curvature="0"
     d="M 86.230665,69.960004 V 81.473337"
     style="fill:none;stroke:#231f20;stroke-width:0.666667;stroke-linecap:butt;stroke-linejoin:miter;stroke-miterlimit:4;stroke-dasharray:none;stroke-opacity:1"
     id="path26" /><path
     inkscape:connector-curvature="0"
     d="m 86.743998,82.65467 c 0.250667,-0.828 0.478667,-1.364 0.746667,-2.028 h -2.522667 c 0.112,0.236 0.496,1.2 0.745333,2.028 0.268,0.882667 0.449334,1.688 0.514667,2.205333 0.06533,-0.517333 0.249333,-1.322666 0.516,-2.205333"
     style="fill:#231f20;fill-opacity:1;fill-rule:nonzero;stroke:none;stroke-width:1.33333"
     id="path30" /><path
     inkscape:connector-curvature="0"
     d="M 86.230665,69.962671 H 74.715999"
     style="fill:none;stroke:#231f20;stroke-width:0.666667;stroke-linecap:butt;stroke-linejoin:miter;stroke-miterlimit:4;stroke-dasharray:none;stroke-opacity:1"
     id="path34" /><path
     inkscape:connector-curvature="0"
     d="m 73.537331,70.476004 c 0.825333,0.249333 1.364,0.478667 2.025333,0.745333 v -2.521333 c -0.236,0.112 -1.2,0.494667 -2.025333,0.744 -0.885333,0.269333 -1.688,0.450667 -2.208,0.516 0.52,0.06533 1.322667,0.248 2.208,0.516"
     style="fill:#231f20;fill-opacity:1;fill-rule:nonzero;stroke:none;stroke-width:1.33333"
     id="path38" /><path
     inkscape:connector-curvature="0"
     d="m 85.921331,70.266671 -8.628,5.754667"
     style="fill:none;stroke:#231f20;stroke-width:0.666667;stroke-linecap:butt;stroke-linejoin:miter;stroke-miterlimit:4;stroke-dasharray:none;stroke-opacity:1"
     id="path42" /><path
     inkscape:connector-curvature="0"
     d="m 76.527998,77.058671 c 0.841333,-0.198667 1.421333,-0.268 2.128,-0.366667 l -1.261333,-2.185333 c -0.148,0.216 -0.790667,1.028 -1.382667,1.658667 -0.632,0.674666 -1.236,1.234666 -1.653333,1.549333 0.481333,-0.202667 1.269333,-0.445333 2.169333,-0.656"
     style="fill:#231f20;fill-opacity:1;fill-rule:nonzero;stroke:none;stroke-width:1.33333"
     id="path46" /><text
     y="89.509468"
     x="90.473061"
     id="text54"
     style="font-variant:normal;font-weight:normal;font-stretch:normal;font-size:12px;font-family:Helvetica;-inkscape-font-specification:Helvetica;writing-mode:lr-tb;fill:#231f20;fill-opacity:1;fill-rule:nonzero;stroke:none;stroke-width:1.33333"><tspan
       style="stroke-width:1.33333"
       id="tspan48"
       y="89.509468"
       x="90.473061">z</tspan><tspan
       style="stroke-width:1.33333"
       id="tspan50"
       y="87.183868"
       x="69.668663">x</tspan><tspan
       style="stroke-width:1.33333"
       id="tspan52"
       y="68.090668"
       x="66.144264">y</tspan></text><path
     inkscape:connector-curvature="0"
     d="M 548.30132,220.5804 H 385.63466 l 26.20533,-72 h 162.66666 l -26.20533,72"
     style="fill:#939598;fill-opacity:1;fill-rule:nonzero;stroke:none;stroke-width:1.33333"
     id="path66" /><path
     inkscape:connector-curvature="0"
     d="M 543.50132,215.78 H 380.83466 l 26.20533,-72 h 162.66666 z"
     style="fill:#ffffff;fill-opacity:1;fill-rule:nonzero;stroke:#231f20;stroke-width:1.33333;stroke-linecap:butt;stroke-linejoin:miter;stroke-miterlimit:4;stroke-dasharray:none;stroke-opacity:1"
     id="path70" /><path
     inkscape:connector-curvature="0"
     d="M 476.02265,70.294671 V 58.781338"
     style="fill:none;stroke:#231f20;stroke-width:0.666667;stroke-linecap:butt;stroke-linejoin:miter;stroke-miterlimit:4;stroke-dasharray:none;stroke-opacity:1"
     id="path80" /><path
     inkscape:connector-curvature="0"
     d="m 475.51065,57.600004 c -0.24933,0.828 -0.47867,1.365333 -0.74667,2.029333 h 2.52267 c -0.112,-0.237333 -0.496,-1.201333 -0.74533,-2.029333 -0.268,-0.882667 -0.44934,-1.688 -0.51467,-2.205333 -0.0653,0.517333 -0.24933,1.322666 -0.516,2.205333"
     style="fill:#231f20;fill-opacity:1;fill-rule:nonzero;stroke:none;stroke-width:1.33333"
     id="path84" /><path
     inkscape:connector-curvature="0"
     d="m 476.02265,70.292004 h 11.51467"
     style="fill:none;stroke:#231f20;stroke-width:0.666667;stroke-linecap:butt;stroke-linejoin:miter;stroke-miterlimit:4;stroke-dasharray:none;stroke-opacity:1"
     id="path88" /><path
     inkscape:connector-curvature="0"
     d="m 488.71732,69.780004 c -0.82533,-0.250667 -1.364,-0.478667 -2.02667,-0.745333 v 2.521333 c 0.23734,-0.112 1.20134,-0.494667 2.02667,-0.745333 0.88533,-0.268 1.688,-0.449334 2.208,-0.514667 -0.52,-0.06533 -1.32267,-0.248 -2.208,-0.516"
     style="fill:#231f20;fill-opacity:1;fill-rule:nonzero;stroke:none;stroke-width:1.33333"
     id="path92" /><path
     inkscape:connector-curvature="0"
     d="m 476.02265,70.294671 -8.628,5.754667"
     style="fill:none;stroke:#231f20;stroke-width:0.666667;stroke-linecap:butt;stroke-linejoin:miter;stroke-miterlimit:4;stroke-dasharray:none;stroke-opacity:1"
     id="path96" /><path
     inkscape:connector-curvature="0"
     d="m 466.62932,77.086671 c 0.84133,-0.198667 1.42133,-0.268 2.128,-0.366667 l -1.26133,-2.185333 c -0.148,0.216 -0.79067,1.028 -1.38267,1.658667 -0.632,0.674666 -1.236,1.234666 -1.65333,1.549333 0.48133,-0.202667 1.26933,-0.445333 2.16933,-0.656"
     style="fill:#231f20;fill-opacity:1;fill-rule:nonzero;stroke:none;stroke-width:1.33333"
     id="path100" /><text
     y="60.20414"
     x="480.5752"
     id="text108"
     style="font-variant:normal;font-weight:normal;font-stretch:normal;font-size:12px;font-family:Helvetica;-inkscape-font-specification:Helvetica;writing-mode:lr-tb;fill:#231f20;fill-opacity:1;fill-rule:nonzero;stroke:none;stroke-width:1.33333"><tspan
       style="stroke-width:1.33333"
       id="tspan102"
       y="60.20414"
       x="480.5752">z</tspan><tspan
       style="stroke-width:1.33333"
       id="tspan104"
       y="72.544937"
       x="461.104">x</tspan><tspan
       style="stroke-width:1.33333"
       id="tspan106"
       y="80.118141"
       x="485.57919">y</tspan></text><path
     inkscape:connector-curvature="0"
     d="m 283.11999,177.34267 -0.0173,-97.135998"
     style="fill:none;stroke:#231f20;stroke-width:2.66667;stroke-linecap:butt;stroke-linejoin:miter;stroke-miterlimit:4;stroke-dasharray:none;stroke-opacity:1"
     id="path112" /><path
     inkscape:connector-curvature="0"
     d="m 281.05066,75.484004 c -0.99733,3.306667 -1.91733,5.456 -2.98133,8.108 l 10.088,-0.0013 c -0.45067,-0.949333 -1.98534,-4.801333 -2.984,-8.107999 -1.07067,-3.538667 -1.80267,-6.746667 -2.064,-8.829333 -0.26,2.082666 -0.99067,5.290666 -2.05867,8.830666"
     style="fill:#231f20;fill-opacity:1;fill-rule:nonzero;stroke:none;stroke-width:1.33333"
     id="path116" /><path
     inkscape:connector-curvature="0"
     d="M 283.02399,177.352 V 165.83867"
     style="fill:none;stroke:#231f20;stroke-width:0.666667;stroke-linecap:butt;stroke-linejoin:miter;stroke-miterlimit:4;stroke-dasharray:none;stroke-opacity:1"
     id="path120" /><path
     inkscape:connector-curvature="0"
     d="m 282.51066,164.656 c -0.24933,0.828 -0.47867,1.36533 -0.74667,2.02933 h 2.52267 c -0.112,-0.23733 -0.496,-1.20133 -0.74533,-2.02933 -0.268,-0.88267 -0.44934,-1.688 -0.51467,-2.20533 -0.0653,0.51733 -0.24933,1.32266 -0.516,2.20533"
     style="fill:#231f20;fill-opacity:1;fill-rule:nonzero;stroke:none;stroke-width:1.33333"
     id="path124" /><path
     inkscape:connector-curvature="0"
     d="m 283.02399,177.34933 h 11.51467"
     style="fill:none;stroke:#231f20;stroke-width:0.666667;stroke-linecap:butt;stroke-linejoin:miter;stroke-miterlimit:4;stroke-dasharray:none;stroke-opacity:1"
     id="path128" /><path
     inkscape:connector-curvature="0"
     d="m 295.71733,176.836 c -0.82533,-0.25067 -1.364,-0.47867 -2.02533,-0.74533 v 2.52133 c 0.236,-0.112 1.2,-0.49467 2.02533,-0.74533 0.88533,-0.268 1.688,-0.44934 2.208,-0.51467 -0.52,-0.0653 -1.32267,-0.248 -2.208,-0.516"
     style="fill:#231f20;fill-opacity:1;fill-rule:nonzero;stroke:none;stroke-width:1.33333"
     id="path132" /><path
     inkscape:connector-curvature="0"
     d="m 283.02399,177.352 -8.628,5.75467"
     style="fill:none;stroke:#231f20;stroke-width:0.666667;stroke-linecap:butt;stroke-linejoin:miter;stroke-miterlimit:4;stroke-dasharray:none;stroke-opacity:1"
     id="path136" /><path
     inkscape:connector-curvature="0"
     d="m 273.63066,184.144 c 0.84133,-0.19867 1.42133,-0.268 2.128,-0.36667 l -1.26133,-2.18533 c -0.148,0.216 -0.79067,1.028 -1.38267,1.65867 -0.632,0.67466 -1.236,1.23466 -1.65333,1.54933 0.48133,-0.20267 1.26933,-0.44533 2.16933,-0.656"
     style="fill:#231f20;fill-opacity:1;fill-rule:nonzero;stroke:none;stroke-width:1.33333"
     id="path140" /><text
     y="167.2608"
     x="287.57587"
     id="text148"
     style="font-variant:normal;font-weight:normal;font-stretch:normal;font-size:12px;font-family:Helvetica;-inkscape-font-specification:Helvetica;writing-mode:lr-tb;fill:#231f20;fill-opacity:1;fill-rule:nonzero;stroke:none;stroke-width:1.33333"><tspan
       style="stroke-width:1.33333"
       id="tspan142"
       y="167.2608"
       x="287.57587">z</tspan><tspan
       style="stroke-width:1.33333"
       id="tspan144"
       y="179.60159"
       x="268.10468">x</tspan><tspan
       style="stroke-width:1.33333"
       id="tspan146"
       y="187.1748"
       x="292.57986">y</tspan></text><path
     id="path156"
     style="fill:none;stroke:#231f20;stroke-width:0.333333;stroke-linecap:butt;stroke-linejoin:miter;stroke-miterlimit:4;stroke-dasharray:16;stroke-dashoffset:0;stroke-opacity:1"
     d="M 38.425332,43.656005 V 150.50667 M 154.32266,43.305338 V 150.156 M 133.74533,99.336003 H 18.189333 L 38.571999,43.336005 H 154.128 Z m 0,107.555997 H 18.189333 l 20.382666,-56 H 154.128 Z M 17.321333,99.53067 V 206.38133 M 133.22,99.17867 v 106.852 M 235.20666,40.004005 V 146.856 M 351.10399,39.653338 V 146.504 m -20.576,-50.819997 h -115.556 l 20.38267,-55.999998 h 115.556 z M 330.52666,203.24 h -115.556 l 20.38267,-56 H 350.90932 Z M 214.10266,95.87867 V 202.72933 M 330.00133,95.528003 V 202.37867 M 427.87332,43.337338 V 150.18934 M 543.77065,42.986671 V 149.83734 m -20.576,-50.820003 H 407.63866 l 20.38266,-55.999999 h 115.556 z m -10e-4,107.555993 h -115.556 l 20.38267,-55.99999 h 115.556 z M 406.76932,99.212003 V 206.06267 M 522.66799,98.861337 V 205.712"
     inkscape:connector-curvature="0" /><g
     transform="translate(-2.1890838,-0.58830567)"
     id="g9552"><text
       id="text7960"
       y="21.204967"
       x="53.752125"
       style="font-size:13.3333px;line-height:1;font-family:Helvetica;-inkscape-font-specification:'Helvetica Normal';letter-spacing:0px;word-spacing:0px"
       xml:space="preserve"><tspan
         y="21.204967"
         x="53.752125"
         id="tspan7958"
         sodipodi:role="line">1</tspan></text><text
       id="text7964"
       y="21.204967"
       x="251.50076"
       style="font-size:13.3333px;line-height:1;font-family:Helvetica;-inkscape-font-specification:'Helvetica Normal';letter-spacing:0px;word-spacing:0px"
       xml:space="preserve"><tspan
         y="21.204967"
         x="251.50076"
         id="tspan7962"
         sodipodi:role="line">2</tspan></text><text
       id="text7968"
       y="21.120331"
       x="443.82489"
       style="font-size:13.3333px;line-height:1;font-family:Helvetica;-inkscape-font-specification:'Helvetica Normal';letter-spacing:0px;word-spacing:0px"
       xml:space="preserve"><tspan
         y="21.120331"
         x="443.82489"
         id="tspan7966"
         sodipodi:role="line">3</tspan></text><path
       inkscape:connector-curvature="0"
       id="path7982"
       d="m 64.601177,15.965385 c 0,0 17.752996,-2.958832 23.177522,4.931388 5.424526,7.89022 9.369636,16.273579 9.369636,16.273579"
       style="fill:none;stroke:#000000;stroke-width:1px;stroke-linecap:butt;stroke-linejoin:miter;stroke-opacity:1;marker-end:url(#Arrow1Mend)" /><path
       style="fill:none;stroke:#000000;stroke-width:1px;stroke-linecap:butt;stroke-linejoin:miter;stroke-opacity:1;marker-end:url(#Arrow1Mend-4)"
       d="m 264.93019,15.965385 c 0,0 17.753,-2.958832 23.17752,4.931388 5.42453,7.89022 9.36964,16.273579 9.36964,16.273579"
       id="path7982-5"
       inkscape:connector-curvature="0" /><path
       style="fill:none;stroke:#000000;stroke-width:1px;stroke-linecap:butt;stroke-linejoin:miter;stroke-opacity:1;marker-end:url(#Arrow1Mend-9)"
       d="m 453.3092,15.965385 c 0,0 17.753,-2.958832 23.17753,4.931388 5.42452,7.89022 9.36963,16.273579 9.36963,16.273579"
       id="path7982-1"
       inkscape:connector-curvature="0" /></g><text
     xml:space="preserve"
     style="font-size:13.3333px;line-height:1;font-family:Helvetica;-inkscape-font-specification:'Helvetica Normal';letter-spacing:0px;word-spacing:0px"
     x="180.54355"
     y="135.50917"
     id="text7972"><tspan
       sodipodi:role="line"
       id="tspan7970"
       x="180.54355"
       y="135.50917">4</tspan></text><path
     style="fill:none;stroke:#000000;stroke-width:1px;stroke-linecap:butt;stroke-linejoin:miter;stroke-opacity:1;marker-end:url(#marker8157)"
     d="m 193.36515,130.57778 c 0,0 57.69723,-0.49314 47.34132,8.38336 -10.35592,8.8765 36.9854,8.38336 36.9854,8.38336"
     id="path8141"
     inkscape:connector-curvature="0" /><path
     style="fill:none;stroke:#000000;stroke-width:1px;stroke-linecap:butt;stroke-linejoin:miter;stroke-opacity:1;marker-end:url(#marker8147)"
     d="m 175.61215,130.57778 c 0,0 -81.367892,-6.90394 -57.69723,-13.31474 23.67066,-6.41081 -26.629494,-7.39709 -26.629494,-7.39709"
     id="path8143"
     inkscape:connector-curvature="0" /><text
     xml:space="preserve"
     style="font-size:13.3333px;line-height:1;font-family:Helvetica;-inkscape-font-specification:'Helvetica Normal';letter-spacing:0px;word-spacing:0px"
     x="174.46942"
     y="223.80573"
     id="text7976"><tspan
       sodipodi:role="line"
       id="tspan7974"
       x="174.46942"
       y="223.80573">5</tspan></text><path
     style="fill:none;stroke:#000000;stroke-width:1px;stroke-linecap:butt;stroke-linejoin:miter;stroke-opacity:1;marker-end:url(#Arrow1Mstart)"
     d="m 186.79788,218.3812 c 0,0 18.24614,2.95883 30.08147,-5.91767 11.83533,-8.87649 7.39708,-4.93138 7.39708,-4.93138"
     id="path8219"
     inkscape:connector-curvature="0" /><path
     style="fill:none;stroke:#000000;stroke-width:1px;stroke-linecap:butt;stroke-linejoin:miter;stroke-opacity:1;marker-end:url(#marker8301)"
     d="m 171.01744,218.87434 c 0,0 -17.25985,3.94511 -29.09518,-2.95884 -11.83533,-6.90394 -12.82161,-7.39708 -12.82161,-7.39708"
     id="path8223"
     inkscape:connector-curvature="0" /><text
     xml:space="preserve"
     style="font-size:13.3333px;line-height:1;font-family:Helvetica;-inkscape-font-specification:'Helvetica Normal';letter-spacing:0px;word-spacing:0px"
     x="445.67874"
     y="179.32692"
     id="text7980"><tspan
       sodipodi:role="line"
       id="tspan7978"
       x="445.67874"
       y="179.32692">6</tspan></text><path
     style="fill:none;stroke:#000000;stroke-width:1px;stroke-linecap:butt;stroke-linejoin:miter;stroke-opacity:1;marker-end:url(#marker8463)"
     d="m 457.02089,174.39553 15.28731,1.47942 c 5.62738,-1.20526 14.30101,9.86277 14.30101,9.86277"
     id="path8459"
     inkscape:connector-curvature="0"
     sodipodi:nodetypes="ccc" /></svg>
