<?xml version="1.0" encoding="UTF-8" standalone="no"?>
<svg
   xmlns:dc="http://purl.org/dc/elements/1.1/"
   xmlns:cc="http://creativecommons.org/ns#"
   xmlns:rdf="http://www.w3.org/1999/02/22-rdf-syntax-ns#"
   xmlns:svg="http://www.w3.org/2000/svg"
   xmlns="http://www.w3.org/2000/svg"
   viewBox="0 0 574.50665 231.04401"
   height="231.04401"
   width="574.50665"
   xml:space="preserve"
   id="svg2"
   version="1.1"><metadata
     id="metadata8"><rdf:RDF><cc:Work
         rdf:about=""><dc:format>image/svg+xml</dc:format><dc:type
           rdf:resource="http://purl.org/dc/dcmitype/StillImage" /></cc:Work></rdf:RDF></metadata><defs
     id="defs6" /><g
     transform="matrix(1.3333333,0,0,-1.3333333,0,231.044)"
     id="g10"><text
       id="text14"
       style="font-variant:normal;font-weight:normal;font-stretch:normal;font-size:10px;font-family:Helvetica;-inkscape-font-specification:Helvetica;writing-mode:lr-tb;fill:#231f20;fill-opacity:1;fill-rule:nonzero;stroke:none"
       transform="matrix(1,0,0,-1,159.7465,2.25)"><tspan
         id="tspan12"
         y="0"
         x="0 2.783 8.3430004 13.903 16.683001 19.462999 25.023001 33.353001 36.132999 41.693001 44.473 47.252998 50.033001 55.592999 61.153 63.932999 69.492996 75.053001 79.852997 84.653 90.212997">bottom of the pocket</tspan></text>
<g
       transform="translate(64.777,120.964)"
       id="g16"><path
         id="path18"
         style="fill:none;stroke:#231f20;stroke-width:2;stroke-linecap:butt;stroke-linejoin:miter;stroke-miterlimit:4;stroke-dasharray:none;stroke-opacity:1"
         d="M 0,0 -0.013,-72.852" /></g><g
       transform="translate(63.226,44.57)"
       id="g20"><path
         id="path22"
         style="fill:#231f20;fill-opacity:1;fill-rule:nonzero;stroke:none"
         d="M 0,0 C -0.749,2.48 -1.438,4.092 -2.236,6.081 L 5.33,6.08 C 4.991,5.368 3.841,2.479 3.092,-0.001 2.289,-2.655 1.74,-5.062 1.544,-6.623 1.349,-5.062 0.801,-2.655 0,0" /></g><g
       transform="translate(64.673,120.813)"
       id="g24"><path
         id="path26"
         style="fill:none;stroke:#231f20;stroke-width:0.5;stroke-linecap:butt;stroke-linejoin:miter;stroke-miterlimit:4;stroke-dasharray:none;stroke-opacity:1"
         d="M 0,0 V -8.635" /></g><g
       transform="translate(65.058,111.292)"
       id="g28"><path
         id="path30"
         style="fill:#231f20;fill-opacity:1;fill-rule:nonzero;stroke:none"
         d="M 0,0 C 0.188,0.621 0.359,1.023 0.56,1.521 H -1.332 C -1.248,1.344 -0.96,0.621 -0.773,0 -0.572,-0.662 -0.436,-1.266 -0.387,-1.654 -0.338,-1.266 -0.2,-0.662 0,0" /></g><g
       transform="translate(64.673,120.811)"
       id="g32"><path
         id="path34"
         style="fill:none;stroke:#231f20;stroke-width:0.5;stroke-linecap:butt;stroke-linejoin:miter;stroke-miterlimit:4;stroke-dasharray:none;stroke-opacity:1"
         d="M 0,0 H -8.636" /></g><g
       transform="translate(55.153,120.426)"
       id="g36"><path
         id="path38"
         style="fill:#231f20;fill-opacity:1;fill-rule:nonzero;stroke:none"
         d="M 0,0 C 0.619,-0.187 1.023,-0.359 1.519,-0.559 V 1.332 C 1.342,1.248 0.619,0.961 0,0.774 -0.664,0.572 -1.266,0.436 -1.656,0.387 -1.266,0.338 -0.664,0.201 0,0" /></g><g
       transform="translate(64.441,120.583)"
       id="g40"><path
         id="path42"
         style="fill:none;stroke:#231f20;stroke-width:0.5;stroke-linecap:butt;stroke-linejoin:miter;stroke-miterlimit:4;stroke-dasharray:none;stroke-opacity:1"
         d="M 0,0 -6.471,-4.316" /></g><g
       transform="translate(57.396,115.489)"
       id="g44"><path
         id="path46"
         style="fill:#231f20;fill-opacity:1;fill-rule:nonzero;stroke:none"
         d="M 0,0 C 0.631,0.149 1.066,0.201 1.596,0.275 L 0.65,1.914 C 0.539,1.752 0.057,1.143 -0.387,0.67 -0.861,0.164 -1.314,-0.256 -1.627,-0.492 -1.266,-0.34 -0.675,-0.158 0,0" /></g><text
       id="text54"
       style="font-variant:normal;font-weight:normal;font-stretch:normal;font-size:9px;font-family:Helvetica;-inkscape-font-specification:Helvetica;writing-mode:lr-tb;fill:#231f20;fill-opacity:1;fill-rule:nonzero;stroke:none"
       transform="matrix(1,0,0,-1,67.8548,106.1509)"><tspan
         id="tspan48"
         y="0"
         x="0">z</tspan><tspan
         id="tspan50"
         y="-1.7442"
         x="-15.6033">x</tspan><tspan
         id="tspan52"
         y="-16.0641"
         x="-18.246599">y</tspan></text>
<text
       id="text62"
       style="font-variant:normal;font-weight:normal;font-stretch:normal;font-size:10px;font-family:Helvetica;-inkscape-font-specification:Helvetica;writing-mode:lr-tb;fill:#231f20;fill-opacity:1;fill-rule:nonzero;stroke:none"
       transform="matrix(1,0,0,-1,10.3252,163.9732)"><tspan
         id="tspan56"
         y="0"
         x="0 2.78 9.4499998 17.23 20.01 25.57 31.129999 36.689999 42.25 47.810001 50.59 53.07 58.630001 64.190002 66.970001 72.529999 75.860001 81.419998 84.199997 89.760002 93.239998 95.459999 101.02 103.24 108.8">ISO 10303 feature origin</tspan><tspan
         id="tspan58"
         y="10"
         x="-10.325 -4.7649999 0.79500002 3.575 6.355 11.915 20.245001 25.805 31.365 34.145 39.705002 45.264999 50.825001 53.605 59.165001 64.724998 70.285004 75.845001 81.404999 84.184998 90.025002 92.305 98.415001 105.235 112.455">bottom_at_path_end = TRUE</tspan><tspan
         id="tspan60"
         y="85.056"
         x="59.16 64.720001 70.279999 73.059998">path</tspan></text>
<g
       transform="translate(411.226,7.8477)"
       id="g64"><path
         id="path66"
         style="fill:#939598;fill-opacity:1;fill-rule:nonzero;stroke:none"
         d="m 0,0 h -122 l 19.654,54 h 122 L 0,0" /></g><g
       transform="translate(407.626,11.448)"
       id="g68"><path
         id="path70"
         style="fill:#ffffff;fill-opacity:1;fill-rule:nonzero;stroke:#231f20;stroke-width:1;stroke-linecap:butt;stroke-linejoin:miter;stroke-miterlimit:4;stroke-dasharray:none;stroke-opacity:1"
         d="m 0,0 h -122 l 19.654,54 h 122 z" /></g><text
       id="text76"
       style="font-variant:normal;font-weight:normal;font-stretch:normal;font-size:10px;font-family:Helvetica;-inkscape-font-specification:Helvetica;writing-mode:lr-tb;fill:#231f20;fill-opacity:1;fill-rule:nonzero;stroke:none"
       transform="matrix(1,0,0,-1,302.9819,158.9732)"><tspan
         id="tspan72"
         y="0"
         x="0 2.78 9.4499998 17.23 20.01 25.57 31.129999 36.689999 42.25 47.810001 50.59 53.07 58.630001 64.190002 66.970001 72.529999 75.860001 81.419998 84.199997 89.760002 93.239998 95.459999 101.02 103.24">ISO 14649 feature origin</tspan><tspan
         id="tspan74"
         y="123.39"
         x="23.465 29.025 34.584999 40.145 42.924999 48.485001 51.264999 56.264999 61.825001 65.154999 67.635002 73.195 78.195">depth surface</tspan></text>
<g
       transform="translate(357.017,120.562)"
       id="g78"><path
         id="path80"
         style="fill:none;stroke:#231f20;stroke-width:0.5;stroke-linecap:butt;stroke-linejoin:miter;stroke-miterlimit:4;stroke-dasharray:none;stroke-opacity:1"
         d="M 0,0 V 8.635" /></g><g
       transform="translate(356.633,130.083)"
       id="g82"><path
         id="path84"
         style="fill:#231f20;fill-opacity:1;fill-rule:nonzero;stroke:none"
         d="M 0,0 C -0.187,-0.621 -0.359,-1.024 -0.56,-1.522 H 1.332 C 1.248,-1.344 0.96,-0.621 0.773,0 0.572,0.662 0.436,1.266 0.387,1.654 0.338,1.266 0.2,0.662 0,0" /></g><g
       transform="translate(357.017,120.564)"
       id="g86"><path
         id="path88"
         style="fill:none;stroke:#231f20;stroke-width:0.5;stroke-linecap:butt;stroke-linejoin:miter;stroke-miterlimit:4;stroke-dasharray:none;stroke-opacity:1"
         d="M 0,0 H 8.636" /></g><g
       transform="translate(366.538,120.948)"
       id="g90"><path
         id="path92"
         style="fill:#231f20;fill-opacity:1;fill-rule:nonzero;stroke:none"
         d="m 0,0 c -0.619,0.188 -1.023,0.359 -1.52,0.559 v -1.891 c 0.178,0.084 0.901,0.371 1.52,0.559 0.664,0.201 1.266,0.337 1.656,0.386 C 1.266,-0.338 0.664,-0.201 0,0" /></g><g
       transform="translate(357.017,120.562)"
       id="g94"><path
         id="path96"
         style="fill:none;stroke:#231f20;stroke-width:0.5;stroke-linecap:butt;stroke-linejoin:miter;stroke-miterlimit:4;stroke-dasharray:none;stroke-opacity:1"
         d="M 0,0 -6.471,-4.316" /></g><g
       transform="translate(349.972,115.468)"
       id="g98"><path
         id="path100"
         style="fill:#231f20;fill-opacity:1;fill-rule:nonzero;stroke:none"
         d="M 0,0 C 0.631,0.149 1.066,0.201 1.596,0.275 L 0.65,1.914 C 0.539,1.752 0.057,1.143 -0.387,0.67 -0.861,0.164 -1.314,-0.256 -1.627,-0.492 -1.266,-0.34 -0.675,-0.158 0,0" /></g><text
       id="text108"
       style="font-variant:normal;font-weight:normal;font-stretch:normal;font-size:9px;font-family:Helvetica;-inkscape-font-specification:Helvetica;writing-mode:lr-tb;fill:#231f20;fill-opacity:1;fill-rule:nonzero;stroke:none"
       transform="matrix(1,0,0,-1,360.4314,128.1299)"><tspan
         id="tspan102"
         y="0"
         x="0">z</tspan><tspan
         id="tspan104"
         y="9.2556"
         x="-14.6034">x</tspan><tspan
         id="tspan106"
         y="14.9355"
         x="3.753">y</tspan></text>
<g
       transform="translate(212.34,40.276)"
       id="g110"><path
         id="path112"
         style="fill:none;stroke:#231f20;stroke-width:2;stroke-linecap:butt;stroke-linejoin:miter;stroke-miterlimit:4;stroke-dasharray:none;stroke-opacity:1"
         d="M 0,0 -0.013,72.852" /></g><g
       transform="translate(210.788,116.67)"
       id="g114"><path
         id="path116"
         style="fill:#231f20;fill-opacity:1;fill-rule:nonzero;stroke:none"
         d="M 0,0 C -0.748,-2.48 -1.438,-4.092 -2.236,-6.081 L 5.33,-6.08 C 4.992,-5.368 3.841,-2.479 3.092,0.001 2.289,2.655 1.74,5.061 1.544,6.623 1.349,5.061 0.801,2.655 0,0" /></g><g
       transform="translate(212.268,40.269)"
       id="g118"><path
         id="path120"
         style="fill:none;stroke:#231f20;stroke-width:0.5;stroke-linecap:butt;stroke-linejoin:miter;stroke-miterlimit:4;stroke-dasharray:none;stroke-opacity:1"
         d="M 0,0 V 8.635" /></g><g
       transform="translate(211.883,49.791)"
       id="g122"><path
         id="path124"
         style="fill:#231f20;fill-opacity:1;fill-rule:nonzero;stroke:none"
         d="M 0,0 C -0.187,-0.621 -0.359,-1.024 -0.56,-1.522 H 1.332 C 1.248,-1.344 0.96,-0.621 0.773,0 0.572,0.662 0.436,1.266 0.387,1.654 0.338,1.266 0.2,0.662 0,0" /></g><g
       transform="translate(212.268,40.271)"
       id="g126"><path
         id="path128"
         style="fill:none;stroke:#231f20;stroke-width:0.5;stroke-linecap:butt;stroke-linejoin:miter;stroke-miterlimit:4;stroke-dasharray:none;stroke-opacity:1"
         d="M 0,0 H 8.636" /></g><g
       transform="translate(221.788,40.656)"
       id="g130"><path
         id="path132"
         style="fill:#231f20;fill-opacity:1;fill-rule:nonzero;stroke:none"
         d="m 0,0 c -0.619,0.188 -1.023,0.359 -1.519,0.559 v -1.891 c 0.177,0.084 0.9,0.371 1.519,0.559 0.664,0.201 1.266,0.337 1.656,0.386 C 1.266,-0.338 0.664,-0.201 0,0" /></g><g
       transform="translate(212.268,40.269)"
       id="g134"><path
         id="path136"
         style="fill:none;stroke:#231f20;stroke-width:0.5;stroke-linecap:butt;stroke-linejoin:miter;stroke-miterlimit:4;stroke-dasharray:none;stroke-opacity:1"
         d="M 0,0 -6.471,-4.316" /></g><g
       transform="translate(205.223,35.175)"
       id="g138"><path
         id="path140"
         style="fill:#231f20;fill-opacity:1;fill-rule:nonzero;stroke:none"
         d="M 0,0 C 0.631,0.149 1.066,0.201 1.596,0.275 L 0.65,1.914 C 0.539,1.752 0.057,1.143 -0.387,0.67 -0.861,0.164 -1.314,-0.256 -1.627,-0.492 -1.266,-0.34 -0.675,-0.158 0,0" /></g><text
       id="text148"
       style="font-variant:normal;font-weight:normal;font-stretch:normal;font-size:9px;font-family:Helvetica;-inkscape-font-specification:Helvetica;writing-mode:lr-tb;fill:#231f20;fill-opacity:1;fill-rule:nonzero;stroke:none"
       transform="matrix(1,0,0,-1,215.6819,47.8374)"><tspan
         id="tspan142"
         y="0"
         x="0">z</tspan><tspan
         id="tspan144"
         y="9.2556"
         x="-14.6034">x</tspan><tspan
         id="tspan146"
         y="14.9355"
         x="3.753">y</tspan></text>
<text
       id="text154"
       style="font-variant:normal;font-weight:normal;font-stretch:normal;font-size:10px;font-family:Helvetica;-inkscape-font-specification:Helvetica;writing-mode:lr-tb;fill:#231f20;fill-opacity:1;fill-rule:nonzero;stroke:none"
       transform="matrix(1,0,0,-1,156.9106,163.9732)"><tspan
         id="tspan150"
         y="0"
         x="0 2.78 9.4499998 17.23 20.01 25.57 31.129999 36.689999 42.25 47.810001 50.59 53.07 58.630001 64.190002 66.970001 72.529999 75.860001 81.419998 84.199997 89.760002 93.239998 95.459999 101.02 103.24 108.8">ISO 10303 feature origin</tspan><tspan
         id="tspan152"
         y="10"
         x="-12.605 -7.0450001 -1.485 1.295 4.0749998 9.6350002 17.965 23.525 29.084999 31.865 37.424999 42.985001 48.544998 51.325001 56.884998 62.445 68.004997 73.565002 79.125 81.904999 87.745003 90.525002 95.834999 102.505 108.065 114.735">bottom_at_path_end = FALSE</tspan></text>
<path
       id="path156"
       style="fill:none;stroke:#231f20;stroke-width:0.25;stroke-linecap:butt;stroke-linejoin:miter;stroke-miterlimit:4;stroke-dasharray:12;stroke-dashoffset:0;stroke-opacity:1"
       d="M 28.819,140.541 V 60.403 m 86.923,80.401 V 60.666 M 100.309,98.781 H 13.642 l 15.287,42 h 86.667 z m 0,-80.667 H 13.642 l 15.287,42 h 86.667 z M 12.991,98.635 V 18.497 M 99.915,98.899 V 18.76 m 76.49,124.52 V 63.141 m 86.923,80.402 V 63.405 m -15.432,38.115 h -86.667 l 15.287,42 h 86.667 z m -10e-4,-80.667 h -86.667 l 15.287,42 h 86.667 z m -87.318,80.521 V 21.236 m 86.924,80.401 V 21.499 M 320.905,140.78 V 60.641 m 86.923,80.402 V 60.905 M 392.396,99.02 h -86.667 l 15.287,42 h 86.667 z m -0.001,-80.667 h -86.667 l 15.287,42 h 86.667 z M 305.077,98.874 V 18.736 m 86.924,80.401 V 18.999" /><text
       id="text160"
       style="font-variant:normal;font-weight:normal;font-stretch:normal;font-size:10px;font-family:Helvetica;-inkscape-font-specification:Helvetica;writing-mode:lr-tb;fill:#231f20;fill-opacity:1;fill-rule:nonzero;stroke:none"
       transform="matrix(1,0,0,-1,216.2229,76.2505)"><tspan
         id="tspan158"
         y="0"
         x="0 5.5599999 11.12 13.9">path</tspan></text>
</g></svg>