<?xml version="1.0" encoding="UTF-8" standalone="no"?>
<svg
   xmlns:dc="http://purl.org/dc/elements/1.1/"
   xmlns:cc="http://creativecommons.org/ns#"
   xmlns:rdf="http://www.w3.org/1999/02/22-rdf-syntax-ns#"
   xmlns:svg="http://www.w3.org/2000/svg"
   xmlns="http://www.w3.org/2000/svg"
   viewBox="0 0 572.62933 179.62132"
   height="179.62132"
   width="572.62933"
   xml:space="preserve"
   id="svg2"
   version="1.1"><metadata
     id="metadata8"><rdf:RDF><cc:Work
         rdf:about=""><dc:format>image/svg+xml</dc:format><dc:type
           rdf:resource="http://purl.org/dc/dcmitype/StillImage" /></cc:Work></rdf:RDF></metadata><defs
     id="defs6" /><g
     transform="matrix(1.3333333,0,0,-1.3333333,0,179.62133)"
     id="g10"><text
       id="text22"
       style="font-variant:normal;font-weight:normal;font-stretch:normal;font-size:10px;font-family:Helvetica;-inkscape-font-specification:Helvetica;writing-mode:lr-tb;fill:#231f20;fill-opacity:1;fill-rule:nonzero;stroke:none"
       transform="matrix(1,0,0,-1,75.9604,65.5635)"><tspan
         id="tspan12"
         y="0"
         x="0 5.5599999 8.8900003 14.45 17.23 19.450001 21.67 27.23">profile</tspan><tspan
         id="tspan14"
         y="12"
         x="-75.959999 -72.629997 -67.07 -61.509998 -58.73 -56.509998 -50.950001 -45.389999 -39.830002 -37.049999 -31.690001 -26.690001 -23.91 -18.91 -16.690001 -11.13 -6.1300001 -0.56999999 4.9899998 7.77 13.33 18.889999 24.450001 27.23">(defined by closed and </tspan><tspan
         id="tspan16"
         y="24"
         x="-72.980003 -67.419998 -61.860001 -56.299999 -50.740002 -47.959999 -42.400002 -36.84 -32.040001 -27.24 -21.68 -18.9 -16.120001 -11.12 -5.5599999 0 2.78 7.7800002 13.34 18.9 23.9">open pocket subtypes)</tspan><tspan
         id="tspan18"
         y="5.3579998"
         x="90.823997 96.384003 101.944 104.724 110.284">path</tspan><tspan
         id="tspan20"
         y="17.358"
         x="90.823997 94.153999 99.153999 104.714 110.274 113.604 118.604 124.164 129.724 135.284 138.064 143.62399 146.40401 149.634 154.994 159.744 165.304 167.524">(course_of_travel)</tspan></text>
<g
       transform="translate(161.129,109.691)"
       id="g24"><path
         id="path26"
         style="fill:none;stroke:#231f20;stroke-width:2;stroke-linecap:butt;stroke-linejoin:miter;stroke-miterlimit:4;stroke-dasharray:none;stroke-opacity:1"
         d="M 0,0 -0.013,-72.852" /></g><g
       transform="translate(159.578,33.298)"
       id="g28"><path
         id="path30"
         style="fill:#231f20;fill-opacity:1;fill-rule:nonzero;stroke:none"
         d="M 0,0 C -0.749,2.479 -1.439,4.092 -2.236,6.081 L 5.33,6.08 C 4.992,5.368 3.841,2.479 3.092,-0.001 2.289,-2.655 1.74,-5.062 1.544,-6.623 1.349,-5.062 0.801,-2.655 0,0" /></g><text
       id="text34"
       style="font-variant:normal;font-weight:normal;font-stretch:normal;font-size:10px;font-family:Helvetica;-inkscape-font-specification:Helvetica;writing-mode:lr-tb;fill:#231f20;fill-opacity:1;fill-rule:nonzero;stroke:none"
       transform="matrix(1,0,0,-1,161.4475,115.8047)"><tspan
         id="tspan32"
         y="0"
         x="0 2.48 8.04 13.6 16.379999 21.940001 25.27 30.83 33.610001 39.169998 42.650002 44.869999 50.43 52.650002">feature origin</tspan></text>
<g
       transform="translate(313.422,111.85)"
       id="g36"><path
         id="path38"
         style="fill:none;stroke:#231f20;stroke-width:2;stroke-linecap:butt;stroke-linejoin:miter;stroke-miterlimit:4;stroke-dasharray:none;stroke-opacity:1"
         d="M 0,0 -0.013,-72.852" /></g><g
       transform="translate(311.871,35.457)"
       id="g40"><path
         id="path42"
         style="fill:#231f20;fill-opacity:1;fill-rule:nonzero;stroke:none"
         d="M 0,0 C -0.749,2.479 -1.438,4.092 -2.236,6.08 H 5.33 C 4.991,5.367 3.841,2.479 3.092,-0.002 2.289,-2.656 1.74,-5.063 1.544,-6.623 1.349,-5.063 0.801,-2.656 0,0" /></g><g
       transform="translate(323.895,28.778)"
       id="g44"><path
         id="path46"
         style="fill:none;stroke:#231f20;stroke-width:1;stroke-linecap:butt;stroke-linejoin:miter;stroke-miterlimit:4;stroke-dasharray:none;stroke-opacity:1"
         d="M 0,0 H 3.642 C 6.539,0 7.45,3.95 7.45,8.519 v 17.55 c 0.502,10.801 5.629,14.226 7.287,14.853 v 0.202 C 13.079,41.648 7.952,45.49 7.45,55.666 v 17.652 c 0,4.675 -0.911,8.519 -3.808,8.519 H 0" /></g><text
       id="text52"
       style="font-variant:normal;font-weight:normal;font-stretch:normal;font-size:10px;font-family:Helvetica;-inkscape-font-specification:Helvetica;writing-mode:lr-tb;fill:#231f20;fill-opacity:1;fill-rule:nonzero;stroke:none"
       transform="matrix(1,0,0,-1,345.5323,73.6435)"><tspan
         id="tspan48"
         y="0"
         x="0 5.5599999 11.12 16.68 19.459999 25.02 27.799999 31.129999 36.689999 42.25 45.029999 50.59 53.369999 55.59 61.150002 66.709999 72.269997 75.050003 80.610001">depth (path length)</tspan><tspan
         id="tspan50"
         y="-37.068001"
         x="-2.0599999 0.41999999 5.98 11.54 14.32 19.879999 23.209999 28.77 31.549999 37.110001 40.59 42.810001 48.369999 50.59">feature origin</tspan></text>
<g
       transform="translate(313.397,24.5)"
       id="g54"><path
         id="path56"
         style="fill:none;stroke:#231f20;stroke-width:1;stroke-linecap:butt;stroke-linejoin:miter;stroke-miterlimit:4;stroke-dasharray:none;stroke-opacity:1"
         d="M 0,0 V -24.5" /><g
         transform="translate(10.607,-23.688)"
         id="g58"><path
           id="path60"
           style="fill:none;stroke:#231f20;stroke-width:1;stroke-linecap:butt;stroke-linejoin:miter;stroke-miterlimit:4;stroke-dasharray:none;stroke-opacity:1"
           d="M 0,0 H 3.643 C 6.539,0 7.451,1.1367 7.451,2.4512 V 7.501 c 0.502,3.108 5.629,4.094 7.287,4.274 v 0.058 C 13.08,11.984 7.953,13.09 7.451,16.019 v 5.079 c 0,1.344 -0.912,2.451 -3.808,2.451 H 0" /></g></g><text
       id="text64"
       style="font-variant:normal;font-weight:normal;font-stretch:normal;font-size:10px;font-family:Helvetica;-inkscape-font-specification:Helvetica;writing-mode:lr-tb;fill:#231f20;fill-opacity:1;fill-rule:nonzero;stroke:none"
       transform="matrix(1,0,0,-1,343.4722,8.7197)"><tspan
         id="tspan62"
         y="0"
         x="0 5.5599999 11.12 13.9 16.68 22.24 30.57 33.349998 38.349998 43.91 49.470001 55.029999 57.25 60.029999 62.25 67.809998">bottom condition</tspan></text>
<path
       id="path66"
       style="fill:#231f20;fill-opacity:1;fill-rule:nonzero;stroke:#231f20;stroke-width:0.5;stroke-linecap:butt;stroke-linejoin:miter;stroke-miterlimit:4;stroke-dasharray:4;stroke-dashoffset:0;stroke-opacity:1"
       d="m 303.218,113.496 38.539,0.004" /><g
       transform="translate(52.537,84.632)"
       id="g68"><path
         id="path70"
         style="fill:none;stroke:#231f20;stroke-width:2;stroke-linecap:butt;stroke-linejoin:miter;stroke-miterlimit:4;stroke-dasharray:none;stroke-opacity:1"
         d="m 0,0 h 132 l 85.015,49.084 h -132 z" /></g><g
       transform="translate(161.446,109.581)"
       id="g72"><path
         id="path74"
         style="fill:none;stroke:#231f20;stroke-width:0.5;stroke-linecap:butt;stroke-linejoin:miter;stroke-miterlimit:4;stroke-dasharray:none;stroke-opacity:1"
         d="M 0,0 V -8.635" /></g><g
       transform="translate(161.831,100.059)"
       id="g76"><path
         id="path78"
         style="fill:#231f20;fill-opacity:1;fill-rule:nonzero;stroke:none"
         d="M 0,0 C 0.188,0.621 0.359,1.023 0.56,1.522 H -1.332 C -1.248,1.344 -0.96,0.621 -0.773,0 -0.572,-0.662 -0.436,-1.266 -0.387,-1.654 -0.338,-1.266 -0.2,-0.662 0,0" /></g><g
       transform="translate(161.446,109.579)"
       id="g80"><path
         id="path82"
         style="fill:none;stroke:#231f20;stroke-width:0.5;stroke-linecap:butt;stroke-linejoin:miter;stroke-miterlimit:4;stroke-dasharray:none;stroke-opacity:1"
         d="M 0,0 H -8.636" /></g><g
       transform="translate(151.926,109.194)"
       id="g84"><path
         id="path86"
         style="fill:#231f20;fill-opacity:1;fill-rule:nonzero;stroke:none"
         d="M 0,0 C 0.619,-0.187 1.023,-0.359 1.52,-0.559 V 1.332 C 1.342,1.248 0.619,0.961 0,0.773 -0.664,0.572 -1.266,0.436 -1.656,0.387 -1.266,0.338 -0.664,0.201 0,0" /></g><g
       transform="translate(161.214,109.35)"
       id="g88"><path
         id="path90"
         style="fill:none;stroke:#231f20;stroke-width:0.5;stroke-linecap:butt;stroke-linejoin:miter;stroke-miterlimit:4;stroke-dasharray:none;stroke-opacity:1"
         d="M 0,0 -6.471,-4.316" /></g><g
       transform="translate(154.169,104.256)"
       id="g92"><path
         id="path94"
         style="fill:#231f20;fill-opacity:1;fill-rule:nonzero;stroke:none"
         d="M 0,0 C 0.631,0.149 1.066,0.201 1.596,0.275 L 0.65,1.914 C 0.539,1.752 0.057,1.143 -0.387,0.67 -0.861,0.164 -1.314,-0.256 -1.627,-0.492 -1.266,-0.34 -0.675,-0.158 0,0" /></g><text
       id="text102"
       style="font-variant:normal;font-weight:normal;font-stretch:normal;font-size:9px;font-family:Helvetica;-inkscape-font-specification:Helvetica;writing-mode:lr-tb;fill:#231f20;fill-opacity:1;fill-rule:nonzero;stroke:none"
       transform="matrix(1,0,0,-1,164.628,94.9184)"><tspan
         id="tspan96"
         y="0"
         x="0">z</tspan><tspan
         id="tspan98"
         y="-1.7442"
         x="-15.6033">x</tspan><tspan
         id="tspan100"
         y="-16.0641"
         x="-18.246599">y</tspan></text>
<text
       id="text106"
       style="font-variant:normal;font-weight:normal;font-stretch:normal;font-size:10px;font-family:Helvetica;-inkscape-font-specification:Helvetica;writing-mode:lr-tb;fill:#231f20;fill-opacity:1;fill-rule:nonzero;stroke:none"
       transform="matrix(1,0,0,-1,285.8155,125.2275)"><tspan
         id="tspan104"
         y="0"
         x="0 2.78 5.5599999 8.3400002 13.9 19.459999 22.24 25.02 30.58 38.91 44.470001 50.029999 52.810001 58.369999 63.93 69.489998 72.269997 77.830002 83.389999 88.949997 94.510002 100.07 102.85 108.69 110.97 117.08 123.9 131.12">If bottom_at_path_end = TRUE</tspan></text>
</g></svg>