<?xml version="1.0" encoding="UTF-8" standalone="no"?>
<svg
   xmlns:dc="http://purl.org/dc/elements/1.1/"
   xmlns:cc="http://creativecommons.org/ns#"
   xmlns:rdf="http://www.w3.org/1999/02/22-rdf-syntax-ns#"
   xmlns:svg="http://www.w3.org/2000/svg"
   xmlns="http://www.w3.org/2000/svg"
   viewBox="0 0 575.70135 187.56667"
   height="187.56667"
   width="575.70135"
   xml:space="preserve"
   id="svg2"
   version="1.1"><metadata
     id="metadata8"><rdf:RDF><cc:Work
         rdf:about=""><dc:format>image/svg+xml</dc:format><dc:type
           rdf:resource="http://purl.org/dc/dcmitype/StillImage" /></cc:Work></rdf:RDF></metadata><defs
     id="defs6" /><g
     transform="matrix(1.3333333,0,0,-1.3333333,0,187.56667)"
     id="g10"><text
       id="text22"
       style="font-variant:normal;font-weight:normal;font-stretch:normal;font-size:10px;font-family:Helvetica;-inkscape-font-specification:Helvetica;writing-mode:lr-tb;fill:#231f20;fill-opacity:1;fill-rule:nonzero;stroke:none"
       transform="matrix(1,0,0,-1,276.2144,130.4053)"><tspan
         id="tspan12"
         y="0"
         x="0 2.78 5.5599999 8.3400002 13.9 19.459999 22.24 25.02 30.58 38.91 44.470001 50.029999 52.810001 58.369999 63.93 69.489998 72.269997 77.830002 83.389999 88.949997 94.510002 100.07 102.85 108.69 110.97 117.08 123.9 131.12">If bottom_at_path_end = TRUE</tspan><tspan
         id="tspan14"
         y="51.881001"
         x="-214.07401 -208.51401 -205.18401 -199.62399 -196.84399 -194.62399 -192.40401 -186.84399">profile</tspan><tspan
         id="tspan16"
         y="63.881001"
         x="-276.21399 -272.884 -269.55399 -263.99399 -255.664 -250.254 -245.504 -239.944 -237.724 -232.164 -226.604 -221.04401 -215.48399 -209.924 -204.364 -198.804 -195.174 -190.174">(removal_boundary)</tspan><tspan
         id="tspan18"
         y="72.199997"
         x="-107.125 -101.565 -96.004997 -93.224998 -87.665001">path</tspan><tspan
         id="tspan20"
         y="84.199997"
         x="-107.125 -103.795 -98.794998 -93.235001 -87.675003 -84.345001 -79.345001 -73.785004 -68.224998 -62.665001 -59.884998 -54.325001 -51.544998 -48.314999 -42.955002 -38.205002 -32.645 -30.424999">(course_of_travel)</tspan></text>
<g
       transform="translate(249.101,109.675)"
       id="g24"><path
         id="path26"
         style="fill:none;stroke:#231f20;stroke-width:2;stroke-linecap:butt;stroke-linejoin:miter;stroke-miterlimit:4;stroke-dasharray:none;stroke-opacity:1"
         d="m 0,0 c 0,-16.568 -38.355,-30 -85.667,-30 -47.312,0 -85.667,13.432 -85.667,30 0,16.568 38.355,30 85.667,30 C -38.355,30 0,16.568 0,0 Z" /><g
         transform="translate(-85.667,0.017)"
         id="g28"><path
           id="path30"
           style="fill:none;stroke:#231f20;stroke-width:2;stroke-linecap:butt;stroke-linejoin:miter;stroke-miterlimit:4;stroke-dasharray:none;stroke-opacity:1"
           d="M 0,0 -0.013,-72.852" /></g></g><g
       transform="translate(161.882,33.298)"
       id="g32"><path
         id="path34"
         style="fill:#231f20;fill-opacity:1;fill-rule:nonzero;stroke:none"
         d="M 0,0 C -0.748,2.479 -1.438,4.092 -2.236,6.081 L 5.33,6.08 C 4.992,5.368 3.841,2.479 3.092,-0.001 2.289,-2.655 1.74,-5.062 1.544,-6.623 1.349,-5.062 0.801,-2.655 0,0" /></g><text
       id="text38"
       style="font-variant:normal;font-weight:normal;font-stretch:normal;font-size:10px;font-family:Helvetica;-inkscape-font-specification:Helvetica;writing-mode:lr-tb;fill:#231f20;fill-opacity:1;fill-rule:nonzero;stroke:none"
       transform="matrix(1,0,0,-1,167.5778,118.6689)"><tspan
         id="tspan36"
         y="0"
         x="0 2.48 8.04 13.6 16.379999 21.940001 25.27 30.83 33.610001 39.169998 42.650002 44.869999 50.43 52.650002">feature origin</tspan></text>
<g
       transform="translate(315.727,111.85)"
       id="g40"><path
         id="path42"
         style="fill:none;stroke:#231f20;stroke-width:2;stroke-linecap:butt;stroke-linejoin:miter;stroke-miterlimit:4;stroke-dasharray:none;stroke-opacity:1"
         d="M 0,0 -0.013,-72.852" /></g><g
       transform="translate(314.176,35.457)"
       id="g44"><path
         id="path46"
         style="fill:#231f20;fill-opacity:1;fill-rule:nonzero;stroke:none"
         d="M 0,0 C -0.749,2.479 -1.438,4.092 -2.236,6.08 H 5.33 C 4.991,5.367 3.841,2.479 3.092,-0.002 2.289,-2.656 1.74,-5.062 1.544,-6.623 1.349,-5.062 0.801,-2.656 0,0" /></g><g
       transform="translate(326.199,28.778)"
       id="g48"><path
         id="path50"
         style="fill:none;stroke:#231f20;stroke-width:1;stroke-linecap:butt;stroke-linejoin:miter;stroke-miterlimit:4;stroke-dasharray:none;stroke-opacity:1"
         d="M 0,0 H 3.643 C 6.539,0 7.45,3.95 7.45,8.519 v 17.55 c 0.502,10.801 5.629,14.226 7.287,14.853 v 0.202 C 13.079,41.648 7.952,45.49 7.45,55.666 v 17.652 c 0,4.675 -0.911,8.519 -3.807,8.519 H 0" /></g><text
       id="text56"
       style="font-variant:normal;font-weight:normal;font-stretch:normal;font-size:10px;font-family:Helvetica;-inkscape-font-specification:Helvetica;writing-mode:lr-tb;fill:#231f20;fill-opacity:1;fill-rule:nonzero;stroke:none"
       transform="matrix(1,0,0,-1,347.8369,73.6436)"><tspan
         id="tspan52"
         y="0"
         x="0 5.5599999 11.12 16.68 19.459999 25.02 27.799999 31.129999 36.689999 42.25 45.029999 50.59 53.369999 55.59 61.150002 66.709999 72.269997 75.050003 80.610001">depth (path length)</tspan><tspan
         id="tspan54"
         y="-37.068001"
         x="-2.0599999 0.41999999 5.98 11.54 14.32 19.879999 23.209999 28.77 31.549999 37.110001 40.59 42.810001 48.369999 50.59">feature origin</tspan></text>
<g
       transform="translate(315.702,24.5)"
       id="g58"><path
         id="path60"
         style="fill:none;stroke:#231f20;stroke-width:1;stroke-linecap:butt;stroke-linejoin:miter;stroke-miterlimit:4;stroke-dasharray:none;stroke-opacity:1"
         d="M 0,0 V -24.5" /></g><g
       transform="translate(326.31,0.81149)"
       id="g62"><path
         id="path64"
         style="fill:none;stroke:#231f20;stroke-width:1;stroke-linecap:butt;stroke-linejoin:miter;stroke-miterlimit:4;stroke-dasharray:none;stroke-opacity:1"
         d="M 0,0 H 3.643 C 6.539,0 7.451,1.1367 7.451,2.4512 V 7.501 c 0.502,3.108 5.629,4.094 7.287,4.274 v 0.058 C 13.08,11.984 7.953,13.09 7.451,16.019 v 5.079 c 0,1.344 -0.912,2.451 -3.808,2.451 H 0" /></g><text
       id="text68"
       style="font-variant:normal;font-weight:normal;font-stretch:normal;font-size:10px;font-family:Helvetica;-inkscape-font-specification:Helvetica;writing-mode:lr-tb;fill:#231f20;fill-opacity:1;fill-rule:nonzero;stroke:none"
       transform="matrix(1,0,0,-1,345.7769,8.7197)"><tspan
         id="tspan66"
         y="0"
         x="0 5.5599999 11.12 13.9 16.68 22.24 30.57 33.349998 38.349998 43.91 49.470001 55.029999 57.25 60.029999 62.25 67.809998">bottom condition</tspan></text>
<path
       id="path70"
       style="fill:#231f20;fill-opacity:1;fill-rule:nonzero;stroke:#231f20;stroke-width:0.5;stroke-linecap:butt;stroke-linejoin:miter;stroke-miterlimit:4;stroke-dasharray:4;stroke-dashoffset:0;stroke-opacity:1"
       d="m 305.522,113.496 38.54,0.004" /><g
       transform="translate(163.33,109.54)"
       id="g72"><path
         id="path74"
         style="fill:none;stroke:#231f20;stroke-width:0.5;stroke-linecap:butt;stroke-linejoin:miter;stroke-miterlimit:4;stroke-dasharray:none;stroke-opacity:1"
         d="M 0,0 V -8.635" /></g><g
       transform="translate(163.715,100.019)"
       id="g76"><path
         id="path78"
         style="fill:#231f20;fill-opacity:1;fill-rule:nonzero;stroke:none"
         d="M 0,0 C 0.188,0.621 0.359,1.023 0.56,1.521 H -1.332 C -1.248,1.344 -0.96,0.621 -0.773,0 -0.572,-0.662 -0.436,-1.266 -0.387,-1.654 -0.338,-1.266 -0.2,-0.662 0,0" /></g><g
       transform="translate(163.33,109.539)"
       id="g80"><path
         id="path82"
         style="fill:none;stroke:#231f20;stroke-width:0.5;stroke-linecap:butt;stroke-linejoin:miter;stroke-miterlimit:4;stroke-dasharray:none;stroke-opacity:1"
         d="M 0,0 H -8.636" /></g><g
       transform="translate(153.81,109.154)"
       id="g84"><path
         id="path86"
         style="fill:#231f20;fill-opacity:1;fill-rule:nonzero;stroke:none"
         d="M 0,0 C 0.619,-0.187 1.023,-0.359 1.52,-0.559 V 1.332 C 1.342,1.248 0.619,0.961 0,0.773 -0.664,0.572 -1.266,0.436 -1.656,0.387 -1.266,0.338 -0.664,0.201 0,0" /></g><g
       transform="translate(163.098,109.31)"
       id="g88"><path
         id="path90"
         style="fill:none;stroke:#231f20;stroke-width:0.5;stroke-linecap:butt;stroke-linejoin:miter;stroke-miterlimit:4;stroke-dasharray:none;stroke-opacity:1"
         d="M 0,0 -6.471,-4.316" /></g><g
       transform="translate(156.053,104.216)"
       id="g92"><path
         id="path94"
         style="fill:#231f20;fill-opacity:1;fill-rule:nonzero;stroke:none"
         d="M 0,0 C 0.631,0.148 1.066,0.201 1.596,0.275 L 0.65,1.914 C 0.539,1.752 0.057,1.143 -0.387,0.67 -0.861,0.164 -1.315,-0.256 -1.627,-0.492 -1.266,-0.34 -0.675,-0.158 0,0" /></g><text
       id="text102"
       style="font-variant:normal;font-weight:normal;font-stretch:normal;font-size:9px;font-family:Helvetica;-inkscape-font-specification:Helvetica;writing-mode:lr-tb;fill:#231f20;fill-opacity:1;fill-rule:nonzero;stroke:none"
       transform="matrix(1,0,0,-1,166.5117,94.8784)"><tspan
         id="tspan96"
         y="0"
         x="0">z</tspan><tspan
         id="tspan98"
         y="-1.7442"
         x="-15.6033">x</tspan><tspan
         id="tspan100"
         y="-16.0641"
         x="-18.246599">y</tspan></text>
</g></svg>