<?xml version="1.0" encoding="UTF-8" standalone="no"?>
<svg
   xmlns:dc="http://purl.org/dc/elements/1.1/"
   xmlns:cc="http://creativecommons.org/ns#"
   xmlns:rdf="http://www.w3.org/1999/02/22-rdf-syntax-ns#"
   xmlns:svg="http://www.w3.org/2000/svg"
   xmlns="http://www.w3.org/2000/svg"
   viewBox="0 0 335.44266 170.94"
   height="170.94"
   width="335.44266"
   xml:space="preserve"
   id="svg2"
   version="1.1"><metadata
     id="metadata8"><rdf:RDF><cc:Work
         rdf:about=""><dc:format>image/svg+xml</dc:format><dc:type
           rdf:resource="http://purl.org/dc/dcmitype/StillImage" /></cc:Work></rdf:RDF></metadata><defs
     id="defs6" /><g
     transform="matrix(1.3333333,0,0,-1.3333333,0,170.94)"
     id="g10"><g
       transform="translate(91.441,115.011)"
       id="g12"><path
         id="path14"
         style="fill:none;stroke:#231f20;stroke-width:2;stroke-linecap:butt;stroke-linejoin:miter;stroke-miterlimit:4;stroke-dasharray:none;stroke-opacity:1"
         d="m 0,0 0.003,-57.054 c 0,-17.79 14.422,-32.211 32.211,-32.211 17.79,0 32.212,14.421 32.212,32.211 L 64.421,0" /></g><path
       id="path16"
       style="fill:none;stroke:#231f20;stroke-width:1;stroke-linecap:butt;stroke-linejoin:miter;stroke-miterlimit:4;stroke-dasharray:5;stroke-dashoffset:0;stroke-opacity:1"
       d="m 123.655,25.549 0.024,83.471" /><g
       transform="translate(125.292,107.905)"
       id="g18"><path
         id="path20"
         style="fill:#231f20;fill-opacity:1;fill-rule:nonzero;stroke:none"
         d="M 0,0 -1.632,6.098 -3.268,0.001 0,0" /></g><text
       id="text24"
       style="font-variant:normal;font-weight:normal;font-stretch:normal;font-size:10px;font-family:Helvetica;-inkscape-font-specification:Helvetica;writing-mode:lr-tb;fill:#231f20;fill-opacity:1;fill-rule:nonzero;stroke:none"
       transform="matrix(1,0,0,-1,221.7129,89.8672)"><tspan
         id="tspan22"
         y="0"
         x="0 7.2199998 12.78 18.34 21.120001">Depth</tspan></text>
<g
       transform="translate(132.562,86.037)"
       id="g26"><path
         id="path28"
         style="fill:none;stroke:#231f20;stroke-width:1;stroke-linecap:butt;stroke-linejoin:miter;stroke-miterlimit:4;stroke-dasharray:none;stroke-opacity:1"
         d="m 0,0 c 2.947,0.869 38.106,13.018 40.5,8.516 2.667,-5.016 -9.213,-3.432 -8,-9.5 2.5,-4.5 52,8.5 52,8.5" /></g><g
       transform="translate(133.102,88.596)"
       id="g30"><path
         id="path32"
         style="fill:#231f20;fill-opacity:1;fill-rule:nonzero;stroke:none"
         d="M 0,0 -6.657,-5.151 1.684,-4.019 0,0" /></g><path
       id="path34"
       style="fill:none;stroke:#231f20;stroke-width:1;stroke-linecap:butt;stroke-linejoin:miter;stroke-miterlimit:4;stroke-dasharray:5;stroke-dashoffset:0;stroke-opacity:1"
       d="m 149.043,122.08 -51.221,0.024" /><g
       transform="translate(98.937,123.717)"
       id="g36"><path
         id="path38"
         style="fill:#231f20;fill-opacity:1;fill-rule:nonzero;stroke:none"
         d="M 0,0 -6.099,-1.633 -0.001,-3.268 0,0" /></g><g
       transform="translate(147.48,120.467)"
       id="g40"><path
         id="path42"
         style="fill:#231f20;fill-opacity:1;fill-rule:nonzero;stroke:none"
         d="M 0,0 6.098,1.631 0.002,3.268 0,0" /></g><text
       id="text46"
       style="font-variant:normal;font-weight:normal;font-stretch:normal;font-size:10px;font-family:Helvetica;-inkscape-font-specification:Helvetica;writing-mode:lr-tb;fill:#231f20;fill-opacity:1;fill-rule:nonzero;stroke:none"
       transform="matrix(1,0,0,-1,166.0093,118.8945)"><tspan
         id="tspan44"
         y="0"
         x="0 9.4399996 11.66 17.219999 20">Width</tspan></text>
<g
       transform="translate(-1.5e-5,25.146)"
       id="g48"><path
         id="path50"
         style="fill:#231f20;fill-opacity:1;fill-rule:nonzero;stroke:#231f20;stroke-width:1;stroke-linecap:butt;stroke-linejoin:miter;stroke-miterlimit:4;stroke-dasharray:none;stroke-opacity:1"
         d="M 0,0 H 246.5" /></g><g
       transform="translate(248.271,25.915)"
       id="g52"><path
         id="path54"
         style="fill:#231f20;fill-opacity:1;fill-rule:nonzero;stroke:none"
         d="M 0,0 C -1.24,0.375 -2.046,0.72 -3.041,1.119 V -2.665 C -2.685,-2.495 -1.24,-1.92 0,-1.546 1.327,-1.145 2.53,-0.87 3.311,-0.772 2.53,-0.675 1.327,-0.4 0,0" /></g><text
       id="text60"
       style="font-variant:normal;font-weight:normal;font-stretch:normal;font-size:9px;font-family:Helvetica;-inkscape-font-specification:Helvetica;writing-mode:lr-tb;fill:#231f20;fill-opacity:1;fill-rule:nonzero;stroke:none"
       transform="matrix(1,0,0,-1,237.6265,16.6035)"><tspan
         id="tspan56"
         y="0"
         x="0">x</tspan><tspan
         id="tspan58"
         y="-28.805401"
         x="-121.8258">y</tspan></text>
<text
       id="text64"
       style="font-variant:normal;font-weight:normal;font-stretch:normal;font-size:10px;font-family:Helvetica;-inkscape-font-specification:Helvetica;writing-mode:lr-tb;fill:#231f20;fill-opacity:1;fill-rule:nonzero;stroke:none"
       transform="matrix(1,0,0,-1,142.9292,2.25)"><tspan
         id="tspan62"
         y="0"
         x="0 5.5599999 8.8900003 14.45 17.23 19.450001 21.67 27.23 30.01 35.57 39.049999">profile ori</tspan></text>
<text
       id="text68"
       style="font-variant:normal;font-weight:normal;font-stretch:normal;font-size:10px;font-family:Helvetica;-inkscape-font-specification:Helvetica;writing-mode:lr-tb;fill:#231f20;fill-opacity:1;fill-rule:nonzero;stroke:none"
       transform="matrix(1,0,0,-1,184.2071,2.25)"><tspan
         id="tspan66"
         y="0"
         x="0">g</tspan></text>
<text
       id="text72"
       style="font-variant:normal;font-weight:normal;font-stretch:normal;font-size:10px;font-family:Helvetica;-inkscape-font-specification:Helvetica;writing-mode:lr-tb;fill:#231f20;fill-opacity:1;fill-rule:nonzero;stroke:none"
       transform="matrix(1,0,0,-1,189.7686,2.25)"><tspan
         id="tspan70"
         y="0"
         x="0 2.22">in</tspan></text>
<g
       transform="translate(124.353,18.37)"
       id="g74"><path
         id="path76"
         style="fill:none;stroke:#231f20;stroke-width:1;stroke-linecap:butt;stroke-linejoin:miter;stroke-miterlimit:4;stroke-dasharray:none;stroke-opacity:1"
         d="M 0,0 C 0.808,-3.784 -5.746,-7.828 -1.913,-11.815 0.819,-14.658 9.384,-13.377 14.5,-13.813" /></g><g
       transform="translate(123.231,19.941)"
       id="g78"><path
         id="path80"
         style="fill:#231f20;fill-opacity:1;fill-rule:nonzero;stroke:none"
         d="m 0,0 c -0.107,-1.291 -0.276,-2.151 -0.459,-3.207 l 3.7,0.79 C 3.001,-2.104 2.137,-0.811 1.512,0.323 0.842,1.537 0.323,2.656 0.064,3.399 0.131,2.616 0.115,1.381 0,0" /></g><g
       transform="translate(119.506,115.005)"
       id="g82"><path
         id="path84"
         style="fill:#231f20;fill-opacity:1;fill-rule:nonzero;stroke:#231f20;stroke-width:1;stroke-linecap:butt;stroke-linejoin:miter;stroke-miterlimit:4;stroke-dasharray:none;stroke-opacity:1"
         d="M 0,0 H 8.613" /></g></g></svg>