<?xml version="1.0" encoding="UTF-8" standalone="no"?>
<svg
   xmlns:dc="http://purl.org/dc/elements/1.1/"
   xmlns:cc="http://creativecommons.org/ns#"
   xmlns:rdf="http://www.w3.org/1999/02/22-rdf-syntax-ns#"
   xmlns:svg="http://www.w3.org/2000/svg"
   xmlns="http://www.w3.org/2000/svg"
   viewBox="0 0 575.70135 171.496"
   height="171.496"
   width="575.70135"
   xml:space="preserve"
   id="svg2"
   version="1.1"><metadata
     id="metadata8"><rdf:RDF><cc:Work
         rdf:about=""><dc:format>image/svg+xml</dc:format><dc:type
           rdf:resource="http://purl.org/dc/dcmitype/StillImage" /></cc:Work></rdf:RDF></metadata><defs
     id="defs6" /><g
     transform="matrix(1.3333333,0,0,-1.3333333,0,171.496)"
     id="g10"><text
       id="text20"
       style="font-variant:normal;font-weight:normal;font-stretch:normal;font-size:10px;font-family:Helvetica;-inkscape-font-specification:Helvetica;writing-mode:lr-tb;fill:#231f20;fill-opacity:1;fill-rule:nonzero;stroke:none"
       transform="matrix(1,0,0,-1,62.14,77.2969)"><tspan
         id="tspan12"
         y="0"
         x="0 5.5599999 8.8900003 14.45 17.23 19.450001 21.67 27.23">profile</tspan><tspan
         id="tspan14"
         y="12"
         x="-62.139999 -58.810001 -55.48 -49.919998 -41.59 -36.18 -31.43 -25.870001 -23.65 -18.09 -12.53 -6.9699998 -1.41 4.1500001 9.71 15.27 18.9 23.9">(removal_boundary)</tspan><tspan
         id="tspan16"
         y="-25.681"
         x="106.949 112.509 118.069 120.849 126.409">path</tspan><tspan
         id="tspan18"
         y="-13.681"
         x="106.949 110.279 115.279 120.839 126.399 129.729 134.729 140.289 145.849 151.409 154.189 159.74899 162.52901 165.759 171.119 175.869 181.429 183.649">(course_of_travel)</tspan></text>
<path
       id="path22"
       style="fill:none;stroke:#231f20;stroke-width:1;stroke-linecap:butt;stroke-linejoin:miter;stroke-miterlimit:4;stroke-dasharray:4;stroke-dashoffset:0;stroke-opacity:1"
       d="M 248.483,5.2598 77.299,5.2754" /><g
       transform="translate(75.036,0.9346)"
       id="g24"><path
         id="path26"
         style="fill:none;stroke:#231f20;stroke-width:1;stroke-linecap:butt;stroke-linejoin:miter;stroke-miterlimit:4;stroke-dasharray:none;stroke-opacity:1"
         d="M 0,0 V 32.854" /><g
         transform="translate(177.098,-0.00103)"
         id="g28"><path
           id="path30"
           style="fill:none;stroke:#231f20;stroke-width:1;stroke-linecap:butt;stroke-linejoin:miter;stroke-miterlimit:4;stroke-dasharray:none;stroke-opacity:1"
           d="M 0,0 V 32.855" /></g></g><g
       transform="translate(249.101,43.447)"
       id="g32"><path
         id="path34"
         style="fill:none;stroke:#231f20;stroke-width:2;stroke-linecap:butt;stroke-linejoin:miter;stroke-miterlimit:4;stroke-dasharray:none;stroke-opacity:1"
         d="m 0,0 c 0,-16.568 -38.355,-30 -85.667,-30 -47.312,0 -85.667,13.432 -85.667,30 0,16.568 38.355,30 85.667,30 C -38.355,30 0,16.568 0,0 Z" /><g
         transform="translate(-85.667)"
         id="g36"><path
           id="path38"
           style="fill:none;stroke:#231f20;stroke-width:2;stroke-linecap:butt;stroke-linejoin:miter;stroke-miterlimit:4;stroke-dasharray:none;stroke-opacity:1"
           d="M 0,0 -0.013,72.852" /></g></g><g
       transform="translate(161.882,119.841)"
       id="g40"><path
         id="path42"
         style="fill:#231f20;fill-opacity:1;fill-rule:nonzero;stroke:none"
         d="M 0,0 C -0.749,-2.479 -1.439,-4.092 -2.236,-6.081 L 5.33,-6.08 C 4.992,-5.368 3.841,-2.478 3.092,0.001 2.289,2.655 1.74,5.062 1.544,6.623 1.349,5.062 0.801,2.655 0,0" /></g><text
       id="text48"
       style="font-variant:normal;font-weight:normal;font-stretch:normal;font-size:10px;font-family:Helvetica;-inkscape-font-specification:Helvetica;writing-mode:lr-tb;fill:#231f20;fill-opacity:1;fill-rule:nonzero;stroke:none"
       transform="matrix(1,0,0,-1,100.0778,51.9414)"><tspan
         id="tspan44"
         y="0"
         x="0 2.48 8.04 13.6 16.379999 21.940001 25.27 30.83 33.610001 39.169998 42.650002 44.869999 50.43 52.650002">feature origin</tspan><tspan
         id="tspan46"
         y="38.964001"
         x="-68.737999 -63.178001 -60.958 -55.397999 -47.068001 -41.507999 -38.728001 -33.167999">diameter</tspan></text>
<g
       transform="translate(315.727,45.607)"
       id="g50"><path
         id="path52"
         style="fill:none;stroke:#231f20;stroke-width:2;stroke-linecap:butt;stroke-linejoin:miter;stroke-miterlimit:4;stroke-dasharray:none;stroke-opacity:1"
         d="M 0,0 -0.013,72.851" /></g><g
       transform="translate(314.176,121.999)"
       id="g54"><path
         id="path56"
         style="fill:#231f20;fill-opacity:1;fill-rule:nonzero;stroke:none"
         d="M 0,0 C -0.749,-2.479 -1.438,-4.092 -2.236,-6.08 H 5.33 C 4.991,-5.367 3.841,-2.479 3.092,0.002 2.289,2.656 1.74,5.063 1.544,6.623 1.349,5.063 0.801,2.656 0,0" /></g><g
       transform="translate(326.199,45.551)"
       id="g58"><path
         id="path60"
         style="fill:none;stroke:#231f20;stroke-width:1;stroke-linecap:butt;stroke-linejoin:miter;stroke-miterlimit:4;stroke-dasharray:none;stroke-opacity:1"
         d="M 0,0 H 3.642 C 6.539,0 7.45,3.95 7.45,8.519 v 17.55 c 0.502,10.801 5.629,14.226 7.287,14.853 v 0.202 C 13.079,41.647 7.952,45.49 7.45,55.666 v 17.652 c 0,4.675 -0.911,8.519 -3.808,8.519 H 0" /></g><text
       id="text66"
       style="font-variant:normal;font-weight:normal;font-stretch:normal;font-size:10px;font-family:Helvetica;-inkscape-font-specification:Helvetica;writing-mode:lr-tb;fill:#231f20;fill-opacity:1;fill-rule:nonzero;stroke:none"
       transform="matrix(1,0,0,-1,347.8369,90.416)"><tspan
         id="tspan62"
         y="0"
         x="0 5.5599999 11.12 16.68 19.459999 25.02 27.799999 31.129999 36.689999 42.25 45.029999 50.59 53.369999 55.59 61.150002 66.709999 72.269997 75.050003 80.610001">depth (path length)</tspan><tspan
         id="tspan64"
         y="49.931999"
         x="-2.0599999 0.41999999 5.98 11.54 14.32 19.879999 23.209999 28.77 31.549999 37.110001 40.59 42.810001 48.369999 50.59">feature origin</tspan></text>
<g
       transform="translate(315.702,41.272)"
       id="g68"><path
         id="path70"
         style="fill:none;stroke:#231f20;stroke-width:1;stroke-linecap:butt;stroke-linejoin:miter;stroke-miterlimit:4;stroke-dasharray:none;stroke-opacity:1"
         d="M 0,0 V -24.5" /><g
         transform="translate(10.607,-23.688)"
         id="g72"><path
           id="path74"
           style="fill:none;stroke:#231f20;stroke-width:1;stroke-linecap:butt;stroke-linejoin:miter;stroke-miterlimit:4;stroke-dasharray:none;stroke-opacity:1"
           d="m 0,0 h 3.643 c 2.896,0 3.808,1.137 3.808,2.451 v 5.05 c 0.502,3.108 5.629,4.094 7.287,4.274 v 0.058 C 13.08,11.984 7.953,13.09 7.451,16.019 v 5.079 c 0,1.344 -0.912,2.451 -3.808,2.451 H 0" /></g></g><text
       id="text78"
       style="font-variant:normal;font-weight:normal;font-stretch:normal;font-size:10px;font-family:Helvetica;-inkscape-font-specification:Helvetica;writing-mode:lr-tb;fill:#231f20;fill-opacity:1;fill-rule:nonzero;stroke:none"
       transform="matrix(1,0,0,-1,345.7768,25.4922)"><tspan
         id="tspan76"
         y="0"
         x="0 5.5599999 11.12 13.9 16.68 22.24 30.57 33.349998 38.349998 43.91 49.470001 55.029999 57.25 60.029999 62.25 67.809998">bottom condition</tspan></text>
<path
       id="path80"
       style="fill:#231f20;fill-opacity:1;fill-rule:nonzero;stroke:#231f20;stroke-width:0.5;stroke-linecap:butt;stroke-linejoin:miter;stroke-miterlimit:4;stroke-dasharray:4;stroke-dashoffset:0;stroke-opacity:1"
       d="m 305.522,43.269 38.54,0.003" /><g
       transform="translate(163.442,43.669)"
       id="g82"><path
         id="path84"
         style="fill:none;stroke:#231f20;stroke-width:0.5;stroke-linecap:butt;stroke-linejoin:miter;stroke-miterlimit:4;stroke-dasharray:none;stroke-opacity:1"
         d="M 0,0 V 8.635" /></g><g
       transform="translate(163.058,53.191)"
       id="g86"><path
         id="path88"
         style="fill:#231f20;fill-opacity:1;fill-rule:nonzero;stroke:none"
         d="M 0,0 C -0.187,-0.621 -0.359,-1.023 -0.56,-1.521 H 1.332 C 1.248,-1.344 0.96,-0.621 0.773,0 0.572,0.662 0.436,1.266 0.387,1.654 0.338,1.266 0.2,0.662 0,0" /></g><g
       transform="translate(163.442,43.671)"
       id="g90"><path
         id="path92"
         style="fill:none;stroke:#231f20;stroke-width:0.5;stroke-linecap:butt;stroke-linejoin:miter;stroke-miterlimit:4;stroke-dasharray:none;stroke-opacity:1"
         d="M 0,0 H 8.636" /></g><g
       transform="translate(172.963,44.056)"
       id="g94"><path
         id="path96"
         style="fill:#231f20;fill-opacity:1;fill-rule:nonzero;stroke:none"
         d="m 0,0 c -0.619,0.188 -1.023,0.359 -1.52,0.559 v -1.891 c 0.178,0.084 0.901,0.371 1.52,0.559 0.664,0.201 1.266,0.337 1.656,0.386 C 1.266,-0.338 0.664,-0.201 0,0" /></g><g
       transform="translate(163.442,43.669)"
       id="g98"><path
         id="path100"
         style="fill:none;stroke:#231f20;stroke-width:0.5;stroke-linecap:butt;stroke-linejoin:miter;stroke-miterlimit:4;stroke-dasharray:none;stroke-opacity:1"
         d="M 0,0 -6.471,-4.316" /></g><g
       transform="translate(156.397,38.576)"
       id="g102"><path
         id="path104"
         style="fill:#231f20;fill-opacity:1;fill-rule:nonzero;stroke:none"
         d="M 0,0 C 0.631,0.148 1.066,0.201 1.596,0.275 L 0.65,1.914 C 0.539,1.752 0.057,1.143 -0.387,0.67 -0.861,0.164 -1.314,-0.256 -1.627,-0.492 -1.266,-0.34 -0.675,-0.158 0,0" /></g><text
       id="text112"
       style="font-variant:normal;font-weight:normal;font-stretch:normal;font-size:9px;font-family:Helvetica;-inkscape-font-specification:Helvetica;writing-mode:lr-tb;fill:#231f20;fill-opacity:1;fill-rule:nonzero;stroke:none"
       transform="matrix(1,0,0,-1,166.8564,51.2378)"><tspan
         id="tspan106"
         y="0"
         x="0">z</tspan><tspan
         id="tspan108"
         y="9.2556"
         x="-14.6034">x</tspan><tspan
         id="tspan110"
         y="14.9355"
         x="3.753">y</tspan></text>
<text
       id="text116"
       style="font-variant:normal;font-weight:normal;font-stretch:normal;font-size:10px;font-family:Helvetica;-inkscape-font-specification:Helvetica;writing-mode:lr-tb;fill:#231f20;fill-opacity:1;fill-rule:nonzero;stroke:none"
       transform="matrix(1,0,0,-1,285.1601,2.25)"><tspan
         id="tspan114"
         y="0"
         x="0 2.78 5.5599999 8.3400002 13.9 19.459999 22.24 25.02 30.58 38.91 44.470001 50.029999 52.810001 58.369999 63.93 69.489998 72.269997 77.830002 83.389999 88.949997 94.510002 100.07 102.85 108.69 111.47 116.78 123.45 129.00999 135.67999">If bottom_at_path_end = FALSE</tspan></text>
</g></svg>