<?xml version="1.0" encoding="UTF-8" standalone="no"?>
<svg
   xmlns:dc="http://purl.org/dc/elements/1.1/"
   xmlns:cc="http://creativecommons.org/ns#"
   xmlns:rdf="http://www.w3.org/1999/02/22-rdf-syntax-ns#"
   xmlns:svg="http://www.w3.org/2000/svg"
   xmlns="http://www.w3.org/2000/svg"
   xmlns:sodipodi="http://sodipodi.sourceforge.net/DTD/sodipodi-0.dtd"
   xmlns:inkscape="http://www.inkscape.org/namespaces/inkscape"
   inkscape:version="1.0beta2 (f3d5b5a, 2020-03-13)"
   sodipodi:docname="slot_origin.svg"
   version="1.1"
   id="svg2"
   xml:space="preserve"
   width="378.492"
   height="180.38268"
   viewBox="0 0 378.492 180.38268"><sodipodi:namedview
     inkscape:current-layer="svg2"
     inkscape:cy="90.191338"
     inkscape:cx="189.246"
     inkscape:zoom="3.0780043"
     showgrid="false"
     id="namedview6231"
     inkscape:window-height="480"
     inkscape:window-width="640"
     inkscape:pageshadow="2"
     inkscape:pageopacity="0"
     guidetolerance="10"
     gridtolerance="10"
     objecttolerance="10"
     borderopacity="1"
     bordercolor="#666666"
     pagecolor="#ffffff" /><metadata
     id="metadata8"><rdf:RDF><cc:Work
         rdf:about=""><dc:format>image/svg+xml</dc:format><dc:type
           rdf:resource="http://purl.org/dc/dcmitype/StillImage" /></cc:Work></rdf:RDF></metadata><defs
     id="defs6"><marker
   inkscape:isstock="true"
   style="overflow:visible;"
   id="marker6360"
   refX="0.0"
   refY="0.0"
   orient="auto"
   inkscape:stockid="Arrow1Mend"><path
     transform="scale(0.4) rotate(180) translate(10,0)"
     style="fill-rule:evenodd;stroke:#000000;stroke-width:1pt;stroke-opacity:1;fill:#000000;fill-opacity:1"
     d="M 0.0,0.0 L 5.0,-5.0 L -12.5,0.0 L 5.0,5.0 L 0.0,0.0 z "
     id="path6358" /></marker><marker
   inkscape:collect="always"
   inkscape:stockid="Arrow1Mend"
   orient="auto"
   refY="0.0"
   refX="0.0"
   id="marker6330"
   style="overflow:visible;"
   inkscape:isstock="true"><path
     id="path6328"
     d="M 0.0,0.0 L 5.0,-5.0 L -12.5,0.0 L 5.0,5.0 L 0.0,0.0 z "
     style="fill-rule:evenodd;stroke:#000000;stroke-width:1pt;stroke-opacity:1;fill:#000000;fill-opacity:1"
     transform="scale(0.4) rotate(180) translate(10,0)" /></marker><marker
   inkscape:collect="always"
   inkscape:isstock="true"
   style="overflow:visible;"
   id="Arrow1Mend"
   refX="0.0"
   refY="0.0"
   orient="auto"
   inkscape:stockid="Arrow1Mend"><path
     transform="scale(0.4) rotate(180) translate(10,0)"
     style="fill-rule:evenodd;stroke:#000000;stroke-width:1pt;stroke-opacity:1;fill:#000000;fill-opacity:1"
     d="M 0.0,0.0 L 5.0,-5.0 L -12.5,0.0 L 5.0,5.0 L 0.0,0.0 z "
     id="path919" /></marker>





</defs><g
     transform="matrix(1.3333333,0,0,-1.3333333,344.92132,141.7)"
     id="g20"><path
       id="path22"
       style="fill:none;stroke:#231f20;stroke-width:2;stroke-linecap:butt;stroke-linejoin:miter;stroke-miterlimit:4;stroke-dasharray:none;stroke-opacity:1"
       d="M 0,0 -170.225,-0.015"
       inkscape:connector-curvature="0" /></g><g
     transform="matrix(1.3333333,0,0,-1.3333333,349.64532,139.64934)"
     id="g24"><path
       id="path26"
       style="fill:#231f20;fill-opacity:1;fill-rule:nonzero;stroke:none"
       d="M 0,0 C -2.48,0.749 -4.093,1.438 -6.082,2.236 L -6.081,-5.33 C -5.369,-4.991 -2.48,-3.841 0,-3.092 2.654,-2.29 5.061,-1.741 6.621,-1.545 5.061,-1.35 2.654,-0.802 0,0"
       inkscape:connector-curvature="0" /></g><path
     id="path28"
     style="fill:none;stroke:#231f20;stroke-width:1.33333;stroke-linecap:butt;stroke-linejoin:miter;stroke-miterlimit:4;stroke-dasharray:5.33333;stroke-dashoffset:0;stroke-opacity:1"
     d="m 117.94133,137.09467 0.02,-111.351996"
     inkscape:connector-curvature="0" /><g
     transform="matrix(1.3333333,0,0,-1.3333333,83.157331,161.80534)"
     id="g30"><path
       id="path32"
       style="fill:none;stroke:#231f20;stroke-width:0.5;stroke-linecap:butt;stroke-linejoin:miter;stroke-miterlimit:4;stroke-dasharray:none;stroke-opacity:1"
       d="M 0,0 54.508,31.47"
       inkscape:connector-curvature="0" /></g><g
     transform="matrix(1.3333333,0,0,-1.3333333,156.60133,118.81067)"
     id="g34"><path
       id="path36"
       style="fill:#231f20;fill-opacity:1;fill-rule:nonzero;stroke:none"
       d="m 0,0 c -0.63,-0.148 -1.066,-0.2 -1.596,-0.276 l 0.946,-1.638 c 0.111,0.162 0.593,0.772 1.037,1.244 0.474,0.506 0.927,0.925 1.24,1.163 C 1.265,0.34 0.675,0.158 0,0"
       inkscape:connector-curvature="0" /></g><text
     y="177.38268"
     x="142.36839"
     id="text40"
     style="font-variant:normal;font-weight:normal;font-stretch:normal;font-size:13.3333px;font-family:Helvetica;-inkscape-font-specification:'Helvetica Normal';writing-mode:lr-tb;fill:#231f20;fill-opacity:1;fill-rule:nonzero;stroke:none;stroke-width:1.33333;font-style:normal;font-variant-ligatures:normal;font-variant-caps:normal;font-variant-numeric:normal;font-variant-east-asian:normal;"><tspan
       id="tspan6298"
       sodipodi:role="line">3</tspan></text><g
     transform="matrix(1.3333333,0,0,-1.3333333,98.786664,33.306674)"
     id="g42"><path
       id="path44"
       style="fill:none;stroke:#231f20;stroke-width:2;stroke-linecap:butt;stroke-linejoin:miter;stroke-miterlimit:4;stroke-dasharray:none;stroke-opacity:1"
       d="m 0,0 0.001,-61.428 c 0,-14.933 6.494,-23.289 14.503,-18.665 8.011,4.625 14.504,20.479 14.504,35.412 l -0.002,61.428"
       inkscape:connector-curvature="0" /></g><g
     transform="matrix(1.3333333,0,0,-1.3333333,113.90133,137.628)"
     id="g46"><path
       id="path48"
       style="fill:none;stroke:#231f20;stroke-width:0.5;stroke-linecap:butt;stroke-linejoin:miter;stroke-miterlimit:4;stroke-dasharray:none;stroke-opacity:1"
       d="M 0,0 V 8.635"
       inkscape:connector-curvature="0" /></g><g
     transform="matrix(1.3333333,0,0,-1.3333333,113.38933,124.932)"
     id="g50"><path
       id="path52"
       style="fill:#231f20;fill-opacity:1;fill-rule:nonzero;stroke:none"
       d="M 0,0 C -0.187,-0.621 -0.359,-1.023 -0.56,-1.522 H 1.332 C 1.248,-1.344 0.96,-0.621 0.773,0 0.572,0.662 0.436,1.266 0.387,1.654 0.338,1.266 0.2,0.662 0,0"
       inkscape:connector-curvature="0" /></g><g
     transform="matrix(1.3333333,0,0,-1.3333333,124.24266,147.47867)"
     id="g54"><path
       id="path56"
       style="fill:none;stroke:#231f20;stroke-width:0.5;stroke-linecap:butt;stroke-linejoin:miter;stroke-miterlimit:4;stroke-dasharray:none;stroke-opacity:1"
       d="M 0,0 H 8.635"
       inkscape:connector-curvature="0" /></g><g
     transform="matrix(1.3333333,0,0,-1.3333333,136.93466,146.96534)"
     id="g58"><path
       id="path60"
       style="fill:#231f20;fill-opacity:1;fill-rule:nonzero;stroke:none"
       d="m 0,0 c -0.619,0.188 -1.023,0.359 -1.52,0.559 v -1.891 c 0.178,0.084 0.901,0.371 1.52,0.559 0.664,0.201 1.266,0.338 1.656,0.386 C 1.266,-0.338 0.664,-0.201 0,0"
       inkscape:connector-curvature="0" /></g><text
     y="151.64827"
     x="140.76292"
     id="text68"
     style="font-variant:normal;font-weight:normal;font-stretch:normal;font-size:12px;font-family:Helvetica;-inkscape-font-specification:Helvetica;writing-mode:lr-tb;fill:#231f20;fill-opacity:1;fill-rule:nonzero;stroke:none;stroke-width:1.33333"><tspan
       style="stroke-width:1.33333"
       id="tspan62"
       y="151.64827"
       x="140.76292">z</tspan><tspan
       style="stroke-width:1.33333"
       id="tspan64"
       y="118.09987"
       x="161.00333">x</tspan><tspan
       style="stroke-width:1.33333"
       id="tspan66"
       y="120.76267"
       x="108.79133">y</tspan></text><text
     y="76.236809"
     x="192.67307"
     id="text72"
     style="font-variant:normal;font-weight:normal;font-stretch:normal;font-size:13.3333px;font-family:Helvetica;-inkscape-font-specification:'Helvetica Normal';writing-mode:lr-tb;fill:#231f20;fill-opacity:1;fill-rule:nonzero;stroke:none;stroke-width:1.33333;font-style:normal;font-variant-ligatures:normal;font-variant-caps:normal;font-variant-numeric:normal;font-variant-east-asian:normal;"><tspan
       id="tspan6300"
       sodipodi:role="line">2</tspan></text><g
     transform="matrix(1.3333333,0,0,-1.3333333,128.83333,85.133339)"
     id="g74"><path
       id="path76"
       style="fill:none;stroke:#231f20;stroke-width:1;stroke-linecap:butt;stroke-linejoin:miter;stroke-miterlimit:4;stroke-dasharray:none;stroke-opacity:1"
       d="M 0,0 C 7.566,1.615 15.241,-0.548 22.877,0.111 30.379,0.759 38.123,3.116 44.5,7"
       inkscape:connector-curvature="0" /></g><g
     transform="matrix(1.3333333,0,0,-1.3333333,126.73733,86.629339)"
     id="g78"><path
       id="path80"
       style="fill:#231f20;fill-opacity:1;fill-rule:nonzero;stroke:none"
       d="M 0,0 C 1.29,-0.107 2.151,-0.277 3.207,-0.46 L 2.417,3.241 C 2.104,3.001 0.812,2.137 -0.323,1.512 -1.537,0.843 -2.657,0.323 -3.399,0.065 -2.616,0.132 -1.382,0.115 0,0"
       inkscape:connector-curvature="0" /></g><path
     id="path82"
     style="fill:none;stroke:#231f20;stroke-width:1.33333;stroke-linecap:butt;stroke-linejoin:miter;stroke-miterlimit:4;stroke-dasharray:5.33333;stroke-dashoffset:0;stroke-opacity:1"
     d="m 358.30132,139.81867 0.0213,-111.351996"
     inkscape:connector-curvature="0" /><path
     id="path84"
     style="fill:none;stroke:#231f20;stroke-width:1.33333;stroke-linecap:butt;stroke-linejoin:miter;stroke-miterlimit:4;stroke-dasharray:5.33333;stroke-dashoffset:0;stroke-opacity:1"
     d="m 339.14799,36.032007 0.001,81.903993 c 0,19.91067 8.65734,31.052 19.33734,24.88667 10.68,-6.16667 19.33866,-27.30667 19.33866,-47.217331 l -0.003,-81.902665"
     inkscape:connector-curvature="0" /><text
     y="59.948101"
     x="286.46457"
     id="text92"
     style="font-style:normal;font-variant:normal;font-weight:normal;font-stretch:normal;font-size:13.3333px;font-family:Helvetica;-inkscape-font-specification:'Helvetica Normal';font-variant-ligatures:normal;font-variant-caps:normal;font-variant-numeric:normal;font-variant-east-asian:normal;writing-mode:lr-tb;fill:#231f20;fill-opacity:1;fill-rule:nonzero;stroke:none;stroke-width:1.33333"><tspan
       y="59.948101"
       x="286.46457"
       id="tspan6296"
       sodipodi:role="line">5</tspan></text><g
     transform="matrix(1.3333333,0,0,-1.3333333,358.61732,25.264007)"
     id="g94"><path
       id="path96"
       style="fill:none;stroke:#231f20;stroke-width:0.5;stroke-linecap:butt;stroke-linejoin:miter;stroke-miterlimit:4;stroke-dasharray:none;stroke-opacity:1"
       d="M 0,0 V 8.635"
       inkscape:connector-curvature="0" /></g><g
     transform="matrix(1.3333333,0,0,-1.3333333,358.10399,12.568008)"
     id="g98"><path
       id="path100"
       style="fill:#231f20;fill-opacity:1;fill-rule:nonzero;stroke:none"
       d="M 0,0 C -0.187,-0.621 -0.359,-1.023 -0.56,-1.521 H 1.332 C 1.248,-1.344 0.96,-0.621 0.773,0 0.572,0.662 0.435,1.266 0.387,1.654 0.338,1.266 0.2,0.662 0,0"
       inkscape:connector-curvature="0" /></g><g
     transform="matrix(1.3333333,0,0,-1.3333333,347.14666,24.969341)"
     id="g102"><path
       id="path104"
       style="fill:none;stroke:#231f20;stroke-width:0.5;stroke-linecap:butt;stroke-linejoin:miter;stroke-miterlimit:4;stroke-dasharray:none;stroke-opacity:1"
       d="M 0,0 H 8.636"
       inkscape:connector-curvature="0" /></g><g
     transform="matrix(1.3333333,0,0,-1.3333333,345.96666,25.481341)"
     id="g106"><path
       id="path108"
       style="fill:#231f20;fill-opacity:1;fill-rule:nonzero;stroke:none"
       d="M 0,0 C 0.62,-0.187 1.023,-0.36 1.521,-0.56 V 1.332 C 1.342,1.247 0.62,0.96 0,0.772 -0.664,0.572 -1.265,0.435 -1.655,0.386 -1.265,0.337 -0.664,0.2 0,0"
       inkscape:connector-curvature="0" /></g><g
     transform="matrix(1.3333333,0,0,-1.3333333,367.50532,19.236007)"
     id="g110"><path
       id="path112"
       style="fill:none;stroke:#231f20;stroke-width:0.5;stroke-linecap:butt;stroke-linejoin:miter;stroke-miterlimit:4;stroke-dasharray:none;stroke-opacity:1"
       d="M 0,0 -6.471,-4.316"
       inkscape:connector-curvature="0" /></g><g
     transform="matrix(1.3333333,0,0,-1.3333333,368.20266,18.154674)"
     id="g114"><path
       id="path116"
       style="fill:#231f20;fill-opacity:1;fill-rule:nonzero;stroke:none"
       d="m 0,0 c -0.62,-0.188 -1.051,-0.268 -1.575,-0.378 l 1.05,-1.574 c 0.101,0.169 0.542,0.809 0.954,1.309 C 0.87,-0.108 1.294,0.34 1.592,0.598 1.24,0.421 0.663,0.201 0,0"
       inkscape:connector-curvature="0" /></g><text
     y="11.172274"
     x="361.61319"
     id="text124"
     style="font-variant:normal;font-weight:normal;font-stretch:normal;font-size:12px;font-family:Helvetica;-inkscape-font-specification:Helvetica;writing-mode:lr-tb;fill:#231f20;fill-opacity:1;fill-rule:nonzero;stroke:none;stroke-width:1.33333"><tspan
       style="stroke-width:1.33333"
       id="tspan118"
       y="11.172274"
       x="361.61319">z</tspan><tspan
       style="stroke-width:1.33333"
       id="tspan120"
       y="29.067873"
       x="367.23279">x</tspan><tspan
       style="stroke-width:1.33333"
       id="tspan122"
       y="20.407475"
       x="341.06198">y</tspan></text><g
     transform="matrix(1.3333333,0,0,-1.3333333,111.752,25.301341)"
     id="g126"><path
       id="path128"
       style="fill:none;stroke:#231f20;stroke-width:1;stroke-linecap:butt;stroke-linejoin:miter;stroke-miterlimit:4;stroke-dasharray:none;stroke-opacity:1"
       d="M 0,0 8.666,5.003"
       inkscape:connector-curvature="0" /><g
       transform="translate(4.928,-94.449)"
       id="g130"><path
         id="path132"
         style="fill:none;stroke:#231f20;stroke-width:1;stroke-linecap:butt;stroke-linejoin:miter;stroke-miterlimit:4;stroke-dasharray:none;stroke-opacity:1"
         d="m 0,0 c 0.97,-9.032 -1.516,-8.484 0.103,-13.444 1.949,-5.975 9.281,-1.094 14.397,-1.962"
         inkscape:connector-curvature="0" /></g></g><g
     transform="matrix(1.3333333,0,0,-1.3333333,117.052,148.99467)"
     id="g134"><path
       id="path136"
       style="fill:#231f20;fill-opacity:1;fill-rule:nonzero;stroke:none"
       d="m 0,0 c -0.24,-1.274 -0.497,-2.111 -0.788,-3.143 l 3.762,0.404 C 2.768,-2.403 2.041,-1.028 1.537,0.165 0.997,1.441 0.595,2.608 0.415,3.374 0.401,2.588 0.256,1.362 0,0"
       inkscape:connector-curvature="0" /></g><text
     id="text6304"
     y="69.200691"
     x="34.437901"
     style="font-size:13.3333px;line-height:1;font-family:Helvetica;-inkscape-font-specification:'Helvetica Normal';letter-spacing:0px;word-spacing:0px"
     xml:space="preserve"><tspan
       y="69.200691"
       x="34.437901"
       id="tspan6302"
       sodipodi:role="line">1</tspan></text><text
     id="text6308"
     y="171.86461"
     x="212.47534"
     style="font-size:13.3333px;line-height:1;font-family:Helvetica;-inkscape-font-specification:'Helvetica Normal';letter-spacing:0px;word-spacing:0px"
     xml:space="preserve"><tspan
       y="171.86461"
       x="212.47534"
       id="tspan6306"
       sodipodi:role="line">4</tspan></text><path
     sodipodi:nodetypes="cssc"
     inkscape:connector-curvature="0"
     id="path6310"
     d="m 44.834246,66.276712 c 0,0 4.223516,0.324885 12.345662,4.223515 8.122146,3.898631 -0.649772,8.122146 12.670548,11.046119 13.320319,2.923973 21.442465,4.548402 21.442465,4.548402"
     style="fill:none;stroke:#000000;stroke-width:1px;stroke-linecap:butt;stroke-linejoin:miter;stroke-opacity:1;marker-end:url(#Arrow1Mend)" /><path
     inkscape:connector-curvature="0"
     id="path6326"
     d="m 223.19657,166.66644 c 0,0 15.26964,1.94931 22.09224,-5.52306 6.8226,-7.47238 12.99543,-14.94475 12.99543,-14.94475"
     style="fill:none;stroke:#000000;stroke-width:1px;stroke-linecap:butt;stroke-linejoin:miter;stroke-opacity:1;marker-end:url(#marker6330)" /><path
     inkscape:connector-curvature="0"
     id="path6356"
     d="m 297.27055,50.682191 c 0,0 13.32031,-9.42169 20.4678,-6.497717 7.14749,2.923973 6.49772,9.746575 13.64521,5.198173 7.14749,-4.548401 21.44246,-17.543835 21.44246,-17.543835"
     style="fill:none;stroke:#000000;stroke-width:1px;stroke-linecap:butt;stroke-linejoin:miter;stroke-opacity:1;marker-end:url(#marker6360)" /></svg>
