<?xml version="1.0" encoding="UTF-8" standalone="no"?>
<svg
   xmlns:dc="http://purl.org/dc/elements/1.1/"
   xmlns:cc="http://creativecommons.org/ns#"
   xmlns:rdf="http://www.w3.org/1999/02/22-rdf-syntax-ns#"
   xmlns:svg="http://www.w3.org/2000/svg"
   xmlns="http://www.w3.org/2000/svg"
   viewBox="0 0 378.492 180.38268"
   height="180.38268"
   width="378.492"
   xml:space="preserve"
   id="svg2"
   version="1.1"><metadata
     id="metadata8"><rdf:RDF><cc:Work
         rdf:about=""><dc:format>image/svg+xml</dc:format><dc:type
           rdf:resource="http://purl.org/dc/dcmitype/StillImage" /></cc:Work></rdf:RDF></metadata><defs
     id="defs6" /><g
     transform="matrix(1.3333333,0,0,-1.3333333,0,180.38267)"
     id="g10"><text
       id="text18"
       style="font-variant:normal;font-weight:normal;font-stretch:normal;font-size:10px;font-family:Helvetica;-inkscape-font-specification:Helvetica;writing-mode:lr-tb;fill:#231f20;fill-opacity:1;fill-rule:nonzero;stroke:none"
       transform="matrix(1,0,0,-1,37.95,79.0186)"><tspan
         id="tspan12"
         y="0"
         x="0 5.5599999 8.8900003 14.45 17.23 19.450001 21.67 27.23">profile</tspan><tspan
         id="tspan14"
         y="12"
         x="-37.950001 -34.619999 -29.92 -22.799999 -17.24 -11.68 -8.8999996 -3.3399999 1.66 7.2199998 12.78 18.34 23.9">(swept_shape)</tspan><tspan
         id="tspan16"
         y="65.098"
         x="139.821 145.381 150.94099 153.72099 159.28101 162.061 165.39101 170.39101 175.951 181.511 184.841 189.841 195.401 200.961 206.521 209.30099 214.86099 217.64101 220.871 226.231 230.981 236.541 238.761">path (course_of_travel)</tspan></text>
<g
       transform="translate(258.691,29.012)"
       id="g20"><path
         id="path22"
         style="fill:none;stroke:#231f20;stroke-width:2;stroke-linecap:butt;stroke-linejoin:miter;stroke-miterlimit:4;stroke-dasharray:none;stroke-opacity:1"
         d="M 0,0 -170.225,-0.015" /></g><g
       transform="translate(262.234,30.55)"
       id="g24"><path
         id="path26"
         style="fill:#231f20;fill-opacity:1;fill-rule:nonzero;stroke:none"
         d="M 0,0 C -2.48,0.749 -4.093,1.438 -6.082,2.236 L -6.081,-5.33 C -5.369,-4.991 -2.48,-3.841 0,-3.092 2.654,-2.29 5.061,-1.741 6.621,-1.545 5.061,-1.35 2.654,-0.802 0,0" /></g><path
       id="path28"
       style="fill:none;stroke:#231f20;stroke-width:1;stroke-linecap:butt;stroke-linejoin:miter;stroke-miterlimit:4;stroke-dasharray:4;stroke-dashoffset:0;stroke-opacity:1"
       d="m 88.456,32.466 0.015,83.514" /><g
       transform="translate(62.368,13.933)"
       id="g30"><path
         id="path32"
         style="fill:none;stroke:#231f20;stroke-width:0.5;stroke-linecap:butt;stroke-linejoin:miter;stroke-miterlimit:4;stroke-dasharray:none;stroke-opacity:1"
         d="M 0,0 54.508,31.47" /></g><g
       transform="translate(117.451,46.179)"
       id="g34"><path
         id="path36"
         style="fill:#231f20;fill-opacity:1;fill-rule:nonzero;stroke:none"
         d="m 0,0 c -0.63,-0.148 -1.066,-0.2 -1.596,-0.276 l 0.946,-1.638 c 0.111,0.162 0.593,0.772 1.037,1.244 0.474,0.506 0.927,0.925 1.24,1.163 C 1.265,0.34 0.675,0.158 0,0" /></g><text
       id="text40"
       style="font-variant:normal;font-weight:normal;font-stretch:normal;font-size:10px;font-family:Helvetica;-inkscape-font-specification:Helvetica;writing-mode:lr-tb;fill:#231f20;fill-opacity:1;fill-rule:nonzero;stroke:none"
       transform="matrix(1,0,0,-1,106.7763,2.25)"><tspan
         id="tspan38"
         y="0"
         x="0 2.48 8.04 13.6 16.379999 21.940001 25.27 30.83 33.610001 39.169998 42.650002 44.869999 50.43 52.650002">feature origin</tspan></text>
<g
       transform="translate(74.09,110.307)"
       id="g42"><path
         id="path44"
         style="fill:none;stroke:#231f20;stroke-width:2;stroke-linecap:butt;stroke-linejoin:miter;stroke-miterlimit:4;stroke-dasharray:none;stroke-opacity:1"
         d="m 0,0 0.001,-61.428 c 0,-14.933 6.494,-23.289 14.503,-18.665 8.011,4.625 14.504,20.479 14.504,35.412 l -0.002,61.428" /></g><g
       transform="translate(85.426,32.066)"
       id="g46"><path
         id="path48"
         style="fill:none;stroke:#231f20;stroke-width:0.5;stroke-linecap:butt;stroke-linejoin:miter;stroke-miterlimit:4;stroke-dasharray:none;stroke-opacity:1"
         d="M 0,0 V 8.635" /></g><g
       transform="translate(85.042,41.588)"
       id="g50"><path
         id="path52"
         style="fill:#231f20;fill-opacity:1;fill-rule:nonzero;stroke:none"
         d="M 0,0 C -0.187,-0.621 -0.359,-1.023 -0.56,-1.522 H 1.332 C 1.248,-1.344 0.96,-0.621 0.773,0 0.572,0.662 0.436,1.266 0.387,1.654 0.338,1.266 0.2,0.662 0,0" /></g><g
       transform="translate(93.182,24.678)"
       id="g54"><path
         id="path56"
         style="fill:none;stroke:#231f20;stroke-width:0.5;stroke-linecap:butt;stroke-linejoin:miter;stroke-miterlimit:4;stroke-dasharray:none;stroke-opacity:1"
         d="M 0,0 H 8.635" /></g><g
       transform="translate(102.701,25.063)"
       id="g58"><path
         id="path60"
         style="fill:#231f20;fill-opacity:1;fill-rule:nonzero;stroke:none"
         d="m 0,0 c -0.619,0.188 -1.023,0.359 -1.52,0.559 v -1.891 c 0.178,0.084 0.901,0.371 1.52,0.559 0.664,0.201 1.266,0.338 1.656,0.386 C 1.266,-0.338 0.664,-0.201 0,0" /></g><text
       id="text68"
       style="font-variant:normal;font-weight:normal;font-stretch:normal;font-size:9px;font-family:Helvetica;-inkscape-font-specification:Helvetica;writing-mode:lr-tb;fill:#231f20;fill-opacity:1;fill-rule:nonzero;stroke:none"
       transform="matrix(1,0,0,-1,105.5722,21.5508)"><tspan
         id="tspan62"
         y="0"
         x="0">z</tspan><tspan
         id="tspan64"
         y="-25.161301"
         x="15.1803">x</tspan><tspan
         id="tspan66"
         y="-23.1642"
         x="-23.978701">y</tspan></text>
<text
       id="text72"
       style="font-variant:normal;font-weight:normal;font-stretch:normal;font-size:10px;font-family:Helvetica;-inkscape-font-specification:Helvetica;writing-mode:lr-tb;fill:#231f20;fill-opacity:1;fill-rule:nonzero;stroke:none"
       transform="matrix(1,0,0,-1,144.5048,78.1094)"><tspan
         id="tspan70"
         y="0"
         x="0 5.5599999 8.8900003 14.45 17.23 19.450001 21.67 27.23 30.01 35.57 41.130001 46.689999 49.470001">profile depth</tspan></text>
<g
       transform="translate(96.625,71.437)"
       id="g74"><path
         id="path76"
         style="fill:none;stroke:#231f20;stroke-width:1;stroke-linecap:butt;stroke-linejoin:miter;stroke-miterlimit:4;stroke-dasharray:none;stroke-opacity:1"
         d="M 0,0 C 7.566,1.615 15.241,-0.548 22.877,0.111 30.379,0.759 38.123,3.116 44.5,7" /></g><g
       transform="translate(95.053,70.315)"
       id="g78"><path
         id="path80"
         style="fill:#231f20;fill-opacity:1;fill-rule:nonzero;stroke:none"
         d="M 0,0 C 1.29,-0.107 2.151,-0.277 3.207,-0.46 L 2.417,3.241 C 2.104,3.001 0.812,2.137 -0.323,1.512 -1.537,0.843 -2.657,0.323 -3.399,0.065 -2.616,0.132 -1.382,0.115 0,0" /></g><path
       id="path82"
       style="fill:none;stroke:#231f20;stroke-width:1;stroke-linecap:butt;stroke-linejoin:miter;stroke-miterlimit:4;stroke-dasharray:4;stroke-dashoffset:0;stroke-opacity:1"
       d="m 268.726,30.423 0.016,83.514" /><path
       id="path84"
       style="fill:none;stroke:#231f20;stroke-width:1;stroke-linecap:butt;stroke-linejoin:miter;stroke-miterlimit:4;stroke-dasharray:4;stroke-dashoffset:0;stroke-opacity:1"
       d="m 254.361,108.263 0.001,-61.428 c 0,-14.933 6.493,-23.289 14.503,-18.665 8.01,4.625 14.504,20.48 14.504,35.413 l -0.002,61.427" /><text
       id="text92"
       style="font-variant:normal;font-weight:normal;font-stretch:normal;font-size:10px;font-family:Helvetica;-inkscape-font-specification:Helvetica;writing-mode:lr-tb;fill:#231f20;fill-opacity:1;fill-rule:nonzero;stroke:none"
       transform="matrix(1,0,0,-1,176.1058,125.4136)"><tspan
         id="tspan86"
         y="0"
         x="0 2.78 9.4499998 17.23 20.01 25.57 31.129999 36.689999 42.25 47.810001 50.59 56.150002 59.630001 61.849998 67.410004 69.629997 75.190002">ISO 14649 origin</tspan><tspan
         id="tspan88"
         y="12"
         x="1.39 4.7199998 10.28 15.84 18.620001 24.18 26.959999 32.52 36 38.220001 43.779999 49.34 52.119999 57.68 60.459999 62.68 68.239998 73.800003">(note orientation</tspan><tspan
         id="tspan90"
         y="24"
         x="19.959999 25.52 28.299999 31.08 36.639999 41.34 46.900002 51.900002">of axes)</tspan></text>
<g
       transform="translate(268.963,116.339)"
       id="g94"><path
         id="path96"
         style="fill:none;stroke:#231f20;stroke-width:0.5;stroke-linecap:butt;stroke-linejoin:miter;stroke-miterlimit:4;stroke-dasharray:none;stroke-opacity:1"
         d="M 0,0 V 8.635" /></g><g
       transform="translate(268.578,125.861)"
       id="g98"><path
         id="path100"
         style="fill:#231f20;fill-opacity:1;fill-rule:nonzero;stroke:none"
         d="M 0,0 C -0.187,-0.621 -0.359,-1.023 -0.56,-1.521 H 1.332 C 1.248,-1.344 0.96,-0.621 0.773,0 0.572,0.662 0.435,1.266 0.387,1.654 0.338,1.266 0.2,0.662 0,0" /></g><g
       transform="translate(260.36,116.56)"
       id="g102"><path
         id="path104"
         style="fill:none;stroke:#231f20;stroke-width:0.5;stroke-linecap:butt;stroke-linejoin:miter;stroke-miterlimit:4;stroke-dasharray:none;stroke-opacity:1"
         d="M 0,0 H 8.636" /></g><g
       transform="translate(259.475,116.176)"
       id="g106"><path
         id="path108"
         style="fill:#231f20;fill-opacity:1;fill-rule:nonzero;stroke:none"
         d="M 0,0 C 0.62,-0.187 1.023,-0.36 1.521,-0.56 V 1.332 C 1.342,1.247 0.62,0.96 0,0.772 -0.664,0.572 -1.265,0.435 -1.655,0.386 -1.265,0.337 -0.664,0.2 0,0" /></g><g
       transform="translate(275.629,120.86)"
       id="g110"><path
         id="path112"
         style="fill:none;stroke:#231f20;stroke-width:0.5;stroke-linecap:butt;stroke-linejoin:miter;stroke-miterlimit:4;stroke-dasharray:none;stroke-opacity:1"
         d="M 0,0 -6.471,-4.316" /></g><g
       transform="translate(276.152,121.671)"
       id="g114"><path
         id="path116"
         style="fill:#231f20;fill-opacity:1;fill-rule:nonzero;stroke:none"
         d="m 0,0 c -0.62,-0.188 -1.051,-0.268 -1.575,-0.378 l 1.05,-1.574 c 0.101,0.169 0.542,0.809 0.954,1.309 C 0.87,-0.108 1.294,0.34 1.592,0.598 1.24,0.421 0.663,0.201 0,0" /></g><text
       id="text124"
       style="font-variant:normal;font-weight:normal;font-stretch:normal;font-size:9px;font-family:Helvetica;-inkscape-font-specification:Helvetica;writing-mode:lr-tb;fill:#231f20;fill-opacity:1;fill-rule:nonzero;stroke:none"
       transform="matrix(1,0,0,-1,271.2099,126.9078)"><tspan
         id="tspan118"
         y="0"
         x="0">z</tspan><tspan
         id="tspan120"
         y="13.4217"
         x="4.2147002">x</tspan><tspan
         id="tspan122"
         y="6.9264002"
         x="-15.4134">y</tspan></text>
<g
       transform="translate(83.814,116.311)"
       id="g126"><path
         id="path128"
         style="fill:none;stroke:#231f20;stroke-width:1;stroke-linecap:butt;stroke-linejoin:miter;stroke-miterlimit:4;stroke-dasharray:none;stroke-opacity:1"
         d="M 0,0 8.666,5.003" /><g
         transform="translate(4.928,-94.449)"
         id="g130"><path
           id="path132"
           style="fill:none;stroke:#231f20;stroke-width:1;stroke-linecap:butt;stroke-linejoin:miter;stroke-miterlimit:4;stroke-dasharray:none;stroke-opacity:1"
           d="m 0,0 c 0.97,-9.032 -1.516,-8.484 0.103,-13.444 1.949,-5.975 9.281,-1.094 14.397,-1.962" /></g></g><g
       transform="translate(87.789,23.541)"
       id="g134"><path
         id="path136"
         style="fill:#231f20;fill-opacity:1;fill-rule:nonzero;stroke:none"
         d="m 0,0 c -0.24,-1.274 -0.497,-2.111 -0.788,-3.143 l 3.762,0.404 C 2.768,-2.403 2.041,-1.028 1.537,0.165 0.997,1.441 0.595,2.608 0.415,3.374 0.401,2.588 0.256,1.362 0,0" /></g></g></svg>