<?xml version="1.0" encoding="UTF-8" standalone="no"?>
<svg
   xmlns:dc="http://purl.org/dc/elements/1.1/"
   xmlns:cc="http://creativecommons.org/ns#"
   xmlns:rdf="http://www.w3.org/1999/02/22-rdf-syntax-ns#"
   xmlns:svg="http://www.w3.org/2000/svg"
   xmlns="http://www.w3.org/2000/svg"
   viewBox="0 0 406.04401 190.38933"
   height="190.38933"
   width="406.04401"
   xml:space="preserve"
   id="svg2"
   version="1.1"><metadata
     id="metadata8"><rdf:RDF><cc:Work
         rdf:about=""><dc:format>image/svg+xml</dc:format><dc:type
           rdf:resource="http://purl.org/dc/dcmitype/StillImage" /></cc:Work></rdf:RDF></metadata><defs
     id="defs6" /><g
     transform="matrix(1.3333333,0,0,-1.3333333,0,190.38933)"
     id="g10"><text
       id="text18"
       style="font-variant:normal;font-weight:normal;font-stretch:normal;font-size:10px;font-family:Helvetica;-inkscape-font-specification:Helvetica;writing-mode:lr-tb;fill:#231f20;fill-opacity:1;fill-rule:nonzero;stroke:none"
       transform="matrix(1,0,0,-1,37.95,47.5967)"><tspan
         id="tspan12"
         y="0"
         x="0 5.5599999 8.8900003 14.45 17.23 19.450001 21.67 27.23">profile</tspan><tspan
         id="tspan14"
         y="12"
         x="-37.950001 -34.619999 -29.92 -22.799999 -17.24 -11.68 -8.8999996 -3.3399999 1.66 7.2199998 12.78 18.34 23.9">(swept_shape)</tspan><tspan
         id="tspan16"
         y="-3.0610001"
         x="164.314 169.87399 175.43401 178.214 183.774 186.554 189.884 194.884 200.444 206.004 209.334 214.334 219.894 225.45399 231.01401 233.79401 239.354 242.134 245.364 250.724 255.474 261.034 263.254">path (course_of_travel)</tspan></text>
<g
       transform="translate(268.191,38.09)"
       id="g20"><path
         id="path22"
         style="fill:none;stroke:#231f20;stroke-width:2;stroke-linecap:butt;stroke-linejoin:miter;stroke-miterlimit:4;stroke-dasharray:none;stroke-opacity:1"
         d="M 0,0 -170.225,-0.015" /></g><g
       transform="translate(271.734,39.628)"
       id="g24"><path
         id="path26"
         style="fill:#231f20;fill-opacity:1;fill-rule:nonzero;stroke:none"
         d="M 0,0 C -2.48,0.749 -4.093,1.438 -6.082,2.236 L -6.081,-5.33 C -5.369,-4.991 -2.48,-3.841 0,-3.092 2.654,-2.29 5.061,-1.741 6.621,-1.545 5.061,-1.35 2.654,-0.802 0,0" /></g><text
       id="text34"
       style="font-variant:normal;font-weight:normal;font-stretch:normal;font-size:10px;font-family:Helvetica;-inkscape-font-specification:Helvetica;writing-mode:lr-tb;fill:#231f20;fill-opacity:1;fill-rule:nonzero;stroke:none"
       transform="matrix(1,0,0,-1,0.1571,130.6763)"><tspan
         id="tspan28"
         y="0"
         x="0 2.78 9.4499998 17.23 20.01 25.57 31.129999 36.689999 42.25 47.810001 50.59 56.150002 59.630001 61.849998 67.410004 69.629997 75.190002">ISO 14649 origin</tspan><tspan
         id="tspan30"
         y="12"
         x="1.39 4.7199998 10.28 15.84 18.620001 24.18 26.959999 32.52 36 38.220001 43.779999 49.34 52.119999 57.68 60.459999 62.68 68.239998 73.800003">(note orientation</tspan><tspan
         id="tspan32"
         y="24"
         x="19.959999 25.52 28.299999 31.08 36.639999 41.34 46.900002 51.900002">of axes)</tspan></text>
<path
       id="path36"
       style="fill:none;stroke:#231f20;stroke-width:1;stroke-linecap:butt;stroke-linejoin:miter;stroke-miterlimit:4;stroke-dasharray:4;stroke-dashoffset:0;stroke-opacity:1"
       d="m 97.955,41.544 0.016,83.514" /><g
       transform="translate(71.868,23.011)"
       id="g38"><path
         id="path40"
         style="fill:none;stroke:#231f20;stroke-width:0.5;stroke-linecap:butt;stroke-linejoin:miter;stroke-miterlimit:4;stroke-dasharray:none;stroke-opacity:1"
         d="M 0,0 54.508,31.47" /></g><g
       transform="translate(126.951,55.257)"
       id="g42"><path
         id="path44"
         style="fill:#231f20;fill-opacity:1;fill-rule:nonzero;stroke:none"
         d="m 0,0 c -0.63,-0.148 -1.066,-0.2 -1.596,-0.276 l 0.946,-1.638 c 0.111,0.162 0.593,0.772 1.037,1.244 0.474,0.506 0.927,0.925 1.24,1.163 C 1.265,0.34 0.675,0.158 0,0" /></g><text
       id="text48"
       style="font-variant:normal;font-weight:normal;font-stretch:normal;font-size:10px;font-family:Helvetica;-inkscape-font-specification:Helvetica;writing-mode:lr-tb;fill:#231f20;fill-opacity:1;fill-rule:nonzero;stroke:none"
       transform="matrix(1,0,0,-1,117.2841,2.25)"><tspan
         id="tspan46"
         y="0"
         x="0 2.48 8.04 13.6 16.379999 21.940001 25.27 30.83 33.610001 39.169998 42.650002">feature ori</tspan></text>
<text
       id="text52"
       style="font-variant:normal;font-weight:normal;font-stretch:normal;font-size:10px;font-family:Helvetica;-inkscape-font-specification:Helvetica;writing-mode:lr-tb;fill:#231f20;fill-opacity:1;fill-rule:nonzero;stroke:none"
       transform="matrix(1,0,0,-1,162.1585,2.25)"><tspan
         id="tspan50"
         y="0"
         x="0">g</tspan></text>
<text
       id="text56"
       style="font-variant:normal;font-weight:normal;font-stretch:normal;font-size:10px;font-family:Helvetica;-inkscape-font-specification:Helvetica;writing-mode:lr-tb;fill:#231f20;fill-opacity:1;fill-rule:nonzero;stroke:none"
       transform="matrix(1,0,0,-1,167.72,2.25)"><tspan
         id="tspan54"
         y="0"
         x="0 2.22">in</tspan></text>
<g
       transform="translate(98.359,31.023)"
       id="g58"><path
         id="path60"
         style="fill:none;stroke:#231f20;stroke-width:1;stroke-linecap:butt;stroke-linejoin:miter;stroke-miterlimit:4;stroke-dasharray:none;stroke-opacity:1"
         d="M 0,0 C 0.809,-7.533 -5.746,-15.585 -1.913,-23.522 0.82,-29.182 9.384,-26.632 14.5,-27.5" /></g><g
       transform="translate(97.406,32.702)"
       id="g62"><path
         id="path64"
         style="fill:#231f20;fill-opacity:1;fill-rule:nonzero;stroke:none"
         d="m 0,0 c -0.24,-1.273 -0.498,-2.111 -0.788,-3.143 l 3.762,0.404 C 2.768,-2.403 2.041,-1.028 1.537,0.165 0.997,1.442 0.595,2.609 0.415,3.375 0.401,2.588 0.256,1.362 0,0" /></g><g
       transform="translate(83.59,119.385)"
       id="g66"><path
         id="path68"
         style="fill:none;stroke:#231f20;stroke-width:2;stroke-linecap:butt;stroke-linejoin:miter;stroke-miterlimit:4;stroke-dasharray:none;stroke-opacity:1"
         d="m 0,0 0.001,-61.428 c 0,-14.933 6.494,-23.289 14.503,-18.665 8.011,4.625 14.504,20.479 14.504,35.412 l -0.002,61.428" /></g><g
       transform="translate(94.926,41.145)"
       id="g70"><path
         id="path72"
         style="fill:none;stroke:#231f20;stroke-width:0.5;stroke-linecap:butt;stroke-linejoin:miter;stroke-miterlimit:4;stroke-dasharray:none;stroke-opacity:1"
         d="M 0,0 V 8.635" /></g><g
       transform="translate(94.541,50.666)"
       id="g74"><path
         id="path76"
         style="fill:#231f20;fill-opacity:1;fill-rule:nonzero;stroke:none"
         d="M 0,0 C -0.187,-0.621 -0.359,-1.023 -0.56,-1.522 H 1.332 C 1.248,-1.344 0.96,-0.621 0.773,0 0.572,0.662 0.435,1.266 0.387,1.654 0.338,1.266 0.2,0.662 0,0" /></g><g
       transform="translate(102.682,33.756)"
       id="g78"><path
         id="path80"
         style="fill:none;stroke:#231f20;stroke-width:0.5;stroke-linecap:butt;stroke-linejoin:miter;stroke-miterlimit:4;stroke-dasharray:none;stroke-opacity:1"
         d="M 0,0 H 8.635" /></g><g
       transform="translate(112.201,34.141)"
       id="g82"><path
         id="path84"
         style="fill:#231f20;fill-opacity:1;fill-rule:nonzero;stroke:none"
         d="m 0,0 c -0.619,0.188 -1.023,0.359 -1.52,0.559 v -1.891 c 0.178,0.084 0.901,0.371 1.52,0.559 0.664,0.201 1.266,0.338 1.656,0.386 C 1.266,-0.338 0.664,-0.201 0,0" /></g><text
       id="text92"
       style="font-variant:normal;font-weight:normal;font-stretch:normal;font-size:9px;font-family:Helvetica;-inkscape-font-specification:Helvetica;writing-mode:lr-tb;fill:#231f20;fill-opacity:1;fill-rule:nonzero;stroke:none"
       transform="matrix(1,0,0,-1,115.0722,30.6289)"><tspan
         id="tspan86"
         y="0"
         x="0">z</tspan><tspan
         id="tspan88"
         y="-25.161301"
         x="15.1803">x</tspan><tspan
         id="tspan90"
         y="-23.1642"
         x="-23.978701">y</tspan></text>
<text
       id="text96"
       style="font-variant:normal;font-weight:normal;font-stretch:normal;font-size:10px;font-family:Helvetica;-inkscape-font-specification:Helvetica;writing-mode:lr-tb;fill:#231f20;fill-opacity:1;fill-rule:nonzero;stroke:none"
       transform="matrix(1,0,0,-1,154.0048,92.2266)"><tspan
         id="tspan94"
         y="0"
         x="0 5.5599999 8.8900003 14.45 17.23 19.450001 21.67 27.23 30.01 35.57 41.130001 46.689999 49.470001">profile depth</tspan></text>
<g
       transform="translate(106.125,85.554)"
       id="g98"><path
         id="path100"
         style="fill:none;stroke:#231f20;stroke-width:1;stroke-linecap:butt;stroke-linejoin:miter;stroke-miterlimit:4;stroke-dasharray:none;stroke-opacity:1"
         d="M 0,0 C 7.566,1.615 15.241,-0.548 22.877,0.111 30.379,0.759 38.123,3.116 44.5,7" /></g><g
       transform="translate(104.553,84.432)"
       id="g102"><path
         id="path104"
         style="fill:#231f20;fill-opacity:1;fill-rule:nonzero;stroke:none"
         d="m 0,0 c 1.29,-0.107 2.151,-0.277 3.207,-0.459 l -0.789,3.7 C 2.104,3.001 0.812,2.137 -0.323,1.512 -1.537,0.843 -2.657,0.323 -3.399,0.065 -2.616,0.132 -1.382,0.115 0,0" /></g><g
       transform="translate(98.021,126.844)"
       id="g106"><path
         id="path108"
         style="fill:none;stroke:#231f20;stroke-width:0.5;stroke-linecap:butt;stroke-linejoin:miter;stroke-miterlimit:4;stroke-dasharray:none;stroke-opacity:1"
         d="M 0,0 V 8.635" /></g><g
       transform="translate(97.637,136.366)"
       id="g110"><path
         id="path112"
         style="fill:#231f20;fill-opacity:1;fill-rule:nonzero;stroke:none"
         d="M 0,0 C -0.187,-0.621 -0.359,-1.023 -0.56,-1.521 H 1.332 C 1.248,-1.344 0.96,-0.621 0.773,0 0.572,0.662 0.435,1.266 0.387,1.654 0.338,1.266 0.2,0.662 0,0" /></g><g
       transform="translate(98.021,126.846)"
       id="g114"><path
         id="path116"
         style="fill:none;stroke:#231f20;stroke-width:0.5;stroke-linecap:butt;stroke-linejoin:miter;stroke-miterlimit:4;stroke-dasharray:none;stroke-opacity:1"
         d="M 0,0 H 8.636" /></g><g
       transform="translate(107.542,127.231)"
       id="g118"><path
         id="path120"
         style="fill:#231f20;fill-opacity:1;fill-rule:nonzero;stroke:none"
         d="m 0,0 c -0.619,0.188 -1.023,0.359 -1.52,0.559 v -1.891 c 0.178,0.084 0.901,0.371 1.52,0.559 0.664,0.201 1.266,0.337 1.656,0.386 C 1.266,-0.338 0.664,-0.201 0,0" /></g><g
       transform="translate(98.021,126.844)"
       id="g122"><path
         id="path124"
         style="fill:none;stroke:#231f20;stroke-width:0.5;stroke-linecap:butt;stroke-linejoin:miter;stroke-miterlimit:4;stroke-dasharray:none;stroke-opacity:1"
         d="M 0,0 -6.471,-4.317" /></g><g
       transform="translate(90.976,121.751)"
       id="g126"><path
         id="path128"
         style="fill:#231f20;fill-opacity:1;fill-rule:nonzero;stroke:none"
         d="M 0,0 C 0.631,0.148 1.066,0.201 1.596,0.275 L 0.65,1.914 C 0.539,1.752 0.057,1.143 -0.387,0.67 -0.861,0.164 -1.314,-0.256 -1.627,-0.492 -1.266,-0.34 -0.675,-0.158 0,0" /></g><text
       id="text136"
       style="font-variant:normal;font-weight:normal;font-stretch:normal;font-size:9px;font-family:Helvetica;-inkscape-font-specification:Helvetica;writing-mode:lr-tb;fill:#231f20;fill-opacity:1;fill-rule:nonzero;stroke:none"
       transform="matrix(1,0,0,-1,101.4355,134.4126)"><tspan
         id="tspan130"
         y="0"
         x="0">z</tspan><tspan
         id="tspan132"
         y="9.2556"
         x="-14.6034">x</tspan><tspan
         id="tspan134"
         y="14.9355"
         x="3.753">y</tspan></text>
</g></svg>