<?xml version="1.0" encoding="UTF-8" standalone="no"?>
<svg
   xmlns:dc="http://purl.org/dc/elements/1.1/"
   xmlns:cc="http://creativecommons.org/ns#"
   xmlns:rdf="http://www.w3.org/1999/02/22-rdf-syntax-ns#"
   xmlns:svg="http://www.w3.org/2000/svg"
   xmlns="http://www.w3.org/2000/svg"
   viewBox="0 0 409.34668 186.64799"
   height="186.64799"
   width="409.34668"
   xml:space="preserve"
   id="svg2"
   version="1.1"><metadata
     id="metadata8"><rdf:RDF><cc:Work
         rdf:about=""><dc:format>image/svg+xml</dc:format><dc:type
           rdf:resource="http://purl.org/dc/dcmitype/StillImage" /></cc:Work></rdf:RDF></metadata><defs
     id="defs6" /><g
     transform="matrix(1.3333333,0,0,-1.3333333,0,186.648)"
     id="g10"><text
       id="text18"
       style="font-variant:normal;font-weight:normal;font-stretch:normal;font-size:10px;font-family:Helvetica;-inkscape-font-specification:Helvetica;writing-mode:lr-tb;fill:#231f20;fill-opacity:1;fill-rule:nonzero;stroke:none"
       transform="matrix(1,0,0,-1,40.4271,47.5967)"><tspan
         id="tspan12"
         y="0"
         x="0 5.5599999 8.8900003 14.45 17.23 19.450001 21.67 27.23">profile</tspan><tspan
         id="tspan14"
         y="12"
         x="-37.950001 -34.619999 -29.92 -22.799999 -17.24 -11.68 -8.8999996 -3.3399999 1.66 7.2199998 12.78 18.34 23.9">(swept_shape)</tspan><tspan
         id="tspan16"
         y="-3.0610001"
         x="164.314 169.87399 175.43401 178.214 183.774 186.554 189.884 194.884 200.444 206.004 209.334 214.334 219.894 225.45399 231.01401 233.79401 239.354 242.134 245.364 250.724 255.474 261.034 263.254">path (course_of_travel)</tspan></text>
<g
       transform="translate(270.668,38.09)"
       id="g20"><path
         id="path22"
         style="fill:none;stroke:#231f20;stroke-width:2;stroke-linecap:butt;stroke-linejoin:miter;stroke-miterlimit:4;stroke-dasharray:none;stroke-opacity:1"
         d="M 0,0 -170.225,-0.015" /></g><g
       transform="translate(274.211,39.628)"
       id="g24"><path
         id="path26"
         style="fill:#231f20;fill-opacity:1;fill-rule:nonzero;stroke:none"
         d="M 0,0 C -2.48,0.749 -4.093,1.438 -6.082,2.236 L -6.081,-5.33 C -5.369,-4.991 -2.48,-3.841 0,-3.092 2.654,-2.29 5.061,-1.741 6.621,-1.545 5.061,-1.35 2.654,-0.802 0,0" /></g><text
       id="text34"
       style="font-variant:normal;font-weight:normal;font-stretch:normal;font-size:10px;font-family:Helvetica;-inkscape-font-specification:Helvetica;writing-mode:lr-tb;fill:#231f20;fill-opacity:1;fill-rule:nonzero;stroke:none"
       transform="matrix(1,0,0,-1,-1e-4,130.6763)"><tspan
         id="tspan28"
         y="0"
         x="0 5.5599999 11.12 16.68 19.459999 25.02 27.799999 33.360001 36.139999 38.919998 44.48 47.810001 53.369999 56.150002 58.369999 60.59 66.150002 68.93 73.93 76.150002 81.709999 84.489998">depth of profile/slot</tspan><tspan
         id="tspan30"
         y="12"
         x="5.7199998 9.0500002 13.8 19.360001 22.84 25.059999 30.620001 35.619999 38.400002 43.759998 48.759998 51.540001 57.099998 60.43 65.989998 68.769997 70.989998 73.209999 78.769997">(varies by profile</tspan><tspan
         id="tspan32"
         y="24"
         x="23.07 28.07 33.630001 39.189999 41.970001 46.970001 52.529999 58.09">subtype)</tspan></text>
<path
       id="path36"
       style="fill:none;stroke:#231f20;stroke-width:1;stroke-linecap:butt;stroke-linejoin:miter;stroke-miterlimit:4;stroke-dasharray:4;stroke-dashoffset:0;stroke-opacity:1"
       d="m 100.433,41.544 0.015,83.514" /><g
       transform="translate(96.107,123.807)"
       id="g38"><path
         id="path40"
         style="fill:none;stroke:#231f20;stroke-width:1;stroke-linecap:butt;stroke-linejoin:miter;stroke-miterlimit:4;stroke-dasharray:none;stroke-opacity:1"
         d="M 0,0 8.667,5.003" /></g><g
       transform="translate(74.345,23.011)"
       id="g42"><path
         id="path44"
         style="fill:none;stroke:#231f20;stroke-width:0.5;stroke-linecap:butt;stroke-linejoin:miter;stroke-miterlimit:4;stroke-dasharray:none;stroke-opacity:1"
         d="M 0,0 54.508,31.47" /></g><g
       transform="translate(129.428,55.257)"
       id="g46"><path
         id="path48"
         style="fill:#231f20;fill-opacity:1;fill-rule:nonzero;stroke:none"
         d="m 0,0 c -0.63,-0.148 -1.066,-0.2 -1.596,-0.276 l 0.946,-1.638 c 0.111,0.162 0.593,0.772 1.037,1.244 0.474,0.506 0.927,0.925 1.24,1.163 C 1.265,0.34 0.675,0.158 0,0" /></g><text
       id="text52"
       style="font-variant:normal;font-weight:normal;font-stretch:normal;font-size:10px;font-family:Helvetica;-inkscape-font-specification:Helvetica;writing-mode:lr-tb;fill:#231f20;fill-opacity:1;fill-rule:nonzero;stroke:none"
       transform="matrix(1,0,0,-1,119.7612,2.25)"><tspan
         id="tspan50"
         y="0"
         x="0 2.48 8.04 13.6 16.379999 21.940001 25.27 30.83 33.610001 39.169998 42.650002 44.869999 50.43 52.650002">feature origin</tspan></text>
<g
       transform="translate(100.836,31.023)"
       id="g54"><path
         id="path56"
         style="fill:none;stroke:#231f20;stroke-width:1;stroke-linecap:butt;stroke-linejoin:miter;stroke-miterlimit:4;stroke-dasharray:none;stroke-opacity:1"
         d="M 0,0 C 0.809,-7.533 -5.746,-15.585 -1.913,-23.522 0.82,-29.182 9.384,-26.632 14.5,-27.5" /></g><g
       transform="translate(99.883,32.702)"
       id="g58"><path
         id="path60"
         style="fill:#231f20;fill-opacity:1;fill-rule:nonzero;stroke:none"
         d="m 0,0 c -0.24,-1.273 -0.498,-2.111 -0.788,-3.143 l 3.762,0.404 C 2.768,-2.403 2.041,-1.028 1.537,0.165 0.997,1.442 0.595,2.609 0.415,3.375 0.401,2.588 0.256,1.362 0,0" /></g><g
       transform="translate(86.067,119.385)"
       id="g62"><path
         id="path64"
         style="fill:none;stroke:#231f20;stroke-width:2;stroke-linecap:butt;stroke-linejoin:miter;stroke-miterlimit:4;stroke-dasharray:none;stroke-opacity:1"
         d="m 0,0 0.001,-61.428 c 0,-14.933 6.494,-23.289 14.503,-18.665 8.011,4.625 14.504,20.479 14.504,35.412 l -0.002,61.428" /></g><g
       transform="translate(97.403,41.145)"
       id="g66"><path
         id="path68"
         style="fill:none;stroke:#231f20;stroke-width:0.5;stroke-linecap:butt;stroke-linejoin:miter;stroke-miterlimit:4;stroke-dasharray:none;stroke-opacity:1"
         d="M 0,0 V 8.635" /></g><g
       transform="translate(97.019,50.666)"
       id="g70"><path
         id="path72"
         style="fill:#231f20;fill-opacity:1;fill-rule:nonzero;stroke:none"
         d="M 0,0 C -0.187,-0.621 -0.359,-1.023 -0.56,-1.522 H 1.332 C 1.248,-1.344 0.96,-0.621 0.773,0 0.572,0.662 0.436,1.266 0.387,1.654 0.338,1.266 0.2,0.662 0,0" /></g><g
       transform="translate(105.159,33.756)"
       id="g74"><path
         id="path76"
         style="fill:none;stroke:#231f20;stroke-width:0.5;stroke-linecap:butt;stroke-linejoin:miter;stroke-miterlimit:4;stroke-dasharray:none;stroke-opacity:1"
         d="M 0,0 H 8.635" /></g><g
       transform="translate(114.678,34.141)"
       id="g78"><path
         id="path80"
         style="fill:#231f20;fill-opacity:1;fill-rule:nonzero;stroke:none"
         d="m 0,0 c -0.619,0.188 -1.023,0.359 -1.52,0.559 v -1.891 c 0.178,0.084 0.901,0.371 1.52,0.559 0.664,0.201 1.266,0.338 1.656,0.386 C 1.266,-0.338 0.664,-0.201 0,0" /></g><text
       id="text88"
       style="font-variant:normal;font-weight:normal;font-stretch:normal;font-size:9px;font-family:Helvetica;-inkscape-font-specification:Helvetica;writing-mode:lr-tb;fill:#231f20;fill-opacity:1;fill-rule:nonzero;stroke:none"
       transform="matrix(1,0,0,-1,117.5493,30.6289)"><tspan
         id="tspan82"
         y="0"
         x="0">z</tspan><tspan
         id="tspan84"
         y="-25.161301"
         x="15.1803">x</tspan><tspan
         id="tspan86"
         y="-23.1642"
         x="-23.978701">y</tspan></text>
</g></svg>