<?xml version="1.0" encoding="UTF-8" standalone="no"?>
<svg
   xmlns:dc="http://purl.org/dc/elements/1.1/"
   xmlns:cc="http://creativecommons.org/ns#"
   xmlns:rdf="http://www.w3.org/1999/02/22-rdf-syntax-ns#"
   xmlns:svg="http://www.w3.org/2000/svg"
   xmlns="http://www.w3.org/2000/svg"
   viewBox="0 0 471.65466 135.86133"
   height="135.86133"
   width="471.65466"
   xml:space="preserve"
   id="svg2"
   version="1.1"><metadata
     id="metadata8"><rdf:RDF><cc:Work
         rdf:about=""><dc:format>image/svg+xml</dc:format><dc:type
           rdf:resource="http://purl.org/dc/dcmitype/StillImage" /></cc:Work></rdf:RDF></metadata><defs
     id="defs6" /><g
     transform="matrix(1.3333333,0,0,-1.3333333,0,135.86133)"
     id="g10"><g
       transform="translate(62.024,100.232)"
       id="g12"><path
         id="path14"
         style="fill:none;stroke:#231f20;stroke-width:2;stroke-linecap:butt;stroke-linejoin:miter;stroke-miterlimit:4;stroke-dasharray:none;stroke-opacity:1"
         d="m 0,0 12.103,-34.882 c 6.883,-22.756 12.461,-33.756 40.165,-33.24 13.999,0.261 51.512,-0.001 67.83,-0.001 22.039,0 53.291,0.018 70.708,0 24.766,-0.024 32.68,8.985 40.311,33.241 L 243.194,0" /></g><path
       id="path16"
       style="fill:none;stroke:#231f20;stroke-width:1;stroke-linecap:butt;stroke-linejoin:miter;stroke-miterlimit:4;stroke-dasharray:5;stroke-dashoffset:0;stroke-opacity:1"
       d="m 182.119,33.95 0.023,61.298" /><g
       transform="translate(183.756,94.134)"
       id="g18"><path
         id="path20"
         style="fill:#231f20;fill-opacity:1;fill-rule:nonzero;stroke:none"
         d="M 0,0 -1.632,6.098 -3.268,0 H 0" /></g><text
       id="text24"
       style="font-variant:normal;font-weight:normal;font-stretch:normal;font-size:10px;font-family:Helvetica;-inkscape-font-specification:Helvetica;writing-mode:lr-tb;fill:#231f20;fill-opacity:1;fill-rule:nonzero;stroke:none"
       transform="matrix(1,0,0,-1,190.6763,83.9453)"><tspan
         id="tspan22"
         y="0"
         x="0 5.5599999 11.12 16.68 19.459999">depth</tspan></text>
<path
       id="path26"
       style="fill:none;stroke:#231f20;stroke-width:1;stroke-linecap:butt;stroke-linejoin:miter;stroke-miterlimit:4;stroke-dasharray:5;stroke-dashoffset:0;stroke-opacity:1"
       d="M 276.038,3.496 90.778,3.5195" /><g
       transform="translate(91.893,5.1328)"
       id="g28"><path
         id="path30"
         style="fill:#231f20;fill-opacity:1;fill-rule:nonzero;stroke:none"
         d="M 0,0 -6.099,-1.6328 -0.001,-3.2676 0,0" /></g><g
       transform="translate(274.475,1.8828)"
       id="g32"><path
         id="path34"
         style="fill:#231f20;fill-opacity:1;fill-rule:nonzero;stroke:none"
         d="M 0,0 6.098,1.6308 0.002,3.2675 0,0" /></g><text
       id="text38"
       style="font-variant:normal;font-weight:normal;font-stretch:normal;font-size:10px;font-family:Helvetica;-inkscape-font-specification:Helvetica;writing-mode:lr-tb;fill:#231f20;fill-opacity:1;fill-rule:nonzero;stroke:none"
       transform="matrix(1,0,0,-1,96.5352,6.6621)"><tspan
         id="tspan36"
         y="0"
         x="0 7.2199998 9.4399996 15 17.780001">width</tspan></text>
<g
       transform="translate(15.01,32.109)"
       id="g40"><path
         id="path42"
         style="fill:none;stroke:#231f20;stroke-width:1;stroke-linecap:butt;stroke-linejoin:miter;stroke-miterlimit:4;stroke-dasharray:none;stroke-opacity:1"
         d="M 0,0 H 312.5" /></g><g
       transform="translate(329.282,32.878)"
       id="g44"><path
         id="path46"
         style="fill:#231f20;fill-opacity:1;fill-rule:nonzero;stroke:none"
         d="M 0,0 C -1.24,0.375 -2.046,0.72 -3.041,1.119 V -2.665 C -2.685,-2.495 -1.24,-1.92 0,-1.546 1.327,-1.145 2.53,-0.87 3.31,-0.773 2.53,-0.675 1.327,-0.4 0,0" /></g><path
       id="path48"
       style="fill:none;stroke:#231f20;stroke-width:1;stroke-linecap:butt;stroke-linejoin:miter;stroke-miterlimit:4;stroke-dasharray:2;stroke-dashoffset:0;stroke-opacity:1"
       d="M 63.143,96.609 85.995,32.133 m 217.972,65.715 -22.5,-65.485" /><g
       transform="translate(85.026,29.656)"
       id="g50"><path
         id="path52"
         style="fill:none;stroke:#231f20;stroke-width:1;stroke-linecap:butt;stroke-linejoin:miter;stroke-miterlimit:4;stroke-dasharray:none;stroke-opacity:1"
         d="M 0,0 V -29.656" /><g
         transform="translate(196.469,0.016)"
         id="g54"><path
           id="path56"
           style="fill:none;stroke:#231f20;stroke-width:1;stroke-linecap:butt;stroke-linejoin:miter;stroke-miterlimit:4;stroke-dasharray:none;stroke-opacity:1"
           d="M 0,0 V -29.656" /><g
           transform="translate(-204.953,18.662)"
           id="g58"><path
             id="path60"
             style="fill:none;stroke:#231f20;stroke-width:1;stroke-linecap:butt;stroke-linejoin:miter;stroke-miterlimit:4;stroke-dasharray:none;stroke-opacity:1"
             d="M 0,0 C -10.016,-1.873 -13.297,-11.032 -12.977,-13.907" /></g></g></g><text
       id="text66"
       style="font-variant:normal;font-weight:normal;font-stretch:normal;font-size:10px;font-family:Helvetica;-inkscape-font-specification:Helvetica;writing-mode:lr-tb;fill:#231f20;fill-opacity:1;fill-rule:nonzero;stroke:none"
       transform="matrix(1,0,0,-1,0,43.1367)"><tspan
         id="tspan62"
         y="0"
         x="0 5 10.56 15.56 21.120001 26.68 32.240002 37.799999 43.360001 48.919998 54.48 56.700001">second_angle</tspan><tspan
         id="tspan64"
         y="4.2789998"
         x="307.612 310.392 312.612 315.94199 320.94199 323.72198 329.28201 334.84201 340.40201 345.96201 348.18201">first_angle</tspan></text>
<g
       transform="translate(289.682,48.159)"
       id="g68"><path
         id="path70"
         style="fill:none;stroke:#231f20;stroke-width:1;stroke-linecap:butt;stroke-linejoin:miter;stroke-miterlimit:4;stroke-dasharray:none;stroke-opacity:1"
         d="M 0,0 C 10.016,-1.873 13.297,-11.032 12.977,-13.907" /></g><text
       id="text76"
       style="font-variant:normal;font-weight:normal;font-stretch:normal;font-size:10px;font-family:Helvetica;-inkscape-font-specification:Helvetica;writing-mode:lr-tb;fill:#231f20;fill-opacity:1;fill-rule:nonzero;stroke:none"
       transform="matrix(1,0,0,-1,95.3804,62.5952)"><tspan
         id="tspan72"
         y="0"
         x="0 5 10.56 15.56 21.120001 26.68 32.240002 37.799999 41.029999 46.59 52.150002 54.369999 59.93">second_radius</tspan><tspan
         id="tspan74"
         y="1.349"
         x="120.666 123.446 125.666 128.996 133.996 136.776 142.336 145.56599 151.12601 156.686 158.90601 164.466">first_radius</tspan></text>
<g
       transform="translate(240.51,57.76)"
       id="g78"><path
         id="path80"
         style="fill:none;stroke:#231f20;stroke-width:1;stroke-linecap:butt;stroke-linejoin:miter;stroke-miterlimit:4;stroke-dasharray:none;stroke-opacity:1"
         d="M 0,0 C 4.342,-6.522 19.142,-11.521 26,-14" /></g><g
       transform="translate(268.437,43.882)"
       id="g82"><path
         id="path84"
         style="fill:#231f20;fill-opacity:1;fill-rule:nonzero;stroke:none"
         d="m 0,0 c -1.038,0.773 -1.68,1.372 -2.479,2.085 l -1.286,-3.558 c 0.393,0.038 1.947,0.088 3.24,0.019 C 0.859,-1.528 2.084,-1.679 2.852,-1.853 2.151,-1.495 1.112,-0.828 0,0" /></g><g
       transform="translate(126.185,57.109)"
       id="g86"><path
         id="path88"
         style="fill:none;stroke:#231f20;stroke-width:1;stroke-linecap:butt;stroke-linejoin:miter;stroke-miterlimit:4;stroke-dasharray:none;stroke-opacity:1"
         d="M 0,0 C -3.646,-11.424 -21.952,-5.752 -28.667,-14.667" /></g><g
       transform="translate(97.066,40.565)"
       id="g90"><path
         id="path92"
         style="fill:#231f20;fill-opacity:1;fill-rule:nonzero;stroke:none"
         d="M 0,0 C 1.045,0.765 1.806,1.201 2.723,1.755 L -0.299,4.031 C -0.378,3.645 -0.788,2.145 -1.235,0.93 -1.713,-0.372 -2.218,-1.498 -2.609,-2.18 -2.062,-1.615 -1.119,-0.819 0,0" /></g><g
       transform="translate(174.981,101.396)"
       id="g94"><path
         id="path96"
         style="fill:none;stroke:#231f20;stroke-width:1;stroke-linecap:butt;stroke-linejoin:miter;stroke-miterlimit:4;stroke-dasharray:none;stroke-opacity:1"
         d="M 0,0 H 13.531" /></g><text
       id="text102"
       style="font-variant:normal;font-weight:normal;font-stretch:normal;font-size:9px;font-family:Helvetica;-inkscape-font-specification:Helvetica;writing-mode:lr-tb;fill:#231f20;fill-opacity:1;fill-rule:nonzero;stroke:none"
       transform="matrix(1,0,0,-1,318.7554,24.5146)"><tspan
         id="tspan98"
         y="0"
         x="0">x</tspan><tspan
         id="tspan100"
         y="-28.805401"
         x="-143.9982">y</tspan></text>
<text
       id="text106"
       style="font-variant:normal;font-weight:normal;font-stretch:normal;font-size:10px;font-family:Helvetica;-inkscape-font-specification:Helvetica;writing-mode:lr-tb;fill:#231f20;fill-opacity:1;fill-rule:nonzero;stroke:none"
       transform="matrix(1,0,0,-1,201.8863,10.1611)"><tspan
         id="tspan104"
         y="0"
         x="0 5.5599999 8.8900003 14.45 17.23 19.450001 21.67 27.23 30.01 35.57 39.049999 41.27 46.830002 49.049999">profile origin</tspan></text>
<g
       transform="translate(183.31,26.281)"
       id="g108"><path
         id="path110"
         style="fill:none;stroke:#231f20;stroke-width:1;stroke-linecap:butt;stroke-linejoin:miter;stroke-miterlimit:4;stroke-dasharray:none;stroke-opacity:1"
         d="M 0,0 C 0.809,-3.784 -5.746,-7.828 -1.913,-11.815 0.819,-14.658 9.384,-13.377 14.5,-13.814" /></g><g
       transform="translate(182.188,27.852)"
       id="g112"><path
         id="path114"
         style="fill:#231f20;fill-opacity:1;fill-rule:nonzero;stroke:none"
         d="m 0,0 c -0.107,-1.291 -0.276,-2.151 -0.459,-3.207 l 3.7,0.79 C 3.001,-2.103 2.137,-0.811 1.512,0.323 0.842,1.537 0.322,2.656 0.063,3.399 0.131,2.616 0.114,1.382 0,0" /></g></g></svg>