<?xml version="1.0" encoding="UTF-8" standalone="no"?>
<svg
   xmlns:dc="http://purl.org/dc/elements/1.1/"
   xmlns:cc="http://creativecommons.org/ns#"
   xmlns:rdf="http://www.w3.org/1999/02/22-rdf-syntax-ns#"
   xmlns:svg="http://www.w3.org/2000/svg"
   xmlns="http://www.w3.org/2000/svg"
   xmlns:sodipodi="http://sodipodi.sourceforge.net/DTD/sodipodi-0.dtd"
   xmlns:inkscape="http://www.inkscape.org/namespaces/inkscape"
   inkscape:version="1.0beta2 (f3d5b5a, 2020-03-13)"
   sodipodi:docname="step_origin.svg"
   version="1.1"
   id="svg2"
   xml:space="preserve"
   width="442.39334"
   height="161.62666"
   viewBox="0 0 442.39334 161.62666"><sodipodi:namedview
     inkscape:current-layer="svg2"
     inkscape:cy="80.813332"
     inkscape:cx="221.19667"
     inkscape:zoom="1.8620972"
     showgrid="false"
     id="namedview19556"
     inkscape:window-height="480"
     inkscape:window-width="640"
     inkscape:pageshadow="2"
     inkscape:pageopacity="0"
     guidetolerance="10"
     gridtolerance="10"
     objecttolerance="10"
     borderopacity="1"
     bordercolor="#666666"
     pagecolor="#ffffff" /><metadata
     id="metadata8"><rdf:RDF><cc:Work
         rdf:about=""><dc:format>image/svg+xml</dc:format><dc:type
           rdf:resource="http://purl.org/dc/dcmitype/StillImage" /></cc:Work></rdf:RDF></metadata><defs
     id="defs6"><marker
   inkscape:stockid="Arrow1Mend"
   orient="auto"
   refY="0.0"
   refX="0.0"
   id="marker19729"
   style="overflow:visible;"
   inkscape:isstock="true"><path
     id="path19727"
     d="M 0.0,0.0 L 5.0,-5.0 L -12.5,0.0 L 5.0,5.0 L 0.0,0.0 z "
     style="fill-rule:evenodd;stroke:#000000;stroke-width:1pt;stroke-opacity:1;fill:#000000;fill-opacity:1"
     transform="scale(0.4) rotate(180) translate(10,0)" /></marker><marker
   inkscape:stockid="Arrow1Mend"
   orient="auto"
   refY="0.0"
   refX="0.0"
   id="marker19699"
   style="overflow:visible;"
   inkscape:isstock="true"><path
     id="path19697"
     d="M 0.0,0.0 L 5.0,-5.0 L -12.5,0.0 L 5.0,5.0 L 0.0,0.0 z "
     style="fill-rule:evenodd;stroke:#000000;stroke-width:1pt;stroke-opacity:1;fill:#000000;fill-opacity:1"
     transform="scale(0.4) rotate(180) translate(10,0)" /></marker><marker
   inkscape:collect="always"
   inkscape:isstock="true"
   style="overflow:visible;"
   id="Arrow1Mend"
   refX="0.0"
   refY="0.0"
   orient="auto"
   inkscape:stockid="Arrow1Mend"><path
     transform="scale(0.4) rotate(180) translate(10,0)"
     style="fill-rule:evenodd;stroke:#000000;stroke-width:1pt;stroke-opacity:1;fill:#000000;fill-opacity:1"
     d="M 0.0,0.0 L 5.0,-5.0 L -12.5,0.0 L 5.0,5.0 L 0.0,0.0 z "
     id="path919" /></marker>








</defs><path
     inkscape:connector-curvature="0"
     d="m 338.08932,124.27734 -226.96666,0.02"
     style="fill:none;stroke:#231f20;stroke-width:2.66667;stroke-linecap:butt;stroke-linejoin:miter;stroke-miterlimit:4;stroke-dasharray:none;stroke-opacity:1"
     id="path22" /><path
     inkscape:connector-curvature="0"
     d="m 342.81332,122.22667 c -3.30667,-0.99867 -5.45733,-1.91733 -8.10933,-2.98133 l 0.001,10.088 c 0.94933,-0.452 4.80133,-1.98534 8.108,-2.984 3.53867,-1.06934 6.748,-1.80134 8.828,-2.06267 -2.08,-0.26 -5.28933,-0.99067 -8.828,-2.06"
     style="fill:#231f20;fill-opacity:1;fill-rule:nonzero;stroke:none;stroke-width:1.33333"
     id="path26" /><path
     inkscape:connector-curvature="0"
     d="M 82.992,140.73734 155.66933,98.777341"
     style="fill:none;stroke:#231f20;stroke-width:0.666667;stroke-linecap:butt;stroke-linejoin:miter;stroke-miterlimit:4;stroke-dasharray:none;stroke-opacity:1"
     id="path36" /><path
     inkscape:connector-curvature="0"
     d="m 111.64666,133.70134 c 1.29333,12.044 -2.02133,11.312 0.13733,17.92533 2.59867,7.968 12.37467,1.45867 19.196,2.616"
     style="fill:none;stroke:#231f20;stroke-width:1.33333;stroke-linecap:butt;stroke-linejoin:miter;stroke-miterlimit:4;stroke-dasharray:none;stroke-opacity:1"
     id="path52" /><path
     inkscape:connector-curvature="0"
     d="m 110.376,131.46134 c -0.32,1.69733 -0.664,2.81467 -1.05067,4.19067 l 5.016,-0.53867 c -0.27466,-0.448 -1.244,-2.28133 -1.916,-3.872 -0.72,-1.70267 -1.256,-3.25867 -1.496,-4.28 -0.0187,1.04933 -0.212,2.684 -0.55333,4.5"
     style="fill:#231f20;fill-opacity:1;fill-rule:nonzero;stroke:none;stroke-width:1.33333"
     id="path56" /><path
     inkscape:connector-curvature="0"
     d="M 107.06933,120.20534 V 108.69201"
     style="fill:none;stroke:#231f20;stroke-width:0.666667;stroke-linecap:butt;stroke-linejoin:miter;stroke-miterlimit:4;stroke-dasharray:none;stroke-opacity:1"
     id="path60" /><path
     inkscape:connector-curvature="0"
     d="m 106.55733,107.50934 c -0.24933,0.828 -0.47867,1.364 -0.74667,2.028 h 2.52267 c -0.112,-0.236 -0.496,-1.2 -0.74533,-2.028 -0.268,-0.88267 -0.45067,-1.688 -0.51467,-2.20533 -0.0653,0.51733 -0.24933,1.32266 -0.516,2.20533"
     style="fill:#231f20;fill-opacity:1;fill-rule:nonzero;stroke:none;stroke-width:1.33333"
     id="path64" /><path
     inkscape:connector-curvature="0"
     d="m 117.41066,130.056 h 11.51333"
     style="fill:none;stroke:#231f20;stroke-width:0.666667;stroke-linecap:butt;stroke-linejoin:miter;stroke-miterlimit:4;stroke-dasharray:none;stroke-opacity:1"
     id="path68" /><path
     inkscape:connector-curvature="0"
     d="m 130.10266,129.54267 c -0.82533,-0.25067 -1.364,-0.47867 -2.02667,-0.74533 v 2.52133 c 0.23734,-0.112 1.20134,-0.49467 2.02667,-0.74533 0.88533,-0.268 1.688,-0.45067 2.208,-0.51467 -0.52,-0.0653 -1.32267,-0.248 -2.208,-0.516"
     style="fill:#231f20;fill-opacity:1;fill-rule:nonzero;stroke:none;stroke-width:1.33333"
     id="path72" /><text
     y="134.2256"
     x="133.93092"
     id="text80"
     style="font-variant:normal;font-weight:normal;font-stretch:normal;font-size:12px;font-family:Helvetica;-inkscape-font-specification:Helvetica;writing-mode:lr-tb;fill:#231f20;fill-opacity:1;fill-rule:nonzero;stroke:none;stroke-width:1.33333"><tspan
       style="stroke-width:1.33333"
       id="tspan74"
       y="134.2256"
       x="133.93092">z</tspan><tspan
       style="stroke-width:1.33333"
       id="tspan76"
       y="112.6772"
       x="145.50493">x</tspan><tspan
       style="stroke-width:1.33333"
       id="tspan78"
       y="103.34"
       x="101.95934">y</tspan></text><path
     inkscape:connector-curvature="0"
     d="M 111.90266,26.842673 V 122.91334 L 160.04533,95.118671"
     style="fill:none;stroke:#231f20;stroke-width:2.66667;stroke-linecap:butt;stroke-linejoin:miter;stroke-miterlimit:4;stroke-dasharray:none;stroke-opacity:1"
     id="path84" /><path
     inkscape:connector-curvature="0"
     d="M 351.63732,25.856007 V 14.342674"
     style="fill:none;stroke:#231f20;stroke-width:0.666667;stroke-linecap:butt;stroke-linejoin:miter;stroke-miterlimit:4;stroke-dasharray:none;stroke-opacity:1"
     id="path96" /><path
     inkscape:connector-curvature="0"
     d="m 351.12399,13.16134 c -0.24933,0.828 -0.47867,1.364 -0.74533,2.028 h 2.52133 c -0.112,-0.236 -0.496,-1.2 -0.744,-2.028 -0.26933,-0.882667 -0.45067,-1.688 -0.516,-2.205333 -0.0653,0.517333 -0.24933,1.322666 -0.516,2.205333"
     style="fill:#231f20;fill-opacity:1;fill-rule:nonzero;stroke:none;stroke-width:1.33333"
     id="path100" /><path
     inkscape:connector-curvature="0"
     d="m 340.16666,25.562673 h 11.51467"
     style="fill:none;stroke:#231f20;stroke-width:0.666667;stroke-linecap:butt;stroke-linejoin:miter;stroke-miterlimit:4;stroke-dasharray:none;stroke-opacity:1"
     id="path104" /><path
     inkscape:connector-curvature="0"
     d="m 338.98532,26.074673 c 0.82667,0.249333 1.364,0.48 2.028,0.746667 v -2.522667 c -0.23867,0.112 -1.20133,0.496 -2.028,0.745333 -0.884,0.268 -1.68667,0.450667 -2.20667,0.516 0.52,0.06533 1.32267,0.248 2.20667,0.514667"
     style="fill:#231f20;fill-opacity:1;fill-rule:nonzero;stroke:none;stroke-width:1.33333"
     id="path108" /><path
     inkscape:connector-curvature="0"
     d="m 360.52399,19.82934 -8.628,5.754667"
     style="fill:none;stroke:#231f20;stroke-width:0.666667;stroke-linecap:butt;stroke-linejoin:miter;stroke-miterlimit:4;stroke-dasharray:none;stroke-opacity:1"
     id="path112" /><path
     inkscape:connector-curvature="0"
     d="m 361.22266,18.748007 c -0.82667,0.250667 -1.40133,0.357333 -2.1,0.504 l 1.4,2.098667 c 0.13467,-0.225334 0.72267,-1.078667 1.272,-1.745334 0.588,-0.713333 1.15333,-1.310666 1.55067,-1.654666 -0.46934,0.236 -1.23867,0.528 -2.12267,0.797333"
     style="fill:#231f20;fill-opacity:1;fill-rule:nonzero;stroke:none;stroke-width:1.33333"
     id="path116" /><text
     y="11.76534"
     x="354.63278"
     id="text124"
     style="font-variant:normal;font-weight:normal;font-stretch:normal;font-size:12px;font-family:Helvetica;-inkscape-font-specification:Helvetica;writing-mode:lr-tb;fill:#231f20;fill-opacity:1;fill-rule:nonzero;stroke:none;stroke-width:1.33333"><tspan
       style="stroke-width:1.33333"
       id="tspan118"
       y="11.76534"
       x="354.63278">z</tspan><tspan
       style="stroke-width:1.33333"
       id="tspan120"
       y="29.66214"
       x="362.9404">x</tspan><tspan
       style="stroke-width:1.33333"
       id="tspan122"
       y="21.00174"
       x="334.08279">y</tspan></text><path
     id="path126"
     style="fill:none;stroke:#231f20;stroke-width:1.33333;stroke-linecap:butt;stroke-linejoin:miter;stroke-miterlimit:4;stroke-dasharray:5.33333;stroke-dashoffset:0;stroke-opacity:1"
     d="m 351.91199,28.43334 v 94.66533 m 1.948,1.008 44.2,-25.519998"
     inkscape:connector-curvature="0" /><path
     inkscape:connector-curvature="0"
     d="m 90.70533,38.820006 11.556,-6.670666"
     style="fill:none;stroke:#231f20;stroke-width:1.33333;stroke-linecap:butt;stroke-linejoin:miter;stroke-miterlimit:4;stroke-dasharray:none;stroke-opacity:1"
     id="path136" /><path
     id="path138"
     style="fill:none;stroke:#231f20;stroke-width:1.33333;stroke-linecap:butt;stroke-linejoin:miter;stroke-miterlimit:4;stroke-dasharray:5.33333;stroke-dashoffset:0;stroke-opacity:1"
     d="M 96.65733,39.876006 V 134.54267"
     inkscape:connector-curvature="0" /><path
     inkscape:connector-curvature="0"
     d="M 159.24133,87.168005 V 73.178672"
     style="fill:none;stroke:#231f20;stroke-width:1.33333;stroke-linecap:butt;stroke-linejoin:miter;stroke-miterlimit:4;stroke-dasharray:none;stroke-opacity:1"
     id="path142" /><path
     id="path144"
     style="fill:none;stroke:#231f20;stroke-width:1.33333;stroke-linecap:butt;stroke-linejoin:miter;stroke-miterlimit:4;stroke-dasharray:5.33333;stroke-dashoffset:0;stroke-opacity:1"
     d="M 114.17066,105.31467 158.37199,79.793339"
     inkscape:connector-curvature="0" /><path
     inkscape:connector-curvature="0"
     d="m 86.848,91.901338 c -8.38,8.205332 -16.8,9.708002 -28.44533,9.778662"
     style="fill:none;stroke:#231f20;stroke-width:1.33333;stroke-linecap:butt;stroke-linejoin:miter;stroke-miterlimit:4;stroke-dasharray:none;stroke-opacity:1"
     id="path148" /><path
     inkscape:connector-curvature="0"
     d="m 87.81866,89.517338 c -1.53067,0.8 -2.62,1.224 -3.94,1.770667 l 3.528,3.604 c 0.18133,-0.493334 1.02133,-2.388 1.85467,-3.902667 0.88933,-1.618667 1.78,-3.002667 2.432,-3.824 -0.83467,0.634667 -2.236,1.496 -3.87467,2.352"
     style="fill:#231f20;fill-opacity:1;fill-rule:nonzero;stroke:none;stroke-width:1.33333"
     id="path152" /><path
     inkscape:connector-curvature="0"
     d="M 204.22399,106.124 C 187.72132,113.19733 190.46932,81.033334 170.44666,83.013334"
     style="fill:none;stroke:#231f20;stroke-width:1.33333;stroke-linecap:butt;stroke-linejoin:miter;stroke-miterlimit:4;stroke-dasharray:none;stroke-opacity:1"
     id="path156" /><path
     inkscape:connector-curvature="0"
     d="m 168.19599,84.265339 c 1.69333,0.333333 2.80933,0.686667 4.18133,1.085333 l -0.496,-5.02 c -0.45066,0.270667 -2.292,1.224 -3.888,1.882667 -1.70933,0.706667 -3.26933,1.228 -4.292,1.461333 1.048,0.02667 2.68134,0.232 4.49467,0.590667"
     style="fill:#231f20;fill-opacity:1;fill-rule:nonzero;stroke:none;stroke-width:1.33333"
     id="path160" /><text
     id="text19657"
     y="106.33172"
     x="46.721516"
     style="font-size:13.3333px;line-height:1;font-family:Helvetica;-inkscape-font-specification:'Helvetica Normal';letter-spacing:0px;word-spacing:0px"
     xml:space="preserve"><tspan
       y="106.33172"
       x="46.721516"
       id="tspan19655"
       sodipodi:role="line">2</tspan></text><text
     id="text19661"
     y="28.999559"
     x="42.184486"
     style="font-size:13.3333px;line-height:1;font-family:Helvetica;-inkscape-font-specification:'Helvetica Normal';letter-spacing:0px;word-spacing:0px"
     xml:space="preserve"><tspan
       y="28.999559"
       x="42.184486"
       id="tspan19659"
       sodipodi:role="line">1</tspan></text><text
     id="text19665"
     y="156.81244"
     x="135.33128"
     style="font-size:13.3333px;line-height:1;font-family:Helvetica;-inkscape-font-specification:'Helvetica Normal';letter-spacing:0px;word-spacing:0px"
     xml:space="preserve"><tspan
       y="156.81244"
       x="135.33128"
       id="tspan19663"
       sodipodi:role="line">3</tspan></text><text
     id="text19669"
     y="108.47984"
     x="208.36722"
     style="font-size:13.3333px;line-height:1;font-family:Helvetica;-inkscape-font-specification:'Helvetica Normal';letter-spacing:0px;word-spacing:0px"
     xml:space="preserve"><tspan
       y="108.47984"
       x="208.36722"
       id="tspan19667"
       sodipodi:role="line">4</tspan></text><text
     id="text19673"
     y="151.44215"
     x="247.57031"
     style="font-size:13.3333px;line-height:1;font-family:Helvetica;-inkscape-font-specification:'Helvetica Normal';letter-spacing:0px;word-spacing:0px"
     xml:space="preserve"><tspan
       y="151.44215"
       x="247.57031"
       id="tspan19671"
       sodipodi:role="line">5</tspan></text><text
     id="text19677"
     y="56.388035"
     x="405.99384"
     style="font-size:13.3333px;line-height:1;font-family:Helvetica;-inkscape-font-specification:'Helvetica Normal';letter-spacing:0px;word-spacing:0px"
     xml:space="preserve"><tspan
       y="56.388035"
       x="405.99384"
       id="tspan19675"
       sodipodi:role="line">6</tspan></text><path
     inkscape:connector-curvature="0"
     id="path19679"
     d="m 54.388034,20.018185 c 0,0 25.777387,-16.6478961 37.054994,-10.740578 11.277602,5.907318 18.459632,15.565066 18.459632,15.565066"
     style="fill:none;stroke:#000000;stroke-width:1px;stroke-linecap:butt;stroke-linejoin:miter;stroke-opacity:1;marker-end:url(#Arrow1Mend)" /><path
     inkscape:connector-curvature="0"
     id="path19695"
     d="m 259.92199,146.60889 c 0,0 18.25898,2.68514 27.9255,-2.68515 9.66652,-5.37029 20.4071,-13.96275 20.4071,-13.96275"
     style="fill:none;stroke:#000000;stroke-width:1px;stroke-linecap:butt;stroke-linejoin:miter;stroke-opacity:1;marker-end:url(#marker19699)" /><path
     inkscape:connector-curvature="0"
     id="path19725"
     d="m 401.16058,53.017745 c 0,0 -12.35166,7.518405 -25.24035,-5.370289 -12.8887,-12.888693 -18.79601,-18.796011 -18.79601,-18.796011"
     style="fill:none;stroke:#000000;stroke-width:1px;stroke-linecap:butt;stroke-linejoin:miter;stroke-opacity:1;marker-end:url(#marker19729)" /></svg>
