<?xml version="1.0" encoding="UTF-8" standalone="no"?>
<svg
   xmlns:dc="http://purl.org/dc/elements/1.1/"
   xmlns:cc="http://creativecommons.org/ns#"
   xmlns:rdf="http://www.w3.org/1999/02/22-rdf-syntax-ns#"
   xmlns:svg="http://www.w3.org/2000/svg"
   xmlns="http://www.w3.org/2000/svg"
   viewBox="0 0 442.39334 161.62666"
   height="161.62666"
   width="442.39334"
   xml:space="preserve"
   id="svg2"
   version="1.1"><metadata
     id="metadata8"><rdf:RDF><cc:Work
         rdf:about=""><dc:format>image/svg+xml</dc:format><dc:type
           rdf:resource="http://purl.org/dc/dcmitype/StillImage" /></cc:Work></rdf:RDF></metadata><defs
     id="defs6" /><g
     transform="matrix(1.3333333,0,0,-1.3333333,0,161.62667)"
     id="g10"><text
       id="text18"
       style="font-variant:normal;font-weight:normal;font-stretch:normal;font-size:10px;font-family:Helvetica;-inkscape-font-specification:Helvetica;writing-mode:lr-tb;fill:#231f20;fill-opacity:1;fill-rule:nonzero;stroke:none"
       transform="matrix(1,0,0,-1,122.6806,92.4952)"><tspan
         id="tspan12"
         y="0"
         x="0 5.5599999 8.8900003 14.45 17.23 19.450001 21.67 27.23">profile</tspan><tspan
         id="tspan14"
         y="12"
         x="0 3.3299999 10.4 15.96 18.18 20.4 25.959999 31.52 37.080002 42.639999 48.200001 53.759998 59.32 62.950001 67.949997">(wall_boundary)</tspan><tspan
         id="tspan16"
         y="80.416"
         x="103.959 109.519 115.079 117.859 123.419 126.199 129.52901 135.089 140.649 146.209 151.769 157.32899 162.88901 168.44901 174.009 179.569 185.129 190.689 194.319 199.319">path (open_boundary)</tspan></text>
<g
       transform="translate(286.567,28.012)"
       id="g20"><path
         id="path22"
         style="fill:none;stroke:#231f20;stroke-width:2;stroke-linecap:butt;stroke-linejoin:miter;stroke-miterlimit:4;stroke-dasharray:none;stroke-opacity:1"
         d="M 0,0 -170.225,-0.015" /></g><g
       transform="translate(290.11,29.55)"
       id="g24"><path
         id="path26"
         style="fill:#231f20;fill-opacity:1;fill-rule:nonzero;stroke:none"
         d="M 0,0 C -2.48,0.749 -4.093,1.438 -6.082,2.236 L -6.081,-5.33 C -5.369,-4.991 -2.48,-3.841 0,-3.092 2.654,-2.29 5.061,-1.741 6.621,-1.545 5.061,-1.35 2.654,-0.802 0,0" /></g><text
       id="text32"
       style="font-variant:normal;font-weight:normal;font-stretch:normal;font-size:10px;font-family:Helvetica;-inkscape-font-specification:Helvetica;writing-mode:lr-tb;fill:#231f20;fill-opacity:1;fill-rule:nonzero;stroke:none"
       transform="matrix(1,0,0,-1,181.4053,50.9004)"><tspan
         id="tspan28"
         y="0"
         x="0 2.78 5 8.3299999 13.33 16.110001 21.67 26.67 28.889999 34.450001 40.009998 45.57 47.790001 53.349998 58.91 64.470001 67.25 72.809998">first_side_length</tspan><tspan
         id="tspan30"
         y="12"
         x="8.0699997 11.4 14.18 17.51 23.07 31.4 34.18 39.740002 43.07 48.630001 51.41 53.630001 55.849998 61.41">(from profile)</tspan></text>
<g
       transform="translate(95.244,15.667)"
       id="g34"><path
         id="path36"
         style="fill:none;stroke:#231f20;stroke-width:0.5;stroke-linecap:butt;stroke-linejoin:miter;stroke-miterlimit:4;stroke-dasharray:none;stroke-opacity:1"
         d="M 0,0 54.508,31.47" /></g><text
       id="text40"
       style="font-variant:normal;font-weight:normal;font-stretch:normal;font-size:10px;font-family:Helvetica;-inkscape-font-specification:Helvetica;writing-mode:lr-tb;fill:#231f20;fill-opacity:1;fill-rule:nonzero;stroke:none"
       transform="matrix(1,0,0,-1,135.6601,2.25)"><tspan
         id="tspan38"
         y="0"
         x="0 2.48 8.04 13.6 16.379999 21.940001 25.27 30.83 33.610001 39.169998 42.650002">feature ori</tspan></text>
<text
       id="text44"
       style="font-variant:normal;font-weight:normal;font-stretch:normal;font-size:10px;font-family:Helvetica;-inkscape-font-specification:Helvetica;writing-mode:lr-tb;fill:#231f20;fill-opacity:1;fill-rule:nonzero;stroke:none"
       transform="matrix(1,0,0,-1,180.5345,2.25)"><tspan
         id="tspan42"
         y="0"
         x="0">g</tspan></text>
<text
       id="text48"
       style="font-variant:normal;font-weight:normal;font-stretch:normal;font-size:10px;font-family:Helvetica;-inkscape-font-specification:Helvetica;writing-mode:lr-tb;fill:#231f20;fill-opacity:1;fill-rule:nonzero;stroke:none"
       transform="matrix(1,0,0,-1,186.0961,2.25)"><tspan
         id="tspan46"
         y="0"
         x="0 2.22">in</tspan></text>
<g
       transform="translate(116.735,20.944)"
       id="g50"><path
         id="path52"
         style="fill:none;stroke:#231f20;stroke-width:1;stroke-linecap:butt;stroke-linejoin:miter;stroke-miterlimit:4;stroke-dasharray:none;stroke-opacity:1"
         d="M 0,0 C 0.97,-9.033 -1.516,-8.484 0.103,-13.444 2.052,-19.42 9.384,-14.538 14.5,-15.406" /></g><g
       transform="translate(115.782,22.624)"
       id="g54"><path
         id="path56"
         style="fill:#231f20;fill-opacity:1;fill-rule:nonzero;stroke:none"
         d="m 0,0 c -0.24,-1.273 -0.498,-2.111 -0.788,-3.143 l 3.762,0.404 C 2.768,-2.403 2.041,-1.028 1.537,0.165 0.997,1.442 0.595,2.609 0.415,3.375 0.401,2.588 0.256,1.362 0,0" /></g><g
       transform="translate(113.302,31.066)"
       id="g58"><path
         id="path60"
         style="fill:none;stroke:#231f20;stroke-width:0.5;stroke-linecap:butt;stroke-linejoin:miter;stroke-miterlimit:4;stroke-dasharray:none;stroke-opacity:1"
         d="M 0,0 V 8.635" /></g><g
       transform="translate(112.918,40.588)"
       id="g62"><path
         id="path64"
         style="fill:#231f20;fill-opacity:1;fill-rule:nonzero;stroke:none"
         d="M 0,0 C -0.187,-0.621 -0.359,-1.023 -0.56,-1.521 H 1.332 C 1.248,-1.344 0.96,-0.621 0.773,0 0.572,0.662 0.435,1.266 0.387,1.654 0.338,1.266 0.2,0.662 0,0" /></g><g
       transform="translate(121.058,23.678)"
       id="g66"><path
         id="path68"
         style="fill:none;stroke:#231f20;stroke-width:0.5;stroke-linecap:butt;stroke-linejoin:miter;stroke-miterlimit:4;stroke-dasharray:none;stroke-opacity:1"
         d="M 0,0 H 8.635" /></g><g
       transform="translate(130.577,24.063)"
       id="g70"><path
         id="path72"
         style="fill:#231f20;fill-opacity:1;fill-rule:nonzero;stroke:none"
         d="m 0,0 c -0.619,0.188 -1.023,0.359 -1.52,0.559 v -1.891 c 0.178,0.084 0.901,0.371 1.52,0.559 0.664,0.201 1.266,0.338 1.656,0.386 C 1.266,-0.338 0.664,-0.201 0,0" /></g><text
       id="text80"
       style="font-variant:normal;font-weight:normal;font-stretch:normal;font-size:9px;font-family:Helvetica;-inkscape-font-specification:Helvetica;writing-mode:lr-tb;fill:#231f20;fill-opacity:1;fill-rule:nonzero;stroke:none"
       transform="matrix(1,0,0,-1,133.4482,20.5508)"><tspan
         id="tspan74"
         y="0"
         x="0">z</tspan><tspan
         id="tspan76"
         y="-16.161301"
         x="8.6805">x</tspan><tspan
         id="tspan78"
         y="-23.1642"
         x="-23.978701">y</tspan></text>
<g
       transform="translate(116.927,101.088)"
       id="g82"><path
         id="path84"
         style="fill:none;stroke:#231f20;stroke-width:2;stroke-linecap:butt;stroke-linejoin:miter;stroke-miterlimit:4;stroke-dasharray:none;stroke-opacity:1"
         d="m 0,0 v -72.053 l 36.107,20.846" /></g><text
       id="text92"
       style="font-variant:normal;font-weight:normal;font-stretch:normal;font-size:10px;font-family:Helvetica;-inkscape-font-specification:Helvetica;writing-mode:lr-tb;fill:#231f20;fill-opacity:1;fill-rule:nonzero;stroke:none"
       transform="matrix(1,0,0,-1,203.8705,111.9097)"><tspan
         id="tspan86"
         y="0"
         x="0 2.78 9.4499998 17.23 20.01 25.57 31.129999 36.689999 42.25 47.810001 50.59 56.150002 59.630001 61.849998 67.410004 69.629997 75.190002">ISO 14649 origin</tspan><tspan
         id="tspan88"
         y="12"
         x="1.39 4.7199998 10.28 15.84 18.620001 24.18 26.959999 32.52 36 38.220001 43.779999 49.34 52.119999 57.68 60.459999 62.68 68.239998 73.800003">(note orientation</tspan><tspan
         id="tspan90"
         y="24"
         x="19.959999 25.52 28.299999 31.08 36.639999 41.34 46.900002 51.900002">of axes)</tspan></text>
<g
       transform="translate(296.728,101.828)"
       id="g94"><path
         id="path96"
         style="fill:none;stroke:#231f20;stroke-width:0.5;stroke-linecap:butt;stroke-linejoin:miter;stroke-miterlimit:4;stroke-dasharray:none;stroke-opacity:1"
         d="M 0,0 V 8.635" /></g><g
       transform="translate(296.343,111.349)"
       id="g98"><path
         id="path100"
         style="fill:#231f20;fill-opacity:1;fill-rule:nonzero;stroke:none"
         d="M 0,0 C -0.187,-0.621 -0.359,-1.023 -0.559,-1.521 H 1.332 C 1.248,-1.344 0.96,-0.621 0.774,0 0.572,0.662 0.436,1.266 0.387,1.654 0.338,1.266 0.2,0.662 0,0" /></g><g
       transform="translate(288.125,102.048)"
       id="g102"><path
         id="path104"
         style="fill:none;stroke:#231f20;stroke-width:0.5;stroke-linecap:butt;stroke-linejoin:miter;stroke-miterlimit:4;stroke-dasharray:none;stroke-opacity:1"
         d="M 0,0 H 8.636" /></g><g
       transform="translate(287.239,101.664)"
       id="g106"><path
         id="path108"
         style="fill:#231f20;fill-opacity:1;fill-rule:nonzero;stroke:none"
         d="M 0,0 C 0.62,-0.187 1.023,-0.36 1.521,-0.56 V 1.332 C 1.342,1.248 0.62,0.96 0,0.773 -0.663,0.572 -1.265,0.435 -1.655,0.386 -1.265,0.337 -0.663,0.2 0,0" /></g><g
       transform="translate(303.393,106.348)"
       id="g110"><path
         id="path112"
         style="fill:none;stroke:#231f20;stroke-width:0.5;stroke-linecap:butt;stroke-linejoin:miter;stroke-miterlimit:4;stroke-dasharray:none;stroke-opacity:1"
         d="M 0,0 -6.471,-4.316" /></g><g
       transform="translate(303.917,107.159)"
       id="g114"><path
         id="path116"
         style="fill:#231f20;fill-opacity:1;fill-rule:nonzero;stroke:none"
         d="m 0,0 c -0.62,-0.188 -1.051,-0.268 -1.575,-0.378 l 1.05,-1.574 c 0.101,0.169 0.542,0.809 0.954,1.309 C 0.87,-0.108 1.294,0.34 1.592,0.598 1.24,0.421 0.663,0.202 0,0" /></g><text
       id="text124"
       style="font-variant:normal;font-weight:normal;font-stretch:normal;font-size:9px;font-family:Helvetica;-inkscape-font-specification:Helvetica;writing-mode:lr-tb;fill:#231f20;fill-opacity:1;fill-rule:nonzero;stroke:none"
       transform="matrix(1,0,0,-1,298.9746,112.396)"><tspan
         id="tspan118"
         y="0"
         x="0">z</tspan><tspan
         id="tspan120"
         y="13.4226"
         x="6.2307">x</tspan><tspan
         id="tspan122"
         y="6.9273"
         x="-15.4125">y</tspan></text>
<path
       id="path126"
       style="fill:none;stroke:#231f20;stroke-width:1;stroke-linecap:butt;stroke-linejoin:miter;stroke-miterlimit:4;stroke-dasharray:4;stroke-dashoffset:0;stroke-opacity:1"
       d="M 296.934,99.895 V 28.896 m 1.461,-0.756 33.15,19.14" /><text
       id="text132"
       style="font-variant:normal;font-weight:normal;font-stretch:normal;font-size:10px;font-family:Helvetica;-inkscape-font-specification:Helvetica;writing-mode:lr-tb;fill:#231f20;fill-opacity:1;fill-rule:nonzero;stroke:none"
       transform="matrix(1,0,0,-1,-1e-4,53.4424)"><tspan
         id="tspan128"
         y="0"
         x="0 5 10.56 15.56 21.120001 26.68 32.240002 37.799999 42.799999 45.02 50.580002 56.139999 61.700001 63.919998 69.480003 75.040001 80.599998 83.379997 88.940002">second_side_length</tspan><tspan
         id="tspan130"
         y="12"
         x="16.135 19.465 22.245001 25.575001 31.135 39.465 42.244999 47.805 51.134998 56.695 59.474998 61.695 63.915001 69.474998">(from profile)</tspan></text>
<g
       transform="translate(101.029,92.105)"
       id="g134"><path
         id="path136"
         style="fill:none;stroke:#231f20;stroke-width:1;stroke-linecap:butt;stroke-linejoin:miter;stroke-miterlimit:4;stroke-dasharray:none;stroke-opacity:1"
         d="M 0,0 8.667,5.003" /></g><path
       id="path138"
       style="fill:none;stroke:#231f20;stroke-width:1;stroke-linecap:butt;stroke-linejoin:miter;stroke-miterlimit:4;stroke-dasharray:4;stroke-dashoffset:0;stroke-opacity:1"
       d="m 105.493,91.313 v -71" /><g
       transform="translate(152.431,55.844)"
       id="g140"><path
         id="path142"
         style="fill:none;stroke:#231f20;stroke-width:1;stroke-linecap:butt;stroke-linejoin:miter;stroke-miterlimit:4;stroke-dasharray:none;stroke-opacity:1"
         d="M 0,0 V 10.492" /></g><path
       id="path144"
       style="fill:none;stroke:#231f20;stroke-width:1;stroke-linecap:butt;stroke-linejoin:miter;stroke-miterlimit:4;stroke-dasharray:4;stroke-dashoffset:0;stroke-opacity:1"
       d="m 118.628,42.234 33.151,19.141" /><g
       transform="translate(98.136,52.294)"
       id="g146"><path
         id="path148"
         style="fill:none;stroke:#231f20;stroke-width:1;stroke-linecap:butt;stroke-linejoin:miter;stroke-miterlimit:4;stroke-dasharray:none;stroke-opacity:1"
         d="M 0,0 C -6.285,-6.154 -12.6,-7.281 -21.334,-7.334" /></g><g
       transform="translate(98.864,54.082)"
       id="g150"><path
         id="path152"
         style="fill:#231f20;fill-opacity:1;fill-rule:nonzero;stroke:none"
         d="m 0,0 c -1.148,-0.6 -1.965,-0.918 -2.955,-1.328 l 2.646,-2.703 c 0.136,0.37 0.766,1.791 1.391,2.927 C 1.749,0.11 2.417,1.148 2.906,1.764 2.28,1.288 1.229,0.642 0,0" /></g><g
       transform="translate(186.168,41.627)"
       id="g154"><path
         id="path156"
         style="fill:none;stroke:#231f20;stroke-width:1;stroke-linecap:butt;stroke-linejoin:miter;stroke-miterlimit:4;stroke-dasharray:none;stroke-opacity:1"
         d="M 0,0 C -12.377,-5.305 -10.316,18.818 -25.333,17.333" /></g><g
       transform="translate(159.147,58.021)"
       id="g158"><path
         id="path160"
         style="fill:#231f20;fill-opacity:1;fill-rule:nonzero;stroke:none"
         d="M 0,0 C 1.27,-0.25 2.107,-0.515 3.136,-0.814 L 2.764,2.951 C 2.426,2.748 1.045,2.033 -0.152,1.539 -1.434,1.009 -2.604,0.618 -3.371,0.443 -2.585,0.423 -1.36,0.269 0,0" /></g></g></svg>