<?xml version="1.0" encoding="UTF-8" standalone="no"?>
<svg
   xmlns:dc="http://purl.org/dc/elements/1.1/"
   xmlns:cc="http://creativecommons.org/ns#"
   xmlns:rdf="http://www.w3.org/1999/02/22-rdf-syntax-ns#"
   xmlns:svg="http://www.w3.org/2000/svg"
   xmlns="http://www.w3.org/2000/svg"
   viewBox="0 0 432.91599 145.05333"
   height="145.05333"
   width="432.91599"
   xml:space="preserve"
   id="svg2"
   version="1.1"><metadata
     id="metadata8"><rdf:RDF><cc:Work
         rdf:about=""><dc:format>image/svg+xml</dc:format><dc:type
           rdf:resource="http://purl.org/dc/dcmitype/StillImage" /></cc:Work></rdf:RDF></metadata><defs
     id="defs6" /><g
     transform="matrix(1.3333333,0,0,-1.3333333,0,145.05333)"
     id="g10"><text
       id="text16"
       style="font-variant:normal;font-weight:normal;font-stretch:normal;font-size:10px;font-family:Helvetica;-inkscape-font-specification:Helvetica;writing-mode:lr-tb;fill:#231f20;fill-opacity:1;fill-rule:nonzero;stroke:none"
       transform="matrix(1,0,0,-1,123.757,99.4795)"><tspan
         id="tspan12"
         y="0"
         x="0 5.5599999 8.8900003 14.45 17.23 19.450001 21.67 27.23 30.01 33.34 40.41 45.970001 48.189999 50.41 55.970001 61.529999 67.089996 72.650002 78.209999 83.769997 89.330002 92.959999 97.959999">profile (wall_boundary)</tspan><tspan
         id="tspan14"
         y="87.400002"
         x="102.24 107.8 113.36 116.14 121.7 124.48 127.81 133.37 138.92999 144.49001 150.05 155.61 161.17 166.73 172.28999 177.85001 183.41 188.97 192.60001 197.60001">path (open_boundary)</tspan></text>
<g
       transform="translate(285.924,28.012)"
       id="g18"><path
         id="path20"
         style="fill:none;stroke:#231f20;stroke-width:2;stroke-linecap:butt;stroke-linejoin:miter;stroke-miterlimit:4;stroke-dasharray:none;stroke-opacity:1"
         d="M 0,0 -170.225,-0.015" /></g><g
       transform="translate(289.467,29.55)"
       id="g22"><path
         id="path24"
         style="fill:#231f20;fill-opacity:1;fill-rule:nonzero;stroke:none"
         d="M 0,0 C -2.48,0.749 -4.093,1.438 -6.082,2.236 L -6.081,-5.33 C -5.369,-4.991 -2.48,-3.841 0,-3.092 2.654,-2.29 5.061,-1.741 6.621,-1.545 5.061,-1.35 2.654,-0.802 0,0" /></g><text
       id="text30"
       style="font-variant:normal;font-weight:normal;font-stretch:normal;font-size:10px;font-family:Helvetica;-inkscape-font-specification:Helvetica;writing-mode:lr-tb;fill:#231f20;fill-opacity:1;fill-rule:nonzero;stroke:none"
       transform="matrix(1,0,0,-1,-1e-4,57.5669)"><tspan
         id="tspan26"
         y="0"
         x="0 5 10.56 15.56 21.120001 26.68 32.240002 37.799999 42.799999 45.02 50.580002 56.139999 61.700001 63.919998 69.480003 75.040001 80.599998 83.379997 88.940002">second_side_length</tspan><tspan
         id="tspan28"
         y="12"
         x="16.135 19.465 22.245001 25.575001 31.135 39.465 42.244999 47.805 51.134998 56.695 59.474998 61.695 63.915001 69.474998">(from profile)</tspan></text>
<g
       transform="translate(92.363,88.729)"
       id="g32"><path
         id="path34"
         style="fill:none;stroke:#231f20;stroke-width:1;stroke-linecap:butt;stroke-linejoin:miter;stroke-miterlimit:4;stroke-dasharray:none;stroke-opacity:1"
         d="M 0,0 8.666,5.003" /></g><g
       transform="translate(94.601,15.667)"
       id="g36"><path
         id="path38"
         style="fill:none;stroke:#231f20;stroke-width:0.5;stroke-linecap:butt;stroke-linejoin:miter;stroke-miterlimit:4;stroke-dasharray:none;stroke-opacity:1"
         d="M 0,0 54.508,31.47" /></g><text
       id="text42"
       style="font-variant:normal;font-weight:normal;font-stretch:normal;font-size:10px;font-family:Helvetica;-inkscape-font-specification:Helvetica;writing-mode:lr-tb;fill:#231f20;fill-opacity:1;fill-rule:nonzero;stroke:none"
       transform="matrix(1,0,0,-1,135.0175,2.25)"><tspan
         id="tspan40"
         y="0"
         x="0 2.48 8.04 13.6 16.379999 21.940001 25.27 30.83 33.610001 39.169998 42.650002 44.869999 50.43 52.650002">feature origin</tspan></text>
<g
       transform="translate(116.093,20.944)"
       id="g44"><path
         id="path46"
         style="fill:none;stroke:#231f20;stroke-width:1;stroke-linecap:butt;stroke-linejoin:miter;stroke-miterlimit:4;stroke-dasharray:none;stroke-opacity:1"
         d="M 0,0 C 0.97,-9.033 -1.516,-8.484 0.103,-13.444 2.052,-19.42 9.384,-14.538 14.5,-15.406" /></g><g
       transform="translate(115.14,22.624)"
       id="g48"><path
         id="path50"
         style="fill:#231f20;fill-opacity:1;fill-rule:nonzero;stroke:none"
         d="m 0,0 c -0.24,-1.273 -0.498,-2.111 -0.788,-3.143 l 3.762,0.404 C 2.768,-2.403 2.041,-1.028 1.537,0.165 0.997,1.442 0.595,2.609 0.415,3.375 0.401,2.588 0.256,1.362 0,0" /></g><g
       transform="translate(112.66,31.066)"
       id="g52"><path
         id="path54"
         style="fill:none;stroke:#231f20;stroke-width:0.5;stroke-linecap:butt;stroke-linejoin:miter;stroke-miterlimit:4;stroke-dasharray:none;stroke-opacity:1"
         d="M 0,0 V 8.635" /></g><g
       transform="translate(112.275,40.588)"
       id="g56"><path
         id="path58"
         style="fill:#231f20;fill-opacity:1;fill-rule:nonzero;stroke:none"
         d="M 0,0 C -0.187,-0.621 -0.359,-1.023 -0.56,-1.522 H 1.332 C 1.248,-1.344 0.96,-0.621 0.773,0 0.572,0.662 0.435,1.266 0.387,1.654 0.338,1.266 0.2,0.662 0,0" /></g><g
       transform="translate(120.415,23.678)"
       id="g60"><path
         id="path62"
         style="fill:none;stroke:#231f20;stroke-width:0.5;stroke-linecap:butt;stroke-linejoin:miter;stroke-miterlimit:4;stroke-dasharray:none;stroke-opacity:1"
         d="M 0,0 H 8.635" /></g><g
       transform="translate(129.934,24.063)"
       id="g64"><path
         id="path66"
         style="fill:#231f20;fill-opacity:1;fill-rule:nonzero;stroke:none"
         d="m 0,0 c -0.619,0.188 -1.023,0.359 -1.52,0.559 v -1.891 c 0.178,0.084 0.901,0.371 1.52,0.559 0.664,0.201 1.266,0.338 1.656,0.386 C 1.266,-0.338 0.664,-0.201 0,0" /></g><text
       id="text74"
       style="font-variant:normal;font-weight:normal;font-stretch:normal;font-size:9px;font-family:Helvetica;-inkscape-font-specification:Helvetica;writing-mode:lr-tb;fill:#231f20;fill-opacity:1;fill-rule:nonzero;stroke:none"
       transform="matrix(1,0,0,-1,132.8056,20.5508)"><tspan
         id="tspan68"
         y="0"
         x="0">z</tspan><tspan
         id="tspan70"
         y="-16.161301"
         x="8.6805">x</tspan><tspan
         id="tspan72"
         y="-23.1642"
         x="-23.978701">y</tspan></text>
<g
       transform="translate(116.284,101.088)"
       id="g76"><path
         id="path78"
         style="fill:none;stroke:#231f20;stroke-width:2;stroke-linecap:butt;stroke-linejoin:miter;stroke-miterlimit:4;stroke-dasharray:none;stroke-opacity:1"
         d="m 0,0 v -72.053 l 36.107,20.846" /></g><path
       id="path80"
       style="fill:none;stroke:#231f20;stroke-width:1;stroke-linecap:butt;stroke-linejoin:miter;stroke-miterlimit:4;stroke-dasharray:4;stroke-dashoffset:0;stroke-opacity:1"
       d="m 96.827,87.937 v -71" /><g
       transform="translate(151.827,56.499)"
       id="g82"><path
         id="path84"
         style="fill:none;stroke:#231f20;stroke-width:1;stroke-linecap:butt;stroke-linejoin:miter;stroke-miterlimit:4;stroke-dasharray:none;stroke-opacity:1"
         d="M 0,0 V 10.492" /></g><path
       id="path86"
       style="fill:none;stroke:#231f20;stroke-width:1;stroke-linecap:butt;stroke-linejoin:miter;stroke-miterlimit:4;stroke-dasharray:4;stroke-dashoffset:0;stroke-opacity:1"
       d="m 118.024,42.89 33.151,19.14" /><text
       id="text92"
       style="font-variant:normal;font-weight:normal;font-stretch:normal;font-size:10px;font-family:Helvetica;-inkscape-font-specification:Helvetica;writing-mode:lr-tb;fill:#231f20;fill-opacity:1;fill-rule:nonzero;stroke:none"
       transform="matrix(1,0,0,-1,211.9224,75.1797)"><tspan
         id="tspan88"
         y="0"
         x="0 2.78 5 8.3299999 13.33 16.110001 21.67 26.67 28.889999 34.450001 40.009998 45.57 47.790001 53.349998 58.91 64.470001 67.25 72.809998">first_side_length</tspan><tspan
         id="tspan90"
         y="12"
         x="8.0699997 11.4 14.18 17.51 23.07 31.4 34.18 39.740002 43.07 48.630001 51.41 53.630001 55.849998 61.41">(from profile)</tspan></text>
<g
       transform="translate(159.358,62.46)"
       id="g94"><path
         id="path96"
         style="fill:none;stroke:#231f20;stroke-width:1;stroke-linecap:butt;stroke-linejoin:miter;stroke-miterlimit:4;stroke-dasharray:none;stroke-opacity:1"
         d="m 0,0 c 8.421,2.666 15.1,7.116 23.469,9.5 8.74,2.49 11,2.5 21.476,2.992" /></g><g
       transform="translate(157.901,61.192)"
       id="g98"><path
         id="path100"
         style="fill:#231f20;fill-opacity:1;fill-rule:nonzero;stroke:none"
         d="M 0,0 C 1.295,0.017 2.168,-0.068 3.237,-0.149 L 2.095,3.458 C 1.807,3.189 0.603,2.205 -0.466,1.474 -1.61,0.691 -2.675,0.066 -3.39,-0.262 -2.616,-0.12 -1.386,-0.019 0,0" /></g></g></svg>