<?xml version="1.0" encoding="UTF-8" standalone="no"?>
<svg
   xmlns:dc="http://purl.org/dc/elements/1.1/"
   xmlns:cc="http://creativecommons.org/ns#"
   xmlns:rdf="http://www.w3.org/1999/02/22-rdf-syntax-ns#"
   xmlns:svg="http://www.w3.org/2000/svg"
   xmlns="http://www.w3.org/2000/svg"
   viewBox="0 0 477.556 180.85333"
   height="180.85333"
   width="477.556"
   xml:space="preserve"
   id="svg2"
   version="1.1"><metadata
     id="metadata8"><rdf:RDF><cc:Work
         rdf:about=""><dc:format>image/svg+xml</dc:format><dc:type
           rdf:resource="http://purl.org/dc/dcmitype/StillImage" /></cc:Work></rdf:RDF></metadata><defs
     id="defs6" /><g
     transform="matrix(1.3333333,0,0,-1.3333333,0,180.85333)"
     id="g10"><text
       id="text14"
       style="font-variant:normal;font-weight:normal;font-stretch:normal;font-size:10px;font-family:Helvetica;-inkscape-font-specification:Helvetica;writing-mode:lr-tb;fill:#231f20;fill-opacity:1;fill-rule:nonzero;stroke:none"
       transform="matrix(1,0,0,-1,54.2872,126.3296)"><tspan
         id="tspan12"
         y="0"
         x="0 2.78 8.3400002 10.56 16.120001 19.35 24.91 30.469999 35.470001 41.029999 43.810001 48.66 54.220001 59.779999">tolerance zone</tspan></text>
<path
       id="path16"
       style="fill:none;stroke:#231f20;stroke-width:0.75;stroke-linecap:butt;stroke-linejoin:miter;stroke-miterlimit:4;stroke-dasharray:none;stroke-opacity:1"
       d="m 291.246,114.611 h -50.992 v 17 h 50.992 z" /><text
       id="text20"
       style="font-variant:normal;font-weight:normal;font-stretch:normal;font-size:10px;font-family:Helvetica;-inkscape-font-specification:Helvetica;writing-mode:lr-tb;fill:#231f20;fill-opacity:1;fill-rule:nonzero;stroke:none"
       transform="matrix(1,0,0,-1,266.125,119.5803)"><tspan
         id="tspan18"
         y="0"
         x="0 5.5599999 8.3400002 13.9">0.04</tspan></text>
<g
       transform="translate(260.333,131.444)"
       id="g22"><path
         id="path24"
         style="fill:none;stroke:#231f20;stroke-width:0.75;stroke-linecap:butt;stroke-linejoin:miter;stroke-miterlimit:4;stroke-dasharray:none;stroke-opacity:1"
         d="M 0,0 V -16.666" /><g
         transform="translate(-17.075,-14.536)"
         id="g26"><path
           id="path28"
           style="fill:none;stroke:#231f20;stroke-width:0.75;stroke-linecap:butt;stroke-linejoin:miter;stroke-miterlimit:4;stroke-dasharray:none;stroke-opacity:1"
           d="M 0,0 3.241,11.304" /><g
           transform="translate(-5.592,5.764)"
           id="g30"><path
             id="path32"
             style="fill:none;stroke:#231f20;stroke-width:0.75;stroke-linecap:butt;stroke-linejoin:miter;stroke-miterlimit:4;stroke-dasharray:none;stroke-opacity:1"
             d="M 0,0 H -10.333 L -36.667,-17" /></g></g></g><g
       transform="translate(201.082,108.286)"
       id="g34"><path
         id="path36"
         style="fill:#231f20;fill-opacity:1;fill-rule:nonzero;stroke:none"
         d="M 0,0 -5.649,-6.24 2.363,-3.661 0,0" /></g><path
       id="path38"
       style="fill:none;stroke:#231f20;stroke-width:0.5;stroke-linecap:butt;stroke-linejoin:miter;stroke-miterlimit:4;stroke-dasharray:12, 4;stroke-dashoffset:0;stroke-opacity:1"
       d="M 1.5e-5,54.333 H 358.167 M 53.889,0 v 118.667" /><g
       transform="translate(97.089,54.333)"
       id="g40"><path
         id="path42"
         style="fill:none;stroke:#231f20;stroke-width:1;stroke-linecap:butt;stroke-linejoin:miter;stroke-miterlimit:4;stroke-dasharray:none;stroke-opacity:1"
         d="m 0,0 c 0,-25.847 -19.342,-46.8 -43.2,-46.8 -23.859,0 -43.2,20.953 -43.2,46.8 0,25.847 19.341,46.8 43.2,46.8 C -19.342,46.8 0,25.847 0,0 Z" /></g><path
       id="path44"
       style="fill:none;stroke:#231f20;stroke-width:0.5;stroke-linecap:butt;stroke-linejoin:miter;stroke-miterlimit:4;stroke-dasharray:3;stroke-dashoffset:0;stroke-opacity:1"
       d="m 93.489,54.333 c 0,-21.87 -17.729,-39.6 -39.6,-39.6 -21.87,0 -39.6,17.73 -39.6,39.6 0,21.871 17.73,39.6 39.6,39.6 21.871,0 39.6,-17.729 39.6,-39.6 z m 10.8,0 c 0,-27.836 -22.565,-50.4 -50.4,-50.4 -27.835,0 -50.3997,22.564 -50.3997,50.4 0,27.835 22.5647,50.4 50.3997,50.4 27.835,0 50.4,-22.565 50.4,-50.4 z" /><g
       transform="translate(254.815,122.56)"
       id="g46"><path
         id="path48"
         style="fill:none;stroke:#231f20;stroke-width:0.75;stroke-linecap:butt;stroke-linejoin:miter;stroke-miterlimit:4;stroke-dasharray:none;stroke-opacity:1"
         d="M 0,0 C 0,-2.485 -2.015,-4.5 -4.5,-4.5 -6.985,-4.5 -9,-2.485 -9,0 -9,2.485 -6.985,4.5 -4.5,4.5 -2.015,4.5 0,2.485 0,0 Z" /><g
         transform="translate(-0.685,-5.652)"
         id="g50"><path
           id="path52"
           style="fill:none;stroke:#231f20;stroke-width:0.75;stroke-linecap:butt;stroke-linejoin:miter;stroke-miterlimit:4;stroke-dasharray:none;stroke-opacity:1"
           d="M 0,0 3.241,11.305" /></g></g><g
       transform="translate(313,9.311)"
       id="g54"><path
         id="path56"
         style="fill:none;stroke:#231f20;stroke-width:1;stroke-linecap:butt;stroke-linejoin:miter;stroke-miterlimit:4;stroke-dasharray:none;stroke-opacity:1"
         d="m 0,0 h -12.501 l -14,-2 h -11.5 l -10.5,2 -12.999,-1 -11.5,1 -9.5,-2 -12,1 -20,-1 -9.501,1 -14,1 -12,-2 -13.332,2 v 91.6 l 14.332,-2 20.5,2 18.501,-2 20,-1 18.5,2 22.5,1 13,-3 18.499,3 L 0,89.6 Z" /></g><path
       id="path58"
       style="fill:none;stroke:#231f20;stroke-width:0.5;stroke-linecap:butt;stroke-linejoin:miter;stroke-miterlimit:4;stroke-dasharray:3;stroke-dashoffset:0;stroke-opacity:1"
       d="m 130.556,93.933 h 196.777 m -196.444,10.8 h 194.778" /><g
       transform="translate(136,112.444)"
       id="g60"><path
         id="path62"
         style="fill:none;stroke:#231f20;stroke-width:0.75;stroke-linecap:butt;stroke-linejoin:miter;stroke-miterlimit:4;stroke-dasharray:none;stroke-opacity:1"
         d="m 0,0 c 0,0 -0.5,6 3,11 3.5,5 -15,5.5 -15,5.5" /></g><g
       transform="translate(136.913,110.743)"
       id="g64"><path
         id="path66"
         style="fill:#231f20;fill-opacity:1;fill-rule:nonzero;stroke:none"
         d="m 0,0 c 0.271,1.267 0.547,2.099 0.862,3.123 l -3.77,-0.314 c 0.199,-0.341 0.892,-1.733 1.368,-2.937 0.509,-1.29 0.883,-2.466 1.045,-3.235 C -0.462,-2.578 -0.289,-1.356 0,0" /></g><g
       transform="translate(136,86.444)"
       id="g68"><path
         id="path70"
         style="fill:none;stroke:#231f20;stroke-width:0.75;stroke-linecap:butt;stroke-linejoin:miter;stroke-miterlimit:4;stroke-dasharray:none;stroke-opacity:1"
         d="M 0,0 V -10" /></g><g
       transform="translate(135.231,88.216)"
       id="g72"><path
         id="path74"
         style="fill:#231f20;fill-opacity:1;fill-rule:nonzero;stroke:none"
         d="M 0,0 C -0.375,-1.24 -0.72,-2.046 -1.119,-3.041 H 2.665 C 2.495,-2.685 1.92,-1.24 1.546,0 1.145,1.327 0.87,2.53 0.773,3.31 0.675,2.53 0.4,1.327 0,0" /></g><g
       transform="translate(77.5,75.444)"
       id="g76"><path
         id="path78"
         style="fill:none;stroke:#231f20;stroke-width:0.75;stroke-linecap:butt;stroke-linejoin:miter;stroke-miterlimit:4;stroke-dasharray:none;stroke-opacity:1"
         d="M 0,0 -8,-6.5" /></g><g
       transform="translate(78.39,77.158)"
       id="g80"><path
         id="path82"
         style="fill:#231f20;fill-opacity:1;fill-rule:nonzero;stroke:none"
         d="m 0,0 c -1.199,-0.491 -2.042,-0.731 -3.065,-1.049 l 2.385,-2.936 c 0.17,0.356 0.929,1.713 1.655,2.785 0.777,1.149 1.538,2.12 2.082,2.688 C 2.39,1.072 1.283,0.526 0,0" /></g><g
       transform="translate(97.5,91.944)"
       id="g84"><path
         id="path86"
         style="fill:none;stroke:#231f20;stroke-width:0.75;stroke-linecap:butt;stroke-linejoin:miter;stroke-miterlimit:4;stroke-dasharray:none;stroke-opacity:1"
         d="m 0,0 18.5,15 c 10,8.5 -2,15 -2,15" /></g><g
       transform="translate(96.608,90.231)"
       id="g88"><path
         id="path90"
         style="fill:#231f20;fill-opacity:1;fill-rule:nonzero;stroke:none"
         d="M 0,0 C 1.199,0.49 2.042,0.73 3.066,1.046 L 0.684,3.985 C 0.514,3.629 -0.246,2.272 -0.974,1.201 -1.752,0.054 -2.514,-0.917 -3.059,-1.485 -2.391,-1.069 -1.283,-0.524 0,0" /></g><path
       id="path92"
       style="fill:none;stroke:#231f20;stroke-width:0.5;stroke-linecap:butt;stroke-linejoin:miter;stroke-miterlimit:4;stroke-dasharray:3;stroke-dashoffset:0;stroke-opacity:1"
       d="M 133.361,3.5444 H 330.139 M 133.694,14.344 h 194.779" /></g></svg>