<?xml version="1.0" encoding="UTF-8" standalone="no"?>
<svg
   xmlns:dc="http://purl.org/dc/elements/1.1/"
   xmlns:cc="http://creativecommons.org/ns#"
   xmlns:rdf="http://www.w3.org/1999/02/22-rdf-syntax-ns#"
   xmlns:svg="http://www.w3.org/2000/svg"
   xmlns="http://www.w3.org/2000/svg"
   viewBox="0 0 396.95068 192.01067"
   height="192.01067"
   width="396.95068"
   xml:space="preserve"
   id="svg2"
   version="1.1"><metadata
     id="metadata8"><rdf:RDF><cc:Work
         rdf:about=""><dc:format>image/svg+xml</dc:format><dc:type
           rdf:resource="http://purl.org/dc/dcmitype/StillImage" /></cc:Work></rdf:RDF></metadata><defs
     id="defs6" /><g
     transform="matrix(1.3333333,0,0,-1.3333333,0,192.01067)"
     id="g10"><text
       id="text14"
       style="font-variant:normal;font-weight:normal;font-stretch:normal;font-size:10px;font-family:Helvetica;-inkscape-font-specification:Helvetica;writing-mode:lr-tb;fill:#231f20;fill-opacity:1;fill-rule:nonzero;stroke:none"
       transform="matrix(1,0,0,-1,1e-4,134.6983)"><tspan
         id="tspan12"
         y="0"
         x="0 2.78 8.3400002 10.56 16.120001 19.35 24.91 30.469999 35.470001 41.029999 43.810001 48.66 54.220001 59.779999">tolerance zone</tspan></text>
<g
       transform="translate(199.379,131.041)"
       id="g16"><path
         id="path18"
         style="fill:none;stroke:#231f20;stroke-width:0.75;stroke-linecap:butt;stroke-linejoin:miter;stroke-miterlimit:4;stroke-dasharray:none;stroke-opacity:1"
         d="M 0,0 H -10.333 L -36.667,-17" /></g><g
       transform="translate(162.794,116.655)"
       id="g20"><path
         id="path22"
         style="fill:#231f20;fill-opacity:1;fill-rule:nonzero;stroke:none"
         d="M 0,0 -5.649,-6.24 2.363,-3.661 0,0" /></g><g
       transform="translate(297.213,70.313)"
       id="g24"><path
         id="path26"
         style="fill:none;stroke:#231f20;stroke-width:1;stroke-linecap:butt;stroke-linejoin:miter;stroke-miterlimit:4;stroke-dasharray:none;stroke-opacity:1"
         d="M 0,0 V -36.633 H -208.8 V 0 l 18.967,39.967 169.334,-4 z" /></g><path
       id="path28"
       style="fill:none;stroke:#231f20;stroke-width:0.5;stroke-linecap:butt;stroke-linejoin:miter;stroke-miterlimit:4;stroke-dasharray:3;stroke-dashoffset:0;stroke-opacity:1"
       d="m 66.269,102.302 h 222.777 m -222.444,10.8 H 287.38" /><g
       transform="translate(81.713,120.813)"
       id="g30"><path
         id="path32"
         style="fill:none;stroke:#231f20;stroke-width:0.75;stroke-linecap:butt;stroke-linejoin:miter;stroke-miterlimit:4;stroke-dasharray:none;stroke-opacity:1"
         d="m 0,0 c 0,0 -0.5,6 3,11 3.5,5 -15,5.5 -15,5.5" /></g><g
       transform="translate(82.626,119.112)"
       id="g34"><path
         id="path36"
         style="fill:#231f20;fill-opacity:1;fill-rule:nonzero;stroke:none"
         d="m 0,0 c 0.27,1.267 0.547,2.099 0.862,3.123 l -3.77,-0.314 c 0.198,-0.341 0.892,-1.733 1.367,-2.937 0.51,-1.29 0.884,-2.466 1.046,-3.235 C -0.462,-2.578 -0.289,-1.356 0,0" /></g><g
       transform="translate(81.713,94.813)"
       id="g38"><path
         id="path40"
         style="fill:none;stroke:#231f20;stroke-width:0.75;stroke-linecap:butt;stroke-linejoin:miter;stroke-miterlimit:4;stroke-dasharray:none;stroke-opacity:1"
         d="M 0,0 V -10" /></g><g
       transform="translate(80.944,96.584)"
       id="g42"><path
         id="path44"
         style="fill:#231f20;fill-opacity:1;fill-rule:nonzero;stroke:none"
         d="M 0,0 C -0.375,-1.24 -0.72,-2.046 -1.119,-3.041 H 2.665 C 2.495,-2.685 1.92,-1.24 1.546,0 1.145,1.327 0.87,2.53 0.773,3.31 0.675,2.53 0.4,1.327 0,0" /></g><g
       transform="translate(206.67,126.843)"
       id="g46"><path
         id="path48"
         style="fill:none;stroke:#231f20;stroke-width:0.75;stroke-linecap:butt;stroke-linejoin:miter;stroke-miterlimit:4;stroke-dasharray:none;stroke-opacity:1"
         d="M 0,0 4,9" /><g
         transform="translate(10.333,9)"
         id="g50"><path
           id="path52"
           style="fill:none;stroke:#231f20;stroke-width:0.75;stroke-linecap:butt;stroke-linejoin:miter;stroke-miterlimit:4;stroke-dasharray:none;stroke-opacity:1"
           d="M 0,0 -4,-9" /><g
           transform="translate(53.787,-13)"
           id="g54"><path
             id="path56"
             style="fill:none;stroke:#231f20;stroke-width:0.75;stroke-linecap:butt;stroke-linejoin:miter;stroke-miterlimit:4;stroke-dasharray:none;stroke-opacity:1"
             d="M 0,0 H -68.824 V 17 H 0 Z" /></g></g></g><text
       id="text60"
       style="font-variant:normal;font-weight:normal;font-stretch:normal;font-size:10px;font-family:Helvetica;-inkscape-font-specification:Helvetica;writing-mode:lr-tb;fill:#231f20;fill-opacity:1;fill-rule:nonzero;stroke:none"
       transform="matrix(1,0,0,-1,259.543,127.813)"><tspan
         id="tspan58"
         y="0"
         x="0 -31.790001 -26.23 -23.450001 -17.889999">A0.02</tspan></text>
<g
       transform="translate(221.962,139.676)"
       id="g62"><path
         id="path64"
         style="fill:none;stroke:#231f20;stroke-width:0.75;stroke-linecap:butt;stroke-linejoin:miter;stroke-miterlimit:4;stroke-dasharray:none;stroke-opacity:1"
         d="M 0,0 V -16.666" /><g
         transform="translate(33,-16.666)"
         id="g66"><path
           id="path68"
           style="fill:none;stroke:#231f20;stroke-width:0.75;stroke-linecap:butt;stroke-linejoin:miter;stroke-miterlimit:4;stroke-dasharray:none;stroke-opacity:1"
           d="M 0,0 V 16.666" /></g></g><g
       transform="translate(198.463,34.333)"
       id="g70"><path
         id="path72"
         style="fill:#231f20;fill-opacity:1;fill-rule:nonzero;stroke:#231f20;stroke-width:1;stroke-linecap:butt;stroke-linejoin:miter;stroke-miterlimit:4;stroke-dasharray:none;stroke-opacity:1"
         d="M 0,0 V -16" /></g><path
       id="path74"
       style="fill:#231f20;fill-opacity:1;fill-rule:nonzero;stroke:#231f20;stroke-width:1;stroke-linecap:butt;stroke-linejoin:miter;stroke-miterlimit:4;stroke-dasharray:none;stroke-opacity:1"
       d="m 201.764,37.634 h -6.6016 v -6.6016 h 6.6016 z" /><path
       id="path76"
       style="fill:none;stroke:#231f20;stroke-width:1;stroke-linecap:butt;stroke-linejoin:miter;stroke-miterlimit:4;stroke-dasharray:none;stroke-opacity:1"
       d="m 207.713,0.49998 h -18.5 v 18 h 18.5 z" /><text
       id="text80"
       style="font-variant:normal;font-weight:normal;font-stretch:normal;font-size:10px;font-family:Helvetica;-inkscape-font-specification:Helvetica;writing-mode:lr-tb;fill:#231f20;fill-opacity:1;fill-rule:nonzero;stroke:none"
       transform="matrix(1,0,0,-1,195.128,5.5518)"><tspan
         id="tspan78"
         y="0"
         x="0">A</tspan></text>
</g></svg>