<?xml version="1.0" encoding="UTF-8" standalone="no"?>
<svg
   xmlns:dc="http://purl.org/dc/elements/1.1/"
   xmlns:cc="http://creativecommons.org/ns#"
   xmlns:rdf="http://www.w3.org/1999/02/22-rdf-syntax-ns#"
   xmlns:svg="http://www.w3.org/2000/svg"
   xmlns="http://www.w3.org/2000/svg"
   viewBox="0 0 424.36533 165.75867"
   height="165.75867"
   width="424.36533"
   xml:space="preserve"
   id="svg2"
   version="1.1"><metadata
     id="metadata8"><rdf:RDF><cc:Work
         rdf:about=""><dc:format>image/svg+xml</dc:format><dc:type
           rdf:resource="http://purl.org/dc/dcmitype/StillImage" /></cc:Work></rdf:RDF></metadata><defs
     id="defs6" /><g
     transform="matrix(1.3333333,0,0,-1.3333333,0,165.75867)"
     id="g10"><path
       id="path12"
       style="fill:none;stroke:#231f20;stroke-width:0.5;stroke-linecap:butt;stroke-linejoin:miter;stroke-miterlimit:4;stroke-dasharray:8, 4;stroke-dashoffset:0;stroke-opacity:1"
       d="m 167.174,34.459 h 35.5" /><g
       transform="translate(177.549,82.647)"
       id="g14"><path
         id="path16"
         style="fill:none;stroke:#231f20;stroke-width:0.75;stroke-linecap:butt;stroke-linejoin:miter;stroke-miterlimit:1;stroke-dasharray:none;stroke-opacity:1"
         d="m 0,0 -0.24,0.96 v 0.719 l -0.24,0.719 -0.24,0.721 -0.24,0.72 -0.479,0.719 -0.96,1.2 -1.2,0.959 c -1.036,0.227 -2.096,1.391 -3.598,1.199 h -134.836 -1.679 l -0.72,-0.239 c -2.678,-1.026 -3.787,-1.894 -5.038,-4.558 l -0.24,-0.721 -0.24,-0.719 v -43.264 l 0.24,-0.72 0.24,-0.72 0.48,-0.719 0.24,-0.72 0.959,-1.199 1.2,-0.96 0.719,-0.48 0.721,-0.24 0.719,-0.239 0.72,-0.24 h 0.72 l 0.959,-0.24 H -8.158 l 0.961,0.24 h 0.719 l 0.72,0.24 c 2.463,0.546 4.731,2.814 5.278,5.277 l 0.24,0.72 v 0.72 L 0,-39.906" /><g
         transform="translate(105.625,-48.062)"
         id="g18"><path
           id="path20"
           style="fill:none;stroke:#231f20;stroke-width:0.75;stroke-linecap:butt;stroke-linejoin:miter;stroke-miterlimit:1;stroke-dasharray:none;stroke-opacity:1"
           d="M 0,0 H -45.333 V 55.944 H 0" /></g></g><path
       id="path22"
       style="fill:none;stroke:#231f20;stroke-width:0.5;stroke-linecap:butt;stroke-linejoin:miter;stroke-miterlimit:4;stroke-dasharray:8, 4;stroke-dashoffset:0;stroke-opacity:1"
       d="m 177.674,19.832 v 88.833 m 105.625,-89.5 V 108" /><text
       id="text26"
       style="font-variant:normal;font-weight:normal;font-stretch:normal;font-size:10px;font-family:Helvetica;-inkscape-font-specification:Helvetica;writing-mode:lr-tb;fill:#231f20;fill-opacity:1;fill-rule:nonzero;stroke:none"
       transform="matrix(1,0,0,-1,183.2637,4.7568)"><tspan
         id="tspan24"
         y="0"
         x="0 3.3299999 8.8900003 11.37 16.93 20.26 25.82 31.379999 36.380001 41.939999 47.5 53.060001 58.619999 61.400002 66.959999">reference_datum</tspan></text>
<g
       transform="translate(136.963,34.334)"
       id="g28"><path
         id="path30"
         style="fill:#231f20;fill-opacity:1;fill-rule:nonzero;stroke:#231f20;stroke-width:1;stroke-linecap:butt;stroke-linejoin:miter;stroke-miterlimit:4;stroke-dasharray:none;stroke-opacity:1"
         d="M 0,0 V -16" /></g><path
       id="path32"
       style="fill:#231f20;fill-opacity:1;fill-rule:nonzero;stroke:#231f20;stroke-width:1;stroke-linecap:butt;stroke-linejoin:miter;stroke-miterlimit:4;stroke-dasharray:none;stroke-opacity:1"
       d="m 140.264,37.635 h -6.6015 v -6.6015 h 6.6015 z" /><path
       id="path34"
       style="fill:none;stroke:#231f20;stroke-width:1;stroke-linecap:butt;stroke-linejoin:miter;stroke-miterlimit:4;stroke-dasharray:none;stroke-opacity:1"
       d="m 146.213,0.50001 h -18.5 v 18 h 18.5 z" /><g
       transform="translate(178.197,54.067)"
       id="g36"><path
         id="path38"
         style="fill:#231f20;fill-opacity:1;fill-rule:nonzero;stroke:#231f20;stroke-width:1;stroke-linecap:butt;stroke-linejoin:miter;stroke-miterlimit:4;stroke-dasharray:none;stroke-opacity:1"
         d="M 0,0 H 16" /></g><g
       transform="translate(174.896,57.368)"
       id="g40"><path
         id="path42"
         style="fill:#231f20;fill-opacity:1;fill-rule:nonzero;stroke:#231f20;stroke-width:1;stroke-linecap:butt;stroke-linejoin:miter;stroke-miterlimit:4;stroke-dasharray:none;stroke-opacity:1"
         d="M 6.601,0 H -5e-4 V -6.6015 H 6.601 Z M 0,0 Z" /></g><g
       transform="translate(212.031,63.317)"
       id="g44"><path
         id="path46"
         style="fill:none;stroke:#231f20;stroke-width:1;stroke-linecap:butt;stroke-linejoin:miter;stroke-miterlimit:4;stroke-dasharray:none;stroke-opacity:1"
         d="M -18,0 H 0 v -18.5 h -18 z" /><g
         id="g48"><path
           id="path50"
           style="fill:none;stroke:#231f20;stroke-width:1;stroke-linecap:butt;stroke-linejoin:miter;stroke-miterlimit:4;stroke-dasharray:none;stroke-opacity:1"
           d="M 0,0 Z" /></g></g><text
       id="text56"
       style="font-variant:normal;font-weight:normal;font-stretch:normal;font-size:10px;font-family:Helvetica;-inkscape-font-specification:Helvetica;writing-mode:lr-tb;fill:#231f20;fill-opacity:1;fill-rule:nonzero;stroke:none"
       transform="matrix(1,0,0,-1,133.6284,5.5517)"><tspan
         id="tspan52"
         y="0"
         x="0">A</tspan><tspan
         id="tspan54"
         y="-44"
         x="65.5">B</tspan></text>
<g
       transform="translate(154.963,11.166)"
       id="g58"><path
         id="path60"
         style="fill:none;stroke:#231f20;stroke-width:0.75;stroke-linecap:butt;stroke-linejoin:miter;stroke-miterlimit:4;stroke-dasharray:none;stroke-opacity:1"
         d="M 0,0 C 0,0 13.355,0.09 25.877,-4.084" /></g><g
       transform="translate(153.218,10.341)"
       id="g62"><path
         id="path64"
         style="fill:#231f20;fill-opacity:1;fill-rule:nonzero;stroke:none"
         d="M 0,0 C 1.251,-0.335 2.068,-0.6533 3.075,-1.0205 L 2.953,2.761 C 2.603,2.58 1.177,1.959 -0.05,1.545 -1.363,1.101 -2.557,0.788 -3.334,0.665 -2.551,0.593 -1.339,0.357 0,0" /></g><g
       transform="translate(206.963,37.166)"
       id="g66"><path
         id="path68"
         style="fill:none;stroke:#231f20;stroke-width:0.75;stroke-linecap:butt;stroke-linejoin:miter;stroke-miterlimit:4;stroke-dasharray:none;stroke-opacity:1"
         d="m 0,0 c 0,0 -0.123,-6.084 4.877,-9.584 4.403,-3.082 5.5,-13.5 5.5,-13.5" /></g><g
       transform="translate(205.841,38.736)"
       id="g70"><path
         id="path72"
         style="fill:#231f20;fill-opacity:1;fill-rule:nonzero;stroke:none"
         d="m 0,0 c -0.107,-1.29 -0.275,-2.151 -0.457,-3.207 l 3.699,0.793 C 3.002,-2.102 2.137,-0.81 1.511,0.324 0.841,1.538 0.321,2.657 0.062,3.399 0.13,2.616 0.114,1.382 0,0" /></g><g
       transform="translate(283.94,55.067)"
       id="g74"><path
         id="path76"
         style="fill:#231f20;fill-opacity:1;fill-rule:nonzero;stroke:#231f20;stroke-width:1;stroke-linecap:butt;stroke-linejoin:miter;stroke-miterlimit:4;stroke-dasharray:none;stroke-opacity:1"
         d="M 0,0 H 16" /></g><g
       transform="translate(280.64,58.368)"
       id="g78"><path
         id="path80"
         style="fill:#231f20;fill-opacity:1;fill-rule:nonzero;stroke:#231f20;stroke-width:1;stroke-linecap:butt;stroke-linejoin:miter;stroke-miterlimit:4;stroke-dasharray:none;stroke-opacity:1"
         d="M 6.602,0 H 4e-4 V -6.6015 H 6.602 Z M 0,0 Z" /></g><g
       transform="translate(317.774,64.317)"
       id="g82"><path
         id="path84"
         style="fill:none;stroke:#231f20;stroke-width:1;stroke-linecap:butt;stroke-linejoin:miter;stroke-miterlimit:4;stroke-dasharray:none;stroke-opacity:1"
         d="M -18,0 H 0 v -18.5 h -18 z" /><g
         id="g86"><path
           id="path88"
           style="fill:none;stroke:#231f20;stroke-width:1;stroke-linecap:butt;stroke-linejoin:miter;stroke-miterlimit:4;stroke-dasharray:none;stroke-opacity:1"
           d="M 0,0 Z" /></g></g><text
       id="text92"
       style="font-variant:normal;font-weight:normal;font-stretch:normal;font-size:10px;font-family:Helvetica;-inkscape-font-specification:Helvetica;writing-mode:lr-tb;fill:#231f20;fill-opacity:1;fill-rule:nonzero;stroke:none"
       transform="matrix(1,0,0,-1,304.3222,50.5517)"><tspan
         id="tspan90"
         y="0"
         x="0">C</tspan></text>
<path
       id="path94"
       style="fill:none;stroke:#231f20;stroke-width:0.75;stroke-linecap:butt;stroke-linejoin:miter;stroke-miterlimit:4;stroke-dasharray:none;stroke-opacity:1"
       d="M 100.878,106.944 H 0.375 v 17 h 100.503 z" /><text
       id="text100"
       style="font-variant:normal;font-weight:normal;font-stretch:normal;font-size:10px;font-family:Helvetica;-inkscape-font-specification:Helvetica;writing-mode:lr-tb;fill:#231f20;fill-opacity:1;fill-rule:nonzero;stroke:none"
       transform="matrix(1,0,0,-1,57.792,112.0244)"><tspan
         id="tspan96"
         y="0"
         x="0 6.6700001">A</tspan><tspan
         id="tspan98"
         y="0.11"
         x="-31.790001 -26.23 -23.450001 -17.889999">0.08</tspan></text>
<g
       transform="translate(20.21,123.777)"
       id="g102"><path
         id="path104"
         style="fill:none;stroke:#231f20;stroke-width:0.75;stroke-linecap:butt;stroke-linejoin:miter;stroke-miterlimit:4;stroke-dasharray:none;stroke-opacity:1"
         d="M 0,0 V -16.666" /><g
         transform="translate(33,-16.666)"
         id="g106"><path
           id="path108"
           style="fill:none;stroke:#231f20;stroke-width:0.75;stroke-linecap:butt;stroke-linejoin:miter;stroke-miterlimit:4;stroke-dasharray:none;stroke-opacity:1"
           d="M 0,0 V 16.666" /></g></g><g
       transform="translate(105.219,115.79)"
       id="g110"><path
         id="path112"
         style="fill:none;stroke:#231f20;stroke-width:0.75;stroke-linecap:butt;stroke-linejoin:miter;stroke-miterlimit:1;stroke-dasharray:none;stroke-opacity:1"
         d="M 0,0 H 11.5 L 27,-18" /></g><g
       transform="translate(133.866,96.783)"
       id="g114"><path
         id="path116"
         style="fill:#231f20;fill-opacity:1;fill-rule:nonzero;stroke:none"
         d="M 0,0 C -0.407,1.229 -0.588,2.087 -0.834,3.131 L -3.929,0.954 C -3.586,0.761 -2.284,-0.09 -1.265,-0.89 -0.173,-1.744 0.743,-2.571 1.273,-3.153 0.903,-2.459 0.436,-1.316 0,0" /></g><g
       transform="translate(68.799,107.221)"
       id="g118"><path
         id="path120"
         style="fill:none;stroke:#231f20;stroke-width:0.75;stroke-linecap:butt;stroke-linejoin:miter;stroke-miterlimit:4;stroke-dasharray:none;stroke-opacity:1"
         d="M 0,0 V 16.666" /></g><text
       id="text124"
       style="font-variant:normal;font-weight:normal;font-stretch:normal;font-size:10px;font-family:Helvetica;-inkscape-font-specification:Helvetica;writing-mode:lr-tb;fill:#231f20;fill-opacity:1;fill-rule:nonzero;stroke:none"
       transform="matrix(1,0,0,-1,73.1367,112.0244)"><tspan
         id="tspan122"
         y="0"
         x="0 6.6700001 15.073 22.292999">BC</tspan></text>
<g
       transform="translate(84.144,107.221)"
       id="g126"><path
         id="path128"
         style="fill:none;stroke:#231f20;stroke-width:0.75;stroke-linecap:butt;stroke-linejoin:miter;stroke-miterlimit:4;stroke-dasharray:none;stroke-opacity:1"
         d="M 0,0 V 16.666" /><g
         transform="translate(178.197,-100.139)"
         id="g130"><path
           id="path132"
           style="fill:none;stroke:#231f20;stroke-width:0.75;stroke-linecap:butt;stroke-linejoin:miter;stroke-miterlimit:4;stroke-dasharray:none;stroke-opacity:1"
           d="M 0,0 C 0,0 20.5,-2 30.5,1.5 40.5,5 45,8 47.5,14.5 50,21 48,30.5 48,30.5" /></g></g><g
       transform="translate(309.224,39.157)"
       id="g134"><path
         id="path136"
         style="fill:#231f20;fill-opacity:1;fill-rule:nonzero;stroke:none"
         d="m 0,0 c -0.111,-1.291 -0.283,-2.15 -0.468,-3.206 l 3.702,0.779 C 2.995,-2.113 2.134,-0.818 1.513,0.318 0.847,1.534 0.331,2.655 0.074,3.399 0.139,2.615 0.119,1.381 0,0" /></g><g
       transform="translate(15.321,115.449)"
       id="g138"><path
         id="path140"
         style="fill:none;stroke:#231f20;stroke-width:0.75;stroke-linecap:butt;stroke-linejoin:miter;stroke-miterlimit:4;stroke-dasharray:none;stroke-opacity:1"
         d="m 0,0 c 0,-2.585 -2.095,-4.68 -4.68,-4.68 -2.5852,0 -4.6804,2.095 -4.6804,4.68 0,2.585 2.0952,4.68 4.6804,4.68 C -2.095,4.68 0,2.585 0,0 Z" /><g
         transform="translate(-11.88)"
         id="g142"><path
           id="path144"
           style="fill:none;stroke:#231f20;stroke-width:0.75;stroke-linecap:butt;stroke-linejoin:miter;stroke-miterlimit:4;stroke-dasharray:none;stroke-opacity:1"
           d="M 0,0 H 14.4" /><g
           transform="translate(7.2,-7.2)"
           id="g146"><path
             id="path148"
             style="fill:none;stroke:#231f20;stroke-width:0.75;stroke-linecap:butt;stroke-linejoin:miter;stroke-miterlimit:4;stroke-dasharray:none;stroke-opacity:1"
             d="M 0,0 V 14.4" /></g></g></g></g></svg>