<?xml version="1.0" encoding="UTF-8" standalone="no"?>
<svg
   xmlns:dc="http://purl.org/dc/elements/1.1/"
   xmlns:cc="http://creativecommons.org/ns#"
   xmlns:rdf="http://www.w3.org/1999/02/22-rdf-syntax-ns#"
   xmlns:svg="http://www.w3.org/2000/svg"
   xmlns="http://www.w3.org/2000/svg"
   viewBox="0 0 479.96399 173.964"
   height="173.964"
   width="479.96399"
   xml:space="preserve"
   id="svg2"
   version="1.1"><metadata
     id="metadata8"><rdf:RDF><cc:Work
         rdf:about=""><dc:format>image/svg+xml</dc:format><dc:type
           rdf:resource="http://purl.org/dc/dcmitype/StillImage" /></cc:Work></rdf:RDF></metadata><defs
     id="defs6" /><g
     transform="matrix(1.3333333,0,0,-1.3333333,0,173.964)"
     id="g10"><text
       id="text16"
       style="font-variant:normal;font-weight:normal;font-stretch:normal;font-size:10px;font-family:Helvetica;-inkscape-font-specification:Helvetica;writing-mode:lr-tb;fill:#231f20;fill-opacity:1;fill-rule:nonzero;stroke:none"
       transform="matrix(1,0,0,-1,190.7598,109.4834)"><tspan
         id="tspan12"
         y="0"
         x="0 2.78 8.3400002 10.56 16.120001 19.35 24.91 30.469999 35.470001 41.029999 43.810001 48.66 54.220001 59.779999">tolerance zone</tspan><tspan
         id="tspan14"
         y="107.233"
         x="-113.043 -109.713 -104.153 -101.673 -96.112999 -92.782997 -87.223 -81.663002 -76.663002 -71.102997 -65.542999 -59.983002 -54.423 -51.643002 -46.083">reference_datum</tspan></text>
<path
       id="path18"
       style="fill:none;stroke:#231f20;stroke-width:0.75;stroke-linecap:butt;stroke-linejoin:miter;stroke-miterlimit:4;stroke-dasharray:none;stroke-opacity:1"
       d="M 141.917,113.098 H 62.195 v 17 h 79.722 z" /><text
       id="text22"
       style="font-variant:normal;font-weight:normal;font-stretch:normal;font-size:10px;font-family:Helvetica;-inkscape-font-specification:Helvetica;writing-mode:lr-tb;fill:#231f20;fill-opacity:1;fill-rule:nonzero;stroke:none"
       transform="matrix(1,0,0,-1,119.7213,118.0673)"><tspan
         id="tspan20"
         y="0"
         x="0 6.6700001 10 -31.790001 -26.23 -23.450001 -17.889999">A-B0.08</tspan></text>
<g
       transform="translate(82.14,129.931)"
       id="g24"><path
         id="path26"
         style="fill:none;stroke:#231f20;stroke-width:0.75;stroke-linecap:butt;stroke-linejoin:miter;stroke-miterlimit:4;stroke-dasharray:none;stroke-opacity:1"
         d="M 0,0 V -16.666" /><g
         transform="translate(33,-16.666)"
         id="g28"><path
           id="path30"
           style="fill:none;stroke:#231f20;stroke-width:0.75;stroke-linecap:butt;stroke-linejoin:miter;stroke-miterlimit:4;stroke-dasharray:none;stroke-opacity:1"
           d="M 0,0 V 16.666" /></g></g><path
       id="path32"
       style="fill:none;stroke:#231f20;stroke-width:0.5;stroke-linecap:butt;stroke-linejoin:miter;stroke-miterlimit:4;stroke-dasharray:12, 4;stroke-dashoffset:0;stroke-opacity:1"
       d="M 1.8066,60.561 H 359.973" /><g
       transform="translate(313.878,12.821)"
       id="g34"><path
         id="path36"
         style="fill:none;stroke:#231f20;stroke-width:0.5;stroke-linecap:butt;stroke-linejoin:miter;stroke-miterlimit:4;stroke-dasharray:none;stroke-opacity:1"
         d="M 0,0 V 92.666" /></g><g
       transform="translate(9.75,59.993)"
       id="g38"><path
         id="path40"
         style="fill:#231f20;fill-opacity:1;fill-rule:nonzero;stroke:#231f20;stroke-width:1;stroke-linecap:butt;stroke-linejoin:miter;stroke-miterlimit:4;stroke-dasharray:none;stroke-opacity:1"
         d="M 0,0 V -16" /></g><path
       id="path42"
       style="fill:#231f20;fill-opacity:1;fill-rule:nonzero;stroke:#231f20;stroke-width:1;stroke-linecap:butt;stroke-linejoin:miter;stroke-miterlimit:4;stroke-dasharray:none;stroke-opacity:1"
       d="M 13.051,63.294 H 6.4495 v -6.6016 h 6.6015 z" /><path
       id="path44"
       style="fill:none;stroke:#231f20;stroke-width:1;stroke-linecap:butt;stroke-linejoin:miter;stroke-miterlimit:4;stroke-dasharray:none;stroke-opacity:1"
       d="M 19,26.16 H 0.5 v 18 H 19 Z" /><text
       id="text48"
       style="font-variant:normal;font-weight:normal;font-stretch:normal;font-size:10px;font-family:Helvetica;-inkscape-font-specification:Helvetica;writing-mode:lr-tb;fill:#231f20;fill-opacity:1;fill-rule:nonzero;stroke:none"
       transform="matrix(1,0,0,-1,6.5547,31.1294)"><tspan
         id="tspan46"
         y="0"
         x="0">A</tspan></text>
<g
       transform="translate(210.583,60.16)"
       id="g50"><path
         id="path52"
         style="fill:#231f20;fill-opacity:1;fill-rule:nonzero;stroke:#231f20;stroke-width:1;stroke-linecap:butt;stroke-linejoin:miter;stroke-miterlimit:4;stroke-dasharray:none;stroke-opacity:1"
         d="M 0,0 V -16" /></g><path
       id="path54"
       style="fill:#231f20;fill-opacity:1;fill-rule:nonzero;stroke:#231f20;stroke-width:1;stroke-linecap:butt;stroke-linejoin:miter;stroke-miterlimit:4;stroke-dasharray:none;stroke-opacity:1"
       d="m 213.884,63.46 h -6.6015 v -6.6016 h 6.6015 z" /><path
       id="path56"
       style="fill:none;stroke:#231f20;stroke-width:1;stroke-linecap:butt;stroke-linejoin:miter;stroke-miterlimit:4;stroke-dasharray:none;stroke-opacity:1"
       d="m 219.833,26.326 h -18.5 v 18 h 18.5 z" /><text
       id="text60"
       style="font-variant:normal;font-weight:normal;font-stretch:normal;font-size:10px;font-family:Helvetica;-inkscape-font-specification:Helvetica;writing-mode:lr-tb;fill:#231f20;fill-opacity:1;fill-rule:nonzero;stroke:none"
       transform="matrix(1,0,0,-1,207.3882,31.2959)"><tspan
         id="tspan58"
         y="0"
         x="0">B</tspan></text>
<g
       transform="translate(157.806,4.5981)"
       id="g62"><path
         id="path64"
         style="fill:none;stroke:#231f20;stroke-width:0.75;stroke-linecap:butt;stroke-linejoin:miter;stroke-miterlimit:4;stroke-dasharray:none;stroke-opacity:1"
         d="M 0,0 C 25.334,0.6665 37,9.834 37,9.834" /></g><g
       transform="translate(194.795,11.817)"
       id="g66"><path
         id="path68"
         style="fill:#231f20;fill-opacity:1;fill-rule:nonzero;stroke:none"
         d="M 0,0 5.48,6.389 -2.46,3.596 0,0" /></g><g
       transform="translate(73.14,4.5981)"
       id="g70"><path
         id="path72"
         style="fill:none;stroke:#231f20;stroke-width:0.75;stroke-linecap:butt;stroke-linejoin:miter;stroke-miterlimit:4;stroke-dasharray:none;stroke-opacity:1"
         d="M 0,0 C 0,0 -32.667,-1.3335 -51.333,10.833" /></g><g
       transform="translate(24.164,16.562)"
       id="g74"><path
         id="path76"
         style="fill:#231f20;fill-opacity:1;fill-rule:nonzero;stroke:none"
         d="M 0,0 -8.14,2.143 -2.162,-3.783 0,0" /></g><g
       transform="translate(148.473,24.561)"
       id="g78"><path
         id="path80"
         style="fill:none;stroke:#231f20;stroke-width:1;stroke-linecap:butt;stroke-linejoin:miter;stroke-miterlimit:4;stroke-dasharray:none;stroke-opacity:1"
         d="M 0,0 H -116.667 V 72 H 0 Z" /><g
         transform="translate(40.667,19.904)"
         id="g82"><path
           id="path84"
           style="fill:none;stroke:#231f20;stroke-width:1;stroke-linecap:butt;stroke-linejoin:miter;stroke-miterlimit:4;stroke-dasharray:none;stroke-opacity:1"
           d="M 0,0 H -40.667 V 43.2 H 0 Z" /></g></g><g
       transform="translate(77.406,121.398)"
       id="g86"><path
         id="path88"
         style="fill:none;stroke:#231f20;stroke-width:0.75;stroke-linecap:butt;stroke-linejoin:miter;stroke-miterlimit:4;stroke-dasharray:none;stroke-opacity:1"
         d="m 0,0 c 0,-2.982 -2.417,-5.399 -5.399,-5.399 -2.983,0 -5.401,2.417 -5.401,5.399 0,2.982 2.418,5.4 5.401,5.4 C -2.417,5.4 0,2.982 0,0 Z" /><g
         transform="translate(-1.8)"
         id="g90"><path
           id="path92"
           style="fill:none;stroke:#231f20;stroke-width:0.75;stroke-linecap:butt;stroke-linejoin:miter;stroke-miterlimit:4;stroke-dasharray:none;stroke-opacity:1"
           d="m 0,0 c 0,-1.988 -1.611,-3.6 -3.6,-3.6 -1.988,0 -3.6,1.612 -3.6,3.6 0,1.988 1.612,3.601 3.6,3.601 C -1.611,3.601 0,1.988 0,0 Z" /></g></g><g
       transform="translate(349.878,60.561)"
       id="g94"><path
         id="path96"
         style="fill:none;stroke:#231f20;stroke-width:1;stroke-linecap:butt;stroke-linejoin:miter;stroke-miterlimit:4;stroke-dasharray:none;stroke-opacity:1"
         d="m 0,0 c 0,-19.882 -16.118,-36 -36,-36 -19.882,0 -36,16.118 -36,36 0,19.882 16.118,36 36,36 C -16.118,36 0,19.882 0,0 Z" /><g
         transform="translate(-14.4,5.504)"
         id="g98"><path
           id="path100"
           style="fill:none;stroke:#231f20;stroke-width:1;stroke-linecap:butt;stroke-linejoin:miter;stroke-miterlimit:4;stroke-dasharray:none;stroke-opacity:1"
           d="m 0,0 c 0,-11.93 -9.67,-21.6 -21.6,-21.6 -11.929,0 -21.6,9.67 -21.6,21.6 0,11.929 9.671,21.6 21.6,21.6 C -9.67,21.6 0,11.929 0,0 Z" /></g></g><path
       id="path102"
       style="fill:none;stroke:#231f20;stroke-width:0.25;stroke-linecap:butt;stroke-linejoin:miter;stroke-miterlimit:4;stroke-dasharray:4;stroke-dashoffset:0;stroke-opacity:1"
       d="M 78.39,66.431 H 198.556" /><g
       transform="translate(311.312,65.765)"
       id="g104"><path
         id="path106"
         style="fill:none;stroke:#231f20;stroke-width:0.25;stroke-linecap:butt;stroke-linejoin:miter;stroke-miterlimit:4;stroke-dasharray:none;stroke-opacity:1"
         d="M 0,0 H 4.489" /></g><text
       id="text110"
       style="font-variant:normal;font-weight:normal;font-stretch:normal;font-size:10px;font-family:Helvetica;-inkscape-font-specification:Helvetica;writing-mode:lr-tb;fill:#231f20;fill-opacity:1;fill-rule:nonzero;stroke:none"
       transform="matrix(1,0,0,-1,71.1621,71.7338)"><tspan
         id="tspan108"
         y="0"
         x="0 5.5599999 10.56 12.78 17.780001 20.559999 26.120001 28.9 31.68 36.68 42.240002 45.57 48.049999 53.610001 58.610001">axis of surface</tspan></text>
<g
       transform="translate(142.473,121.932)"
       id="g112"><path
         id="path114"
         style="fill:none;stroke:#231f20;stroke-width:0.75;stroke-linecap:butt;stroke-linejoin:miter;stroke-miterlimit:4;stroke-dasharray:none;stroke-opacity:1"
         d="M 0,0 H 11.333 L 28,-30" /></g><g
       transform="translate(172.005,90.756)"
       id="g116"><path
         id="path118"
         style="fill:#231f20;fill-opacity:1;fill-rule:nonzero;stroke:none"
         d="M 0,0 C -0.275,1.266 -0.365,2.138 -0.499,3.202 L -3.806,1.364 C -3.485,1.135 -2.281,0.152 -1.351,-0.751 -0.356,-1.716 0.468,-2.635 0.933,-3.27 0.639,-2.539 0.294,-1.354 0,0" /></g><path
       id="path120"
       style="fill:none;stroke:#231f20;stroke-width:0.5;stroke-linecap:butt;stroke-linejoin:miter;stroke-miterlimit:4;stroke-dasharray:4;stroke-dashoffset:0;stroke-opacity:1"
       d="m 321.079,60.598 c 0,-3.976 -3.224,-7.2 -7.2,-7.2 -3.977,0 -7.2,3.224 -7.2,7.2 0,3.977 3.223,7.2 7.2,7.2 3.976,0 7.2,-3.223 7.2,-7.2 z" /><g
       transform="translate(243.806,68.265)"
       id="g122"><path
         id="path124"
         style="fill:none;stroke:#231f20;stroke-width:0.25;stroke-linecap:butt;stroke-linejoin:miter;stroke-miterlimit:4;stroke-dasharray:none;stroke-opacity:1"
         d="M 0,0 H 88.763" /><g
         transform="translate(0.667,-15.333)"
         id="g126"><path
           id="path128"
           style="fill:none;stroke:#231f20;stroke-width:0.25;stroke-linecap:butt;stroke-linejoin:miter;stroke-miterlimit:4;stroke-dasharray:none;stroke-opacity:1"
           d="M 0,0 H 88" /></g></g><g
       transform="translate(257.14,32.098)"
       id="g130"><path
         id="path132"
         style="fill:#231f20;fill-opacity:1;fill-rule:nonzero;stroke:#231f20;stroke-width:0.75;stroke-linecap:butt;stroke-linejoin:miter;stroke-miterlimit:4;stroke-dasharray:none;stroke-opacity:1"
         d="M 0,0 V 14" /></g><g
       transform="translate(256.371,47.87)"
       id="g134"><path
         id="path136"
         style="fill:#231f20;fill-opacity:1;fill-rule:nonzero;stroke:none"
         d="M 0,0 C -0.375,-1.24 -0.72,-2.046 -1.119,-3.041 H 2.665 C 2.495,-2.685 1.92,-1.24 1.546,0 1.145,1.327 0.87,2.53 0.772,3.31 0.675,2.53 0.4,1.327 0,0" /></g><g
       transform="translate(257.14,75.598)"
       id="g138"><path
         id="path140"
         style="fill:none;stroke:#231f20;stroke-width:0.75;stroke-linecap:butt;stroke-linejoin:miter;stroke-miterlimit:4;stroke-dasharray:none;stroke-opacity:1"
         d="m 0,0 c 1.5,12 10.5,15.5 10.5,15.5 0,0 12,0.5 4,9 C 6.5,33 2.5,35 2.5,35" /></g><g
       transform="translate(257.683,73.745)"
       id="g142"><path
         id="path144"
         style="fill:#231f20;fill-opacity:1;fill-rule:nonzero;stroke:none"
         d="m 0,0 c 0.525,1.184 0.968,1.941 1.487,2.878 l -3.754,0.47 C -2.143,2.974 -1.751,1.469 -1.534,0.192 -1.3,-1.175 -1.178,-2.403 -1.177,-3.19 -0.983,-2.427 -0.562,-1.267 0,0" /></g></g></svg>