<?xml version="1.0" encoding="UTF-8" standalone="no"?>
<svg
   xmlns:dc="http://purl.org/dc/elements/1.1/"
   xmlns:cc="http://creativecommons.org/ns#"
   xmlns:rdf="http://www.w3.org/1999/02/22-rdf-syntax-ns#"
   xmlns:svg="http://www.w3.org/2000/svg"
   xmlns="http://www.w3.org/2000/svg"
   viewBox="0 0 375.61734 147.772"
   height="147.772"
   width="375.61734"
   xml:space="preserve"
   id="svg2"
   version="1.1"><metadata
     id="metadata8"><rdf:RDF><cc:Work
         rdf:about=""><dc:format>image/svg+xml</dc:format><dc:type
           rdf:resource="http://purl.org/dc/dcmitype/StillImage" /></cc:Work></rdf:RDF></metadata><defs
     id="defs6" /><g
     transform="matrix(1.3333333,0,0,-1.3333333,0,147.772)"
     id="g10"><text
       id="text14"
       style="font-variant:normal;font-weight:normal;font-stretch:normal;font-size:10px;font-family:Helvetica;-inkscape-font-specification:Helvetica;writing-mode:lr-tb;fill:#231f20;fill-opacity:1;fill-rule:nonzero;stroke:none"
       transform="matrix(1,0,0,-1,1e-4,101.5186)"><tspan
         id="tspan12"
         y="0"
         x="0 2.78 8.3400002 10.56 16.120001 19.35 24.91 30.469999 35.470001 41.029999 43.810001 48.66 54.220001 59.779999">tolerance zone</tspan></text>
<path
       id="path16"
       style="fill:none;stroke:#231f20;stroke-width:0.75;stroke-linecap:butt;stroke-linejoin:miter;stroke-miterlimit:4;stroke-dasharray:none;stroke-opacity:1"
       d="m 236.959,89.8 h -50.992 v 17 h 50.992 z" /><text
       id="text20"
       style="font-variant:normal;font-weight:normal;font-stretch:normal;font-size:10px;font-family:Helvetica;-inkscape-font-specification:Helvetica;writing-mode:lr-tb;fill:#231f20;fill-opacity:1;fill-rule:nonzero;stroke:none"
       transform="matrix(1,0,0,-1,211.8379,94.7693)"><tspan
         id="tspan18"
         y="0"
         x="0 5.5599999 8.3400002 13.9">0.04</tspan></text>
<g
       transform="translate(206.046,106.633)"
       id="g22"><path
         id="path24"
         style="fill:none;stroke:#231f20;stroke-width:0.75;stroke-linecap:butt;stroke-linejoin:miter;stroke-miterlimit:4;stroke-dasharray:none;stroke-opacity:1"
         d="M 0,0 V -16.666" /><g
         transform="translate(-22.667,-8.772)"
         id="g26"><path
           id="path28"
           style="fill:none;stroke:#231f20;stroke-width:0.75;stroke-linecap:butt;stroke-linejoin:miter;stroke-miterlimit:4;stroke-dasharray:none;stroke-opacity:1"
           d="M 0,0 H -10.333 L -36.667,-17" /></g></g><g
       transform="translate(146.794,83.475)"
       id="g30"><path
         id="path32"
         style="fill:#231f20;fill-opacity:1;fill-rule:nonzero;stroke:none"
         d="M 0,0 -5.649,-6.24 2.363,-3.661 0,0" /></g><g
       transform="translate(258.713,37.133)"
       id="g34"><path
         id="path36"
         style="fill:none;stroke:#231f20;stroke-width:1;stroke-linecap:butt;stroke-linejoin:miter;stroke-miterlimit:4;stroke-dasharray:none;stroke-opacity:1"
         d="M 0,0 H 22.5 V -36.633 H -186.3 V 0 h 22.967 v 38.967 l 14.332,-2 20.5,2 18.501,-2 20,-1 18.5,2 22.5,1 13,-3 18.499,3 17.501,-2 z" /></g><path
       id="path38"
       style="fill:none;stroke:#231f20;stroke-width:0.5;stroke-linecap:butt;stroke-linejoin:miter;stroke-miterlimit:4;stroke-dasharray:3;stroke-dashoffset:0;stroke-opacity:1"
       d="M 76.269,69.122 H 273.046 M 76.602,79.922 H 271.38" /><g
       transform="translate(81.713,87.633)"
       id="g40"><path
         id="path42"
         style="fill:none;stroke:#231f20;stroke-width:0.75;stroke-linecap:butt;stroke-linejoin:miter;stroke-miterlimit:4;stroke-dasharray:none;stroke-opacity:1"
         d="m 0,0 c 0,0 -0.5,6 3,11 3.5,5 -15,5.5 -15,5.5" /></g><g
       transform="translate(82.626,85.932)"
       id="g44"><path
         id="path46"
         style="fill:#231f20;fill-opacity:1;fill-rule:nonzero;stroke:none"
         d="m 0,0 c 0.271,1.267 0.547,2.099 0.862,3.123 l -3.77,-0.314 c 0.199,-0.341 0.892,-1.733 1.368,-2.937 0.509,-1.29 0.883,-2.466 1.045,-3.235 C -0.462,-2.578 -0.289,-1.356 0,0" /></g><g
       transform="translate(81.713,61.633)"
       id="g48"><path
         id="path50"
         style="fill:none;stroke:#231f20;stroke-width:0.75;stroke-linecap:butt;stroke-linejoin:miter;stroke-miterlimit:4;stroke-dasharray:none;stroke-opacity:1"
         d="M 0,0 V -10" /></g><g
       transform="translate(80.944,63.405)"
       id="g52"><path
         id="path54"
         style="fill:#231f20;fill-opacity:1;fill-rule:nonzero;stroke:none"
         d="M 0,0 C -0.375,-1.24 -0.72,-2.046 -1.119,-3.041 H 2.665 C 2.495,-2.685 1.92,-1.24 1.546,0 1.145,1.327 0.87,2.53 0.773,3.31 0.675,2.53 0.4,1.327 0,0" /></g><g
       transform="translate(198.713,93.633)"
       id="g56"><path
         id="path58"
         style="fill:none;stroke:#231f20;stroke-width:0.75;stroke-linecap:butt;stroke-linejoin:miter;stroke-miterlimit:4;stroke-dasharray:none;stroke-opacity:1"
         d="m 0,0 h -9.333 l 4,9 H 4 Z" /></g></g></svg>