<?xml version="1.0" encoding="UTF-8" standalone="no"?>
<svg
   xmlns:dc="http://purl.org/dc/elements/1.1/"
   xmlns:cc="http://creativecommons.org/ns#"
   xmlns:rdf="http://www.w3.org/1999/02/22-rdf-syntax-ns#"
   xmlns:svg="http://www.w3.org/2000/svg"
   xmlns="http://www.w3.org/2000/svg"
   viewBox="0 0 407.29599 187.73067"
   height="187.73067"
   width="407.29599"
   xml:space="preserve"
   id="svg2"
   version="1.1"><metadata
     id="metadata8"><rdf:RDF><cc:Work
         rdf:about=""><dc:format>image/svg+xml</dc:format><dc:type
           rdf:resource="http://purl.org/dc/dcmitype/StillImage" /></cc:Work></rdf:RDF></metadata><defs
     id="defs6" /><g
     transform="matrix(1.3333333,0,0,-1.3333333,0,187.73067)"
     id="g10"><g
       transform="translate(209.044,35.018)"
       id="g12"><path
         id="path14"
         style="fill:none;stroke:#231f20;stroke-width:0.75;stroke-linecap:butt;stroke-linejoin:miter;stroke-miterlimit:1;stroke-dasharray:none;stroke-opacity:1"
         d="m 0,0 v 65.025 l 6.124,1.03 6.247,-0.943 7.005,1.049 V 0" /><g
         transform="translate(-137.268,49.128)"
         id="g16"><path
           id="path18"
           style="fill:none;stroke:#231f20;stroke-width:0.75;stroke-linecap:butt;stroke-linejoin:miter;stroke-miterlimit:1;stroke-dasharray:none;stroke-opacity:1"
           d="M 0,0 C 0,0 16.387,16.208 35.387,16 54.388,15.791 69.5,0 69.5,0 V -49.128 H 0 Z" /></g></g><path
       id="path20"
       style="fill:none;stroke:#231f20;stroke-width:0.5;stroke-linecap:butt;stroke-linejoin:miter;stroke-miterlimit:1;stroke-dasharray:4, 2;stroke-dashoffset:0;stroke-opacity:1"
       d="m 123.42,35.018 h 121.357 m -16.5,64.564 v 17" /><text
       id="text24"
       style="font-variant:normal;font-weight:normal;font-stretch:normal;font-size:10px;font-family:Helvetica;-inkscape-font-specification:Helvetica;writing-mode:lr-tb;fill:#231f20;fill-opacity:1;fill-rule:nonzero;stroke:none"
       transform="matrix(1,0,0,-1,159.0767,8.2568)"><tspan
         id="tspan22"
         y="0"
         x="0 3.3299999 8.8900003 11.37 16.93 20.26 25.82 31.379999 36.380001 41.939999 47.5 53.060001 58.619999 61.400002 66.959999">reference_datum</tspan></text>
<g
       transform="translate(107.277,34.334)"
       id="g26"><path
         id="path28"
         style="fill:#231f20;fill-opacity:1;fill-rule:nonzero;stroke:#231f20;stroke-width:1;stroke-linecap:butt;stroke-linejoin:miter;stroke-miterlimit:4;stroke-dasharray:none;stroke-opacity:1"
         d="M 0,0 V -16" /></g><path
       id="path30"
       style="fill:#231f20;fill-opacity:1;fill-rule:nonzero;stroke:#231f20;stroke-width:1;stroke-linecap:butt;stroke-linejoin:miter;stroke-miterlimit:4;stroke-dasharray:none;stroke-opacity:1"
       d="m 110.578,37.634 h -6.6016 v -6.6015 h 6.6016 z" /><path
       id="path32"
       style="fill:none;stroke:#231f20;stroke-width:1;stroke-linecap:butt;stroke-linejoin:miter;stroke-miterlimit:4;stroke-dasharray:none;stroke-opacity:1"
       d="m 116.527,0.50004 h -18.5 v 18 h 18.5 z" /><g
       transform="translate(229.01,53.567)"
       id="g34"><path
         id="path36"
         style="fill:#231f20;fill-opacity:1;fill-rule:nonzero;stroke:#231f20;stroke-width:1;stroke-linecap:butt;stroke-linejoin:miter;stroke-miterlimit:4;stroke-dasharray:none;stroke-opacity:1"
         d="M 0,0 H 16" /></g><g
       transform="translate(225.709,56.868)"
       id="g38"><path
         id="path40"
         style="fill:#231f20;fill-opacity:1;fill-rule:nonzero;stroke:#231f20;stroke-width:1;stroke-linecap:butt;stroke-linejoin:miter;stroke-miterlimit:4;stroke-dasharray:none;stroke-opacity:1"
         d="M 6.602,0 H 4e-4 V -6.6015 H 6.602 Z M 0,0 Z" /></g><g
       transform="translate(262.844,62.817)"
       id="g42"><path
         id="path44"
         style="fill:none;stroke:#231f20;stroke-width:1;stroke-linecap:butt;stroke-linejoin:miter;stroke-miterlimit:4;stroke-dasharray:none;stroke-opacity:1"
         d="M -18,0 H 0 v -18.5 h -18 z" /><g
         id="g46"><path
           id="path48"
           style="fill:none;stroke:#231f20;stroke-width:1;stroke-linecap:butt;stroke-linejoin:miter;stroke-miterlimit:4;stroke-dasharray:none;stroke-opacity:1"
           d="M 0,0 Z" /></g></g><text
       id="text54"
       style="font-variant:normal;font-weight:normal;font-stretch:normal;font-size:10px;font-family:Helvetica;-inkscape-font-specification:Helvetica;writing-mode:lr-tb;fill:#231f20;fill-opacity:1;fill-rule:nonzero;stroke:none"
       transform="matrix(1,0,0,-1,103.942,5.5517)"><tspan
         id="tspan50"
         y="0"
         x="0">A</tspan><tspan
         id="tspan52"
         y="-43.5"
         x="146">B</tspan></text>
<g
       transform="translate(128.777,10.665)"
       id="g56"><path
         id="path58"
         style="fill:#231f20;fill-opacity:1;fill-rule:nonzero;stroke:#231f20;stroke-width:0.75;stroke-linecap:butt;stroke-linejoin:miter;stroke-miterlimit:4;stroke-dasharray:none;stroke-opacity:1"
         d="M 0,0 25.666,0.667" /></g><g
       transform="translate(127.031,9.8403)"
       id="g60"><path
         id="path62"
         style="fill:#231f20;fill-opacity:1;fill-rule:nonzero;stroke:none"
         d="M 0,0 C 1.252,-0.3345 2.068,-0.6533 3.075,-1.0205 L 2.953,2.761 C 2.604,2.581 1.178,1.959 -0.05,1.545 -1.363,1.101 -2.557,0.788 -3.334,0.666 -2.551,0.593 -1.339,0.357 0,0" /></g><g
       transform="translate(253.777,36.666)"
       id="g64"><path
         id="path66"
         style="fill:none;stroke:#231f20;stroke-width:0.75;stroke-linecap:butt;stroke-linejoin:miter;stroke-miterlimit:4;stroke-dasharray:none;stroke-opacity:1"
         d="M 0,0 C 0,0 1.999,-9.333 -3.334,-10 -8.667,-10.667 -16,-18 -16,-18" /></g><g
       transform="translate(252.654,38.236)"
       id="g68"><path
         id="path70"
         style="fill:#231f20;fill-opacity:1;fill-rule:nonzero;stroke:none"
         d="m 0,0 c -0.107,-1.291 -0.275,-2.151 -0.457,-3.208 l 3.699,0.793 C 3.003,-2.102 2.138,-0.81 1.512,0.324 0.842,1.538 0.321,2.657 0.062,3.399 0.13,2.616 0.114,1.382 0,0" /></g><path
       id="path72"
       style="fill:none;stroke:#231f20;stroke-width:0.75;stroke-linecap:butt;stroke-linejoin:miter;stroke-miterlimit:4;stroke-dasharray:none;stroke-opacity:1"
       d="M 90.994,123.423 H 0.375 v 17 h 90.619 z" /><text
       id="text76"
       style="font-variant:normal;font-weight:normal;font-stretch:normal;font-size:10px;font-family:Helvetica;-inkscape-font-specification:Helvetica;writing-mode:lr-tb;fill:#231f20;fill-opacity:1;fill-rule:nonzero;stroke:none"
       transform="matrix(1,0,0,-1,58.8502,128.3935)"><tspan
         id="tspan74"
         y="0"
         x="0 -32.790001 -27.23 -24.450001 -18.889999">A0.08</tspan></text>
<g
       transform="translate(20.268,140.256)"
       id="g78"><path
         id="path80"
         style="fill:none;stroke:#231f20;stroke-width:0.75;stroke-linecap:butt;stroke-linejoin:miter;stroke-miterlimit:4;stroke-dasharray:none;stroke-opacity:1"
         d="M 0,0 V -16.666" /><g
         transform="translate(33,-16.666)"
         id="g82"><path
           id="path84"
           style="fill:none;stroke:#231f20;stroke-width:0.75;stroke-linecap:butt;stroke-linejoin:miter;stroke-miterlimit:4;stroke-dasharray:none;stroke-opacity:1"
           d="M 0,0 V 16.666" /></g></g><g
       transform="translate(17.197,128.503)"
       id="g86"><path
         id="path88"
         style="fill:none;stroke:#231f20;stroke-width:0.75;stroke-linecap:butt;stroke-linejoin:miter;stroke-miterlimit:4;stroke-dasharray:none;stroke-opacity:1"
         d="m 0,0 c 0,3.778 -3.063,6.84 -6.84,6.84 -3.778,0 -6.84,-3.062 -6.84,-6.84 z" /></g><g
       transform="translate(90.777,132.332)"
       id="g90"><path
         id="path92"
         style="fill:none;stroke:#231f20;stroke-width:0.75;stroke-linecap:butt;stroke-linejoin:miter;stroke-miterlimit:1;stroke-dasharray:none;stroke-opacity:1"
         d="M 0,0 H 11.5 L 34,-32" /></g><g
       transform="translate(126.424,99.325)"
       id="g94"><path
         id="path96"
         style="fill:#231f20;fill-opacity:1;fill-rule:nonzero;stroke:none"
         d="M 0,0 C -0.407,1.23 -0.588,2.087 -0.834,3.131 L -3.929,0.955 C -3.586,0.761 -2.284,-0.09 -1.265,-0.889 -0.173,-1.744 0.743,-2.571 1.272,-3.153 0.903,-2.458 0.436,-1.316 0,0" /></g><path
       id="path98"
       style="fill:none;stroke:#231f20;stroke-width:0.5;stroke-linecap:butt;stroke-linejoin:miter;stroke-miterlimit:1;stroke-dasharray:3;stroke-dashoffset:0;stroke-opacity:1"
       d="m 71.665,90.647 c 0,0 16.386,16.208 35.387,16 19,-0.209 34.113,-16 34.113,-16 m -69.5,-13.563 c 0,0 16.386,16.207 35.387,15.999 19,-0.209 34.113,-15.999 34.113,-15.999 m 54.5,29.854 h 32.5 m -33.5,-13.75 h 33.5" /><g
       transform="translate(72.415,123.59)"
       id="g100"><path
         id="path102"
         style="fill:none;stroke:#231f20;stroke-width:0.75;stroke-linecap:butt;stroke-linejoin:miter;stroke-miterlimit:4;stroke-dasharray:none;stroke-opacity:1"
         d="M 0,0 V 16.666" /></g><text
       id="text108"
       style="font-variant:normal;font-weight:normal;font-stretch:normal;font-size:10px;font-family:Helvetica;-inkscape-font-specification:Helvetica;writing-mode:lr-tb;fill:#231f20;fill-opacity:1;fill-rule:nonzero;stroke:none"
       transform="matrix(1,0,0,-1,78.0797,128.3935)"><tspan
         id="tspan104"
         y="0"
         x="0">B</tspan><tspan
         id="tspan106"
         y="-0.40799999"
         x="162.05299 164.83299 170.39301 172.61301 178.173 181.403 186.963 192.52299 197.52299 203.08299 205.86301 210.713 216.27299 221.83299">tolerance zone</tspan></text>
<g
       transform="translate(234.527,133.082)"
       id="g110"><path
         id="path112"
         style="fill:none;stroke:#231f20;stroke-width:0.75;stroke-linecap:butt;stroke-linejoin:miter;stroke-miterlimit:1;stroke-dasharray:none;stroke-opacity:1"
         d="M 0,0 C 0,0 -42,6.5 -63.5,-3 -85,-12.5 -99,-30 -99,-30" /></g><g
       transform="translate(135.021,101.219)"
       id="g114"><path
         id="path116"
         style="fill:#231f20;fill-opacity:1;fill-rule:nonzero;stroke:none"
         d="M 0,0 C 1.067,0.734 1.84,1.148 2.773,1.675 L -0.181,4.039 C -0.272,3.655 -0.725,2.168 -1.207,0.966 -1.723,-0.321 -2.26,-1.432 -2.672,-2.103 -2.108,-1.554 -1.142,-0.786 0,0" /></g><g
       transform="translate(234.527,130.082)"
       id="g118"><path
         id="path120"
         style="fill:none;stroke:#231f20;stroke-width:0.75;stroke-linecap:butt;stroke-linejoin:miter;stroke-miterlimit:1;stroke-dasharray:none;stroke-opacity:1"
         d="M 0,0 C 0,0 -18.868,-1.364 -27,-6.5 -36.5,-12.5 -38,-18 -38,-18" /></g><g
       transform="translate(196.802,110.171)"
       id="g122"><path
         id="path124"
         style="fill:#231f20;fill-opacity:1;fill-rule:nonzero;stroke:none"
         d="M 0,0 C 0.688,1.098 1.233,1.784 1.879,2.639 L -1.77,3.634 C -1.701,3.247 -1.526,1.701 -1.491,0.407 -1.454,-0.979 -1.505,-2.212 -1.617,-2.991 -1.317,-2.264 -0.735,-1.175 0,0" /></g></g></svg>