<?xml version="1.0" encoding="UTF-8" standalone="no"?>
<svg
   xmlns:dc="http://purl.org/dc/elements/1.1/"
   xmlns:cc="http://creativecommons.org/ns#"
   xmlns:rdf="http://www.w3.org/1999/02/22-rdf-syntax-ns#"
   xmlns:svg="http://www.w3.org/2000/svg"
   xmlns="http://www.w3.org/2000/svg"
   viewBox="0 0 441.81067 216.07201"
   height="216.07201"
   width="441.81067"
   xml:space="preserve"
   id="svg2"
   version="1.1"><metadata
     id="metadata8"><rdf:RDF><cc:Work
         rdf:about=""><dc:format>image/svg+xml</dc:format><dc:type
           rdf:resource="http://purl.org/dc/dcmitype/StillImage" /></cc:Work></rdf:RDF></metadata><defs
     id="defs6" /><g
     transform="matrix(1.3333333,0,0,-1.3333333,0,216.072)"
     id="g10"><text
       id="text14"
       style="font-variant:normal;font-weight:normal;font-stretch:normal;font-size:10px;font-family:Helvetica;-inkscape-font-specification:Helvetica;writing-mode:lr-tb;fill:#231f20;fill-opacity:1;fill-rule:nonzero;stroke:none"
       transform="matrix(1,0,0,-1,139.1622,148.2173)"><tspan
         id="tspan12"
         y="0"
         x="0 2.78 8.3400002 10.56 16.120001 19.35 24.91 30.469999 35.470001 41.029999 43.810001 48.66 54.220001 59.779999">tolerance zone</tspan></text>
<g
       transform="translate(273.671,33.853)"
       id="g16"><path
         id="path18"
         style="fill:none;stroke:#231f20;stroke-width:0.5;stroke-linecap:butt;stroke-linejoin:miter;stroke-miterlimit:1;stroke-dasharray:none;stroke-opacity:1"
         d="M 0,0 -69.529,17.8" /><g
         transform="translate(57.437,109.991)"
         id="g20"><path
           id="path22"
           style="fill:none;stroke:#231f20;stroke-width:0.5;stroke-linecap:butt;stroke-linejoin:miter;stroke-miterlimit:1;stroke-dasharray:none;stroke-opacity:1"
           d="M 0,0 -69.361,17.968" /></g></g><g
       transform="translate(273.671,103.877)"
       id="g24"><path
         id="path26"
         style="fill:none;stroke:#231f20;stroke-width:0.5;stroke-linecap:butt;stroke-linejoin:miter;stroke-miterlimit:1;stroke-dasharray:none;stroke-opacity:1"
         d="M 0,0 -69.529,17.8" /><g
         transform="translate(-11.924,57.935)"
         id="g28"><path
           id="path30"
           style="fill:none;stroke:#231f20;stroke-width:0.5;stroke-linecap:butt;stroke-linejoin:miter;stroke-miterlimit:1;stroke-dasharray:none;stroke-opacity:1"
           d="m 0,0 -10.245,-11.755 -1.847,-2.183 -1.344,-1.848 -1.68,-1.846 -1.006,-0.84 -1.176,-1.007 -1.176,-0.84 -1.343,-0.504 -3.024,-0.839 -1.679,-0.673 c -2.276,-1.194 -4.908,-3.584 -6.55,-5.541 l -0.672,-0.84 -0.839,-0.503 -1.512,-1.008 c -6.974,-3.436 -17.963,1.239 -22.505,-7.557 l -0.504,-1.007 -0.503,-1.343 v -70.025" /><g
           transform="translate(11.924,-127.959)"
           id="g32"><path
             id="path34"
             style="fill:none;stroke:#231f20;stroke-width:0.5;stroke-linecap:butt;stroke-linejoin:miter;stroke-miterlimit:1;stroke-dasharray:none;stroke-opacity:1"
             d="m 0,0 57.437,21.83 v 88.161 L 47.36,98.404 45.513,96.221 C 37.345,84.812 35.185,92.92 25.695,81.443 L 25.024,80.94 23.344,79.933 C 15.55,76.107 4.453,81.571 0.335,71.2 L 0,70.024 V 0" /></g></g></g><g
       transform="translate(85.643,35.518)"
       id="g36"><path
         id="path38"
         style="fill:none;stroke:#231f20;stroke-width:0.75;stroke-linecap:butt;stroke-linejoin:miter;stroke-miterlimit:1;stroke-dasharray:none;stroke-opacity:1"
         d="m 0,0 v 70.025 l 0.503,1.176 0.504,0.84 c 7.767,8.423 23.435,-5.821 32.581,0.671 l 0.672,0.336 0.84,0.504 0.671,0.336 c 5.018,1.964 6.706,1.47 11.757,1.175 h 0.84 l 0.839,0.168 c 3.15,0.544 5.648,2.628 8.23,4.366 l 0.672,0.504 0.671,0.336 12.596,7.724 0,-88.161 H 0" /></g><path
       id="path40"
       style="fill:none;stroke:#231f20;stroke-width:0.75;stroke-linecap:butt;stroke-linejoin:miter;stroke-miterlimit:1;stroke-dasharray:none;stroke-opacity:1"
       d="m 0.37502,123.646 h 69.5 V 35.518 h -69.5 z" /><g
       transform="translate(69.875,105.508)"
       id="g42"><path
         id="path44"
         style="fill:none;stroke:#231f20;stroke-width:0.75;stroke-linecap:butt;stroke-linejoin:miter;stroke-miterlimit:1;stroke-dasharray:none;stroke-opacity:1"
         d="M 0,0 H -69.5" /></g><path
       id="path46"
       style="fill:none;stroke:#231f20;stroke-width:0.5;stroke-linecap:butt;stroke-linejoin:miter;stroke-miterlimit:1;stroke-dasharray:4, 2;stroke-dashoffset:0;stroke-opacity:1"
       d="m 157.019,35.518 h 16.356 m -16.5,87.564 v 17" /><text
       id="text50"
       style="font-variant:normal;font-weight:normal;font-stretch:normal;font-size:10px;font-family:Helvetica;-inkscape-font-specification:Helvetica;writing-mode:lr-tb;fill:#231f20;fill-opacity:1;fill-rule:nonzero;stroke:none"
       transform="matrix(1,0,0,-1,159.6753,8.7569)"><tspan
         id="tspan48"
         y="0"
         x="0 3.3299999 8.8900003 11.37 16.93 20.26 25.82 31.379999 36.380001 41.939999 47.5 53.060001 58.619999 61.400002 66.959999">reference_datum</tspan></text>
<g
       transform="translate(116.375,34.334)"
       id="g52"><path
         id="path54"
         style="fill:#231f20;fill-opacity:1;fill-rule:nonzero;stroke:#231f20;stroke-width:1;stroke-linecap:butt;stroke-linejoin:miter;stroke-miterlimit:4;stroke-dasharray:none;stroke-opacity:1"
         d="M 0,0 V -16" /></g><path
       id="path56"
       style="fill:#231f20;fill-opacity:1;fill-rule:nonzero;stroke:#231f20;stroke-width:1;stroke-linecap:butt;stroke-linejoin:miter;stroke-miterlimit:4;stroke-dasharray:none;stroke-opacity:1"
       d="m 119.676,37.634 h -6.6015 v -6.6016 h 6.6015 z" /><path
       id="path58"
       style="fill:none;stroke:#231f20;stroke-width:1;stroke-linecap:butt;stroke-linejoin:miter;stroke-miterlimit:4;stroke-dasharray:none;stroke-opacity:1"
       d="m 125.625,0.49998 h -18.5 v 18 h 18.5 z" /><g
       transform="translate(157.609,54.067)"
       id="g60"><path
         id="path62"
         style="fill:#231f20;fill-opacity:1;fill-rule:nonzero;stroke:#231f20;stroke-width:1;stroke-linecap:butt;stroke-linejoin:miter;stroke-miterlimit:4;stroke-dasharray:none;stroke-opacity:1"
         d="M 0,0 H 16" /></g><g
       transform="translate(154.308,57.368)"
       id="g64"><path
         id="path66"
         style="fill:#231f20;fill-opacity:1;fill-rule:nonzero;stroke:#231f20;stroke-width:1;stroke-linecap:butt;stroke-linejoin:miter;stroke-miterlimit:4;stroke-dasharray:none;stroke-opacity:1"
         d="M 6.602,0 H 4e-4 V -6.6016 H 6.602 Z M 0,0 Z" /></g><g
       transform="translate(191.442,63.317)"
       id="g68"><path
         id="path70"
         style="fill:none;stroke:#231f20;stroke-width:1;stroke-linecap:butt;stroke-linejoin:miter;stroke-miterlimit:4;stroke-dasharray:none;stroke-opacity:1"
         d="M -18,0 H 0 v -18.5 h -18 z" /><g
         id="g72"><path
           id="path74"
           style="fill:none;stroke:#231f20;stroke-width:1;stroke-linecap:butt;stroke-linejoin:miter;stroke-miterlimit:4;stroke-dasharray:none;stroke-opacity:1"
           d="M 0,0 Z" /></g></g><text
       id="text80"
       style="font-variant:normal;font-weight:normal;font-stretch:normal;font-size:10px;font-family:Helvetica;-inkscape-font-specification:Helvetica;writing-mode:lr-tb;fill:#231f20;fill-opacity:1;fill-rule:nonzero;stroke:none"
       transform="matrix(1,0,0,-1,113.0401,5.5518)"><tspan
         id="tspan76"
         y="0"
         x="0">A</tspan><tspan
         id="tspan78"
         y="-44"
         x="65.5">B</tspan></text>
<g
       transform="translate(134.375,11.166)"
       id="g82"><path
         id="path84"
         style="fill:#231f20;fill-opacity:1;fill-rule:nonzero;stroke:#231f20;stroke-width:0.75;stroke-linecap:butt;stroke-linejoin:miter;stroke-miterlimit:4;stroke-dasharray:none;stroke-opacity:1"
         d="M 0,0 20.667,0.667" /></g><g
       transform="translate(132.629,10.34)"
       id="g86"><path
         id="path88"
         style="fill:#231f20;fill-opacity:1;fill-rule:nonzero;stroke:none"
         d="M 0,0 C 1.251,-0.335 2.068,-0.6534 3.075,-1.0205 L 2.953,2.761 C 2.603,2.58 1.177,1.959 -0.05,1.545 -1.363,1.101 -2.557,0.788 -3.334,0.666 -2.551,0.593 -1.339,0.357 0,0" /></g><g
       transform="translate(182.375,37.166)"
       id="g90"><path
         id="path92"
         style="fill:none;stroke:#231f20;stroke-width:0.75;stroke-linecap:butt;stroke-linejoin:miter;stroke-miterlimit:4;stroke-dasharray:none;stroke-opacity:1"
         d="M 0,0 C 0,0 2,-9.333 -3.333,-10 -8.666,-10.667 -16,-18 -16,-18" /></g><g
       transform="translate(181.253,38.736)"
       id="g94"><path
         id="path96"
         style="fill:#231f20;fill-opacity:1;fill-rule:nonzero;stroke:none"
         d="m 0,0 c -0.107,-1.291 -0.275,-2.151 -0.457,-3.208 l 3.699,0.793 C 3.002,-2.102 2.137,-0.81 1.511,0.324 0.841,1.538 0.321,2.657 0.062,3.399 0.13,2.616 0.114,1.382 0,0" /></g><path
       id="path98"
       style="fill:none;stroke:#231f20;stroke-width:0.75;stroke-linecap:butt;stroke-linejoin:miter;stroke-miterlimit:4;stroke-dasharray:none;stroke-opacity:1"
       d="M 90.644,141.486 H 10.922 v 17 h 79.722 z" /><text
       id="text102"
       style="font-variant:normal;font-weight:normal;font-stretch:normal;font-size:10px;font-family:Helvetica;-inkscape-font-specification:Helvetica;writing-mode:lr-tb;fill:#231f20;fill-opacity:1;fill-rule:nonzero;stroke:none"
       transform="matrix(1,0,0,-1,68.4484,146.4561)"><tspan
         id="tspan100"
         y="0"
         x="0 6.6700001 10 -31.790001 -26.23 -23.450001 -17.889999">A-B0.08</tspan></text>
<g
       transform="translate(30.867,158.319)"
       id="g104"><path
         id="path106"
         style="fill:none;stroke:#231f20;stroke-width:0.75;stroke-linecap:butt;stroke-linejoin:miter;stroke-miterlimit:4;stroke-dasharray:none;stroke-opacity:1"
         d="M 0,0 V -16.666" /><g
         transform="translate(33,-16.666)"
         id="g108"><path
           id="path110"
           style="fill:none;stroke:#231f20;stroke-width:0.75;stroke-linecap:butt;stroke-linejoin:miter;stroke-miterlimit:4;stroke-dasharray:none;stroke-opacity:1"
           d="M 0,0 V 16.666" /><g
           transform="translate(-49.751,5.009)"
           id="g112"><path
             id="path114"
             style="fill:none;stroke:#231f20;stroke-width:0.75;stroke-linecap:butt;stroke-linejoin:miter;stroke-miterlimit:4;stroke-dasharray:none;stroke-opacity:1"
             d="m 0,0 c 0,3.778 3.062,6.84 6.84,6.84 3.778,0 6.84,-3.062 6.84,-6.84" /></g></g></g><path
       id="path116"
       style="fill:none;stroke:#231f20;stroke-width:0.5;stroke-linecap:butt;stroke-linejoin:miter;stroke-miterlimit:1;stroke-dasharray:3;stroke-dashoffset:0;stroke-opacity:1"
       d="m 86.437,110.325 0.504,1.176 0.503,0.84 0.84,0.671 0.672,0.672 0.839,0.503 0.84,0.337 0.84,0.335 1.008,0.168 h 1.007 1.008 1.175 l 1.176,-0.168 1.008,-0.168 1.176,-0.167 2.351,-0.671 2.519,-0.672 2.351,-0.673 2.52,-0.503 1.175,-0.336 1.008,-0.168 1.175,-0.168 h 1.176 1.007 1.176 l 1.008,0.168 0.84,0.168 1.007,0.336 0.84,0.503 0.839,0.504 0.672,0.336 0.84,0.505 0.672,0.334 0.84,0.337 0.671,0.167 1.344,0.504 1.175,0.168 1.176,0.168 1.008,0.168 h 1.175 l 0.841,-0.168 h 1.007 l 1.679,-0.168 h 0.84 0.84 l 0.839,0.168 0.672,0.168 0.84,0.168 0.671,0.336 0.673,0.336 0.503,0.168 0.672,0.336 0.504,0.335 0.84,0.505 0.839,0.671 1.008,0.672 0.504,0.336 0.504,0.335 0.672,0.504 0.671,0.335 11.596,7.725" /><path
       id="path118"
       style="fill:none;stroke:#231f20;stroke-width:0.5;stroke-linecap:butt;stroke-linejoin:miter;stroke-miterlimit:1;stroke-dasharray:3;stroke-dashoffset:0;stroke-opacity:1"
       d="m 86.437,100.514 0.504,1.176 0.503,0.84 0.84,0.671 0.672,0.672 0.839,0.504 0.84,0.335 0.84,0.336 1.008,0.168 h 1.007 1.008 1.175 l 1.176,-0.168 1.008,-0.168 1.176,-0.168 2.351,-0.671 2.519,-0.671 2.351,-0.673 2.52,-0.503 1.175,-0.336 1.008,-0.168 1.175,-0.168 h 1.176 1.007 1.176 l 1.008,0.168 0.84,0.168 1.007,0.336 0.84,0.503 0.839,0.504 0.672,0.336 0.84,0.504 0.672,0.336 0.84,0.335 0.671,0.168 1.344,0.504 1.175,0.168 1.176,0.168 1.008,0.168 h 1.175 l 0.841,-0.168 h 1.007 l 1.679,-0.168 h 0.84 0.84 l 0.839,0.168 0.672,0.168 0.84,0.168 0.671,0.336 0.673,0.336 0.503,0.168 0.672,0.336 0.504,0.335 0.84,0.505 0.839,0.671 1.008,0.672 0.504,0.335 0.504,0.337 0.672,0.503 0.671,0.335 11.596,7.725" /><path
       id="path120"
       style="fill:none;stroke:#231f20;stroke-width:0.5;stroke-linecap:butt;stroke-linejoin:miter;stroke-miterlimit:1;stroke-dasharray:3;stroke-dashoffset:0;stroke-opacity:1"
       d="m 285.707,155.706 -8.244,-9.755 -1.848,-2.182 -1.344,-1.849 -1.679,-1.846 -1.007,-0.84 -1.176,-1.007 -1.176,-0.84 -1.343,-0.504 -3.024,-0.839 -1.679,-0.672 -1.847,-1.175 -1.176,-0.841 -1.008,-1.007 -1.343,-1.175 -1.176,-1.344 -0.671,-0.84 -0.84,-0.503 -1.512,-1.008 -1.846,-0.671 -1.68,-0.504 -2.016,-0.168 -1.847,-0.168 -3.863,-0.168 -2.015,-0.168 -1.848,-0.336 -1.68,-0.503 -1.679,-0.672 -1.511,-1.007 -0.672,-0.673 -0.672,-0.671 -0.672,-0.84 -0.504,-1.008 -0.503,-1.007 -1.504,-3.343 m 68.966,36.166 -10.077,-11.587 -1.847,-2.183 -1.512,-1.847 -1.512,-1.847 -1.007,-0.84 -1.175,-1.008 -1.344,-0.839 -1.343,-0.504 -2.855,-0.839 -1.68,-0.672 -2.015,-1.176 -1.009,-0.839 -1.175,-1.008 -1.175,-1.175 -1.344,-1.344 -0.672,-0.84 -0.672,-0.503 -1.679,-1.007 -1.679,-0.672 -1.848,-0.504 -1.847,-0.336 h -2.016 l -3.862,-0.336 h -1.848 l -1.847,-0.336 -1.847,-0.504 -1.68,-0.671 -1.511,-1.008 -0.672,-0.671 -0.671,-0.672 -0.504,-0.84 -0.672,-1.007 -0.504,-1.176 -0.336,-1.175" /><g
       transform="translate(292.304,154.71)"
       id="g122"><path
         id="path124"
         style="fill:none;stroke:#231f20;stroke-width:0.5;stroke-linecap:butt;stroke-linejoin:miter;stroke-miterlimit:1;stroke-dasharray:none;stroke-opacity:1"
         d="m 0,0 -10.077,-11.587 -1.848,-2.184 c -8.169,-11.41 -10.327,-3.299 -19.817,-14.777 l -0.672,-0.503 -1.68,-1.008 c -7.257,-3.655 -17.973,1.232 -22.504,-7.556 l -0.504,-1.176 -0.336,-1.176" /></g><g
       transform="translate(93.875,150.332)"
       id="g126"><path
         id="path128"
         style="fill:none;stroke:#231f20;stroke-width:0.75;stroke-linecap:butt;stroke-linejoin:miter;stroke-miterlimit:1;stroke-dasharray:none;stroke-opacity:1"
         d="M 0,0 H 11.5 L 34,-32" /></g><g
       transform="translate(129.523,117.325)"
       id="g130"><path
         id="path132"
         style="fill:#231f20;fill-opacity:1;fill-rule:nonzero;stroke:none"
         d="M 0,0 C -0.407,1.23 -0.588,2.087 -0.833,3.131 L -3.928,0.955 C -3.585,0.761 -2.284,-0.09 -1.264,-0.889 -0.173,-1.744 0.744,-2.571 1.272,-3.153 0.903,-2.458 0.436,-1.316 0,0" /></g><g
       transform="translate(266.375,143.832)"
       id="g134"><path
         id="path136"
         style="fill:none;stroke:#231f20;stroke-width:0.75;stroke-linecap:butt;stroke-linejoin:miter;stroke-miterlimit:1;stroke-dasharray:none;stroke-opacity:1"
         d="M 0,0 C 0,0 9.5,-2.5 -8.5,3 -26.5,8.5 -60,8 -60,8" /></g><g
       transform="translate(268.301,143.967)"
       id="g138"><path
         id="path140"
         style="fill:#231f20;fill-opacity:1;fill-rule:nonzero;stroke:none"
         d="M 0,0 C -1.044,0.766 -1.69,1.359 -2.495,2.067 L -3.754,-1.5 c 0.392,0.04 1.945,0.102 3.239,0.042 1.386,-0.063 2.612,-0.205 3.38,-0.373 C 2.162,-1.479 1.118,-0.819 0,0" /></g><g
       transform="translate(292.375,136.332)"
       id="g142"><path
         id="path144"
         style="fill:none;stroke:#231f20;stroke-width:0.75;stroke-linecap:butt;stroke-linejoin:miter;stroke-miterlimit:1;stroke-dasharray:none;stroke-opacity:1"
         d="M 0,0 10.5,-2.5" /></g><g
       transform="translate(290.474,135.995)"
       id="g146"><path
         id="path148"
         style="fill:#231f20;fill-opacity:1;fill-rule:nonzero;stroke:none"
         d="m 0,0 c 1.12,-0.652 1.824,-1.174 2.699,-1.792 l 0.876,3.68 C 3.19,1.806 1.651,1.581 0.358,1.503 -1.026,1.421 -2.26,1.433 -3.042,1.519 -2.305,1.243 -1.198,0.697 0,0" /></g></g></svg>