<?xml version="1.0" encoding="UTF-8" standalone="no"?>
<svg
   xmlns:dc="http://purl.org/dc/elements/1.1/"
   xmlns:cc="http://creativecommons.org/ns#"
   xmlns:rdf="http://www.w3.org/1999/02/22-rdf-syntax-ns#"
   xmlns:svg="http://www.w3.org/2000/svg"
   xmlns="http://www.w3.org/2000/svg"
   viewBox="0 0 477.556 168.87199"
   height="168.87199"
   width="477.556"
   xml:space="preserve"
   id="svg2"
   version="1.1"><metadata
     id="metadata8"><rdf:RDF><cc:Work
         rdf:about=""><dc:format>image/svg+xml</dc:format><dc:type
           rdf:resource="http://purl.org/dc/dcmitype/StillImage" /></cc:Work></rdf:RDF></metadata><defs
     id="defs6" /><g
     transform="matrix(1.3333333,0,0,-1.3333333,0,168.872)"
     id="g10"><text
       id="text16"
       style="font-variant:normal;font-weight:normal;font-stretch:normal;font-size:10px;font-family:Helvetica;-inkscape-font-specification:Helvetica;writing-mode:lr-tb;fill:#231f20;fill-opacity:1;fill-rule:nonzero;stroke:none"
       transform="matrix(1,0,0,-1,75.6202,112.3174)"><tspan
         id="tspan12"
         y="0"
         x="0 2.78 8.3400002 10.56 16.120001 19.35 24.91 30.469999 35.470001 41.029999 43.810001 48.66 54.220001 59.779999">tolerance zone</tspan><tspan
         id="tspan14"
         y="110.067"
         x="137.957 141.287 146.847 149.327 154.88699 158.217 163.77699 169.33701 174.33701 179.897 185.457 191.017 196.577 199.35699 204.91701">reference_datum</tspan></text>
<g
       transform="translate(68,72.932)"
       id="g18"><path
         id="path20"
         style="fill:none;stroke:#231f20;stroke-width:0.75;stroke-linecap:butt;stroke-linejoin:miter;stroke-miterlimit:4;stroke-dasharray:none;stroke-opacity:1"
         d="M 0,0 C 6.5,4.5 30.833,19.834 28.5,32.5" /></g><g
       transform="translate(67.997,75.547)"
       id="g22"><path
         id="path24"
         style="fill:#231f20;fill-opacity:1;fill-rule:nonzero;stroke:none"
         d="M 0,0 -5.445,-6.419 2.48,-3.582 0,0" /></g><path
       id="path26"
       style="fill:none;stroke:#231f20;stroke-width:0.5;stroke-linecap:butt;stroke-linejoin:miter;stroke-miterlimit:4;stroke-dasharray:12, 4;stroke-dashoffset:0;stroke-opacity:1"
       d="M 1.5e-5,62.321 H 358.167 M 53.723,7.9879 V 126.654" /><path
       id="path28"
       style="fill:none;stroke:#231f20;stroke-width:1;stroke-linecap:butt;stroke-linejoin:miter;stroke-miterlimit:4;stroke-dasharray:3;stroke-dashoffset:0;stroke-opacity:1"
       d="m 62.515,62.571 c 0,-4.856 -3.937,-8.792 -8.792,-8.792 -4.856,0 -8.792,3.936 -8.792,8.792 0,4.855 3.936,8.792 8.792,8.792 4.855,0 8.792,-3.937 8.792,-8.792 z" /><g
       transform="translate(98.723,62.571)"
       id="g30"><path
         id="path32"
         style="fill:none;stroke:#231f20;stroke-width:1;stroke-linecap:butt;stroke-linejoin:miter;stroke-miterlimit:4;stroke-dasharray:none;stroke-opacity:1"
         d="m 0,0 c 0,-24.853 -20.147,-45 -45,-45 -24.853,0 -45,20.147 -45,45 0,24.853 20.147,45 45,45 C -20.147,45 0,24.853 0,0 Z" /><g
         transform="translate(74.101,-18.25)"
         id="g34"><path
           id="path36"
           style="fill:none;stroke:#231f20;stroke-width:1;stroke-linecap:butt;stroke-linejoin:miter;stroke-miterlimit:4;stroke-dasharray:none;stroke-opacity:1"
           d="M 0,0 V 36" /><g
           transform="translate(121.686,36)"
           id="g38"><path
             id="path40"
             style="fill:none;stroke:#231f20;stroke-width:1;stroke-linecap:butt;stroke-linejoin:miter;stroke-miterlimit:4;stroke-dasharray:none;stroke-opacity:1"
             d="M 0,0 V -36" /><g
             id="g42"><path
               id="path44"
               style="fill:none;stroke:#231f20;stroke-width:1;stroke-linecap:butt;stroke-linejoin:miter;stroke-miterlimit:4;stroke-dasharray:none;stroke-opacity:1"
               d="M 0,0 V 27 H -121.686 V 0" /><g
               transform="translate(-121.686,-36)"
               id="g46"><path
                 id="path48"
                 style="fill:none;stroke:#231f20;stroke-width:1;stroke-linecap:butt;stroke-linejoin:miter;stroke-miterlimit:4;stroke-dasharray:none;stroke-opacity:1"
                 d="M 0,0 V -27 H 121.686 V 0" /></g></g></g></g></g><g
       transform="translate(341.61,61.994)"
       id="g50"><path
         id="path52"
         style="fill:#231f20;fill-opacity:1;fill-rule:nonzero;stroke:#231f20;stroke-width:1;stroke-linecap:butt;stroke-linejoin:miter;stroke-miterlimit:4;stroke-dasharray:none;stroke-opacity:1"
         d="M 0,0 V -16" /></g><path
       id="path54"
       style="fill:#231f20;fill-opacity:1;fill-rule:nonzero;stroke:#231f20;stroke-width:1;stroke-linecap:butt;stroke-linejoin:miter;stroke-miterlimit:4;stroke-dasharray:none;stroke-opacity:1"
       d="m 344.911,65.294 h -6.6015 v -6.6016 h 6.6015 z" /><path
       id="path56"
       style="fill:none;stroke:#231f20;stroke-width:1;stroke-linecap:butt;stroke-linejoin:miter;stroke-miterlimit:4;stroke-dasharray:none;stroke-opacity:1"
       d="m 350.86,28.16 h -18.5 v 18 h 18.5 z" /><text
       id="text60"
       style="font-variant:normal;font-weight:normal;font-stretch:normal;font-size:10px;font-family:Helvetica;-inkscape-font-specification:Helvetica;writing-mode:lr-tb;fill:#231f20;fill-opacity:1;fill-rule:nonzero;stroke:none"
       transform="matrix(1,0,0,-1,338.4151,33.1299)"><tspan
         id="tspan58"
         y="0"
         x="0">A</tspan></text>
<g
       transform="translate(40.5,51.432)"
       id="g62"><path
         id="path64"
         style="fill:none;stroke:#231f20;stroke-width:0.75;stroke-linecap:butt;stroke-linejoin:miter;stroke-miterlimit:4;stroke-dasharray:none;stroke-opacity:1"
         d="M 0,0 -6.5,-4.5" /></g><g
       transform="translate(40.503,48.817)"
       id="g66"><path
         id="path68"
         style="fill:#231f20;fill-opacity:1;fill-rule:nonzero;stroke:none"
         d="M 0,0 5.445,6.419 -2.48,3.582 0,0" /></g><g
       transform="translate(293.5,5.4321)"
       id="g70"><path
         id="path72"
         style="fill:none;stroke:#231f20;stroke-width:0.75;stroke-linecap:butt;stroke-linejoin:miter;stroke-miterlimit:4;stroke-dasharray:none;stroke-opacity:1"
         d="M 0,0 C 17,2 30.5,13 30.5,13" /></g><g
       transform="translate(323.989,15.817)"
       id="g74"><path
         id="path76"
         style="fill:#231f20;fill-opacity:1;fill-rule:nonzero;stroke:none"
         d="M 0,0 5.48,6.389 -2.461,3.596 0,0" /></g></g></svg>