<?xml version="1.0" encoding="UTF-8" standalone="no"?>
<svg
   xmlns:dc="http://purl.org/dc/elements/1.1/"
   xmlns:cc="http://creativecommons.org/ns#"
   xmlns:rdf="http://www.w3.org/1999/02/22-rdf-syntax-ns#"
   xmlns:svg="http://www.w3.org/2000/svg"
   xmlns="http://www.w3.org/2000/svg"
   viewBox="0 0 477.556 180.85333"
   height="180.85333"
   width="477.556"
   xml:space="preserve"
   id="svg2"
   version="1.1"><metadata
     id="metadata8"><rdf:RDF><cc:Work
         rdf:about=""><dc:format>image/svg+xml</dc:format><dc:type
           rdf:resource="http://purl.org/dc/dcmitype/StillImage" /></cc:Work></rdf:RDF></metadata><defs
     id="defs6" /><g
     transform="matrix(1.3333333,0,0,-1.3333333,0,180.85333)"
     id="g10"><text
       id="text14"
       style="font-variant:normal;font-weight:normal;font-stretch:normal;font-size:10px;font-family:Helvetica;-inkscape-font-specification:Helvetica;writing-mode:lr-tb;fill:#231f20;fill-opacity:1;fill-rule:nonzero;stroke:none"
       transform="matrix(1,0,0,-1,54.2872,126.3296)"><tspan
         id="tspan12"
         y="0"
         x="0 2.78 8.3400002 10.56 16.120001 19.35 24.91 30.469999 35.470001 41.029999 43.810001 48.66 54.220001 59.779999">tolerance zone</tspan></text>
<path
       id="path16"
       style="fill:none;stroke:#231f20;stroke-width:0.75;stroke-linecap:butt;stroke-linejoin:miter;stroke-miterlimit:4;stroke-dasharray:none;stroke-opacity:1"
       d="m 291.246,114.611 h -50.992 v 17 h 50.992 z" /><text
       id="text20"
       style="font-variant:normal;font-weight:normal;font-stretch:normal;font-size:10px;font-family:Helvetica;-inkscape-font-specification:Helvetica;writing-mode:lr-tb;fill:#231f20;fill-opacity:1;fill-rule:nonzero;stroke:none"
       transform="matrix(1,0,0,-1,266.125,119.5803)"><tspan
         id="tspan18"
         y="0"
         x="0 5.5599999 8.3400002 13.9">0.04</tspan></text>
<g
       transform="translate(260.333,131.444)"
       id="g22"><path
         id="path24"
         style="fill:none;stroke:#231f20;stroke-width:0.75;stroke-linecap:butt;stroke-linejoin:miter;stroke-miterlimit:4;stroke-dasharray:none;stroke-opacity:1"
         d="M 0,0 V -16.666" /><g
         transform="translate(-22.667,-8.772)"
         id="g26"><path
           id="path28"
           style="fill:none;stroke:#231f20;stroke-width:0.75;stroke-linecap:butt;stroke-linejoin:miter;stroke-miterlimit:4;stroke-dasharray:none;stroke-opacity:1"
           d="M 0,0 H -10.333 L -36.667,-17" /></g></g><g
       transform="translate(201.082,108.286)"
       id="g30"><path
         id="path32"
         style="fill:#231f20;fill-opacity:1;fill-rule:nonzero;stroke:none"
         d="M 0,0 -5.649,-6.24 2.363,-3.661 0,0" /></g><path
       id="path34"
       style="fill:none;stroke:#231f20;stroke-width:0.5;stroke-linecap:butt;stroke-linejoin:miter;stroke-miterlimit:4;stroke-dasharray:12, 4;stroke-dashoffset:0;stroke-opacity:1"
       d="M 1.5e-5,54.333 H 358.167 M 53.889,0 v 118.667" /><g
       transform="translate(97.089,54.333)"
       id="g36"><path
         id="path38"
         style="fill:none;stroke:#231f20;stroke-width:1;stroke-linecap:butt;stroke-linejoin:miter;stroke-miterlimit:4;stroke-dasharray:none;stroke-opacity:1"
         d="m 0,0 c 0,-25.847 -19.342,-46.8 -43.2,-46.8 -23.859,0 -43.2,20.953 -43.2,46.8 0,25.847 19.341,46.8 43.2,46.8 C -19.342,46.8 0,25.847 0,0 Z" /></g><path
       id="path40"
       style="fill:none;stroke:#231f20;stroke-width:0.5;stroke-linecap:butt;stroke-linejoin:miter;stroke-miterlimit:4;stroke-dasharray:3;stroke-dashoffset:0;stroke-opacity:1"
       d="m 93.489,54.333 c 0,-21.87 -17.729,-39.6 -39.6,-39.6 -21.87,0 -39.6,17.73 -39.6,39.6 0,21.871 17.73,39.6 39.6,39.6 21.871,0 39.6,-17.729 39.6,-39.6 z m 10.8,0 c 0,-27.836 -22.565,-50.4 -50.4,-50.4 -27.835,0 -50.3997,22.564 -50.3997,50.4 0,27.835 22.5647,50.4 50.3997,50.4 27.835,0 50.4,-22.565 50.4,-50.4 z" /><g
       transform="translate(254.815,122.56)"
       id="g42"><path
         id="path44"
         style="fill:none;stroke:#231f20;stroke-width:0.75;stroke-linecap:butt;stroke-linejoin:miter;stroke-miterlimit:4;stroke-dasharray:none;stroke-opacity:1"
         d="M 0,0 C 0,-2.485 -2.015,-4.5 -4.5,-4.5 -6.985,-4.5 -9,-2.485 -9,0 -9,2.485 -6.985,4.5 -4.5,4.5 -2.015,4.5 0,2.485 0,0 Z" /></g><g
       transform="translate(313,9.311)"
       id="g46"><path
         id="path48"
         style="fill:none;stroke:#231f20;stroke-width:1;stroke-linecap:butt;stroke-linejoin:miter;stroke-miterlimit:4;stroke-dasharray:none;stroke-opacity:1"
         d="M 0,0 H -163.333 V 90.6 L 0,90.593 Z" /></g><path
       id="path50"
       style="fill:none;stroke:#231f20;stroke-width:0.5;stroke-linecap:butt;stroke-linejoin:miter;stroke-miterlimit:4;stroke-dasharray:3;stroke-dashoffset:0;stroke-opacity:1"
       d="m 149.056,93.933 h 164.277 m -163.944,10.8 h 163.778" /><g
       transform="translate(77.5,75.444)"
       id="g52"><path
         id="path54"
         style="fill:none;stroke:#231f20;stroke-width:0.75;stroke-linecap:butt;stroke-linejoin:miter;stroke-miterlimit:4;stroke-dasharray:none;stroke-opacity:1"
         d="M 0,0 -8,-6.5" /></g><g
       transform="translate(78.39,77.158)"
       id="g56"><path
         id="path58"
         style="fill:#231f20;fill-opacity:1;fill-rule:nonzero;stroke:none"
         d="m 0,0 c -1.199,-0.491 -2.042,-0.731 -3.065,-1.049 l 2.385,-2.936 c 0.17,0.356 0.929,1.713 1.655,2.785 0.777,1.149 1.538,2.12 2.082,2.688 C 2.39,1.072 1.283,0.526 0,0" /></g><g
       transform="translate(97.5,91.944)"
       id="g60"><path
         id="path62"
         style="fill:none;stroke:#231f20;stroke-width:0.75;stroke-linecap:butt;stroke-linejoin:miter;stroke-miterlimit:4;stroke-dasharray:none;stroke-opacity:1"
         d="m 0,0 18.5,15 c 10,8.5 -2,15 -2,15" /></g><g
       transform="translate(96.608,90.231)"
       id="g64"><path
         id="path66"
         style="fill:#231f20;fill-opacity:1;fill-rule:nonzero;stroke:none"
         d="M 0,0 C 1.199,0.49 2.042,0.73 3.066,1.046 L 0.684,3.985 C 0.514,3.629 -0.246,2.272 -0.974,1.201 -1.752,0.054 -2.514,-0.917 -3.059,-1.485 -2.391,-1.069 -1.283,-0.524 0,0" /></g><path
       id="path68"
       style="fill:none;stroke:#231f20;stroke-width:0.5;stroke-linecap:butt;stroke-linejoin:miter;stroke-miterlimit:4;stroke-dasharray:3;stroke-dashoffset:0;stroke-opacity:1"
       d="M 149.861,3.5444 H 312.639 M 149.194,14.344 h 163.779" /></g></svg>