<?xml version="1.0" encoding="UTF-8" standalone="no"?>
<svg
   xmlns:dc="http://purl.org/dc/elements/1.1/"
   xmlns:cc="http://creativecommons.org/ns#"
   xmlns:rdf="http://www.w3.org/1999/02/22-rdf-syntax-ns#"
   xmlns:svg="http://www.w3.org/2000/svg"
   xmlns="http://www.w3.org/2000/svg"
   viewBox="0 0 424.59332 113.83333"
   height="113.83333"
   width="424.59332"
   xml:space="preserve"
   id="svg2"
   version="1.1"><metadata
     id="metadata8"><rdf:RDF><cc:Work
         rdf:about=""><dc:format>image/svg+xml</dc:format><dc:type
           rdf:resource="http://purl.org/dc/dcmitype/StillImage" /></cc:Work></rdf:RDF></metadata><defs
     id="defs6" /><g
     transform="matrix(1.3333333,0,0,-1.3333333,0,113.83333)"
     id="g10"><text
       id="text14"
       style="font-variant:normal;font-weight:normal;font-stretch:normal;font-size:10px;font-family:Helvetica;-inkscape-font-specification:Helvetica;writing-mode:lr-tb;fill:#231f20;fill-opacity:1;fill-rule:nonzero;stroke:none"
       transform="matrix(1,0,0,-1,204.0928,64.2188)"><tspan
         id="tspan12"
         y="0"
         x="0 2.78 8.3400002 10.56 16.120001 19.35 24.91 30.469999 35.470001 41.029999 43.810001 48.66 54.220001 59.779999">tolerance zone</tspan></text>
<path
       id="path16"
       style="fill:none;stroke:#231f20;stroke-width:0.75;stroke-linecap:butt;stroke-linejoin:miter;stroke-miterlimit:4;stroke-dasharray:none;stroke-opacity:1"
       d="M 86.218,68 H 35.226 v 17 h 50.992 z" /><text
       id="text20"
       style="font-variant:normal;font-weight:normal;font-stretch:normal;font-size:10px;font-family:Helvetica;-inkscape-font-specification:Helvetica;writing-mode:lr-tb;fill:#231f20;fill-opacity:1;fill-rule:nonzero;stroke:none"
       transform="matrix(1,0,0,-1,61.0972,72.9692)"><tspan
         id="tspan18"
         y="0"
         x="0 5.5599999 8.3400002 13.9">0.02</tspan></text>
<g
       transform="translate(55.306,84.833)"
       id="g22"><path
         id="path24"
         style="fill:none;stroke:#231f20;stroke-width:0.75;stroke-linecap:butt;stroke-linejoin:miter;stroke-miterlimit:4;stroke-dasharray:none;stroke-opacity:1"
         d="M 0,0 V -16.666" /></g><path
       id="path26"
       style="fill:none;stroke:#231f20;stroke-width:0.5;stroke-linecap:butt;stroke-linejoin:miter;stroke-miterlimit:4;stroke-dasharray:3;stroke-dashoffset:0;stroke-opacity:1"
       d="M 0,17.434 H 316.499 M 0,28.233 h 318.445" /><g
       transform="translate(245.708,18.667)"
       id="g28"><path
         id="path30"
         style="fill:none;stroke:#231f20;stroke-width:0.75;stroke-linecap:butt;stroke-linejoin:miter;stroke-miterlimit:4;stroke-dasharray:none;stroke-opacity:1"
         d="M 0,0 C -2,0.667 -26.667,4.667 -67.333,5.333 -108,6 -90,2 -125.333,2 c -35.333,0 -27.334,5.333 -63.334,5.333 -36,0 -56.666,-6.666 -56.666,-6.666 v 21.666 c 0,0 20.666,6.667 56.666,6.667 36,0 28.001,-5.334 63.334,-5.334 35.333,0 17.333,3.999 58,3.334 C -26.667,26.333 -2,22.333 0,21.667 Z" /></g><g
       transform="translate(299.472,10.667)"
       id="g32"><path
         id="path34"
         style="fill:#231f20;fill-opacity:1;fill-rule:nonzero;stroke:#231f20;stroke-width:0.75;stroke-linecap:butt;stroke-linejoin:miter;stroke-miterlimit:4;stroke-dasharray:none;stroke-opacity:1"
         d="M 0,0 V -10.667" /></g><g
       transform="translate(298.704,12.438)"
       id="g36"><path
         id="path38"
         style="fill:#231f20;fill-opacity:1;fill-rule:nonzero;stroke:none"
         d="M 0,0 C -0.375,-1.24 -0.72,-2.046 -1.119,-3.0404 H 2.665 C 2.495,-2.6851 1.92,-1.24 1.546,0 1.145,1.327 0.87,2.53 0.772,3.311 0.675,2.53 0.4,1.327 0,0" /></g><g
       transform="translate(299.806,36)"
       id="g40"><path
         id="path42"
         style="fill:none;stroke:#231f20;stroke-width:0.75;stroke-linecap:butt;stroke-linejoin:miter;stroke-miterlimit:4;stroke-dasharray:none;stroke-opacity:1"
         d="m 0,0 c 0,0 0.917,13.062 -4,21.667 -6.667,11.667 -22,9.666 -22,9.666" /></g><g
       transform="translate(300.448,34.179)"
       id="g44"><path
         id="path46"
         style="fill:#231f20;fill-opacity:1;fill-rule:nonzero;stroke:none"
         d="M 0,0 C 0.461,1.21 0.861,1.991 1.329,2.955 L -2.445,3.22 c 0.144,-0.368 0.617,-1.849 0.903,-3.112 0.307,-1.352 0.497,-2.571 0.539,-3.356 C -0.85,-2.477 -0.493,-1.296 0,0" /></g><g
       transform="translate(38.472,76.834)"
       id="g48"><path
         id="path50"
         style="fill:none;stroke:#231f20;stroke-width:0.75;stroke-linecap:butt;stroke-linejoin:miter;stroke-miterlimit:4;stroke-dasharray:none;stroke-opacity:1"
         d="M 0,0 H 14" /><g
         transform="translate(51,0.5)"
         id="g52"><path
           id="path54"
           style="fill:none;stroke:#231f20;stroke-width:0.75;stroke-linecap:butt;stroke-linejoin:miter;stroke-miterlimit:4;stroke-dasharray:none;stroke-opacity:1"
           d="M 0,0 H 27.5 L 53,-27.5" /></g></g><g
       transform="translate(144.24,49.057)"
       id="g56"><path
         id="path58"
         style="fill:#231f20;fill-opacity:1;fill-rule:nonzero;stroke:none"
         d="M 0,0 C -0.568,1.164 -0.864,1.99 -1.247,2.99 L -4.021,0.418 c 0.366,-0.146 1.77,-0.814 2.888,-1.469 1.196,-0.7 2.215,-1.396 2.818,-1.902 C 1.226,-2.314 0.608,-1.246 0,0" /></g></g></svg>