<?xml version="1.0" encoding="UTF-8" standalone="no"?>
<svg
   xmlns:dc="http://purl.org/dc/elements/1.1/"
   xmlns:cc="http://creativecommons.org/ns#"
   xmlns:rdf="http://www.w3.org/1999/02/22-rdf-syntax-ns#"
   xmlns:svg="http://www.w3.org/2000/svg"
   xmlns="http://www.w3.org/2000/svg"
   viewBox="0 0 477.556 199.29733"
   height="199.29733"
   width="477.556"
   xml:space="preserve"
   id="svg2"
   version="1.1"><metadata
     id="metadata8"><rdf:RDF><cc:Work
         rdf:about=""><dc:format>image/svg+xml</dc:format><dc:type
           rdf:resource="http://purl.org/dc/dcmitype/StillImage" /></cc:Work></rdf:RDF></metadata><defs
     id="defs6" /><g
     transform="matrix(1.3333333,0,0,-1.3333333,0,199.29733)"
     id="g10"><text
       id="text16"
       style="font-variant:normal;font-weight:normal;font-stretch:normal;font-size:10px;font-family:Helvetica;-inkscape-font-specification:Helvetica;writing-mode:lr-tb;fill:#231f20;fill-opacity:1;fill-rule:nonzero;stroke:none"
       transform="matrix(1,0,0,-1,80.6202,135.3174)"><tspan
         id="tspan12"
         y="0"
         x="0 2.78 8.3400002 10.56 16.120001 19.35 24.91 30.469999 35.470001 41.029999 43.810001 48.66 54.220001 59.779999">tolerance zone</tspan><tspan
         id="tspan14"
         y="133.067"
         x="115.957 119.287 124.847 127.327 132.88699 136.217 141.77699 147.33701 152.33701 157.897 163.457 169.017 174.577 177.35699 182.91701">reference_datum</tspan></text>
<path
       id="path18"
       style="fill:none;stroke:#231f20;stroke-width:0.75;stroke-linecap:butt;stroke-linejoin:miter;stroke-miterlimit:4;stroke-dasharray:none;stroke-opacity:1"
       d="m 320.067,132.098 h -88.135 v 17 h 88.135 z" /><text
       id="text22"
       style="font-variant:normal;font-weight:normal;font-stretch:normal;font-size:10px;font-family:Helvetica;-inkscape-font-specification:Helvetica;writing-mode:lr-tb;fill:#231f20;fill-opacity:1;fill-rule:nonzero;stroke:none"
       transform="matrix(1,0,0,-1,297.9152,137.0681)"><tspan
         id="tspan20"
         y="0"
         x="0 6.6700001 10 -31.790001 -26.23 -23.450001 -17.889999">A-B0.08</tspan></text>
<g
       transform="translate(260.333,148.931)"
       id="g24"><path
         id="path26"
         style="fill:none;stroke:#231f20;stroke-width:0.75;stroke-linecap:butt;stroke-linejoin:miter;stroke-miterlimit:4;stroke-dasharray:none;stroke-opacity:1"
         d="M 0,0 V -16.666" /><g
         transform="translate(33,-16.666)"
         id="g28"><path
           id="path30"
           style="fill:none;stroke:#231f20;stroke-width:0.75;stroke-linecap:butt;stroke-linejoin:miter;stroke-miterlimit:4;stroke-dasharray:none;stroke-opacity:1"
           d="M 0,0 V 16.666" /><g
           transform="translate(-49.075,2.47)"
           id="g32"><path
             id="path34"
             style="fill:none;stroke:#231f20;stroke-width:0.75;stroke-linecap:butt;stroke-linejoin:miter;stroke-miterlimit:4;stroke-dasharray:none;stroke-opacity:1"
             d="M 0,0 7.751,7.417" /><g
             transform="translate(9.087,5.752)"
             id="g36"><path
               id="path38"
               style="fill:none;stroke:#231f20;stroke-width:0.75;stroke-linecap:butt;stroke-linejoin:miter;stroke-miterlimit:4;stroke-dasharray:none;stroke-opacity:1"
               d="M 0,0 2.57,5.424 -3.02,3.141 Z" /><g
               transform="translate(-152.846,-36.056)"
               id="g40"><path
                 id="path42"
                 style="fill:none;stroke:#231f20;stroke-width:0.75;stroke-linecap:butt;stroke-linejoin:miter;stroke-miterlimit:4;stroke-dasharray:none;stroke-opacity:1"
                 d="M 0,0 C 6.5,4.5 12.241,12.366 9.908,25.032" /></g></g></g></g></g><g
       transform="translate(100.497,107.047)"
       id="g44"><path
         id="path46"
         style="fill:#231f20;fill-opacity:1;fill-rule:nonzero;stroke:none"
         d="M 0,0 -5.445,-6.419 2.48,-3.582 0,0" /></g><path
       id="path48"
       style="fill:none;stroke:#231f20;stroke-width:0.5;stroke-linecap:butt;stroke-linejoin:miter;stroke-miterlimit:4;stroke-dasharray:12, 4;stroke-dashoffset:0;stroke-opacity:1"
       d="M 1.5e-5,71.821 H 358.167" /><path
       id="path50"
       style="fill:none;stroke:#231f20;stroke-width:0.5;stroke-linecap:butt;stroke-linejoin:miter;stroke-miterlimit:4;stroke-dasharray:12, 4;stroke-dashoffset:0;stroke-opacity:1"
       d="M 53.889,17.488 V 136.154" /><g
       transform="translate(71.889,71.821)"
       id="g52"><path
         id="path54"
         style="fill:none;stroke:#231f20;stroke-width:1;stroke-linecap:butt;stroke-linejoin:miter;stroke-miterlimit:4;stroke-dasharray:none;stroke-opacity:1"
         d="m 0,0 c 0,-9.941 -8.059,-18 -18,-18 -9.941,0 -18,8.059 -18,18 0,9.941 8.059,18 18,18 C -8.059,18 0,9.941 0,0 Z" /><g
         transform="translate(27)"
         id="g56"><path
           id="path58"
           style="fill:none;stroke:#231f20;stroke-width:1;stroke-linecap:butt;stroke-linejoin:miter;stroke-miterlimit:4;stroke-dasharray:none;stroke-opacity:1"
           d="m 0,0 c 0,-24.853 -20.147,-45 -45,-45 -24.853,0 -45,20.147 -45,45 0,24.853 20.147,45 45,45 C -20.147,45 0,24.853 0,0 Z" /><g
           transform="translate(36.422,18)"
           id="g60"><path
             id="path62"
             style="fill:none;stroke:#231f20;stroke-width:1;stroke-linecap:butt;stroke-linejoin:miter;stroke-miterlimit:4;stroke-dasharray:none;stroke-opacity:1"
             d="M 37.513,0 H 0 v -36 h 37.513 z" /><g
             id="g64"><path
               id="path66"
               style="fill:none;stroke:#231f20;stroke-width:1;stroke-linecap:butt;stroke-linejoin:miter;stroke-miterlimit:4;stroke-dasharray:none;stroke-opacity:1"
               d="M 0,0 Z" /><g
               transform="translate(159.198)"
               id="g68"><path
                 id="path70"
                 style="fill:none;stroke:#231f20;stroke-width:1;stroke-linecap:butt;stroke-linejoin:miter;stroke-miterlimit:4;stroke-dasharray:none;stroke-opacity:1"
                 d="M 37.513,0 H 0 v -36 h 37.513 z" /><g
                 id="g72"><path
                   id="path74"
                   style="fill:none;stroke:#231f20;stroke-width:1;stroke-linecap:butt;stroke-linejoin:miter;stroke-miterlimit:4;stroke-dasharray:none;stroke-opacity:1"
                   d="M 0,0 Z" /><g
                   id="g76"><path
                     id="path78"
                     style="fill:none;stroke:#231f20;stroke-width:1;stroke-linecap:butt;stroke-linejoin:miter;stroke-miterlimit:4;stroke-dasharray:none;stroke-opacity:1"
                     d="M 0,0 V 27 H -121.686 V 0" /><g
                     transform="translate(-121.686,-36)"
                     id="g80"><path
                       id="path82"
                       style="fill:none;stroke:#231f20;stroke-width:1;stroke-linecap:butt;stroke-linejoin:miter;stroke-miterlimit:4;stroke-dasharray:none;stroke-opacity:1"
                       d="M 0,0 V -27 H 121.686 V 0" /></g></g></g></g></g></g></g></g><g
       transform="translate(146.61,53.994)"
       id="g84"><path
         id="path86"
         style="fill:#231f20;fill-opacity:1;fill-rule:nonzero;stroke:#231f20;stroke-width:1;stroke-linecap:butt;stroke-linejoin:miter;stroke-miterlimit:4;stroke-dasharray:none;stroke-opacity:1"
         d="M 0,0 V -16" /></g><path
       id="path88"
       style="fill:#231f20;fill-opacity:1;fill-rule:nonzero;stroke:#231f20;stroke-width:1;stroke-linecap:butt;stroke-linejoin:miter;stroke-miterlimit:4;stroke-dasharray:none;stroke-opacity:1"
       d="m 149.911,57.294 h -6.6015 v -6.6016 h 6.6015 z" /><path
       id="path90"
       style="fill:none;stroke:#231f20;stroke-width:1;stroke-linecap:butt;stroke-linejoin:miter;stroke-miterlimit:4;stroke-dasharray:none;stroke-opacity:1"
       d="m 155.86,20.16 h -18.5 v 18 h 18.5 z" /><text
       id="text94"
       style="font-variant:normal;font-weight:normal;font-stretch:normal;font-size:10px;font-family:Helvetica;-inkscape-font-specification:Helvetica;writing-mode:lr-tb;fill:#231f20;fill-opacity:1;fill-rule:nonzero;stroke:none"
       transform="matrix(1,0,0,-1,143.4151,25.1299)"><tspan
         id="tspan92"
         y="0"
         x="0">A</tspan></text>
<g
       transform="translate(316.11,53.494)"
       id="g96"><path
         id="path98"
         style="fill:#231f20;fill-opacity:1;fill-rule:nonzero;stroke:#231f20;stroke-width:1;stroke-linecap:butt;stroke-linejoin:miter;stroke-miterlimit:4;stroke-dasharray:none;stroke-opacity:1"
         d="M 0,0 V -16" /></g><path
       id="path100"
       style="fill:#231f20;fill-opacity:1;fill-rule:nonzero;stroke:#231f20;stroke-width:1;stroke-linecap:butt;stroke-linejoin:miter;stroke-miterlimit:4;stroke-dasharray:none;stroke-opacity:1"
       d="m 319.411,56.794 h -6.6015 v -6.6016 h 6.6015 z" /><path
       id="path102"
       style="fill:none;stroke:#231f20;stroke-width:1;stroke-linecap:butt;stroke-linejoin:miter;stroke-miterlimit:4;stroke-dasharray:none;stroke-opacity:1"
       d="m 325.36,19.66 h -18.5 v 18 h 18.5 z" /><text
       id="text106"
       style="font-variant:normal;font-weight:normal;font-stretch:normal;font-size:10px;font-family:Helvetica;-inkscape-font-specification:Helvetica;writing-mode:lr-tb;fill:#231f20;fill-opacity:1;fill-rule:nonzero;stroke:none"
       transform="matrix(1,0,0,-1,312.9151,24.6299)"><tspan
         id="tspan104"
         y="0"
         x="0">B</tspan></text>
<path
       id="path108"
       style="fill:none;stroke:#231f20;stroke-width:0.5;stroke-linecap:butt;stroke-linejoin:miter;stroke-miterlimit:4;stroke-dasharray:4;stroke-dashoffset:0;stroke-opacity:1"
       d="m 95.289,71.821 c 0,-22.864 -18.535,-41.4 -41.4,-41.4 -22.865,0 -41.4,18.536 -41.4,41.4 0,22.865 18.535,41.4 41.4,41.4 22.865,0 41.4,-18.535 41.4,-41.4 z m 7.2,0 c 0,-26.841 -21.759,-48.6 -48.6,-48.6 -26.841,0 -48.5999,21.759 -48.5999,48.6 0,26.841 21.7589,48.6 48.5999,48.6 26.841,0 48.6,-21.759 48.6,-48.6 z" /><g
       transform="translate(81.5,90.932)"
       id="g110"><path
         id="path112"
         style="fill:none;stroke:#231f20;stroke-width:0.75;stroke-linecap:butt;stroke-linejoin:miter;stroke-miterlimit:4;stroke-dasharray:none;stroke-opacity:1"
         d="M 0,0 -6.5,-4.5" /></g><g
       transform="translate(81.503,88.317)"
       id="g114"><path
         id="path116"
         style="fill:#231f20;fill-opacity:1;fill-rule:nonzero;stroke:none"
         d="M 0,0 5.445,6.419 -2.48,3.582 0,0" /></g><g
       transform="translate(275.5,5.9321)"
       id="g118"><path
         id="path120"
         style="fill:none;stroke:#231f20;stroke-width:0.75;stroke-linecap:butt;stroke-linejoin:miter;stroke-miterlimit:4;stroke-dasharray:none;stroke-opacity:1"
         d="M 0,0 C 17,2 21.5,6.5 21.5,6.5" /></g><g
       transform="translate(296.989,9.8169)"
       id="g122"><path
         id="path124"
         style="fill:#231f20;fill-opacity:1;fill-rule:nonzero;stroke:none"
         d="M 0,0 5.48,6.389 -2.461,3.596 0,0" /></g><g
       transform="translate(193.5,6.4321)"
       id="g126"><path
         id="path128"
         style="fill:none;stroke:#231f20;stroke-width:0.75;stroke-linecap:butt;stroke-linejoin:miter;stroke-miterlimit:4;stroke-dasharray:none;stroke-opacity:1"
         d="M 0,0 C 0,0 -10,-1 -27.5,9" /></g><g
       transform="translate(168.358,16.563)"
       id="g130"><path
         id="path132"
         style="fill:#231f20;fill-opacity:1;fill-rule:nonzero;stroke:none"
         d="M 0,0 -8.14,2.142 -2.162,-3.783 0,0" /></g><g
       transform="translate(235.921,134.736)"
       id="g134"><path
         id="path136"
         style="fill:none;stroke:#231f20;stroke-width:0.75;stroke-linecap:butt;stroke-linejoin:miter;stroke-miterlimit:4;stroke-dasharray:none;stroke-opacity:1"
         d="M 0,0 7.751,7.417" /><g
         transform="translate(9.087,5.752)"
         id="g138"><path
           id="path140"
           style="fill:none;stroke:#231f20;stroke-width:0.75;stroke-linecap:butt;stroke-linejoin:miter;stroke-miterlimit:4;stroke-dasharray:none;stroke-opacity:1"
           d="M 0,0 2.57,5.424 -3.02,3.141 Z" /></g></g><path
       id="path142"
       style="fill:none;stroke:#231f20;stroke-width:0.5;stroke-linecap:butt;stroke-linejoin:miter;stroke-miterlimit:4;stroke-dasharray:3;stroke-dashoffset:0;stroke-opacity:1"
       d="M 152.889,120.421 H 303 m -150.111,-7.2 H 303 M 164.194,30.532 h 138.112 m -138.112,-7.2 h 138.112" /><g
       transform="translate(230,140.932)"
       id="g144"><path
         id="path146"
         style="fill:none;stroke:#231f20;stroke-width:0.75;stroke-linecap:butt;stroke-linejoin:miter;stroke-miterlimit:4;stroke-dasharray:none;stroke-opacity:1"
         d="M 0,0 H -16.5 L -27,-18" /></g><g
       transform="translate(202.772,121.015)"
       id="g148"><path
         id="path150"
         style="fill:#231f20;fill-opacity:1;fill-rule:nonzero;stroke:none"
         d="M 0,0 C 0.948,0.882 1.652,1.405 2.498,2.063 L -0.77,3.969 C -0.803,3.576 -1.034,2.039 -1.335,0.779 -1.658,-0.569 -2.027,-1.747 -2.336,-2.47 -1.858,-1.846 -1.015,-0.944 0,0" /></g><g
       transform="translate(149,138.432)"
       id="g152"><path
         id="path154"
         style="fill:none;stroke:#231f20;stroke-width:0.75;stroke-linecap:butt;stroke-linejoin:miter;stroke-miterlimit:4;stroke-dasharray:none;stroke-opacity:1"
         d="m 0,0 c 0,0 9.718,2.586 12,-3.5 1.5,-4 0.5,-7.5 0.5,-7.5" /></g><g
       transform="translate(161.752,125.518)"
       id="g156"><path
         id="path158"
         style="fill:#231f20;fill-opacity:1;fill-rule:nonzero;stroke:none"
         d="m 0,0 c 0.701,1.089 1.254,1.77 1.911,2.616 l -3.637,1.04 C -1.662,3.267 -1.505,1.72 -1.486,0.425 -1.465,-0.962 -1.532,-2.194 -1.652,-2.971 -1.344,-2.248 -0.75,-1.166 0,0" /></g><g
       transform="translate(159.5,95.932)"
       id="g160"><path
         id="path162"
         style="fill:none;stroke:#231f20;stroke-width:0.75;stroke-linecap:butt;stroke-linejoin:miter;stroke-miterlimit:4;stroke-dasharray:none;stroke-opacity:1"
         d="M 0,0 V 10" /></g><g
       transform="translate(158.731,107.704)"
       id="g164"><path
         id="path166"
         style="fill:#231f20;fill-opacity:1;fill-rule:nonzero;stroke:none"
         d="M 0,0 C -0.375,-1.24 -0.72,-2.046 -1.119,-3.041 H 2.665 C 2.495,-2.685 1.92,-1.24 1.546,0 1.145,1.327 0.87,2.53 0.772,3.31 0.675,2.53 0.4,1.327 0,0" /></g></g></svg>