<?xml version="1.0" encoding="UTF-8" standalone="no"?>
<svg
   xmlns:dc="http://purl.org/dc/elements/1.1/"
   xmlns:cc="http://creativecommons.org/ns#"
   xmlns:rdf="http://www.w3.org/1999/02/22-rdf-syntax-ns#"
   xmlns:svg="http://www.w3.org/2000/svg"
   xmlns="http://www.w3.org/2000/svg"
   viewBox="0 0 388.84799 215.12933"
   height="215.12933"
   width="388.84799"
   xml:space="preserve"
   id="svg2"
   version="1.1"><metadata
     id="metadata8"><rdf:RDF><cc:Work
         rdf:about=""><dc:format>image/svg+xml</dc:format><dc:type
           rdf:resource="http://purl.org/dc/dcmitype/StillImage" /></cc:Work></rdf:RDF></metadata><defs
     id="defs6" /><g
     transform="matrix(1.3333333,0,0,-1.3333333,0,215.12933)"
     id="g10"><text
       id="text16"
       style="font-variant:normal;font-weight:normal;font-stretch:normal;font-size:10px;font-family:Helvetica;-inkscape-font-specification:Helvetica;writing-mode:lr-tb;fill:#231f20;fill-opacity:1;fill-rule:nonzero;stroke:none"
       transform="matrix(1,0,0,-1,226.296,82.5196)"><tspan
         id="tspan12"
         y="0"
         x="0 2.78 8.3400002 10.56 16.120001 19.35 24.91 30.469999 35.470001 41.029999 43.810001 48.66 54.220001 59.779999">tolerance zone</tspan><tspan
         id="tspan14"
         y="76.067001"
         x="-117.043 -113.713 -108.153 -105.673 -100.113 -96.782997 -91.223 -85.663002 -80.663002 -75.102997 -69.542999 -63.983002 -58.423 -55.643002 -50.083">reference_datum</tspan></text>
<g
       transform="translate(255.75,50)"
       id="g18"><path
         id="path20"
         style="fill:none;stroke:#231f20;stroke-width:1;stroke-linecap:butt;stroke-linejoin:miter;stroke-miterlimit:4;stroke-dasharray:none;stroke-opacity:1"
         d="m 0,0 v -15.999 h -200 v 88 h 44.5 z" /></g><path
       id="path22"
       style="fill:none;stroke:#231f20;stroke-width:0.5;stroke-linecap:butt;stroke-linejoin:miter;stroke-miterlimit:4;stroke-dasharray:4;stroke-dashoffset:0;stroke-opacity:1"
       d="M 269.339,38.822 75.675,129.129 m 3.381,7.25 193.664,-90.307" /><path
       id="path24"
       style="fill:none;stroke:#231f20;stroke-width:0.5;stroke-linecap:butt;stroke-linejoin:miter;stroke-miterlimit:4;stroke-dasharray:10, 2, 2, 2;stroke-dashoffset:0;stroke-opacity:1"
       d="M 16.108,161.121 94.347,124.637" /><path
       id="path26"
       style="fill:none;stroke:#231f20;stroke-width:0.5;stroke-linecap:butt;stroke-linejoin:miter;stroke-miterlimit:4;stroke-dasharray:10, 2, 2, 2;stroke-dashoffset:0;stroke-opacity:1"
       d="M -1.5e-5,34 H 48.5" /><g
       transform="translate(51.25,138.5)"
       id="g28"><path
         id="path30"
         style="fill:none;stroke:#231f20;stroke-width:0.5;stroke-linecap:butt;stroke-linejoin:miter;stroke-miterlimit:4;stroke-dasharray:none;stroke-opacity:1"
         d="m 0,0 c 0,0 -21,-23 -26,-47 -5,-24 1,-52.5 1,-52.5" /></g><g
       transform="translate(23.652,39.199)"
       id="g32"><path
         id="path34"
         style="fill:#231f20;fill-opacity:1;fill-rule:nonzero;stroke:none"
         d="M 0,0 3.329,-3.712 4.879,1.027 0,0" /></g><g
       transform="translate(52.604,136.275)"
       id="g36"><path
         id="path38"
         style="fill:#231f20;fill-opacity:1;fill-rule:nonzero;stroke:none"
         d="M 0,0 1.071,4.87 -3.682,3.362 0,0" /></g><text
       id="text42"
       style="font-variant:normal;font-weight:normal;font-stretch:normal;font-size:10px;font-family:Helvetica;-inkscape-font-specification:Helvetica;writing-mode:lr-tb;fill:#231f20;fill-opacity:1;fill-rule:nonzero;stroke:none"
       transform="matrix(1,0,0,-1,9.4447,95.8032)"><tspan
         id="tspan40"
         y="0"
         x="0 5.5599999">25</tspan></text>
<text
       id="text46"
       style="font-variant:normal;font-weight:normal;font-stretch:normal;font-size:10px;font-family:Helvetica;-inkscape-font-specification:Helvetica;writing-mode:lr-tb;fill:#231f20;fill-opacity:1;fill-rule:nonzero;stroke:none"
       transform="matrix(1,0,0,-1,20.5677,95.8032)"><tspan
         id="tspan44"
         y="0"
         x="0">˚</tspan></text>
<text
       id="text50"
       style="font-variant:normal;font-weight:normal;font-stretch:normal;font-size:10px;font-family:Helvetica;-inkscape-font-specification:Helvetica;writing-mode:lr-tb;fill:#231f20;fill-opacity:1;fill-rule:nonzero;stroke:none"
       transform="matrix(1,0,0,-1,23.8977,95.8032)"><tspan
         id="tspan48"
         y="0"
         x="0"></tspan></text>
<path
       id="path52"
       style="fill:#231f20;fill-opacity:1;fill-rule:nonzero;stroke:#231f20;stroke-width:1;stroke-linecap:butt;stroke-linejoin:miter;stroke-miterlimit:4;stroke-dasharray:none;stroke-opacity:1"
       d="" /><g
       transform="translate(91.875,34.333)"
       id="g54"><path
         id="path56"
         style="fill:#231f20;fill-opacity:1;fill-rule:nonzero;stroke:#231f20;stroke-width:1;stroke-linecap:butt;stroke-linejoin:miter;stroke-miterlimit:4;stroke-dasharray:none;stroke-opacity:1"
         d="M 0,0 V -16" /></g><path
       id="path58"
       style="fill:#231f20;fill-opacity:1;fill-rule:nonzero;stroke:#231f20;stroke-width:1;stroke-linecap:butt;stroke-linejoin:miter;stroke-miterlimit:4;stroke-dasharray:none;stroke-opacity:1"
       d="M 95.176,37.634 H 88.5744 V 31.0324 H 95.176 Z" /><path
       id="path60"
       style="fill:none;stroke:#231f20;stroke-width:1;stroke-linecap:butt;stroke-linejoin:miter;stroke-miterlimit:4;stroke-dasharray:none;stroke-opacity:1"
       d="m 101.125,0.50001 h -18.5 v 18 h 18.5 z" /><text
       id="text64"
       style="font-variant:normal;font-weight:normal;font-stretch:normal;font-size:10px;font-family:Helvetica;-inkscape-font-specification:Helvetica;writing-mode:lr-tb;fill:#231f20;fill-opacity:1;fill-rule:nonzero;stroke:none"
       transform="matrix(1,0,0,-1,88.6797,5.4697)"><tspan
         id="tspan62"
         y="0"
         x="0">A</tspan></text>
<path
       id="path66"
       style="fill:none;stroke:#231f20;stroke-width:0.75;stroke-linecap:butt;stroke-linejoin:miter;stroke-miterlimit:4;stroke-dasharray:none;stroke-opacity:1"
       d="m 252.194,127.939 h -80.221 v 17 h 80.221 z" /><text
       id="text70"
       style="font-variant:normal;font-weight:normal;font-stretch:normal;font-size:10px;font-family:Helvetica;-inkscape-font-specification:Helvetica;writing-mode:lr-tb;fill:#231f20;fill-opacity:1;fill-rule:nonzero;stroke:none"
       transform="matrix(1,0,0,-1,237.9986,132.9082)"><tspan
         id="tspan68"
         y="0"
         x="0 6.6700001 -34.790001 -29.23 -26.450001 -20.889999 -15.33">A0.08</tspan></text>
<g
       transform="translate(197.417,144.772)"
       id="g72"><path
         id="path74"
         style="fill:none;stroke:#231f20;stroke-width:0.75;stroke-linecap:butt;stroke-linejoin:miter;stroke-miterlimit:4;stroke-dasharray:none;stroke-opacity:1"
         d="M 0,0 V -16.666" /><g
         transform="translate(33,-16.666)"
         id="g76"><path
           id="path78"
           style="fill:none;stroke:#231f20;stroke-width:0.75;stroke-linecap:butt;stroke-linejoin:miter;stroke-miterlimit:4;stroke-dasharray:none;stroke-opacity:1"
           d="M 0,0 V 16.666" /><g
           transform="translate(-38.667,3.534)"
           id="g80"><path
             id="path82"
             style="fill:none;stroke:#231f20;stroke-width:0.75;stroke-linecap:butt;stroke-linejoin:miter;stroke-miterlimit:4;stroke-dasharray:none;stroke-opacity:1"
             d="M 0,0 H -14.666 L -1,9.667" /><g
             transform="translate(-21,4.36)"
             id="g84"><path
               id="path86"
               style="fill:none;stroke:#231f20;stroke-width:0.75;stroke-linecap:butt;stroke-linejoin:miter;stroke-miterlimit:4;stroke-dasharray:none;stroke-opacity:1"
               d="M 0,0 H -20.333 L -46.666,-17" /></g></g></g></g><g
       transform="translate(124.165,121.614)"
       id="g88"><path
         id="path90"
         style="fill:#231f20;fill-opacity:1;fill-rule:nonzero;stroke:none"
         d="M 0,0 -5.649,-6.24 2.363,-3.661 0,0" /></g><g
       transform="translate(263.416,34)"
       id="g92"><path
         id="path94"
         style="fill:none;stroke:#231f20;stroke-width:0.75;stroke-linecap:butt;stroke-linejoin:miter;stroke-miterlimit:4;stroke-dasharray:none;stroke-opacity:1"
         d="M 0,0 C -1.586,-4.439 -3.637,-9.001 -8,-13" /></g><g
       transform="translate(263.289,35.927)"
       id="g96"><path
         id="path98"
         style="fill:#231f20;fill-opacity:1;fill-rule:nonzero;stroke:none"
         d="M 0,0 C -0.77,-1.042 -1.366,-1.685 -2.077,-2.487 L 1.486,-3.76 C 1.447,-3.368 1.391,-1.813 1.456,-0.52 1.524,0.865 1.671,2.09 1.841,2.858 1.487,2.156 0.824,1.115 0,0" /></g><g
       transform="translate(272.75,53.667)"
       id="g100"><path
         id="path102"
         style="fill:none;stroke:#231f20;stroke-width:0.75;stroke-linecap:butt;stroke-linejoin:miter;stroke-miterlimit:4;stroke-dasharray:none;stroke-opacity:1"
         d="M 0,0 C 3.667,6.334 7.666,11.333 5.334,24" /></g><g
       transform="translate(272.528,51.749)"
       id="g104"><path
         id="path106"
         style="fill:#231f20;fill-opacity:1;fill-rule:nonzero;stroke:none"
         d="M 0,0 C 0.945,0.885 1.648,1.41 2.492,2.071 L -0.783,3.966 C -0.815,3.574 -1.041,2.035 -1.338,0.774 -1.656,-0.575 -2.022,-1.754 -2.328,-2.478 -1.852,-1.852 -1.012,-0.948 0,0" /></g></g></svg>