<?xml version="1.0" encoding="UTF-8" standalone="no"?>
<svg
   xmlns:dc="http://purl.org/dc/elements/1.1/"
   xmlns:cc="http://creativecommons.org/ns#"
   xmlns:rdf="http://www.w3.org/1999/02/22-rdf-syntax-ns#"
   xmlns:svg="http://www.w3.org/2000/svg"
   xmlns="http://www.w3.org/2000/svg"
   viewBox="0 0 238.10268 115.548"
   height="115.548"
   width="238.10268"
   xml:space="preserve"
   id="svg2"
   version="1.1"><metadata
     id="metadata8"><rdf:RDF><cc:Work
         rdf:about=""><dc:format>image/svg+xml</dc:format><dc:type
           rdf:resource="http://purl.org/dc/dcmitype/StillImage" /></cc:Work></rdf:RDF></metadata><defs
     id="defs6" /><g
     transform="matrix(1.3333333,0,0,-1.3333333,0,115.548)"
     id="g10"><g
       transform="translate(93.538,5.3892)"
       id="g12"><path
         id="path14"
         style="fill:none;stroke:#231f20;stroke-width:0.75;stroke-linecap:butt;stroke-linejoin:miter;stroke-miterlimit:4;stroke-dasharray:none;stroke-opacity:1"
         d="M 0,0 V 10" /></g><g
       transform="translate(92.77,17.161)"
       id="g16"><path
         id="path18"
         style="fill:#231f20;fill-opacity:1;fill-rule:nonzero;stroke:none"
         d="M 0,0 C -0.375,-1.24 -0.72,-2.046 -1.119,-3.041 H 2.664 C 2.495,-2.685 1.92,-1.24 1.546,0 1.144,1.327 0.87,2.53 0.772,3.31 0.675,2.53 0.4,1.327 0,0" /></g><g
       transform="translate(29.3,18.5)"
       id="g20"><path
         id="path22"
         style="fill:none;stroke:#231f20;stroke-width:1;stroke-linecap:butt;stroke-linejoin:miter;stroke-miterlimit:4;stroke-dasharray:none;stroke-opacity:1"
         d="m 0,0 c 0,-9.9408 -6.447,-18 -14.4,-18 -7.953,0 -14.4,8.0592 -14.4,18 0,9.941 6.447,18 14.4,18 C -6.447,18 0,9.941 0,0 Z" /></g><path
       id="path24"
       style="fill:none;stroke:#231f20;stroke-width:0.25;stroke-linecap:butt;stroke-linejoin:miter;stroke-miterlimit:4;stroke-dasharray:4, 8;stroke-dashoffset:0;stroke-opacity:1"
       d="m 163.678,42.5 c -7.953,0 -14.401,8.059 -14.401,18 0,9.941 6.448,18 14.401,18" /><g
       transform="translate(163.678,78.5)"
       id="g26"><path
         id="path28"
         style="fill:none;stroke:#231f20;stroke-width:1;stroke-linecap:butt;stroke-linejoin:miter;stroke-miterlimit:4;stroke-dasharray:none;stroke-opacity:1"
         d="m 0,0 c 7.952,0 14.399,-8.059 14.399,-18 0,-9.941 -6.566,-17.777 -12.232,-17.944" /></g><g
       transform="translate(165.844,42.556)"
       id="g30"><path
         id="path32"
         style="fill:none;stroke:#231f20;stroke-width:1;stroke-linecap:butt;stroke-linejoin:miter;stroke-miterlimit:4;stroke-dasharray:none;stroke-opacity:1"
         d="M 0,0 -147.167,-41.5" /><g
         transform="translate(-153.834,-6.166)"
         id="g34"><path
           id="path36"
           style="fill:none;stroke:#231f20;stroke-width:1;stroke-linecap:butt;stroke-linejoin:miter;stroke-miterlimit:4;stroke-dasharray:none;stroke-opacity:1"
           d="M 0,0 151.667,42.111" /></g></g><path
       id="path38"
       style="fill:none;stroke:#231f20;stroke-width:0.75;stroke-linecap:butt;stroke-linejoin:miter;stroke-miterlimit:4;stroke-dasharray:12, 4;stroke-dashoffset:0;stroke-opacity:1"
       d="m 14.9,18.5 c 0,0 24.611,0.889 38.611,3.389 14,2.5 20,18.5 36.5,17 16.5,-1.5 26.5,11.5 41.5,14.5 15,3 32.5,7.5 32.5,7.5" /><g
       transform="translate(93.539,86.661)"
       id="g40"><path
         id="path42"
         style="fill:none;stroke:#231f20;stroke-width:0.75;stroke-linecap:butt;stroke-linejoin:miter;stroke-miterlimit:4;stroke-dasharray:none;stroke-opacity:1"
         d="M 0,0 V -19" /></g><g
       transform="translate(92.77,65.889)"
       id="g44"><path
         id="path46"
         style="fill:#231f20;fill-opacity:1;fill-rule:nonzero;stroke:none"
         d="M 0,0 C -0.375,1.24 -0.72,2.046 -1.119,3.041 H 2.664 C 2.495,2.685 1.92,1.24 1.546,0 1.145,-1.327 0.87,-2.53 0.772,-3.31 0.675,-2.53 0.4,-1.327 0,0" /></g><g
       transform="translate(71.511,79.389)"
       id="g48"><path
         id="path50"
         style="fill:none;stroke:#231f20;stroke-width:0.5;stroke-linecap:butt;stroke-linejoin:miter;stroke-miterlimit:4;stroke-dasharray:none;stroke-opacity:1"
         d="m 0,0 c 0,-2.071 -1.679,-3.75 -3.75,-3.75 -2.071,0 -3.75,1.679 -3.75,3.75 0,2.071 1.679,3.75 3.75,3.75 C -1.679,3.75 0,2.071 0,0 Z" /><g
         transform="translate(-1.5,6.25)"
         id="g52"><path
           id="path54"
           style="fill:none;stroke:#231f20;stroke-width:0.5;stroke-linecap:butt;stroke-linejoin:miter;stroke-miterlimit:4;stroke-dasharray:none;stroke-opacity:1"
           d="M 0,0 -4.5,-12.5" /></g></g><text
       id="text58"
       style="font-variant:normal;font-weight:normal;font-stretch:normal;font-size:10px;font-family:Helvetica;-inkscape-font-specification:Helvetica;writing-mode:lr-tb;fill:#231f20;fill-opacity:1;fill-rule:nonzero;stroke:none"
       transform="matrix(1,0,0,-1,74.5306,75.8589)"><tspan
         id="tspan56"
         y="0"
         x="0 5.5599999 8.3400002 13.9">0.1</tspan></text>
</g></svg>