<?xml version="1.0" encoding="UTF-8" standalone="no"?>
<svg
   xmlns:dc="http://purl.org/dc/elements/1.1/"
   xmlns:cc="http://creativecommons.org/ns#"
   xmlns:rdf="http://www.w3.org/1999/02/22-rdf-syntax-ns#"
   xmlns:svg="http://www.w3.org/2000/svg"
   xmlns="http://www.w3.org/2000/svg"
   viewBox="0 0 512.26532 274.33334"
   height="274.33334"
   width="512.26532"
   xml:space="preserve"
   id="svg2"
   version="1.1"><metadata
     id="metadata8"><rdf:RDF><cc:Work
         rdf:about=""><dc:format>image/svg+xml</dc:format><dc:type
           rdf:resource="http://purl.org/dc/dcmitype/StillImage" /></cc:Work></rdf:RDF></metadata><defs
     id="defs6" /><g
     transform="matrix(1.3333333,0,0,-1.3333333,0,274.33333)"
     id="g10"><text
       id="text16"
       style="font-variant:normal;font-weight:normal;font-stretch:normal;font-size:10px;font-family:Helvetica;-inkscape-font-specification:Helvetica;writing-mode:lr-tb;fill:#231f20;fill-opacity:1;fill-rule:nonzero;stroke:none"
       transform="matrix(1,0,0,-1,255.8138,150.0532)"><tspan
         id="tspan12"
         y="0"
         x="0 8.3299999 13.89 18.889999 21.110001 29.34 34.900002 43.23 48.790001 54.349998 59.91 65.470001 68.25 73.809998 79.370003 84.93 87.709999 93.269997 98.269997 103.83">maximum_depth_of_cut</tspan><tspan
         id="tspan14"
         y="-40.667"
         x="-99.863998 -94.454002 -89.704002 -84.143997 -80.914001 -75.353996 -73.134003 -70.914001 -65.353996 -59.793999 -54.793999 -49.793999 -44.234001 -35.903999 -30.544001 -28.323999 -23.323999 -17.764 -15.544 -9.9840002 -4.4239998 1.136 3.9159999">overall_assembly_length</tspan></text>
<g
       transform="translate(34.953,79.084)"
       id="g18"><path
         id="path20"
         style="fill:none;stroke:#231f20;stroke-width:0.5;stroke-linecap:butt;stroke-linejoin:miter;stroke-miterlimit:4;stroke-dasharray:none;stroke-opacity:1"
         d="M 0,0 11.098,5.655" /></g><g
       transform="translate(46.625,85.514)"
       id="g22"><path
         id="path24"
         style="fill:#231f20;fill-opacity:1;fill-rule:nonzero;stroke:none"
         d="m 0,0 c -0.631,-0.147 -1.066,-0.2 -1.597,-0.275 l 0.947,-1.639 c 0.111,0.162 0.593,0.772 1.037,1.245 0.473,0.505 0.926,0.925 1.24,1.162 C 1.265,0.341 0.675,0.158 0,0" /></g><g
       transform="translate(34.767,79.568)"
       id="g26"><path
         id="path28"
         style="fill:none;stroke:#231f20;stroke-width:0.5;stroke-linecap:butt;stroke-linejoin:miter;stroke-miterlimit:4;stroke-dasharray:none;stroke-opacity:1"
         d="M 0,0 V 8.635" /></g><g
       transform="translate(34.382,89.089)"
       id="g30"><path
         id="path32"
         style="fill:#231f20;fill-opacity:1;fill-rule:nonzero;stroke:none"
         d="M 0,0 C -0.187,-0.62 -0.36,-1.023 -0.56,-1.521 H 1.332 C 1.247,-1.342 0.96,-0.62 0.773,0 0.572,0.663 0.435,1.265 0.386,1.655 0.337,1.265 0.2,0.663 0,0" /></g><text
       id="text40"
       style="font-variant:normal;font-weight:normal;font-stretch:normal;font-size:9px;font-family:Helvetica;-inkscape-font-specification:Helvetica;writing-mode:lr-tb;fill:#231f20;fill-opacity:1;fill-rule:nonzero;stroke:none"
       transform="matrix(1,0,0,-1,43.9135,71.5527)"><tspan
         id="tspan34"
         y="0"
         x="0">z</tspan><tspan
         id="tspan36"
         y="-14.661"
         x="6.5124002">x</tspan><tspan
         id="tspan38"
         y="-17.830799"
         x="-15.813">y</tspan></text>
<g
       transform="translate(196.25,24.03)"
       id="g42"><path
         id="path44"
         style="fill:none;stroke:#231f20;stroke-width:1;stroke-linecap:butt;stroke-linejoin:miter;stroke-miterlimit:4;stroke-dasharray:none;stroke-opacity:1"
         d="m 0,0 c 0.97,-9.032 -1.516,-8.484 0.103,-13.444 1.949,-5.975 9.281,-1.094 14.397,-1.962" /></g><g
       transform="translate(195.297,25.71)"
       id="g46"><path
         id="path48"
         style="fill:#231f20;fill-opacity:1;fill-rule:nonzero;stroke:none"
         d="m 0,0 c -0.24,-1.274 -0.498,-2.111 -0.788,-3.143 l 3.762,0.404 C 2.768,-2.403 2.041,-1.028 1.536,0.165 0.996,1.441 0.595,2.608 0.414,3.374 0.4,2.588 0.256,1.362 0,0" /></g><text
       id="text56"
       style="font-variant:normal;font-weight:normal;font-stretch:normal;font-size:10px;font-family:Helvetica;-inkscape-font-specification:Helvetica;writing-mode:lr-tb;fill:#231f20;fill-opacity:1;fill-rule:nonzero;stroke:none"
       transform="matrix(1,0,0,-1,227.656,14.25)"><tspan
         id="tspan50"
         y="0"
         x="0 2.78 8.3400002 13.9 16.120001 21.68 27.24 32.799999 35.02 40.580002 46.139999 49.470001 55.029999 60.59 63.919998 69.480003 72.260002 74.480003 76.699997 82.260002">tool_holder_profile</tspan><tspan
         id="tspan52"
         y="12"
         x="-9.5749998 -6.2449999 -1.245 4.3150001 7.645 10.125 15.685 20.684999 26.245001 31.805 37.365002 40.145 45.705002 49.035 54.294998 59.044998 64.605003 66.824997 72.385002 75.165001 77.385002 82.945 88.504997">(surface_of_revolution)</tspan><tspan
         id="tspan54"
         y="-149"
         x="-187.327 -181.767 -176.207 -170.647 -165.08701 -162.30701 -160.08701 -157.867 -152.30701">gage line</tspan></text>
<g
       transform="translate(35.619,205.75)"
       id="g58"><path
         id="path60"
         style="fill:#231f20;fill-opacity:1;fill-rule:nonzero;stroke:#231f20;stroke-width:0.5;stroke-linecap:butt;stroke-linejoin:miter;stroke-miterlimit:4;stroke-dasharray:none;stroke-opacity:1"
         d="M 0,0 V -100" /></g><g
       transform="translate(149.442,145.503)"
       id="g62"><path
         id="path64"
         style="fill:none;stroke:#231f20;stroke-width:0.5;stroke-linecap:butt;stroke-linejoin:miter;stroke-miterlimit:1;stroke-dasharray:none;stroke-opacity:1"
         d="M 0,0 57.677,-32.878" /><g
         transform="translate(-0.698,-133.003)"
         id="g66"><path
           id="path68"
           style="fill:none;stroke:#231f20;stroke-width:0.5;stroke-linecap:butt;stroke-linejoin:miter;stroke-miterlimit:1;stroke-dasharray:none;stroke-opacity:1"
           d="M 0,0 58.875,33.5" /></g></g><g
       transform="translate(220.919,79.166)"
       id="g70"><path
         id="path72"
         style="fill:none;stroke:#231f20;stroke-width:0.5;stroke-linecap:butt;stroke-linejoin:miter;stroke-miterlimit:1;stroke-dasharray:none;stroke-opacity:1"
         d="m 0,0 c 0,18.778 -7.611,34 -17,34 -9.389,0 -17,-15.222 -17,-34 0,-18.778 7.611,-34 17,-34 9.389,0 17,15.222 17,34 z" /><g
         transform="translate(-81.799,69.738)"
         id="g74"><path
           id="path76"
           style="fill:none;stroke:#231f20;stroke-width:0.5;stroke-linecap:butt;stroke-linejoin:miter;stroke-miterlimit:1;stroke-dasharray:none;stroke-opacity:1"
           d="m 0,0 c -19.257,0 -34.869,-31.223 -34.869,-69.738 0,-38.516 15.612,-69.738 34.869,-69.738 h -104.001 c -19.256,0 -34.869,31.222 -34.869,69.738 0,38.515 15.613,69.738 34.869,69.738 z" /></g></g><path
       id="path78"
       style="fill:none;stroke:#231f20;stroke-width:0.5;stroke-linecap:butt;stroke-linejoin:miter;stroke-miterlimit:1;stroke-dasharray:6;stroke-dashoffset:0;stroke-opacity:1"
       d="m 152.561,15.294 c 12.379,10.707 21.04,35.349 21.04,64.038 0,30.918 -10.059,57.136 -23.989,66.277" /><path
       id="path80"
       style="fill:none;stroke:#231f20;stroke-width:0.5;stroke-linecap:butt;stroke-linejoin:miter;stroke-miterlimit:1;stroke-dasharray:6;stroke-dashoffset:0;stroke-opacity:1"
       d="m 35.399,9.4282 c 19.258,0 34.87,31.2218 34.87,69.7368 0,38.516 -15.612,69.739 -34.87,69.739" /><g
       transform="translate(138.563,9.3735)"
       id="g82"><path
         id="path84"
         style="fill:none;stroke:#231f20;stroke-width:0.5;stroke-linecap:butt;stroke-linejoin:miter;stroke-miterlimit:1;stroke-dasharray:none;stroke-opacity:1"
         d="M 0,0 C 4.913,0 9.589,2.032 13.829,5.7" /><g
         transform="translate(10.879,136.129)"
         id="g86"><path
           id="path88"
           style="fill:none;stroke:#231f20;stroke-width:0.5;stroke-linecap:butt;stroke-linejoin:miter;stroke-miterlimit:1;stroke-dasharray:none;stroke-opacity:1"
           d="M 0,0 C -3.423,2.246 -7.081,3.461 -10.879,3.461" /></g></g><g
       transform="translate(382.819,78.682)"
       id="g90"><path
         id="path92"
         style="fill:#b8dbe6;fill-opacity:1;fill-rule:nonzero;stroke:none"
         d="m 0,0 c 0,5.68 -2.812,10.79 -5.625,10.79 h -173.247 c -3.375,0 -5.625,-5.11 -5.625,-10.79 0,-6.246 2.25,-10.789 5.625,-10.789 H -5.625 C -2.812,-10.789 0,-6.246 0,0" /></g><g
       transform="translate(377.194,89.472)"
       id="g94"><path
         id="path96"
         style="fill:#c7dfe8;fill-opacity:1;fill-rule:nonzero;stroke:none"
         d="m 0,0 c -3.375,0 -5.625,-5.11 -5.625,-10.79 0,-6.246 2.25,-10.789 5.625,-10.789 2.813,0 5.625,4.543 5.625,10.789 C 5.625,-5.11 2.813,0 0,0" /></g><g
       transform="translate(382.819,78.682)"
       id="g98"><path
         id="path100"
         style="fill:none;stroke:#231f20;stroke-width:0.26499999;stroke-linecap:butt;stroke-linejoin:miter;stroke-miterlimit:1;stroke-dasharray:none;stroke-opacity:1"
         d="m 0,0 c 0,5.68 -2.812,10.79 -5.625,10.79 h -173.247 c -3.375,0 -5.625,-5.11 -5.625,-10.79 0,-6.246 2.25,-10.789 5.625,-10.789 H -5.625 C -2.812,-10.789 0,-6.246 0,0 Z" /><g
         transform="translate(-5.625,10.79)"
         id="g102"><path
           id="path104"
           style="fill:none;stroke:#231f20;stroke-width:0.26499999;stroke-linecap:butt;stroke-linejoin:miter;stroke-miterlimit:1;stroke-dasharray:none;stroke-opacity:1"
           d="m 0,0 c -3.375,0 -5.625,-5.11 -5.625,-10.79 0,-6.246 2.25,-10.789 5.625,-10.789" /><g
           transform="translate(-3.375,-2.839)"
           id="g106"><path
             id="path108"
             style="fill:none;stroke:#231f20;stroke-width:0.26499999;stroke-linecap:butt;stroke-linejoin:miter;stroke-miterlimit:1;stroke-dasharray:none;stroke-opacity:1"
             d="M 0,0 C -26.436,-2.84 -52.874,-9.086 -77.061,-18.74" /><g
             id="g110"><path
               id="path112"
               style="fill:none;stroke:#231f20;stroke-width:0.26499999;stroke-linecap:butt;stroke-linejoin:miter;stroke-miterlimit:1;stroke-dasharray:none;stroke-opacity:1"
               d="M 0,0 C -26.436,-2.84 -52.874,-9.086 -77.061,-18.74" /><g
               transform="translate(-2.25,-13.061)"
               id="g114"><path
                 id="path116"
                 style="fill:none;stroke:#231f20;stroke-width:0.26499999;stroke-linecap:butt;stroke-linejoin:miter;stroke-miterlimit:1;stroke-dasharray:none;stroke-opacity:1"
                 d="M 0,0 C -11.25,-1.136 -21.936,-3.407 -33.186,-5.679" /><g
                 id="g118"><path
                   id="path120"
                   style="fill:none;stroke:#231f20;stroke-width:0.26499999;stroke-linecap:butt;stroke-linejoin:miter;stroke-miterlimit:1;stroke-dasharray:none;stroke-opacity:1"
                   d="M 0,0 C -11.25,-1.136 -21.936,-3.407 -33.186,-5.679" /><g
                   transform="translate(-38.811,15.9)"
                   id="g122"><path
                     id="path124"
                     style="fill:none;stroke:#231f20;stroke-width:0.26499999;stroke-linecap:butt;stroke-linejoin:miter;stroke-miterlimit:1;stroke-dasharray:none;stroke-opacity:1"
                     d="M 0,0 C -24.75,-4.543 -48.937,-11.357 -71.999,-21.579" /><g
                     id="g126"><path
                       id="path128"
                       style="fill:none;stroke:#231f20;stroke-width:0.26499999;stroke-linecap:butt;stroke-linejoin:miter;stroke-miterlimit:1;stroke-dasharray:none;stroke-opacity:1"
                       d="M 0,0 C -24.75,-4.543 -48.937,-11.357 -71.999,-21.579" /><g
                       transform="translate(-46.687)"
                       id="g130"><path
                         id="path132"
                         style="fill:none;stroke:#231f20;stroke-width:0.26499999;stroke-linecap:butt;stroke-linejoin:miter;stroke-miterlimit:1;stroke-dasharray:none;stroke-opacity:1"
                         d="M 0,0 C -17.437,-4.543 -33.749,-9.653 -50.061,-17.036" /><g
                         id="g134"><path
                           id="path136"
                           style="fill:none;stroke:#231f20;stroke-width:0.26499999;stroke-linecap:butt;stroke-linejoin:miter;stroke-miterlimit:1;stroke-dasharray:none;stroke-opacity:1"
                           d="M 0,0 C -17.437,-4.543 -33.749,-9.653 -50.061,-17.036" /><g
                           transform="translate(87.749,-17.036)"
                           id="g138"><path
                             id="path140"
                             style="fill:none;stroke:#231f20;stroke-width:0.26499999;stroke-linecap:butt;stroke-linejoin:miter;stroke-miterlimit:1;stroke-dasharray:none;stroke-opacity:1"
                             d="M 0,0 V 0" /><g
                             transform="translate(-123.748,16.469)"
                             id="g142"><path
                               id="path144"
                               style="fill:none;stroke:#231f20;stroke-width:0.26499999;stroke-linecap:butt;stroke-linejoin:miter;stroke-miterlimit:1;stroke-dasharray:none;stroke-opacity:1"
                               d="M 0,0 C -5.062,-1.136 -9.562,-2.84 -14.624,-3.976" /><g
                               id="g146"><path
                                 id="path148"
                                 style="fill:none;stroke:#231f20;stroke-width:0.26499999;stroke-linecap:butt;stroke-linejoin:miter;stroke-miterlimit:1;stroke-dasharray:none;stroke-opacity:1"
                                 d="M 0,0 C -5.062,-1.136 -9.562,-2.84 -14.624,-3.976" /><g
                                 transform="translate(122.061,-3.976)"
                                 id="g150"><path
                                   id="path152"
                                   style="fill:none;stroke:#231f20;stroke-width:0.26499999;stroke-linecap:butt;stroke-linejoin:miter;stroke-miterlimit:1;stroke-dasharray:none;stroke-opacity:1"
                                   d="M 0,0 C -24.749,-2.84 -48.936,-8.518 -72.561,-17.036" /><g
                                   id="g154"><path
                                   id="path156"
                                   style="fill:none;stroke:#231f20;stroke-width:0.26499999;stroke-linecap:butt;stroke-linejoin:miter;stroke-miterlimit:1;stroke-dasharray:none;stroke-opacity:1"
                                   d="M 0,0 C -24.749,-2.84 -48.936,-8.518 -72.561,-17.036" /><g
                                   transform="translate(0,-12.493)"
                                   id="g158"><path
                                   id="path160"
                                   style="fill:none;stroke:#231f20;stroke-width:0.26499999;stroke-linecap:butt;stroke-linejoin:miter;stroke-miterlimit:1;stroke-dasharray:none;stroke-opacity:1"
                                   d="M 0,0 C -9.562,-1.136 -19.124,-2.839 -28.686,-4.543" /><g
                                   id="g162"><path
                                   id="path164"
                                   style="fill:none;stroke:#231f20;stroke-width:0.26499999;stroke-linecap:butt;stroke-linejoin:miter;stroke-miterlimit:1;stroke-dasharray:none;stroke-opacity:1"
                                   d="M 0,0 C -9.562,-1.136 -19.124,-2.839 -28.686,-4.543" /><g
                                   transform="translate(-32.061,16.469)"
                                   id="g166"><path
                                   id="path168"
                                   style="fill:none;stroke:#231f20;stroke-width:0.26499999;stroke-linecap:butt;stroke-linejoin:miter;stroke-miterlimit:1;stroke-dasharray:none;stroke-opacity:1"
                                   d="M 0,0 C -26.438,-3.408 -52.312,-10.79 -77.062,-21.012" /><g
                                   id="g170"><path
                                   id="path172"
                                   style="fill:none;stroke:#231f20;stroke-width:0.26499999;stroke-linecap:butt;stroke-linejoin:miter;stroke-miterlimit:1;stroke-dasharray:none;stroke-opacity:1"
                                   d="M 0,0 C -26.438,-3.408 -52.312,-10.79 -77.062,-21.012" /><g
                                   transform="translate(-48.937)"
                                   id="g174"><path
                                   id="path176"
                                   style="fill:none;stroke:#231f20;stroke-width:0.26499999;stroke-linecap:butt;stroke-linejoin:miter;stroke-miterlimit:1;stroke-dasharray:none;stroke-opacity:1"
                                   d="M 0,0 C -19.124,-3.976 -37.687,-9.654 -55.686,-17.604" /><g
                                   id="g178"><path
                                   id="path180"
                                   style="fill:none;stroke:#231f20;stroke-width:0.26499999;stroke-linecap:butt;stroke-linejoin:miter;stroke-miterlimit:1;stroke-dasharray:none;stroke-opacity:1"
                                   d="M 0,0 C -19.124,-3.976 -37.687,-9.654 -55.686,-17.604" /><g
                                   transform="translate(-36.562)"
                                   id="g182"><path
                                   id="path184"
                                   style="fill:none;stroke:#231f20;stroke-width:0.26499999;stroke-linecap:butt;stroke-linejoin:miter;stroke-miterlimit:1;stroke-dasharray:none;stroke-opacity:1"
                                   d="M 0,0 C -6.75,-1.136 -12.937,-3.408 -19.687,-5.679" /><g
                                   id="g186"><path
                                   id="path188"
                                   style="fill:none;stroke:#231f20;stroke-width:0.26499999;stroke-linecap:butt;stroke-linejoin:miter;stroke-miterlimit:1;stroke-dasharray:none;stroke-opacity:1"
                                   d="M 0,0 C -6.75,-1.136 -12.937,-3.408 -19.687,-5.679" /><g
                                   transform="translate(117.561,-15.333)"
                                   id="g190"><path
                                   id="path192"
                                   style="fill:none;stroke:#231f20;stroke-width:0.26499999;stroke-linecap:butt;stroke-linejoin:miter;stroke-miterlimit:1;stroke-dasharray:none;stroke-opacity:1"
                                   d="M 0,0 10.125,10.222" /><g
                                   transform="translate(1.125,13.061)"
                                   id="g194"><path
                                   id="path196"
                                   style="fill:none;stroke:#231f20;stroke-width:0.26499999;stroke-linecap:butt;stroke-linejoin:miter;stroke-miterlimit:1;stroke-dasharray:none;stroke-opacity:1"
                                   d="M 0,0 7.875,-15.333" /><g
                                   transform="translate(0,-15.333)"
                                   id="g198"><path
                                   id="path200"
                                   style="fill:none;stroke:#231f20;stroke-width:0.26499999;stroke-linecap:butt;stroke-linejoin:miter;stroke-miterlimit:1;stroke-dasharray:none;stroke-opacity:1"
                                   d="M 0,0 V 0" /><g
                                   transform="translate(-0.562,0.567)"
                                   id="g202"><path
                                   id="path204"
                                   style="fill:none;stroke:#231f20;stroke-width:0.26499999;stroke-linecap:butt;stroke-linejoin:miter;stroke-miterlimit:1;stroke-dasharray:none;stroke-opacity:1"
                                   d="M 0,0 9.563,10.79" /><g
                                   transform="translate(0,13.629)"
                                   id="g206"><path
                                   id="path208"
                                   style="fill:none;stroke:#231f20;stroke-width:0.26499999;stroke-linecap:butt;stroke-linejoin:miter;stroke-miterlimit:1;stroke-dasharray:none;stroke-opacity:1"
                                   d="M 0,0 7.875,-15.332" /></g></g></g></g></g></g></g></g></g></g></g></g></g></g></g></g></g></g></g></g></g></g></g></g></g></g></g></g><g
       transform="translate(377.194,82.089)"
       id="g210"><path
         id="path212"
         style="fill:#b8dbe6;fill-opacity:1;fill-rule:nonzero;stroke:#b8dbe6;stroke-width:0.26499999;stroke-linecap:butt;stroke-linejoin:miter;stroke-miterlimit:1;stroke-dasharray:none;stroke-opacity:1"
         d="M 0,0 C 1.125,0 2.25,-1.135 2.25,-3.407 2.25,-5.11 1.125,-6.815 0,-6.815 c -1.687,0 -2.25,1.705 -2.25,3.408 C -2.25,-1.135 -1.687,0 0,0" /></g><g
       transform="translate(382.819,78.682)"
       id="g214"><path
         id="path216"
         style="fill:#b8dbe6;fill-opacity:1;fill-rule:nonzero;stroke:none"
         d="m 0,0 c 0,5.68 -2.812,10.79 -5.625,10.79 h -173.247 c -3.375,0 -5.625,-5.11 -5.625,-10.79 0,-6.246 2.25,-10.789 5.625,-10.789 H -5.625 C -2.812,-10.789 0,-6.246 0,0" /></g><g
       transform="translate(377.194,89.472)"
       id="g218"><path
         id="path220"
         style="fill:#c7dfe8;fill-opacity:1;fill-rule:nonzero;stroke:none"
         d="m 0,0 c -3.375,0 -5.625,-5.11 -5.625,-10.79 0,-6.246 2.25,-10.789 5.625,-10.789 2.813,0 5.625,4.543 5.625,10.789 C 5.625,-5.11 2.813,0 0,0" /></g><g
       transform="translate(382.819,78.682)"
       id="g222"><path
         id="path224"
         style="fill:none;stroke:#231f20;stroke-width:0.26499999;stroke-linecap:butt;stroke-linejoin:miter;stroke-miterlimit:1;stroke-dasharray:none;stroke-opacity:1"
         d="m 0,0 c 0,5.68 -2.812,10.79 -5.625,10.79 h -173.247 c -3.375,0 -5.625,-5.11 -5.625,-10.79 0,-6.246 2.25,-10.789 5.625,-10.789 H -5.625 C -2.812,-10.789 0,-6.246 0,0 Z" /><g
         transform="translate(-5.625,10.79)"
         id="g226"><path
           id="path228"
           style="fill:none;stroke:#231f20;stroke-width:0.26499999;stroke-linecap:butt;stroke-linejoin:miter;stroke-miterlimit:1;stroke-dasharray:none;stroke-opacity:1"
           d="m 0,0 c -3.375,0 -5.625,-5.11 -5.625,-10.79 0,-6.246 2.25,-10.789 5.625,-10.789" /><g
           transform="translate(-3.375,-2.839)"
           id="g230"><path
             id="path232"
             style="fill:none;stroke:#231f20;stroke-width:0.26499999;stroke-linecap:butt;stroke-linejoin:miter;stroke-miterlimit:1;stroke-dasharray:none;stroke-opacity:1"
             d="M 0,0 C -26.436,-2.84 -52.874,-9.086 -77.061,-18.74" /><g
             id="g234"><path
               id="path236"
               style="fill:none;stroke:#231f20;stroke-width:0.26499999;stroke-linecap:butt;stroke-linejoin:miter;stroke-miterlimit:1;stroke-dasharray:none;stroke-opacity:1"
               d="M 0,0 C -26.436,-2.84 -52.874,-9.086 -77.061,-18.74" /><g
               transform="translate(-2.25,-13.061)"
               id="g238"><path
                 id="path240"
                 style="fill:none;stroke:#231f20;stroke-width:0.26499999;stroke-linecap:butt;stroke-linejoin:miter;stroke-miterlimit:1;stroke-dasharray:none;stroke-opacity:1"
                 d="M 0,0 C -11.25,-1.136 -21.936,-3.407 -33.186,-5.679" /><g
                 id="g242"><path
                   id="path244"
                   style="fill:none;stroke:#231f20;stroke-width:0.26499999;stroke-linecap:butt;stroke-linejoin:miter;stroke-miterlimit:1;stroke-dasharray:none;stroke-opacity:1"
                   d="M 0,0 C -11.25,-1.136 -21.936,-3.407 -33.186,-5.679" /><g
                   transform="translate(-38.811,15.9)"
                   id="g246"><path
                     id="path248"
                     style="fill:none;stroke:#231f20;stroke-width:0.26499999;stroke-linecap:butt;stroke-linejoin:miter;stroke-miterlimit:1;stroke-dasharray:none;stroke-opacity:1"
                     d="M 0,0 C -24.75,-4.543 -48.937,-11.357 -71.999,-21.579" /><g
                     id="g250"><path
                       id="path252"
                       style="fill:none;stroke:#231f20;stroke-width:0.26499999;stroke-linecap:butt;stroke-linejoin:miter;stroke-miterlimit:1;stroke-dasharray:none;stroke-opacity:1"
                       d="M 0,0 C -24.75,-4.543 -48.937,-11.357 -71.999,-21.579" /><g
                       transform="translate(-46.687)"
                       id="g254"><path
                         id="path256"
                         style="fill:none;stroke:#231f20;stroke-width:0.26499999;stroke-linecap:butt;stroke-linejoin:miter;stroke-miterlimit:1;stroke-dasharray:none;stroke-opacity:1"
                         d="M 0,0 C -17.437,-4.543 -33.749,-9.653 -50.061,-17.036" /><g
                         id="g258"><path
                           id="path260"
                           style="fill:none;stroke:#231f20;stroke-width:0.26499999;stroke-linecap:butt;stroke-linejoin:miter;stroke-miterlimit:1;stroke-dasharray:none;stroke-opacity:1"
                           d="M 0,0 C -17.437,-4.543 -33.749,-9.653 -50.061,-17.036" /><g
                           transform="translate(87.749,-17.036)"
                           id="g262"><path
                             id="path264"
                             style="fill:none;stroke:#231f20;stroke-width:0.26499999;stroke-linecap:butt;stroke-linejoin:miter;stroke-miterlimit:1;stroke-dasharray:none;stroke-opacity:1"
                             d="M 0,0 V 0" /><g
                             transform="translate(-123.748,16.469)"
                             id="g266"><path
                               id="path268"
                               style="fill:none;stroke:#231f20;stroke-width:0.26499999;stroke-linecap:butt;stroke-linejoin:miter;stroke-miterlimit:1;stroke-dasharray:none;stroke-opacity:1"
                               d="M 0,0 C -5.062,-1.136 -9.562,-2.84 -14.624,-3.976" /><g
                               id="g270"><path
                                 id="path272"
                                 style="fill:none;stroke:#231f20;stroke-width:0.26499999;stroke-linecap:butt;stroke-linejoin:miter;stroke-miterlimit:1;stroke-dasharray:none;stroke-opacity:1"
                                 d="M 0,0 C -5.062,-1.136 -9.562,-2.84 -14.624,-3.976" /><g
                                 transform="translate(122.061,-3.976)"
                                 id="g274"><path
                                   id="path276"
                                   style="fill:none;stroke:#231f20;stroke-width:0.26499999;stroke-linecap:butt;stroke-linejoin:miter;stroke-miterlimit:1;stroke-dasharray:none;stroke-opacity:1"
                                   d="M 0,0 C -24.749,-2.84 -48.936,-8.518 -72.561,-17.036" /><g
                                   id="g278"><path
                                   id="path280"
                                   style="fill:none;stroke:#231f20;stroke-width:0.26499999;stroke-linecap:butt;stroke-linejoin:miter;stroke-miterlimit:1;stroke-dasharray:none;stroke-opacity:1"
                                   d="M 0,0 C -24.749,-2.84 -48.936,-8.518 -72.561,-17.036" /><g
                                   transform="translate(0,-12.493)"
                                   id="g282"><path
                                   id="path284"
                                   style="fill:none;stroke:#231f20;stroke-width:0.26499999;stroke-linecap:butt;stroke-linejoin:miter;stroke-miterlimit:1;stroke-dasharray:none;stroke-opacity:1"
                                   d="M 0,0 C -9.562,-1.136 -19.124,-2.839 -28.686,-4.543" /><g
                                   id="g286"><path
                                   id="path288"
                                   style="fill:none;stroke:#231f20;stroke-width:0.26499999;stroke-linecap:butt;stroke-linejoin:miter;stroke-miterlimit:1;stroke-dasharray:none;stroke-opacity:1"
                                   d="M 0,0 C -9.562,-1.136 -19.124,-2.839 -28.686,-4.543" /><g
                                   transform="translate(-32.061,16.469)"
                                   id="g290"><path
                                   id="path292"
                                   style="fill:none;stroke:#231f20;stroke-width:0.26499999;stroke-linecap:butt;stroke-linejoin:miter;stroke-miterlimit:1;stroke-dasharray:none;stroke-opacity:1"
                                   d="M 0,0 C -26.438,-3.408 -52.312,-10.79 -77.062,-21.012" /><g
                                   id="g294"><path
                                   id="path296"
                                   style="fill:none;stroke:#231f20;stroke-width:0.26499999;stroke-linecap:butt;stroke-linejoin:miter;stroke-miterlimit:1;stroke-dasharray:none;stroke-opacity:1"
                                   d="M 0,0 C -26.438,-3.408 -52.312,-10.79 -77.062,-21.012" /><g
                                   transform="translate(-48.937)"
                                   id="g298"><path
                                   id="path300"
                                   style="fill:none;stroke:#231f20;stroke-width:0.26499999;stroke-linecap:butt;stroke-linejoin:miter;stroke-miterlimit:1;stroke-dasharray:none;stroke-opacity:1"
                                   d="M 0,0 C -19.124,-3.976 -37.687,-9.654 -55.686,-17.604" /><g
                                   id="g302"><path
                                   id="path304"
                                   style="fill:none;stroke:#231f20;stroke-width:0.26499999;stroke-linecap:butt;stroke-linejoin:miter;stroke-miterlimit:1;stroke-dasharray:none;stroke-opacity:1"
                                   d="M 0,0 C -19.124,-3.976 -37.687,-9.654 -55.686,-17.604" /><g
                                   transform="translate(-36.562)"
                                   id="g306"><path
                                   id="path308"
                                   style="fill:none;stroke:#231f20;stroke-width:0.26499999;stroke-linecap:butt;stroke-linejoin:miter;stroke-miterlimit:1;stroke-dasharray:none;stroke-opacity:1"
                                   d="M 0,0 C -6.75,-1.136 -12.937,-3.408 -19.687,-5.679" /><g
                                   id="g310"><path
                                   id="path312"
                                   style="fill:none;stroke:#231f20;stroke-width:0.26499999;stroke-linecap:butt;stroke-linejoin:miter;stroke-miterlimit:1;stroke-dasharray:none;stroke-opacity:1"
                                   d="M 0,0 C -6.75,-1.136 -12.937,-3.408 -19.687,-5.679" /><g
                                   transform="translate(117.561,-15.333)"
                                   id="g314"><path
                                   id="path316"
                                   style="fill:none;stroke:#231f20;stroke-width:0.26499999;stroke-linecap:butt;stroke-linejoin:miter;stroke-miterlimit:1;stroke-dasharray:none;stroke-opacity:1"
                                   d="M 0,0 10.125,10.222" /><g
                                   transform="translate(1.125,13.061)"
                                   id="g318"><path
                                   id="path320"
                                   style="fill:none;stroke:#231f20;stroke-width:0.26499999;stroke-linecap:butt;stroke-linejoin:miter;stroke-miterlimit:1;stroke-dasharray:none;stroke-opacity:1"
                                   d="M 0,0 7.875,-15.333" /><g
                                   transform="translate(0,-15.333)"
                                   id="g322"><path
                                   id="path324"
                                   style="fill:none;stroke:#231f20;stroke-width:0.26499999;stroke-linecap:butt;stroke-linejoin:miter;stroke-miterlimit:1;stroke-dasharray:none;stroke-opacity:1"
                                   d="M 0,0 V 0" /><g
                                   transform="translate(-0.562,0.567)"
                                   id="g326"><path
                                   id="path328"
                                   style="fill:none;stroke:#231f20;stroke-width:0.26499999;stroke-linecap:butt;stroke-linejoin:miter;stroke-miterlimit:1;stroke-dasharray:none;stroke-opacity:1"
                                   d="M 0,0 9.563,10.79" /><g
                                   transform="translate(0,13.629)"
                                   id="g330"><path
                                   id="path332"
                                   style="fill:none;stroke:#231f20;stroke-width:0.26499999;stroke-linecap:butt;stroke-linejoin:miter;stroke-miterlimit:1;stroke-dasharray:none;stroke-opacity:1"
                                   d="M 0,0 7.875,-15.332" /></g></g></g></g></g></g></g></g></g></g></g></g></g></g></g></g></g></g></g></g></g></g></g></g></g></g></g></g><g
       transform="translate(377.194,82.089)"
       id="g334"><path
         id="path336"
         style="fill:#b8dbe6;fill-opacity:1;fill-rule:nonzero;stroke:#b8dbe6;stroke-width:0.26499999;stroke-linecap:butt;stroke-linejoin:miter;stroke-miterlimit:1;stroke-dasharray:none;stroke-opacity:1"
         d="M 0,0 C 1.125,0 2.25,-1.135 2.25,-3.407 2.25,-5.11 1.125,-6.815 0,-6.815 c -1.687,0 -2.25,1.705 -2.25,3.408 C -2.25,-1.135 -1.687,0 0,0" /></g><g
       transform="translate(382.819,78.682)"
       id="g338"><path
         id="path340"
         style="fill:#b8dbe6;fill-opacity:1;fill-rule:nonzero;stroke:none"
         d="m 0,0 c 0,5.68 -2.812,10.79 -5.625,10.79 h -173.247 c -3.375,0 -5.625,-5.11 -5.625,-10.79 0,-6.246 2.25,-10.789 5.625,-10.789 H -5.625 C -2.812,-10.789 0,-6.246 0,0" /></g><g
       transform="translate(382.819,78.682)"
       id="g342"><path
         id="path344"
         style="fill:none;stroke:#231f20;stroke-width:0.5;stroke-linecap:butt;stroke-linejoin:miter;stroke-miterlimit:1;stroke-dasharray:none;stroke-opacity:1"
         d="m 0,0 c 0,5.68 -2.812,10.79 -5.625,10.79 h -173.247 c -3.375,0 -5.625,-5.11 -5.625,-10.79 0,-6.246 2.25,-10.789 5.625,-10.789 H -5.625 C -2.812,-10.789 0,-6.246 0,0 Z" /></g><g
       transform="translate(377.194,89.472)"
       id="g346"><path
         id="path348"
         style="fill:none;stroke:#231f20;stroke-width:0.5;stroke-linecap:butt;stroke-linejoin:miter;stroke-miterlimit:1;stroke-dasharray:none;stroke-opacity:1"
         d="m 0,0 c -3.375,0 -5.625,-5.11 -5.625,-10.79 0,-6.246 2.25,-10.789 5.625,-10.789" /><g
         transform="translate(-3.375,-2.839)"
         id="g350"><path
           id="path352"
           style="fill:none;stroke:#231f20;stroke-width:0.5;stroke-linecap:butt;stroke-linejoin:miter;stroke-miterlimit:1;stroke-dasharray:none;stroke-opacity:1"
           d="M 0,0 C -26.436,-2.84 -52.874,-9.086 -77.061,-18.74" /><g
           transform="translate(-2.25,-13.061)"
           id="g354"><path
             id="path356"
             style="fill:none;stroke:#231f20;stroke-width:0.5;stroke-linecap:butt;stroke-linejoin:miter;stroke-miterlimit:1;stroke-dasharray:none;stroke-opacity:1"
             d="M 0,0 C -11.25,-1.136 -21.936,-3.407 -33.186,-5.679" /><g
             transform="translate(-38.811,15.9)"
             id="g358"><path
               id="path360"
               style="fill:none;stroke:#231f20;stroke-width:0.5;stroke-linecap:butt;stroke-linejoin:miter;stroke-miterlimit:1;stroke-dasharray:none;stroke-opacity:1"
               d="M 0,0 C -24.75,-4.543 -48.937,-11.357 -71.999,-21.579" /><g
               transform="translate(-46.687)"
               id="g362"><path
                 id="path364"
                 style="fill:none;stroke:#231f20;stroke-width:0.5;stroke-linecap:butt;stroke-linejoin:miter;stroke-miterlimit:1;stroke-dasharray:none;stroke-opacity:1"
                 d="M 0,0 C -17.437,-4.543 -33.749,-9.653 -50.061,-17.036" /></g></g></g></g></g><g
       transform="translate(373.819,72.435)"
       id="g366"><path
         id="path368"
         style="fill:none;stroke:#231f20;stroke-width:0.26499999;stroke-linecap:butt;stroke-linejoin:miter;stroke-miterlimit:1;stroke-dasharray:none;stroke-opacity:1"
         d="M 0,0 V 0" /></g><g
       transform="translate(250.071,88.904)"
       id="g370"><path
         id="path372"
         style="fill:none;stroke:#231f20;stroke-width:0.5;stroke-linecap:butt;stroke-linejoin:miter;stroke-miterlimit:1;stroke-dasharray:none;stroke-opacity:1"
         d="M 0,0 C -5.062,-1.136 -9.562,-2.84 -14.624,-3.976" /></g><g
       transform="translate(373.819,72.435)"
       id="g374"><path
         id="path376"
         style="fill:none;stroke:#231f20;stroke-width:0.26499999;stroke-linecap:butt;stroke-linejoin:miter;stroke-miterlimit:1;stroke-dasharray:none;stroke-opacity:1"
         d="M 0,0 V 0" /></g><g
       transform="translate(372.132,84.929)"
       id="g378"><path
         id="path380"
         style="fill:none;stroke:#231f20;stroke-width:0.5;stroke-linecap:butt;stroke-linejoin:miter;stroke-miterlimit:1;stroke-dasharray:none;stroke-opacity:1"
         d="M 0,0 C -24.749,-2.84 -48.936,-8.518 -72.561,-17.036" /><g
         transform="translate(0,-12.493)"
         id="g382"><path
           id="path384"
           style="fill:none;stroke:#231f20;stroke-width:0.5;stroke-linecap:butt;stroke-linejoin:miter;stroke-miterlimit:1;stroke-dasharray:none;stroke-opacity:1"
           d="M 0,0 C -9.562,-1.136 -19.124,-2.839 -28.686,-4.543" /><g
           transform="translate(-32.061,16.469)"
           id="g386"><path
             id="path388"
             style="fill:none;stroke:#231f20;stroke-width:0.5;stroke-linecap:butt;stroke-linejoin:miter;stroke-miterlimit:1;stroke-dasharray:none;stroke-opacity:1"
             d="M 0,0 C -26.438,-3.408 -52.312,-10.79 -77.062,-21.012" /><g
             transform="translate(-48.937)"
             id="g390"><path
               id="path392"
               style="fill:none;stroke:#231f20;stroke-width:0.5;stroke-linecap:butt;stroke-linejoin:miter;stroke-miterlimit:1;stroke-dasharray:none;stroke-opacity:1"
               d="M 0,0 C -19.124,-3.976 -37.687,-9.654 -55.686,-17.604" /><g
               transform="translate(-36.562)"
               id="g394"><path
                 id="path396"
                 style="fill:none;stroke:#231f20;stroke-width:0.5;stroke-linecap:butt;stroke-linejoin:miter;stroke-miterlimit:1;stroke-dasharray:none;stroke-opacity:1"
                 d="M 0,0 C -6.75,-1.136 -12.937,-3.408 -19.687,-5.679" /><g
                 transform="translate(117.561,-15.333)"
                 id="g398"><path
                   id="path400"
                   style="fill:none;stroke:#231f20;stroke-width:0.5;stroke-linecap:butt;stroke-linejoin:miter;stroke-miterlimit:1;stroke-dasharray:none;stroke-opacity:1"
                   d="M 0,0 10.125,10.222" /><g
                   transform="translate(1.125,13.061)"
                   id="g402"><path
                     id="path404"
                     style="fill:none;stroke:#231f20;stroke-width:0.5;stroke-linecap:butt;stroke-linejoin:miter;stroke-miterlimit:1;stroke-dasharray:none;stroke-opacity:1"
                     d="M 0,0 7.875,-15.333" /></g></g></g></g></g></g></g><g
       transform="translate(373.257,71.3)"
       id="g406"><path
         id="path408"
         style="fill:none;stroke:#231f20;stroke-width:0.26499999;stroke-linecap:butt;stroke-linejoin:miter;stroke-miterlimit:1;stroke-dasharray:none;stroke-opacity:1"
         d="M 0,0 V 0" /></g><g
       transform="translate(372.694,71.867)"
       id="g410"><path
         id="path412"
         style="fill:none;stroke:#231f20;stroke-width:0.5;stroke-linecap:butt;stroke-linejoin:miter;stroke-miterlimit:1;stroke-dasharray:none;stroke-opacity:1"
         d="M 0,0 9.563,10.79" /><g
         transform="translate(0,13.629)"
         id="g414"><path
           id="path416"
           style="fill:none;stroke:#231f20;stroke-width:0.5;stroke-linecap:butt;stroke-linejoin:miter;stroke-miterlimit:1;stroke-dasharray:none;stroke-opacity:1"
           d="M 0,0 7.875,-15.332" /></g></g><g
       transform="translate(377.194,82.089)"
       id="g418"><path
         id="path420"
         style="fill:#b8dbe6;fill-opacity:1;fill-rule:nonzero;stroke:#b8dbe6;stroke-width:0.26499999;stroke-linecap:butt;stroke-linejoin:miter;stroke-miterlimit:1;stroke-dasharray:none;stroke-opacity:1"
         d="M 0,0 C 1.125,0 2.25,-1.135 2.25,-3.407 2.25,-5.11 1.125,-6.815 0,-6.815 c -1.687,0 -2.25,1.705 -2.25,3.408 C -2.25,-1.135 -1.687,0 0,0" /></g><g
       transform="translate(373.257,71.3)"
       id="g422"><path
         id="path424"
         style="fill:none;stroke:#231f20;stroke-width:0.26499999;stroke-linecap:butt;stroke-linejoin:miter;stroke-miterlimit:1;stroke-dasharray:none;stroke-opacity:1"
         d="M 0,0 V 0" /></g><g
       transform="translate(377.194,82.089)"
       id="g426"><path
         id="path428"
         style="fill:#b8dbe6;fill-opacity:1;fill-rule:nonzero;stroke:#b8dbe6;stroke-width:0.26499999;stroke-linecap:butt;stroke-linejoin:miter;stroke-miterlimit:1;stroke-dasharray:none;stroke-opacity:1"
         d="M 0,0 C 1.125,0 2.25,-1.135 2.25,-3.407 2.25,-5.11 1.125,-6.815 0,-6.815 c -1.687,0 -2.25,1.705 -2.25,3.408 C -2.25,-1.135 -1.687,0 0,0" /></g><path
       id="path430"
       style="fill:none;stroke:#231f20;stroke-width:0.25;stroke-linecap:butt;stroke-linejoin:miter;stroke-miterlimit:1;stroke-dasharray:2;stroke-dashoffset:0;stroke-opacity:1"
       d="m 239.557,89.415 c -3.375,0 -5.625,-5.111 -5.625,-10.791 0,-6.246 2.25,-10.789 5.625,-10.789" /><g
       transform="translate(373.119,142.75)"
       id="g432"><path
         id="path434"
         style="fill:#231f20;fill-opacity:1;fill-rule:nonzero;stroke:#231f20;stroke-width:1;stroke-linecap:butt;stroke-linejoin:miter;stroke-miterlimit:4;stroke-dasharray:none;stroke-opacity:1"
         d="M 0,0 H -129.5" /></g><g
       transform="translate(241.848,141.981)"
       id="g436"><path
         id="path438"
         style="fill:#231f20;fill-opacity:1;fill-rule:nonzero;stroke:none"
         d="M 0,0 C 1.24,-0.375 2.046,-0.72 3.041,-1.119 V 2.665 C 2.685,2.495 1.24,1.92 0,1.546 -1.327,1.145 -2.53,0.87 -3.31,0.772 -2.53,0.675 -1.327,0.4 0,0" /></g><g
       transform="translate(374.891,143.519)"
       id="g440"><path
         id="path442"
         style="fill:#231f20;fill-opacity:1;fill-rule:nonzero;stroke:none"
         d="M 0,0 C -1.24,0.375 -2.046,0.72 -3.041,1.119 V -2.665 C -2.685,-2.495 -1.24,-1.92 0,-1.546 1.327,-1.145 2.53,-0.87 3.31,-0.773 2.53,-0.675 1.327,-0.4 0,0" /></g><g
       transform="translate(372.369,182.75)"
       id="g444"><path
         id="path446"
         style="fill:#231f20;fill-opacity:1;fill-rule:nonzero;stroke:#231f20;stroke-width:1;stroke-linecap:butt;stroke-linejoin:miter;stroke-miterlimit:4;stroke-dasharray:none;stroke-opacity:1"
         d="M 0,0 H -329.5" /></g><g
       transform="translate(41.098,181.981)"
       id="g448"><path
         id="path450"
         style="fill:#231f20;fill-opacity:1;fill-rule:nonzero;stroke:none"
         d="M 0,0 C 1.24,-0.375 2.046,-0.72 3.041,-1.119 V 2.665 C 2.685,2.495 1.24,1.92 0,1.546 -1.327,1.145 -2.53,0.87 -3.311,0.772 -2.53,0.675 -1.327,0.4 0,0" /></g><g
       transform="translate(374.141,183.519)"
       id="g452"><path
         id="path454"
         style="fill:#231f20;fill-opacity:1;fill-rule:nonzero;stroke:none"
         d="M 0,0 C -1.24,0.375 -2.046,0.72 -3.041,1.119 V -2.665 C -2.685,-2.495 -1.24,-1.92 0,-1.546 1.327,-1.145 2.53,-0.87 3.31,-0.772 2.53,-0.675 1.327,-0.4 0,0" /></g><g
       transform="translate(237.119,92.75)"
       id="g456"><path
         id="path458"
         style="fill:#231f20;fill-opacity:1;fill-rule:nonzero;stroke:#231f20;stroke-width:0.5;stroke-linecap:butt;stroke-linejoin:miter;stroke-miterlimit:4;stroke-dasharray:none;stroke-opacity:1"
         d="M 0,0 V 58" /></g><g
       transform="translate(378.201,195.746)"
       id="g460"><path
         id="path462"
         style="fill:#231f20;fill-opacity:1;fill-rule:nonzero;stroke:#231f20;stroke-width:0.5;stroke-linecap:butt;stroke-linejoin:miter;stroke-miterlimit:4;stroke-dasharray:none;stroke-opacity:1"
         d="M 0,0 V -100" /></g><g
       transform="translate(382.542,79.398)"
       id="g464"><path
         id="path466"
         style="fill:#231f20;fill-opacity:1;fill-rule:nonzero;stroke:none"
         d="m 0,0 c -0.619,0.188 -1.023,0.359 -1.52,0.559 v -1.891 c 0.178,0.084 0.901,0.371 1.52,0.559 0.664,0.201 1.266,0.337 1.656,0.386 C 1.266,-0.338 0.664,-0.201 0,0" /></g><g
       transform="translate(34.953,79.014)"
       id="g468"><path
         id="path470"
         style="fill:none;stroke:#231f20;stroke-width:0.5;stroke-linecap:butt;stroke-linejoin:miter;stroke-miterlimit:4;stroke-dasharray:none;stroke-opacity:1"
         d="M 0,0 H 59.705" /></g><g
       transform="translate(95.543,79.398)"
       id="g472"><path
         id="path474"
         style="fill:#231f20;fill-opacity:1;fill-rule:nonzero;stroke:none"
         d="M 0,0 C -0.62,0.188 -1.023,0.36 -1.521,0.56 V -1.332 C -1.342,-1.247 -0.62,-0.96 0,-0.773 0.664,-0.572 1.265,-0.435 1.655,-0.386 1.265,-0.337 0.664,-0.2 0,0" /></g><path
       id="path476"
       style="fill:none;stroke:#231f20;stroke-width:1;stroke-linecap:butt;stroke-linejoin:miter;stroke-miterlimit:4;stroke-dasharray:4;stroke-dashoffset:0;stroke-opacity:1"
       d="m 35.619,3.75 h 106.5 l 64.5,34 v 23.5 h 30" /><g
       transform="translate(236.786,58.417)"
       id="g478"><path
         id="path480"
         style="fill:none;stroke:#231f20;stroke-width:1;stroke-linecap:butt;stroke-linejoin:miter;stroke-miterlimit:4;stroke-dasharray:none;stroke-opacity:1"
         d="M 0,0 V 6.333" /><g
         transform="translate(-201,-58)"
         id="g482"><path
           id="path484"
           style="fill:none;stroke:#231f20;stroke-width:1;stroke-linecap:butt;stroke-linejoin:miter;stroke-miterlimit:4;stroke-dasharray:none;stroke-opacity:1"
           d="M 0,0 V 7" /></g></g></g></svg>