<?xml version="1.0" encoding="UTF-8" standalone="no"?>
<svg
   xmlns:dc="http://purl.org/dc/elements/1.1/"
   xmlns:cc="http://creativecommons.org/ns#"
   xmlns:rdf="http://www.w3.org/1999/02/22-rdf-syntax-ns#"
   xmlns:svg="http://www.w3.org/2000/svg"
   xmlns="http://www.w3.org/2000/svg"
   viewBox="0 0 547.12134 249.33333"
   height="249.33333"
   width="547.12134"
   xml:space="preserve"
   id="svg2"
   version="1.1"><metadata
     id="metadata8"><rdf:RDF><cc:Work
         rdf:about=""><dc:format>image/svg+xml</dc:format><dc:type
           rdf:resource="http://purl.org/dc/dcmitype/StillImage" /></cc:Work></rdf:RDF></metadata><defs
     id="defs6" /><g
     transform="matrix(1.3333333,0,0,-1.3333333,0,249.33333)"
     id="g10"><g
       transform="translate(360.521,181.5)"
       id="g12"><path
         id="path14"
         style="fill:none;stroke:#231f20;stroke-width:1;stroke-linecap:butt;stroke-linejoin:miter;stroke-miterlimit:1;stroke-dasharray:none;stroke-opacity:1"
         d="M 0,0 22.667,-164.333 24.583,0" /><g
         transform="translate(49.32)"
         id="g16"><path
           id="path18"
           style="fill:none;stroke:#231f20;stroke-width:1;stroke-linecap:butt;stroke-linejoin:miter;stroke-miterlimit:1;stroke-dasharray:none;stroke-opacity:1"
           d="m 0,0 c 0,2.761 -11.075,5 -24.737,5 -13.662,0 -24.737,-2.239 -24.737,-5 0,-2.761 11.075,-5 24.737,-5 C -11.075,-5 0,-2.761 0,0 Z" /></g></g><text
       id="text26"
       style="font-variant:normal;font-weight:normal;font-stretch:normal;font-size:10px;font-family:Helvetica;-inkscape-font-specification:Helvetica;writing-mode:lr-tb;fill:#231f20;fill-opacity:1;fill-rule:nonzero;stroke:none"
       transform="matrix(1,0,0,-1,248.1557,139.333)"><tspan
         id="tspan20"
         y="0"
         x="0 2.78 8.3400002 13.9 16.120001 21.68 27.24 29.459999 32.790001 38.349998 43.349998 46.130001 48.349998 53.91 59.470001 65.029999">tool_direction_</tspan><tspan
         id="tspan22"
         y="12"
         x="-11.74 -3.4100001 2.1500001 7.1500001 9.3699999 17.6 23.16 31.49 37.049999 42.610001 47.869999 52.869999 55.09 60.650002 63.43 65.650002 71.209999">maximum_deviation</tspan><tspan
         id="tspan24"
         y="59.403"
         x="-21.469999 -15.91 -10.35 -7.5700002 -2.01 3.55 11.88 17.440001 22.440001 24.66 32.889999 38.450001 46.779999 52.34 57.900002 63.16 68.160004 70.379997 75.940002 78.720001 80.940002 86.5">path_maximum_deviation</tspan></text>
<g
       transform="translate(0.18748,23.75)"
       id="g28"><path
         id="path30"
         style="fill:none;stroke:#231f20;stroke-width:1;stroke-linecap:butt;stroke-linejoin:miter;stroke-miterlimit:4;stroke-dasharray:none;stroke-opacity:1"
         d="M 0,0 H 400" /></g><path
       id="path32"
       style="fill:none;stroke:#231f20;stroke-width:1;stroke-linecap:butt;stroke-linejoin:miter;stroke-miterlimit:4;stroke-dasharray:12;stroke-dashoffset:0;stroke-opacity:1"
       d="M 0.18748,0.50001 H 400.188" /><path
       id="path34"
       style="fill:none;stroke:#231f20;stroke-width:1;stroke-linecap:butt;stroke-linejoin:miter;stroke-miterlimit:4;stroke-dasharray:12;stroke-dashoffset:0;stroke-opacity:1"
       d="M 0.18748,47 H 400.188" /><g
       transform="translate(397.464,21.948)"
       id="g36"><path
         id="path38"
         style="fill:none;stroke:#231f20;stroke-width:2;stroke-linecap:butt;stroke-linejoin:miter;stroke-miterlimit:4;stroke-dasharray:none;stroke-opacity:1"
         d="m 0,0 c -11.216,-5.619 -23.877,-8.782 -37.276,-8.782 -24.292,0 -45.597,10.206 -60.829,26.789 -19.44,-17.765 -44.762,-28.789 -73.171,-28.789 -26.536,0 -50.393,9.742 -69.328,25.465 -20.299,-17.11 -46.046,-27.131 -74.673,-27.131 -31.708,0 -60.462,12.649 -81.491,33.177" /></g><text
       id="text44"
       style="font-variant:normal;font-weight:normal;font-stretch:normal;font-size:10px;font-family:Helvetica;-inkscape-font-specification:Helvetica;writing-mode:lr-tb;fill:#231f20;fill-opacity:1;fill-rule:nonzero;stroke:none"
       transform="matrix(1,0,0,-1,20.2282,113.8335)"><tspan
         id="tspan40"
         y="0"
         x="0 5.5599999 11.12 16.120001 18.34 23.34 28.34 33.900002 37.529999 42.279999 47.84 50.619999 56.18 61.740002 64.519997 66.739998 72.300003 77.860001 83.419998">basiccurve defined</tspan><tspan
         id="tspan42"
         y="12"
         x="9.0100002 14.37 19.370001 22.15 24.93 30.49 36.049999 38.830002 41.610001 47.169998 52.73 54.950001 60.509998 66.07 68.849998">by the toolpath</tspan></text>
<g
       transform="translate(59.188,91.834)"
       id="g46"><path
         id="path48"
         style="fill:none;stroke:#231f20;stroke-width:1;stroke-linecap:butt;stroke-linejoin:miter;stroke-miterlimit:4;stroke-dasharray:none;stroke-opacity:1"
         d="m 0,0 c 0,0 9,-19.334 16.783,-31.235 6.884,-12.099 5.894,11.821 14.44,5.535 l 17.444,-37.634" /></g><g
       transform="translate(109.297,27.216)"
       id="g50"><path
         id="path52"
         style="fill:#231f20;fill-opacity:1;fill-rule:nonzero;stroke:none"
         d="M 0,0 C -0.182,1.282 -0.207,2.159 -0.264,3.229 L -3.696,1.638 C -3.393,1.386 -2.264,0.317 -1.402,-0.65 -0.48,-1.686 0.274,-2.662 0.691,-3.329 0.452,-2.58 0.194,-1.372 0,0" /></g><g
       transform="translate(323.021,72)"
       id="g54"><path
         id="path56"
         style="fill:none;stroke:#231f20;stroke-width:1;stroke-linecap:butt;stroke-linejoin:miter;stroke-miterlimit:4;stroke-dasharray:none;stroke-opacity:1"
         d="m 0,0 c 0,0 4,-10.25 6,-10.5 2,-0.25 1.5,4.25 4,4 2.5,-0.25 7,-11 7,-11" /></g><g
       transform="translate(341.414,53.163)"
       id="g58"><path
         id="path60"
         style="fill:#231f20;fill-opacity:1;fill-rule:nonzero;stroke:none"
         d="M 0,0 C -0.133,1.288 -0.126,2.165 -0.142,3.237 L -3.632,1.776 C -3.338,1.513 -2.25,0.402 -1.426,-0.597 -0.543,-1.666 0.174,-2.67 0.566,-3.353 0.354,-2.595 0.143,-1.379 0,0" /></g><g
       transform="translate(313.521,72)"
       id="g62"><path
         id="path64"
         style="fill:none;stroke:#231f20;stroke-width:1;stroke-linecap:butt;stroke-linejoin:miter;stroke-miterlimit:4;stroke-dasharray:none;stroke-opacity:1"
         d="m 0,0 c 0,0 6.5,-39.25 9,-39.5 2.5,-0.25 1.75,8.5 4.5,8.5 2.75,0 11,-35.5 11,-35.5" /></g><g
       transform="translate(339.171,3.9487)"
       id="g66"><path
         id="path68"
         style="fill:#231f20;fill-opacity:1;fill-rule:nonzero;stroke:none"
         d="M 0,0 C 0.084,1.2925 0.238,2.1558 0.401,3.2149 L -3.284,2.3584 c 0.245,-0.3086 1.133,-1.5854 1.778,-2.7085 0.691,-1.2016 1.231,-2.312 1.503,-3.0498 C -0.085,-2.6176 -0.09,-1.3833 0,0" /></g><text
       id="text72"
       style="font-variant:normal;font-weight:normal;font-stretch:normal;font-size:10px;font-family:Helvetica;-inkscape-font-specification:Helvetica;writing-mode:lr-tb;fill:#231f20;fill-opacity:1;fill-rule:nonzero;stroke:none"
       transform="matrix(1,0,0,-1,22.4682,151.5137)"><tspan
         id="tspan70"
         y="0"
         x="0 5.5599999 10.56 13.34 18.9 24.459999 26.68 29.459999 35.02 40.580002 43.360001 48.919998 51.700001 57.259998 60.040001 62.82 65.599998 71.160004 76.720001">actual path of tool</tspan></text>
<g
       transform="translate(114.521,154.5)"
       id="g74"><path
         id="path76"
         style="fill:none;stroke:#231f20;stroke-width:1;stroke-linecap:butt;stroke-linejoin:miter;stroke-miterlimit:4;stroke-dasharray:none;stroke-opacity:1"
         d="m 0,0 c 0,0 19,3.5 28,-8 9,-11.5 20,-107 20,-107" /></g><g
       transform="translate(163.478,37.823)"
       id="g78"><path
         id="path80"
         style="fill:#231f20;fill-opacity:1;fill-rule:nonzero;stroke:none"
         d="M 0,0 C 0.237,1.273 0.493,2.112 0.781,3.144 L -2.98,2.733 C -2.773,2.397 -2.044,1.024 -1.537,-0.168 -0.994,-1.444 -0.59,-2.61 -0.408,-3.376 -0.396,-2.589 -0.254,-1.363 0,0" /></g><text
       id="text84"
       style="font-variant:normal;font-weight:normal;font-stretch:normal;font-size:10px;font-family:Helvetica;-inkscape-font-specification:Helvetica;writing-mode:lr-tb;fill:#231f20;fill-opacity:1;fill-rule:nonzero;stroke:none"
       transform="matrix(1,0,0,-1,255.9406,165.0142)"><tspan
         id="tspan82"
         y="0"
         x="0 2.22 5 10 15.56 18.34 23.9 29.459999 31.68 37.240002 42.240002 44.459999">its_toolaxis</tspan></text>
<g
       transform="translate(384.276,121.789)"
       id="g86"><path
         id="path88"
         style="fill:none;stroke:#231f20;stroke-width:1;stroke-linecap:butt;stroke-linejoin:miter;stroke-miterlimit:1;stroke-dasharray:none;stroke-opacity:1"
         d="m 0,0 c -1.79,0.303 -3.629,0.461 -5.505,0.461 -3.51,0 -6.891,-0.552 -10.06,-1.574" /><g
         transform="translate(-65.255,18.711)"
         id="g90"><path
           id="path92"
           style="fill:none;stroke:#231f20;stroke-width:1;stroke-linecap:butt;stroke-linejoin:miter;stroke-miterlimit:1;stroke-dasharray:none;stroke-opacity:1"
           d="m 0,0 c 0,0 22.25,10 27.25,10.75 5,0.75 18.25,5 23.25,-0.75 5,-5.75 6,-18.25 6,-18.25" /></g></g><g
       transform="translate(376.429,130.545)"
       id="g94"><path
         id="path96"
         style="fill:#231f20;fill-opacity:1;fill-rule:nonzero;stroke:none"
         d="M 0,0 C 0.274,1.266 0.554,2.097 0.873,3.121 L -2.899,2.819 c 0.197,-0.342 0.886,-1.736 1.358,-2.942 0.505,-1.291 0.875,-2.469 1.035,-3.239 C -0.471,-2.576 -0.294,-1.355 0,0" /></g><g
       transform="translate(317.188,168.5)"
       id="g98"><path
         id="path100"
         style="fill:none;stroke:#231f20;stroke-width:1;stroke-linecap:butt;stroke-linejoin:miter;stroke-miterlimit:1;stroke-dasharray:none;stroke-opacity:1"
         d="m 0,0 c 0,0 39.333,3 49,1 9.667,-2 12.667,-5.333 12.667,-5.333" /></g><g
       transform="translate(380.611,163.364)"
       id="g102"><path
         id="path104"
         style="fill:#231f20;fill-opacity:1;fill-rule:nonzero;stroke:none"
         d="M 0,0 C -0.551,1.172 -0.834,2.002 -1.203,3.008 L -4.015,0.477 c 0.364,-0.151 1.758,-0.84 2.866,-1.511 1.186,-0.718 2.195,-1.429 2.79,-1.944 C 1.191,-2.333 0.59,-1.255 0,0" /></g></g></svg>