<?xml version="1.0" encoding="UTF-8" standalone="no"?>
<svg
   xmlns:dc="http://purl.org/dc/elements/1.1/"
   xmlns:cc="http://creativecommons.org/ns#"
   xmlns:rdf="http://www.w3.org/1999/02/22-rdf-syntax-ns#"
   xmlns:svg="http://www.w3.org/2000/svg"
   xmlns="http://www.w3.org/2000/svg"
   viewBox="0 0 575.57599 192.56"
   height="192.56"
   width="575.57599"
   xml:space="preserve"
   id="svg2"
   version="1.1"><metadata
     id="metadata8"><rdf:RDF><cc:Work
         rdf:about=""><dc:format>image/svg+xml</dc:format><dc:type
           rdf:resource="http://purl.org/dc/dcmitype/StillImage" /></cc:Work></rdf:RDF></metadata><defs
     id="defs6" /><g
     transform="matrix(1.3333333,0,0,-1.3333333,0,192.56)"
     id="g10"><g
       transform="translate(254.366,108.96)"
       id="g12"><path
         id="path14"
         style="fill:#ffffff;fill-opacity:1;fill-rule:nonzero;stroke:#231f20;stroke-width:1;stroke-linecap:butt;stroke-linejoin:miter;stroke-miterlimit:1;stroke-dasharray:none;stroke-opacity:1"
         d="m 0,0 v -33.641 h 87.066 v 15.291 l -0.751,6.117 -0.75,2.676 -0.75,1.912 -1.501,1.911 -0.751,1.146 -1.501,1.148 -1.876,1.146 -2.252,0.765 -3.378,0.764 L 69.053,0 Z" /></g><g
       transform="translate(290.676,23.493)"
       id="g16"><path
         id="path18"
         style="fill:#dee0e4;fill-opacity:1;fill-rule:nonzero;stroke:none"
         d="M 0,0 V 15.291 L 51.039,67.28 V 51.989 L 0,0" /></g><g
       transform="translate(290.676,38.784)"
       id="g20"><path
         id="path22"
         style="fill:#dee0e4;fill-opacity:1;fill-rule:nonzero;stroke:none"
         d="M 0,0 -0.75,6.116 50.288,58.105 51.039,51.989 0,0" /></g><g
       transform="translate(290.676,38.784)"
       id="g24"><path
         id="path26"
         style="fill:#dee0e4;fill-opacity:1;fill-rule:nonzero;stroke:none"
         d="M 0,0 -0.375,3.058 50.663,55.047 51.039,51.989 0,0" /></g><g
       transform="translate(290.301,41.842)"
       id="g28"><path
         id="path30"
         style="fill:#dddfe3;fill-opacity:1;fill-rule:nonzero;stroke:none"
         d="M 0,0 -0.375,3.058 50.663,55.047 51.038,51.989 0,0" /></g><g
       transform="translate(289.925,44.9)"
       id="g32"><path
         id="path34"
         style="fill:#dcdee2;fill-opacity:1;fill-rule:nonzero;stroke:none"
         d="m 0,0 -0.751,2.676 51.04,51.607 0.75,-2.294 L 0,0" /></g><g
       transform="translate(289.925,44.9)"
       id="g36"><path
         id="path38"
         style="fill:#dcdee2;fill-opacity:1;fill-rule:nonzero;stroke:none"
         d="M 0,0 V 0.765 L 50.664,52.754 51.039,51.989 0,0" /></g><g
       transform="translate(289.925,45.665)"
       id="g40"><path
         id="path42"
         style="fill:#dbdee2;fill-opacity:1;fill-rule:nonzero;stroke:none"
         d="m 0,0 -0.376,0.765 51.04,51.989 V 51.989 L 0,0" /></g><g
       transform="translate(289.55,46.429)"
       id="g44"><path
         id="path46"
         style="fill:#dadde1;fill-opacity:1;fill-rule:nonzero;stroke:none"
         d="M 0,0 -0.375,1.147 50.664,52.753 51.039,51.989 0,0" /></g><g
       transform="translate(289.175,47.576)"
       id="g48"><path
         id="path50"
         style="fill:#d9dbe0;fill-opacity:1;fill-rule:nonzero;stroke:none"
         d="M 0,0 -0.75,1.911 50.288,53.9 51.039,51.606 0,0" /></g><g
       transform="translate(289.175,47.576)"
       id="g52"><path
         id="path54"
         style="fill:#d9dbe0;fill-opacity:1;fill-rule:nonzero;stroke:none"
         d="M 0,0 V 0.382 L 50.664,52.371 51.039,51.606 0,0" /></g><g
       transform="translate(289.175,47.958)"
       id="g56"><path
         id="path58"
         style="fill:#d6d9dd;fill-opacity:1;fill-rule:nonzero;stroke:none"
         d="M 0,0 -0.375,0.765 50.288,52.753 50.664,51.989 0,0" /></g><g
       transform="translate(288.799,48.723)"
       id="g60"><path
         id="path62"
         style="fill:#d4d7dc;fill-opacity:1;fill-rule:nonzero;stroke:none"
         d="M 0,0 -0.375,0.765 50.664,52.753 V 51.989 L 0,0" /></g><g
       transform="translate(288.424,49.487)"
       id="g64"><path
         id="path66"
         style="fill:#d3d6dc;fill-opacity:1;fill-rule:nonzero;stroke:none"
         d="M 0,0 -1.501,1.911 49.538,53.9 51.039,51.989 0,0" /></g><g
       transform="translate(288.424,49.487)"
       id="g68"><path
         id="path70"
         style="fill:#d3d6dc;fill-opacity:1;fill-rule:nonzero;stroke:none"
         d="M 0,0 -0.375,0.382 50.664,52.372 51.039,51.989 0,0" /></g><g
       transform="translate(288.049,49.87)"
       id="g72"><path
         id="path74"
         style="fill:#d1d5da;fill-opacity:1;fill-rule:nonzero;stroke:none"
         d="M 0,0 -0.375,0.382 50.664,52.371 51.039,51.989 0,0" /></g><g
       transform="translate(287.674,50.252)"
       id="g76"><path
         id="path78"
         style="fill:#d1d4d9;fill-opacity:1;fill-rule:nonzero;stroke:none"
         d="M 0,0 -0.376,0.765 50.664,52.371 51.039,51.989 0,0" /></g><g
       transform="translate(287.298,51.017)"
       id="g80"><path
         id="path82"
         style="fill:#d0d3d8;fill-opacity:1;fill-rule:nonzero;stroke:none"
         d="M 0,0 -0.375,0.382 50.664,52.371 51.039,51.606 0,0" /></g><g
       transform="translate(286.923,51.398)"
       id="g84"><path
         id="path86"
         style="fill:#cfd2d8;fill-opacity:1;fill-rule:nonzero;stroke:none"
         d="m 0,0 -0.751,1.147 51.04,51.989 0.75,-1.147 L 0,0" /></g><g
       transform="translate(286.923,51.398)"
       id="g88"><path
         id="path90"
         style="fill:#cfd2d8;fill-opacity:1;fill-rule:nonzero;stroke:none"
         d="M 0,0 -0.375,0.382 50.664,52.372 51.039,51.989 0,0" /></g><g
       transform="translate(286.548,51.781)"
       id="g92"><path
         id="path94"
         style="fill:#caced4;fill-opacity:1;fill-rule:nonzero;stroke:none"
         d="M 0,0 -0.376,0.765 50.664,52.754 51.039,51.989 0,0" /></g><g
       transform="translate(286.172,52.545)"
       id="g96"><path
         id="path98"
         style="fill:#c7cbd1;fill-opacity:1;fill-rule:nonzero;stroke:none"
         d="M 0,0 -1.501,1.147 49.538,52.754 51.039,51.989 0,0" /></g><g
       transform="translate(286.172,52.545)"
       id="g100"><path
         id="path102"
         style="fill:#c7cbd1;fill-opacity:1;fill-rule:nonzero;stroke:none"
         d="M 0,0 -0.375,0.382 50.289,52.371 51.039,51.989 0,0" /></g><g
       transform="translate(285.797,52.928)"
       id="g104"><path
         id="path106"
         style="fill:#c5c9cf;fill-opacity:1;fill-rule:nonzero;stroke:none"
         d="M 0,0 -0.75,0.382 50.288,52.372 50.664,51.989 0,0" /></g><g
       transform="translate(285.047,53.31)"
       id="g108"><path
         id="path110"
         style="fill:#c2c7cd;fill-opacity:1;fill-rule:nonzero;stroke:none"
         d="m 0,0 -0.375,0.382 51.038,51.607 h 0.376 L 0,0" /></g><g
       transform="translate(284.671,53.692)"
       id="g112"><path
         id="path114"
         style="fill:#c0c4ca;fill-opacity:1;fill-rule:nonzero;stroke:none"
         d="M 0,0 -1.876,1.147 49.163,52.753 51.038,51.607 0,0" /></g><g
       transform="translate(284.671,53.692)"
       id="g116"><path
         id="path118"
         style="fill:#c0c4ca;fill-opacity:1;fill-rule:nonzero;stroke:none"
         d="M 0,0 -0.375,0.382 50.288,51.989 51.038,51.607 0,0" /></g><g
       transform="translate(284.296,54.075)"
       id="g120"><path
         id="path122"
         style="fill:#bcc0c7;fill-opacity:1;fill-rule:nonzero;stroke:none"
         d="M 0,0 -0.751,0.382 50.289,51.989 50.664,51.606 0,0" /></g><g
       transform="translate(283.545,54.457)"
       id="g124"><path
         id="path126"
         style="fill:#babfc5;fill-opacity:1;fill-rule:nonzero;stroke:none"
         d="M 0,0 -0.75,0.382 50.289,51.989 51.039,51.606 0,0" /></g><g
       transform="translate(282.795,54.839)"
       id="g128"><path
         id="path130"
         style="fill:#b7bcc3;fill-opacity:1;fill-rule:nonzero;stroke:none"
         d="M 0,0 -2.252,0.764 48.412,52.753 51.039,51.606 0,0" /></g><g
       transform="translate(282.795,54.839)"
       id="g132"><path
         id="path134"
         style="fill:#b7bcc3;fill-opacity:1;fill-rule:nonzero;stroke:none"
         d="M 0,0 H -0.376 L 50.288,51.989 51.039,51.606 0,0" /></g><g
       transform="translate(282.419,54.839)"
       id="g136"><path
         id="path138"
         style="fill:#b4b9c0;fill-opacity:1;fill-rule:nonzero;stroke:none"
         d="M 0,0 -0.75,0.382 50.289,52.371 50.664,51.989 0,0" /></g><g
       transform="translate(281.669,55.221)"
       id="g140"><path
         id="path142"
         style="fill:#b2b8bf;fill-opacity:1;fill-rule:nonzero;stroke:none"
         d="m 0,0 h -0.75 l 51.039,51.989 h 0.75 L 0,0" /></g><g
       transform="translate(280.918,55.221)"
       id="g144"><path
         id="path146"
         style="fill:#b0b5bd;fill-opacity:1;fill-rule:nonzero;stroke:none"
         d="M 0,0 -0.375,0.382 50.288,52.371 51.039,51.989 0,0" /></g><g
       transform="translate(280.543,55.604)"
       id="g148"><path
         id="path150"
         style="fill:#aeb3bb;fill-opacity:1;fill-rule:nonzero;stroke:none"
         d="M 0,0 -3.377,0.765 47.286,52.753 50.664,51.989 0,0" /></g><g
       transform="translate(280.543,55.604)"
       id="g152"><path
         id="path154"
         style="fill:#aeb3bb;fill-opacity:1;fill-rule:nonzero;stroke:none"
         d="m 0,0 -0.75,0.382 50.663,51.607 h 0.751 L 0,0" /></g><g
       transform="translate(279.793,55.986)"
       id="g156"><path
         id="path158"
         style="fill:#adb2b9;fill-opacity:1;fill-rule:nonzero;stroke:none"
         d="M 0,0 H -0.75 L 50.289,51.989 50.664,51.606 0,0" /></g><g
       transform="translate(279.042,55.986)"
       id="g160"><path
         id="path162"
         style="fill:#abb1b8;fill-opacity:1;fill-rule:nonzero;stroke:none"
         d="m 0,0 h -0.751 l 51.039,51.989 h 0.751 L 0,0" /></g><g
       transform="translate(278.292,55.986)"
       id="g164"><path
         id="path166"
         style="fill:#aaafb7;fill-opacity:1;fill-rule:nonzero;stroke:none"
         d="M 0,0 -0.75,0.382 50.288,52.371 51.039,51.989 0,0" /></g><g
       transform="translate(277.541,56.368)"
       id="g168"><path
         id="path170"
         style="fill:#a9afb6;fill-opacity:1;fill-rule:nonzero;stroke:none"
         d="m 0,0 h -0.375 l 50.663,51.989 h 0.751 L 0,0" /></g><g
       transform="translate(277.166,56.368)"
       id="g172"><path
         id="path174"
         style="fill:#a8aeb5;fill-opacity:1;fill-rule:nonzero;stroke:none"
         d="M 0,0 -4.503,0.765 46.536,52.754 50.664,51.989 0,0" /></g><g
       transform="translate(277.166,56.368)"
       id="g176"><path
         id="path178"
         style="fill:#a8aeb5;fill-opacity:1;fill-rule:nonzero;stroke:none"
         d="m 0,0 -0.751,0.382 50.664,51.607 h 0.751 L 0,0" /></g><g
       transform="translate(276.415,56.751)"
       id="g180"><path
         id="path182"
         style="fill:#a6acb3;fill-opacity:1;fill-rule:nonzero;stroke:none"
         d="M 0,0 H -0.75 L 49.913,51.989 50.664,51.606 0,0" /></g><g
       transform="translate(275.665,56.751)"
       id="g184"><path
         id="path186"
         style="fill:#a4aab1;fill-opacity:1;fill-rule:nonzero;stroke:none"
         d="m 0,0 h -0.751 l 51.039,51.989 h 0.376 L 0,0" /></g><g
       transform="translate(274.914,56.751)"
       id="g188"><path
         id="path190"
         style="fill:#a2a8af;fill-opacity:1;fill-rule:nonzero;stroke:none"
         d="m 0,0 h -0.75 l 51.038,51.989 h 0.751 L 0,0" /></g><g
       transform="translate(274.164,56.751)"
       id="g192"><path
         id="path194"
         style="fill:#a0a6ad;fill-opacity:1;fill-rule:nonzero;stroke:none"
         d="m 0,0 -0.751,0.382 51.039,51.607 h 0.751 L 0,0" /></g><g
       transform="translate(273.413,57.133)"
       id="g196"><path
         id="path198"
         style="fill:#9ea5ac;fill-opacity:1;fill-rule:nonzero;stroke:none"
         d="m 0,0 h -0.751 l 51.04,51.989 0.75,-0.382 L 0,0" /></g><g
       transform="translate(272.662,57.133)"
       id="g200"><path
         id="path202"
         style="fill:#9ca3aa;fill-opacity:1;fill-rule:nonzero;stroke:none"
         d="m 0,0 h -69.052 l 51.038,51.989 H 51.039 L 0,0" /></g><g
       transform="translate(203.61,57.133)"
       id="g204"><path
         id="path206"
         style="fill:#c2c7cd;fill-opacity:1;fill-rule:nonzero;stroke:none"
         d="m 0,0 v -33.64 h 87.066 v 15.291 l -0.75,6.116 -0.751,2.676 -0.75,1.911 -1.502,1.912 -0.75,1.147 -1.501,1.147 -1.877,1.146 -2.252,0.765 -3.377,0.764 L 69.052,0 H 0" /></g><g
       transform="translate(203.61,57.133)"
       id="g208"><path
         id="path210"
         style="fill:none;stroke:#e3e4e7;stroke-width:0.25;stroke-linecap:butt;stroke-linejoin:miter;stroke-miterlimit:1;stroke-dasharray:none;stroke-opacity:1"
         d="M 0,0 V -33.64" /></g><g
       transform="translate(203.61,23.493)"
       id="g212"><path
         id="path214"
         style="fill:none;stroke:#b7bcc3;stroke-width:0.25;stroke-linecap:butt;stroke-linejoin:miter;stroke-miterlimit:1;stroke-dasharray:none;stroke-opacity:1"
         d="M 0,0 H 87.066" /></g><g
       transform="translate(290.676,23.493)"
       id="g216"><path
         id="path218"
         style="fill:none;stroke:#ffffff;stroke-width:0.25;stroke-linecap:butt;stroke-linejoin:miter;stroke-miterlimit:1;stroke-dasharray:none;stroke-opacity:1"
         d="m 0,0 v 15.291 l -0.75,6.116 -0.751,2.677 -0.75,1.911" /></g><g
       transform="translate(288.424,49.487)"
       id="g220"><path
         id="path222"
         style="fill:none;stroke:#f3f3f4;stroke-width:0.25;stroke-linecap:butt;stroke-linejoin:miter;stroke-miterlimit:1;stroke-dasharray:none;stroke-opacity:1"
         d="M 0,0 -1.501,1.911" /></g><g
       transform="translate(286.923,51.398)"
       id="g224"><path
         id="path226"
         style="fill:none;stroke:#e1e3e6;stroke-width:0.25;stroke-linecap:butt;stroke-linejoin:miter;stroke-miterlimit:1;stroke-dasharray:none;stroke-opacity:1"
         d="M 0,0 -0.751,1.147" /></g><g
       transform="translate(286.172,52.545)"
       id="g228"><path
         id="path230"
         style="fill:none;stroke:#d5d8dd;stroke-width:0.25;stroke-linecap:butt;stroke-linejoin:miter;stroke-miterlimit:1;stroke-dasharray:none;stroke-opacity:1"
         d="M 0,0 -1.501,1.147" /></g><g
       transform="translate(284.671,53.692)"
       id="g232"><path
         id="path234"
         style="fill:none;stroke:#cdd0d6;stroke-width:0.25;stroke-linecap:butt;stroke-linejoin:miter;stroke-miterlimit:1;stroke-dasharray:none;stroke-opacity:1"
         d="M 0,0 -1.876,1.147" /></g><g
       transform="translate(282.795,54.839)"
       id="g236"><path
         id="path238"
         style="fill:none;stroke:#c7cad0;stroke-width:0.25;stroke-linecap:butt;stroke-linejoin:miter;stroke-miterlimit:1;stroke-dasharray:none;stroke-opacity:1"
         d="M 0,0 -2.252,0.764" /></g><g
       transform="translate(280.543,55.604)"
       id="g240"><path
         id="path242"
         style="fill:none;stroke:#c1c5cc;stroke-width:0.25;stroke-linecap:butt;stroke-linejoin:miter;stroke-miterlimit:1;stroke-dasharray:none;stroke-opacity:1"
         d="M 0,0 -3.377,0.765" /></g><g
       transform="translate(277.166,56.368)"
       id="g244"><path
         id="path246"
         style="fill:none;stroke:#bdc2c8;stroke-width:0.25;stroke-linecap:butt;stroke-linejoin:miter;stroke-miterlimit:1;stroke-dasharray:none;stroke-opacity:1"
         d="M 0,0 -4.503,0.765" /></g><g
       transform="translate(272.662,57.133)"
       id="g248"><path
         id="path250"
         style="fill:none;stroke:#b7bcc3;stroke-width:0.25;stroke-linecap:butt;stroke-linejoin:miter;stroke-miterlimit:1;stroke-dasharray:none;stroke-opacity:1"
         d="M 0,0 H -69.052" /></g><g
       transform="translate(203.61,57.133)"
       id="g252"><path
         id="path254"
         style="fill:none;stroke:#231f20;stroke-width:0.5;stroke-linecap:butt;stroke-linejoin:miter;stroke-miterlimit:1;stroke-dasharray:none;stroke-opacity:1"
         d="m 0,0 h 69.052 l 51.039,51.989 H 51.039 Z" /><g
         transform="translate(87.066,-33.64)"
         id="g256"><path
           id="path258"
           style="fill:none;stroke:#231f20;stroke-width:0.5;stroke-linecap:butt;stroke-linejoin:miter;stroke-miterlimit:1;stroke-dasharray:none;stroke-opacity:1"
           d="M 0,0 V 15.291 L 51.039,70.338 V 51.989 Z" /></g></g><g
       transform="translate(290.676,38.784)"
       id="g260"><path
         id="path262"
         style="fill:#dee0e4;fill-opacity:1;fill-rule:nonzero;stroke:none"
         d="M 0,0 -0.75,6.116 50.288,58.105 51.039,51.989 0,0" /></g><g
       transform="translate(290.676,38.784)"
       id="g264"><path
         id="path266"
         style="fill:#dee0e4;fill-opacity:1;fill-rule:nonzero;stroke:none"
         d="M 0,0 -0.375,3.058 50.663,55.047 51.039,51.989 0,0" /></g><g
       transform="translate(290.301,41.842)"
       id="g268"><path
         id="path270"
         style="fill:#dddfe3;fill-opacity:1;fill-rule:nonzero;stroke:none"
         d="M 0,0 -0.375,3.058 50.663,55.047 51.038,51.989 0,0" /></g><g
       transform="translate(289.925,44.9)"
       id="g272"><path
         id="path274"
         style="fill:#dcdee2;fill-opacity:1;fill-rule:nonzero;stroke:none"
         d="m 0,0 -0.751,2.676 51.04,51.607 0.75,-2.294 L 0,0" /></g><g
       transform="translate(289.925,44.9)"
       id="g276"><path
         id="path278"
         style="fill:#dcdee2;fill-opacity:1;fill-rule:nonzero;stroke:none"
         d="M 0,0 V 0.765 L 50.664,52.754 51.039,51.989 0,0" /></g><g
       transform="translate(289.925,45.665)"
       id="g280"><path
         id="path282"
         style="fill:#dbdee2;fill-opacity:1;fill-rule:nonzero;stroke:none"
         d="m 0,0 -0.376,0.765 51.04,51.989 V 51.989 L 0,0" /></g><g
       transform="translate(289.55,46.429)"
       id="g284"><path
         id="path286"
         style="fill:#dadde1;fill-opacity:1;fill-rule:nonzero;stroke:none"
         d="M 0,0 -0.375,1.147 50.664,52.753 51.039,51.989 0,0" /></g><g
       transform="translate(289.175,47.576)"
       id="g288"><path
         id="path290"
         style="fill:#d9dbe0;fill-opacity:1;fill-rule:nonzero;stroke:none"
         d="M 0,0 -0.75,1.911 50.288,53.9 51.039,51.606 0,0" /></g><g
       transform="translate(289.175,47.576)"
       id="g292"><path
         id="path294"
         style="fill:#d9dbe0;fill-opacity:1;fill-rule:nonzero;stroke:none"
         d="M 0,0 V 0.382 L 50.664,52.371 51.039,51.606 0,0" /></g><g
       transform="translate(289.175,47.958)"
       id="g296"><path
         id="path298"
         style="fill:#d6d9dd;fill-opacity:1;fill-rule:nonzero;stroke:none"
         d="M 0,0 -0.375,0.765 50.288,52.753 50.664,51.989 0,0" /></g><g
       transform="translate(288.799,48.723)"
       id="g300"><path
         id="path302"
         style="fill:#d4d7dc;fill-opacity:1;fill-rule:nonzero;stroke:none"
         d="M 0,0 -0.375,0.765 50.664,52.753 V 51.989 L 0,0" /></g><g
       transform="translate(288.424,49.487)"
       id="g304"><path
         id="path306"
         style="fill:#d3d6dc;fill-opacity:1;fill-rule:nonzero;stroke:none"
         d="M 0,0 -1.501,1.911 49.538,53.9 51.039,51.989 0,0" /></g><g
       transform="translate(288.424,49.487)"
       id="g308"><path
         id="path310"
         style="fill:#d3d6dc;fill-opacity:1;fill-rule:nonzero;stroke:none"
         d="M 0,0 -0.375,0.382 50.664,52.372 51.039,51.989 0,0" /></g><g
       transform="translate(288.049,49.87)"
       id="g312"><path
         id="path314"
         style="fill:#d1d5da;fill-opacity:1;fill-rule:nonzero;stroke:none"
         d="M 0,0 -0.375,0.382 50.664,52.371 51.039,51.989 0,0" /></g><g
       transform="translate(287.674,50.252)"
       id="g316"><path
         id="path318"
         style="fill:#d1d4d9;fill-opacity:1;fill-rule:nonzero;stroke:none"
         d="M 0,0 -0.376,0.765 50.664,52.371 51.039,51.989 0,0" /></g><g
       transform="translate(287.298,51.017)"
       id="g320"><path
         id="path322"
         style="fill:#d0d3d8;fill-opacity:1;fill-rule:nonzero;stroke:none"
         d="M 0,0 -0.375,0.382 50.664,52.371 51.039,51.606 0,0" /></g><g
       transform="translate(286.923,51.398)"
       id="g324"><path
         id="path326"
         style="fill:#cfd2d8;fill-opacity:1;fill-rule:nonzero;stroke:none"
         d="m 0,0 -0.751,1.147 51.04,51.989 0.75,-1.147 L 0,0" /></g><g
       transform="translate(286.923,51.398)"
       id="g328"><path
         id="path330"
         style="fill:#cfd2d8;fill-opacity:1;fill-rule:nonzero;stroke:none"
         d="M 0,0 -0.375,0.382 50.664,52.372 51.039,51.989 0,0" /></g><g
       transform="translate(286.548,51.781)"
       id="g332"><path
         id="path334"
         style="fill:#caced4;fill-opacity:1;fill-rule:nonzero;stroke:none"
         d="M 0,0 -0.376,0.765 50.664,52.754 51.039,51.989 0,0" /></g><g
       transform="translate(286.172,52.545)"
       id="g336"><path
         id="path338"
         style="fill:#c7cbd1;fill-opacity:1;fill-rule:nonzero;stroke:none"
         d="M 0,0 -1.501,1.147 49.538,52.754 51.039,51.989 0,0" /></g><g
       transform="translate(286.172,52.545)"
       id="g340"><path
         id="path342"
         style="fill:#c7cbd1;fill-opacity:1;fill-rule:nonzero;stroke:none"
         d="M 0,0 -0.375,0.382 50.289,52.371 51.039,51.989 0,0" /></g><g
       transform="translate(285.797,52.928)"
       id="g344"><path
         id="path346"
         style="fill:#c5c9cf;fill-opacity:1;fill-rule:nonzero;stroke:none"
         d="M 0,0 -0.75,0.382 50.288,52.372 50.664,51.989 0,0" /></g><g
       transform="translate(285.047,53.31)"
       id="g348"><path
         id="path350"
         style="fill:#c2c7cd;fill-opacity:1;fill-rule:nonzero;stroke:none"
         d="m 0,0 -0.375,0.382 51.038,51.607 h 0.376 L 0,0" /></g><g
       transform="translate(284.671,53.692)"
       id="g352"><path
         id="path354"
         style="fill:#c0c4ca;fill-opacity:1;fill-rule:nonzero;stroke:none"
         d="M 0,0 -1.876,1.147 49.163,52.753 51.038,51.607 0,0" /></g><g
       transform="translate(284.671,53.692)"
       id="g356"><path
         id="path358"
         style="fill:#c0c4ca;fill-opacity:1;fill-rule:nonzero;stroke:none"
         d="M 0,0 -0.375,0.382 50.288,51.989 51.038,51.607 0,0" /></g><g
       transform="translate(284.296,54.075)"
       id="g360"><path
         id="path362"
         style="fill:#bcc0c7;fill-opacity:1;fill-rule:nonzero;stroke:none"
         d="M 0,0 -0.751,0.382 50.289,51.989 50.664,51.606 0,0" /></g><g
       transform="translate(283.545,54.457)"
       id="g364"><path
         id="path366"
         style="fill:#babfc5;fill-opacity:1;fill-rule:nonzero;stroke:none"
         d="M 0,0 -0.75,0.382 50.289,51.989 51.039,51.606 0,0" /></g><g
       transform="translate(282.795,54.839)"
       id="g368"><path
         id="path370"
         style="fill:#b7bcc3;fill-opacity:1;fill-rule:nonzero;stroke:none"
         d="M 0,0 -2.252,0.764 48.412,52.753 51.039,51.606 0,0" /></g><g
       transform="translate(282.795,54.839)"
       id="g372"><path
         id="path374"
         style="fill:#b7bcc3;fill-opacity:1;fill-rule:nonzero;stroke:none"
         d="M 0,0 H -0.376 L 50.288,51.989 51.039,51.606 0,0" /></g><g
       transform="translate(282.419,54.839)"
       id="g376"><path
         id="path378"
         style="fill:#b4b9c0;fill-opacity:1;fill-rule:nonzero;stroke:none"
         d="M 0,0 -0.75,0.382 50.289,52.371 50.664,51.989 0,0" /></g><g
       transform="translate(281.669,55.221)"
       id="g380"><path
         id="path382"
         style="fill:#b2b8bf;fill-opacity:1;fill-rule:nonzero;stroke:none"
         d="m 0,0 h -0.75 l 51.039,51.989 h 0.75 L 0,0" /></g><g
       transform="translate(280.918,55.221)"
       id="g384"><path
         id="path386"
         style="fill:#b0b5bd;fill-opacity:1;fill-rule:nonzero;stroke:none"
         d="M 0,0 -0.375,0.382 50.288,52.371 51.039,51.989 0,0" /></g><g
       transform="translate(280.543,55.604)"
       id="g388"><path
         id="path390"
         style="fill:#aeb3bb;fill-opacity:1;fill-rule:nonzero;stroke:none"
         d="M 0,0 -3.377,0.765 47.286,52.753 50.664,51.989 0,0" /></g><g
       transform="translate(280.543,55.604)"
       id="g392"><path
         id="path394"
         style="fill:#aeb3bb;fill-opacity:1;fill-rule:nonzero;stroke:none"
         d="m 0,0 -0.75,0.382 50.663,51.607 h 0.751 L 0,0" /></g><g
       transform="translate(279.793,55.986)"
       id="g396"><path
         id="path398"
         style="fill:#adb2b9;fill-opacity:1;fill-rule:nonzero;stroke:none"
         d="M 0,0 H -0.75 L 50.289,51.989 50.664,51.606 0,0" /></g><g
       transform="translate(279.042,55.986)"
       id="g400"><path
         id="path402"
         style="fill:#abb1b8;fill-opacity:1;fill-rule:nonzero;stroke:none"
         d="m 0,0 h -0.751 l 51.039,51.989 h 0.751 L 0,0" /></g><g
       transform="translate(278.292,55.986)"
       id="g404"><path
         id="path406"
         style="fill:#aaafb7;fill-opacity:1;fill-rule:nonzero;stroke:none"
         d="M 0,0 -0.75,0.382 50.288,52.371 51.039,51.989 0,0" /></g><g
       transform="translate(277.541,56.368)"
       id="g408"><path
         id="path410"
         style="fill:#a9afb6;fill-opacity:1;fill-rule:nonzero;stroke:none"
         d="m 0,0 h -0.375 l 50.663,51.989 h 0.751 L 0,0" /></g><g
       transform="translate(277.166,56.368)"
       id="g412"><path
         id="path414"
         style="fill:#a8aeb5;fill-opacity:1;fill-rule:nonzero;stroke:none"
         d="M 0,0 -4.503,0.765 46.536,52.754 50.664,51.989 0,0" /></g><g
       transform="translate(277.166,56.368)"
       id="g416"><path
         id="path418"
         style="fill:#a8aeb5;fill-opacity:1;fill-rule:nonzero;stroke:none"
         d="m 0,0 -0.751,0.382 50.664,51.607 h 0.751 L 0,0" /></g><g
       transform="translate(276.415,56.751)"
       id="g420"><path
         id="path422"
         style="fill:#a6acb3;fill-opacity:1;fill-rule:nonzero;stroke:none"
         d="M 0,0 H -0.75 L 49.913,51.989 50.664,51.606 0,0" /></g><g
       transform="translate(275.665,56.751)"
       id="g424"><path
         id="path426"
         style="fill:#a4aab1;fill-opacity:1;fill-rule:nonzero;stroke:none"
         d="m 0,0 h -0.751 l 51.039,51.989 h 0.376 L 0,0" /></g><g
       transform="translate(274.914,56.751)"
       id="g428"><path
         id="path430"
         style="fill:#a2a8af;fill-opacity:1;fill-rule:nonzero;stroke:none"
         d="m 0,0 h -0.75 l 51.038,51.989 h 0.751 L 0,0" /></g><g
       transform="translate(274.164,56.751)"
       id="g432"><path
         id="path434"
         style="fill:#a0a6ad;fill-opacity:1;fill-rule:nonzero;stroke:none"
         d="m 0,0 -0.751,0.382 51.039,51.607 h 0.751 L 0,0" /></g><g
       transform="translate(273.413,57.133)"
       id="g436"><path
         id="path438"
         style="fill:#9ea5ac;fill-opacity:1;fill-rule:nonzero;stroke:none"
         d="m 0,0 h -0.751 l 51.04,51.989 0.75,-0.382 L 0,0" /></g><g
       transform="translate(272.662,57.133)"
       id="g440"><path
         id="path442"
         style="fill:#ffffff;fill-opacity:1;fill-rule:nonzero;stroke:none"
         d="m 0,0 h -69.052 l 51.038,51.989 H 51.039 L 0,0" /></g><g
       transform="translate(203.61,57.133)"
       id="g444"><path
         id="path446"
         style="fill:#ffffff;fill-opacity:1;fill-rule:nonzero;stroke:#231f20;stroke-width:1;stroke-linecap:butt;stroke-linejoin:miter;stroke-miterlimit:1;stroke-dasharray:none;stroke-opacity:1"
         d="m 0,0 v -33.64 h 87.066 v 15.291 l -0.75,6.116 -0.751,2.676 -0.75,1.911 -1.502,1.912 -0.75,1.147 -1.501,1.147 -1.877,1.146 -2.252,0.765 -3.377,0.764 L 69.052,0 Z" /></g><g
       transform="translate(272.662,57.133)"
       id="g448"><path
         id="path450"
         style="fill:none;stroke:#b7bcc3;stroke-width:0.25;stroke-linecap:butt;stroke-linejoin:miter;stroke-miterlimit:1;stroke-dasharray:none;stroke-opacity:1"
         d="M 0,0 H -69.052" /></g><g
       transform="translate(203.61,57.133)"
       id="g452"><path
         id="path454"
         style="fill:none;stroke:#231f20;stroke-width:1;stroke-linecap:butt;stroke-linejoin:miter;stroke-miterlimit:1;stroke-dasharray:none;stroke-opacity:1"
         d="m 0,0 h 69.052 l 51.039,51.989 H 51.039 Z" /></g><g
       transform="translate(87.566,23.493)"
       id="g456"><path
         id="path458"
         style="fill:#dee0e4;fill-opacity:1;fill-rule:nonzero;stroke:none"
         d="M 0,0 V 15.291 L 51.039,67.28 V 51.989 L 0,0" /></g><g
       transform="translate(87.566,38.784)"
       id="g460"><path
         id="path462"
         style="fill:#c9ccd2;fill-opacity:1;fill-rule:nonzero;stroke:none"
         d="M 0,0 -18.014,18.349 33.025,70.338 51.039,51.989 0,0" /></g><g
       transform="translate(69.553,57.133)"
       id="g464"><path
         id="path466"
         style="fill:#9ca3aa;fill-opacity:1;fill-rule:nonzero;stroke:none"
         d="m 0,0 h -69.053 l 51.039,51.989 H 51.039 L 0,0" /></g><g
       transform="translate(0.50002,57.133)"
       id="g468"><path
         id="path470"
         style="fill:#c2c7cd;fill-opacity:1;fill-rule:nonzero;stroke:none"
         d="m 0,0 v -33.64 h 87.066 v 15.291 L 69.053,0 H 0" /></g><g
       transform="translate(0.50002,57.133)"
       id="g472"><path
         id="path474"
         style="fill:none;stroke:#e3e4e7;stroke-width:0.25;stroke-linecap:butt;stroke-linejoin:miter;stroke-miterlimit:1;stroke-dasharray:none;stroke-opacity:1"
         d="M 0,0 V -33.64" /></g><g
       transform="translate(0.50002,23.493)"
       id="g476"><path
         id="path478"
         style="fill:none;stroke:#b7bcc3;stroke-width:0.25;stroke-linecap:butt;stroke-linejoin:miter;stroke-miterlimit:1;stroke-dasharray:none;stroke-opacity:1"
         d="M 0,0 H 87.066" /></g><g
       transform="translate(87.566,23.493)"
       id="g480"><path
         id="path482"
         style="fill:none;stroke:#ffffff;stroke-width:0.25;stroke-linecap:butt;stroke-linejoin:miter;stroke-miterlimit:1;stroke-dasharray:none;stroke-opacity:1"
         d="M 0,0 V 15.291" /></g><g
       transform="translate(87.566,38.784)"
       id="g484"><path
         id="path486"
         style="fill:none;stroke:#dcdee2;stroke-width:0.25;stroke-linecap:butt;stroke-linejoin:miter;stroke-miterlimit:1;stroke-dasharray:none;stroke-opacity:1"
         d="M 0,0 -18.014,18.349" /></g><g
       transform="translate(69.553,57.133)"
       id="g488"><path
         id="path490"
         style="fill:none;stroke:#b7bcc3;stroke-width:0.25;stroke-linecap:butt;stroke-linejoin:miter;stroke-miterlimit:1;stroke-dasharray:none;stroke-opacity:1"
         d="M 0,0 H -69.053" /></g><g
       transform="translate(0.50002,57.133)"
       id="g492"><path
         id="path494"
         style="fill:none;stroke:#231f20;stroke-width:0.5;stroke-linecap:butt;stroke-linejoin:miter;stroke-miterlimit:1;stroke-dasharray:none;stroke-opacity:1"
         d="m 0,0 51.039,51.989 h 69.052 L 69.053,0 Z" /><g
         transform="translate(87.066,-33.64)"
         id="g496"><path
           id="path498"
           style="fill:none;stroke:#231f20;stroke-width:0.5;stroke-linecap:butt;stroke-linejoin:miter;stroke-miterlimit:1;stroke-dasharray:none;stroke-opacity:1"
           d="M 0,0 V 15.291 L 51.039,67.28 V 51.989 Z" /></g></g><g
       transform="translate(87.566,23.493)"
       id="g500"><path
         id="path502"
         style="fill:#ffffff;fill-opacity:1;fill-rule:nonzero;stroke:none"
         d="M 0,0 V 15.291 L 51.039,67.28 V 51.989 L 0,0" /></g><g
       transform="translate(87.566,38.784)"
       id="g504"><path
         id="path506"
         style="fill:#c9ccd2;fill-opacity:1;fill-rule:nonzero;stroke:none"
         d="M 0,0 -18.014,18.349 33.025,70.338 51.039,51.989 0,0" /></g><g
       transform="translate(87.566,38.784)"
       id="g508"><path
         id="path510"
         style="fill:none;stroke:#231f20;stroke-width:1;stroke-linecap:butt;stroke-linejoin:miter;stroke-miterlimit:1;stroke-dasharray:none;stroke-opacity:1"
         d="M 0,0 -18.014,18.349 33.025,70.338 51.039,51.989 Z" /></g><g
       transform="translate(69.553,57.133)"
       id="g512"><path
         id="path514"
         style="fill:#ffffff;fill-opacity:1;fill-rule:nonzero;stroke:none"
         d="m 0,0 h -69.053 l 51.039,51.989 H 51.039 L 0,0" /></g><g
       transform="translate(0.50002,57.133)"
       id="g516"><path
         id="path518"
         style="fill:#ffffff;fill-opacity:1;fill-rule:nonzero;stroke:none"
         d="m 0,0 v -33.64 h 87.066 v 15.291 L 69.053,0 H 0" /></g><g
       transform="translate(0.50002,57.133)"
       id="g520"><path
         id="path522"
         style="fill:none;stroke:#231f20;stroke-width:1;stroke-linecap:butt;stroke-linejoin:miter;stroke-miterlimit:1;stroke-dasharray:none;stroke-opacity:1"
         d="m 0,0 v -33.64 h 87.066 v 15.291 L 69.053,0 Z" /></g><g
       transform="translate(0.50002,57.133)"
       id="g524"><path
         id="path526"
         style="fill:none;stroke:#231f20;stroke-width:1;stroke-linecap:butt;stroke-linejoin:miter;stroke-miterlimit:1;stroke-dasharray:none;stroke-opacity:1"
         d="M 0,0 V -33.64" /></g><g
       transform="translate(0.50002,23.493)"
       id="g528"><path
         id="path530"
         style="fill:none;stroke:#231f20;stroke-width:1;stroke-linecap:butt;stroke-linejoin:miter;stroke-miterlimit:1;stroke-dasharray:none;stroke-opacity:1"
         d="M 0,0 H 87.066" /></g><g
       transform="translate(87.566,23.493)"
       id="g532"><path
         id="path534"
         style="fill:none;stroke:#ffffff;stroke-width:0.25;stroke-linecap:butt;stroke-linejoin:miter;stroke-miterlimit:1;stroke-dasharray:none;stroke-opacity:1"
         d="M 0,0 V 15.291" /></g><g
       transform="translate(69.553,57.133)"
       id="g536"><path
         id="path538"
         style="fill:none;stroke:#b7bcc3;stroke-width:0.25;stroke-linecap:butt;stroke-linejoin:miter;stroke-miterlimit:1;stroke-dasharray:none;stroke-opacity:1"
         d="M 0,0 H -69.053" /></g><g
       transform="translate(0.50002,57.133)"
       id="g540"><path
         id="path542"
         style="fill:none;stroke:#231f20;stroke-width:1;stroke-linecap:butt;stroke-linejoin:miter;stroke-miterlimit:1;stroke-dasharray:none;stroke-opacity:1"
         d="m 0,0 51.039,51.989 h 69.052 L 69.053,0 Z" /></g><g
       transform="translate(87.566,23.493)"
       id="g544"><path
         id="path546"
         style="fill:none;stroke:#231f20;stroke-width:1;stroke-linecap:butt;stroke-linejoin:miter;stroke-miterlimit:1;stroke-dasharray:none;stroke-opacity:1"
         d="M 0,0 V 15.291 L 51.039,67.28 V 51.989 Z" /></g><g
       transform="translate(290.676,23.493)"
       id="g548"><path
         id="path550"
         style="fill:#ffffff;fill-opacity:1;fill-rule:nonzero;stroke:#231f20;stroke-width:1;stroke-linecap:butt;stroke-linejoin:miter;stroke-miterlimit:1;stroke-dasharray:none;stroke-opacity:1"
         d="M 0,0 V 15.291 L 51.039,67.28 V 51.989 Z" /></g><g
       transform="translate(341.715,88.772)"
       id="g552"><path
         id="path554"
         style="fill:none;stroke:#231f20;stroke-width:1;stroke-linecap:butt;stroke-linejoin:miter;stroke-miterlimit:1;stroke-dasharray:none;stroke-opacity:1"
         d="m 0,0 -0.751,8.116 -0.75,2.677 -0.751,1.911 -1.501,1.911 -0.751,1.147 -1.501,1.147 -1.876,1.147 -2.252,0.764 -3.378,0.765 -4.503,0.765" /></g><text
       id="text564"
       style="font-variant:normal;font-weight:normal;font-stretch:normal;font-size:10px;font-family:Helvetica;-inkscape-font-specification:Helvetica;writing-mode:lr-tb;fill:#231f20;fill-opacity:1;fill-rule:nonzero;stroke:none"
       transform="matrix(1,0,0,-1,94.8308,135.1103)"><tspan
         id="tspan556"
         y="0"
         x="0 2.78 5 8.3299999 13.33 16.110001 21.67 24.15 29.709999 35.27 38.049999 43.610001 46.939999 52.5 55.279999 58.610001 64.169998 66.389999 71.949997 77.510002 83.07 86.400002 89.18 91.660004 97.220001 102.22 107.78 110.56 113.04 118.6 124.16 126.94 132.5 135.83 141.39 144.72">first_feature (planar face feature)</tspan><tspan
         id="tspan558"
         y="12"
         x="2.075 7.6350002 10.965 13.745 16.525 18.745001 22.075001 27.075001 29.855 35.415001 37.895 43.455002 48.455002 54.014999 59.575001 64.574997 70.135002 75.695 81.254997 86.815002 89.595001 92.925003 98.485001 101.815 107.375 112.935 115.715 118.195 123.755 128.755 134.315 139.315 142.645">or first_face_shape (brep faces)</tspan><tspan
         id="tspan560"
         y="90.334"
         x="250.711 255.711 261.271 266.271 271.83099 277.39099 282.95099 288.51099 290.991 296.55099 302.11099 304.89099 310.45099 313.78101 319.341">second_feature</tspan><tspan
         id="tspan562"
         y="102.334"
         x="233.76601 237.09599 242.65601 248.216 250.996 255.996 258.216 263.776 269.336 272.116 277.67599 281.00601 286.56601 289.34601 291.56601 293.78601 299.34601 302.12601 304.60599 310.16599 315.72601 318.50601 324.06601 327.396 332.95599">(outside profile feature)</tspan></text>
<text
       id="text568"
       style="font-variant:normal;font-weight:normal;font-stretch:normal;font-size:10px;font-family:Helvetica;-inkscape-font-specification:Helvetica;writing-mode:lr-tb;fill:#231f20;fill-opacity:1;fill-rule:nonzero;stroke:none"
       transform="matrix(1,0,0,-1,431.1292,32.7763)"><tspan
         id="tspan566"
         y="0"
         x="0"></tspan></text>
<text
       id="text572"
       style="font-variant:normal;font-weight:normal;font-stretch:normal;font-size:10px;font-family:Helvetica;-inkscape-font-specification:Helvetica;writing-mode:lr-tb;fill:#231f20;fill-opacity:1;fill-rule:nonzero;stroke:none"
       transform="matrix(1,0,0,-1,328.0319,20.7763)"><tspan
         id="tspan570"
         y="0"
         x="0 5.5599999 8.8900003 11.67 16.67 22.23 27.23 32.790001 38.349998 43.91 49.470001 51.950001 57.509998 62.509998 68.07 73.629997 78.629997 84.190002 89.75 95.309998 100.87">or second_face_shape </tspan></text>
<text
       id="text576"
       style="font-variant:normal;font-weight:normal;font-stretch:normal;font-size:10px;font-family:Helvetica;-inkscape-font-specification:Helvetica;writing-mode:lr-tb;fill:#231f20;fill-opacity:1;fill-rule:nonzero;stroke:none"
       transform="matrix(1,0,0,-1,431.6967,20.7763)"><tspan
         id="tspan574"
         y="0"
         x="0"></tspan></text>
<text
       id="text588"
       style="font-variant:normal;font-weight:normal;font-stretch:normal;font-size:10px;font-family:Helvetica;-inkscape-font-specification:Helvetica;writing-mode:lr-tb;fill:#231f20;fill-opacity:1;fill-rule:nonzero;stroke:none"
       transform="matrix(1,0,0,-1,353.332,8.7763)"><tspan
         id="tspan578"
         y="0"
         x="0 3.3299999 8.8900003 12.22 17.780001 23.34 26.120001 28.6 34.16 39.16 44.720001 49.720001 53.049999">(brep faces)</tspan><tspan
         id="tspan580"
         y="-24.667"
         x="-232.381 -227.381 -221.821 -216.261 -207.931 -205.451 -199.89101 -196.561 -191.00101 -188.521 -182.961 -177.961 -172.401">chamfer_face</tspan><tspan
         id="tspan582"
         y="-12.667"
         x="-226.416 -223.086 -217.526 -214.196 -208.636 -203.076 -200.29601 -197.81599 -192.256 -187.256 -181.696 -178.366">(brep face)</tspan><tspan
         id="tspan584"
         y="-112.334"
         x="-7.823 -2.263 3.2969999 8.8570004 14.417 19.976999 23.306999 28.867001 34.426998 39.987 45.547001 51.106998 53.587002 59.146999 64.147003 69.707001">edge_round_face</tspan><tspan
         id="tspan586"
         y="-100.334"
         x="6.9169998 10.247 15.807 19.136999 24.697001 30.257 33.036999 35.516998 41.077 46.077 51.637001 54.966999">(brep face)</tspan></text>
<g
       transform="translate(148.608,46.974)"
       id="g590"><path
         id="path592"
         style="fill:none;stroke:#231f20;stroke-width:1;stroke-linecap:butt;stroke-linejoin:miter;stroke-miterlimit:1;stroke-dasharray:none;stroke-opacity:1"
         d="M 0,0 C 0,10.665 -3.148,25.648 -13.519,30.646 -19.106,33.338 -32.243,33.748 -38,32" /></g><g
       transform="translate(109.136,77.724)"
       id="g594"><path
         id="path596"
         style="fill:#231f20;fill-opacity:1;fill-rule:nonzero;stroke:none"
         d="m 0,0 c 1.295,0.001 2.167,-0.094 3.235,-0.187 l -1.1,3.62 C 1.844,3.168 0.629,2.197 -0.449,1.479 -1.603,0.71 -2.674,0.098 -3.393,-0.223 -2.617,-0.089 -1.386,-0.002 0,0" /></g><g
       transform="translate(376.608,102.974)"
       id="g598"><path
         id="path600"
         style="fill:none;stroke:#231f20;stroke-width:1;stroke-linecap:butt;stroke-linejoin:miter;stroke-miterlimit:1;stroke-dasharray:none;stroke-opacity:1"
         d="m 0,0 c -5.478,-2.543 -7.365,-5.661 -14.037,-6.834 -5.45,-0.958 -10.399,-1.179 -15.965,-1.166 -7.122,0.017 -15.74,-0.524 -21.331,-4.667" /></g><g
       transform="translate(324.309,88.635)"
       id="g602"><path
         id="path604"
         style="fill:#231f20;fill-opacity:1;fill-rule:nonzero;stroke:none"
         d="M 0,0 C 1.219,0.437 2.072,0.64 3.109,0.911 L 0.857,3.951 C 0.672,3.603 -0.147,2.281 -0.92,1.242 -1.748,0.13 -2.552,-0.807 -3.121,-1.35 -2.435,-0.964 -1.305,-0.468 0,0" /></g><g
       transform="translate(102.941,44.974)"
       id="g606"><path
         id="path608"
         style="fill:none;stroke:#231f20;stroke-width:1;stroke-linecap:butt;stroke-linejoin:miter;stroke-miterlimit:1;stroke-dasharray:none;stroke-opacity:1"
         d="m 0,0 c 12.128,2.746 9.156,-12.031 11.348,-18.907 3.972,-12.455 15.677,-17.337 27.582,-19.491 13.653,-2.471 27.405,-5.15 41.296,-5.786 36.718,-1.68 74.032,9.113 110.509,2.662 12.622,-2.233 26.652,-5.738 38.598,0.855" /></g><g
       transform="translate(101.383,43.832)"
       id="g610"><path
         id="path612"
         style="fill:#231f20;fill-opacity:1;fill-rule:nonzero;stroke:none"
         d="M 0,0 C 1.293,-0.091 2.155,-0.25 3.213,-0.419 L 2.377,3.271 C 2.068,3.027 0.786,2.147 -0.341,1.508 -1.547,0.824 -2.66,0.291 -3.399,0.023 -2.617,0.1 -1.383,0.098 0,0" /></g><g
       transform="translate(331.274,14.974)"
       id="g614"><path
         id="path616"
         style="fill:none;stroke:#231f20;stroke-width:1;stroke-linecap:butt;stroke-linejoin:miter;stroke-miterlimit:1;stroke-dasharray:none;stroke-opacity:1"
         d="M 0,0 C -20.058,-7.2207 -5.642,38.946 -30,25.334" /></g><g
       transform="translate(300.103,38.772)"
       id="g618"><path
         id="path620"
         style="fill:#231f20;fill-opacity:1;fill-rule:nonzero;stroke:none"
         d="M 0,0 C 1.265,0.278 2.137,0.37 3.2,0.507 L 1.354,3.81 C 1.126,3.488 0.146,2.281 -0.754,1.35 -1.717,0.352 -2.634,-0.475 -3.267,-0.94 -2.538,-0.645 -1.354,-0.298 0,0" /></g><g
       transform="translate(89.941,128.641)"
       id="g622"><path
         id="path624"
         style="fill:none;stroke:#231f20;stroke-width:1;stroke-linecap:butt;stroke-linejoin:miter;stroke-miterlimit:1;stroke-dasharray:none;stroke-opacity:1"
         d="M 0,0 C -18.494,-7.731 -27.624,-24.861 -31.333,-43.334" /></g><g
       transform="translate(59.013,83.419)"
       id="g626"><path
         id="path628"
         style="fill:#231f20;fill-opacity:1;fill-rule:nonzero;stroke:none"
         d="m 0,0 c 0.611,1.142 1.108,1.865 1.696,2.761 l -3.71,0.745 c 0.096,-0.382 0.376,-1.912 0.499,-3.202 0.132,-1.38 0.163,-2.614 0.106,-3.398 C -1.16,-2.348 -0.654,-1.222 0,0" /></g><g
       transform="translate(241.941,131.307)"
       id="g630"><path
         id="path632"
         style="fill:none;stroke:#231f20;stroke-width:1;stroke-linecap:butt;stroke-linejoin:miter;stroke-miterlimit:1;stroke-dasharray:none;stroke-opacity:1"
         d="M 0,0 C 12.69,-0.119 20.241,-3.254 21.836,-15.755 23.141,-25.982 24,-35.543 24,-46" /></g><g
       transform="translate(266.71,83.536)"
       id="g634"><path
         id="path636"
         style="fill:#231f20;fill-opacity:1;fill-rule:nonzero;stroke:none"
         d="M 0,0 C 0.375,1.24 0.72,2.046 1.119,3.041 H -2.665 C -2.495,2.685 -1.92,1.24 -1.546,0 -1.145,-1.327 -0.871,-2.53 -0.772,-3.31 -0.675,-2.53 -0.4,-1.327 0,0" /></g></g></svg>