<?xml version="1.0" encoding="UTF-8" standalone="no"?>
<svg
   xmlns:dc="http://purl.org/dc/elements/1.1/"
   xmlns:cc="http://creativecommons.org/ns#"
   xmlns:rdf="http://www.w3.org/1999/02/22-rdf-syntax-ns#"
   xmlns:svg="http://www.w3.org/2000/svg"
   xmlns="http://www.w3.org/2000/svg"
   viewBox="0 0 533.62268 269.09332"
   height="269.09332"
   width="533.62268"
   xml:space="preserve"
   id="svg2"
   version="1.1"><metadata
     id="metadata8"><rdf:RDF><cc:Work
         rdf:about=""><dc:format>image/svg+xml</dc:format><dc:type
           rdf:resource="http://purl.org/dc/dcmitype/StillImage" /></cc:Work></rdf:RDF></metadata><defs
     id="defs6" /><g
     transform="matrix(1.3333333,0,0,-1.3333333,0,269.09333)"
     id="g10"><g
       transform="translate(78.783,149.761)"
       id="g12"><path
         id="path14"
         style="fill:none;stroke:#231f20;stroke-width:2;stroke-linecap:butt;stroke-linejoin:miter;stroke-miterlimit:4;stroke-dasharray:none;stroke-opacity:1"
         d="m 0,0 12.103,-41.14 c 6.883,-26.839 13.883,-36.667 40.165,-41.561 l 67.83,-16.513 70.708,16.493 c 25.18,5.701 32.68,12.973 40.311,41.581 L 243.194,0" /></g><path
       id="path16"
       style="fill:none;stroke:#231f20;stroke-width:1;stroke-linecap:butt;stroke-linejoin:miter;stroke-miterlimit:4;stroke-dasharray:5;stroke-dashoffset:0;stroke-opacity:1"
       d="m 198.878,48.872 0.023,146.504" /><g
       transform="translate(200.515,193.935)"
       id="g18"><path
         id="path20"
         style="fill:#231f20;fill-opacity:1;fill-rule:nonzero;stroke:none"
         d="M 0,0 -1.632,7.885 -3.268,0 H 0" /></g><text
       id="text24"
       style="font-variant:normal;font-weight:normal;font-stretch:normal;font-size:10px;font-family:Helvetica;-inkscape-font-specification:Helvetica;writing-mode:lr-tb;fill:#231f20;fill-opacity:1;fill-rule:nonzero;stroke:none"
       transform="matrix(1,0,0,-1,207.4355,185.5332)"><tspan
         id="tspan22"
         y="0"
         x="0 2.78 8.3400002 13.9 16.120001 18.9 24.459999 29.459999 31.68">tool axis</tspan></text>
<g
       transform="translate(294.797,15.084)"
       id="g26"><path
         id="path28"
         style="fill:none;stroke:#231f20;stroke-width:1;stroke-linecap:butt;stroke-linejoin:miter;stroke-miterlimit:4;stroke-dasharray:none;stroke-opacity:1"
         d="M 0,0 -185.26,0.023" /></g><g
       transform="translate(110.652,16.721)"
       id="g30"><path
         id="path32"
         style="fill:#231f20;fill-opacity:1;fill-rule:nonzero;stroke:none"
         d="M 0,0 -6.099,-1.633 -0.001,-3.268 0,0" /></g><g
       transform="translate(293.234,13.471)"
       id="g34"><path
         id="path36"
         style="fill:#231f20;fill-opacity:1;fill-rule:nonzero;stroke:none"
         d="M 0,0 6.098,1.631 0.002,3.268 0,0" /></g><text
       id="text40"
       style="font-variant:normal;font-weight:normal;font-stretch:normal;font-size:10px;font-family:Helvetica;-inkscape-font-specification:Helvetica;writing-mode:lr-tb;fill:#231f20;fill-opacity:1;fill-rule:nonzero;stroke:none"
       transform="matrix(1,0,0,-1,113.2944,2.25)"><tspan
         id="tspan38"
         y="0"
         x="0 5.5599999 8.3400002 10.82 16.379999 21.379999 24.16 26.379999 31.129999 36.689999 42.25 47.25 52.810001 55.59 58.369999 60.59">effective_cuttin</tspan></text>
<text
       id="text44"
       style="font-variant:normal;font-weight:normal;font-stretch:normal;font-size:10px;font-family:Helvetica;-inkscape-font-specification:Helvetica;writing-mode:lr-tb;fill:#231f20;fill-opacity:1;fill-rule:nonzero;stroke:none"
       transform="matrix(1,0,0,-1,179.4485,2.25)"><tspan
         id="tspan42"
         y="0"
         x="0">g</tspan></text>
<text
       id="text48"
       style="font-variant:normal;font-weight:normal;font-stretch:normal;font-size:10px;font-family:Helvetica;-inkscape-font-specification:Helvetica;writing-mode:lr-tb;fill:#231f20;fill-opacity:1;fill-rule:nonzero;stroke:none"
       transform="matrix(1,0,0,-1,185.01,2.25)"><tspan
         id="tspan46"
         y="0"
         x="0 5.5599999 11.12 13.34 18.9 27.23 32.790001 35.57 41.130001">_diameter</tspan></text>
<g
       transform="translate(31.769,48.697)"
       id="g50"><path
         id="path52"
         style="fill:none;stroke:#231f20;stroke-width:0.5;stroke-linecap:butt;stroke-linejoin:miter;stroke-miterlimit:4;stroke-dasharray:none;stroke-opacity:1"
         d="M 0,0 H 359" /></g><g
       transform="translate(101.785,72.244)"
       id="g54"><path
         id="path56"
         style="fill:none;stroke:#231f20;stroke-width:1;stroke-linecap:butt;stroke-linejoin:miter;stroke-miterlimit:4;stroke-dasharray:none;stroke-opacity:1"
         d="M 0,0 V -60.656" /><g
         transform="translate(198.469,-0.984)"
         id="g58"><path
           id="path60"
           style="fill:none;stroke:#231f20;stroke-width:1;stroke-linecap:butt;stroke-linejoin:miter;stroke-miterlimit:4;stroke-dasharray:none;stroke-opacity:1"
           d="M 0,0 V -59.656" /></g></g><text
       id="text66"
       style="font-variant:normal;font-weight:normal;font-stretch:normal;font-size:10px;font-family:Helvetica;-inkscape-font-specification:Helvetica;writing-mode:lr-tb;fill:#231f20;fill-opacity:1;fill-rule:nonzero;stroke:none"
       transform="matrix(1,0,0,-1,331.2876,64.1538)"><tspan
         id="tspan62"
         y="0"
         x="0 2.78 5 10.56 16.120001 21.68 27.24 30.02 35.580002 38.91 44.470001 50.029999 55.59 61.150002 63.369999">tip_outer_angle</tspan><tspan
         id="tspan64"
         y="-68.695999"
         x="-235.814 -230.814 -225.254 -221.674 -216.114 -210.554 -207.224 -201.664 -198.43401 -192.87399 -187.314 -185.09399 -179.534">corner_radius</tspan></text>
<g
       transform="translate(99.627,129.537)"
       id="g68"><path
         id="path70"
         style="fill:none;stroke:#231f20;stroke-width:1;stroke-linecap:butt;stroke-linejoin:miter;stroke-miterlimit:4;stroke-dasharray:none;stroke-opacity:1"
         d="M 0,0 C -3.224,-11.55 15.189,-16.859 15.908,-27.997" /></g><g
       transform="translate(114.883,99.723)"
       id="g72"><path
         id="path74"
         style="fill:#231f20;fill-opacity:1;fill-rule:nonzero;stroke:none"
         d="M 0,0 C -0.454,1.213 -0.85,1.996 -1.313,2.962 L 2.463,3.206 C 2.317,2.84 1.836,1.361 1.542,0.099 1.227,-1.251 1.031,-2.469 0.984,-3.254 0.836,-2.482 0.485,-1.299 0,0" /></g><text
       id="text78"
       style="font-variant:normal;font-weight:normal;font-stretch:normal;font-size:10px;font-family:Helvetica;-inkscape-font-specification:Helvetica;writing-mode:lr-tb;fill:#231f20;fill-opacity:1;fill-rule:nonzero;stroke:none"
       transform="matrix(1,0,0,-1,218.6455,26.749)"><tspan
         id="tspan76"
         y="0"
         x="0 2.78 8.3400002 13.9 16.120001 18.9 21.68 23.9">tool tip</tspan></text>
<g
       transform="translate(200.069,41.869)"
       id="g80"><path
         id="path82"
         style="fill:none;stroke:#231f20;stroke-width:1;stroke-linecap:butt;stroke-linejoin:miter;stroke-miterlimit:4;stroke-dasharray:none;stroke-opacity:1"
         d="M 0,0 C 0.809,-3.784 -5.746,-6.828 -1.913,-10.815 0.819,-13.658 9.384,-12.377 14.5,-12.813" /></g><g
       transform="translate(198.947,43.44)"
       id="g84"><path
         id="path86"
         style="fill:#231f20;fill-opacity:1;fill-rule:nonzero;stroke:none"
         d="m 0,0 c -0.107,-1.291 -0.276,-2.151 -0.459,-3.207 l 3.7,0.79 C 3.001,-2.103 2.137,-0.811 1.512,0.323 0.842,1.537 0.322,2.656 0.063,3.4 0.131,2.616 0.114,1.382 0,0" /></g><text
       id="text90"
       style="font-variant:normal;font-weight:normal;font-stretch:normal;font-size:10px;font-family:Helvetica;-inkscape-font-specification:Helvetica;writing-mode:lr-tb;fill:#231f20;fill-opacity:1;fill-rule:nonzero;stroke:none"
       transform="matrix(1,0,0,-1,298.0307,175.9844)"><tspan
         id="tspan88"
         y="0"
         x="0 2.78 8.3400002 13.9 19.459999 22.790001 28.35 33.91 39.470001 45.029999 47.25">taper_angle</tspan></text>
<g
       transform="translate(294.908,73.473)"
       id="g92"><path
         id="path94"
         style="fill:#231f20;fill-opacity:1;fill-rule:nonzero;stroke:#231f20;stroke-width:0.25;stroke-linecap:butt;stroke-linejoin:miter;stroke-miterlimit:4;stroke-dasharray:none;stroke-opacity:1"
         d="M 0,0 90.835,21.424" /></g><g
       transform="translate(301.666,82.209)"
       id="g96"><path
         id="path98"
         style="fill:#231f20;fill-opacity:1;fill-rule:nonzero;stroke:#231f20;stroke-width:0.25;stroke-linecap:butt;stroke-linejoin:miter;stroke-miterlimit:4;stroke-dasharray:none;stroke-opacity:1"
         d="M 0,0 -5.49,-18.556" /></g><g
       transform="translate(340.895,72.307)"
       id="g100"><path
         id="path102"
         style="fill:none;stroke:#231f20;stroke-width:1;stroke-linecap:butt;stroke-linejoin:miter;stroke-miterlimit:4;stroke-dasharray:none;stroke-opacity:1"
         d="M 0,0 C -0.25,1.5 -1.25,3.875 -2.987,6.09" /></g><g
       transform="translate(336.221,79.336)"
       id="g104"><path
         id="path106"
         style="fill:#231f20;fill-opacity:1;fill-rule:nonzero;stroke:none"
         d="m 0,0 c 0.455,-1.212 0.671,-2.062 0.959,-3.095 l 3.004,2.299 C 3.612,-0.616 2.278,0.182 1.228,0.939 0.103,1.75 -0.846,2.539 -1.398,3.1 -1.002,2.421 -0.488,1.298 0,0" /></g><g
       transform="translate(342.269,60.307)"
       id="g108"><path
         id="path110"
         style="fill:none;stroke:#231f20;stroke-width:1;stroke-linecap:butt;stroke-linejoin:miter;stroke-miterlimit:4;stroke-dasharray:none;stroke-opacity:1"
         d="M 0,0 C 0.125,-2.5 -0.25,-3.375 -1.37,-6.538" /></g><g
       transform="translate(339.697,52.258)"
       id="g112"><path
         id="path114"
         style="fill:#231f20;fill-opacity:1;fill-rule:nonzero;stroke:none"
         d="M 0,0 C -0.04,1.294 -0.163,2.163 -0.289,3.227 L 3.363,2.243 C 3.107,1.943 2.176,0.698 1.493,-0.402 0.76,-1.58 0.183,-2.669 -0.114,-3.398 -0.007,-2.62 0.042,-1.386 0,0" /></g><g
       transform="translate(300.103,151.01)"
       id="g116"><path
         id="path118"
         style="fill:none;stroke:#231f20;stroke-width:0.5;stroke-linecap:butt;stroke-linejoin:miter;stroke-miterlimit:4;stroke-dasharray:none;stroke-opacity:1"
         d="M 0,0 V -59.656" /></g><g
       transform="translate(320.623,171.703)"
       id="g120"><path
         id="path122"
         style="fill:none;stroke:#231f20;stroke-width:1;stroke-linecap:butt;stroke-linejoin:miter;stroke-miterlimit:4;stroke-dasharray:none;stroke-opacity:1"
         d="M 0,0 C 4.833,-10.975 -12.639,-18.849 -11.767,-29.975" /></g><g
       transform="translate(309.762,140.023)"
       id="g124"><path
         id="path126"
         style="fill:#231f20;fill-opacity:1;fill-rule:nonzero;stroke:none"
         d="M 0,0 C 0.277,1.265 0.557,2.096 0.878,3.118 L -2.894,2.822 c 0.197,-0.341 0.883,-1.737 1.352,-2.944 0.505,-1.292 0.873,-2.47 1.03,-3.239 C -0.475,-2.576 -0.296,-1.355 0,0" /></g><g
       transform="translate(124.658,102.793)"
       id="g128"><path
         id="path130"
         style="fill:none;stroke:#231f20;stroke-width:0.5;stroke-linecap:butt;stroke-linejoin:miter;stroke-miterlimit:4;stroke-dasharray:none;stroke-opacity:1"
         d="M 0,0 H 7" /><g
         transform="translate(3.5,3.833)"
         id="g132"><path
           id="path134"
           style="fill:none;stroke:#231f20;stroke-width:0.5;stroke-linecap:butt;stroke-linejoin:miter;stroke-miterlimit:4;stroke-dasharray:none;stroke-opacity:1"
           d="M 0,0 V -7.667" /><g
           transform="translate(-0.389,-4.444)"
           id="g136"><path
             id="path138"
             style="fill:none;stroke:#231f20;stroke-width:0.5;stroke-linecap:butt;stroke-linejoin:miter;stroke-miterlimit:4;stroke-dasharray:none;stroke-opacity:1"
             d="M 0,0 -21,-17.667" /></g></g></g><g
       transform="translate(106.201,83.36)"
       id="g140"><path
         id="path142"
         style="fill:#231f20;fill-opacity:1;fill-rule:nonzero;stroke:none"
         d="M 0,0 C 0.792,0.344 1.35,0.517 2.028,0.743 L 0.396,2.666 C 0.288,2.426 -0.198,1.511 -0.667,0.786 -1.169,0.009 -1.662,-0.649 -2.017,-1.035 -1.578,-0.749 -0.848,-0.369 0,0" /></g><text
       id="text152"
       style="font-variant:normal;font-weight:normal;font-stretch:normal;font-size:10px;font-family:Helvetica;-inkscape-font-specification:Helvetica;writing-mode:lr-tb;fill:#231f20;fill-opacity:1;fill-rule:nonzero;stroke:none"
       transform="matrix(1,0,0,-1,111.6294,184.9844)"><tspan
         id="tspan144"
         y="0"
         x="0 5 10.56 14.14 19.700001 25.26 28.59 34.150002 37.380001 42.939999 48.5 50.720001 56.279999 61.279999 66.839996 70.169998">corner_radius_-</tspan><tspan
         id="tspan146"
         y="12"
         x="0 5 10.56 16.120001 18.9 24.459999 27.790001 33.349998 38.91 44.470001 47.950001 50.169998 55.02 60.580002 66.139999 68.919998 74.480003">center_horizontal</tspan><tspan
         id="tspan148"
         y="101.333"
         x="-111.629 -106.629 -101.069 -97.488998 -91.929001 -86.369003 -83.039001 -77.478996 -74.249001 -68.689003 -63.129002 -60.909 -55.348999 -50.348999 -44.789001 -41.459">corner_radius_-</tspan><tspan
         id="tspan150"
         y="113.333"
         x="-111.629 -106.629 -101.069 -95.509003 -92.728996 -87.168999 -83.838997 -78.278999 -73.528999 -67.969002 -64.238998 -61.459 -59.238998 -54.238998 -48.679001">center_vertical</tspan></text>
<g
       transform="translate(127.769,116.015)"
       id="g154"><path
         id="path156"
         style="fill:#231f20;fill-opacity:1;fill-rule:nonzero;stroke:#231f20;stroke-width:0.5;stroke-linecap:butt;stroke-linejoin:miter;stroke-miterlimit:4;stroke-dasharray:none;stroke-opacity:1"
         d="M 0,0 H 70.667" /></g><g
       transform="translate(128.019,119.848)"
       id="g158"><path
         id="path160"
         style="fill:none;stroke:#231f20;stroke-width:0.5;stroke-linecap:butt;stroke-linejoin:miter;stroke-miterlimit:4;stroke-dasharray:none;stroke-opacity:1"
         d="M 0,0 V -7.666" /></g><g
       transform="translate(174.769,168.515)"
       id="g162"><path
         id="path164"
         style="fill:none;stroke:#231f20;stroke-width:1;stroke-linecap:butt;stroke-linejoin:miter;stroke-miterlimit:4;stroke-dasharray:none;stroke-opacity:1"
         d="M 0,0 C 14.333,-24.333 -3.918,-34.992 -4.637,-46.129" /></g><g
       transform="translate(170.786,120.568)"
       id="g166"><path
         id="path168"
         style="fill:#231f20;fill-opacity:1;fill-rule:nonzero;stroke:none"
         d="M 0,0 C 0.454,1.214 0.85,1.996 1.313,2.962 L -2.463,3.206 C -2.317,2.84 -1.836,1.361 -1.543,0.1 -1.227,-1.251 -1.031,-2.469 -0.984,-3.254 -0.836,-2.482 -0.485,-1.299 0,0" /></g><g
       transform="translate(73.769,102.682)"
       id="g170"><path
         id="path172"
         style="fill:none;stroke:#231f20;stroke-width:0.5;stroke-linecap:butt;stroke-linejoin:miter;stroke-miterlimit:4;stroke-dasharray:none;stroke-opacity:1"
         d="M 0,0 H 7" /><g
         transform="translate(3.5,0.25)"
         id="g174"><path
           id="path176"
           style="fill:none;stroke:#231f20;stroke-width:0.5;stroke-linecap:butt;stroke-linejoin:miter;stroke-miterlimit:4;stroke-dasharray:none;stroke-opacity:1"
           d="M 0,0 V -54" /></g></g></g></svg>