<?xml version="1.0" encoding="UTF-8" standalone="no"?>
<svg
   xmlns:dc="http://purl.org/dc/elements/1.1/"
   xmlns:cc="http://creativecommons.org/ns#"
   xmlns:rdf="http://www.w3.org/1999/02/22-rdf-syntax-ns#"
   xmlns:svg="http://www.w3.org/2000/svg"
   xmlns="http://www.w3.org/2000/svg"
   viewBox="0 0 405.35333 149.62933"
   height="149.62933"
   width="405.35333"
   xml:space="preserve"
   id="svg2"
   version="1.1"><metadata
     id="metadata8"><rdf:RDF><cc:Work
         rdf:about=""><dc:format>image/svg+xml</dc:format><dc:type
           rdf:resource="http://purl.org/dc/dcmitype/StillImage" /></cc:Work></rdf:RDF></metadata><defs
     id="defs6" /><g
     transform="matrix(1.3333333,0,0,-1.3333333,0,149.62933)"
     id="g10"><g
       transform="translate(11.495,25.619)"
       id="g12"><path
         id="path14"
         style="fill:none;stroke:#231f20;stroke-width:1;stroke-linecap:butt;stroke-linejoin:miter;stroke-miterlimit:4;stroke-dasharray:none;stroke-opacity:1"
         d="M 0,0 H 285.289" /></g><g
       transform="translate(298.556,26.388)"
       id="g16"><path
         id="path18"
         style="fill:#231f20;fill-opacity:1;fill-rule:nonzero;stroke:none"
         d="M 0,0 C -1.24,0.375 -2.046,0.72 -3.041,1.119 V -2.665 C -2.685,-2.495 -1.24,-1.92 0,-1.546 1.327,-1.145 2.53,-0.87 3.31,-0.772 2.53,-0.675 1.327,-0.4 0,0" /></g><text
       id="text24"
       style="font-variant:normal;font-weight:normal;font-stretch:normal;font-size:10px;font-family:Helvetica;-inkscape-font-specification:Helvetica;writing-mode:lr-tb;fill:#231f20;fill-opacity:1;fill-rule:nonzero;stroke:none"
       transform="matrix(1,0,0,-1,127.4663,102.6543)"><tspan
         id="tspan20"
         y="0"
         x="0 5.5599999 8.8900003 14.45 17.23 19.450001 21.67 27.23 32.790001 38.349998 43.91 49.470001 51.689999">profile_angle</tspan><tspan
         id="tspan22"
         y="67.667999"
         x="70.252998 73.032997 75.252998 77.473 80.252998 85.813004 91.373001 96.932999 102.493 104.713">tilt_angle</tspan></text>
<g
       transform="translate(184.825,47.864)"
       id="g26"><path
         id="path28"
         style="fill:none;stroke:#231f20;stroke-width:1;stroke-linecap:butt;stroke-linejoin:miter;stroke-miterlimit:4;stroke-dasharray:none;stroke-opacity:1"
         d="M 0,0 C 8.772,-5.186 8.722,-14.915 7.437,-17.506" /></g><g
       transform="translate(192.165,28.428)"
       id="g30"><path
         id="path32"
         style="fill:#231f20;fill-opacity:1;fill-rule:nonzero;stroke:none"
         d="m 0,0 c 0.887,0.945 1.553,1.514 2.353,2.228 l -3.39,1.68 C -1.044,3.514 -1.17,1.965 -1.385,0.686 -1.615,-0.68 -1.904,-1.881 -2.162,-2.623 -1.729,-1.967 -0.948,-1.01 0,0" /></g><g
       transform="translate(182.909,48.104)"
       id="g34"><path
         id="path36"
         style="fill:#231f20;fill-opacity:1;fill-rule:nonzero;stroke:none"
         d="M 0,0 C 0.877,-0.954 1.395,-1.661 2.049,-2.511 L 3.974,0.746 C 3.581,0.782 2.045,1.021 0.787,1.331 -0.56,1.661 -1.735,2.037 -2.457,2.35 -1.834,1.869 -0.939,1.02 0,0" /></g><text
       id="text40"
       style="font-variant:normal;font-weight:normal;font-stretch:normal;font-size:10px;font-family:Helvetica;-inkscape-font-specification:Helvetica;writing-mode:lr-tb;fill:#231f20;fill-opacity:1;fill-rule:nonzero;stroke:none"
       transform="matrix(1,0,0,-1,126.8194,77.4707)"><tspan
         id="tspan38"
         y="0"
         x="0 5.5599999 8.8900003 14.45 17.23 19.450001 21.67 27.23 32.790001 36.02 41.580002 47.139999 49.360001 54.919998">profile_radius</tspan></text>
<g
       transform="translate(81.784,111.596)"
       id="g42"><path
         id="path44"
         style="fill:none;stroke:#231f20;stroke-width:2;stroke-linecap:butt;stroke-linejoin:miter;stroke-miterlimit:4;stroke-dasharray:none;stroke-opacity:1"
         d="M 0,0 C 0,0 51.56,-64.235 57.98,-72.616 69,-87.001 82.287,-74.339 82.287,-74.339 l 79.047,67.673" /></g><text
       id="text48"
       style="font-variant:normal;font-weight:normal;font-stretch:normal;font-size:10px;font-family:Helvetica;-inkscape-font-specification:Helvetica;writing-mode:lr-tb;fill:#231f20;fill-opacity:1;fill-rule:nonzero;stroke:none"
       transform="matrix(1,0,0,-1,0,60.415)"><tspan
         id="tspan46"
         y="0"
         x="0 5 10.56 15.56 21.120001 26.68 32.240002 37.799999 42.799999 45.02 50.580002 56.139999 61.700001 63.919998 69.480003 75.040001 80.599998 83.379997 88.940002 231.189 233.96899 236.189 239.519 244.519 247.299 252.85899 257.85901 260.07901 265.63901 271.19901 276.759 278.979 284.539 290.099 295.659 298.439">second_side_lengthfirst_side_length</tspan></text>
<g
       transform="translate(123.269,103.611)"
       id="g50"><path
         id="path52"
         style="fill:none;stroke:#231f20;stroke-width:1;stroke-linecap:butt;stroke-linejoin:miter;stroke-miterlimit:4;stroke-dasharray:none;stroke-opacity:1"
         d="M 0,0 C -7.693,0.063 -12.662,-3.515 -18,-8.5" /></g><g
       transform="translate(104.499,93.34)"
       id="g54"><path
         id="path56"
         style="fill:#231f20;fill-opacity:1;fill-rule:nonzero;stroke:none"
         d="M 0,0 C 1.162,0.573 1.986,0.871 2.986,1.258 L 0.404,4.023 C 0.259,3.656 -0.404,2.25 -1.055,1.13 -1.752,-0.069 -2.443,-1.091 -2.947,-1.695 -2.31,-1.234 -1.243,-0.613 0,0" /></g><g
       transform="translate(187.769,105.111)"
       id="g58"><path
         id="path60"
         style="fill:none;stroke:#231f20;stroke-width:1;stroke-linecap:butt;stroke-linejoin:miter;stroke-miterlimit:4;stroke-dasharray:none;stroke-opacity:1"
         d="M 0,0 C 8.308,-0.032 24.323,-6.989 27.5,-15" /></g><g
       transform="translate(216.636,88.748)"
       id="g62"><path
         id="path64"
         style="fill:#231f20;fill-opacity:1;fill-rule:nonzero;stroke:none"
         d="M 0,0 C -0.108,1.291 -0.085,2.167 -0.08,3.239 L -3.598,1.844 C -3.309,1.576 -2.241,0.445 -1.437,-0.57 -0.574,-1.656 0.124,-2.673 0.503,-3.363 0.306,-2.601 0.117,-1.381 0,0" /></g><text
       id="text70"
       style="font-variant:normal;font-weight:normal;font-stretch:normal;font-size:9px;font-family:Helvetica;-inkscape-font-specification:Helvetica;writing-mode:lr-tb;fill:#231f20;fill-opacity:1;fill-rule:nonzero;stroke:none"
       transform="matrix(1,0,0,-1,286.4287,16.6035)"><tspan
         id="tspan66"
         y="0"
         x="0">x</tspan><tspan
         id="tspan68"
         y="-29.8134"
         x="-142.9893">y</tspan></text>
<text
       id="text74"
       style="font-variant:normal;font-weight:normal;font-stretch:normal;font-size:10px;font-family:Helvetica;-inkscape-font-specification:Helvetica;writing-mode:lr-tb;fill:#231f20;fill-opacity:1;fill-rule:nonzero;stroke:none"
       transform="matrix(1,0,0,-1,169.5596,2.25)"><tspan
         id="tspan72"
         y="0"
         x="0 5.5599999 8.8900003 14.45 17.23 19.450001 21.67 27.23 30.01 35.57 39.049999 41.27 46.830002 49.049999">profile origin</tspan></text>
<g
       transform="translate(150.983,18.37)"
       id="g76"><path
         id="path78"
         style="fill:none;stroke:#231f20;stroke-width:1;stroke-linecap:butt;stroke-linejoin:miter;stroke-miterlimit:4;stroke-dasharray:none;stroke-opacity:1"
         d="M 0,0 C 0.809,-3.784 -5.746,-7.828 -1.913,-11.815 0.819,-14.658 9.384,-13.377 14.5,-13.814" /></g><g
       transform="translate(149.861,19.941)"
       id="g80"><path
         id="path82"
         style="fill:#231f20;fill-opacity:1;fill-rule:nonzero;stroke:none"
         d="m 0,0 c -0.107,-1.291 -0.276,-2.151 -0.458,-3.207 l 3.699,0.79 C 3.002,-2.104 2.137,-0.811 1.512,0.323 0.842,1.537 0.323,2.656 0.064,3.399 0.131,2.616 0.115,1.382 0,0" /></g><path
       id="path84"
       style="fill:none;stroke:#231f20;stroke-width:1;stroke-linecap:butt;stroke-linejoin:miter;stroke-miterlimit:4;stroke-dasharray:2;stroke-dashoffset:0;stroke-opacity:1"
       d="M 241.725,103.245 149.909,25.471 m -67.375,84.875 67.25,-84.25" /><g
       transform="translate(173.292,74.611)"
       id="g86"><path
         id="path88"
         style="fill:none;stroke:#231f20;stroke-width:1;stroke-linecap:butt;stroke-linejoin:miter;stroke-miterlimit:4;stroke-dasharray:none;stroke-opacity:1"
         d="M 0,0 C 1.129,-6.02 0.346,-10.647 -2.499,-16.182 -5.29,-21.609 -7.204,-27.673 -11,-32.5" /></g><g
       transform="translate(161.801,40.244)"
       id="g90"><path
         id="path92"
         style="fill:#231f20;fill-opacity:1;fill-rule:nonzero;stroke:none"
         d="M 0,0 C 1.061,0.743 1.831,1.164 2.759,1.699 L -0.215,4.037 C -0.302,3.653 -0.743,2.162 -1.215,0.956 -1.72,-0.335 -2.249,-1.451 -2.654,-2.125 -2.095,-1.572 -1.135,-0.795 0,0" /></g><g
       transform="translate(149.894,25.781)"
       id="g94"><path
         id="path96"
         style="fill:none;stroke:#231f20;stroke-width:0.5;stroke-linecap:butt;stroke-linejoin:miter;stroke-miterlimit:4;stroke-dasharray:none;stroke-opacity:1"
         d="M 0,0 V 27.783" /></g><g
       transform="translate(149.509,54.451)"
       id="g98"><path
         id="path100"
         style="fill:#231f20;fill-opacity:1;fill-rule:nonzero;stroke:none"
         d="M 0,0 C -0.187,-0.621 -0.359,-1.024 -0.56,-1.521 H 1.332 C 1.248,-1.344 0.96,-0.621 0.773,0 0.572,0.662 0.436,1.266 0.387,1.654 0.338,1.266 0.2,0.662 0,0" /></g><g
       transform="translate(139.664,16.834)"
       id="g102"><path
         id="path104"
         style="fill:none;stroke:#231f20;stroke-width:1;stroke-linecap:butt;stroke-linejoin:miter;stroke-miterlimit:4;stroke-dasharray:none;stroke-opacity:1"
         d="M 0,0 -7.253,-6.143" /><g
         transform="translate(16.871,0.242)"
         id="g106"><path
           id="path108"
           style="fill:none;stroke:#231f20;stroke-width:1;stroke-linecap:butt;stroke-linejoin:miter;stroke-miterlimit:4;stroke-dasharray:none;stroke-opacity:1"
           d="M 0,0 5.848,-7.3257" /><g
           transform="translate(-85.291,84.924)"
           id="g110"><path
             id="path112"
             style="fill:none;stroke:#231f20;stroke-width:1;stroke-linecap:butt;stroke-linejoin:miter;stroke-miterlimit:4;stroke-dasharray:none;stroke-opacity:1"
             d="M 0,0 -7.252,-6.143" /></g></g></g><path
       id="path114"
       style="fill:#ffffff;fill-opacity:1;fill-rule:nonzero;stroke:#ffffff;stroke-width:1;stroke-linecap:butt;stroke-linejoin:miter;stroke-miterlimit:4;stroke-dasharray:none;stroke-opacity:1"
       d="m 129.497,27.096 h -6.4253 v -5 h 6.4253 z" /><path
       id="path116"
       style="fill:none;stroke:#231f20;stroke-width:1;stroke-linecap:butt;stroke-linejoin:miter;stroke-miterlimit:4;stroke-dasharray:5;stroke-dashoffset:0;stroke-opacity:1"
       d="m 68.325,98.055 67.25,-84.25" /><g
       transform="translate(249.702,94.577)"
       id="g118"><path
         id="path120"
         style="fill:none;stroke:#231f20;stroke-width:1;stroke-linecap:butt;stroke-linejoin:miter;stroke-miterlimit:4;stroke-dasharray:none;stroke-opacity:1"
         d="M 0,0 5.848,-7.326" /></g><path
       id="path122"
       style="fill:#ffffff;fill-opacity:1;fill-rule:nonzero;stroke:#ffffff;stroke-width:1;stroke-linecap:butt;stroke-linejoin:miter;stroke-miterlimit:4;stroke-dasharray:none;stroke-opacity:1"
       d="m 177.226,27.786 h -6.4253 v -5 h 6.4253 z" /><path
       id="path124"
       style="fill:none;stroke:#231f20;stroke-width:1;stroke-linecap:butt;stroke-linejoin:miter;stroke-miterlimit:4;stroke-dasharray:5;stroke-dashoffset:0;stroke-opacity:1"
       d="M 250.867,90.467 159.052,12.693" /></g></svg>