<?xml version="1.0" encoding="UTF-8" standalone="no"?>
<svg
   xmlns:dc="http://purl.org/dc/elements/1.1/"
   xmlns:cc="http://creativecommons.org/ns#"
   xmlns:rdf="http://www.w3.org/1999/02/22-rdf-syntax-ns#"
   xmlns:svg="http://www.w3.org/2000/svg"
   xmlns="http://www.w3.org/2000/svg"
   viewBox="0 0 507.57333 174.20934"
   height="174.20934"
   width="507.57333"
   xml:space="preserve"
   id="svg2"
   version="1.1"><metadata
     id="metadata8"><rdf:RDF><cc:Work
         rdf:about=""><dc:format>image/svg+xml</dc:format><dc:type
           rdf:resource="http://purl.org/dc/dcmitype/StillImage" /></cc:Work></rdf:RDF></metadata><defs
     id="defs6" /><g
     transform="matrix(1.3333333,0,0,-1.3333333,0,174.20933)"
     id="g10"><text
       id="text16"
       style="font-variant:normal;font-weight:normal;font-stretch:normal;font-size:10px;font-family:Helvetica;-inkscape-font-specification:Helvetica;writing-mode:lr-tb;fill:#231f20;fill-opacity:1;fill-rule:nonzero;stroke:none"
       transform="matrix(1,0,0,-1,129.0339,54.9414)"><tspan
         id="tspan12"
         y="0"
         x="0 5 7.2199998 12.78">via</tspan><tspan
         id="tspan14"
         y="-66.404999"
         x="129.004 134.004 136.784 142.34399 146.07401 148.854 151.634 157.194 162.754 168.314 171.09399 176.65401 182.214">start and end</tspan></text>
<g
       transform="translate(65.006,115)"
       id="g18"><path
         id="path20"
         style="fill:none;stroke:#231f20;stroke-width:2;stroke-linecap:butt;stroke-linejoin:miter;stroke-miterlimit:4;stroke-dasharray:none;stroke-opacity:1"
         d="m 0,0 c 31.48,0 57,-25.52 57,-57 0,-31.48 -25.52,-57 -57,-57 -31.48,0 -57,25.52 -57,57" /><g
         transform="translate(281,-57)"
         id="g22"><path
           id="path24"
           style="fill:none;stroke:#231f20;stroke-width:2;stroke-linecap:butt;stroke-linejoin:miter;stroke-miterlimit:4;stroke-dasharray:none;stroke-opacity:1"
           d="m 0,0 c 0,-31.48 -25.52,-57 -57,-57 -31.48,0 -57,25.52 -57,57 0,31.48 25.52,57 57,57 C -25.52,57 0,31.48 0,0 Z" /></g></g><path
       id="path26"
       style="fill:#231f20;fill-opacity:1;fill-rule:nonzero;stroke:#231f20;stroke-width:2.375;stroke-linecap:butt;stroke-linejoin:miter;stroke-miterlimit:4;stroke-dasharray:none;stroke-opacity:1"
       d="m 124.444,55.7 h -5.542 v 5.542 h 5.542 z" /><text
       id="text32"
       style="font-variant:normal;font-weight:normal;font-stretch:normal;font-size:10px;font-family:Helvetica;-inkscape-font-specification:Helvetica;writing-mode:lr-tb;fill:#231f20;fill-opacity:1;fill-rule:nonzero;stroke:none"
       transform="matrix(1,0,0,-1,-2e-4,67.1357)"><tspan
         id="tspan28"
         y="0"
         x="0 5.5599999 11.12">end</tspan><tspan
         id="tspan30"
         y="-44.667"
         x="39.749001 44.749001 47.528999 53.089001 56.819">start</tspan></text>
<path
       id="path34"
       style="fill:#231f20;fill-opacity:1;fill-rule:nonzero;stroke:#231f20;stroke-width:2.375;stroke-linecap:butt;stroke-linejoin:miter;stroke-miterlimit:4;stroke-dasharray:none;stroke-opacity:1"
       d="m 68.673,112.334 h -5.542 v 5.542 h 5.542 z" /><path
       id="path36"
       style="fill:#231f20;fill-opacity:1;fill-rule:nonzero;stroke:#231f20;stroke-width:2.375;stroke-linecap:butt;stroke-linejoin:miter;stroke-miterlimit:4;stroke-dasharray:none;stroke-opacity:1"
       d="M 10.882,55.7 H 5.34 v 5.542 h 5.542 z" /><path
       id="path38"
       style="fill:#231f20;fill-opacity:1;fill-rule:nonzero;stroke:#231f20;stroke-width:2.375;stroke-linecap:butt;stroke-linejoin:miter;stroke-miterlimit:4;stroke-dasharray:none;stroke-opacity:1"
       d="m 290.111,112.563 h -5.542 v 5.542 h 5.542 z" /><path
       id="path40"
       style="fill:#231f20;fill-opacity:1;fill-rule:nonzero;stroke:#231f20;stroke-width:2.375;stroke-linecap:butt;stroke-linejoin:miter;stroke-miterlimit:4;stroke-dasharray:none;stroke-opacity:1"
       d="m 348.111,55.7 h -5.542 v 5.542 h 5.542 z" /><path
       id="path42"
       style="fill:#231f20;fill-opacity:1;fill-rule:nonzero;stroke:#231f20;stroke-width:2.375;stroke-linecap:butt;stroke-linejoin:miter;stroke-miterlimit:4;stroke-dasharray:none;stroke-opacity:1"
       d="m 234.444,55.7 h -5.542 v 5.542 h 5.542 z" /><text
       id="text46"
       style="font-variant:normal;font-weight:normal;font-stretch:normal;font-size:10px;font-family:Helvetica;-inkscape-font-specification:Helvetica;writing-mode:lr-tb;fill:#231f20;fill-opacity:1;fill-rule:nonzero;stroke:none"
       transform="matrix(1,0,0,-1,354.0004,54.9414)"><tspan
         id="tspan44"
         y="0"
         x="0 5 7.2199998 12.78 15.56 21.120001 -158.33299 -153.33299 -151.11301 -145.55299 -142.77299 -137.213 -131.653">via #2via #1</tspan></text>
</g></svg>